<svg width="100" height="100" viewBox="0 0 100 100" fill="none" xmlns="http://www.w3.org/2000/svg">
<path d="M52.7655 48.3722V56.9304L51.44 52.4653C50.2772 48.5583 46.1144 46.3722 42.2307 47.6513C41.0213 48.0467 40.2539 49.1629 40.2539 50.3955C40.2539 50.6513 40.2772 50.9071 40.3469 51.1629L43.6493 63.3025C45.2306 69.1164 48.8818 74.1629 53.9283 77.4653V87.3722H82.6725V77.4653C82.6725 77.4653 85.1609 72.0001 85.1609 63.7908V48.3955" stroke="#1D1D1D" stroke-width="2" stroke-miterlimit="10" stroke-linecap="round" stroke-linejoin="round"/>
<path d="M52.7656 52.2327V24.2095C52.7656 22.0932 54.4866 20.3955 56.5796 20.3955C58.9517 20.3955 60.8587 22.3257 60.8587 24.6746V52.256M68.9749 52.2327V39.5118C68.9749 37.3955 70.6959 35.6978 72.7889 35.6978C75.161 35.6978 77.0679 37.6281 77.0679 39.9769V52.2327V45.9304C77.0679 43.6978 78.8819 42.5583 81.1145 42.5583C83.347 42.5583 85.161 44.3723 85.161 46.6048V52.2327" stroke="#1D1D1D" stroke-width="2" stroke-miterlimit="10" stroke-linecap="round" stroke-linejoin="round"/>
<path d="M60.883 52.2326V38.2094C60.883 35.9768 62.697 34.1629 64.9296 34.1629C67.1621 34.1629 68.9761 35.9768 68.9761 38.2094V52.2326M45.6503 26.2791C45.2316 24.4652 45.2782 22.5117 45.8828 20.6047C47.6968 14.7675 53.8828 11.4884 59.7433 13.3024C65.2782 15.0233 68.5107 20.6512 67.3014 26.2094M26.0919 17.3489V24.0931H22.72M26.0921 35.3024C32.2828 35.3024 37.3014 30.2838 37.3014 24.0931C37.3014 17.9024 32.2828 12.8838 26.0921 12.8838C19.9014 12.8838 14.8828 17.9024 14.8828 24.0931C14.8828 30.2838 19.9014 35.3024 26.0921 35.3024Z" stroke="#1D1D1D" stroke-width="2" stroke-miterlimit="10" stroke-linecap="round" stroke-linejoin="round"/>
</svg>
