<svg width="100" height="100" viewBox="0 0 100 100" fill="none" xmlns="http://www.w3.org/2000/svg">
<path d="M25.9685 21.7031H81.3962V6.97681H25.9685C21.9108 6.97681 18.6055 10.2822 18.6055 14.3398C18.6055 18.3977 21.9108 21.7031 25.9685 21.7031Z" stroke="#1D1D1D" stroke-width="2" stroke-miterlimit="10" stroke-linecap="round" stroke-linejoin="round"/>
<path d="M18.6055 14.3401V85.6871C18.6055 87.7294 19.4385 89.5568 20.7552 90.8736C22.099 92.2173 23.9262 93.0233 25.9685 93.0233H81.3962V21.6764" stroke="#1D1D1D" stroke-width="2" stroke-miterlimit="10" stroke-linecap="round" stroke-linejoin="round"/>
<path d="M45.3267 64.4652L42.1406 57.8141L49.9313 47.3257M49.9313 47.3257L57.722 57.8141L54.536 64.4652M49.9313 47.3257V58.8141M55.2336 70.2792V76.4885H44.629V70.2792M56.6523 64.4652H43.2336V70.2792H56.6523V64.4652Z" stroke="#1D1D1D" stroke-width="2" stroke-miterlimit="10" stroke-linecap="round" stroke-linejoin="round"/>
<path d="M68.722 57C68.722 46.6279 60.3034 38.2093 49.9313 38.2093C39.5592 38.2093 31.1406 46.6279 31.1406 57M32.8383 38.186H67.0244" stroke="#1D1D1D" stroke-width="2" stroke-miterlimit="10" stroke-linecap="round" stroke-linejoin="round"/>
<path d="M68.722 57H68.7453M31.1406 57H31.1639M32.815 38.186H32.8383M67.0243 38.2093H67.0476" stroke="#1D1D1D" stroke-width="2" stroke-miterlimit="10" stroke-linecap="round" stroke-linejoin="round"/>
<path d="M50 38.2095H50.0233" stroke="#1D1D1D" stroke-width="2" stroke-miterlimit="10" stroke-linecap="round" stroke-linejoin="round"/>
</svg>
