<svg width="85" height="85" viewBox="0 0 85 85" fill="none" xmlns="http://www.w3.org/2000/svg">
    <path
        d="M74.1516 21.0027H10.8484M69.7218 10.8481H15.2783C12.8317 10.8481 10.8484 12.8314 10.8484 15.278V69.7215C10.8484 72.1681 12.8317 74.1514 15.2783 74.1514H69.7218C72.1684 74.1514 74.1516 72.1681 74.1516 69.7215V15.278C74.1516 12.8314 72.1684 10.8481 69.7218 10.8481Z"
        stroke="#1D1D1D" stroke-width="2" stroke-linecap="round" stroke-linejoin="round" />
    <path d="M28.2398 15.9263H28.2674M17.1127 15.9263H17.1384M22.6772 15.9263H22.7029" stroke="#1D1D1D" stroke-width="2"
        stroke-linecap="round" stroke-linejoin="round" />
    <path
        d="M31.2899 39.8628L18.7613 49.0942L31.2899 58.3256M53.7101 39.8628L66.2387 49.0942L53.7101 58.3256M45.4908 39.8628L39.5092 58.3256"
        stroke="#1D1D1D" stroke-width="2" stroke-linecap="round" stroke-linejoin="round" />
</svg>