<svg width="85" height="85" viewBox="0 0 85 85" fill="none" xmlns="http://www.w3.org/2000/svg">
<path d="M74.1509 21.0027H10.8477M69.721 10.8481H15.2775C12.8309 10.8481 10.8477 12.8314 10.8477 15.278V69.7215C10.8477 72.1681 12.8309 74.1514 15.2775 74.1514H69.721C72.1676 74.1514 74.1509 72.1681 74.1509 69.7215V15.278C74.1509 12.8314 72.1676 10.8481 69.721 10.8481Z" stroke="#1D1D1D" stroke-width="2" stroke-linecap="round" stroke-linejoin="round"/>
<path d="M28.2404 15.9263H28.268M17.1133 15.9263H17.139M22.6778 15.9263H22.7035" stroke="#1D1D1D" stroke-width="2" stroke-linecap="round" stroke-linejoin="round"/>
<path d="M31.2903 39.8628L18.7617 49.0942L31.2903 58.3256M53.7106 39.8628L66.2392 49.0942L53.7106 58.3256M45.4913 39.8628L39.5096 58.3256" stroke="#1D1D1D" stroke-width="2" stroke-linecap="round" stroke-linejoin="round"/>
</svg>
