<svg width="20" height="20" viewBox="0 0 20 20" fill="none" xmlns="http://www.w3.org/2000/svg">
<path d="M16.6825 4.54609L16.6028 4.44906L16.5261 4.5484C16.3479 4.77893 14.9294 6.60836 11.8061 7.87919L11.7071 7.91946L11.7539 8.01556C11.9486 8.41568 12.143 8.83699 12.3157 9.24706L12.3159 9.24764C12.3406 9.30532 12.3653 9.36702 12.3902 9.42936C12.4264 9.51995 12.4631 9.61189 12.5014 9.69484L12.5321 9.7613L12.6047 9.75215C15.3519 9.4061 18.0819 9.93759 18.4883 10.0167C18.4997 10.0189 18.5093 10.0208 18.5169 10.0223L18.6371 10.0454L18.6358 9.92298C18.6139 7.89307 17.8896 6.01656 16.6825 4.54609ZM15.7435 3.67992L15.7947 3.60681L15.7279 3.54767C14.2028 2.19813 12.1946 1.37506 10 1.37506C9.29859 1.37506 8.61832 1.45177 7.97041 1.60552L7.82367 1.64034L7.91286 1.76196L7.924 1.77714C8.19564 2.14738 9.71875 4.22334 11.0944 6.75062L11.1359 6.82697L11.2173 6.79645C14.2774 5.64892 15.583 3.90915 15.7435 3.67992ZM6.44663 2.21766L6.39767 2.15237L6.32389 2.18725C3.91013 3.32828 2.09957 5.55548 1.53986 8.23335L1.51468 8.35381H1.63774C1.64431 8.35381 1.65181 8.35382 1.66023 8.35383C2.1414 8.35424 5.624 8.35723 9.55936 7.30919L9.68425 7.27594L9.6207 7.16339C8.19728 4.64253 6.6763 2.52391 6.44663 2.21766ZM1.45629 9.65061L1.35336 9.64759V9.75056V9.75107V9.75158V9.75209V9.7526V9.7531V9.75361V9.75412V9.75463V9.75514V9.75565V9.75615V9.75666V9.75717V9.75768V9.75819V9.7587V9.7592V9.75971V9.76022V9.76073V9.76124V9.76175V9.76225V9.76276V9.76327V9.76378V9.76429V9.7648V9.7653V9.76581V9.76632V9.76683V9.76734V9.76785V9.76835V9.76886V9.76937V9.76988V9.77039V9.7709V9.7714V9.77191V9.77242V9.77293V9.77344V9.77394V9.77445V9.77496V9.77547V9.77598V9.77649V9.77699V9.7775V9.77801V9.77852V9.77903V9.77954V9.78004V9.78055V9.78106V9.78157V9.78208V9.78259V9.78309V9.7836V9.78411V9.78462V9.78513V9.78564V9.78614V9.78665V9.78716V9.78767V9.78818V9.78869V9.78919V9.7897V9.79021V9.79072V9.79123V9.79174V9.79224V9.79275V9.79326V9.79377V9.79428V9.79479V9.79529V9.7958V9.79631V9.79682V9.79733V9.79784V9.79834V9.79885V9.79936V9.79987V9.80038V9.80089V9.80139V9.8019V9.80241V9.80292V9.80343V9.80394V9.80444V9.80495V9.80546V9.80597V9.80648V9.80698V9.80749V9.808V9.80851V9.80902V9.80953V9.81003V9.81054V9.81105V9.81156V9.81207V9.81258V9.81308V9.81359V9.8141V9.81461V9.81512V9.81563V9.81613V9.81664V9.81715V9.81766V9.81817V9.81868V9.81918V9.81969V9.8202V9.82071V9.82122V9.82173V9.82223V9.82274V9.82325V9.82376V9.82427V9.82478V9.82528V9.82579V9.8263V9.82681V9.82732V9.82783V9.82833V9.82884V9.82935V9.82986V9.83037V9.83088V9.83138V9.83189V9.8324V9.83291V9.83342V9.83393V9.83443V9.83494V9.83545V9.83596V9.83647V9.83698V9.83748V9.83799V9.8385V9.83901V9.83952V9.84003V9.84053V9.84104V9.84155V9.84206V9.84257V9.84308V9.84359V9.84409V9.8446V9.84511V9.84562V9.84613V9.84663V9.84714V9.84765V9.84816V9.84867V9.84918V9.84968V9.85019V9.8507V9.85121V9.85172V9.85223V9.85274V9.85324V9.85375V9.85426V9.85477V9.85528V9.85579V9.85629V9.8568V9.85731V9.85782V9.85833V9.85884V9.85934V9.85985V9.86036V9.86087V9.86138V9.86189V9.86239V9.8629V9.86341V9.86392V9.86443V9.86494V9.86544V9.86595V9.86646V9.86697V9.86748V9.86799V9.86849V9.869V9.86951V9.87002V9.87053V9.87104V9.87154V9.87205V9.87256V9.87307V9.87358V9.87409V9.87459V9.8751V9.87561V9.87612V9.87663V9.87714V9.87765V9.87815V9.87866V9.87917V9.87968V9.88019V9.8807V9.8812V9.88171V9.88222V9.88273V9.88324V9.88375V9.88425V9.88476V9.88527V9.88578V9.88629V9.8868V9.88731V9.88781V9.88832V9.88883V9.88934V9.88985V9.89036V9.89086V9.89137V9.89188V9.89239V9.8929V9.89341V9.89391V9.89442V9.89493V9.89544V9.89595V9.89646V9.89697V9.89747V9.89798V9.89849V9.899V9.89951V9.90001V9.90052V9.90103V9.90154V9.90205V9.90256V9.90307V9.90357V9.90408V9.90459V9.9051V9.90561V9.90612V9.90662V9.90713V9.90764V9.90815V9.90866V9.90917V9.90968V9.91018V9.91069V9.9112V9.91171V9.91222V9.91273V9.91323V9.91374V9.91425V9.91476V9.91527V9.91578V9.91629V9.91679V9.9173V9.91781V9.91832V9.91883V9.91934V9.91984V9.92035V9.92086V9.92137V9.92188V9.92239V9.9229V9.9234V9.92391V9.92442V9.92493V9.92544V9.92595V9.92645V9.92696V9.92747V9.92798V9.92849V9.929V9.92951V9.93001V9.93052V9.93103V9.93154V9.93205V9.93256V9.93306V9.93357V9.93408V9.93459V9.9351V9.93561V9.93612V9.93662V9.93713V9.93764V9.93815V9.93866V9.93917V9.93968V9.94018V9.94069V9.9412V9.94171V9.94222V9.94273V9.94323V9.94374V9.94425V9.94476V9.94527V9.94578V9.94629V9.94679V9.9473V9.94781V9.94832V9.94883V9.94934V9.94985V9.95035V9.95086V9.95137V9.95188V9.95239V9.9529V9.9534V9.95391V9.95442V9.95493V9.95544V9.95595V9.95646V9.95696V9.95747V9.95798V9.95849V9.959V9.95951V9.96002V9.96052V9.96103V9.96154V9.96205V9.96256V9.96307V9.96358V9.96408V9.96459V9.9651V9.96561V9.96612V9.96663V9.96714V9.96764V9.96815V9.96866V9.96917V9.96968V9.97019V9.9707V9.9712V9.97171V9.97222V9.97273V9.97324V9.97375V9.97426V9.97476V9.97527V9.97578V9.97629V9.9768V9.97731V9.97782V9.97832V9.97883V9.97934V9.97985V9.98036V9.98087V9.98138V9.98188V9.98239V9.9829V9.98341V9.98392V9.98443V9.98494V9.98544V9.98595V9.98646V9.98697V9.98748V9.98799V9.9885V9.989V9.98951V9.99002V9.99053V9.99104V9.99155V9.99206V9.99256V9.99307V9.99358V9.99409V9.9946V9.99511V9.99562V9.99613V9.99663V9.99714V9.99765V9.99816V9.99867V9.99918V9.99969V10.0002V10.0007V10.0012V10.0017V10.0022V10.0027V10.0032V10.0038V10.0043V10.0048V10.0053V10.0058V10.0063V10.0068V10.0073V10.0078V10.0083V10.0088V10.0093V10.0099V10.0104V10.0109C1.35336 12.2275 2.19838 14.2576 3.56989 15.7827L3.66038 15.8833L3.73 15.7673C3.92355 15.4447 6.2498 11.5913 10.6154 10.1822C10.6683 10.1664 10.724 10.1505 10.7804 10.1344L10.7813 10.1341C10.8381 10.1179 10.8957 10.1014 10.9507 10.0849L11.0594 10.0523L11.0133 9.94851C10.7959 9.45941 10.5672 8.96925 10.3164 8.48948L10.2781 8.41628L10.199 8.44004C5.9515 9.71536 1.82067 9.66129 1.45629 9.65061ZM4.67133 16.7027L4.63628 16.7753L4.69979 16.825C6.15933 17.9663 8.00296 18.6466 10 18.6466C11.1958 18.6466 12.3373 18.4052 13.3802 17.9551L13.4526 17.9239L13.4391 17.8462C13.3084 17.0945 12.8189 14.4735 11.6117 11.3522L11.5721 11.2498L11.4738 11.2988C11.4697 11.3009 11.4673 11.3017 11.4597 11.3043L11.4593 11.3044C11.4515 11.307 11.4401 11.3108 11.4258 11.3175C6.58045 13.011 4.82982 16.3745 4.67133 16.7027ZM14.6627 17.0989L14.6883 17.2521L14.8172 17.1654C16.7591 15.8598 18.1421 13.7859 18.5153 11.382L18.5283 11.2985L18.4481 11.2718C18.1481 11.1717 15.7878 10.4725 13.0863 10.899L12.9665 10.918L13.008 11.032C14.1223 14.0939 14.5766 16.5821 14.6627 17.0989ZM0.1 10C0.1 4.53462 4.53462 0.1 10 0.1C15.4546 0.1 19.9 4.53469 19.9 10C19.9 15.4653 15.4546 19.9 10 19.9C4.53462 19.9 0.1 15.4654 0.1 10Z" fill="#1D1D1D" stroke="#1D1D1D" stroke-width="0.2"/>
</svg>
