<svg width="150" height="150" viewBox="0 0 150 150" fill="none" xmlns="http://www.w3.org/2000/svg">
<path d="M40.9137 100.495C54.9862 100.495 66.3938 89.0871 66.3938 75.015C66.3938 60.9429 54.9862 49.5349 40.9137 49.5349C26.8416 49.5349 15.4336 60.9426 15.4336 75.015C15.4336 89.0871 26.8416 100.495 40.9137 100.495ZM109.054 100.495C123.127 100.495 134.534 89.0871 134.534 75.015C134.534 60.9429 123.127 49.5349 109.054 49.5349C94.9821 49.5349 83.5741 60.9426 83.5741 75.015C83.5741 89.0871 94.9821 100.495 109.054 100.495Z" stroke="#1D1D1D" stroke-width="2.5" stroke-miterlimit="10" stroke-linecap="round" stroke-linejoin="round"/>
<path d="M109.055 71.5266V78.5034M40.9141 71.5266V78.5034" stroke="#1D1D1D" stroke-width="2.5" stroke-linecap="round"/>
<path d="M84.322 68.857C82.0821 66.2132 78.7381 64.5349 75.0017 64.5349C71.2489 64.5349 67.8917 66.2282 65.6518 68.8919M15.4287 75H8.72266M141.28 75H134.531" stroke="#1D1D1D" stroke-width="2.5" stroke-miterlimit="10" stroke-linecap="round" stroke-linejoin="round"/>
</svg>
