<svg width="85" height="85" viewBox="0 0 85 85" fill="none" xmlns="http://www.w3.org/2000/svg">
<path d="M41.629 66.4187H35.9162V68.3756C35.9162 71.4396 38.4069 73.9303 41.4708 73.9303H43.4871C46.5511 73.9303 49.0418 71.4396 49.0418 68.3756V66.4187H41.629ZM42.4989 61.4175H47.9152C49.4175 61.4175 50.6234 60.2117 50.6234 58.7094V55.8826C50.6234 54.4001 51.2757 52.9966 52.4024 52.028C55.9013 49.0431 63.3338 41.5117 63.3338 31.4698C63.3338 19.8268 57.2059 11.0698 42.4989 11.0698C27.792 11.0698 21.6641 19.8268 21.6641 31.4698C21.6641 41.5117 29.0966 49.0431 32.5955 52.028C33.7222 52.9966 34.3745 54.4001 34.3745 55.8826V58.7094C34.3745 60.2117 35.5803 61.4175 37.0827 61.4175H42.4989Z" stroke="#1D1D1D" stroke-width="2" stroke-miterlimit="17.48" stroke-linecap="round" stroke-linejoin="round"/>
<path d="M46.4923 51.099L50.2877 32.5571L46.4923 37.7757L42.4993 33.1304L38.5063 37.7955L34.7109 32.5769L38.5063 51.1188" stroke="#1D1D1D" stroke-width="2" stroke-miterlimit="17.48" stroke-linecap="round" stroke-linejoin="round"/>
</svg>
