<svg width="35" height="35" viewBox="0 0 35 35" fill="none" xmlns="http://www.w3.org/2000/svg">
<path d="M24.8035 30.6177L10.2202 30.6315C7.01188 30.6344 4.38469 28.0124 4.38104 24.804L4.36719 10.2207C4.36427 7.01237 6.98636 4.38518 10.1947 4.38153L24.778 4.36768C27.9864 4.36476 30.6135 6.98685 30.6172 10.1952L30.631 24.7785C30.6347 27.9876 28.0119 30.6148 24.8035 30.6177Z" fill="url(#paint0_radial_9085_7025)"/>
<path d="M24.8035 30.6177L10.2202 30.6315C7.01188 30.6344 4.38469 28.0124 4.38104 24.804L4.36719 10.2207C4.36427 7.01237 6.98636 4.38518 10.1947 4.38153L24.778 4.36768C27.9864 4.36476 30.6135 6.98685 30.6172 10.1952L30.631 24.7785C30.6347 27.9876 28.0119 30.6148 24.8035 30.6177Z" fill="url(#paint1_radial_9085_7025)"/>
<path d="M17.5026 22.6043C14.6888 22.6043 12.3984 20.3147 12.3984 17.5002C12.3984 14.6856 14.6888 12.396 17.5026 12.396C20.3165 12.396 22.6068 14.6856 22.6068 17.5002C22.6068 20.3147 20.3165 22.6043 17.5026 22.6043ZM17.5026 13.8543C15.4923 13.8543 13.8568 15.4899 13.8568 17.5002C13.8568 19.5105 15.4923 21.146 17.5026 21.146C19.5129 21.146 21.1484 19.5105 21.1484 17.5002C21.1484 15.4899 19.5129 13.8543 17.5026 13.8543Z" fill="white"/>
<path d="M22.9688 13.125C23.5728 13.125 24.0625 12.6353 24.0625 12.0312C24.0625 11.4272 23.5728 10.9375 22.9688 10.9375C22.3647 10.9375 21.875 11.4272 21.875 12.0312C21.875 12.6353 22.3647 13.125 22.9688 13.125Z" fill="white"/>
<path d="M21.8776 26.9793H13.1276C10.3137 26.9793 8.02344 24.6897 8.02344 21.8752V13.1252C8.02344 10.3106 10.3137 8.021 13.1276 8.021H21.8776C24.6915 8.021 26.9818 10.3106 26.9818 13.1252V21.8752C26.9818 24.6897 24.6915 26.9793 21.8776 26.9793ZM13.1276 9.47933C11.1173 9.47933 9.48177 11.1149 9.48177 13.1252V21.8752C9.48177 23.8855 11.1173 25.521 13.1276 25.521H21.8776C23.8879 25.521 25.5234 23.8855 25.5234 21.8752V13.1252C25.5234 11.1149 23.8879 9.47933 21.8776 9.47933H13.1276Z" fill="white"/>
<defs>
<radialGradient id="paint0_radial_9085_7025" cx="0" cy="0" r="1" gradientUnits="userSpaceOnUse" gradientTransform="translate(14.1307 30.6505) scale(32.7389 32.7389)">
<stop stop-color="#FFDD55"/>
<stop offset="0.328" stop-color="#FF543F"/>
<stop offset="0.348" stop-color="#FC5245"/>
<stop offset="0.504" stop-color="#E64771"/>
<stop offset="0.643" stop-color="#D53E91"/>
<stop offset="0.761" stop-color="#CC39A4"/>
<stop offset="0.841" stop-color="#C837AB"/>
</radialGradient>
<radialGradient id="paint1_radial_9085_7025" cx="0" cy="0" r="1" gradientUnits="userSpaceOnUse" gradientTransform="translate(8.59344 4.03977) scale(21.7386 14.4845)">
<stop stop-color="#4168C9"/>
<stop offset="0.999" stop-color="#4168C9" stop-opacity="0"/>
</radialGradient>
</defs>
</svg>
