<svg width="99" height="107" viewBox="0 0 99 107" fill="none" xmlns="http://www.w3.org/2000/svg">
<g clip-path="url(#clip0_9051_5539)">
<path d="M90.0254 0H8.97458C4.01801 0 0 4.30847 0 9.62335V96.5333C0 101.848 4.01801 106.157 8.97458 106.157H90.0254C94.982 106.157 99 101.848 99 96.5333V9.62335C99 4.30847 94.982 0 90.0254 0Z" fill="#DC395F"/>
<path d="M33.0845 33.3996C36.3755 33.3996 39.1324 30.6337 39.1324 27.0087C39.1324 23.3861 36.3755 20.6206 33.0845 20.6206C29.7935 20.6206 27.0374 23.3861 27.0374 27.0087C27.0374 30.6333 29.7935 33.3996 33.0845 33.3996ZM20.5448 67.6186C20.1894 69.2399 20.0111 70.9907 20.0111 72.4188C20.0111 78.0464 22.857 81.7822 28.9049 81.7822C33.9206 81.7822 37.9869 78.5883 40.9148 73.431L39.127 81.1245H49.0869L54.7794 56.6425C56.2025 50.444 58.9595 47.2265 63.1399 47.2265C66.4305 47.2265 68.4758 49.421 68.4758 53.0436C68.4758 54.0931 68.3869 55.2364 68.0311 56.4767L65.0959 67.7297C64.6512 69.3511 64.4741 70.9733 64.4741 72.498C64.4741 77.8403 67.4081 81.7478 73.5449 81.7478C78.7923 81.7478 82.972 78.1256 85.2846 69.4469L81.3717 67.8271C79.415 73.6413 77.725 74.6925 76.3908 74.6925C75.0566 74.6925 74.3451 73.7396 74.3451 71.8333C74.3451 70.9749 74.5237 70.0224 74.7898 68.8754L77.6364 57.9123C78.3476 55.338 78.6148 53.0552 78.6148 50.9578C78.6148 42.7563 73.9897 38.4761 68.3869 38.4761C63.1399 38.4761 57.8032 43.5513 55.1356 48.8927L57.0916 39.3054H41.8843L39.7496 47.7498H46.8648L42.4833 66.5595C39.0427 74.7609 32.7225 74.894 31.9294 74.7037C30.6269 74.3885 29.7939 73.8582 29.7939 72.0435C29.7939 70.9965 29.9718 69.4925 30.4165 67.6791L37.0874 39.3054H20.1894L18.0547 47.7498H25.0802L20.5448 67.6186Z" fill="white"/>
</g>
<defs>
<clipPath id="clip0_9051_5539">
<rect width="99" height="106.157" fill="white"/>
</clipPath>
</defs>
</svg>
