<svg width="150" height="150" viewBox="0 0 150 150" fill="none" xmlns="http://www.w3.org/2000/svg">
<mask id="mask0_8779_19519" style="mask-type:alpha" maskUnits="userSpaceOnUse" x="33" y="61" width="107" height="86">
<path d="M33.1406 76.7442H51.164L62.7918 88.9535L74.4196 76.7442H99.4197C103.273 76.7442 106.396 73.6207 106.396 69.7674V61.0465H139.536V146.512H33.1406V76.7442Z" fill="white"/>
</mask>
<g mask="url(#mask0_8779_19519)">
<path d="M50.5822 68.0232C46.729 68.0232 43.6055 71.1467 43.6055 74.9999V120.349C43.6055 124.202 46.729 127.326 50.5822 127.326H75.5823L87.2101 139.535L98.8379 127.326H123.838C127.691 127.326 130.815 124.202 130.815 120.349V74.9999C130.815 71.1467 127.691 68.0232 123.838 68.0232H50.5822Z" stroke="#1D1D1D" stroke-width="2.5" stroke-miterlimit="10" stroke-linecap="round" stroke-linejoin="round"/>
</g>
<path d="M100.121 104.209C100.952 103.381 101.611 102.396 102.06 101.312C102.509 100.228 102.739 99.0661 102.738 97.8927C102.739 96.7193 102.509 95.5572 102.06 94.4732C101.611 93.3891 100.952 92.4045 100.121 91.576C98.6374 90.0753 96.7526 89.229 94.8072 89.0106C92.1986 88.7141 89.485 89.5691 87.4868 91.576L87.4781 91.5847L87.4694 91.576C86.6409 90.745 85.6563 90.086 84.5722 89.6368C83.4882 89.1875 82.3261 88.957 81.1526 88.9583C79.9792 88.957 78.8171 89.1875 77.733 89.6368C76.649 90.086 75.6644 90.745 74.8359 91.576C71.3374 95.057 71.3374 100.719 74.8272 104.209L87.4781 116.86L100.121 104.209Z" stroke="#1D1D1D" stroke-width="2.5" stroke-miterlimit="14" stroke-linecap="round" stroke-linejoin="round"/>
<path d="M54.8192 57.2197L61.0473 59.3022H74.3649C75.0368 59.3021 75.6881 59.07 76.2086 58.6451C76.7291 58.2202 77.0869 57.6286 77.2215 56.9703L79.5186 45.7241C79.888 43.9164 78.507 42.2249 76.662 42.2249H69.7683V37.5843C69.7683 34.1661 66.9974 31.3953 63.5792 31.3953C63.3565 31.3953 63.1406 31.4719 62.9678 31.6123C62.7949 31.7527 62.6757 31.9482 62.63 32.1662L61.257 38.7132C60.9995 39.9416 60.3271 41.0439 59.3528 41.8351C58.3785 42.6263 57.1616 43.058 55.9065 43.0579H54.8192M43.6055 41.8084H54.8188V58.4692H43.6055V41.8084Z" stroke="#1D1D1D" stroke-width="2.5" stroke-linejoin="round"/>
<path d="M26.1642 17.4419C22.311 17.4419 19.1875 20.5654 19.1875 24.4186V69.7675C19.1875 73.6207 22.311 76.7442 26.1642 76.7442H51.1644L62.7922 88.9535L74.4199 76.7442H99.4201C103.273 76.7442 106.397 73.6207 106.397 69.7675V24.4186C106.397 20.5654 103.273 17.4419 99.4201 17.4419H26.1642Z" stroke="#1D1D1D" stroke-width="2.5" stroke-miterlimit="10" stroke-linecap="round" stroke-linejoin="round"/>
</svg>
