<svg width="35" height="35" viewBox="0 0 35 35" fill="none" xmlns="http://www.w3.org/2000/svg">
<path d="M30.625 26.9792C30.625 28.9931 28.9931 30.625 26.9792 30.625H8.02083C6.0076 30.625 4.375 28.9931 4.375 26.9792V8.02083C4.375 6.00688 6.0076 4.375 8.02083 4.375H26.9792C28.9931 4.375 30.625 6.00688 30.625 8.02083V26.9792Z" fill="#0078D4"/>
<path opacity="0.05" d="M21.8776 26.9793V19.6155C21.8776 18.3839 21.2804 17.6482 20.2793 17.6482C19.685 17.6482 19.2482 17.9829 18.9821 18.6428C18.9697 18.6894 18.9522 18.8797 18.9595 19.4551L18.9609 26.9793H13.8568V13.1252H18.9609V13.8988C19.7061 13.3847 20.6198 13.1252 21.6866 13.1252C25.0021 13.1252 26.981 15.3805 26.981 19.1583L26.9818 26.9793H21.8776ZM8.02344 26.9793V13.1252H10.5442C9.08365 13.1252 8.02344 12.0518 8.02344 10.5723C8.02344 9.09433 9.10115 8.021 10.5857 8.021C12.0528 8.021 13.0977 9.06443 13.1276 10.5578C13.1276 12.0482 12.0492 13.1252 10.5646 13.1252H13.1276V26.9793H8.02344Z" fill="black"/>
<path opacity="0.07" d="M22.237 26.6144V19.6152C22.237 18.1765 21.4852 17.2833 20.2741 17.2833C19.3298 17.2833 18.8631 17.9483 18.6385 18.5061C18.5788 18.6512 18.5868 19.2272 18.5897 19.473L18.5911 26.6144H14.2161V13.4894H18.5911V14.6838C19.1708 14.0837 20.1042 13.4894 21.6814 13.4894C24.7679 13.4894 26.6113 15.6084 26.6113 19.158L26.612 26.6144H22.237ZM8.38281 26.6144V13.4894H12.7578V26.6144H8.38281ZM10.539 12.7603C9.2899 12.7603 8.38281 11.84 8.38281 10.572C8.38281 9.30473 9.3074 8.38525 10.5805 8.38525C11.8376 8.38525 12.7323 9.2814 12.7578 10.5647C12.7578 11.84 11.8332 12.7603 10.5594 12.7603H10.539Z" fill="black"/>
<path d="M8.75 13.8542H12.3958V26.25H8.75V13.8542ZM10.562 12.3958H10.5416C9.45365 12.3958 8.75 11.585 8.75 10.5722C8.75 9.5375 9.47552 8.75 10.5831 8.75C11.6922 8.75 12.3754 9.5375 12.3958 10.5722C12.3958 11.5843 11.6922 12.3958 10.562 12.3958ZM26.25 26.25H22.6042V19.6153C22.6042 18.0126 21.7109 16.9189 20.2767 16.9189C19.1822 16.9189 18.5901 17.6568 18.3028 18.3699C18.1978 18.6251 18.2292 19.3309 18.2292 19.6875V26.25H14.5833V13.8542H18.2292V15.7617C18.7549 14.9479 19.5781 13.8542 21.684 13.8542C24.2929 13.8542 26.2493 15.4948 26.2493 19.1581L26.25 26.25Z" fill="white"/>
</svg>
