<svg width="110" height="110" viewBox="0 0 110 110" fill="none" xmlns="http://www.w3.org/2000/svg">
<path d="M0 27.5C0 12.3142 12.3142 0 27.5 0H82.5C97.6907 0 110 12.3142 110 27.5V82.5C110 97.6907 97.6859 110 82.5 110H27.5C12.3142 110 0 97.6858 0 82.5V27.5Z" fill="#FFDD34"/>
<path fill-rule="evenodd" clip-rule="evenodd" d="M73.1332 20.9678H63.1472L71.4688 35.5908L53.1611 20.9678H43.1751L52.329 38.8377L33.1891 20.9678H23.2031L33.1891 43.7153L23.2031 89.2055H33.1891L52.329 40.4684L43.1751 89.2055H53.1611L71.4688 37.2167L63.1472 89.2055H73.1332L91.4408 32.3391L73.1332 20.9678Z" fill="#1D1D1E"/>
</svg>
