<svg width="110" height="110" viewBox="0 0 110 110" fill="none" xmlns="http://www.w3.org/2000/svg">
<g clip-path="url(#clip0_9051_5568)">
<path d="M97.4825 109.998H12.5131C5.60098 109.998 0 104.397 0 97.4849V12.5155C0 5.60342 5.60098 0.00244141 12.5131 0.00244141H97.4869C104.395 0.00244141 110 5.60342 110 12.5155V97.4893C109.996 104.397 104.395 109.998 97.4825 109.998Z" fill="#599636"/>
<path d="M54.3634 14.5132L56.5489 18.6179C57.0402 19.3755 57.5728 20.0459 58.1972 20.6703C60.0338 22.4839 61.7464 24.4215 63.3213 26.4693C67.022 31.327 69.5197 36.7266 71.3012 42.5669C72.371 46.1299 72.9495 49.7938 72.9955 53.4899C73.1745 64.5507 69.382 74.0458 61.7418 81.9385C60.5021 83.1874 59.1569 84.3398 57.7243 85.3683C56.9667 85.3683 56.6086 84.7898 56.2964 84.2526C55.727 83.2609 55.3505 82.1727 55.1807 81.0432C54.9098 79.7025 54.7353 78.3664 54.8225 76.9889V76.3645C54.7628 76.2222 54.0971 14.83 54.3634 14.5132Z" fill="white"/>
<path d="M54.3642 14.38C54.277 14.2009 54.1852 14.3341 54.0933 14.4259C54.1392 15.3212 53.8224 16.1202 53.3357 16.8823C52.7985 17.6399 52.0869 18.223 51.3706 18.8475C47.4082 22.2773 44.286 26.4279 41.7883 31.0653C38.4595 37.3051 36.7469 43.9948 36.2648 51.0427C36.0444 53.5817 37.0683 62.5442 37.8718 65.1292C40.0573 71.998 43.9784 77.7511 49.0657 82.742C50.3146 83.945 51.6507 85.0607 53.0281 86.1351C53.4322 86.1351 53.4735 85.7769 53.5653 85.5106C53.7444 84.9413 53.8775 84.3628 53.9694 83.7751L54.8647 77.0899L54.3642 14.38Z" fill="#EBEBEB"/>
<path d="M56.5497 88.0773C56.6369 87.0534 57.1282 86.2086 57.6654 85.3592C57.1282 85.1388 56.7287 84.6934 56.4165 84.2021C56.1456 83.7338 55.9252 83.2425 55.7508 82.7283C55.1263 80.8596 54.9932 78.8898 54.8141 76.9798V75.8228C54.5937 76.0018 54.5432 77.517 54.5432 77.742C54.4146 79.7668 54.1437 81.7733 53.7397 83.7614C53.6065 84.5649 53.5193 85.3684 53.0234 86.08C53.0234 86.1673 53.0234 86.2591 53.0694 86.3923C53.8729 88.7569 54.0932 91.1628 54.2264 93.6192V94.5145C54.2264 95.5843 54.1805 95.3593 55.0712 95.7175C55.4294 95.8506 55.8288 95.8965 56.1869 96.1628C56.4578 96.1628 56.4992 95.9425 56.4992 95.7588L56.366 94.2849V90.1802C56.3247 89.4639 56.4578 88.7523 56.5497 88.0773Z" fill="#C2BFBF"/>
</g>
<defs>
<clipPath id="clip0_9051_5568">
<rect width="110" height="110" fill="white"/>
</clipPath>
</defs>
</svg>
