<svg width="110" height="110" viewBox="0 0 110 110" fill="none" xmlns="http://www.w3.org/2000/svg">
<g clip-path="url(#clip0_9051_5588)">
<circle cx="55" cy="55" r="55" fill="white"/>
<path d="M51.3978 0.0296014C51.1613 0.0511036 50.4086 0.126361 49.7312 0.180117C34.1075 1.58851 19.4731 10.0174 10.2043 22.9725C5.04301 30.1757 1.74194 38.3466 0.494624 47.0012C0.0537634 50.0223 0 50.9146 0 55.0108C0 59.1069 0.0537634 59.9993 0.494624 63.0203C3.48387 83.6732 18.1828 101.026 38.1183 107.455C41.6882 108.605 45.4516 109.39 49.7312 109.863C51.3978 110.046 58.6022 110.046 60.2688 109.863C67.6559 109.046 73.914 107.218 80.086 104.068C81.0323 103.584 81.2151 103.455 81.086 103.348C81 103.283 76.9677 97.8754 72.129 91.3388L63.3333 79.4588L52.3118 63.1494C46.2473 54.1829 41.2581 46.8507 41.2151 46.8507C41.172 46.8399 41.129 54.0862 41.1075 62.9343C41.0753 78.4267 41.0645 79.0502 40.871 79.4158C40.5914 79.9426 40.3763 80.1576 39.9247 80.3941C39.5806 80.5662 39.2796 80.5984 37.6559 80.5984H35.7957L35.3011 80.2866C34.9785 80.0824 34.7419 79.8136 34.5806 79.5018L34.3548 79.018L34.3763 57.462L34.4086 35.8953L34.7419 35.476C34.914 35.2502 35.2796 34.96 35.5376 34.8202C35.9785 34.6052 36.1505 34.5837 38.0108 34.5837C40.2043 34.5837 40.5699 34.6697 41.1398 35.2932C41.3011 35.4653 47.2688 44.4532 54.4086 55.2795C61.5484 66.1059 71.3118 80.8887 76.1075 88.1457L84.8172 101.337L85.2581 101.047C89.1613 98.5098 93.2903 94.8974 96.5591 91.1345C103.516 83.1464 108 73.4059 109.505 63.0203C109.946 59.9993 110 59.1069 110 55.0108C110 50.9146 109.946 50.0223 109.505 47.0012C106.516 26.3483 91.8172 8.99603 71.8817 2.56686C68.3656 1.42725 64.6237 0.642415 60.4301 0.169366C59.3979 0.0618547 52.2903 -0.0564075 51.3978 0.0296014ZM73.914 33.2935C74.4301 33.5516 74.8495 34.0461 75 34.5622C75.086 34.8417 75.1075 40.8193 75.086 54.2904L75.0538 73.6209L71.6452 68.3959L68.2258 63.1709V49.1192C68.2258 40.0345 68.2688 34.9277 68.3333 34.6804C68.5054 34.0784 68.8817 33.6053 69.3978 33.3258C69.8387 33.1 70 33.0785 71.6882 33.0785C73.2796 33.0785 73.5591 33.1 73.914 33.2935Z" fill="#303030"/>
</g>
<defs>
<clipPath id="clip0_9051_5588">
<rect width="110" height="110" fill="white"/>
</clipPath>
</defs>
</svg>
