<svg width="110" height="125" viewBox="0 0 110 125" fill="none" xmlns="http://www.w3.org/2000/svg">
<path d="M55 123.949C53.2919 123.949 51.6977 123.494 50.2174 122.697L35.0725 113.701C32.795 112.448 33.9337 111.993 34.617 111.765C37.6915 110.74 38.2609 110.512 41.4493 108.69C41.7909 108.463 42.2464 108.577 42.588 108.804L54.2029 115.751C54.6584 115.978 55.2277 115.978 55.5694 115.751L101.004 89.4462C101.46 89.2184 101.687 88.7629 101.687 88.1936V35.6988C101.687 35.1294 101.46 34.6739 101.004 34.4462L55.5694 8.25569C55.1139 8.02795 54.5445 8.02795 54.2029 8.25569L8.76812 34.4462C8.31263 34.6739 8.08489 35.2433 8.08489 35.6988V88.1936C8.08489 88.6491 8.31263 89.2184 8.76812 89.4462L21.1801 96.6201C27.8986 100.036 32.1118 96.0507 32.1118 92.0652V40.2536C32.1118 39.5704 32.6812 38.8872 33.4783 38.8872H39.2857C39.9689 38.8872 40.6522 39.4565 40.6522 40.2536V92.0652C40.6522 101.061 35.7557 106.299 27.2153 106.299C24.5963 106.299 22.5466 106.299 16.7391 103.452L4.78261 96.6201C1.82195 94.912 0 91.7236 0 88.3075V35.8126C0 32.3965 1.82195 29.2081 4.78261 27.5L50.2174 1.19565C53.0642 -0.398551 56.9358 -0.398551 59.7826 1.19565L105.217 27.5C108.178 29.2081 110 32.3965 110 35.8126V88.3075C110 91.7236 108.178 94.912 105.217 96.6201L59.7826 122.924C58.3023 123.608 56.5942 123.949 55 123.949ZM69.0062 87.852C49.0787 87.852 44.9793 78.7422 44.9793 70.999C44.9793 70.3157 45.5487 69.6325 46.3458 69.6325H52.2671C52.9503 69.6325 53.5197 70.088 53.5197 70.7712C54.4306 76.8064 57.0497 79.7671 69.1201 79.7671C78.6853 79.7671 82.7847 77.6035 82.7847 72.4793C82.7847 69.5186 81.646 67.3551 66.7288 65.8747C54.3168 64.6222 46.5735 61.8892 46.5735 51.9824C46.5735 42.7588 54.3168 37.293 67.2981 37.293C81.8737 37.293 89.0476 42.3033 89.9586 53.235C89.9586 53.5766 89.8447 53.9182 89.617 54.2598C89.3892 54.4876 89.0476 54.7153 88.706 54.7153H82.7847C82.2153 54.7153 81.646 54.2598 81.5321 53.6905C80.1656 47.4275 76.6356 45.3778 67.2981 45.3778C56.8219 45.3778 55.5694 49.0217 55.5694 51.7547C55.5694 55.0569 57.0497 56.0818 71.1698 57.9037C85.176 59.7257 91.7805 62.3447 91.7805 72.1377C91.6667 82.1584 83.4679 87.852 69.0062 87.852Z" fill="#539E43"/>
</svg>
