<svg width="150" height="150" viewBox="0 0 150 150" fill="none" xmlns="http://www.w3.org/2000/svg">
<path d="M16.2227 79.0116C16.2227 55.2907 32.8273 22.1511 75.5599 22.1511C119.409 22.1511 134.13 56.1976 134.13 79.3255" stroke="#1D1D1D" stroke-width="2.5" stroke-linecap="round" stroke-linejoin="round"/>
<path d="M21.452 74.3022H10.8125V84.9418H21.452V74.3022ZM139.185 74.3022H128.545V84.9418H139.185V74.3022Z" fill="#1D1D1D" stroke="#1D1D1D" stroke-width="2.5" stroke-miterlimit="10" stroke-linecap="round" stroke-linejoin="round"/>
<path d="M22.1514 22.1511H129.07M24.9421 19.2907H19.5352V24.6976H24.9421V19.2907ZM131.337 19.2907H125.931V24.6976H131.337V19.2907ZM80.7561 16.7441H70.1165V27.3837H80.7561V16.7441Z" stroke="#1D1D1D" stroke-width="2.5" stroke-linecap="round" stroke-linejoin="round"/>
<path d="M80.7567 16.7441H70.1172V27.3837H80.7567V16.7441Z" fill="#1D1D1D"/>
<path d="M75.6984 49.186V84.2442M75.6984 49.186L54.5938 80.7558L61.3961 105H88.9542L96.2798 81.1046L75.6984 49.186Z" stroke="#1D1D1D" stroke-width="2.5" stroke-linecap="round" stroke-linejoin="round"/>
<path d="M75.6275 82.8489C74.7206 82.8489 73.9531 83.5814 73.9531 84.5233C73.9531 85.4652 74.6857 86.1977 75.6275 86.1977C76.5694 86.1977 77.302 85.4652 77.302 84.5233C77.302 83.5814 76.5345 82.8489 75.6275 82.8489Z" stroke="#1D1D1D" stroke-width="2.5"/>
<path d="M91.9204 105H57.7344V115.64H91.9204V105ZM89.4786 115.64H61.2227V133.256H89.4786V115.64Z" stroke="#1D1D1D" stroke-width="2.5" stroke-linecap="round" stroke-linejoin="round"/>
</svg>
