<svg width="110" height="110" viewBox="0 0 110 110" fill="none" xmlns="http://www.w3.org/2000/svg">
<path fill-rule="evenodd" clip-rule="evenodd" d="M97.4367 0C100.769 0 103.965 1.32332 106.321 3.67918C108.677 6.03505 110 9.23102 110 12.5633V97.4367C110 100.769 108.677 103.965 106.321 106.321C103.965 108.677 100.769 110 97.4367 110H12.5633C9.23097 110 6.035 108.677 3.67913 106.321C1.32327 103.965 0 100.769 0 97.4367V12.5633C0 9.23102 1.32327 6.03505 3.67913 3.67918C6.035 1.32332 9.23097 0 12.5633 0H97.4367Z" fill="#75CDE5"/>
<path d="M82.0437 40.6749C81.1599 40.3694 80.2442 40.0803 79.3013 39.8069C79.4563 39.1717 79.5985 38.5446 79.725 37.9283C81.8009 27.8073 80.4436 19.6538 75.8088 16.9693C71.3646 14.3952 64.0964 17.0791 56.7559 23.4953C56.0501 24.1123 55.3422 24.7655 54.6347 25.4501C54.1632 24.9971 53.6925 24.5594 53.2231 24.1407C45.53 17.2801 37.8189 14.389 33.1887 17.0812C28.7487 19.6627 27.4339 27.3278 29.3025 36.9196C29.4829 37.846 29.6939 38.7921 29.9324 39.7541C28.8411 40.0652 27.7875 40.3969 26.7794 40.7498C17.7601 43.9081 12 48.858 12 53.9922C12 59.295 18.1835 64.6137 27.5778 67.8387C28.3191 68.0932 29.0884 68.3338 29.8811 68.5623C29.6238 69.6027 29.4 70.6222 29.2121 71.6166C27.4304 81.0418 28.8218 88.5258 33.2499 91.0911C37.8238 93.7402 45.5 91.0172 52.9747 84.4548C53.5655 83.936 54.1584 83.3859 54.7523 82.8093C55.5222 83.5539 56.2909 84.2586 57.0554 84.9196C64.2955 91.1773 71.4463 93.7041 75.8703 91.1317C80.4396 88.475 81.9246 80.4353 79.9967 70.6539C79.8495 69.9068 79.6781 69.1436 79.4857 68.3669C80.0248 68.2068 80.554 68.0416 81.07 67.8698C90.8362 64.6198 97.1905 59.3658 97.1905 53.9922C97.1905 48.8394 91.2446 43.8562 82.0437 40.6749Z" fill="white"/>
<path d="M79.9306 64.4073C79.4646 64.5623 78.9865 64.7121 78.4993 64.8573C77.4207 61.4269 75.9651 57.7792 74.1838 54.0104C75.8836 50.3315 77.283 46.7304 78.3313 43.3222C79.2031 43.5757 80.0493 43.843 80.8646 44.1251C88.7508 46.8526 93.5613 50.8853 93.5613 53.9926C93.5613 57.3025 88.3661 61.5991 79.9306 64.4073ZM76.4305 71.3754C77.2833 75.7034 77.4051 79.6165 76.8402 82.6755C76.3326 85.4242 75.3119 87.2568 74.0498 87.9908C71.3641 89.5526 65.6207 87.5225 59.4266 82.1674C58.7166 81.5535 58.0013 80.898 57.2838 80.2043C59.6851 77.5658 62.0851 74.4984 64.4273 71.0918C68.5472 70.7245 72.4395 70.124 75.9692 69.3042C76.143 70.0088 76.2975 70.6998 76.4305 71.3754ZM41.0345 87.7209C38.4105 88.6519 36.3206 88.6786 35.0573 87.9468C32.3692 86.3891 31.2517 80.3762 32.776 72.3105C32.9506 71.3868 33.1584 70.438 33.398 69.4681C36.889 70.2436 40.7528 70.8017 44.8825 71.1381C47.2405 74.4716 49.7098 77.5356 52.1982 80.2185C51.6545 80.7458 51.113 81.2478 50.5744 81.7208C47.268 84.6245 43.9546 86.6847 41.0345 87.7209ZM28.7415 64.387C24.586 62.9601 21.1542 61.1055 18.8019 59.0817C16.6883 57.2631 15.6211 55.4576 15.6211 53.9926C15.6211 50.8749 20.2476 46.8983 27.9637 44.1955C28.9 43.8675 29.8801 43.5584 30.8972 43.2681C31.9636 46.7532 33.3625 50.397 35.0507 54.0816C33.3406 57.8209 31.9218 61.5228 30.845 65.0487C30.1199 64.8393 29.4174 64.619 28.7415 64.387ZM32.8622 36.2064C31.2606 27.9831 32.3243 21.7798 35.0009 20.2232C37.852 18.5649 44.1565 20.9292 50.8012 26.8569C51.226 27.2358 51.6524 27.6323 52.08 28.0426C49.6039 30.7137 47.1573 33.7547 44.8201 37.0686C40.8121 37.4418 36.9755 38.0413 33.448 38.8442C33.2263 37.9479 33.0298 37.0673 32.8622 36.2064ZM69.6228 45.326C68.7796 43.8626 67.9138 42.4339 67.0313 41.0441C69.7504 41.3895 72.3556 41.8479 74.8021 42.4089C74.0676 44.7738 73.1521 47.2465 72.0745 49.7814C71.3014 48.307 70.4838 46.8203 69.6228 45.326ZM54.6319 30.6566C56.3112 32.4843 57.9928 34.525 59.6469 36.7391C57.9801 36.66 56.2927 36.6188 54.5913 36.6188C52.906 36.6188 51.231 36.6591 49.5745 36.7368C51.2302 34.5433 52.9264 32.5054 54.6319 30.6566ZM39.545 45.3513C38.7027 46.8188 37.9002 48.2974 37.1393 49.7787C36.0791 47.2526 35.1722 44.7687 34.4313 42.3702C36.8628 41.8235 39.4557 41.3765 42.1575 41.0377C41.2625 42.4403 40.3896 43.8798 39.545 45.3513ZM42.2353 67.2084C39.4438 66.8955 36.812 66.4715 34.3811 65.94C35.1338 63.4986 36.0608 60.9616 37.1434 58.3812C37.9063 59.8614 38.7119 61.3406 39.5594 62.8113C40.4227 64.3096 41.3172 65.7772 42.2353 67.2084ZM54.7326 77.5865C53.0071 75.7161 51.286 73.6471 49.6051 71.4216C51.2369 71.4859 52.9005 71.5188 54.5913 71.5188C56.3283 71.5188 58.0455 71.4795 59.7356 71.4039C58.0761 73.6695 56.4005 75.7417 54.7326 77.5865ZM72.1092 58.2496C73.2483 60.858 74.2085 63.3818 74.9709 65.7815C72.5 66.3478 69.8322 66.8039 67.0213 67.1429C67.906 65.7344 68.7793 64.2811 69.6374 62.7862C70.5055 61.2737 71.3298 59.759 72.1092 58.2496ZM66.4838 60.9589C65.1517 63.2795 63.784 65.4948 62.3956 67.5859C59.8667 67.7676 57.2541 67.8611 54.5913 67.8611C51.9392 67.8611 49.3595 67.7784 46.8754 67.6164C45.431 65.4979 44.0336 63.276 42.7099 60.9788C41.3898 58.6879 40.175 56.3777 39.074 54.0804C40.1747 51.7778 41.3866 49.4649 42.6992 47.1781L42.6989 47.1786C44.0149 44.8857 45.4001 42.6747 46.8311 40.5694C49.3656 40.3769 51.9646 40.2765 54.5911 40.2765C57.2295 40.2765 59.832 40.3777 62.3657 40.5718C63.7749 42.6617 65.1506 44.8656 66.4719 47.1588C67.8081 49.4777 69.0356 51.7752 70.1457 54.0284C69.039 56.3204 67.8142 58.641 66.4838 60.9589ZM73.994 20.1143C76.8478 21.7678 77.9576 28.4359 76.1646 37.18C76.0502 37.7379 75.9214 38.3062 75.7815 38.8821C72.2459 38.0625 68.4065 37.4526 64.3868 37.0737C62.0452 33.7235 59.6185 30.6778 57.1828 28.0409C57.8377 27.408 58.4916 26.8045 59.1428 26.2349C65.4344 20.734 71.3148 18.5621 73.994 20.1143Z" fill="#53C1DE"/>
<path d="M53.6878 46.814C57.6919 46.814 60.938 50.0599 60.938 54.0642C60.938 58.0684 57.6919 61.3145 53.6878 61.3145C49.6836 61.3145 46.4375 58.0684 46.4375 54.0642C46.4375 50.0599 49.6836 46.814 53.6878 46.814Z" fill="#53C1DE"/>
</svg>
