<svg width="110" height="110" viewBox="0 0 110 110" fill="none" xmlns="http://www.w3.org/2000/svg">
<path fill-rule="evenodd" clip-rule="evenodd" d="M97.4367 0C100.769 0 103.965 1.32332 106.321 3.67918C108.677 6.03505 110 9.23102 110 12.5633V97.4367C110 100.769 108.677 103.965 106.321 106.321C103.965 108.677 100.769 110 97.4367 110H12.5633C9.23097 110 6.035 108.677 3.67913 106.321C1.32327 103.965 0 100.769 0 97.4367V12.5633C0 9.23102 1.32327 6.03505 3.67913 3.67918C6.035 1.32332 9.23097 0 12.5633 0H97.4367Z" fill="#A3CA59"/>
<path d="M78.8533 32.5606C78.8016 32.1846 78.4724 31.9767 78.2003 31.9539C77.9287 31.9311 72.1808 31.5051 72.1808 31.5051C72.1808 31.5051 68.1889 27.5421 67.751 27.1035C67.3124 26.665 66.4564 26.7983 66.1242 26.8963C66.0749 26.9107 65.2519 27.1648 63.89 27.5859C62.5564 23.749 60.2033 20.2226 56.063 20.2226C55.9488 20.2226 55.8311 20.2274 55.7133 20.234C54.5359 18.6769 53.0773 18.0005 51.8175 18.0005C42.1732 18.0005 37.5655 30.0568 36.1207 36.1837C32.3733 37.345 29.7108 38.1704 29.3708 38.2773C27.279 38.9333 27.213 38.9994 26.9384 40.9704C26.7312 42.4627 21.2578 84.7909 21.2578 84.7909L63.9074 92.7819L87.0167 87.7826C87.0167 87.7826 78.9043 32.9367 78.8533 32.5606ZM61.5327 28.3152C60.4616 28.6468 59.2439 29.0235 57.9241 29.432C57.9253 29.1779 57.9265 28.9274 57.9265 28.654C57.9265 26.2691 57.5954 24.3491 57.0644 22.8268C59.1976 23.0948 60.6184 25.5218 61.5327 28.3152ZM54.4181 23.2996C55.0111 24.7859 55.3967 26.9185 55.3967 29.7966C55.3967 29.9438 55.3955 30.0784 55.3943 30.2148C53.0472 30.9417 50.4971 31.731 47.9409 32.5228C49.3761 26.984 52.0662 24.3089 54.4181 23.2996ZM51.5526 20.5873C51.9689 20.5873 52.3882 20.7285 52.7895 21.0048C49.6987 22.4592 46.3856 26.1225 44.9865 33.4377C42.9416 34.0709 40.9429 34.6897 39.095 35.2622C40.7338 29.6825 44.6254 20.5873 51.5526 20.5873Z" fill="white"/>
<path d="M78.2045 31.9536C77.933 31.9308 72.1851 31.5049 72.1851 31.5049C72.1851 31.5049 68.1931 27.5418 67.7552 27.1033C67.5912 26.9399 67.3701 26.8564 67.1388 26.8203L63.9141 92.7811L87.021 87.7823C87.021 87.7823 78.9086 32.9365 78.8575 32.5604C78.8058 32.1843 78.4766 31.9765 78.2045 31.9536Z" fill="#6E9F12"/>
<path d="M56.0618 44.7227L53.2125 53.1986C53.2125 53.1986 50.7158 51.8661 47.6557 51.8661C43.1693 51.8661 42.9435 54.6818 42.9435 55.3913C42.9435 59.2625 53.0347 60.7457 53.0347 69.8133C53.0347 76.9471 48.5099 81.5409 42.4088 81.5409C35.0876 81.5409 31.3438 76.9843 31.3438 76.9843L33.304 70.5077C33.304 70.5077 37.1523 73.8118 40.3999 73.8118C42.5217 73.8118 43.385 72.1412 43.385 70.9204C43.385 65.8706 35.1062 65.6453 35.1062 57.3479C35.1062 50.3643 40.1188 43.606 50.2371 43.606C54.1359 43.606 56.0618 44.7227 56.0618 44.7227Z" fill="#8CBD30"/>
</svg>
