<svg width="111" height="100" viewBox="0 0 111 100" fill="none" xmlns="http://www.w3.org/2000/svg">
<g clip-path="url(#clip0_9051_5523)">
<path fill-rule="evenodd" clip-rule="evenodd" d="M22.4446 35.9316L55.119 99.8851L0.199219 35.9316H22.4446Z" fill="#EA6C00"/>
<path fill-rule="evenodd" clip-rule="evenodd" d="M87.8015 35.9316L55.1271 99.8851L110.047 35.9316H87.8015Z" fill="#EA6C00"/>
<path fill-rule="evenodd" clip-rule="evenodd" d="M22.4453 35.9316H87.7941L55.1197 99.8851L22.4453 35.9316Z" fill="#FDAD00"/>
<path fill-rule="evenodd" clip-rule="evenodd" d="M55.1197 0.488281L24.1651 3.76037L22.4453 35.9313L55.1197 0.488281Z" fill="#FDD231"/>
<path fill-rule="evenodd" clip-rule="evenodd" d="M55.1146 0.488281L86.0693 3.76037L87.7891 35.9313L55.1146 0.488281Z" fill="#FDD231"/>
<path fill-rule="evenodd" clip-rule="evenodd" d="M110.047 35.9317L86.0818 3.76074L87.8015 35.9317H110.047Z" fill="#FDAD00"/>
<path fill-rule="evenodd" clip-rule="evenodd" d="M0.199219 35.9317L24.1643 3.76074L22.4446 35.9317H0.199219Z" fill="#FDAD00"/>
<path fill-rule="evenodd" clip-rule="evenodd" d="M55.1197 0.488281L22.4453 35.9313H87.7941L55.1197 0.488281Z" fill="#FEEEB7"/>
</g>
<defs>
<clipPath id="clip0_9051_5523">
<rect width="110.465" height="100" fill="white"/>
</clipPath>
</defs>
</svg>
