<svg width="100" height="100" viewBox="0 0 100 100" fill="none" xmlns="http://www.w3.org/2000/svg">
<mask id="mask0_8835_21909" style="mask-type:alpha" maskUnits="userSpaceOnUse" x="0" y="13" width="99" height="39">
<path fill-rule="evenodd" clip-rule="evenodd" d="M98.7459 13.229H0.917969V51.6544H44.4805V45.452H50.2945V51.6544H98.7459V13.229Z" fill="#D9D9D9"/>
</mask>
<g mask="url(#mask0_8835_21909)">
<path d="M3.48828 32.5581C3.48828 23.5674 10.7767 16.2791 19.7674 16.2791H80.2325C89.2232 16.2791 96.5115 23.5674 96.5115 32.5581C96.5115 41.5488 89.2232 48.8372 80.2325 48.8372H19.7674C10.7767 48.8372 3.48828 41.5488 3.48828 32.5581Z" stroke="#1D1D1D" stroke-width="2" stroke-miterlimit="10" stroke-linecap="round" stroke-linejoin="round"/>
</g>
<path d="M10.1693 36.5117H13.7326C14.2674 36.5077 14.779 36.2923 15.1556 35.9126C15.5323 35.5329 15.7434 35.0196 15.7431 34.4847C15.7441 34.0822 15.6256 33.6884 15.4026 33.3533C15.1795 33.0182 14.862 32.7568 14.4903 32.6024C14.2433 32.5003 13.9787 32.4476 13.7114 32.4473H12.151C11.8833 32.4476 11.6181 32.3952 11.3707 32.2929C11.1234 32.1906 10.8986 32.0406 10.7093 31.8513C10.52 31.662 10.3699 31.4372 10.2676 31.1898C10.1654 30.9424 10.1129 30.6773 10.1133 30.4096C10.1133 30.142 10.1659 29.877 10.2683 29.6298C10.3707 29.3826 10.5208 29.158 10.71 28.9688C10.8993 28.7796 11.1239 28.6295 11.3712 28.5271C11.6184 28.4247 11.8834 28.3721 12.151 28.3722H15.3128M40.4017 36.5117H43.9651C44.5 36.5077 45.0115 36.2923 45.3882 35.9126C45.7648 35.5329 45.976 35.0196 45.9756 34.4847C45.9764 34.2174 45.9244 33.9526 45.8226 33.7055C45.7209 33.4583 45.5713 33.2336 45.3826 33.0444C45.1939 32.8551 44.9697 32.7049 44.7228 32.6025C44.4759 32.5 44.2113 32.4473 43.944 32.4473H42.3835C41.9804 32.4477 41.5862 32.3284 41.251 32.1045C40.9158 31.8806 40.6547 31.5621 40.5007 31.1896C40.3725 30.88 40.3226 30.5435 40.3554 30.21C40.3883 29.8765 40.5029 29.5563 40.6891 29.2777C40.8753 28.999 41.1273 28.7706 41.4229 28.6127C41.7184 28.4547 42.0484 28.3721 42.3835 28.3722H45.5454M19.821 28.3722V33.6812C19.821 35.3728 21.1921 36.7442 22.8837 36.7442C24.5754 36.7442 25.9468 35.3728 25.9468 33.6812V28.3722M59.3026 32.894H62.5017C63.7503 32.894 64.7626 31.8819 64.7626 30.6331C64.7626 29.3845 63.7503 28.3722 62.5017 28.3722H59.3026V36.5117M65.3086 36.5117L62.9426 32.8942M69.7677 36.5622V28.4226M90.1254 28.3722H84.6982V36.5117H90.1254M88.3158 32.4431H84.6982M55.3817 28.638C55.3817 28.638 54.6891 28.4005 53.4168 28.3731C52.9501 28.3619 52.4858 28.4441 52.0514 28.615C51.617 28.7859 51.2211 29.0419 50.8871 29.3681C50.5531 29.6943 50.2878 30.084 50.1067 30.5143C49.9256 30.9446 49.8324 31.4067 49.8326 31.8735V33.2235C49.8326 34.9296 51.2161 36.514 52.913 36.698C54.61 36.8819 55.5337 36.4561 55.5337 36.4561M46.77 87.2094V83.8668L45.2758 82.614C41.6171 79.5458 38.9915 75.4258 37.7556 70.8135L35.8175 63.5803C35.7526 63.3383 35.736 63.0859 35.7686 62.8375C35.8013 62.5892 35.8826 62.3496 36.0078 62.1327C36.1331 61.9157 36.2999 61.7256 36.4986 61.5731C36.6974 61.4206 36.9243 61.3088 37.1663 61.244C40.2196 60.4259 43.3577 62.2377 44.1758 65.2908L44.4807 66.4287V64.0268M65.847 87.2094V83.867L66.6537 81.8501C68.1371 78.1416 68.8993 74.1842 68.8993 70.1901V64.0268M30.4849 32.4419H33.91C34.4497 32.4419 34.9673 32.2275 35.3489 31.8459C35.7305 31.4643 35.9449 30.9467 35.9449 30.407C35.9449 29.8674 35.7305 29.3498 35.3489 28.9682C34.9673 28.5865 34.4497 28.3722 33.91 28.3722H30.4849V36.5117H34.6382C35.1778 36.5117 35.6954 36.2973 36.077 35.9157C36.4587 35.5341 36.673 35.0165 36.673 34.4768C36.673 33.9371 36.4587 33.4195 36.077 33.0379C35.6954 32.6563 35.1778 32.4419 34.6382 32.4419H30.4849ZM74.4189 32.4419H77.844C78.3837 32.4419 78.9012 32.2275 79.2829 31.8459C79.6645 31.4643 79.8789 30.9467 79.8789 30.407C79.8789 29.8674 79.6645 29.3498 79.2829 28.9682C78.9012 28.5865 78.3837 28.3722 77.844 28.3722H74.4189V36.5117H78.5721C79.1118 36.5117 79.6294 36.2973 80.011 35.9157C80.3926 35.5341 80.607 35.0165 80.607 34.4768C80.607 33.9371 80.3926 33.4195 80.011 33.0379C79.6294 32.6563 79.1118 32.4419 78.5721 32.4419H74.4189Z" stroke="#1D1D1D" stroke-width="2" stroke-linecap="round" stroke-linejoin="round"/>
<path d="M45.9445 71.8839L44.8617 67.8432L44.3203 65.823M44.4826 64.026V47.2384C44.4826 45.5525 45.8491 44.186 47.535 44.186C49.2208 44.186 50.5873 45.5525 50.5873 47.2384V64.026V58.6846C50.5873 56.9988 51.9538 55.6323 53.6396 55.6323C55.3254 55.6323 56.6919 56.9988 56.6919 58.6846V64.026V60.2107C56.6919 58.5251 58.0585 57.1584 59.7443 57.1584C61.4301 57.1584 62.7966 58.5251 62.7966 60.2107V64.026V62.5C62.7966 60.8142 64.1631 59.4477 65.8489 59.4477C67.5347 59.4477 68.9012 60.8142 68.9012 62.5V64.026" stroke="#1D1D1D" stroke-width="2" stroke-linecap="round" stroke-linejoin="round"/>
<path d="M45.8125 87.2092H66.7427V93.0232H45.8125V87.2092Z" stroke="#1D1D1D" stroke-width="2" stroke-linejoin="round"/>
</svg>
