<svg width="35" height="35" viewBox="0 0 35 35" fill="none" xmlns="http://www.w3.org/2000/svg">
<path d="M33.6155 8.03525C32.4846 8.53619 31.2683 8.87015 29.985 9.02838C31.2895 8.254 32.2935 7.0188 32.7646 5.559C31.544 6.27432 30.1914 6.80005 28.7527 7.07713C27.6035 5.85942 25.9644 5.104 24.1488 5.104C20.6611 5.104 17.8334 7.90619 17.8334 11.3617C17.8334 11.851 17.891 12.3271 17.9982 12.7894C12.7511 12.5262 8.09688 10.0317 4.98333 6.24588C4.43646 7.17119 4.12875 8.254 4.12875 9.39734C4.12875 11.5695 5.24073 13.4821 6.93677 14.6087C5.90135 14.5773 4.92719 14.2893 4.07406 13.827C4.07406 13.846 4.07406 13.8737 4.07406 13.9007C4.07406 16.9362 6.25135 19.4642 9.1374 20.0395C8.61021 20.1839 8.0524 20.2641 7.47781 20.2641C7.07021 20.2641 6.67281 20.2182 6.28781 20.1489C7.09135 22.6295 9.4225 24.443 12.1846 24.4969C10.0233 26.1725 7.30135 27.1759 4.34167 27.1759C3.83052 27.1759 3.33031 27.1467 2.83594 27.0869C5.63375 28.8581 8.95365 29.8957 12.5178 29.8957C24.1313 29.8957 30.4852 20.3589 30.4852 12.085C30.4852 11.8138 30.4765 11.544 30.4641 11.2771C31.7036 10.4014 32.7719 9.29744 33.6155 8.03525Z" fill="url(#paint0_linear_9085_7036)"/>
<defs>
<linearGradient id="paint0_linear_9085_7036" x1="7.5376" y1="6.06067" x2="29.7458" y2="28.2689" gradientUnits="userSpaceOnUse">
<stop stop-color="#2AA4F4"/>
<stop offset="1" stop-color="#007AD9"/>
</linearGradient>
</defs>
</svg>
