<svg width="85" height="85" viewBox="0 0 85 85" fill="none" xmlns="http://www.w3.org/2000/svg">
<path d="M73.7711 21.0325H10.8711M69.7385 74.1674H15.299C12.8478 74.1674 10.8711 72.1907 10.8711 69.7395V15.3C10.8711 12.8488 12.8478 10.8721 15.299 10.8721H69.7385C72.1897 10.8721 74.1664 12.8488 74.1664 15.3V69.7395C74.1664 72.1907 72.1897 74.1674 69.7385 74.1674Z" stroke="#1D1D1D" stroke-width="2" stroke-miterlimit="10" stroke-linecap="round" stroke-linejoin="round"/>
<path d="M28.2658 15.9521H28.2856M17.1367 15.9521H17.1565M22.6914 15.9521H22.7309" stroke="#1D1D1D" stroke-width="2" stroke-miterlimit="10" stroke-linecap="round" stroke-linejoin="round"/>
<path d="M18.8164 31.1537H37.1606M18.8164 39.1199H37.1606M18.8164 47.0862H37.1606M18.8164 55.0723H27.9885M66.2385 30.7979H44.2176M66.2385 30.7979V65.9246H44.2176V30.7979M66.2385 30.7979L44.2176 65.9444M44.2176 30.7979L66.2385 65.9444" stroke="#1D1D1D" stroke-width="2" stroke-miterlimit="10" stroke-linecap="round" stroke-linejoin="round"/>
</svg>
