<svg width="85" height="85" viewBox="0 0 85 85" fill="none" xmlns="http://www.w3.org/2000/svg">
    <path
        d="M73.7721 21.0325H10.8721M69.7395 74.1674H15.3C12.8488 74.1674 10.8721 72.1907 10.8721 69.7395V15.3C10.8721 12.8488 12.8488 10.8721 15.3 10.8721H69.7395C72.1907 10.8721 74.1674 12.8488 74.1674 15.3V69.7395C74.1674 72.1907 72.1907 74.1674 69.7395 74.1674Z"
        stroke="#1D1D1D" stroke-width="2" stroke-miterlimit="10" stroke-linecap="round" stroke-linejoin="round" />
    <path d="M28.2675 15.9521H28.2872M17.1384 15.9521H17.1582M22.693 15.9521H22.7326" stroke="#1D1D1D" stroke-width="2"
        stroke-miterlimit="10" stroke-linecap="round" stroke-linejoin="round" />
    <path
        d="M18.8186 31.1537H37.1628M18.8186 39.1199H37.1628M18.8186 47.0862H37.1628M18.8186 55.0723H27.9907M66.2407 30.7979H44.2198M66.2407 30.7979V65.9246H44.2198V30.7979M66.2407 30.7979L44.2198 65.9444M44.2198 30.7979L66.2407 65.9444"
        stroke="#1D1D1D" stroke-width="2" stroke-miterlimit="10" stroke-linecap="round" stroke-linejoin="round" />
</svg>