<svg width="110" height="110" viewBox="0 0 110 110" fill="none" xmlns="http://www.w3.org/2000/svg">
<path fill-rule="evenodd" clip-rule="evenodd" d="M97.4367 0C100.769 0 103.965 1.32332 106.321 3.67918C108.677 6.03505 110 9.23102 110 12.5633V97.4367C110 100.769 108.677 103.965 106.321 106.321C103.965 108.677 100.769 110 97.4367 110H12.5633C9.23097 110 6.035 108.677 3.67913 106.321C1.32327 103.965 0 100.769 0 97.4367V12.5633C0 9.23102 1.32327 6.03505 3.67913 3.67918C6.035 1.32332 9.23097 0 12.5633 0H97.4367Z" fill="#438BF7"/>
<path fill-rule="evenodd" clip-rule="evenodd" d="M93.9961 30L69.1072 80H45.7295L56.1455 59.2778H55.6782C47.0852 70.7411 34.2641 78.2875 15.9961 80V59.5647C15.9961 59.5647 27.6826 58.8554 34.5527 51.4326H15.9961V30.0004H36.8518V47.6281L37.3199 47.6261L45.8422 30.0004H61.6149V47.5163L62.083 47.5156L70.925 30H93.9961Z" fill="white"/>
</svg>
