<svg width="110" height="110" viewBox="0 0 110 110" fill="none" xmlns="http://www.w3.org/2000/svg">
<path fill-rule="evenodd" clip-rule="evenodd" d="M97.4367 0C100.769 0 103.965 1.32332 106.321 3.67918C108.677 6.03505 110 9.23102 110 12.5633V97.4367C110 100.769 108.677 103.965 106.321 106.321C103.965 108.677 100.769 110 97.4367 110H12.5633C9.23097 110 6.035 108.677 3.67913 106.321C1.32327 103.965 0 100.769 0 97.4367V12.5633C0 9.23102 1.32327 6.03505 3.67913 3.67918C6.035 1.32332 9.23097 0 12.5633 0H97.4367Z" fill="#3390AE"/>
<path d="M21.5469 54.9992C21.5469 68.2426 29.2431 79.6867 40.4021 85.1102L24.4435 41.3833C22.5877 45.5441 21.5469 50.1486 21.5469 54.9992Z" fill="white"/>
<path d="M77.5851 53.3104C77.5851 49.1752 76.1005 46.3121 74.8256 44.0838C73.1312 41.3284 71.5417 38.9938 71.5417 36.2384C71.5417 33.1629 73.8735 30.2998 77.1588 30.2998C77.3067 30.2998 77.4479 30.3186 77.5932 30.3267C71.6398 24.8736 63.7097 21.5439 54.9995 21.5439C43.3107 21.5439 33.0285 27.5403 27.0469 36.6243C27.8322 36.6485 28.5732 36.6633 29.1999 36.6633C32.699 36.6633 38.1171 36.2384 38.1171 36.2384C39.9205 36.1321 40.1329 38.7814 38.3323 38.9938C38.3323 38.9938 36.5195 39.2076 34.5023 39.3125L46.6861 75.5517L54.0084 53.5928L48.7947 39.3125C46.9927 39.2063 45.2861 38.9938 45.2861 38.9938C43.4828 38.8876 43.6953 36.1321 45.4973 36.2384C45.4973 36.2384 51.0216 36.6633 54.3096 36.6633C57.8088 36.6633 63.2255 36.2384 63.2255 36.2384C65.0302 36.1321 65.2427 38.7814 63.4407 38.9938C63.4407 38.9938 61.6252 39.2076 59.6121 39.3125L71.703 75.2774L75.0394 64.1264C76.4864 59.499 77.5878 56.1748 77.5878 53.3104H77.5851Z" fill="white"/>
<path d="M55.5843 57.9247L45.5469 87.0917C48.5444 87.9738 51.7127 88.4553 54.998 88.4553C58.8938 88.4553 62.6296 87.7802 66.1086 86.5591C66.0171 86.4166 65.9364 86.2646 65.8705 86.0979L55.5857 57.9233L55.5843 57.9247Z" fill="white"/>
<path d="M84.3591 38.9476C84.5029 40.0127 84.5836 41.1585 84.5836 42.3876C84.5836 45.7832 83.9502 49.5996 82.0393 54.3709L71.8203 83.9171C81.7663 78.1171 88.4566 67.3413 88.4566 54.9976C88.4566 49.1814 86.9706 43.7122 84.3577 38.9463L84.3591 38.9476Z" fill="white"/>
<path d="M55.0026 16C33.4995 16 16.0039 33.4943 16.0039 54.9987C16.0039 76.5031 33.4982 94 55.0026 94C76.507 94 94.0039 76.5057 94.0039 54.9987C94.0039 33.4956 76.5056 16 55.0026 16ZM55.0026 92.2101C34.4852 92.2101 17.7911 75.516 17.7911 54.9973C17.7911 34.4786 34.4852 17.7886 55.0026 17.7886C75.5199 17.7886 92.2127 34.48 92.2127 54.9973C92.2127 75.5146 75.5199 92.2101 55.0026 92.2101Z" fill="white"/>
</svg>
