<svg width="280" height="185" viewBox="0 0 280 185" fill="none" xmlns="http://www.w3.org/2000/svg">
<g clip-path="url(#clip0_9098_16199)">
<path d="M0 10C0 4.47716 4.47715 0 10 0H280.757V185H0V10Z" fill="#F6F6F6"/>
<path d="M13.7579 22.0281V14.5239H16.7909C16.8638 14.5239 16.9541 14.5273 17.0618 14.5343C17.1695 14.5377 17.272 14.5482 17.3693 14.5655C17.7862 14.6316 18.1336 14.774 18.4116 14.9929C18.693 15.2117 18.9032 15.4879 19.0421 15.8215C19.1811 16.155 19.2506 16.5232 19.2506 16.9262C19.2506 17.3327 19.1811 17.7027 19.0421 18.0362C18.9032 18.3698 18.693 18.646 18.4116 18.8648C18.1336 19.0837 17.7862 19.2262 17.3693 19.2922C17.272 19.3061 17.1678 19.3165 17.0566 19.3234C16.9489 19.3304 16.8603 19.3339 16.7909 19.3339H14.8471V22.0281H13.7579ZM14.8471 18.302H16.7492C16.8186 18.302 16.8951 18.2985 16.9785 18.2916C17.0653 18.2846 17.147 18.2725 17.2234 18.2551C17.4457 18.203 17.6247 18.1075 17.7602 17.9685C17.8956 17.8261 17.9929 17.6628 18.052 17.4786C18.111 17.2945 18.1406 17.1104 18.1406 16.9262C18.1406 16.7421 18.111 16.5597 18.052 16.3791C17.9929 16.1949 17.8956 16.0334 17.7602 15.8944C17.6247 15.752 17.4457 15.6547 17.2234 15.6026C17.147 15.5817 17.0653 15.5678 16.9785 15.5609C16.8951 15.5539 16.8186 15.5505 16.7492 15.5505H14.8471V18.302ZM20.2923 22.0281V16.3999H21.2616V17.7653L21.1261 17.5881C21.1956 17.4074 21.286 17.2424 21.3971 17.093C21.5083 16.9401 21.6368 16.8151 21.7828 16.7178C21.9252 16.6136 22.0833 16.5337 22.257 16.4781C22.4342 16.419 22.6148 16.3843 22.799 16.3739C22.9831 16.36 23.1603 16.3686 23.3305 16.3999V17.4213C23.1464 17.3727 22.9414 17.3588 22.7156 17.3796C22.4932 17.4005 22.2883 17.4717 22.1006 17.5933C21.9235 17.7079 21.7828 17.8469 21.6785 18.0102C21.5778 18.1735 21.5048 18.3559 21.4597 18.5574C21.4145 18.7554 21.3919 18.9656 21.3919 19.1879V22.0281H20.2923ZM26.6652 22.1844C26.1024 22.1844 25.6143 22.0576 25.2009 21.804C24.7874 21.5504 24.4678 21.2012 24.242 20.7565C24.0196 20.3084 23.9085 19.7924 23.9085 19.2088C23.9085 18.6216 24.0231 18.1057 24.2524 17.661C24.4817 17.2129 24.8031 16.8654 25.2165 16.6188C25.6299 16.3686 26.1128 16.2436 26.6652 16.2436C27.228 16.2436 27.7162 16.3704 28.1296 16.624C28.543 16.8776 28.8626 17.2268 29.0885 17.6715C29.3143 18.1162 29.4272 18.6286 29.4272 19.2088C29.4272 19.7959 29.3126 20.3136 29.0833 20.7617C28.8574 21.2064 28.5378 21.5556 28.1244 21.8092C27.711 22.0593 27.2246 22.1844 26.6652 22.1844ZM26.6652 21.1578C27.2037 21.1578 27.605 20.9771 27.869 20.6158C28.1365 20.251 28.2703 19.782 28.2703 19.2088C28.2703 18.6216 28.1348 18.1526 27.8638 17.8017C27.5963 17.4474 27.1968 17.2702 26.6652 17.2702C26.3004 17.2702 25.9999 17.3536 25.7637 17.5203C25.5274 17.6836 25.352 17.9112 25.2373 18.203C25.1227 18.4914 25.0654 18.8266 25.0654 19.2088C25.0654 19.7994 25.2009 20.2719 25.4719 20.6262C25.7428 20.9806 26.1406 21.1578 26.6652 21.1578ZM29.7386 24.5295V23.4977H30.0252C30.3136 23.4977 30.5237 23.4282 30.6558 23.2892C30.7913 23.1502 30.859 22.9366 30.859 22.6482V16.3999H31.9534V23.0912C31.9534 23.5498 31.8266 23.9041 31.5729 24.1543C31.3228 24.4044 30.9632 24.5295 30.4942 24.5295H29.7386ZM30.859 15.4775V14.4196H31.9534V15.4775H30.859ZM35.9388 22.1844C35.3795 22.1844 34.8879 22.0628 34.4641 21.8196C34.0437 21.573 33.7154 21.2308 33.4791 20.793C33.2464 20.3518 33.13 19.8411 33.13 19.2609C33.13 18.646 33.2446 18.1127 33.4739 17.661C33.7067 17.2094 34.0298 16.8602 34.4432 16.6136C34.8566 16.3669 35.3378 16.2436 35.8867 16.2436C36.46 16.2436 36.9481 16.3773 37.3511 16.6448C37.7541 16.9089 38.0546 17.2858 38.2526 17.7757C38.4541 18.2655 38.5341 18.8475 38.4924 19.5215H37.4032V19.1254C37.3963 18.4723 37.2712 17.9893 37.028 17.6767C36.7883 17.364 36.4218 17.2077 35.9284 17.2077C35.383 17.2077 34.973 17.3796 34.6986 17.7236C34.4241 18.0675 34.2869 18.5643 34.2869 19.214C34.2869 19.8324 34.4241 20.3118 34.6986 20.6523C34.973 20.9893 35.3691 21.1578 35.8867 21.1578C36.2272 21.1578 36.5208 21.0814 36.7674 20.9285C37.0176 20.7722 37.2121 20.5498 37.3511 20.2615L38.4194 20.6002C38.2005 21.1039 37.8687 21.4948 37.4241 21.7727C36.9794 22.0472 36.4843 22.1844 35.9388 22.1844ZM33.9325 19.5215V18.672H37.9504V19.5215H33.9325ZM42.0692 22.1844C41.4925 22.1844 41.0026 22.0559 40.5996 21.7988C40.1966 21.5417 39.8874 21.1891 39.672 20.7409C39.4601 20.2927 39.3524 19.7838 39.3489 19.214C39.3524 18.6338 39.4635 18.1214 39.6824 17.6767C39.9013 17.2285 40.214 16.8776 40.6204 16.624C41.0269 16.3704 41.515 16.2436 42.0848 16.2436C42.6997 16.2436 43.2243 16.3964 43.6586 16.7022C44.0964 17.0079 44.3847 17.4265 44.5237 17.9581L43.4397 18.2708C43.332 17.9546 43.1548 17.7097 42.9082 17.536C42.665 17.3588 42.3853 17.2702 42.0692 17.2702C41.7113 17.2702 41.4178 17.3553 41.1885 17.5255C40.9592 17.6923 40.7889 17.9216 40.6778 18.2134C40.5666 18.5053 40.5093 18.8388 40.5058 19.214C40.5093 19.7942 40.6413 20.2632 40.9018 20.621C41.1659 20.9789 41.555 21.1578 42.0692 21.1578C42.4201 21.1578 42.7032 21.0779 42.9186 20.9181C43.1375 20.7548 43.3042 20.522 43.4189 20.2198L44.5237 20.4803C44.3395 21.0292 44.0356 21.4514 43.6117 21.7467C43.1879 22.0385 42.6737 22.1844 42.0692 22.1844ZM48.8059 22.0281C48.4515 22.0976 48.1041 22.1271 47.7636 22.1167C47.4231 22.1062 47.1192 22.0402 46.8516 21.9186C46.5841 21.797 46.3826 21.606 46.2471 21.3454C46.1255 21.1126 46.0595 20.8764 46.0491 20.6367C46.0422 20.3935 46.0387 20.119 46.0387 19.8133V14.8365H47.1331V19.7612C47.1331 19.987 47.1348 20.1833 47.1383 20.35C47.1452 20.5168 47.1817 20.6575 47.2477 20.7722C47.3728 20.9876 47.5708 21.1109 47.8418 21.1422C48.1162 21.17 48.4376 21.1578 48.8059 21.1057V22.0281ZM44.96 17.2754V16.3999H48.8059V17.2754H44.96ZM53.9499 22.0281V15.5505H51.4537V14.5239H57.5352V15.5505H55.039V22.0281H53.9499ZM58.4734 15.4775V14.4196H59.5626V15.4775H58.4734ZM58.4734 22.0281V16.3999H59.5626V22.0281H58.4734ZM64.3481 22.0281C63.9937 22.0976 63.6463 22.1271 63.3058 22.1167C62.9653 22.1062 62.6614 22.0402 62.3938 21.9186C62.1263 21.797 61.9248 21.606 61.7893 21.3454C61.6677 21.1126 61.6017 20.8764 61.5913 20.6367C61.5844 20.3935 61.5809 20.119 61.5809 19.8133V14.8365H62.6753V19.7612C62.6753 19.987 62.677 20.1833 62.6805 20.35C62.6874 20.5168 62.7239 20.6575 62.7899 20.7722C62.915 20.9876 63.113 21.1109 63.384 21.1422C63.6584 21.17 63.9798 21.1578 64.3481 21.1057V22.0281ZM60.5022 17.2754V16.3999H64.3481V17.2754H60.5022ZM65.6389 22.0281V14.3675H66.7281V22.0281H65.6389ZM70.7892 22.1844C70.2299 22.1844 69.7383 22.0628 69.3144 21.8196C68.894 21.573 68.5657 21.2308 68.3295 20.793C68.0967 20.3518 67.9803 19.8411 67.9803 19.2609C67.9803 18.646 68.095 18.1127 68.3243 17.661C68.557 17.2094 68.8801 16.8602 69.2936 16.6136C69.707 16.3669 70.1882 16.2436 70.7371 16.2436C71.3103 16.2436 71.7984 16.3773 72.2014 16.6448C72.6045 16.9089 72.905 17.2858 73.103 17.7757C73.3045 18.2655 73.3844 18.8475 73.3427 19.5215H72.2536V19.1254C72.2466 18.4723 72.1215 17.9893 71.8783 17.6767C71.6386 17.364 71.2721 17.2077 70.7788 17.2077C70.2333 17.2077 69.8234 17.3796 69.5489 17.7236C69.2745 18.0675 69.1372 18.5643 69.1372 19.214C69.1372 19.8324 69.2745 20.3118 69.5489 20.6523C69.8234 20.9893 70.2194 21.1578 70.7371 21.1578C71.0776 21.1578 71.3711 21.0814 71.6178 20.9285C71.8679 20.7722 72.0625 20.5498 72.2014 20.2615L73.2698 20.6002C73.0509 21.1039 72.7191 21.4948 72.2744 21.7727C71.8297 22.0472 71.3346 22.1844 70.7892 22.1844ZM68.7829 19.5215V18.672H72.8007V19.5215H68.7829Z" fill="#808080"/>
<path d="M77.3958 18.1457L76.6037 17.5724L77.3958 16.6031L76.1816 16.2644L76.4838 15.3316L77.6563 15.7902L77.5938 14.5239H78.5735L78.511 15.7902L79.6887 15.3316L79.991 16.2644L78.7716 16.6031L79.5637 17.5724L78.7716 18.1457L78.0837 17.1034L77.3958 18.1457Z" fill="#FF2626"/>
<path d="M13.354 37.1304C13.354 35.1517 14.9581 33.5476 16.9368 33.5476H281.083V62.2096H16.9368C14.9581 62.2096 13.354 60.6055 13.354 58.6269V37.1304Z" fill="white"/>
<path d="M13.354 37.1304C13.354 35.1517 14.9581 33.5476 16.9368 33.5476H281.083V62.2096H16.9368C14.9581 62.2096 13.354 60.6055 13.354 58.6269V37.1304Z" stroke="#EEEEEE" stroke-width="0.651408"/>
<rect width="72.5141" height="15" transform="translate(22.7988 40.0527)" fill="#D3E5EF"/>
<path d="M26.8764 52.0527V43.6105H27.7441L32.3932 50.5284V43.6105H33.2609V52.0527H32.3932L27.7441 45.1289V52.0527H26.8764ZM37.5825 52.2286C36.965 52.2286 36.4295 52.0918 35.9761 51.8182C35.5267 51.5446 35.1769 51.1597 34.9267 50.6633C34.6766 50.1669 34.5515 49.5845 34.5515 48.9162C34.5515 48.2244 34.6746 47.6264 34.9209 47.1222C35.1671 46.618 35.513 46.2291 35.9585 45.9556C36.408 45.682 36.9376 45.5452 37.5473 45.5452C38.1727 45.5452 38.7062 45.6898 39.1478 45.979C39.5895 46.2643 39.9237 46.6747 40.1504 47.2102C40.3771 47.7456 40.4806 48.3847 40.4611 49.1273H39.5817V48.8224C39.566 48.0016 39.3882 47.3821 39.0482 46.9639C38.7121 46.5457 38.2196 46.3366 37.5708 46.3366C36.8907 46.3366 36.3689 46.5575 36.0054 46.9991C35.6459 47.4408 35.4661 48.07 35.4661 48.8869C35.4661 49.6842 35.6459 50.3037 36.0054 50.7454C36.3689 51.1831 36.8829 51.402 37.5473 51.402C38.0007 51.402 38.3955 51.2984 38.7316 51.0913C39.0716 50.8802 39.3394 50.5773 39.5348 50.1825L40.338 50.4933C40.0878 51.0444 39.7185 51.4723 39.2299 51.7772C38.7453 52.0781 38.1961 52.2286 37.5825 52.2286ZM35.1612 49.1273V48.4061H39.9979V49.1273H35.1612ZM42.8815 52.0527L40.9469 45.7152L41.8087 45.721L43.3095 50.6398L44.8162 45.721H45.6018L47.1085 50.6398L48.6211 45.721H49.4771L47.5424 52.0527H46.7919L45.209 47.0108L43.632 52.0527H42.8815ZM52.8806 52.0527V43.6105H56.1403C56.2223 43.6105 56.3142 43.6144 56.4158 43.6222C56.5213 43.6261 56.6269 43.6378 56.7324 43.6574C57.174 43.7238 57.5473 43.8782 57.8522 44.1205C58.1609 44.3589 58.3935 44.6599 58.5498 45.0234C58.7101 45.3869 58.7902 45.7894 58.7902 46.2311C58.7902 46.6688 58.7101 47.0695 58.5498 47.4329C58.3896 47.7964 58.1551 48.0993 57.8463 48.3417C57.5414 48.5801 57.1701 48.7325 56.7324 48.7989C56.6269 48.8146 56.5213 48.8263 56.4158 48.8341C56.3142 48.8419 56.2223 48.8459 56.1403 48.8459H53.7424V52.0527H52.8806ZM53.7424 48.0251H56.1168C56.1872 48.0251 56.2692 48.0212 56.363 48.0134C56.4568 48.0055 56.5487 47.9919 56.6386 47.9723C56.9278 47.9098 57.1643 47.7906 57.348 47.6147C57.5356 47.4388 57.6743 47.2297 57.7642 46.9874C57.858 46.7451 57.9049 46.493 57.9049 46.2311C57.9049 45.9692 57.858 45.7171 57.7642 45.4748C57.6743 45.2286 57.5356 45.0175 57.348 44.8416C57.1643 44.6658 56.9278 44.5466 56.6386 44.484C56.5487 44.4645 56.4568 44.4528 56.363 44.4488C56.2692 44.441 56.1872 44.4371 56.1168 44.4371H53.7424V48.0251ZM59.957 52.0527V45.721H60.7309V47.2453L60.5785 47.046C60.6488 46.8584 60.7407 46.6864 60.854 46.5301C60.9674 46.3698 61.0905 46.2389 61.2234 46.1373C61.3875 45.9927 61.5791 45.8832 61.7979 45.809C62.0168 45.7308 62.2376 45.6859 62.4604 45.6741C62.6832 45.6585 62.8864 45.6741 63.0701 45.721V46.5301C62.8395 46.4715 62.5874 46.4578 62.3138 46.4891C62.0402 46.5203 61.7882 46.6298 61.5576 46.8174C61.3465 46.9815 61.1882 47.1789 61.0827 47.4095C60.9771 47.6362 60.9068 47.8785 60.8716 48.1365C60.8364 48.3905 60.8189 48.6426 60.8189 48.8928V52.0527H59.957ZM66.7119 52.2286C66.0826 52.2286 65.5452 52.086 65.0996 51.8006C64.6541 51.5153 64.3121 51.1206 64.0737 50.6164C63.8352 50.1122 63.716 49.5337 63.716 48.881C63.716 48.2166 63.8372 47.6342 64.0795 47.1339C64.3218 46.6337 64.6658 46.2448 65.1113 45.9673C65.5608 45.6859 66.0943 45.5452 66.7119 45.5452C67.345 45.5452 67.8844 45.6878 68.33 45.9731C68.7794 46.2545 69.1214 46.6473 69.3559 47.1515C69.5943 47.6518 69.7135 48.2283 69.7135 48.881C69.7135 49.5455 69.5943 50.1298 69.3559 50.634C69.1175 51.1342 68.7736 51.5251 68.3241 51.8065C67.8746 52.0879 67.3372 52.2286 66.7119 52.2286ZM66.7119 51.402C67.4154 51.402 67.9391 51.1694 68.2831 50.7043C68.627 50.2353 68.799 49.6275 68.799 48.881C68.799 48.115 68.625 47.5053 68.2772 47.0519C67.9332 46.5985 67.4115 46.3718 66.7119 46.3718C66.2389 46.3718 65.8481 46.4793 65.5393 46.6942C65.2345 46.9053 65.0058 47.2004 64.8534 47.5795C64.7049 47.9547 64.6306 48.3886 64.6306 48.881C64.6306 49.6432 64.8065 50.2548 65.1582 50.716C65.51 51.1733 66.0279 51.402 66.7119 51.402ZM70.0688 54.8668V54.0343H70.4264C70.7117 54.0343 70.9384 53.9601 71.1065 53.8115C71.2785 53.6669 71.3644 53.4226 71.3644 53.0787V45.721H72.2204V53.2956C72.2204 53.8233 72.0934 54.2161 71.8393 54.474C71.5892 54.7359 71.2042 54.8668 70.6844 54.8668H70.0688ZM71.3644 44.5192V43.5519H72.2204V44.5192H71.3644ZM76.6288 52.2286C76.0113 52.2286 75.4759 52.0918 75.0225 51.8182C74.573 51.5446 74.2232 51.1597 73.9731 50.6633C73.7229 50.1669 73.5978 49.5845 73.5978 48.9162C73.5978 48.2244 73.721 47.6264 73.9672 47.1222C74.2134 46.618 74.5593 46.2291 75.0049 45.9556C75.4544 45.682 75.984 45.5452 76.5937 45.5452C77.219 45.5452 77.7525 45.6898 78.1942 45.979C78.6358 46.2643 78.97 46.6747 79.1967 47.2102C79.4234 47.7456 79.527 48.3847 79.5074 49.1273H78.628V48.8224C78.6124 48.0016 78.4346 47.3821 78.0945 46.9639C77.7584 46.5457 77.2659 46.3366 76.6171 46.3366C75.9371 46.3366 75.4153 46.5575 75.0518 46.9991C74.6922 47.4408 74.5124 48.07 74.5124 48.8869C74.5124 49.6842 74.6922 50.3037 75.0518 50.7454C75.4153 51.1831 75.9292 51.402 76.5937 51.402C77.0471 51.402 77.4418 51.2984 77.7779 51.0913C78.118 50.8802 78.3857 50.5773 78.5811 50.1825L79.3843 50.4933C79.1342 51.0444 78.7648 51.4723 78.2763 51.7772C77.7916 52.0781 77.2425 52.2286 76.6288 52.2286ZM74.2076 49.1273V48.4061H79.0443V49.1273H74.2076ZM83.435 52.2286C82.7979 52.2286 82.2585 52.086 81.8169 51.8006C81.3752 51.5153 81.0391 51.1225 80.8085 50.6222C80.5818 50.1181 80.4645 49.5396 80.4567 48.8869C80.4645 48.2225 80.5857 47.6401 80.8202 47.1398C81.0547 46.6356 81.3928 46.2448 81.8344 45.9673C82.2761 45.6859 82.8116 45.5452 83.4408 45.5452C84.0818 45.5452 84.6388 45.7015 85.1117 46.0142C85.5885 46.3269 85.9149 46.7548 86.0907 47.2981L85.2465 47.5678C85.098 47.1887 84.8615 46.8955 84.5371 46.6884C84.2166 46.4773 83.8493 46.3718 83.435 46.3718C82.9698 46.3718 82.5849 46.4793 82.28 46.6942C81.9751 46.9053 81.7485 47.2004 81.5999 47.5795C81.4514 47.9586 81.3752 48.3944 81.3713 48.8869C81.3791 49.6451 81.555 50.2548 81.8989 50.716C82.2429 51.1733 82.7549 51.402 83.435 51.402C83.8649 51.402 84.2303 51.3043 84.5313 51.1088C84.8361 50.9095 85.0667 50.6203 85.2231 50.2412L86.0907 50.4991C85.8562 51.0619 85.5123 51.4919 85.0589 51.7889C84.6055 52.082 84.0642 52.2286 83.435 52.2286ZM90.7482 52.0527C90.3925 52.127 90.0408 52.1563 89.6929 52.1407C89.349 52.125 89.0402 52.0508 88.7666 51.9179C88.4969 51.785 88.2917 51.5779 88.151 51.2964C88.0377 51.0619 87.9751 50.8255 87.9634 50.5871C87.9556 50.3447 87.9517 50.0692 87.9517 49.7604V43.9622H88.8076V49.7253C88.8076 49.991 88.8096 50.2138 88.8135 50.3936C88.8213 50.5695 88.8624 50.7258 88.9366 50.8626C89.0773 51.1245 89.3001 51.2808 89.605 51.3316C89.9137 51.3824 90.2948 51.3707 90.7482 51.2964V52.0527ZM86.5974 46.4597V45.721H90.7482V46.4597H86.5974Z" fill="#3D3D3D"/>
<path d="M13.7579 84.5635V77.0593H16.1082C16.1777 77.0593 16.3062 77.061 16.4938 77.0645C16.6849 77.0679 16.8673 77.0818 17.041 77.1062C17.6281 77.1791 18.1215 77.3893 18.521 77.7367C18.924 78.0841 19.228 78.5254 19.433 79.0604C19.6379 79.5919 19.7404 80.1756 19.7404 80.8114C19.7404 81.4506 19.6379 82.0377 19.433 82.5728C19.228 83.1043 18.924 83.5438 18.521 83.8912C18.1215 84.2352 17.6281 84.4436 17.041 84.5166C16.8673 84.5409 16.6849 84.5548 16.4938 84.5583C16.3062 84.5617 16.1777 84.5635 16.1082 84.5635H13.7579ZM14.8731 83.5264H16.1082C16.2263 83.5264 16.367 83.523 16.5303 83.516C16.6936 83.5091 16.8378 83.4952 16.9628 83.4743C17.345 83.4014 17.6542 83.2363 17.8904 82.9793C18.1302 82.7187 18.3056 82.3991 18.4168 82.0204C18.5279 81.6417 18.5835 81.2387 18.5835 80.8114C18.5835 80.3701 18.5262 79.9619 18.4116 79.5867C18.2969 79.208 18.1197 78.8919 17.88 78.6383C17.6438 78.3812 17.338 78.2179 16.9628 78.1484C16.8378 78.1241 16.6918 78.1102 16.5251 78.1067C16.3618 78.0998 16.2228 78.0963 16.1082 78.0963H14.8731V83.5264ZM23.4501 84.7198C22.8908 84.7198 22.3992 84.5982 21.9753 84.355C21.555 84.1084 21.2266 83.7662 20.9904 83.3284C20.7576 82.8872 20.6412 82.3765 20.6412 81.7963C20.6412 81.1814 20.7559 80.6481 20.9852 80.1964C21.218 79.7448 21.5411 79.3956 21.9545 79.149C22.3679 78.9023 22.8491 78.779 23.398 78.779C23.9712 78.779 24.4594 78.9127 24.8624 79.1802C25.2654 79.4443 25.5659 79.8212 25.7639 80.3111C25.9654 80.8009 26.0453 81.3829 26.0036 82.0569H24.9145V81.6608C24.9075 81.0077 24.7825 80.5247 24.5393 80.2121C24.2996 79.8994 23.933 79.7431 23.4397 79.7431C22.8943 79.7431 22.4843 79.915 22.2098 80.259C21.9354 80.6029 21.7982 81.0997 21.7982 81.7494C21.7982 82.3678 21.9354 82.8472 22.2098 83.1877C22.4843 83.5247 22.8804 83.6932 23.398 83.6932C23.7385 83.6932 24.032 83.6168 24.2787 83.4639C24.5289 83.3076 24.7234 83.0852 24.8624 82.7969L25.9307 83.1356C25.7118 83.6393 25.38 84.0302 24.9353 84.3081C24.4906 84.5826 23.9956 84.7198 23.4501 84.7198ZM21.4438 82.0569V81.2074H25.4617V82.0569H21.4438ZM29.3251 84.7146C28.6407 84.7146 28.0831 84.5635 27.6523 84.2612C27.2215 83.959 26.9574 83.5334 26.8602 82.9845L27.9754 82.8125C28.0449 83.1043 28.2047 83.3354 28.4548 83.5056C28.7084 83.6723 29.0228 83.7557 29.3981 83.7557C29.7385 83.7557 30.0043 83.6862 30.1954 83.5473C30.3899 83.4083 30.4872 83.2172 30.4872 82.974C30.4872 82.8316 30.4525 82.717 30.383 82.6301C30.317 82.5398 30.1763 82.4547 29.9609 82.3747C29.7455 82.2948 29.4172 82.1958 28.9759 82.0777C28.493 81.9526 28.1091 81.8189 27.8242 81.6764C27.5428 81.5305 27.3413 81.362 27.2197 81.1709C27.1016 80.9764 27.0426 80.7419 27.0426 80.4674C27.0426 80.127 27.1329 79.8299 27.3135 79.5763C27.4942 79.3227 27.7478 79.1264 28.0744 78.9874C28.4044 78.8485 28.7901 78.779 29.2313 78.779C29.6621 78.779 30.046 78.8467 30.383 78.9822C30.72 79.1177 30.9927 79.3105 31.2012 79.5607C31.4096 79.8073 31.5347 80.0974 31.5764 80.4309L30.4612 80.6342C30.4229 80.3632 30.2961 80.1495 30.0807 79.9932C29.8653 79.8369 29.5857 79.7517 29.2417 79.7378C28.9117 79.7239 28.6442 79.7795 28.4392 79.9046C28.2342 80.0262 28.1317 80.1947 28.1317 80.4101C28.1317 80.5352 28.1699 80.6411 28.2464 80.728C28.3263 80.8148 28.4791 80.8982 28.705 80.9781C28.9308 81.058 29.2643 81.1536 29.7055 81.2647C30.178 81.3863 30.5532 81.5218 30.8312 81.6712C31.1091 81.8171 31.3071 81.9926 31.4252 82.1976C31.5468 82.3991 31.6076 82.644 31.6076 82.9323C31.6076 83.4882 31.4044 83.9242 30.9979 84.2404C30.5949 84.5565 30.0373 84.7146 29.3251 84.7146ZM35.1683 84.7198C34.5916 84.7198 34.1017 84.5913 33.6987 84.3342C33.2957 84.0771 32.9865 83.7245 32.7711 83.2763C32.5592 82.8281 32.4515 82.3192 32.448 81.7494C32.4515 81.1692 32.5627 80.6568 32.7815 80.2121C33.0004 79.7639 33.3131 79.413 33.7196 79.1594C34.1261 78.9058 34.6142 78.779 35.1839 78.779C35.7989 78.779 36.3235 78.9318 36.7577 79.2376C37.1955 79.5433 37.4838 79.9619 37.6228 80.4935L36.5389 80.8062C36.4312 80.49 36.254 80.2451 36.0073 80.0714C35.7641 79.8942 35.4845 79.8056 35.1683 79.8056C34.8105 79.8056 34.5169 79.8907 34.2876 80.0609C34.0583 80.2277 33.8881 80.457 33.7769 80.7488C33.6657 81.0407 33.6084 81.3742 33.6049 81.7494C33.6084 82.3296 33.7404 82.7986 34.001 83.1564C34.265 83.5143 34.6541 83.6932 35.1683 83.6932C35.5192 83.6932 35.8023 83.6133 36.0177 83.4535C36.2366 83.2902 36.4034 83.0574 36.518 82.7552L37.6228 83.0157C37.4387 83.5647 37.1347 83.9868 36.7108 84.2821C36.287 84.5739 35.7728 84.7198 35.1683 84.7198ZM38.6844 84.5635V78.9353H39.6537V80.3007L39.5183 80.1235C39.5877 79.9428 39.6781 79.7778 39.7892 79.6284C39.9004 79.4755 40.029 79.3505 40.1749 79.2532C40.3173 79.149 40.4754 79.0691 40.6491 79.0135C40.8263 78.9544 41.0069 78.9197 41.1911 78.9093C41.3752 78.8954 41.5524 78.904 41.7226 78.9353V79.9567C41.5385 79.9081 41.3335 79.8942 41.1077 79.915C40.8853 79.9359 40.6804 80.0071 40.4928 80.1287C40.3156 80.2433 40.1749 80.3823 40.0706 80.5456C39.9699 80.7089 39.8969 80.8913 39.8518 81.0928C39.8066 81.2908 39.784 81.501 39.784 81.7233V84.5635H38.6844ZM42.8193 78.0129V76.955H43.9084V78.0129H42.8193ZM42.8193 84.5635V78.9353H43.9084V84.5635H42.8193ZM48.1155 84.7198C47.577 84.7198 47.1253 84.5895 46.7605 84.329C46.3957 84.0649 46.1195 83.7088 45.9319 83.2607C45.7443 82.8125 45.6505 82.307 45.6505 81.7442C45.6505 81.1814 45.7426 80.6759 45.9267 80.2277C46.1143 79.7795 46.3888 79.4269 46.7501 79.1698C47.1149 78.9093 47.5631 78.779 48.0946 78.779C48.6227 78.779 49.0778 78.9093 49.46 79.1698C49.8456 79.4269 50.1426 79.7795 50.3511 80.2277C50.5595 80.6724 50.6638 81.1779 50.6638 81.7442C50.6638 82.307 50.5595 82.8142 50.3511 83.2659C50.1461 83.714 49.8525 84.0684 49.4704 84.329C49.0917 84.5895 48.6401 84.7198 48.1155 84.7198ZM45.4681 87.0649V78.9353H46.4374V82.9845H46.5625V87.0649H45.4681ZM47.9643 83.7349C48.3118 83.7349 48.5984 83.6463 48.8242 83.4691C49.0535 83.2919 49.2237 83.0539 49.3349 82.7552C49.4495 82.4529 49.5069 82.1159 49.5069 81.7442C49.5069 81.3759 49.4495 81.0424 49.3349 80.7436C49.2237 80.4448 49.0518 80.2069 48.819 80.0297C48.5862 79.8525 48.2892 79.7639 47.9279 79.7639C47.5874 79.7639 47.306 79.8473 47.0836 80.014C46.8648 80.1808 46.7015 80.4136 46.5938 80.7123C46.4895 81.0111 46.4374 81.3551 46.4374 81.7442C46.4374 82.1333 46.4895 82.4772 46.5938 82.776C46.698 83.0748 46.863 83.3093 47.0888 83.4795C47.3147 83.6498 47.6065 83.7349 47.9643 83.7349ZM55.035 84.5635C54.6806 84.633 54.3332 84.6625 53.9927 84.6521C53.6522 84.6416 53.3483 84.5756 53.0807 84.454C52.8132 84.3324 52.6117 84.1414 52.4762 83.8808C52.3546 83.648 52.2886 83.4118 52.2782 83.1721C52.2713 82.9289 52.2678 82.6544 52.2678 82.3487V77.3719H53.3621V82.2966C53.3621 82.5224 53.3639 82.7187 53.3674 82.8854C53.3743 83.0522 53.4108 83.1929 53.4768 83.3076C53.6019 83.523 53.7999 83.6463 54.0709 83.6776C54.3453 83.7054 54.6667 83.6932 55.035 83.6411V84.5635ZM51.189 79.8108V78.9353H55.035V79.8108H51.189ZM56.3258 78.0129V76.955H57.415V78.0129H56.3258ZM56.3258 84.5635V78.9353H57.415V84.5635H56.3258ZM61.424 84.7198C60.8612 84.7198 60.373 84.593 59.9596 84.3394C59.5462 84.0858 59.2266 83.7366 59.0007 83.2919C58.7784 82.8438 58.6672 82.3278 58.6672 81.7442C58.6672 81.157 58.7819 80.6411 59.0112 80.1964C59.2405 79.7483 59.5618 79.4008 59.9752 79.1542C60.3887 78.904 60.8716 78.779 61.424 78.779C61.9868 78.779 62.4749 78.9058 62.8883 79.1594C63.3018 79.413 63.6214 79.7622 63.8472 80.2069C64.073 80.6516 64.186 81.164 64.186 81.7442C64.186 82.3313 64.0713 82.849 63.842 83.2971C63.6162 83.7418 63.2966 84.091 62.8831 84.3446C62.4697 84.5947 61.9833 84.7198 61.424 84.7198ZM61.424 83.6932C61.9625 83.6932 62.3637 83.5125 62.6278 83.1512C62.8953 82.7864 63.029 82.3174 63.029 81.7442C63.029 81.157 62.8936 80.688 62.6226 80.3371C62.3551 79.9828 61.9555 79.8056 61.424 79.8056C61.0592 79.8056 60.7587 79.889 60.5224 80.0557C60.2862 80.219 60.1107 80.4466 59.9961 80.7384C59.8814 81.0268 59.8241 81.362 59.8241 81.7442C59.8241 82.3348 59.9596 82.8073 60.2306 83.1616C60.5016 83.516 60.8994 83.6932 61.424 83.6932ZM69.2813 84.5635V81.7963C69.2813 81.5774 69.2622 81.3533 69.2239 81.124C69.1892 80.8913 69.1197 80.6759 69.0155 80.4778C68.9147 80.2798 68.7706 80.12 68.583 79.9984C68.3988 79.8768 68.1574 79.816 67.8586 79.816C67.664 79.816 67.4799 79.849 67.3062 79.915C67.1325 79.9776 66.9796 80.08 66.8476 80.2225C66.7191 80.3649 66.6166 80.5525 66.5401 80.7853C66.4672 81.0181 66.4307 81.3012 66.4307 81.6347L65.7532 81.3794C65.7532 80.8687 65.8488 80.4188 66.0399 80.0297C66.2309 79.6371 66.5054 79.3314 66.8632 79.1125C67.2211 78.8936 67.6536 78.7842 68.1608 78.7842C68.55 78.7842 68.8765 78.8467 69.1406 78.9718C69.4046 79.0969 69.6183 79.2619 69.7815 79.4669C69.9483 79.6684 70.0751 79.889 70.162 80.1287C70.2488 80.3684 70.3079 80.6029 70.3392 80.8322C70.3704 81.0615 70.3861 81.263 70.3861 81.4367V84.5635H69.2813ZM65.3259 84.5635V78.9353H66.3004V80.5612H66.4307V84.5635H65.3259Z" fill="#808080"/>
<path d="M74.6273 80.6811L73.8352 80.1078L74.6273 79.1385L73.4131 78.7998L73.7153 77.867L74.8879 78.3256L74.8253 77.0593H75.805L75.7425 78.3256L76.9203 77.867L77.2225 78.7998L76.0031 79.1385L76.7952 80.1078L76.0031 80.6811L75.3152 79.6388L74.6273 80.6811Z" fill="#FF2626"/>
<path d="M13.354 99.6655C13.354 97.6868 14.9581 96.0828 16.9368 96.0828H280.431V171.646H16.9368C14.9581 171.646 13.354 170.042 13.354 168.063V99.6655Z" fill="white"/>
<path d="M13.354 99.6655C13.354 97.6868 14.9581 96.0828 16.9368 96.0828H280.431V171.646H16.9368C14.9581 171.646 13.354 170.042 13.354 168.063V99.6655Z" stroke="#EEEEEE" stroke-width="0.651408"/>
<path d="M23.6196 117.528V109.086H26.8793C26.9613 109.086 27.0532 109.09 27.1548 109.098C27.2603 109.101 27.3659 109.113 27.4714 109.133C27.913 109.199 28.2863 109.354 28.5912 109.596C28.8999 109.834 29.1325 110.135 29.2888 110.499C29.4491 110.862 29.5292 111.265 29.5292 111.706C29.5292 112.344 29.3611 112.897 29.025 113.366C28.6889 113.835 28.2081 114.13 27.5828 114.251L27.2838 114.321H24.4814V117.528H23.6196ZM28.7319 117.528L27.0669 114.093L27.8935 113.776L29.7226 117.528H28.7319ZM24.4814 113.5H26.8558C26.9262 113.5 27.0082 113.497 27.102 113.489C27.1958 113.481 27.2877 113.467 27.3776 113.448C27.6668 113.385 27.9033 113.266 28.087 113.09C28.2746 112.914 28.4133 112.705 28.5032 112.463C28.597 112.22 28.6439 111.968 28.6439 111.706C28.6439 111.445 28.597 111.192 28.5032 110.95C28.4133 110.704 28.2746 110.493 28.087 110.317C27.9033 110.141 27.6668 110.022 27.3776 109.959C27.2877 109.94 27.1958 109.928 27.102 109.924C27.0082 109.916 26.9262 109.912 26.8558 109.912H24.4814V113.5ZM33.6959 117.704C33.0784 117.704 32.5429 117.567 32.0895 117.294C31.64 117.02 31.2902 116.635 31.0401 116.139C30.79 115.642 30.6649 115.06 30.6649 114.392C30.6649 113.7 30.788 113.102 31.0342 112.598C31.2805 112.093 31.6264 111.704 32.0719 111.431C32.5214 111.157 33.051 111.021 33.6607 111.021C34.2861 111.021 34.8196 111.165 35.2612 111.454C35.7029 111.74 36.0371 112.15 36.2637 112.686C36.4904 113.221 36.594 113.86 36.5745 114.603H35.6951V114.298C35.6794 113.477 35.5016 112.857 35.1616 112.439C34.8254 112.021 34.333 111.812 33.6842 111.812C33.0041 111.812 32.4823 112.033 32.1188 112.474C31.7593 112.916 31.5795 113.545 31.5795 114.362C31.5795 115.16 31.7593 115.779 32.1188 116.221C32.4823 116.658 32.9963 116.877 33.6607 116.877C34.1141 116.877 34.5089 116.774 34.845 116.567C35.185 116.356 35.4527 116.053 35.6482 115.658L36.4514 115.969C36.2012 116.52 35.8319 116.948 35.3433 117.253C34.8587 117.553 34.3095 117.704 33.6959 117.704ZM31.2746 114.603V113.881H36.1113V114.603H31.2746ZM40.2382 117.698C39.4956 117.698 38.8839 117.538 38.4032 117.217C37.9263 116.897 37.6332 116.451 37.5238 115.881L38.4032 115.734C38.497 116.094 38.71 116.381 39.0422 116.596C39.3783 116.807 39.7926 116.912 40.2851 116.912C40.7658 116.912 41.1449 116.813 41.4224 116.613C41.6999 116.41 41.8387 116.135 41.8387 115.787C41.8387 115.591 41.7937 115.433 41.7039 115.312C41.6179 115.187 41.44 115.072 41.1703 114.966C40.9007 114.861 40.4981 114.735 39.9626 114.591C39.3881 114.435 38.9386 114.278 38.6142 114.122C38.2898 113.966 38.0592 113.786 37.9224 113.582C37.7856 113.375 37.7172 113.123 37.7172 112.826C37.7172 112.467 37.8189 112.152 38.0221 111.882C38.2253 111.609 38.5067 111.398 38.8663 111.249C39.2259 111.097 39.6441 111.021 40.1209 111.021C40.5978 111.021 41.0238 111.099 41.399 111.255C41.7781 111.407 42.083 111.622 42.3136 111.9C42.5442 112.177 42.681 112.5 42.724 112.867L41.8446 113.026C41.7859 112.654 41.6003 112.361 41.2876 112.146C40.9788 111.927 40.586 111.814 40.1092 111.806C39.6597 111.794 39.2943 111.88 39.0129 112.064C38.7315 112.244 38.5908 112.484 38.5908 112.785C38.5908 112.953 38.6416 113.098 38.7432 113.219C38.8448 113.336 39.0285 113.448 39.2943 113.553C39.564 113.659 39.947 113.774 40.4434 113.899C41.0257 114.048 41.483 114.204 41.8152 114.368C42.1475 114.532 42.3839 114.726 42.5246 114.948C42.6653 115.171 42.7357 115.447 42.7357 115.775C42.7357 116.373 42.5129 116.844 42.0673 117.188C41.6257 117.528 41.016 117.698 40.2382 117.698ZM46.8793 117.704C46.297 117.704 45.8045 117.557 45.4019 117.264C44.9993 116.967 44.6945 116.567 44.4873 116.062C44.2802 115.554 44.1766 114.986 44.1766 114.356C44.1766 113.715 44.2802 113.145 44.4873 112.644C44.6984 112.14 45.0072 111.744 45.4136 111.454C45.8201 111.165 46.3204 111.021 46.9145 111.021C47.4929 111.021 47.9893 111.167 48.4036 111.46C48.8179 111.753 49.1345 112.152 49.3534 112.656C49.5761 113.16 49.6875 113.727 49.6875 114.356C49.6875 114.99 49.5761 115.558 49.3534 116.062C49.1306 116.567 48.8101 116.967 48.3919 117.264C47.9737 117.557 47.4695 117.704 46.8793 117.704ZM44.03 120.342V111.196H44.8039V115.963H44.8977V120.342H44.03ZM46.7914 116.901C47.233 116.901 47.6004 116.789 47.8936 116.567C48.1867 116.344 48.4056 116.041 48.5502 115.658C48.6987 115.271 48.773 114.837 48.773 114.356C48.773 113.88 48.7006 113.45 48.556 113.067C48.4114 112.684 48.1906 112.381 47.8936 112.158C47.6004 111.935 47.2272 111.824 46.7738 111.824C46.3321 111.824 45.9647 111.931 45.6716 112.146C45.3824 112.361 45.1655 112.66 45.0208 113.043C44.8762 113.422 44.8039 113.86 44.8039 114.356C44.8039 114.845 44.8762 115.283 45.0208 115.67C45.1655 116.053 45.3843 116.354 45.6775 116.572C45.9706 116.791 46.3419 116.901 46.7914 116.901ZM53.619 117.704C52.9897 117.704 52.4523 117.561 52.0068 117.276C51.5612 116.991 51.2192 116.596 50.9808 116.092C50.7424 115.588 50.6232 115.009 50.6232 114.356C50.6232 113.692 50.7443 113.11 50.9867 112.609C51.229 112.109 51.5729 111.72 52.0185 111.443C52.468 111.161 53.0015 111.021 53.619 111.021C54.2522 111.021 54.7915 111.163 55.2371 111.448C55.6866 111.73 56.0286 112.123 56.2631 112.627C56.5015 113.127 56.6207 113.704 56.6207 114.356C56.6207 115.021 56.5015 115.605 56.2631 116.109C56.0247 116.61 55.6807 117 55.2312 117.282C54.7818 117.563 54.2444 117.704 53.619 117.704ZM53.619 116.877C54.3225 116.877 54.8463 116.645 55.1902 116.18C55.5341 115.711 55.7061 115.103 55.7061 114.356C55.7061 113.59 55.5322 112.981 55.1843 112.527C54.8404 112.074 54.3186 111.847 53.619 111.847C53.1461 111.847 52.7552 111.955 52.4465 112.17C52.1416 112.381 51.913 112.676 51.7605 113.055C51.612 113.43 51.5378 113.864 51.5378 114.356C51.5378 115.119 51.7136 115.73 52.0654 116.191C52.4172 116.649 52.935 116.877 53.619 116.877ZM62.4869 117.528V114.298C62.4869 113.946 62.4536 113.624 62.3872 113.33C62.3207 113.033 62.2133 112.775 62.0647 112.557C61.9201 112.334 61.7306 112.162 61.4961 112.041C61.2655 111.919 60.9841 111.859 60.6518 111.859C60.347 111.859 60.0773 111.912 59.8428 112.017C59.6122 112.123 59.4168 112.275 59.2565 112.474C59.1002 112.67 58.981 112.908 58.8989 113.19C58.8168 113.471 58.7758 113.792 58.7758 114.151L58.1661 114.016C58.1661 113.368 58.2794 112.822 58.5061 112.381C58.7328 111.939 59.0455 111.605 59.4441 111.378C59.8428 111.151 60.3001 111.038 60.816 111.038C61.1951 111.038 61.5254 111.097 61.8068 111.214C62.0921 111.331 62.3325 111.49 62.5279 111.689C62.7272 111.888 62.8875 112.117 63.0086 112.375C63.1298 112.629 63.2177 112.9 63.2725 113.19C63.3272 113.475 63.3545 113.76 63.3545 114.046V117.528H62.4869ZM57.9081 117.528V111.196H58.6878V112.756H58.7758V117.528H57.9081ZM67.2386 117.698C66.4959 117.698 65.8843 117.538 65.4035 117.217C64.9267 116.897 64.6336 116.451 64.5241 115.881L65.4035 115.734C65.4973 116.094 65.7103 116.381 66.0426 116.596C66.3787 116.807 66.793 116.912 67.2855 116.912C67.7662 116.912 68.1453 116.813 68.4228 116.613C68.7003 116.41 68.8391 116.135 68.8391 115.787C68.8391 115.591 68.7941 115.433 68.7042 115.312C68.6182 115.187 68.4404 115.072 68.1707 114.966C67.901 114.861 67.4985 114.735 66.963 114.591C66.3885 114.435 65.939 114.278 65.6146 114.122C65.2902 113.966 65.0596 113.786 64.9228 113.582C64.786 113.375 64.7176 113.123 64.7176 112.826C64.7176 112.467 64.8192 112.152 65.0225 111.882C65.2257 111.609 65.5071 111.398 65.8667 111.249C66.2263 111.097 66.6445 111.021 67.1213 111.021C67.5981 111.021 68.0242 111.099 68.3994 111.255C68.7785 111.407 69.0833 111.622 69.3139 111.9C69.5445 112.177 69.6813 112.5 69.7243 112.867L68.8449 113.026C68.7863 112.654 68.6006 112.361 68.288 112.146C67.9792 111.927 67.5864 111.814 67.1096 111.806C66.6601 111.794 66.2947 111.88 66.0133 112.064C65.7318 112.244 65.5911 112.484 65.5911 112.785C65.5911 112.953 65.6419 113.098 65.7436 113.219C65.8452 113.336 66.0289 113.448 66.2947 113.553C66.5643 113.659 66.9474 113.774 67.4437 113.899C68.0261 114.048 68.4834 114.204 68.8156 114.368C69.1478 114.532 69.3843 114.726 69.525 114.948C69.6657 115.171 69.7361 115.447 69.7361 115.775C69.7361 116.373 69.5133 116.844 69.0677 117.188C68.6261 117.528 68.0163 117.698 67.2386 117.698ZM71.1535 109.995V109.027H72.0153V109.995H71.1535ZM71.1535 117.528V111.196H72.0153V117.528H71.1535ZM75.4849 117.528L73.1867 111.196H74.0602L75.9304 116.402L77.7889 111.196H78.6742L76.376 117.528H75.4849ZM82.1775 117.704C81.5599 117.704 81.0245 117.567 80.5711 117.294C80.1216 117.02 79.7718 116.635 79.5217 116.139C79.2715 115.642 79.1465 115.06 79.1465 114.392C79.1465 113.7 79.2696 113.102 79.5158 112.598C79.7621 112.093 80.1079 111.704 80.5535 111.431C81.003 111.157 81.5326 111.021 82.1423 111.021C82.7676 111.021 83.3012 111.165 83.7428 111.454C84.1845 111.74 84.5186 112.15 84.7453 112.686C84.972 113.221 85.0756 113.86 85.056 114.603H84.1766V114.298C84.161 113.477 83.9832 112.857 83.6431 112.439C83.307 112.021 82.8146 111.812 82.1657 111.812C81.4857 111.812 80.9639 112.033 80.6004 112.474C80.2408 112.916 80.061 113.545 80.061 114.362C80.061 115.16 80.2408 115.779 80.6004 116.221C80.9639 116.658 81.4779 116.877 82.1423 116.877C82.5957 116.877 82.9904 116.774 83.3266 116.567C83.6666 116.356 83.9343 116.053 84.1297 115.658L84.9329 115.969C84.6828 116.52 84.3134 116.948 83.8249 117.253C83.3402 117.553 82.7911 117.704 82.1775 117.704ZM79.7562 114.603V113.881H84.5929V114.603H79.7562ZM90.0529 117.528L88.1182 111.191L88.98 111.196L90.4809 116.115L91.9876 111.196H92.7732L94.2799 116.115L95.7924 111.196H96.6484L94.7137 117.528H93.9633L92.3804 112.486L90.8033 117.528H90.0529ZM100.155 117.704C99.5373 117.704 99.0018 117.567 98.5484 117.294C98.099 117.02 97.7492 116.635 97.499 116.139C97.2489 115.642 97.1238 115.06 97.1238 114.392C97.1238 113.7 97.2469 113.102 97.4932 112.598C97.7394 112.093 98.0853 111.704 98.5309 111.431C98.9803 111.157 99.5099 111.021 100.12 111.021C100.745 111.021 101.278 111.165 101.72 111.454C102.162 111.74 102.496 112.15 102.723 112.686C102.949 113.221 103.053 113.86 103.033 114.603H102.154V114.298C102.138 113.477 101.961 112.857 101.62 112.439C101.284 112.021 100.792 111.812 100.143 111.812C99.463 111.812 98.9412 112.033 98.5778 112.474C98.2182 112.916 98.0384 113.545 98.0384 114.362C98.0384 115.16 98.2182 115.779 98.5778 116.221C98.9412 116.658 99.4552 116.877 100.12 116.877C100.573 116.877 100.968 116.774 101.304 116.567C101.644 116.356 101.912 116.053 102.107 115.658L102.91 115.969C102.66 116.52 102.291 116.948 101.802 117.253C101.318 117.553 100.768 117.704 100.155 117.704ZM97.7335 114.603V113.881H102.57V114.603H97.7335ZM107.178 117.704C106.595 117.704 106.103 117.557 105.7 117.264C105.298 116.967 104.993 116.567 104.786 116.062C104.579 115.554 104.475 114.986 104.475 114.356C104.475 113.715 104.579 113.145 104.786 112.644C104.997 112.14 105.306 111.744 105.712 111.454C106.119 111.165 106.619 111.021 107.213 111.021C107.791 111.021 108.288 111.167 108.702 111.46C109.116 111.753 109.433 112.152 109.652 112.656C109.875 113.16 109.986 113.727 109.986 114.356C109.986 114.99 109.875 115.558 109.652 116.062C109.429 116.567 109.109 116.967 108.69 117.264C108.272 117.557 107.768 117.704 107.178 117.704ZM104.329 117.528V109.086H105.196V112.762H105.102V117.528H104.329ZM107.09 116.901C107.532 116.901 107.899 116.789 108.192 116.567C108.485 116.344 108.704 116.041 108.849 115.658C108.997 115.271 109.071 114.837 109.071 114.356C109.071 113.88 108.999 113.45 108.855 113.067C108.71 112.684 108.489 112.381 108.192 112.158C107.899 111.935 107.526 111.824 107.072 111.824C106.631 111.824 106.263 111.931 105.97 112.146C105.681 112.361 105.464 112.66 105.319 113.043C105.175 113.422 105.102 113.86 105.102 114.356C105.102 114.845 105.175 115.283 105.319 115.67C105.464 116.053 105.683 116.354 105.976 116.572C106.269 116.791 106.64 116.901 107.09 116.901ZM113.579 117.698C112.836 117.698 112.225 117.538 111.744 117.217C111.267 116.897 110.974 116.451 110.864 115.881L111.744 115.734C111.838 116.094 112.051 116.381 112.383 116.596C112.719 116.807 113.133 116.912 113.626 116.912C114.107 116.912 114.486 116.813 114.763 116.613C115.041 116.41 115.179 116.135 115.179 115.787C115.179 115.591 115.134 115.433 115.045 115.312C114.959 115.187 114.781 115.072 114.511 114.966C114.241 114.861 113.839 114.735 113.303 114.591C112.729 114.435 112.279 114.278 111.955 114.122C111.631 113.966 111.4 113.786 111.263 113.582C111.126 113.375 111.058 113.123 111.058 112.826C111.058 112.467 111.16 112.152 111.363 111.882C111.566 111.609 111.847 111.398 112.207 111.249C112.567 111.097 112.985 111.021 113.462 111.021C113.938 111.021 114.364 111.099 114.74 111.255C115.119 111.407 115.424 111.622 115.654 111.9C115.885 112.177 116.022 112.5 116.065 112.867L115.185 113.026C115.127 112.654 114.941 112.361 114.628 112.146C114.32 111.927 113.927 111.814 113.45 111.806C113 111.794 112.635 111.88 112.354 112.064C112.072 112.244 111.931 112.484 111.931 112.785C111.931 112.953 111.982 113.098 112.084 113.219C112.186 113.336 112.369 113.448 112.635 113.553C112.905 113.659 113.288 113.774 113.784 113.899C114.366 114.048 114.824 114.204 115.156 114.368C115.488 114.532 115.725 114.726 115.865 114.948C116.006 115.171 116.076 115.447 116.076 115.775C116.076 116.373 115.854 116.844 115.408 117.188C114.966 117.528 114.357 117.698 113.579 117.698ZM117.494 109.995V109.027H118.356V109.995H117.494ZM117.494 117.528V111.196H118.356V117.528H117.494ZM123.561 117.528C123.205 117.602 122.853 117.632 122.505 117.616C122.161 117.6 121.853 117.526 121.579 117.393C121.309 117.26 121.104 117.053 120.963 116.772C120.85 116.537 120.788 116.301 120.776 116.062C120.768 115.82 120.764 115.545 120.764 115.236V109.438H121.62V115.201C121.62 115.466 121.622 115.689 121.626 115.869C121.634 116.045 121.675 116.201 121.749 116.338C121.89 116.6 122.112 116.756 122.417 116.807C122.726 116.858 123.107 116.846 123.561 116.772V117.528ZM119.41 111.935V111.196H123.561V111.935H119.41ZM127.258 117.704C126.641 117.704 126.105 117.567 125.652 117.294C125.202 117.02 124.853 116.635 124.602 116.139C124.352 115.642 124.227 115.06 124.227 114.392C124.227 113.7 124.35 113.102 124.597 112.598C124.843 112.093 125.189 111.704 125.634 111.431C126.084 111.157 126.613 111.021 127.223 111.021C127.848 111.021 128.382 111.165 128.824 111.454C129.265 111.74 129.599 112.15 129.826 112.686C130.053 113.221 130.156 113.86 130.137 114.603H129.257V114.298C129.242 113.477 129.064 112.857 128.724 112.439C128.388 112.021 127.895 111.812 127.247 111.812C126.566 111.812 126.045 112.033 125.681 112.474C125.322 112.916 125.142 113.545 125.142 114.362C125.142 115.16 125.322 115.779 125.681 116.221C126.045 116.658 126.559 116.877 127.223 116.877C127.676 116.877 128.071 116.774 128.407 116.567C128.747 116.356 129.015 116.053 129.211 115.658L130.014 115.969C129.764 116.52 129.394 116.948 128.906 117.253C128.421 117.553 127.872 117.704 127.258 117.704ZM124.837 114.603V113.881H129.674V114.603H124.837ZM136.242 117.704C135.652 117.704 135.147 117.557 134.729 117.264C134.311 116.967 133.99 116.567 133.768 116.062C133.545 115.558 133.433 114.99 133.433 114.356C133.433 113.727 133.543 113.16 133.762 112.656C133.985 112.152 134.303 111.753 134.717 111.46C135.132 111.167 135.628 111.021 136.207 111.021C136.801 111.021 137.301 111.165 137.707 111.454C138.114 111.744 138.421 112.14 138.628 112.644C138.839 113.145 138.944 113.715 138.944 114.356C138.944 114.986 138.841 115.554 138.634 116.062C138.427 116.567 138.122 116.967 137.719 117.264C137.317 117.557 136.824 117.704 136.242 117.704ZM136.33 116.901C136.779 116.901 137.15 116.791 137.444 116.572C137.737 116.354 137.956 116.053 138.1 115.67C138.245 115.283 138.317 114.845 138.317 114.356C138.317 113.86 138.245 113.422 138.1 113.043C137.956 112.66 137.737 112.361 137.444 112.146C137.154 111.931 136.789 111.824 136.347 111.824C135.894 111.824 135.519 111.935 135.222 112.158C134.925 112.381 134.704 112.684 134.559 113.067C134.418 113.45 134.348 113.88 134.348 114.356C134.348 114.837 134.42 115.271 134.565 115.658C134.713 116.041 134.934 116.344 135.227 116.567C135.521 116.789 135.888 116.901 136.33 116.901ZM138.317 117.528V112.762H138.223V109.086H139.091V117.528H138.317ZM143.415 117.704C142.797 117.704 142.262 117.567 141.809 117.294C141.359 117.02 141.009 116.635 140.759 116.139C140.509 115.642 140.384 115.06 140.384 114.392C140.384 113.7 140.507 113.102 140.753 112.598C141 112.093 141.345 111.704 141.791 111.431C142.24 111.157 142.77 111.021 143.38 111.021C144.005 111.021 144.539 111.165 144.98 111.454C145.422 111.74 145.756 112.15 145.983 112.686C146.209 113.221 146.313 113.86 146.294 114.603H145.414V114.298C145.398 113.477 145.221 112.857 144.881 112.439C144.544 112.021 144.052 111.812 143.403 111.812C142.723 111.812 142.201 112.033 141.838 112.474C141.478 112.916 141.299 113.545 141.299 114.362C141.299 115.16 141.478 115.779 141.838 116.221C142.201 116.658 142.715 116.877 143.38 116.877C143.833 116.877 144.228 116.774 144.564 116.567C144.904 116.356 145.172 116.053 145.367 115.658L146.17 115.969C145.92 116.52 145.551 116.948 145.062 117.253C144.578 117.553 144.029 117.704 143.415 117.704ZM140.994 114.603V113.881H145.83V114.603H140.994ZM149.957 117.698C149.215 117.698 148.603 117.538 148.122 117.217C147.645 116.897 147.352 116.451 147.243 115.881L148.122 115.734C148.216 116.094 148.429 116.381 148.761 116.596C149.097 116.807 149.512 116.912 150.004 116.912C150.485 116.912 150.864 116.813 151.142 116.613C151.419 116.41 151.558 116.135 151.558 115.787C151.558 115.591 151.513 115.433 151.423 115.312C151.337 115.187 151.159 115.072 150.889 114.966C150.62 114.861 150.217 114.735 149.682 114.591C149.107 114.435 148.658 114.278 148.333 114.122C148.009 113.966 147.778 113.786 147.641 113.582C147.505 113.375 147.436 113.123 147.436 112.826C147.436 112.467 147.538 112.152 147.741 111.882C147.944 111.609 148.226 111.398 148.585 111.249C148.945 111.097 149.363 111.021 149.84 111.021C150.317 111.021 150.743 111.099 151.118 111.255C151.497 111.407 151.802 111.622 152.033 111.9C152.263 112.177 152.4 112.5 152.443 112.867L151.564 113.026C151.505 112.654 151.319 112.361 151.007 112.146C150.698 111.927 150.305 111.814 149.828 111.806C149.379 111.794 149.013 111.88 148.732 112.064C148.451 112.244 148.31 112.484 148.31 112.785C148.31 112.953 148.361 113.098 148.462 113.219C148.564 113.336 148.748 113.448 149.013 113.553C149.283 113.659 149.666 113.774 150.162 113.899C150.745 114.048 151.202 114.204 151.534 114.368C151.867 114.532 152.103 114.726 152.244 114.948C152.384 115.171 152.455 115.447 152.455 115.775C152.455 116.373 152.232 116.844 151.786 117.188C151.345 117.528 150.735 117.698 149.957 117.698ZM153.872 109.995V109.027H154.734V109.995H153.872ZM153.872 117.528V111.196H154.734V117.528H153.872ZM159.007 120.518C158.682 120.518 158.362 120.469 158.045 120.371C157.733 120.278 157.443 120.127 157.178 119.92C156.912 119.717 156.689 119.451 156.509 119.123L157.289 118.689C157.465 119.041 157.711 119.293 158.028 119.445C158.348 119.602 158.675 119.68 159.007 119.68C159.464 119.68 159.833 119.594 160.115 119.422C160.4 119.254 160.607 119.004 160.736 118.671C160.865 118.339 160.928 117.925 160.924 117.428V115.74H161.024V111.196H161.792V117.44C161.792 117.62 161.786 117.792 161.774 117.956C161.766 118.124 161.749 118.288 161.721 118.449C161.647 118.921 161.493 119.31 161.258 119.615C161.027 119.92 160.723 120.147 160.343 120.295C159.968 120.444 159.523 120.518 159.007 120.518ZM158.948 117.704C158.358 117.704 157.854 117.557 157.436 117.264C157.017 116.967 156.697 116.567 156.474 116.062C156.251 115.558 156.14 114.99 156.14 114.356C156.14 113.727 156.249 113.16 156.468 112.656C156.691 112.152 157.01 111.753 157.424 111.46C157.838 111.167 158.334 111.021 158.913 111.021C159.507 111.021 160.007 111.165 160.414 111.454C160.82 111.744 161.127 112.14 161.334 112.644C161.545 113.145 161.651 113.715 161.651 114.356C161.651 114.986 161.547 115.554 161.34 116.062C161.133 116.567 160.828 116.967 160.426 117.264C160.023 117.557 159.53 117.704 158.948 117.704ZM159.036 116.901C159.486 116.901 159.857 116.791 160.15 116.572C160.443 116.354 160.662 116.053 160.807 115.67C160.951 115.283 161.024 114.845 161.024 114.356C161.024 113.86 160.951 113.422 160.807 113.043C160.662 112.66 160.443 112.361 160.15 112.146C159.861 111.931 159.495 111.824 159.054 111.824C158.6 111.824 158.225 111.935 157.928 112.158C157.631 112.381 157.41 112.684 157.266 113.067C157.125 113.45 157.054 113.88 157.054 114.356C157.054 114.837 157.127 115.271 157.271 115.658C157.42 116.041 157.641 116.344 157.934 116.567C158.227 116.789 158.594 116.901 159.036 116.901ZM168.004 117.528V114.298C168.004 113.946 167.97 113.624 167.904 113.33C167.837 113.033 167.73 112.775 167.581 112.557C167.437 112.334 167.247 112.162 167.013 112.041C166.782 111.919 166.501 111.859 166.169 111.859C165.864 111.859 165.594 111.912 165.36 112.017C165.129 112.123 164.933 112.275 164.773 112.474C164.617 112.67 164.498 112.908 164.416 113.19C164.334 113.471 164.292 113.792 164.292 114.151L163.683 114.016C163.683 113.368 163.796 112.822 164.023 112.381C164.25 111.939 164.562 111.605 164.961 111.378C165.36 111.151 165.817 111.038 166.333 111.038C166.712 111.038 167.042 111.097 167.324 111.214C167.609 111.331 167.849 111.49 168.045 111.689C168.244 111.888 168.404 112.117 168.525 112.375C168.647 112.629 168.734 112.9 168.789 113.19C168.844 113.475 168.871 113.76 168.871 114.046V117.528H168.004ZM163.425 117.528V111.196H164.205V112.756H164.292V117.528H163.425ZM173.367 117.528V110.727C173.367 110.563 173.375 110.401 173.391 110.241C173.41 110.081 173.447 109.928 173.502 109.783C173.557 109.635 173.643 109.498 173.76 109.373C173.889 109.232 174.03 109.131 174.182 109.068C174.335 109.002 174.493 108.959 174.657 108.939C174.825 108.92 174.989 108.91 175.15 108.91H175.959V109.637H175.208C174.88 109.637 174.634 109.717 174.469 109.877C174.309 110.038 174.229 110.29 174.229 110.634V117.528H173.367ZM172.271 111.935V111.196H175.959V111.935H172.271ZM179.312 117.704C178.682 117.704 178.145 117.561 177.699 117.276C177.254 116.991 176.912 116.596 176.673 116.092C176.435 115.588 176.316 115.009 176.316 114.356C176.316 113.692 176.437 113.11 176.679 112.609C176.922 112.109 177.265 111.72 177.711 111.443C178.161 111.161 178.694 111.021 179.312 111.021C179.945 111.021 180.484 111.163 180.93 111.448C181.379 111.73 181.721 112.123 181.956 112.627C182.194 113.127 182.313 113.704 182.313 114.356C182.313 115.021 182.194 115.605 181.956 116.109C181.717 116.61 181.373 117 180.924 117.282C180.474 117.563 179.937 117.704 179.312 117.704ZM179.312 116.877C180.015 116.877 180.539 116.645 180.883 116.18C181.227 115.711 181.399 115.103 181.399 114.356C181.399 113.59 181.225 112.981 180.877 112.527C180.533 112.074 180.011 111.847 179.312 111.847C178.839 111.847 178.448 111.955 178.139 112.17C177.834 112.381 177.606 112.676 177.453 113.055C177.305 113.43 177.23 113.864 177.23 114.356C177.23 115.119 177.406 115.73 177.758 116.191C178.11 116.649 178.628 116.877 179.312 116.877ZM186.233 117.704C185.596 117.704 185.057 117.561 184.615 117.276C184.173 116.991 183.837 116.598 183.607 116.098C183.38 115.593 183.263 115.015 183.255 114.362C183.263 113.698 183.384 113.115 183.618 112.615C183.853 112.111 184.191 111.72 184.632 111.443C185.074 111.161 185.61 111.021 186.239 111.021C186.88 111.021 187.437 111.177 187.91 111.49C188.387 111.802 188.713 112.23 188.889 112.773L188.045 113.043C187.896 112.664 187.66 112.371 187.335 112.164C187.015 111.953 186.647 111.847 186.233 111.847C185.768 111.847 185.383 111.955 185.078 112.17C184.773 112.381 184.547 112.676 184.398 113.055C184.249 113.434 184.173 113.87 184.169 114.362C184.177 115.12 184.353 115.73 184.697 116.191C185.041 116.649 185.553 116.877 186.233 116.877C186.663 116.877 187.028 116.78 187.329 116.584C187.634 116.385 187.865 116.096 188.021 115.717L188.889 115.974C188.654 116.537 188.31 116.967 187.857 117.264C187.404 117.557 186.862 117.704 186.233 117.704ZM192.52 117.686C192.141 117.686 191.809 117.628 191.524 117.51C191.242 117.393 191.002 117.235 190.803 117.036C190.607 116.836 190.449 116.61 190.328 116.356C190.206 116.098 190.119 115.826 190.064 115.541C190.009 115.251 189.982 114.964 189.982 114.679V111.196H190.849V114.427C190.849 114.775 190.883 115.097 190.949 115.394C191.016 115.691 191.121 115.951 191.266 116.174C191.414 116.393 191.604 116.563 191.834 116.684C192.069 116.805 192.352 116.866 192.684 116.866C192.989 116.866 193.257 116.813 193.488 116.707C193.722 116.602 193.918 116.451 194.074 116.256C194.234 116.057 194.355 115.816 194.437 115.535C194.519 115.249 194.56 114.929 194.56 114.573L195.17 114.708C195.17 115.357 195.057 115.902 194.83 116.344C194.603 116.785 194.291 117.12 193.892 117.346C193.493 117.573 193.036 117.686 192.52 117.686ZM194.648 117.528V115.969H194.56V111.196H195.422V117.528H194.648ZM199.424 117.698C198.681 117.698 198.069 117.538 197.589 117.217C197.112 116.897 196.819 116.451 196.709 115.881L197.589 115.734C197.682 116.094 197.895 116.381 198.228 116.596C198.564 116.807 198.978 116.912 199.47 116.912C199.951 116.912 200.33 116.813 200.608 116.613C200.885 116.41 201.024 116.135 201.024 115.787C201.024 115.591 200.979 115.433 200.889 115.312C200.803 115.187 200.625 115.072 200.356 114.966C200.086 114.861 199.683 114.735 199.148 114.591C198.573 114.435 198.124 114.278 197.8 114.122C197.475 113.966 197.245 113.786 197.108 113.582C196.971 113.375 196.903 113.123 196.903 112.826C196.903 112.467 197.004 112.152 197.207 111.882C197.411 111.609 197.692 111.398 198.052 111.249C198.411 111.097 198.829 111.021 199.306 111.021C199.783 111.021 200.209 111.099 200.584 111.255C200.963 111.407 201.268 111.622 201.499 111.9C201.73 112.177 201.866 112.5 201.909 112.867L201.03 113.026C200.971 112.654 200.786 112.361 200.473 112.146C200.164 111.927 199.771 111.814 199.295 111.806C198.845 111.794 198.48 111.88 198.198 112.064C197.917 112.244 197.776 112.484 197.776 112.785C197.776 112.953 197.827 113.098 197.929 113.219C198.03 113.336 198.214 113.448 198.48 113.553C198.749 113.659 199.132 113.774 199.629 113.899C200.211 114.048 200.668 114.204 201.001 114.368C201.333 114.532 201.569 114.726 201.71 114.948C201.851 115.171 201.921 115.447 201.921 115.775C201.921 116.373 201.698 116.844 201.253 117.188C200.811 117.528 200.201 117.698 199.424 117.698ZM205.901 117.704C205.283 117.704 204.748 117.567 204.294 117.294C203.845 117.02 203.495 116.635 203.245 116.139C202.995 115.642 202.87 115.06 202.87 114.392C202.87 113.7 202.993 113.102 203.239 112.598C203.485 112.093 203.831 111.704 204.277 111.431C204.726 111.157 205.256 111.021 205.865 111.021C206.491 111.021 207.024 111.165 207.466 111.454C207.908 111.74 208.242 112.15 208.468 112.686C208.695 113.221 208.799 113.86 208.779 114.603H207.9V114.298C207.884 113.477 207.706 112.857 207.366 112.439C207.03 112.021 206.538 111.812 205.889 111.812C205.209 111.812 204.687 112.033 204.323 112.474C203.964 112.916 203.784 113.545 203.784 114.362C203.784 115.16 203.964 115.779 204.323 116.221C204.687 116.658 205.201 116.877 205.865 116.877C206.319 116.877 206.714 116.774 207.05 116.567C207.39 116.356 207.657 116.053 207.853 115.658L208.656 115.969C208.406 116.52 208.037 116.948 207.548 117.253C207.063 117.553 206.514 117.704 205.901 117.704ZM203.479 114.603V113.881H208.316V114.603H203.479ZM212.537 117.704C211.946 117.704 211.442 117.557 211.024 117.264C210.606 116.967 210.285 116.567 210.063 116.062C209.84 115.558 209.728 114.99 209.728 114.356C209.728 113.727 209.838 113.16 210.057 112.656C210.28 112.152 210.598 111.753 211.012 111.46C211.427 111.167 211.923 111.021 212.501 111.021C213.096 111.021 213.596 111.165 214.002 111.454C214.409 111.744 214.716 112.14 214.923 112.644C215.134 113.145 215.239 113.715 215.239 114.356C215.239 114.986 215.136 115.554 214.929 116.062C214.721 116.567 214.417 116.967 214.014 117.264C213.611 117.557 213.119 117.704 212.537 117.704ZM212.625 116.901C213.074 116.901 213.445 116.791 213.738 116.572C214.032 116.354 214.25 116.053 214.395 115.67C214.54 115.283 214.612 114.845 214.612 114.356C214.612 113.86 214.54 113.422 214.395 113.043C214.25 112.66 214.032 112.361 213.738 112.146C213.449 111.931 213.084 111.824 212.642 111.824C212.189 111.824 211.814 111.935 211.517 112.158C211.219 112.381 210.999 112.684 210.854 113.067C210.713 113.45 210.643 113.88 210.643 114.356C210.643 114.837 210.715 115.271 210.86 115.658C211.008 116.041 211.229 116.344 211.522 116.567C211.816 116.789 212.183 116.901 212.625 116.901ZM214.612 117.528V112.762H214.518V109.086H215.386V117.528H214.612ZM222.022 117.704C221.393 117.704 220.855 117.561 220.41 117.276C219.964 116.991 219.622 116.596 219.384 116.092C219.145 115.588 219.026 115.009 219.026 114.356C219.026 113.692 219.147 113.11 219.39 112.609C219.632 112.109 219.976 111.72 220.422 111.443C220.871 111.161 221.405 111.021 222.022 111.021C222.655 111.021 223.195 111.163 223.64 111.448C224.09 111.73 224.432 112.123 224.666 112.627C224.905 113.127 225.024 113.704 225.024 114.356C225.024 115.021 224.905 115.605 224.666 116.109C224.428 116.61 224.084 117 223.634 117.282C223.185 117.563 222.647 117.704 222.022 117.704ZM222.022 116.877C222.726 116.877 223.249 116.645 223.593 116.18C223.937 115.711 224.109 115.103 224.109 114.356C224.109 113.59 223.935 112.981 223.587 112.527C223.243 112.074 222.722 111.847 222.022 111.847C221.549 111.847 221.158 111.955 220.85 112.17C220.545 112.381 220.316 112.676 220.164 113.055C220.015 113.43 219.941 113.864 219.941 114.356C219.941 115.119 220.117 115.73 220.468 116.191C220.82 116.649 221.338 116.877 222.022 116.877ZM230.89 117.528V114.298C230.89 113.946 230.857 113.624 230.79 113.33C230.724 113.033 230.616 112.775 230.468 112.557C230.323 112.334 230.134 112.162 229.899 112.041C229.669 111.919 229.387 111.859 229.055 111.859C228.75 111.859 228.48 111.912 228.246 112.017C228.015 112.123 227.82 112.275 227.66 112.474C227.503 112.67 227.384 112.908 227.302 113.19C227.22 113.471 227.179 113.792 227.179 114.151L226.569 114.016C226.569 113.368 226.682 112.822 226.909 112.381C227.136 111.939 227.449 111.605 227.847 111.378C228.246 111.151 228.703 111.038 229.219 111.038C229.598 111.038 229.928 111.097 230.21 111.214C230.495 111.331 230.736 111.49 230.931 111.689C231.13 111.888 231.291 112.117 231.412 112.375C231.533 112.629 231.621 112.9 231.676 113.19C231.73 113.475 231.758 113.76 231.758 114.046V117.528H230.89ZM226.311 117.528V111.196H227.091V112.756H227.179V117.528H226.311ZM26.0409 133.686C25.6618 133.686 25.3295 133.628 25.0442 133.51C24.7628 133.393 24.5225 133.235 24.3231 133.036C24.1277 132.836 23.9694 132.61 23.8482 132.356C23.7271 132.098 23.6391 131.826 23.5844 131.541C23.5297 131.251 23.5023 130.964 23.5023 130.679V127.196H24.37V130.427C24.37 130.775 24.4032 131.097 24.4697 131.394C24.5361 131.691 24.6417 131.951 24.7863 132.174C24.9348 132.393 25.1244 132.563 25.355 132.684C25.5895 132.805 25.8728 132.866 26.205 132.866C26.5099 132.866 26.7776 132.813 27.0082 132.707C27.2427 132.602 27.4382 132.451 27.5945 132.256C27.7547 132.057 27.8759 131.816 27.958 131.535C28.0401 131.249 28.0811 130.929 28.0811 130.573L28.6908 130.708C28.6908 131.357 28.5775 131.902 28.3508 132.344C28.1241 132.785 27.8114 133.12 27.4128 133.346C27.0141 133.573 26.5568 133.686 26.0409 133.686ZM28.169 133.528V131.969H28.0811V127.196H28.9429V133.528H28.169ZM32.9442 133.698C32.2016 133.698 31.5899 133.538 31.1092 133.217C30.6323 132.897 30.3392 132.451 30.2298 131.881L31.1092 131.734C31.203 132.094 31.416 132.381 31.7482 132.596C32.0843 132.807 32.4986 132.912 32.9911 132.912C33.4718 132.912 33.8509 132.813 34.1284 132.613C34.4059 132.41 34.5447 132.135 34.5447 131.787C34.5447 131.591 34.4998 131.433 34.4099 131.312C34.3239 131.187 34.146 131.072 33.8764 130.966C33.6067 130.861 33.2041 130.735 32.6686 130.591C32.0941 130.435 31.6446 130.278 31.3202 130.122C30.9958 129.966 30.7652 129.786 30.6284 129.582C30.4916 129.375 30.4232 129.123 30.4232 128.826C30.4232 128.467 30.5249 128.152 30.7281 127.882C30.9313 127.609 31.2127 127.398 31.5723 127.249C31.9319 127.097 32.3501 127.021 32.8269 127.021C33.3038 127.021 33.7298 127.099 34.105 127.255C34.4841 127.407 34.789 127.622 35.0196 127.9C35.2502 128.177 35.387 128.5 35.43 128.867L34.5506 129.026C34.4919 128.654 34.3063 128.361 33.9936 128.146C33.6848 127.927 33.292 127.814 32.8152 127.806C32.3657 127.794 32.0003 127.88 31.7189 128.064C31.4375 128.244 31.2968 128.484 31.2968 128.785C31.2968 128.953 31.3476 129.098 31.4492 129.219C31.5508 129.336 31.7345 129.448 32.0003 129.553C32.27 129.659 32.653 129.774 33.1494 129.899C33.7317 130.048 34.189 130.204 34.5212 130.368C34.8535 130.532 35.0899 130.726 35.2306 130.948C35.3713 131.171 35.4417 131.447 35.4417 131.775C35.4417 132.373 35.2189 132.844 34.7733 133.188C34.3317 133.528 33.722 133.698 32.9442 133.698ZM39.4212 133.704C38.8036 133.704 38.2682 133.567 37.8148 133.294C37.3653 133.02 37.0155 132.635 36.7654 132.139C36.5152 131.642 36.3902 131.06 36.3902 130.392C36.3902 129.7 36.5133 129.102 36.7595 128.598C37.0057 128.093 37.3516 127.704 37.7972 127.431C38.2467 127.157 38.7763 127.021 39.386 127.021C40.0113 127.021 40.5448 127.165 40.9865 127.454C41.4282 127.74 41.7623 128.15 41.989 128.686C42.2157 129.221 42.3193 129.86 42.2997 130.603H41.4203V130.298C41.4047 129.477 41.2269 128.857 40.8868 128.439C40.5507 128.021 40.0582 127.812 39.4094 127.812C38.7294 127.812 38.2076 128.033 37.8441 128.474C37.4845 128.916 37.3047 129.545 37.3047 130.362C37.3047 131.16 37.4845 131.779 37.8441 132.221C38.2076 132.658 38.7216 132.877 39.386 132.877C39.8394 132.877 40.2341 132.774 40.5702 132.567C40.9103 132.356 41.178 132.053 41.3734 131.658L42.1766 131.969C41.9265 132.52 41.5571 132.948 41.0686 133.253C40.5839 133.553 40.0348 133.704 39.4212 133.704ZM36.9999 130.603V129.881H41.8366V130.603H36.9999ZM43.6008 133.528V127.196H44.3747V128.721L44.2222 128.521C44.2926 128.334 44.3844 128.162 44.4978 128.005C44.6111 127.845 44.7342 127.714 44.8671 127.613C45.0313 127.468 45.2228 127.359 45.4417 127.284C45.6605 127.206 45.8814 127.161 46.1042 127.149C46.3269 127.134 46.5302 127.149 46.7139 127.196V128.005C46.4833 127.947 46.2312 127.933 45.9576 127.964C45.684 127.996 45.4319 128.105 45.2013 128.293C44.9902 128.457 44.832 128.654 44.7264 128.885C44.6209 129.112 44.5505 129.354 44.5154 129.612C44.4802 129.866 44.4626 130.118 44.4626 130.368V133.528H43.6008ZM52.8526 133.704C52.2351 133.704 51.6997 133.567 51.2463 133.294C50.7968 133.02 50.447 132.635 50.1969 132.139C49.9467 131.642 49.8216 131.06 49.8216 130.392C49.8216 129.7 49.9448 129.102 50.191 128.598C50.4372 128.093 50.7831 127.704 51.2287 127.431C51.6782 127.157 52.2078 127.021 52.8175 127.021C53.4428 127.021 53.9763 127.165 54.418 127.454C54.8596 127.74 55.1938 128.15 55.4205 128.686C55.6472 129.221 55.7508 129.86 55.7312 130.603H54.8518V130.298C54.8362 129.477 54.6583 128.857 54.3183 128.439C53.9822 128.021 53.4897 127.812 52.8409 127.812C52.1608 127.812 51.6391 128.033 51.2756 128.474C50.916 128.916 50.7362 129.545 50.7362 130.362C50.7362 131.16 50.916 131.779 51.2756 132.221C51.6391 132.658 52.153 132.877 52.8175 132.877C53.2708 132.877 53.6656 132.774 54.0017 132.567C54.3418 132.356 54.6095 132.053 54.8049 131.658L55.6081 131.969C55.358 132.52 54.9886 132.948 54.5001 133.253C54.0154 133.553 53.4663 133.704 52.8526 133.704ZM50.4314 130.603V129.881H55.2681V130.603H50.4314ZM56.0997 133.528L58.5738 130.327L56.1525 127.196H57.1843L59.078 129.665L60.954 127.196H61.9859L59.5646 130.327L62.0445 133.528H61.0068L59.078 130.99L57.1374 133.528H56.0997ZM65.83 133.704C65.2476 133.704 64.7551 133.557 64.3526 133.264C63.95 132.967 63.6451 132.567 63.438 132.062C63.2308 131.554 63.1273 130.986 63.1273 130.356C63.1273 129.715 63.2308 129.145 63.438 128.644C63.649 128.14 63.9578 127.744 64.3643 127.454C64.7708 127.165 65.271 127.021 65.8651 127.021C66.4436 127.021 66.94 127.167 67.3542 127.46C67.7685 127.753 68.0851 128.152 68.304 128.656C68.5268 129.16 68.6382 129.727 68.6382 130.356C68.6382 130.99 68.5268 131.558 68.304 132.062C68.0812 132.567 67.7607 132.967 67.3425 133.264C66.9243 133.557 66.4201 133.704 65.83 133.704ZM62.9807 136.342V127.196H63.7546V131.963H63.8484V136.342H62.9807ZM65.742 132.901C66.1837 132.901 66.5511 132.789 66.8442 132.567C67.1373 132.344 67.3562 132.041 67.5008 131.658C67.6493 131.271 67.7236 130.837 67.7236 130.356C67.7236 129.88 67.6513 129.45 67.5067 129.067C67.3621 128.684 67.1412 128.381 66.8442 128.158C66.5511 127.935 66.1778 127.824 65.7244 127.824C65.2828 127.824 64.9154 127.931 64.6222 128.146C64.333 128.361 64.1161 128.66 63.9715 129.043C63.8269 129.422 63.7546 129.86 63.7546 130.356C63.7546 130.845 63.8269 131.283 63.9715 131.67C64.1161 132.053 64.335 132.354 64.6281 132.572C64.9212 132.791 65.2925 132.901 65.742 132.901ZM72.6048 133.704C71.9873 133.704 71.4518 133.567 70.9984 133.294C70.549 133.02 70.1992 132.635 69.949 132.139C69.6989 131.642 69.5738 131.06 69.5738 130.392C69.5738 129.7 69.6969 129.102 69.9432 128.598C70.1894 128.093 70.5353 127.704 70.9809 127.431C71.4303 127.157 71.9599 127.021 72.5696 127.021C73.195 127.021 73.7285 127.165 74.1702 127.454C74.6118 127.74 74.946 128.15 75.1727 128.686C75.3994 129.221 75.5029 129.86 75.4834 130.603H74.604V130.298C74.5884 129.477 74.4105 128.857 74.0705 128.439C73.7344 128.021 73.2419 127.812 72.5931 127.812C71.913 127.812 71.3912 128.033 71.0278 128.474C70.6682 128.916 70.4884 129.545 70.4884 130.362C70.4884 131.16 70.6682 131.779 71.0278 132.221C71.3912 132.658 71.9052 132.877 72.5696 132.877C73.023 132.877 73.4178 132.774 73.7539 132.567C74.0939 132.356 74.3617 132.053 74.5571 131.658L75.3603 131.969C75.1101 132.52 74.7408 132.948 74.2522 133.253C73.7676 133.553 73.2184 133.704 72.6048 133.704ZM70.1835 130.603V129.881H75.0202V130.603H70.1835ZM76.7845 133.528V127.196H77.5583V128.721L77.4059 128.521C77.4763 128.334 77.5681 128.162 77.6814 128.005C77.7948 127.845 77.9179 127.714 78.0508 127.613C78.2149 127.468 78.4065 127.359 78.6253 127.284C78.8442 127.206 79.065 127.161 79.2878 127.149C79.5106 127.134 79.7138 127.149 79.8975 127.196V128.005C79.6669 127.947 79.4148 127.933 79.1413 127.964C78.8677 127.996 78.6156 128.105 78.385 128.293C78.1739 128.457 78.0156 128.654 77.9101 128.885C77.8046 129.112 77.7342 129.354 77.699 129.612C77.6639 129.866 77.6463 130.118 77.6463 130.368V133.528H76.7845ZM81.127 125.995V125.027H81.9888V125.995H81.127ZM81.127 133.528V127.196H81.9888V133.528H81.127ZM86.4256 133.704C85.8081 133.704 85.2726 133.567 84.8193 133.294C84.3698 133.02 84.02 132.635 83.7698 132.139C83.5197 131.642 83.3946 131.06 83.3946 130.392C83.3946 129.7 83.5177 129.102 83.764 128.598C84.0102 128.093 84.3561 127.704 84.8017 127.431C85.2511 127.157 85.7807 127.021 86.3904 127.021C87.0158 127.021 87.5493 127.165 87.991 127.454C88.4326 127.74 88.7668 128.15 88.9935 128.686C89.2202 129.221 89.3237 129.86 89.3042 130.603H88.4248V130.298C88.4092 129.477 88.2313 128.857 87.8913 128.439C87.5552 128.021 87.0627 127.812 86.4139 127.812C85.7338 127.812 85.212 128.033 84.8486 128.474C84.489 128.916 84.3092 129.545 84.3092 130.362C84.3092 131.16 84.489 131.779 84.8486 132.221C85.212 132.658 85.726 132.877 86.3904 132.877C86.8438 132.877 87.2386 132.774 87.5747 132.567C87.9147 132.356 88.1825 132.053 88.3779 131.658L89.1811 131.969C88.9309 132.52 88.5616 132.948 88.073 133.253C87.5884 133.553 87.0392 133.704 86.4256 133.704ZM84.0043 130.603V129.881H88.841V130.603H84.0043ZM95.0064 133.528V130.298C95.0064 129.946 94.9732 129.624 94.9067 129.33C94.8403 129.033 94.7328 128.775 94.5843 128.557C94.4397 128.334 94.2501 128.162 94.0156 128.041C93.785 127.919 93.5036 127.859 93.1714 127.859C92.8665 127.859 92.5968 127.912 92.3623 128.017C92.1317 128.123 91.9363 128.275 91.776 128.474C91.6197 128.67 91.5005 128.908 91.4184 129.19C91.3363 129.471 91.2953 129.792 91.2953 130.151L90.6856 130.016C90.6856 129.368 90.7989 128.822 91.0256 128.381C91.2523 127.939 91.565 127.605 91.9636 127.378C92.3623 127.151 92.8196 127.038 93.3355 127.038C93.7146 127.038 94.0449 127.097 94.3263 127.214C94.6116 127.331 94.852 127.49 95.0474 127.689C95.2467 127.888 95.407 128.117 95.5282 128.375C95.6493 128.629 95.7373 128.9 95.792 129.19C95.8467 129.475 95.8741 129.76 95.8741 130.046V133.528H95.0064ZM90.4276 133.528V127.196H91.2074V128.756H91.2953V133.528H90.4276ZM99.9876 133.704C99.3505 133.704 98.8111 133.561 98.3695 133.276C97.9278 132.991 97.5917 132.598 97.3611 132.098C97.1344 131.593 97.0171 131.015 97.0093 130.362C97.0171 129.698 97.1383 129.115 97.3728 128.615C97.6073 128.111 97.9454 127.72 98.387 127.443C98.8287 127.161 99.3642 127.021 99.9934 127.021C100.634 127.021 101.191 127.177 101.664 127.49C102.141 127.802 102.467 128.23 102.643 128.773L101.799 129.043C101.651 128.664 101.414 128.371 101.09 128.164C100.769 127.953 100.402 127.847 99.9876 127.847C99.5224 127.847 99.1375 127.955 98.8326 128.17C98.5277 128.381 98.3011 128.676 98.1525 129.055C98.004 129.434 97.9278 129.87 97.9239 130.362C97.9317 131.12 98.1076 131.73 98.4515 132.191C98.7955 132.649 99.3075 132.877 99.9876 132.877C100.417 132.877 100.783 132.78 101.084 132.584C101.389 132.385 101.619 132.096 101.776 131.717L102.643 131.974C102.409 132.537 102.065 132.967 101.612 133.264C101.158 133.557 100.617 133.704 99.9876 133.704ZM106.361 133.704C105.743 133.704 105.208 133.567 104.755 133.294C104.305 133.02 103.955 132.635 103.705 132.139C103.455 131.642 103.33 131.06 103.33 130.392C103.33 129.7 103.453 129.102 103.699 128.598C103.946 128.093 104.291 127.704 104.737 127.431C105.187 127.157 105.716 127.021 106.326 127.021C106.951 127.021 107.485 127.165 107.926 127.454C108.368 127.74 108.702 128.15 108.929 128.686C109.156 129.221 109.259 129.86 109.24 130.603H108.36V130.298C108.345 129.477 108.167 128.857 107.827 128.439C107.491 128.021 106.998 127.812 106.349 127.812C105.669 127.812 105.147 128.033 104.784 128.474C104.424 128.916 104.245 129.545 104.245 130.362C104.245 131.16 104.424 131.779 104.784 132.221C105.147 132.658 105.661 132.877 106.326 132.877C106.779 132.877 107.174 132.774 107.51 132.567C107.85 132.356 108.118 132.053 108.313 131.658L109.116 131.969C108.866 132.52 108.497 132.948 108.008 133.253C107.524 133.553 106.975 133.704 106.361 133.704ZM103.94 130.603V129.881H108.776V130.603H103.94ZM110.194 134.753L110.247 134.325C110.403 134.337 110.517 134.306 110.587 134.232C110.658 134.157 110.701 134.058 110.716 133.933C110.732 133.808 110.736 133.673 110.728 133.528H110.194V132.291H111.197V133.763C111.197 134.122 111.105 134.392 110.921 134.572C110.742 134.751 110.499 134.812 110.194 134.753ZM117.585 133.704C117.108 133.704 116.708 133.618 116.383 133.446C116.063 133.274 115.822 133.045 115.662 132.76C115.502 132.475 115.422 132.164 115.422 131.828C115.422 131.484 115.49 131.191 115.627 130.948C115.768 130.702 115.957 130.501 116.196 130.345C116.438 130.188 116.717 130.069 117.034 129.987C117.355 129.909 117.708 129.84 118.095 129.782C118.486 129.719 118.867 129.667 119.238 129.624C119.614 129.577 119.942 129.532 120.223 129.489L119.918 129.676C119.93 129.051 119.809 128.588 119.555 128.287C119.301 127.986 118.859 127.835 118.23 127.835C117.796 127.835 117.429 127.933 117.128 128.129C116.831 128.324 116.622 128.633 116.501 129.055L115.662 128.809C115.807 128.242 116.098 127.802 116.536 127.49C116.973 127.177 117.542 127.021 118.242 127.021C118.82 127.021 119.311 127.13 119.713 127.349C120.12 127.564 120.407 127.876 120.575 128.287C120.653 128.471 120.704 128.676 120.727 128.902C120.751 129.129 120.763 129.36 120.763 129.594V133.528H119.995V131.939L120.217 132.033C120.002 132.576 119.668 132.991 119.215 133.276C118.762 133.561 118.218 133.704 117.585 133.704ZM117.685 132.959C118.087 132.959 118.439 132.887 118.74 132.742C119.041 132.598 119.283 132.4 119.467 132.15C119.651 131.896 119.77 131.611 119.825 131.294C119.872 131.091 119.897 130.868 119.901 130.626C119.905 130.38 119.907 130.196 119.907 130.075L120.235 130.245C119.942 130.284 119.623 130.323 119.279 130.362C118.939 130.401 118.603 130.446 118.271 130.497C117.943 130.548 117.646 130.608 117.38 130.679C117.2 130.73 117.026 130.802 116.858 130.896C116.69 130.986 116.551 131.107 116.442 131.259C116.336 131.412 116.284 131.601 116.284 131.828C116.284 132.012 116.329 132.189 116.418 132.361C116.512 132.533 116.661 132.676 116.864 132.789C117.071 132.903 117.345 132.959 117.685 132.959ZM124.915 133.704C124.278 133.704 123.739 133.561 123.297 133.276C122.856 132.991 122.519 132.598 122.289 132.098C122.062 131.593 121.945 131.015 121.937 130.362C121.945 129.698 122.066 129.115 122.301 128.615C122.535 128.111 122.873 127.72 123.315 127.443C123.757 127.161 124.292 127.021 124.921 127.021C125.562 127.021 126.119 127.177 126.592 127.49C127.069 127.802 127.395 128.23 127.571 128.773L126.727 129.043C126.578 128.664 126.342 128.371 126.018 128.164C125.697 127.953 125.33 127.847 124.915 127.847C124.45 127.847 124.065 127.955 123.76 128.17C123.456 128.381 123.229 128.676 123.08 129.055C122.932 129.434 122.856 129.87 122.852 130.362C122.86 131.12 123.035 131.73 123.379 132.191C123.723 132.649 124.235 132.877 124.915 132.877C125.345 132.877 125.711 132.78 126.012 132.584C126.317 132.385 126.547 132.096 126.703 131.717L127.571 131.974C127.337 132.537 126.993 132.967 126.539 133.264C126.086 133.557 125.545 133.704 124.915 133.704ZM131.236 133.704C130.599 133.704 130.06 133.561 129.618 133.276C129.176 132.991 128.84 132.598 128.61 132.098C128.383 131.593 128.266 131.015 128.258 130.362C128.266 129.698 128.387 129.115 128.621 128.615C128.856 128.111 129.194 127.72 129.636 127.443C130.077 127.161 130.613 127.021 131.242 127.021C131.883 127.021 132.44 127.177 132.913 127.49C133.39 127.802 133.716 128.23 133.892 128.773L133.048 129.043C132.899 128.664 132.663 128.371 132.338 128.164C132.018 127.953 131.65 127.847 131.236 127.847C130.771 127.847 130.386 127.955 130.081 128.17C129.776 128.381 129.55 128.676 129.401 129.055C129.253 129.434 129.176 129.87 129.172 130.362C129.18 131.12 129.356 131.73 129.7 132.191C130.044 132.649 130.556 132.877 131.236 132.877C131.666 132.877 132.031 132.78 132.332 132.584C132.637 132.385 132.868 132.096 133.024 131.717L133.892 131.974C133.657 132.537 133.313 132.967 132.86 133.264C132.407 133.557 131.865 133.704 131.236 133.704ZM137.61 133.704C136.992 133.704 136.457 133.567 136.003 133.294C135.554 133.02 135.204 132.635 134.954 132.139C134.704 131.642 134.579 131.06 134.579 130.392C134.579 129.7 134.702 129.102 134.948 128.598C135.194 128.093 135.54 127.704 135.986 127.431C136.435 127.157 136.965 127.021 137.574 127.021C138.2 127.021 138.733 127.165 139.175 127.454C139.617 127.74 139.951 128.15 140.177 128.686C140.404 129.221 140.508 129.86 140.488 130.603H139.609V130.298C139.593 129.477 139.415 128.857 139.075 128.439C138.739 128.021 138.247 127.812 137.598 127.812C136.918 127.812 136.396 128.033 136.032 128.474C135.673 128.916 135.493 129.545 135.493 130.362C135.493 131.16 135.673 131.779 136.032 132.221C136.396 132.658 136.91 132.877 137.574 132.877C138.028 132.877 138.422 132.774 138.759 132.567C139.099 132.356 139.366 132.053 139.562 131.658L140.365 131.969C140.115 132.52 139.745 132.948 139.257 133.253C138.772 133.553 138.223 133.704 137.61 133.704ZM135.188 130.603V129.881H140.025V130.603H135.188ZM144.152 133.698C143.409 133.698 142.798 133.538 142.317 133.217C141.84 132.897 141.547 132.451 141.437 131.881L142.317 131.734C142.411 132.094 142.624 132.381 142.956 132.596C143.292 132.807 143.706 132.912 144.199 132.912C144.679 132.912 145.059 132.813 145.336 132.613C145.614 132.41 145.752 132.135 145.752 131.787C145.752 131.591 145.707 131.433 145.617 131.312C145.531 131.187 145.354 131.072 145.084 130.966C144.814 130.861 144.412 130.735 143.876 130.591C143.302 130.435 142.852 130.278 142.528 130.122C142.203 129.966 141.973 129.786 141.836 129.582C141.699 129.375 141.631 129.123 141.631 128.826C141.631 128.467 141.732 128.152 141.936 127.882C142.139 127.609 142.42 127.398 142.78 127.249C143.14 127.097 143.558 127.021 144.035 127.021C144.511 127.021 144.937 127.099 145.313 127.255C145.692 127.407 145.997 127.622 146.227 127.9C146.458 128.177 146.595 128.5 146.638 128.867L145.758 129.026C145.7 128.654 145.514 128.361 145.201 128.146C144.892 127.927 144.5 127.814 144.023 127.806C143.573 127.794 143.208 127.88 142.927 128.064C142.645 128.244 142.504 128.484 142.504 128.785C142.504 128.953 142.555 129.098 142.657 129.219C142.758 129.336 142.942 129.448 143.208 129.553C143.478 129.659 143.861 129.774 144.357 129.899C144.939 130.048 145.397 130.204 145.729 130.368C146.061 130.532 146.298 130.726 146.438 130.948C146.579 131.171 146.649 131.447 146.649 131.775C146.649 132.373 146.427 132.844 145.981 133.188C145.539 133.528 144.93 133.698 144.152 133.698ZM150.312 133.698C149.57 133.698 148.958 133.538 148.477 133.217C148 132.897 147.707 132.451 147.598 131.881L148.477 131.734C148.571 132.094 148.784 132.381 149.116 132.596C149.452 132.807 149.867 132.912 150.359 132.912C150.84 132.912 151.219 132.813 151.496 132.613C151.774 132.41 151.913 132.135 151.913 131.787C151.913 131.591 151.868 131.433 151.778 131.312C151.692 131.187 151.514 131.072 151.244 130.966C150.975 130.861 150.572 130.735 150.037 130.591C149.462 130.435 149.013 130.278 148.688 130.122C148.364 129.966 148.133 129.786 147.996 129.582C147.86 129.375 147.791 129.123 147.791 128.826C147.791 128.467 147.893 128.152 148.096 127.882C148.299 127.609 148.581 127.398 148.94 127.249C149.3 127.097 149.718 127.021 150.195 127.021C150.672 127.021 151.098 127.099 151.473 127.255C151.852 127.407 152.157 127.622 152.388 127.9C152.618 128.177 152.755 128.5 152.798 128.867L151.919 129.026C151.86 128.654 151.674 128.361 151.362 128.146C151.053 127.927 150.66 127.814 150.183 127.806C149.734 127.794 149.368 127.88 149.087 128.064C148.806 128.244 148.665 128.484 148.665 128.785C148.665 128.953 148.716 129.098 148.817 129.219C148.919 129.336 149.103 129.448 149.368 129.553C149.638 129.659 150.021 129.774 150.517 129.899C151.1 130.048 151.557 130.204 151.889 130.368C152.221 130.532 152.458 130.726 152.599 130.948C152.739 131.171 152.81 131.447 152.81 131.775C152.81 132.373 152.587 132.844 152.141 133.188C151.7 133.528 151.09 133.698 150.312 133.698ZM154.227 125.995V125.027H155.089V125.995H154.227ZM154.227 133.528V127.196H155.089V133.528H154.227ZM159.69 133.704C159.108 133.704 158.615 133.557 158.213 133.264C157.81 132.967 157.505 132.567 157.298 132.062C157.091 131.554 156.987 130.986 156.987 130.356C156.987 129.715 157.091 129.145 157.298 128.644C157.509 128.14 157.818 127.744 158.224 127.454C158.631 127.165 159.131 127.021 159.725 127.021C160.304 127.021 160.8 127.167 161.214 127.46C161.629 127.753 161.945 128.152 162.164 128.656C162.387 129.16 162.498 129.727 162.498 130.356C162.498 130.99 162.387 131.558 162.164 132.062C161.941 132.567 161.621 132.967 161.203 133.264C160.784 133.557 160.28 133.704 159.69 133.704ZM156.841 133.528V125.086H157.708V128.762H157.615V133.528H156.841ZM159.602 132.901C160.044 132.901 160.411 132.789 160.704 132.567C160.997 132.344 161.216 132.041 161.361 131.658C161.509 131.271 161.584 130.837 161.584 130.356C161.584 129.88 161.511 129.45 161.367 129.067C161.222 128.684 161.001 128.381 160.704 128.158C160.411 127.935 160.038 127.824 159.584 127.824C159.143 127.824 158.775 127.931 158.482 128.146C158.193 128.361 157.976 128.66 157.832 129.043C157.687 129.422 157.615 129.86 157.615 130.356C157.615 130.845 157.687 131.283 157.832 131.67C157.976 132.053 158.195 132.354 158.488 132.572C158.781 132.791 159.153 132.901 159.602 132.901ZM163.903 125.995V125.027H164.765V125.995H163.903ZM163.903 133.528V127.196H164.765V133.528H163.903ZM166.64 133.528V124.91H167.501V133.528H166.64ZM169.376 125.995V125.027H170.238V125.995H169.376ZM169.376 133.528V127.196H170.238V133.528H169.376ZM175.443 133.528C175.087 133.602 174.736 133.632 174.388 133.616C174.044 133.6 173.735 133.526 173.461 133.393C173.192 133.26 172.986 133.053 172.846 132.772C172.732 132.537 172.67 132.301 172.658 132.062C172.65 131.82 172.646 131.545 172.646 131.236V125.438H173.502V131.201C173.502 131.466 173.504 131.689 173.508 131.869C173.516 132.045 173.557 132.201 173.631 132.338C173.772 132.6 173.995 132.756 174.3 132.807C174.608 132.858 174.99 132.846 175.443 132.772V133.528ZM171.292 127.935V127.196H175.443V127.935H171.292ZM177.422 136.342L178.647 133.018L178.664 134.003L175.891 127.196H176.806L179.081 132.889H178.705L180.804 127.196H181.684L178.283 136.342H177.422ZM181.646 134.753L181.699 134.325C181.855 134.337 181.968 134.306 182.039 134.232C182.109 134.157 182.152 134.058 182.168 133.933C182.183 133.808 182.187 133.673 182.179 133.528H181.646V132.291H182.648V133.763C182.648 134.122 182.556 134.392 182.373 134.572C182.193 134.751 181.951 134.812 181.646 134.753ZM189.036 133.704C188.56 133.704 188.159 133.618 187.835 133.446C187.514 133.274 187.274 133.045 187.114 132.76C186.953 132.475 186.873 132.164 186.873 131.828C186.873 131.484 186.942 131.191 187.078 130.948C187.219 130.702 187.409 130.501 187.647 130.345C187.889 130.188 188.169 130.069 188.485 129.987C188.806 129.909 189.16 129.84 189.547 129.782C189.937 129.719 190.318 129.667 190.69 129.624C191.065 129.577 191.393 129.532 191.675 129.489L191.37 129.676C191.382 129.051 191.26 128.588 191.006 128.287C190.752 127.986 190.311 127.835 189.681 127.835C189.248 127.835 188.88 127.933 188.579 128.129C188.282 128.324 188.073 128.633 187.952 129.055L187.114 128.809C187.258 128.242 187.549 127.802 187.987 127.49C188.425 127.177 188.993 127.021 189.693 127.021C190.272 127.021 190.762 127.13 191.165 127.349C191.571 127.564 191.858 127.876 192.026 128.287C192.105 128.471 192.155 128.676 192.179 128.902C192.202 129.129 192.214 129.36 192.214 129.594V133.528H191.446V131.939L191.669 132.033C191.454 132.576 191.12 132.991 190.666 133.276C190.213 133.561 189.67 133.704 189.036 133.704ZM189.136 132.959C189.539 132.959 189.89 132.887 190.191 132.742C190.492 132.598 190.735 132.4 190.918 132.15C191.102 131.896 191.221 131.611 191.276 131.294C191.323 131.091 191.348 130.868 191.352 130.626C191.356 130.38 191.358 130.196 191.358 130.075L191.686 130.245C191.393 130.284 191.075 130.323 190.731 130.362C190.391 130.401 190.055 130.446 189.722 130.497C189.394 130.548 189.097 130.608 188.831 130.679C188.651 130.73 188.478 130.802 188.309 130.896C188.141 130.986 188.003 131.107 187.893 131.259C187.788 131.412 187.735 131.601 187.735 131.828C187.735 132.012 187.78 132.189 187.87 132.361C187.964 132.533 188.112 132.676 188.315 132.789C188.523 132.903 188.796 132.959 189.136 132.959ZM198.313 133.528V130.298C198.313 129.946 198.28 129.624 198.213 129.33C198.147 129.033 198.04 128.775 197.891 128.557C197.746 128.334 197.557 128.162 197.322 128.041C197.092 127.919 196.81 127.859 196.478 127.859C196.173 127.859 195.904 127.912 195.669 128.017C195.438 128.123 195.243 128.275 195.083 128.474C194.926 128.67 194.807 128.908 194.725 129.19C194.643 129.471 194.602 129.792 194.602 130.151L193.992 130.016C193.992 129.368 194.106 128.822 194.332 128.381C194.559 127.939 194.872 127.605 195.27 127.378C195.669 127.151 196.126 127.038 196.642 127.038C197.021 127.038 197.352 127.097 197.633 127.214C197.918 127.331 198.159 127.49 198.354 127.689C198.554 127.888 198.714 128.117 198.835 128.375C198.956 128.629 199.044 128.9 199.099 129.19C199.153 129.475 199.181 129.76 199.181 130.046V133.528H198.313ZM193.734 133.528V127.196H194.514V128.756H194.602V133.528H193.734ZM203.124 133.704C202.534 133.704 202.03 133.557 201.612 133.264C201.194 132.967 200.873 132.567 200.65 132.062C200.427 131.558 200.316 130.99 200.316 130.356C200.316 129.727 200.426 129.16 200.644 128.656C200.867 128.152 201.186 127.753 201.6 127.46C202.014 127.167 202.511 127.021 203.089 127.021C203.683 127.021 204.183 127.165 204.59 127.454C204.996 127.744 205.303 128.14 205.51 128.644C205.721 129.145 205.827 129.715 205.827 130.356C205.827 130.986 205.723 131.554 205.516 132.062C205.309 132.567 205.004 132.967 204.602 133.264C204.199 133.557 203.707 133.704 203.124 133.704ZM203.212 132.901C203.662 132.901 204.033 132.791 204.326 132.572C204.619 132.354 204.838 132.053 204.983 131.67C205.127 131.283 205.2 130.845 205.2 130.356C205.2 129.86 205.127 129.422 204.983 129.043C204.838 128.66 204.619 128.361 204.326 128.146C204.037 127.931 203.671 127.824 203.23 127.824C202.776 127.824 202.401 127.935 202.104 128.158C201.807 128.381 201.586 128.684 201.442 129.067C201.301 129.45 201.231 129.88 201.231 130.356C201.231 130.837 201.303 131.271 201.448 131.658C201.596 132.041 201.817 132.344 202.11 132.567C202.403 132.789 202.771 132.901 203.212 132.901ZM205.2 133.528V128.762H205.106V125.086H205.974V133.528H205.2ZM31.1707 149.528L31.1766 145.371C31.1766 144.883 31.0398 144.5 30.7662 144.222C30.4965 143.941 30.1526 143.8 29.7344 143.8C29.496 143.8 29.2634 143.855 29.0367 143.964C28.81 144.074 28.6224 144.25 28.4739 144.492C28.3293 144.734 28.257 145.051 28.257 145.442L27.7469 145.295C27.7352 144.842 27.8231 144.445 28.0107 144.105C28.2023 143.765 28.4641 143.501 28.7963 143.314C29.1325 143.122 29.5116 143.026 29.9337 143.026C30.5708 143.026 31.0808 143.224 31.4639 143.618C31.8469 144.009 32.0384 144.539 32.0384 145.207L32.0325 149.528H31.1707ZM23.6137 149.528V143.196H24.3876V144.756H24.4814V149.528H23.6137ZM27.401 149.528L27.4069 145.43C27.4069 144.926 27.272 144.529 27.0024 144.24C26.7366 143.947 26.3848 143.8 25.9471 143.8C25.5093 143.8 25.1556 143.951 24.8859 144.252C24.6163 144.549 24.4814 144.945 24.4814 145.442L23.9655 145.16C23.9655 144.754 24.0613 144.39 24.2528 144.07C24.4443 143.746 24.7062 143.491 25.0384 143.308C25.3706 143.12 25.7478 143.026 26.1699 143.026C26.5724 143.026 26.9301 143.112 27.2427 143.284C27.5593 143.456 27.8075 143.706 27.9873 144.035C28.1671 144.363 28.257 144.762 28.257 145.231L28.2511 149.528H27.401ZM36.1684 149.704C35.5391 149.704 35.0017 149.561 34.5561 149.276C34.1106 148.991 33.7686 148.596 33.5302 148.092C33.2918 147.588 33.1726 147.009 33.1726 146.356C33.1726 145.692 33.2937 145.11 33.536 144.609C33.7784 144.109 34.1223 143.72 34.5679 143.443C35.0173 143.161 35.5508 143.021 36.1684 143.021C36.8016 143.021 37.3409 143.163 37.7865 143.448C38.236 143.73 38.5779 144.123 38.8125 144.627C39.0509 145.127 39.1701 145.704 39.1701 146.356C39.1701 147.021 39.0509 147.605 38.8125 148.109C38.574 148.61 38.2301 149 37.7806 149.282C37.3311 149.563 36.7937 149.704 36.1684 149.704ZM36.1684 148.877C36.8719 148.877 37.3956 148.645 37.7396 148.18C38.0835 147.711 38.2555 147.103 38.2555 146.356C38.2555 145.59 38.0816 144.981 37.7337 144.527C37.3898 144.074 36.868 143.847 36.1684 143.847C35.6955 143.847 35.3046 143.955 34.9959 144.17C34.691 144.381 34.4623 144.676 34.3099 145.055C34.1614 145.43 34.0871 145.864 34.0871 146.356C34.0871 147.119 34.263 147.73 34.6148 148.191C34.9665 148.649 35.4844 148.877 36.1684 148.877ZM42.9198 149.704C42.3296 149.704 41.8254 149.557 41.4072 149.264C40.989 148.967 40.6685 148.567 40.4458 148.062C40.223 147.558 40.1116 146.99 40.1116 146.356C40.1116 145.727 40.221 145.16 40.4399 144.656C40.6627 144.152 40.9812 143.753 41.3955 143.46C41.8098 143.167 42.3062 143.021 42.8846 143.021C43.4787 143.021 43.979 143.165 44.3855 143.454C44.792 143.744 45.0988 144.14 45.3059 144.644C45.517 145.145 45.6225 145.715 45.6225 146.356C45.6225 146.986 45.5189 147.554 45.3118 148.062C45.1046 148.567 44.7998 148.967 44.3972 149.264C43.9946 149.557 43.5022 149.704 42.9198 149.704ZM43.0077 148.901C43.4572 148.901 43.8285 148.791 44.1217 148.572C44.4148 148.354 44.6337 148.053 44.7783 147.67C44.9229 147.283 44.9952 146.845 44.9952 146.356C44.9952 145.86 44.9229 145.422 44.7783 145.043C44.6337 144.66 44.4148 144.361 44.1217 144.146C43.8324 143.931 43.467 143.824 43.0253 143.824C42.572 143.824 42.1967 143.935 41.8997 144.158C41.6027 144.381 41.3818 144.684 41.2372 145.067C41.0965 145.45 41.0262 145.88 41.0262 146.356C41.0262 146.837 41.0985 147.271 41.2431 147.658C41.3916 148.041 41.6124 148.344 41.9056 148.567C42.1987 148.789 42.5661 148.901 43.0077 148.901ZM44.9952 149.528V144.762H44.9014V141.086H45.7691V149.528H44.9952ZM50.0931 149.704C49.4755 149.704 48.9401 149.567 48.4867 149.294C48.0372 149.02 47.6874 148.635 47.4373 148.139C47.1871 147.642 47.0621 147.06 47.0621 146.392C47.0621 145.7 47.1852 145.102 47.4314 144.598C47.6776 144.093 48.0235 143.704 48.4691 143.431C48.9186 143.157 49.4482 143.021 50.0579 143.021C50.6832 143.021 51.2167 143.165 51.6584 143.454C52.1001 143.74 52.4342 144.15 52.6609 144.686C52.8876 145.221 52.9912 145.86 52.9716 146.603H52.0922V146.298C52.0766 145.477 51.8988 144.857 51.5587 144.439C51.2226 144.021 50.7301 143.812 50.0813 143.812C49.4013 143.812 48.8795 144.033 48.516 144.474C48.1564 144.916 47.9766 145.545 47.9766 146.362C47.9766 147.16 48.1564 147.779 48.516 148.221C48.8795 148.658 49.3935 148.877 50.0579 148.877C50.5113 148.877 50.906 148.774 51.2421 148.567C51.5822 148.356 51.8499 148.053 52.0453 147.658L52.8485 147.969C52.5984 148.52 52.229 148.948 51.7405 149.253C51.2558 149.553 50.7067 149.704 50.0931 149.704ZM47.6718 146.603V145.881H52.5085V146.603H47.6718ZM54.2727 149.528V143.196H55.0466V144.721L54.8941 144.521C54.9645 144.334 55.0563 144.162 55.1697 144.005C55.283 143.845 55.4061 143.714 55.539 143.613C55.7032 143.468 55.8947 143.359 56.1136 143.284C56.3324 143.206 56.5533 143.161 56.7761 143.149C56.9988 143.134 57.2021 143.149 57.3858 143.196V144.005C57.1552 143.947 56.9031 143.933 56.6295 143.964C56.3559 143.996 56.1038 144.105 55.8732 144.293C55.6621 144.457 55.5039 144.654 55.3983 144.885C55.2928 145.112 55.2224 145.354 55.1873 145.612C55.1521 145.866 55.1345 146.118 55.1345 146.368V149.528H54.2727ZM63.0708 149.528V146.298C63.0708 145.946 63.0376 145.624 62.9712 145.33C62.9047 145.033 62.7972 144.775 62.6487 144.557C62.5041 144.334 62.3145 144.162 62.08 144.041C61.8494 143.919 61.568 143.859 61.2358 143.859C60.931 143.859 60.6613 143.912 60.4268 144.017C60.1962 144.123 60.0007 144.275 59.8405 144.474C59.6842 144.67 59.565 144.908 59.4829 145.19C59.4008 145.471 59.3598 145.792 59.3598 146.151L58.75 146.016C58.75 145.368 58.8634 144.822 59.0901 144.381C59.3168 143.939 59.6294 143.605 60.0281 143.378C60.4268 143.151 60.8841 143.038 61.4 143.038C61.7791 143.038 62.1094 143.097 62.3908 143.214C62.6761 143.331 62.9164 143.49 63.1119 143.689C63.3112 143.888 63.4714 144.117 63.5926 144.375C63.7138 144.629 63.8017 144.9 63.8564 145.19C63.9111 145.475 63.9385 145.76 63.9385 146.046V149.528H63.0708ZM58.4921 149.528V143.196H59.2718V144.756H59.3598V149.528H58.4921ZM69.6188 149.704C69.142 149.704 68.7413 149.618 68.4169 149.446C68.0965 149.274 67.8561 149.045 67.6958 148.76C67.5356 148.475 67.4555 148.164 67.4555 147.828C67.4555 147.484 67.5239 147.191 67.6607 146.948C67.8014 146.702 67.9909 146.501 68.2293 146.345C68.4717 146.188 68.7511 146.069 69.0677 145.987C69.3882 145.909 69.7419 145.84 70.1288 145.782C70.5197 145.719 70.9008 145.667 71.2721 145.624C71.6473 145.577 71.9756 145.532 72.257 145.489L71.9521 145.676C71.9639 145.051 71.8427 144.588 71.5887 144.287C71.3346 143.986 70.893 143.835 70.2637 143.835C69.8299 143.835 69.4625 143.933 69.1615 144.129C68.8645 144.324 68.6554 144.633 68.5342 145.055L67.6958 144.809C67.8405 144.242 68.1316 143.802 68.5694 143.49C69.0071 143.177 69.5758 143.021 70.2754 143.021C70.8539 143.021 71.3444 143.13 71.7469 143.349C72.1534 143.564 72.4407 143.876 72.6088 144.287C72.6869 144.471 72.7377 144.676 72.7612 144.902C72.7846 145.129 72.7964 145.36 72.7964 145.594V149.528H72.0284V147.939L72.2511 148.033C72.0362 148.576 71.702 148.991 71.2486 149.276C70.7952 149.561 70.252 149.704 69.6188 149.704ZM69.7185 148.959C70.121 148.959 70.4728 148.887 70.7737 148.742C71.0747 148.598 71.317 148.4 71.5007 148.15C71.6844 147.896 71.8036 147.611 71.8583 147.294C71.9052 147.091 71.9306 146.868 71.9346 146.626C71.9385 146.38 71.9404 146.196 71.9404 146.075L72.2687 146.245C71.9756 146.284 71.6571 146.323 71.3131 146.362C70.9731 146.401 70.6369 146.446 70.3047 146.497C69.9764 146.548 69.6794 146.608 69.4136 146.679C69.2338 146.73 69.0599 146.802 68.8918 146.896C68.7238 146.986 68.585 147.107 68.4756 147.259C68.37 147.412 68.3173 147.601 68.3173 147.828C68.3173 148.012 68.3622 148.189 68.4521 148.361C68.5459 148.533 68.6944 148.676 68.8977 148.789C69.1048 148.903 69.3784 148.959 69.7185 148.959ZM77.0018 149.704C76.3843 149.704 75.8488 149.567 75.3955 149.294C74.946 149.02 74.5962 148.635 74.346 148.139C74.0959 147.642 73.9708 147.06 73.9708 146.392C73.9708 145.7 74.0939 145.102 74.3402 144.598C74.5864 144.093 74.9323 143.704 75.3779 143.431C75.8273 143.157 76.3569 143.021 76.9667 143.021C77.592 143.021 78.1255 143.165 78.5672 143.454C79.0088 143.74 79.343 144.15 79.5697 144.686C79.7964 145.221 79.8999 145.86 79.8804 146.603H79.001V146.298C78.9854 145.477 78.8075 144.857 78.4675 144.439C78.1314 144.021 77.6389 143.812 76.9901 143.812C76.31 143.812 75.7883 144.033 75.4248 144.474C75.0652 144.916 74.8854 145.545 74.8854 146.362C74.8854 147.16 75.0652 147.779 75.4248 148.221C75.7883 148.658 76.3022 148.877 76.9667 148.877C77.42 148.877 77.8148 148.774 78.1509 148.567C78.4909 148.356 78.7587 148.053 78.9541 147.658L79.7573 147.969C79.5071 148.52 79.1378 148.948 78.6492 149.253C78.1646 149.553 77.6155 149.704 77.0018 149.704ZM74.5805 146.603V145.881H79.4173V146.603H74.5805ZM83.5441 149.698C82.8015 149.698 82.1898 149.538 81.7091 149.217C81.2323 148.897 80.9391 148.451 80.8297 147.881L81.7091 147.734C81.8029 148.094 82.0159 148.381 82.3481 148.596C82.6843 148.807 83.0986 148.912 83.591 148.912C84.0718 148.912 84.4509 148.813 84.7284 148.613C85.0059 148.41 85.1446 148.135 85.1446 147.787C85.1446 147.591 85.0997 147.433 85.0098 147.312C84.9238 147.187 84.746 147.072 84.4763 146.966C84.2066 146.861 83.804 146.735 83.2686 146.591C82.694 146.435 82.2446 146.278 81.9202 146.122C81.5958 145.966 81.3652 145.786 81.2284 145.582C81.0916 145.375 81.0232 145.123 81.0232 144.826C81.0232 144.467 81.1248 144.152 81.328 143.882C81.5313 143.609 81.8127 143.398 82.1723 143.249C82.5318 143.097 82.95 143.021 83.4269 143.021C83.9037 143.021 84.3297 143.099 84.7049 143.255C85.084 143.407 85.3889 143.622 85.6195 143.9C85.8501 144.177 85.9869 144.5 86.0299 144.867L85.1505 145.026C85.0919 144.654 84.9062 144.361 84.5935 144.146C84.2848 143.927 83.892 143.814 83.4151 143.806C82.9657 143.794 82.6002 143.88 82.3188 144.064C82.0374 144.244 81.8967 144.484 81.8967 144.785C81.8967 144.953 81.9475 145.098 82.0491 145.219C82.1508 145.336 82.3345 145.448 82.6002 145.553C82.8699 145.659 83.2529 145.774 83.7493 145.899C84.3317 146.048 84.789 146.204 85.1212 146.368C85.4534 146.532 85.6899 146.726 85.8306 146.948C85.9713 147.171 86.0416 147.447 86.0416 147.775C86.0416 148.373 85.8188 148.844 85.3733 149.188C84.9316 149.528 84.3219 149.698 83.5441 149.698ZM90.7891 149.528C90.4334 149.602 90.0817 149.632 89.7338 149.616C89.3899 149.6 89.0811 149.526 88.8075 149.393C88.5378 149.26 88.3326 149.053 88.1919 148.772C88.0786 148.537 88.0161 148.301 88.0043 148.062C87.9965 147.82 87.9926 147.545 87.9926 147.236V141.438H88.8486V147.201C88.8486 147.466 88.8505 147.689 88.8544 147.869C88.8622 148.045 88.9033 148.201 88.9775 148.338C89.1182 148.6 89.341 148.756 89.6459 148.807C89.9547 148.858 90.3357 148.846 90.7891 148.772V149.528ZM86.6383 143.935V143.196H90.7891V143.935H86.6383ZM96.6095 149.528V146.298C96.6095 145.946 96.5762 145.624 96.5098 145.33C96.4434 145.033 96.3359 144.775 96.1873 144.557C96.0427 144.334 95.8532 144.162 95.6187 144.041C95.3881 143.919 95.1067 143.859 94.7744 143.859C94.4696 143.859 94.1999 143.912 93.9654 144.017C93.7348 144.123 93.5394 144.275 93.3791 144.474C93.2228 144.67 93.1036 144.908 93.0215 145.19C92.9394 145.471 92.8984 145.792 92.8984 146.151L92.2887 146.016C92.2887 145.368 92.402 144.822 92.6287 144.381C92.8554 143.939 93.1681 143.605 93.5667 143.378C93.9654 143.151 94.4227 143.038 94.9386 143.038C95.3177 143.038 95.648 143.097 95.9294 143.214C96.2147 143.331 96.4551 143.49 96.6505 143.689C96.8498 143.888 97.0101 144.117 97.1312 144.375C97.2524 144.629 97.3403 144.9 97.3951 145.19C97.4498 145.475 97.4771 145.76 97.4771 146.046V149.528H96.6095ZM92.0307 149.528V141.086H92.8104V145.852H92.8984V149.528H92.0307ZM101.678 149.704C101.06 149.704 100.525 149.567 100.071 149.294C99.6219 149.02 99.2721 148.635 99.0219 148.139C98.7718 147.642 98.6467 147.06 98.6467 146.392C98.6467 145.7 98.7698 145.102 99.0161 144.598C99.2623 144.093 99.6082 143.704 100.054 143.431C100.503 143.157 101.033 143.021 101.643 143.021C102.268 143.021 102.801 143.165 103.243 143.454C103.685 143.74 104.019 144.15 104.246 144.686C104.472 145.221 104.576 145.86 104.556 146.603H103.677V146.298C103.661 145.477 103.483 144.857 103.143 144.439C102.807 144.021 102.315 143.812 101.666 143.812C100.986 143.812 100.464 144.033 100.101 144.474C99.7411 144.916 99.5613 145.545 99.5613 146.362C99.5613 147.16 99.7411 147.779 100.101 148.221C100.464 148.658 100.978 148.877 101.643 148.877C102.096 148.877 102.491 148.774 102.827 148.567C103.167 148.356 103.435 148.053 103.63 147.658L104.433 147.969C104.183 148.52 103.814 148.948 103.325 149.253C102.841 149.553 102.291 149.704 101.678 149.704ZM99.2565 146.603V145.881H104.093V146.603H99.2565ZM109.305 149.528C108.949 149.602 108.597 149.632 108.249 149.616C107.905 149.6 107.597 149.526 107.323 149.393C107.053 149.26 106.848 149.053 106.707 148.772C106.594 148.537 106.532 148.301 106.52 148.062C106.512 147.82 106.508 147.545 106.508 147.236V141.438H107.364V147.201C107.364 147.466 107.366 147.689 107.37 147.869C107.378 148.045 107.419 148.201 107.493 148.338C107.634 148.6 107.857 148.756 108.161 148.807C108.47 148.858 108.851 148.846 109.305 148.772V149.528ZM105.154 143.935V143.196H109.305V143.935H105.154ZM110.669 141.995V141.027H111.531V141.995H110.669ZM110.669 149.528V143.196H111.531V149.528H110.669ZM115.915 149.704C115.278 149.704 114.739 149.561 114.297 149.276C113.855 148.991 113.519 148.598 113.289 148.098C113.062 147.593 112.945 147.015 112.937 146.362C112.945 145.698 113.066 145.115 113.3 144.615C113.535 144.111 113.873 143.72 114.315 143.443C114.756 143.161 115.292 143.021 115.921 143.021C116.562 143.021 117.119 143.177 117.592 143.49C118.069 143.802 118.395 144.23 118.571 144.773L117.727 145.043C117.578 144.664 117.342 144.371 117.017 144.164C116.697 143.953 116.33 143.847 115.915 143.847C115.45 143.847 115.065 143.955 114.76 144.17C114.455 144.381 114.229 144.676 114.08 145.055C113.932 145.434 113.855 145.87 113.852 146.362C113.859 147.12 114.035 147.73 114.379 148.191C114.723 148.649 115.235 148.877 115.915 148.877C116.345 148.877 116.711 148.78 117.012 148.584C117.316 148.385 117.547 148.096 117.703 147.717L118.571 147.974C118.337 148.537 117.993 148.967 117.539 149.264C117.086 149.557 116.545 149.704 115.915 149.704ZM122.144 149.698C121.401 149.698 120.79 149.538 120.309 149.217C119.832 148.897 119.539 148.451 119.429 147.881L120.309 147.734C120.403 148.094 120.616 148.381 120.948 148.596C121.284 148.807 121.698 148.912 122.191 148.912C122.672 148.912 123.051 148.813 123.328 148.613C123.606 148.41 123.744 148.135 123.744 147.787C123.744 147.591 123.699 147.433 123.61 147.312C123.524 147.187 123.346 147.072 123.076 146.966C122.806 146.861 122.404 146.735 121.868 146.591C121.294 146.435 120.844 146.278 120.52 146.122C120.196 145.966 119.965 145.786 119.828 145.582C119.691 145.375 119.623 145.123 119.623 144.826C119.623 144.467 119.725 144.152 119.928 143.882C120.131 143.609 120.412 143.398 120.772 143.249C121.132 143.097 121.55 143.021 122.027 143.021C122.503 143.021 122.929 143.099 123.305 143.255C123.684 143.407 123.989 143.622 124.219 143.9C124.45 144.177 124.587 144.5 124.63 144.867L123.75 145.026C123.692 144.654 123.506 144.361 123.193 144.146C122.885 143.927 122.492 143.814 122.015 143.806C121.565 143.794 121.2 143.88 120.919 144.064C120.637 144.244 120.496 144.484 120.496 144.785C120.496 144.953 120.547 145.098 120.649 145.219C120.751 145.336 120.934 145.448 121.2 145.553C121.47 145.659 121.853 145.774 122.349 145.899C122.931 146.048 123.389 146.204 123.721 146.368C124.053 146.532 124.29 146.726 124.43 146.948C124.571 147.171 124.641 147.447 124.641 147.775C124.641 148.373 124.419 148.844 123.973 149.188C123.531 149.528 122.922 149.698 122.144 149.698ZM126.106 149.528V148.526H127.108V149.528H126.106ZM129.083 149.528V148.526H130.085V149.528H129.083ZM132.06 149.528V148.526H133.063V149.528H132.06Z" fill="#3D3D3D"/>
</g>
<defs>
<clipPath id="clip0_9098_16199">
<rect width="280" height="185" fill="white"/>
</clipPath>
</defs>
</svg>
