<svg width="704" height="335" viewBox="0 0 704 335" fill="none" xmlns="http://www.w3.org/2000/svg">
<rect width="704" height="335" rx="10" fill="#F6F6F6"/>
<path d="M23.992 34V24.056H20.16V22.48H29.496V24.056H25.664V34H23.992ZM30.9363 23.944V22.32H32.6083V23.944H30.9363ZM30.9363 34V25.36H32.6083V34H30.9363ZM39.9546 34C39.4106 34.1067 38.8773 34.152 38.3546 34.136C37.832 34.12 37.3653 34.0187 36.9546 33.832C36.544 33.6453 36.2346 33.352 36.0266 32.952C35.84 32.5947 35.7386 32.232 35.7226 31.864C35.712 31.4907 35.7066 31.0693 35.7066 30.6V22.96H37.3866V30.52C37.3866 30.8667 37.3893 31.168 37.3946 31.424C37.4053 31.68 37.4613 31.896 37.5626 32.072C37.7546 32.4027 38.0586 32.592 38.4746 32.64C38.896 32.6827 39.3893 32.664 39.9546 32.584V34ZM34.0506 26.704V25.36H39.9546V26.704H34.0506ZM41.9363 34V22.24H43.6083V34H41.9363ZM49.8426 34.24C48.984 34.24 48.2293 34.0533 47.5786 33.68C46.9333 33.3013 46.4293 32.776 46.0666 32.104C45.7093 31.4267 45.5306 30.6427 45.5306 29.752C45.5306 28.808 45.7066 27.9893 46.0586 27.296C46.416 26.6027 46.912 26.0667 47.5466 25.688C48.1813 25.3093 48.92 25.12 49.7626 25.12C50.6426 25.12 51.392 25.3253 52.0106 25.736C52.6293 26.1413 53.0906 26.72 53.3946 27.472C53.704 28.224 53.8266 29.1173 53.7626 30.152H52.0906V29.544C52.08 28.5413 51.888 27.8 51.5146 27.32C51.1466 26.84 50.584 26.6 49.8266 26.6C48.9893 26.6 48.36 26.864 47.9386 27.392C47.5173 27.92 47.3066 28.6827 47.3066 29.68C47.3066 30.6293 47.5173 31.3653 47.9386 31.888C48.36 32.4053 48.968 32.664 49.7626 32.664C50.2853 32.664 50.736 32.5467 51.1146 32.312C51.4986 32.072 51.7973 31.7307 52.0106 31.288L53.6506 31.808C53.3146 32.5813 52.8053 33.1813 52.1226 33.608C51.44 34.0293 50.68 34.24 49.8426 34.24ZM46.7626 30.152V28.848H52.9306V30.152H46.7626Z" fill="#808080"/>
<path d="M59.9846 28.04L58.7686 27.16L59.9846 25.672L58.1206 25.152L58.5846 23.72L60.3846 24.424L60.2886 22.48H61.7926L61.6966 24.424L63.5046 23.72L63.9686 25.152L62.0966 25.672L63.3126 27.16L62.0966 28.04L61.0406 26.44L59.9846 28.04Z" fill="#FF2626"/>
<path d="M23.992 130V120.056H20.16V118.48H29.496V120.056H25.664V130H23.992ZM30.9363 119.944V118.32H32.6083V119.944H30.9363ZM30.9363 130V121.36H32.6083V130H30.9363ZM39.9546 130C39.4106 130.107 38.8773 130.152 38.3546 130.136C37.832 130.12 37.3653 130.019 36.9546 129.832C36.544 129.645 36.2346 129.352 36.0266 128.952C35.84 128.595 35.7386 128.232 35.7226 127.864C35.712 127.491 35.7066 127.069 35.7066 126.6V118.96H37.3866V126.52C37.3866 126.867 37.3893 127.168 37.3946 127.424C37.4053 127.68 37.4613 127.896 37.5626 128.072C37.7546 128.403 38.0586 128.592 38.4746 128.64C38.896 128.683 39.3893 128.664 39.9546 128.584V130ZM34.0506 122.704V121.36H39.9546V122.704H34.0506ZM41.9363 130V118.24H43.6083V130H41.9363ZM49.8426 130.24C48.984 130.24 48.2293 130.053 47.5786 129.68C46.9333 129.301 46.4293 128.776 46.0666 128.104C45.7093 127.427 45.5306 126.643 45.5306 125.752C45.5306 124.808 45.7066 123.989 46.0586 123.296C46.416 122.603 46.912 122.067 47.5466 121.688C48.1813 121.309 48.92 121.12 49.7626 121.12C50.6426 121.12 51.392 121.325 52.0106 121.736C52.6293 122.141 53.0906 122.72 53.3946 123.472C53.704 124.224 53.8266 125.117 53.7626 126.152H52.0906V125.544C52.08 124.541 51.888 123.8 51.5146 123.32C51.1466 122.84 50.584 122.6 49.8266 122.6C48.9893 122.6 48.36 122.864 47.9386 123.392C47.5173 123.92 47.3066 124.683 47.3066 125.68C47.3066 126.629 47.5173 127.365 47.9386 127.888C48.36 128.405 48.968 128.664 49.7626 128.664C50.2853 128.664 50.736 128.547 51.1146 128.312C51.4986 128.072 51.7973 127.731 52.0106 127.288L53.6506 127.808C53.3146 128.581 52.8053 129.181 52.1226 129.608C51.44 130.029 50.68 130.24 49.8426 130.24ZM46.7626 126.152V124.848H52.9306V126.152H46.7626Z" fill="#808080"/>
<path d="M59.9846 124.04L58.7686 123.16L59.9846 121.672L58.1206 121.152L58.5846 119.72L60.3846 120.424L60.2886 118.48H61.7926L61.6966 120.424L63.5046 119.72L63.9686 121.152L62.0966 121.672L63.3126 123.16L62.0966 124.04L61.0406 122.44L59.9846 124.04Z" fill="#FF2626"/>
<path d="M23.992 226V216.056H20.16V214.48H29.496V216.056H25.664V226H23.992ZM30.9363 215.944V214.32H32.6083V215.944H30.9363ZM30.9363 226V217.36H32.6083V226H30.9363ZM39.9546 226C39.4106 226.107 38.8773 226.152 38.3546 226.136C37.832 226.12 37.3653 226.019 36.9546 225.832C36.544 225.645 36.2346 225.352 36.0266 224.952C35.84 224.595 35.7386 224.232 35.7226 223.864C35.712 223.491 35.7066 223.069 35.7066 222.6V214.96H37.3866V222.52C37.3866 222.867 37.3893 223.168 37.3946 223.424C37.4053 223.68 37.4613 223.896 37.5626 224.072C37.7546 224.403 38.0586 224.592 38.4746 224.64C38.896 224.683 39.3893 224.664 39.9546 224.584V226ZM34.0506 218.704V217.36H39.9546V218.704H34.0506ZM41.9363 226V214.24H43.6083V226H41.9363ZM49.8426 226.24C48.984 226.24 48.2293 226.053 47.5786 225.68C46.9333 225.301 46.4293 224.776 46.0666 224.104C45.7093 223.427 45.5306 222.643 45.5306 221.752C45.5306 220.808 45.7066 219.989 46.0586 219.296C46.416 218.603 46.912 218.067 47.5466 217.688C48.1813 217.309 48.92 217.12 49.7626 217.12C50.6426 217.12 51.392 217.325 52.0106 217.736C52.6293 218.141 53.0906 218.72 53.3946 219.472C53.704 220.224 53.8266 221.117 53.7626 222.152H52.0906V221.544C52.08 220.541 51.888 219.8 51.5146 219.32C51.1466 218.84 50.584 218.6 49.8266 218.6C48.9893 218.6 48.36 218.864 47.9386 219.392C47.5173 219.92 47.3066 220.683 47.3066 221.68C47.3066 222.629 47.5173 223.365 47.9386 223.888C48.36 224.405 48.968 224.664 49.7626 224.664C50.2853 224.664 50.736 224.547 51.1146 224.312C51.4986 224.072 51.7973 223.731 52.0106 223.288L53.6506 223.808C53.3146 224.581 52.8053 225.181 52.1226 225.608C51.44 226.029 50.68 226.24 49.8426 226.24ZM46.7626 222.152V220.848H52.9306V222.152H46.7626Z" fill="#808080"/>
<path d="M59.9846 220.04L58.7686 219.16L59.9846 217.672L58.1206 217.152L58.5846 215.72L60.3846 216.424L60.2886 214.48H61.7926L61.6966 216.424L63.5046 215.72L63.9686 217.152L62.0966 217.672L63.3126 219.16L62.0966 220.04L61.0406 218.44L59.9846 220.04Z" fill="#FF2626"/>
<path d="M452.32 34L456.064 22.48H458.472L462.216 34H460.48L457.032 23.488H457.464L454.056 34H452.32ZM454.264 31.4V29.832H460.28V31.4H454.264ZM474.003 34L474.011 28.616C474.011 27.992 473.851 27.5067 473.531 27.16C473.211 26.808 472.79 26.632 472.267 26.632C471.947 26.632 471.654 26.7067 471.387 26.856C471.126 27 470.913 27.2187 470.747 27.512C470.587 27.8 470.507 28.1627 470.507 28.6L469.699 28.192C469.689 27.584 469.817 27.0507 470.083 26.592C470.355 26.1333 470.723 25.7787 471.187 25.528C471.651 25.272 472.171 25.144 472.747 25.144C473.681 25.144 474.403 25.424 474.915 25.984C475.427 26.544 475.683 27.288 475.683 28.216L475.675 34H474.003ZM463.643 34V25.36H465.131V27.856H465.323V34H463.643ZM468.827 34L468.835 28.648C468.835 28.0187 468.675 27.5253 468.355 27.168C468.041 26.8107 467.617 26.632 467.083 26.632C466.555 26.632 466.129 26.8133 465.803 27.176C465.483 27.5387 465.323 28.0133 465.323 28.6L464.523 28.088C464.523 27.5227 464.659 27.0187 464.931 26.576C465.203 26.1333 465.571 25.784 466.035 25.528C466.499 25.272 467.025 25.144 467.611 25.144C468.225 25.144 468.747 25.2747 469.179 25.536C469.611 25.792 469.939 26.152 470.163 26.616C470.393 27.08 470.507 27.6187 470.507 28.232L470.499 34H468.827ZM481.403 34.24C480.539 34.24 479.79 34.0453 479.155 33.656C478.521 33.2667 478.03 32.7307 477.683 32.048C477.342 31.36 477.171 30.568 477.171 29.672C477.171 28.7707 477.347 27.9787 477.699 27.296C478.051 26.608 478.545 26.0747 479.179 25.696C479.814 25.312 480.555 25.12 481.403 25.12C482.267 25.12 483.017 25.3147 483.651 25.704C484.286 26.0933 484.777 26.6293 485.123 27.312C485.47 27.9947 485.643 28.7813 485.643 29.672C485.643 30.5733 485.467 31.368 485.115 32.056C484.769 32.7387 484.278 33.2747 483.643 33.664C483.009 34.048 482.262 34.24 481.403 34.24ZM481.403 32.664C482.23 32.664 482.846 32.3867 483.251 31.832C483.662 31.272 483.867 30.552 483.867 29.672C483.867 28.7707 483.659 28.0507 483.243 27.512C482.833 26.968 482.219 26.696 481.403 26.696C480.843 26.696 480.382 26.824 480.019 27.08C479.657 27.3307 479.387 27.68 479.211 28.128C479.035 28.5707 478.947 29.0853 478.947 29.672C478.947 30.5787 479.155 31.304 479.571 31.848C479.987 32.392 480.598 32.664 481.403 32.664ZM490.657 34.232C490.06 34.232 489.559 34.136 489.153 33.944C488.748 33.752 488.417 33.5013 488.161 33.192C487.911 32.8773 487.719 32.536 487.585 32.168C487.452 31.8 487.361 31.44 487.313 31.088C487.265 30.736 487.241 30.4267 487.241 30.16V25.36H488.937V29.608C488.937 29.944 488.964 30.2907 489.017 30.648C489.076 31 489.183 31.328 489.337 31.632C489.497 31.936 489.719 32.1813 490.001 32.368C490.289 32.5547 490.663 32.648 491.121 32.648C491.42 32.648 491.703 32.6 491.969 32.504C492.236 32.4027 492.468 32.2427 492.665 32.024C492.868 31.8053 493.025 31.5173 493.137 31.16C493.255 30.8027 493.313 30.368 493.313 29.856L494.353 30.248C494.353 31.032 494.207 31.7253 493.913 32.328C493.62 32.9253 493.199 33.392 492.649 33.728C492.1 34.064 491.436 34.232 490.657 34.232ZM493.513 34V31.504H493.313V25.36H495.001V34H493.513ZM503.309 34V29.752C503.309 29.416 503.28 29.072 503.221 28.72C503.168 28.3627 503.061 28.032 502.901 27.728C502.746 27.424 502.525 27.1787 502.237 26.992C501.954 26.8053 501.584 26.712 501.125 26.712C500.826 26.712 500.544 26.7627 500.277 26.864C500.01 26.96 499.776 27.1173 499.573 27.336C499.376 27.5547 499.218 27.8427 499.101 28.2C498.989 28.5573 498.933 28.992 498.933 29.504L497.893 29.112C497.893 28.328 498.04 27.6373 498.333 27.04C498.626 26.4373 499.048 25.968 499.597 25.632C500.146 25.296 500.81 25.128 501.589 25.128C502.186 25.128 502.688 25.224 503.093 25.416C503.498 25.608 503.826 25.8613 504.077 26.176C504.333 26.4853 504.528 26.824 504.661 27.192C504.794 27.56 504.885 27.92 504.933 28.272C504.981 28.624 505.005 28.9333 505.005 29.2V34H503.309ZM497.237 34V25.36H498.733V27.856H498.933V34H497.237ZM512.033 34C511.489 34.1067 510.955 34.152 510.433 34.136C509.91 34.12 509.443 34.0187 509.033 33.832C508.622 33.6453 508.313 33.352 508.105 32.952C507.918 32.5947 507.817 32.232 507.801 31.864C507.79 31.4907 507.785 31.0693 507.785 30.6V22.96H509.465V30.52C509.465 30.8667 509.467 31.168 509.473 31.424C509.483 31.68 509.539 31.896 509.641 32.072C509.833 32.4027 510.137 32.592 510.553 32.64C510.974 32.6827 511.467 32.664 512.033 32.584V34ZM506.129 26.704V25.36H512.033V26.704H506.129Z" fill="#808080"/>
<path d="M518.282 28.04L517.066 27.16L518.282 25.672L516.418 25.152L516.882 23.72L518.682 24.424L518.586 22.48H520.09L519.994 24.424L521.802 23.72L522.266 25.152L520.394 25.672L521.61 27.16L520.394 28.04L519.338 26.44L518.282 28.04Z" fill="#FF2626"/>
<path d="M452.32 130L456.064 118.48H458.472L462.216 130H460.48L457.032 119.488H457.464L454.056 130H452.32ZM454.264 127.4V125.832H460.28V127.4H454.264ZM474.003 130L474.011 124.616C474.011 123.992 473.851 123.507 473.531 123.16C473.211 122.808 472.79 122.632 472.267 122.632C471.947 122.632 471.654 122.707 471.387 122.856C471.126 123 470.913 123.219 470.747 123.512C470.587 123.8 470.507 124.163 470.507 124.6L469.699 124.192C469.689 123.584 469.817 123.051 470.083 122.592C470.355 122.133 470.723 121.779 471.187 121.528C471.651 121.272 472.171 121.144 472.747 121.144C473.681 121.144 474.403 121.424 474.915 121.984C475.427 122.544 475.683 123.288 475.683 124.216L475.675 130H474.003ZM463.643 130V121.36H465.131V123.856H465.323V130H463.643ZM468.827 130L468.835 124.648C468.835 124.019 468.675 123.525 468.355 123.168C468.041 122.811 467.617 122.632 467.083 122.632C466.555 122.632 466.129 122.813 465.803 123.176C465.483 123.539 465.323 124.013 465.323 124.6L464.523 124.088C464.523 123.523 464.659 123.019 464.931 122.576C465.203 122.133 465.571 121.784 466.035 121.528C466.499 121.272 467.025 121.144 467.611 121.144C468.225 121.144 468.747 121.275 469.179 121.536C469.611 121.792 469.939 122.152 470.163 122.616C470.393 123.08 470.507 123.619 470.507 124.232L470.499 130H468.827ZM481.403 130.24C480.539 130.24 479.79 130.045 479.155 129.656C478.521 129.267 478.03 128.731 477.683 128.048C477.342 127.36 477.171 126.568 477.171 125.672C477.171 124.771 477.347 123.979 477.699 123.296C478.051 122.608 478.545 122.075 479.179 121.696C479.814 121.312 480.555 121.12 481.403 121.12C482.267 121.12 483.017 121.315 483.651 121.704C484.286 122.093 484.777 122.629 485.123 123.312C485.47 123.995 485.643 124.781 485.643 125.672C485.643 126.573 485.467 127.368 485.115 128.056C484.769 128.739 484.278 129.275 483.643 129.664C483.009 130.048 482.262 130.24 481.403 130.24ZM481.403 128.664C482.23 128.664 482.846 128.387 483.251 127.832C483.662 127.272 483.867 126.552 483.867 125.672C483.867 124.771 483.659 124.051 483.243 123.512C482.833 122.968 482.219 122.696 481.403 122.696C480.843 122.696 480.382 122.824 480.019 123.08C479.657 123.331 479.387 123.68 479.211 124.128C479.035 124.571 478.947 125.085 478.947 125.672C478.947 126.579 479.155 127.304 479.571 127.848C479.987 128.392 480.598 128.664 481.403 128.664ZM490.657 130.232C490.06 130.232 489.559 130.136 489.153 129.944C488.748 129.752 488.417 129.501 488.161 129.192C487.911 128.877 487.719 128.536 487.585 128.168C487.452 127.8 487.361 127.44 487.313 127.088C487.265 126.736 487.241 126.427 487.241 126.16V121.36H488.937V125.608C488.937 125.944 488.964 126.291 489.017 126.648C489.076 127 489.183 127.328 489.337 127.632C489.497 127.936 489.719 128.181 490.001 128.368C490.289 128.555 490.663 128.648 491.121 128.648C491.42 128.648 491.703 128.6 491.969 128.504C492.236 128.403 492.468 128.243 492.665 128.024C492.868 127.805 493.025 127.517 493.137 127.16C493.255 126.803 493.313 126.368 493.313 125.856L494.353 126.248C494.353 127.032 494.207 127.725 493.913 128.328C493.62 128.925 493.199 129.392 492.649 129.728C492.1 130.064 491.436 130.232 490.657 130.232ZM493.513 130V127.504H493.313V121.36H495.001V130H493.513ZM503.309 130V125.752C503.309 125.416 503.28 125.072 503.221 124.72C503.168 124.363 503.061 124.032 502.901 123.728C502.746 123.424 502.525 123.179 502.237 122.992C501.954 122.805 501.584 122.712 501.125 122.712C500.826 122.712 500.544 122.763 500.277 122.864C500.01 122.96 499.776 123.117 499.573 123.336C499.376 123.555 499.218 123.843 499.101 124.2C498.989 124.557 498.933 124.992 498.933 125.504L497.893 125.112C497.893 124.328 498.04 123.637 498.333 123.04C498.626 122.437 499.048 121.968 499.597 121.632C500.146 121.296 500.81 121.128 501.589 121.128C502.186 121.128 502.688 121.224 503.093 121.416C503.498 121.608 503.826 121.861 504.077 122.176C504.333 122.485 504.528 122.824 504.661 123.192C504.794 123.56 504.885 123.92 504.933 124.272C504.981 124.624 505.005 124.933 505.005 125.2V130H503.309ZM497.237 130V121.36H498.733V123.856H498.933V130H497.237ZM512.033 130C511.489 130.107 510.955 130.152 510.433 130.136C509.91 130.12 509.443 130.019 509.033 129.832C508.622 129.645 508.313 129.352 508.105 128.952C507.918 128.595 507.817 128.232 507.801 127.864C507.79 127.491 507.785 127.069 507.785 126.6V118.96H509.465V126.52C509.465 126.867 509.467 127.168 509.473 127.424C509.483 127.68 509.539 127.896 509.641 128.072C509.833 128.403 510.137 128.592 510.553 128.64C510.974 128.683 511.467 128.664 512.033 128.584V130ZM506.129 122.704V121.36H512.033V122.704H506.129Z" fill="#808080"/>
<path d="M518.282 124.04L517.066 123.16L518.282 121.672L516.418 121.152L516.882 119.72L518.682 120.424L518.586 118.48H520.09L519.994 120.424L521.802 119.72L522.266 121.152L520.394 121.672L521.61 123.16L520.394 124.04L519.338 122.44L518.282 124.04Z" fill="#FF2626"/>
<path d="M452.32 226L456.064 214.48H458.472L462.216 226H460.48L457.032 215.488H457.464L454.056 226H452.32ZM454.264 223.4V221.832H460.28V223.4H454.264ZM474.003 226L474.011 220.616C474.011 219.992 473.851 219.507 473.531 219.16C473.211 218.808 472.79 218.632 472.267 218.632C471.947 218.632 471.654 218.707 471.387 218.856C471.126 219 470.913 219.219 470.747 219.512C470.587 219.8 470.507 220.163 470.507 220.6L469.699 220.192C469.689 219.584 469.817 219.051 470.083 218.592C470.355 218.133 470.723 217.779 471.187 217.528C471.651 217.272 472.171 217.144 472.747 217.144C473.681 217.144 474.403 217.424 474.915 217.984C475.427 218.544 475.683 219.288 475.683 220.216L475.675 226H474.003ZM463.643 226V217.36H465.131V219.856H465.323V226H463.643ZM468.827 226L468.835 220.648C468.835 220.019 468.675 219.525 468.355 219.168C468.041 218.811 467.617 218.632 467.083 218.632C466.555 218.632 466.129 218.813 465.803 219.176C465.483 219.539 465.323 220.013 465.323 220.6L464.523 220.088C464.523 219.523 464.659 219.019 464.931 218.576C465.203 218.133 465.571 217.784 466.035 217.528C466.499 217.272 467.025 217.144 467.611 217.144C468.225 217.144 468.747 217.275 469.179 217.536C469.611 217.792 469.939 218.152 470.163 218.616C470.393 219.08 470.507 219.619 470.507 220.232L470.499 226H468.827ZM481.403 226.24C480.539 226.24 479.79 226.045 479.155 225.656C478.521 225.267 478.03 224.731 477.683 224.048C477.342 223.36 477.171 222.568 477.171 221.672C477.171 220.771 477.347 219.979 477.699 219.296C478.051 218.608 478.545 218.075 479.179 217.696C479.814 217.312 480.555 217.12 481.403 217.12C482.267 217.12 483.017 217.315 483.651 217.704C484.286 218.093 484.777 218.629 485.123 219.312C485.47 219.995 485.643 220.781 485.643 221.672C485.643 222.573 485.467 223.368 485.115 224.056C484.769 224.739 484.278 225.275 483.643 225.664C483.009 226.048 482.262 226.24 481.403 226.24ZM481.403 224.664C482.23 224.664 482.846 224.387 483.251 223.832C483.662 223.272 483.867 222.552 483.867 221.672C483.867 220.771 483.659 220.051 483.243 219.512C482.833 218.968 482.219 218.696 481.403 218.696C480.843 218.696 480.382 218.824 480.019 219.08C479.657 219.331 479.387 219.68 479.211 220.128C479.035 220.571 478.947 221.085 478.947 221.672C478.947 222.579 479.155 223.304 479.571 223.848C479.987 224.392 480.598 224.664 481.403 224.664ZM490.657 226.232C490.06 226.232 489.559 226.136 489.153 225.944C488.748 225.752 488.417 225.501 488.161 225.192C487.911 224.877 487.719 224.536 487.585 224.168C487.452 223.8 487.361 223.44 487.313 223.088C487.265 222.736 487.241 222.427 487.241 222.16V217.36H488.937V221.608C488.937 221.944 488.964 222.291 489.017 222.648C489.076 223 489.183 223.328 489.337 223.632C489.497 223.936 489.719 224.181 490.001 224.368C490.289 224.555 490.663 224.648 491.121 224.648C491.42 224.648 491.703 224.6 491.969 224.504C492.236 224.403 492.468 224.243 492.665 224.024C492.868 223.805 493.025 223.517 493.137 223.16C493.255 222.803 493.313 222.368 493.313 221.856L494.353 222.248C494.353 223.032 494.207 223.725 493.913 224.328C493.62 224.925 493.199 225.392 492.649 225.728C492.1 226.064 491.436 226.232 490.657 226.232ZM493.513 226V223.504H493.313V217.36H495.001V226H493.513ZM503.309 226V221.752C503.309 221.416 503.28 221.072 503.221 220.72C503.168 220.363 503.061 220.032 502.901 219.728C502.746 219.424 502.525 219.179 502.237 218.992C501.954 218.805 501.584 218.712 501.125 218.712C500.826 218.712 500.544 218.763 500.277 218.864C500.01 218.96 499.776 219.117 499.573 219.336C499.376 219.555 499.218 219.843 499.101 220.2C498.989 220.557 498.933 220.992 498.933 221.504L497.893 221.112C497.893 220.328 498.04 219.637 498.333 219.04C498.626 218.437 499.048 217.968 499.597 217.632C500.146 217.296 500.81 217.128 501.589 217.128C502.186 217.128 502.688 217.224 503.093 217.416C503.498 217.608 503.826 217.861 504.077 218.176C504.333 218.485 504.528 218.824 504.661 219.192C504.794 219.56 504.885 219.92 504.933 220.272C504.981 220.624 505.005 220.933 505.005 221.2V226H503.309ZM497.237 226V217.36H498.733V219.856H498.933V226H497.237ZM512.033 226C511.489 226.107 510.955 226.152 510.433 226.136C509.91 226.12 509.443 226.019 509.033 225.832C508.622 225.645 508.313 225.352 508.105 224.952C507.918 224.595 507.817 224.232 507.801 223.864C507.79 223.491 507.785 223.069 507.785 222.6V214.96H509.465V222.52C509.465 222.867 509.467 223.168 509.473 223.424C509.483 223.68 509.539 223.896 509.641 224.072C509.833 224.403 510.137 224.592 510.553 224.64C510.974 224.683 511.467 224.664 512.033 224.584V226ZM506.129 218.704V217.36H512.033V218.704H506.129Z" fill="#808080"/>
<path d="M518.282 220.04L517.066 219.16L518.282 217.672L516.418 217.152L516.882 215.72L518.682 216.424L518.586 214.48H520.09L519.994 216.424L521.802 215.72L522.266 217.152L520.394 217.672L521.61 219.16L520.394 220.04L519.338 218.44L518.282 220.04Z" fill="#FF2626"/>
<path d="M20.5 57C20.5 53.9624 22.9624 51.5 26 51.5H431.5V95.5H26C22.9624 95.5 20.5 93.0376 20.5 90V57Z" fill="white"/>
<path d="M20.5 57C20.5 53.9624 22.9624 51.5 26 51.5H431.5V95.5H26C22.9624 95.5 20.5 93.0376 20.5 90V57Z" stroke="#EEEEEE"/>
<path d="M41.26 80V67.04H42.475L47.569 77.939L52.636 67.04H53.869V79.991H52.609V69.992L47.992 80H47.137L42.529 69.992V80H41.26ZM56.5748 68.435V66.95H57.8978V68.435H56.5748ZM56.5748 80V70.28H57.8978V80H56.5748ZM60.7759 80V66.77H62.0989V80H60.7759ZM68.9101 80.27C67.9621 80.27 67.1401 80.06 66.4441 79.64C65.7541 79.22 65.2171 78.629 64.8331 77.867C64.4491 77.105 64.2571 76.211 64.2571 75.185C64.2571 74.123 64.4461 73.205 64.8241 72.431C65.2021 71.657 65.7331 71.06 66.4171 70.64C67.1071 70.22 67.9201 70.01 68.8561 70.01C69.8161 70.01 70.6351 70.232 71.3131 70.676C71.9911 71.114 72.5041 71.744 72.8521 72.566C73.2001 73.388 73.3591 74.369 73.3291 75.509H71.9791V75.041C71.9551 73.781 71.6821 72.83 71.1601 72.188C70.6441 71.546 69.8881 71.225 68.8921 71.225C67.8481 71.225 67.0471 71.564 66.4891 72.242C65.9371 72.92 65.6611 73.886 65.6611 75.14C65.6611 76.364 65.9371 77.315 66.4891 77.993C67.0471 78.665 67.8361 79.001 68.8561 79.001C69.5521 79.001 70.1581 78.842 70.6741 78.524C71.1961 78.2 71.6071 77.735 71.9071 77.129L73.1401 77.606C72.7561 78.452 72.1891 79.109 71.4391 79.577C70.6951 80.039 69.8521 80.27 68.9101 80.27ZM65.1931 75.509V74.402H72.6181V75.509H65.1931ZM78.9534 80.261C77.8134 80.261 76.8744 80.015 76.1364 79.523C75.4044 79.031 74.9544 78.347 74.7864 77.471L76.1364 77.246C76.2804 77.798 76.6074 78.239 77.1174 78.569C77.6334 78.893 78.2694 79.055 79.0254 79.055C79.7634 79.055 80.3454 78.902 80.7714 78.596C81.1974 78.284 81.4104 77.861 81.4104 77.327C81.4104 77.027 81.3414 76.784 81.2034 76.598C81.0714 76.406 80.7984 76.229 80.3844 76.067C79.9704 75.905 79.3524 75.713 78.5304 75.491C77.6484 75.251 76.9584 75.011 76.4604 74.771C75.9624 74.531 75.6084 74.255 75.3984 73.943C75.1884 73.625 75.0834 73.238 75.0834 72.782C75.0834 72.23 75.2394 71.747 75.5514 71.333C75.8634 70.913 76.2954 70.589 76.8474 70.361C77.3994 70.127 78.0414 70.01 78.7734 70.01C79.5054 70.01 80.1594 70.13 80.7354 70.37C81.3174 70.604 81.7854 70.934 82.1394 71.36C82.4934 71.786 82.7034 72.281 82.7694 72.845L81.4194 73.088C81.3294 72.518 81.0444 72.068 80.5644 71.738C80.0904 71.402 79.4874 71.228 78.7554 71.216C78.0654 71.198 77.5044 71.33 77.0724 71.612C76.6404 71.888 76.4244 72.257 76.4244 72.719C76.4244 72.977 76.5024 73.199 76.6584 73.385C76.8144 73.565 77.0964 73.736 77.5044 73.898C77.9184 74.06 78.5064 74.237 79.2684 74.429C80.1624 74.657 80.8644 74.897 81.3744 75.149C81.8844 75.401 82.2474 75.698 82.4634 76.04C82.6794 76.382 82.7874 76.805 82.7874 77.309C82.7874 78.227 82.4454 78.95 81.7614 79.478C81.0834 80 80.1474 80.261 78.9534 80.261ZM90.0754 80C89.5294 80.114 88.9894 80.159 88.4554 80.135C87.9274 80.111 87.4534 79.997 87.0334 79.793C86.6194 79.589 86.3044 79.271 86.0884 78.839C85.9144 78.479 85.8184 78.116 85.8004 77.75C85.7884 77.378 85.7824 76.955 85.7824 76.481V67.58H87.0964V76.427C87.0964 76.835 87.0994 77.177 87.1054 77.453C87.1174 77.723 87.1804 77.963 87.2944 78.173C87.5104 78.575 87.8524 78.815 88.3204 78.893C88.7944 78.971 89.3794 78.953 90.0754 78.839V80ZM83.7034 71.414V70.28H90.0754V71.414H83.7034ZM95.6979 80.27C94.7319 80.27 93.9069 80.051 93.2229 79.613C92.5389 79.175 92.0139 78.569 91.6479 77.795C91.2819 77.021 91.0989 76.133 91.0989 75.131C91.0989 74.111 91.2849 73.217 91.6569 72.449C92.0289 71.681 92.5569 71.084 93.2409 70.658C93.9309 70.226 94.7499 70.01 95.6979 70.01C96.6699 70.01 97.4979 70.229 98.1819 70.667C98.8719 71.099 99.3969 71.702 99.7569 72.476C100.123 73.244 100.306 74.129 100.306 75.131C100.306 76.151 100.123 77.048 99.7569 77.822C99.3909 78.59 98.8629 79.19 98.1729 79.622C97.4829 80.054 96.6579 80.27 95.6979 80.27ZM95.6979 79.001C96.7779 79.001 97.5819 78.644 98.1099 77.93C98.6379 77.21 98.9019 76.277 98.9019 75.131C98.9019 73.955 98.6349 73.019 98.1009 72.323C97.5729 71.627 96.7719 71.279 95.6979 71.279C94.9719 71.279 94.3719 71.444 93.8979 71.774C93.4299 72.098 93.0789 72.551 92.8449 73.133C92.6169 73.709 92.5029 74.375 92.5029 75.131C92.5029 76.301 92.7729 77.24 93.3129 77.948C93.8529 78.65 94.6479 79.001 95.6979 79.001ZM109.311 80V75.041C109.311 74.501 109.26 74.006 109.158 73.556C109.056 73.1 108.891 72.704 108.663 72.368C108.441 72.026 108.15 71.762 107.79 71.576C107.436 71.39 107.004 71.297 106.494 71.297C106.026 71.297 105.612 71.378 105.252 71.54C104.898 71.702 104.598 71.936 104.352 72.242C104.112 72.542 103.929 72.908 103.803 73.34C103.677 73.772 103.614 74.264 103.614 74.816L102.678 74.609C102.678 73.613 102.852 72.776 103.2 72.098C103.548 71.42 104.028 70.907 104.64 70.559C105.252 70.211 105.954 70.037 106.746 70.037C107.328 70.037 107.835 70.127 108.267 70.307C108.705 70.487 109.074 70.73 109.374 71.036C109.68 71.342 109.926 71.693 110.112 72.089C110.298 72.479 110.433 72.896 110.517 73.34C110.601 73.778 110.643 74.216 110.643 74.654V80H109.311ZM102.282 80V70.28H103.479V72.674H103.614V80H102.282ZM117.039 80.27C116.091 80.27 115.269 80.06 114.573 79.64C113.883 79.22 113.346 78.629 112.962 77.867C112.578 77.105 112.386 76.211 112.386 75.185C112.386 74.123 112.575 73.205 112.953 72.431C113.331 71.657 113.862 71.06 114.546 70.64C115.236 70.22 116.049 70.01 116.985 70.01C117.945 70.01 118.764 70.232 119.442 70.676C120.12 71.114 120.633 71.744 120.981 72.566C121.329 73.388 121.488 74.369 121.458 75.509H120.108V75.041C120.084 73.781 119.811 72.83 119.289 72.188C118.773 71.546 118.017 71.225 117.021 71.225C115.977 71.225 115.176 71.564 114.618 72.242C114.066 72.92 113.79 73.886 113.79 75.14C113.79 76.364 114.066 77.315 114.618 77.993C115.176 78.665 115.965 79.001 116.985 79.001C117.681 79.001 118.287 78.842 118.803 78.524C119.325 78.2 119.736 77.735 120.036 77.129L121.269 77.606C120.885 78.452 120.318 79.109 119.568 79.577C118.824 80.039 117.981 80.27 117.039 80.27ZM113.322 75.509V74.402H120.747V75.509H113.322ZM125.894 79.991L126.938 76.094H123.275L123.608 74.825H127.28L128.045 71.936H124.382L124.724 70.667H128.396L129.359 67.04H130.682L129.701 70.667H132.716L133.679 67.04H135.002L134.021 70.667H137.684L137.342 71.936H133.688L132.905 74.825H136.568L136.226 76.094H132.572L131.528 79.991H130.214L131.249 76.094H128.252L127.208 79.991H125.894ZM128.594 74.825H131.6L132.365 71.936H129.368L128.594 74.825ZM142.29 80V68.516L139.851 69.983V68.498L142.29 67.04H143.631V80H142.29Z" fill="#3D3D3D"/>
<path d="M20.5 153C20.5 149.962 22.9624 147.5 26 147.5H431.5V191.5H26C22.9624 191.5 20.5 189.038 20.5 186V153Z" fill="white"/>
<path d="M20.5 153C20.5 149.962 22.9624 147.5 26 147.5H431.5V191.5H26C22.9624 191.5 20.5 189.038 20.5 186V153Z" stroke="#EEEEEE"/>
<path d="M41.26 176V163.04H42.475L47.569 173.939L52.636 163.04H53.869V175.991H52.609V165.992L47.992 176H47.137L42.529 165.992V176H41.26ZM56.5748 164.435V162.95H57.8978V164.435H56.5748ZM56.5748 176V166.28H57.8978V176H56.5748ZM60.7759 176V162.77H62.0989V176H60.7759ZM68.9101 176.27C67.9621 176.27 67.1401 176.06 66.4441 175.64C65.7541 175.22 65.2171 174.629 64.8331 173.867C64.4491 173.105 64.2571 172.211 64.2571 171.185C64.2571 170.123 64.4461 169.205 64.8241 168.431C65.2021 167.657 65.7331 167.06 66.4171 166.64C67.1071 166.22 67.9201 166.01 68.8561 166.01C69.8161 166.01 70.6351 166.232 71.3131 166.676C71.9911 167.114 72.5041 167.744 72.8521 168.566C73.2001 169.388 73.3591 170.369 73.3291 171.509H71.9791V171.041C71.9551 169.781 71.6821 168.83 71.1601 168.188C70.6441 167.546 69.8881 167.225 68.8921 167.225C67.8481 167.225 67.0471 167.564 66.4891 168.242C65.9371 168.92 65.6611 169.886 65.6611 171.14C65.6611 172.364 65.9371 173.315 66.4891 173.993C67.0471 174.665 67.8361 175.001 68.8561 175.001C69.5521 175.001 70.1581 174.842 70.6741 174.524C71.1961 174.2 71.6071 173.735 71.9071 173.129L73.1401 173.606C72.7561 174.452 72.1891 175.109 71.4391 175.577C70.6951 176.039 69.8521 176.27 68.9101 176.27ZM65.1931 171.509V170.402H72.6181V171.509H65.1931ZM78.9534 176.261C77.8134 176.261 76.8744 176.015 76.1364 175.523C75.4044 175.031 74.9544 174.347 74.7864 173.471L76.1364 173.246C76.2804 173.798 76.6074 174.239 77.1174 174.569C77.6334 174.893 78.2694 175.055 79.0254 175.055C79.7634 175.055 80.3454 174.902 80.7714 174.596C81.1974 174.284 81.4104 173.861 81.4104 173.327C81.4104 173.027 81.3414 172.784 81.2034 172.598C81.0714 172.406 80.7984 172.229 80.3844 172.067C79.9704 171.905 79.3524 171.713 78.5304 171.491C77.6484 171.251 76.9584 171.011 76.4604 170.771C75.9624 170.531 75.6084 170.255 75.3984 169.943C75.1884 169.625 75.0834 169.238 75.0834 168.782C75.0834 168.23 75.2394 167.747 75.5514 167.333C75.8634 166.913 76.2954 166.589 76.8474 166.361C77.3994 166.127 78.0414 166.01 78.7734 166.01C79.5054 166.01 80.1594 166.13 80.7354 166.37C81.3174 166.604 81.7854 166.934 82.1394 167.36C82.4934 167.786 82.7034 168.281 82.7694 168.845L81.4194 169.088C81.3294 168.518 81.0444 168.068 80.5644 167.738C80.0904 167.402 79.4874 167.228 78.7554 167.216C78.0654 167.198 77.5044 167.33 77.0724 167.612C76.6404 167.888 76.4244 168.257 76.4244 168.719C76.4244 168.977 76.5024 169.199 76.6584 169.385C76.8144 169.565 77.0964 169.736 77.5044 169.898C77.9184 170.06 78.5064 170.237 79.2684 170.429C80.1624 170.657 80.8644 170.897 81.3744 171.149C81.8844 171.401 82.2474 171.698 82.4634 172.04C82.6794 172.382 82.7874 172.805 82.7874 173.309C82.7874 174.227 82.4454 174.95 81.7614 175.478C81.0834 176 80.1474 176.261 78.9534 176.261ZM90.0754 176C89.5294 176.114 88.9894 176.159 88.4554 176.135C87.9274 176.111 87.4534 175.997 87.0334 175.793C86.6194 175.589 86.3044 175.271 86.0884 174.839C85.9144 174.479 85.8184 174.116 85.8004 173.75C85.7884 173.378 85.7824 172.955 85.7824 172.481V163.58H87.0964V172.427C87.0964 172.835 87.0994 173.177 87.1054 173.453C87.1174 173.723 87.1804 173.963 87.2944 174.173C87.5104 174.575 87.8524 174.815 88.3204 174.893C88.7944 174.971 89.3794 174.953 90.0754 174.839V176ZM83.7034 167.414V166.28H90.0754V167.414H83.7034ZM95.6979 176.27C94.7319 176.27 93.9069 176.051 93.2229 175.613C92.5389 175.175 92.0139 174.569 91.6479 173.795C91.2819 173.021 91.0989 172.133 91.0989 171.131C91.0989 170.111 91.2849 169.217 91.6569 168.449C92.0289 167.681 92.5569 167.084 93.2409 166.658C93.9309 166.226 94.7499 166.01 95.6979 166.01C96.6699 166.01 97.4979 166.229 98.1819 166.667C98.8719 167.099 99.3969 167.702 99.7569 168.476C100.123 169.244 100.306 170.129 100.306 171.131C100.306 172.151 100.123 173.048 99.7569 173.822C99.3909 174.59 98.8629 175.19 98.1729 175.622C97.4829 176.054 96.6579 176.27 95.6979 176.27ZM95.6979 175.001C96.7779 175.001 97.5819 174.644 98.1099 173.93C98.6379 173.21 98.9019 172.277 98.9019 171.131C98.9019 169.955 98.6349 169.019 98.1009 168.323C97.5729 167.627 96.7719 167.279 95.6979 167.279C94.9719 167.279 94.3719 167.444 93.8979 167.774C93.4299 168.098 93.0789 168.551 92.8449 169.133C92.6169 169.709 92.5029 170.375 92.5029 171.131C92.5029 172.301 92.7729 173.24 93.3129 173.948C93.8529 174.65 94.6479 175.001 95.6979 175.001ZM109.311 176V171.041C109.311 170.501 109.26 170.006 109.158 169.556C109.056 169.1 108.891 168.704 108.663 168.368C108.441 168.026 108.15 167.762 107.79 167.576C107.436 167.39 107.004 167.297 106.494 167.297C106.026 167.297 105.612 167.378 105.252 167.54C104.898 167.702 104.598 167.936 104.352 168.242C104.112 168.542 103.929 168.908 103.803 169.34C103.677 169.772 103.614 170.264 103.614 170.816L102.678 170.609C102.678 169.613 102.852 168.776 103.2 168.098C103.548 167.42 104.028 166.907 104.64 166.559C105.252 166.211 105.954 166.037 106.746 166.037C107.328 166.037 107.835 166.127 108.267 166.307C108.705 166.487 109.074 166.73 109.374 167.036C109.68 167.342 109.926 167.693 110.112 168.089C110.298 168.479 110.433 168.896 110.517 169.34C110.601 169.778 110.643 170.216 110.643 170.654V176H109.311ZM102.282 176V166.28H103.479V168.674H103.614V176H102.282ZM117.039 176.27C116.091 176.27 115.269 176.06 114.573 175.64C113.883 175.22 113.346 174.629 112.962 173.867C112.578 173.105 112.386 172.211 112.386 171.185C112.386 170.123 112.575 169.205 112.953 168.431C113.331 167.657 113.862 167.06 114.546 166.64C115.236 166.22 116.049 166.01 116.985 166.01C117.945 166.01 118.764 166.232 119.442 166.676C120.12 167.114 120.633 167.744 120.981 168.566C121.329 169.388 121.488 170.369 121.458 171.509H120.108V171.041C120.084 169.781 119.811 168.83 119.289 168.188C118.773 167.546 118.017 167.225 117.021 167.225C115.977 167.225 115.176 167.564 114.618 168.242C114.066 168.92 113.79 169.886 113.79 171.14C113.79 172.364 114.066 173.315 114.618 173.993C115.176 174.665 115.965 175.001 116.985 175.001C117.681 175.001 118.287 174.842 118.803 174.524C119.325 174.2 119.736 173.735 120.036 173.129L121.269 173.606C120.885 174.452 120.318 175.109 119.568 175.577C118.824 176.039 117.981 176.27 117.039 176.27ZM113.322 171.509V170.402H120.747V171.509H113.322ZM125.894 175.991L126.938 172.094H123.275L123.608 170.825H127.28L128.045 167.936H124.382L124.724 166.667H128.396L129.359 163.04H130.682L129.701 166.667H132.716L133.679 163.04H135.002L134.021 166.667H137.684L137.342 167.936H133.688L132.905 170.825H136.568L136.226 172.094H132.572L131.528 175.991H130.214L131.249 172.094H128.252L127.208 175.991H125.894ZM128.594 170.825H131.6L132.365 167.936H129.368L128.594 170.825ZM139.671 175.991L139.68 174.785L145.539 169.493C146.043 169.037 146.376 168.605 146.538 168.197C146.706 167.783 146.79 167.351 146.79 166.901C146.79 166.367 146.664 165.884 146.412 165.452C146.16 165.02 145.821 164.678 145.395 164.426C144.969 164.168 144.492 164.039 143.964 164.039C143.412 164.039 142.92 164.171 142.488 164.435C142.056 164.699 141.714 165.047 141.462 165.479C141.216 165.911 141.096 166.382 141.102 166.892H139.752C139.752 166.106 139.938 165.401 140.31 164.777C140.682 164.153 141.186 163.664 141.822 163.31C142.458 162.95 143.178 162.77 143.982 162.77C144.768 162.77 145.473 162.956 146.097 163.328C146.727 163.694 147.222 164.192 147.582 164.822C147.948 165.446 148.131 166.142 148.131 166.91C148.131 167.45 148.065 167.927 147.933 168.341C147.807 168.749 147.606 169.13 147.33 169.484C147.06 169.832 146.715 170.192 146.295 170.564L141.093 175.262L140.886 174.722H148.131V175.991H139.671Z" fill="#3D3D3D"/>
<path d="M20.5 249C20.5 245.962 22.9624 243.5 26 243.5H431.5V287.5H26C22.9624 287.5 20.5 285.038 20.5 282V249Z" fill="white"/>
<path d="M20.5 249C20.5 245.962 22.9624 243.5 26 243.5H431.5V287.5H26C22.9624 287.5 20.5 285.038 20.5 282V249Z" stroke="#EEEEEE"/>
<path d="M41.26 272V259.04H42.475L47.569 269.939L52.636 259.04H53.869V271.991H52.609V261.992L47.992 272H47.137L42.529 261.992V272H41.26ZM56.5748 260.435V258.95H57.8978V260.435H56.5748ZM56.5748 272V262.28H57.8978V272H56.5748ZM60.7759 272V258.77H62.0989V272H60.7759ZM68.9101 272.27C67.9621 272.27 67.1401 272.06 66.4441 271.64C65.7541 271.22 65.2171 270.629 64.8331 269.867C64.4491 269.105 64.2571 268.211 64.2571 267.185C64.2571 266.123 64.4461 265.205 64.8241 264.431C65.2021 263.657 65.7331 263.06 66.4171 262.64C67.1071 262.22 67.9201 262.01 68.8561 262.01C69.8161 262.01 70.6351 262.232 71.3131 262.676C71.9911 263.114 72.5041 263.744 72.8521 264.566C73.2001 265.388 73.3591 266.369 73.3291 267.509H71.9791V267.041C71.9551 265.781 71.6821 264.83 71.1601 264.188C70.6441 263.546 69.8881 263.225 68.8921 263.225C67.8481 263.225 67.0471 263.564 66.4891 264.242C65.9371 264.92 65.6611 265.886 65.6611 267.14C65.6611 268.364 65.9371 269.315 66.4891 269.993C67.0471 270.665 67.8361 271.001 68.8561 271.001C69.5521 271.001 70.1581 270.842 70.6741 270.524C71.1961 270.2 71.6071 269.735 71.9071 269.129L73.1401 269.606C72.7561 270.452 72.1891 271.109 71.4391 271.577C70.6951 272.039 69.8521 272.27 68.9101 272.27ZM65.1931 267.509V266.402H72.6181V267.509H65.1931ZM78.9534 272.261C77.8134 272.261 76.8744 272.015 76.1364 271.523C75.4044 271.031 74.9544 270.347 74.7864 269.471L76.1364 269.246C76.2804 269.798 76.6074 270.239 77.1174 270.569C77.6334 270.893 78.2694 271.055 79.0254 271.055C79.7634 271.055 80.3454 270.902 80.7714 270.596C81.1974 270.284 81.4104 269.861 81.4104 269.327C81.4104 269.027 81.3414 268.784 81.2034 268.598C81.0714 268.406 80.7984 268.229 80.3844 268.067C79.9704 267.905 79.3524 267.713 78.5304 267.491C77.6484 267.251 76.9584 267.011 76.4604 266.771C75.9624 266.531 75.6084 266.255 75.3984 265.943C75.1884 265.625 75.0834 265.238 75.0834 264.782C75.0834 264.23 75.2394 263.747 75.5514 263.333C75.8634 262.913 76.2954 262.589 76.8474 262.361C77.3994 262.127 78.0414 262.01 78.7734 262.01C79.5054 262.01 80.1594 262.13 80.7354 262.37C81.3174 262.604 81.7854 262.934 82.1394 263.36C82.4934 263.786 82.7034 264.281 82.7694 264.845L81.4194 265.088C81.3294 264.518 81.0444 264.068 80.5644 263.738C80.0904 263.402 79.4874 263.228 78.7554 263.216C78.0654 263.198 77.5044 263.33 77.0724 263.612C76.6404 263.888 76.4244 264.257 76.4244 264.719C76.4244 264.977 76.5024 265.199 76.6584 265.385C76.8144 265.565 77.0964 265.736 77.5044 265.898C77.9184 266.06 78.5064 266.237 79.2684 266.429C80.1624 266.657 80.8644 266.897 81.3744 267.149C81.8844 267.401 82.2474 267.698 82.4634 268.04C82.6794 268.382 82.7874 268.805 82.7874 269.309C82.7874 270.227 82.4454 270.95 81.7614 271.478C81.0834 272 80.1474 272.261 78.9534 272.261ZM90.0754 272C89.5294 272.114 88.9894 272.159 88.4554 272.135C87.9274 272.111 87.4534 271.997 87.0334 271.793C86.6194 271.589 86.3044 271.271 86.0884 270.839C85.9144 270.479 85.8184 270.116 85.8004 269.75C85.7884 269.378 85.7824 268.955 85.7824 268.481V259.58H87.0964V268.427C87.0964 268.835 87.0994 269.177 87.1054 269.453C87.1174 269.723 87.1804 269.963 87.2944 270.173C87.5104 270.575 87.8524 270.815 88.3204 270.893C88.7944 270.971 89.3794 270.953 90.0754 270.839V272ZM83.7034 263.414V262.28H90.0754V263.414H83.7034ZM95.6979 272.27C94.7319 272.27 93.9069 272.051 93.2229 271.613C92.5389 271.175 92.0139 270.569 91.6479 269.795C91.2819 269.021 91.0989 268.133 91.0989 267.131C91.0989 266.111 91.2849 265.217 91.6569 264.449C92.0289 263.681 92.5569 263.084 93.2409 262.658C93.9309 262.226 94.7499 262.01 95.6979 262.01C96.6699 262.01 97.4979 262.229 98.1819 262.667C98.8719 263.099 99.3969 263.702 99.7569 264.476C100.123 265.244 100.306 266.129 100.306 267.131C100.306 268.151 100.123 269.048 99.7569 269.822C99.3909 270.59 98.8629 271.19 98.1729 271.622C97.4829 272.054 96.6579 272.27 95.6979 272.27ZM95.6979 271.001C96.7779 271.001 97.5819 270.644 98.1099 269.93C98.6379 269.21 98.9019 268.277 98.9019 267.131C98.9019 265.955 98.6349 265.019 98.1009 264.323C97.5729 263.627 96.7719 263.279 95.6979 263.279C94.9719 263.279 94.3719 263.444 93.8979 263.774C93.4299 264.098 93.0789 264.551 92.8449 265.133C92.6169 265.709 92.5029 266.375 92.5029 267.131C92.5029 268.301 92.7729 269.24 93.3129 269.948C93.8529 270.65 94.6479 271.001 95.6979 271.001ZM109.311 272V267.041C109.311 266.501 109.26 266.006 109.158 265.556C109.056 265.1 108.891 264.704 108.663 264.368C108.441 264.026 108.15 263.762 107.79 263.576C107.436 263.39 107.004 263.297 106.494 263.297C106.026 263.297 105.612 263.378 105.252 263.54C104.898 263.702 104.598 263.936 104.352 264.242C104.112 264.542 103.929 264.908 103.803 265.34C103.677 265.772 103.614 266.264 103.614 266.816L102.678 266.609C102.678 265.613 102.852 264.776 103.2 264.098C103.548 263.42 104.028 262.907 104.64 262.559C105.252 262.211 105.954 262.037 106.746 262.037C107.328 262.037 107.835 262.127 108.267 262.307C108.705 262.487 109.074 262.73 109.374 263.036C109.68 263.342 109.926 263.693 110.112 264.089C110.298 264.479 110.433 264.896 110.517 265.34C110.601 265.778 110.643 266.216 110.643 266.654V272H109.311ZM102.282 272V262.28H103.479V264.674H103.614V272H102.282ZM117.039 272.27C116.091 272.27 115.269 272.06 114.573 271.64C113.883 271.22 113.346 270.629 112.962 269.867C112.578 269.105 112.386 268.211 112.386 267.185C112.386 266.123 112.575 265.205 112.953 264.431C113.331 263.657 113.862 263.06 114.546 262.64C115.236 262.22 116.049 262.01 116.985 262.01C117.945 262.01 118.764 262.232 119.442 262.676C120.12 263.114 120.633 263.744 120.981 264.566C121.329 265.388 121.488 266.369 121.458 267.509H120.108V267.041C120.084 265.781 119.811 264.83 119.289 264.188C118.773 263.546 118.017 263.225 117.021 263.225C115.977 263.225 115.176 263.564 114.618 264.242C114.066 264.92 113.79 265.886 113.79 267.14C113.79 268.364 114.066 269.315 114.618 269.993C115.176 270.665 115.965 271.001 116.985 271.001C117.681 271.001 118.287 270.842 118.803 270.524C119.325 270.2 119.736 269.735 120.036 269.129L121.269 269.606C120.885 270.452 120.318 271.109 119.568 271.577C118.824 272.039 117.981 272.27 117.039 272.27ZM113.322 267.509V266.402H120.747V267.509H113.322ZM125.894 271.991L126.938 268.094H123.275L123.608 266.825H127.28L128.045 263.936H124.382L124.724 262.667H128.396L129.359 259.04H130.682L129.701 262.667H132.716L133.679 259.04H135.002L134.021 262.667H137.684L137.342 263.936H133.688L132.905 266.825H136.568L136.226 268.094H132.572L131.528 271.991H130.214L131.249 268.094H128.252L127.208 271.991H125.894ZM128.594 266.825H131.6L132.365 263.936H129.368L128.594 266.825ZM143.514 272.261C142.872 272.261 142.281 272.147 141.741 271.919C141.201 271.691 140.736 271.367 140.346 270.947C139.956 270.521 139.671 270.014 139.491 269.426L140.751 269.048C140.967 269.69 141.321 270.176 141.813 270.506C142.311 270.836 142.872 270.995 143.496 270.983C144.072 270.971 144.567 270.842 144.981 270.596C145.401 270.35 145.722 270.008 145.944 269.57C146.166 269.132 146.277 268.625 146.277 268.049C146.277 267.167 146.019 266.459 145.503 265.925C144.993 265.385 144.318 265.115 143.478 265.115C143.244 265.115 142.998 265.148 142.74 265.214C142.482 265.274 142.242 265.361 142.02 265.475L141.354 264.422L146.394 259.769L146.61 260.309H140.004V259.04H147.492V260.327L143.1 264.521L143.082 263.999C143.982 263.885 144.774 263.987 145.458 264.305C146.142 264.623 146.676 265.109 147.06 265.763C147.45 266.411 147.645 267.173 147.645 268.049C147.645 268.877 147.465 269.609 147.105 270.245C146.751 270.875 146.262 271.37 145.638 271.73C145.014 272.084 144.306 272.261 143.514 272.261Z" fill="#3D3D3D"/>
<path d="M452.5 57C452.5 53.9624 454.962 51.5 458 51.5H683.5V95.5H458C454.962 95.5 452.5 93.0376 452.5 90V57Z" fill="white"/>
<path d="M452.5 57C452.5 53.9624 454.962 51.5 458 51.5H683.5V95.5H458C454.962 95.5 452.5 93.0376 452.5 90V57Z" stroke="#EEEEEE"/>
<path d="M476.68 81.773V79.721H478.003V81.773H476.68ZM476.68 67.31V65.249H478.003V67.31H476.68ZM477.499 80.27C476.641 80.27 475.867 80.117 475.177 79.811C474.493 79.505 473.926 79.073 473.476 78.515C473.032 77.957 472.741 77.297 472.603 76.535L473.89 76.31C474.088 77.138 474.514 77.795 475.168 78.281C475.828 78.761 476.623 79.001 477.553 79.001C478.495 79.001 479.257 78.773 479.839 78.317C480.421 77.855 480.712 77.252 480.712 76.508C480.712 75.956 480.55 75.515 480.226 75.185C479.902 74.855 479.353 74.573 478.579 74.339L475.699 73.439C473.959 72.893 473.089 71.861 473.089 70.343C473.089 69.635 473.263 69.014 473.611 68.48C473.965 67.94 474.454 67.52 475.078 67.22C475.708 66.92 476.443 66.773 477.283 66.779C478.105 66.779 478.84 66.935 479.488 67.247C480.142 67.553 480.679 67.988 481.099 68.552C481.519 69.116 481.798 69.785 481.936 70.559L480.613 70.811C480.529 70.259 480.334 69.776 480.028 69.362C479.728 68.948 479.341 68.627 478.867 68.399C478.393 68.165 477.865 68.045 477.283 68.039C476.731 68.039 476.239 68.135 475.807 68.327C475.375 68.519 475.033 68.786 474.781 69.128C474.535 69.464 474.412 69.851 474.412 70.289C474.412 70.769 474.583 71.177 474.925 71.513C475.273 71.843 475.822 72.122 476.572 72.35L479.047 73.097C480.091 73.409 480.844 73.829 481.306 74.357C481.768 74.885 481.999 75.59 481.999 76.472C481.999 77.234 481.813 77.9 481.441 78.47C481.069 79.04 480.544 79.484 479.866 79.802C479.194 80.114 478.405 80.27 477.499 80.27ZM487.685 80.27C487.013 80.27 486.392 80.132 485.822 79.856C485.252 79.58 484.766 79.199 484.364 78.713C483.962 78.227 483.674 77.669 483.5 77.039L484.769 76.697C484.883 77.165 485.09 77.57 485.39 77.912C485.69 78.248 486.041 78.509 486.443 78.695C486.851 78.881 487.277 78.974 487.721 78.974C488.297 78.974 488.813 78.836 489.269 78.56C489.731 78.278 490.097 77.906 490.367 77.444C490.637 76.982 490.772 76.475 490.772 75.923C490.772 75.353 490.631 74.84 490.349 74.384C490.067 73.922 489.695 73.556 489.233 73.286C488.771 73.016 488.267 72.881 487.721 72.881C487.109 72.881 486.581 73.016 486.137 73.286C485.693 73.55 485.339 73.883 485.075 74.285L483.869 73.781L484.265 67.04H491.186V68.309H484.85L485.507 67.688L485.156 73.439L484.823 72.998C485.195 72.572 485.645 72.239 486.173 71.999C486.701 71.759 487.256 71.639 487.838 71.639C488.636 71.639 489.356 71.831 489.998 72.215C490.64 72.593 491.15 73.106 491.528 73.754C491.906 74.402 492.095 75.125 492.095 75.923C492.095 76.715 491.894 77.441 491.492 78.101C491.09 78.755 490.556 79.28 489.89 79.676C489.224 80.072 488.489 80.27 487.685 80.27ZM498.478 80.27C497.68 80.27 496.96 80.084 496.318 79.712C495.682 79.34 495.178 78.836 494.806 78.2C494.434 77.558 494.248 76.838 494.248 76.04V71C494.248 70.202 494.434 69.485 494.806 68.849C495.178 68.207 495.682 67.7 496.318 67.328C496.96 66.956 497.68 66.77 498.478 66.77C499.276 66.77 499.993 66.956 500.629 67.328C501.271 67.7 501.778 68.207 502.15 68.849C502.522 69.485 502.708 70.202 502.708 71V76.04C502.708 76.838 502.522 77.558 502.15 78.2C501.778 78.836 501.271 79.34 500.629 79.712C499.993 80.084 499.276 80.27 498.478 80.27ZM498.478 78.992C499.012 78.992 499.498 78.863 499.936 78.605C500.374 78.341 500.722 77.99 500.98 77.552C501.238 77.114 501.367 76.631 501.367 76.103V70.937C501.367 70.403 501.238 69.917 500.98 69.479C500.722 69.041 500.374 68.693 499.936 68.435C499.498 68.171 499.012 68.039 498.478 68.039C497.944 68.039 497.458 68.171 497.02 68.435C496.582 68.693 496.234 69.041 495.976 69.479C495.718 69.917 495.589 70.403 495.589 70.937V76.103C495.589 76.631 495.718 77.114 495.976 77.552C496.234 77.99 496.582 78.341 497.02 78.605C497.458 78.863 497.944 78.992 498.478 78.992ZM509.465 80.27C508.667 80.27 507.947 80.084 507.305 79.712C506.669 79.34 506.165 78.836 505.793 78.2C505.421 77.558 505.235 76.838 505.235 76.04V71C505.235 70.202 505.421 69.485 505.793 68.849C506.165 68.207 506.669 67.7 507.305 67.328C507.947 66.956 508.667 66.77 509.465 66.77C510.263 66.77 510.98 66.956 511.616 67.328C512.258 67.7 512.765 68.207 513.137 68.849C513.509 69.485 513.695 70.202 513.695 71V76.04C513.695 76.838 513.509 77.558 513.137 78.2C512.765 78.836 512.258 79.34 511.616 79.712C510.98 80.084 510.263 80.27 509.465 80.27ZM509.465 78.992C509.999 78.992 510.485 78.863 510.923 78.605C511.361 78.341 511.709 77.99 511.967 77.552C512.225 77.114 512.354 76.631 512.354 76.103V70.937C512.354 70.403 512.225 69.917 511.967 69.479C511.709 69.041 511.361 68.693 510.923 68.435C510.485 68.171 509.999 68.039 509.465 68.039C508.931 68.039 508.445 68.171 508.007 68.435C507.569 68.693 507.221 69.041 506.963 69.479C506.705 69.917 506.576 70.403 506.576 70.937V76.103C506.576 76.631 506.705 77.114 506.963 77.552C507.221 77.99 507.569 78.341 508.007 78.605C508.445 78.863 508.931 78.992 509.465 78.992ZM516.473 80V78.461H518.012V80H516.473ZM525.021 80.27C524.223 80.27 523.503 80.084 522.861 79.712C522.225 79.34 521.721 78.836 521.349 78.2C520.977 77.558 520.791 76.838 520.791 76.04V71C520.791 70.202 520.977 69.485 521.349 68.849C521.721 68.207 522.225 67.7 522.861 67.328C523.503 66.956 524.223 66.77 525.021 66.77C525.819 66.77 526.536 66.956 527.172 67.328C527.814 67.7 528.321 68.207 528.693 68.849C529.065 69.485 529.251 70.202 529.251 71V76.04C529.251 76.838 529.065 77.558 528.693 78.2C528.321 78.836 527.814 79.34 527.172 79.712C526.536 80.084 525.819 80.27 525.021 80.27ZM525.021 78.992C525.555 78.992 526.041 78.863 526.479 78.605C526.917 78.341 527.265 77.99 527.523 77.552C527.781 77.114 527.91 76.631 527.91 76.103V70.937C527.91 70.403 527.781 69.917 527.523 69.479C527.265 69.041 526.917 68.693 526.479 68.435C526.041 68.171 525.555 68.039 525.021 68.039C524.487 68.039 524.001 68.171 523.563 68.435C523.125 68.693 522.777 69.041 522.519 69.479C522.261 69.917 522.132 70.403 522.132 70.937V76.103C522.132 76.631 522.261 77.114 522.519 77.552C522.777 77.99 523.125 78.341 523.563 78.605C524.001 78.863 524.487 78.992 525.021 78.992ZM536.008 80.27C535.21 80.27 534.49 80.084 533.848 79.712C533.212 79.34 532.708 78.836 532.336 78.2C531.964 77.558 531.778 76.838 531.778 76.04V71C531.778 70.202 531.964 69.485 532.336 68.849C532.708 68.207 533.212 67.7 533.848 67.328C534.49 66.956 535.21 66.77 536.008 66.77C536.806 66.77 537.523 66.956 538.159 67.328C538.801 67.7 539.308 68.207 539.68 68.849C540.052 69.485 540.238 70.202 540.238 71V76.04C540.238 76.838 540.052 77.558 539.68 78.2C539.308 78.836 538.801 79.34 538.159 79.712C537.523 80.084 536.806 80.27 536.008 80.27ZM536.008 78.992C536.542 78.992 537.028 78.863 537.466 78.605C537.904 78.341 538.252 77.99 538.51 77.552C538.768 77.114 538.897 76.631 538.897 76.103V70.937C538.897 70.403 538.768 69.917 538.51 69.479C538.252 69.041 537.904 68.693 537.466 68.435C537.028 68.171 536.542 68.039 536.008 68.039C535.474 68.039 534.988 68.171 534.55 68.435C534.112 68.693 533.764 69.041 533.506 69.479C533.248 69.917 533.119 70.403 533.119 70.937V76.103C533.119 76.631 533.248 77.114 533.506 77.552C533.764 77.99 534.112 78.341 534.55 78.605C534.988 78.863 535.474 78.992 536.008 78.992Z" fill="#3D3D3D"/>
<path d="M452.5 153C452.5 149.962 454.962 147.5 458 147.5H683.5V191.5H458C454.962 191.5 452.5 189.038 452.5 186V153Z" fill="white"/>
<path d="M452.5 153C452.5 149.962 454.962 147.5 458 147.5H683.5V191.5H458C454.962 191.5 452.5 189.038 452.5 186V153Z" stroke="#EEEEEE"/>
<path d="M476.68 177.773V175.721H478.003V177.773H476.68ZM476.68 163.31V161.249H478.003V163.31H476.68ZM477.499 176.27C476.641 176.27 475.867 176.117 475.177 175.811C474.493 175.505 473.926 175.073 473.476 174.515C473.032 173.957 472.741 173.297 472.603 172.535L473.89 172.31C474.088 173.138 474.514 173.795 475.168 174.281C475.828 174.761 476.623 175.001 477.553 175.001C478.495 175.001 479.257 174.773 479.839 174.317C480.421 173.855 480.712 173.252 480.712 172.508C480.712 171.956 480.55 171.515 480.226 171.185C479.902 170.855 479.353 170.573 478.579 170.339L475.699 169.439C473.959 168.893 473.089 167.861 473.089 166.343C473.089 165.635 473.263 165.014 473.611 164.48C473.965 163.94 474.454 163.52 475.078 163.22C475.708 162.92 476.443 162.773 477.283 162.779C478.105 162.779 478.84 162.935 479.488 163.247C480.142 163.553 480.679 163.988 481.099 164.552C481.519 165.116 481.798 165.785 481.936 166.559L480.613 166.811C480.529 166.259 480.334 165.776 480.028 165.362C479.728 164.948 479.341 164.627 478.867 164.399C478.393 164.165 477.865 164.045 477.283 164.039C476.731 164.039 476.239 164.135 475.807 164.327C475.375 164.519 475.033 164.786 474.781 165.128C474.535 165.464 474.412 165.851 474.412 166.289C474.412 166.769 474.583 167.177 474.925 167.513C475.273 167.843 475.822 168.122 476.572 168.35L479.047 169.097C480.091 169.409 480.844 169.829 481.306 170.357C481.768 170.885 481.999 171.59 481.999 172.472C481.999 173.234 481.813 173.9 481.441 174.47C481.069 175.04 480.544 175.484 479.866 175.802C479.194 176.114 478.405 176.27 477.499 176.27ZM487.685 176.27C487.013 176.27 486.392 176.132 485.822 175.856C485.252 175.58 484.766 175.199 484.364 174.713C483.962 174.227 483.674 173.669 483.5 173.039L484.769 172.697C484.883 173.165 485.09 173.57 485.39 173.912C485.69 174.248 486.041 174.509 486.443 174.695C486.851 174.881 487.277 174.974 487.721 174.974C488.297 174.974 488.813 174.836 489.269 174.56C489.731 174.278 490.097 173.906 490.367 173.444C490.637 172.982 490.772 172.475 490.772 171.923C490.772 171.353 490.631 170.84 490.349 170.384C490.067 169.922 489.695 169.556 489.233 169.286C488.771 169.016 488.267 168.881 487.721 168.881C487.109 168.881 486.581 169.016 486.137 169.286C485.693 169.55 485.339 169.883 485.075 170.285L483.869 169.781L484.265 163.04H491.186V164.309H484.85L485.507 163.688L485.156 169.439L484.823 168.998C485.195 168.572 485.645 168.239 486.173 167.999C486.701 167.759 487.256 167.639 487.838 167.639C488.636 167.639 489.356 167.831 489.998 168.215C490.64 168.593 491.15 169.106 491.528 169.754C491.906 170.402 492.095 171.125 492.095 171.923C492.095 172.715 491.894 173.441 491.492 174.101C491.09 174.755 490.556 175.28 489.89 175.676C489.224 176.072 488.489 176.27 487.685 176.27ZM498.478 176.27C497.68 176.27 496.96 176.084 496.318 175.712C495.682 175.34 495.178 174.836 494.806 174.2C494.434 173.558 494.248 172.838 494.248 172.04V167C494.248 166.202 494.434 165.485 494.806 164.849C495.178 164.207 495.682 163.7 496.318 163.328C496.96 162.956 497.68 162.77 498.478 162.77C499.276 162.77 499.993 162.956 500.629 163.328C501.271 163.7 501.778 164.207 502.15 164.849C502.522 165.485 502.708 166.202 502.708 167V172.04C502.708 172.838 502.522 173.558 502.15 174.2C501.778 174.836 501.271 175.34 500.629 175.712C499.993 176.084 499.276 176.27 498.478 176.27ZM498.478 174.992C499.012 174.992 499.498 174.863 499.936 174.605C500.374 174.341 500.722 173.99 500.98 173.552C501.238 173.114 501.367 172.631 501.367 172.103V166.937C501.367 166.403 501.238 165.917 500.98 165.479C500.722 165.041 500.374 164.693 499.936 164.435C499.498 164.171 499.012 164.039 498.478 164.039C497.944 164.039 497.458 164.171 497.02 164.435C496.582 164.693 496.234 165.041 495.976 165.479C495.718 165.917 495.589 166.403 495.589 166.937V172.103C495.589 172.631 495.718 173.114 495.976 173.552C496.234 173.99 496.582 174.341 497.02 174.605C497.458 174.863 497.944 174.992 498.478 174.992ZM509.465 176.27C508.667 176.27 507.947 176.084 507.305 175.712C506.669 175.34 506.165 174.836 505.793 174.2C505.421 173.558 505.235 172.838 505.235 172.04V167C505.235 166.202 505.421 165.485 505.793 164.849C506.165 164.207 506.669 163.7 507.305 163.328C507.947 162.956 508.667 162.77 509.465 162.77C510.263 162.77 510.98 162.956 511.616 163.328C512.258 163.7 512.765 164.207 513.137 164.849C513.509 165.485 513.695 166.202 513.695 167V172.04C513.695 172.838 513.509 173.558 513.137 174.2C512.765 174.836 512.258 175.34 511.616 175.712C510.98 176.084 510.263 176.27 509.465 176.27ZM509.465 174.992C509.999 174.992 510.485 174.863 510.923 174.605C511.361 174.341 511.709 173.99 511.967 173.552C512.225 173.114 512.354 172.631 512.354 172.103V166.937C512.354 166.403 512.225 165.917 511.967 165.479C511.709 165.041 511.361 164.693 510.923 164.435C510.485 164.171 509.999 164.039 509.465 164.039C508.931 164.039 508.445 164.171 508.007 164.435C507.569 164.693 507.221 165.041 506.963 165.479C506.705 165.917 506.576 166.403 506.576 166.937V172.103C506.576 172.631 506.705 173.114 506.963 173.552C507.221 173.99 507.569 174.341 508.007 174.605C508.445 174.863 508.931 174.992 509.465 174.992ZM516.473 176V174.461H518.012V176H516.473ZM525.021 176.27C524.223 176.27 523.503 176.084 522.861 175.712C522.225 175.34 521.721 174.836 521.349 174.2C520.977 173.558 520.791 172.838 520.791 172.04V167C520.791 166.202 520.977 165.485 521.349 164.849C521.721 164.207 522.225 163.7 522.861 163.328C523.503 162.956 524.223 162.77 525.021 162.77C525.819 162.77 526.536 162.956 527.172 163.328C527.814 163.7 528.321 164.207 528.693 164.849C529.065 165.485 529.251 166.202 529.251 167V172.04C529.251 172.838 529.065 173.558 528.693 174.2C528.321 174.836 527.814 175.34 527.172 175.712C526.536 176.084 525.819 176.27 525.021 176.27ZM525.021 174.992C525.555 174.992 526.041 174.863 526.479 174.605C526.917 174.341 527.265 173.99 527.523 173.552C527.781 173.114 527.91 172.631 527.91 172.103V166.937C527.91 166.403 527.781 165.917 527.523 165.479C527.265 165.041 526.917 164.693 526.479 164.435C526.041 164.171 525.555 164.039 525.021 164.039C524.487 164.039 524.001 164.171 523.563 164.435C523.125 164.693 522.777 165.041 522.519 165.479C522.261 165.917 522.132 166.403 522.132 166.937V172.103C522.132 172.631 522.261 173.114 522.519 173.552C522.777 173.99 523.125 174.341 523.563 174.605C524.001 174.863 524.487 174.992 525.021 174.992ZM536.008 176.27C535.21 176.27 534.49 176.084 533.848 175.712C533.212 175.34 532.708 174.836 532.336 174.2C531.964 173.558 531.778 172.838 531.778 172.04V167C531.778 166.202 531.964 165.485 532.336 164.849C532.708 164.207 533.212 163.7 533.848 163.328C534.49 162.956 535.21 162.77 536.008 162.77C536.806 162.77 537.523 162.956 538.159 163.328C538.801 163.7 539.308 164.207 539.68 164.849C540.052 165.485 540.238 166.202 540.238 167V172.04C540.238 172.838 540.052 173.558 539.68 174.2C539.308 174.836 538.801 175.34 538.159 175.712C537.523 176.084 536.806 176.27 536.008 176.27ZM536.008 174.992C536.542 174.992 537.028 174.863 537.466 174.605C537.904 174.341 538.252 173.99 538.51 173.552C538.768 173.114 538.897 172.631 538.897 172.103V166.937C538.897 166.403 538.768 165.917 538.51 165.479C538.252 165.041 537.904 164.693 537.466 164.435C537.028 164.171 536.542 164.039 536.008 164.039C535.474 164.039 534.988 164.171 534.55 164.435C534.112 164.693 533.764 165.041 533.506 165.479C533.248 165.917 533.119 166.403 533.119 166.937V172.103C533.119 172.631 533.248 173.114 533.506 173.552C533.764 173.99 534.112 174.341 534.55 174.605C534.988 174.863 535.474 174.992 536.008 174.992Z" fill="#3D3D3D"/>
<path d="M452.5 249C452.5 245.962 454.962 243.5 458 243.5H683.5V287.5H458C454.962 287.5 452.5 285.038 452.5 282V249Z" fill="white"/>
<path d="M452.5 249C452.5 245.962 454.962 243.5 458 243.5H683.5V287.5H458C454.962 287.5 452.5 285.038 452.5 282V249Z" stroke="#EEEEEE"/>
<path d="M476.68 273.773V271.721H478.003V273.773H476.68ZM476.68 259.31V257.249H478.003V259.31H476.68ZM477.499 272.27C476.641 272.27 475.867 272.117 475.177 271.811C474.493 271.505 473.926 271.073 473.476 270.515C473.032 269.957 472.741 269.297 472.603 268.535L473.89 268.31C474.088 269.138 474.514 269.795 475.168 270.281C475.828 270.761 476.623 271.001 477.553 271.001C478.495 271.001 479.257 270.773 479.839 270.317C480.421 269.855 480.712 269.252 480.712 268.508C480.712 267.956 480.55 267.515 480.226 267.185C479.902 266.855 479.353 266.573 478.579 266.339L475.699 265.439C473.959 264.893 473.089 263.861 473.089 262.343C473.089 261.635 473.263 261.014 473.611 260.48C473.965 259.94 474.454 259.52 475.078 259.22C475.708 258.92 476.443 258.773 477.283 258.779C478.105 258.779 478.84 258.935 479.488 259.247C480.142 259.553 480.679 259.988 481.099 260.552C481.519 261.116 481.798 261.785 481.936 262.559L480.613 262.811C480.529 262.259 480.334 261.776 480.028 261.362C479.728 260.948 479.341 260.627 478.867 260.399C478.393 260.165 477.865 260.045 477.283 260.039C476.731 260.039 476.239 260.135 475.807 260.327C475.375 260.519 475.033 260.786 474.781 261.128C474.535 261.464 474.412 261.851 474.412 262.289C474.412 262.769 474.583 263.177 474.925 263.513C475.273 263.843 475.822 264.122 476.572 264.35L479.047 265.097C480.091 265.409 480.844 265.829 481.306 266.357C481.768 266.885 481.999 267.59 481.999 268.472C481.999 269.234 481.813 269.9 481.441 270.47C481.069 271.04 480.544 271.484 479.866 271.802C479.194 272.114 478.405 272.27 477.499 272.27ZM487.685 272.27C487.013 272.27 486.392 272.132 485.822 271.856C485.252 271.58 484.766 271.199 484.364 270.713C483.962 270.227 483.674 269.669 483.5 269.039L484.769 268.697C484.883 269.165 485.09 269.57 485.39 269.912C485.69 270.248 486.041 270.509 486.443 270.695C486.851 270.881 487.277 270.974 487.721 270.974C488.297 270.974 488.813 270.836 489.269 270.56C489.731 270.278 490.097 269.906 490.367 269.444C490.637 268.982 490.772 268.475 490.772 267.923C490.772 267.353 490.631 266.84 490.349 266.384C490.067 265.922 489.695 265.556 489.233 265.286C488.771 265.016 488.267 264.881 487.721 264.881C487.109 264.881 486.581 265.016 486.137 265.286C485.693 265.55 485.339 265.883 485.075 266.285L483.869 265.781L484.265 259.04H491.186V260.309H484.85L485.507 259.688L485.156 265.439L484.823 264.998C485.195 264.572 485.645 264.239 486.173 263.999C486.701 263.759 487.256 263.639 487.838 263.639C488.636 263.639 489.356 263.831 489.998 264.215C490.64 264.593 491.15 265.106 491.528 265.754C491.906 266.402 492.095 267.125 492.095 267.923C492.095 268.715 491.894 269.441 491.492 270.101C491.09 270.755 490.556 271.28 489.89 271.676C489.224 272.072 488.489 272.27 487.685 272.27ZM498.478 272.27C497.68 272.27 496.96 272.084 496.318 271.712C495.682 271.34 495.178 270.836 494.806 270.2C494.434 269.558 494.248 268.838 494.248 268.04V263C494.248 262.202 494.434 261.485 494.806 260.849C495.178 260.207 495.682 259.7 496.318 259.328C496.96 258.956 497.68 258.77 498.478 258.77C499.276 258.77 499.993 258.956 500.629 259.328C501.271 259.7 501.778 260.207 502.15 260.849C502.522 261.485 502.708 262.202 502.708 263V268.04C502.708 268.838 502.522 269.558 502.15 270.2C501.778 270.836 501.271 271.34 500.629 271.712C499.993 272.084 499.276 272.27 498.478 272.27ZM498.478 270.992C499.012 270.992 499.498 270.863 499.936 270.605C500.374 270.341 500.722 269.99 500.98 269.552C501.238 269.114 501.367 268.631 501.367 268.103V262.937C501.367 262.403 501.238 261.917 500.98 261.479C500.722 261.041 500.374 260.693 499.936 260.435C499.498 260.171 499.012 260.039 498.478 260.039C497.944 260.039 497.458 260.171 497.02 260.435C496.582 260.693 496.234 261.041 495.976 261.479C495.718 261.917 495.589 262.403 495.589 262.937V268.103C495.589 268.631 495.718 269.114 495.976 269.552C496.234 269.99 496.582 270.341 497.02 270.605C497.458 270.863 497.944 270.992 498.478 270.992ZM509.465 272.27C508.667 272.27 507.947 272.084 507.305 271.712C506.669 271.34 506.165 270.836 505.793 270.2C505.421 269.558 505.235 268.838 505.235 268.04V263C505.235 262.202 505.421 261.485 505.793 260.849C506.165 260.207 506.669 259.7 507.305 259.328C507.947 258.956 508.667 258.77 509.465 258.77C510.263 258.77 510.98 258.956 511.616 259.328C512.258 259.7 512.765 260.207 513.137 260.849C513.509 261.485 513.695 262.202 513.695 263V268.04C513.695 268.838 513.509 269.558 513.137 270.2C512.765 270.836 512.258 271.34 511.616 271.712C510.98 272.084 510.263 272.27 509.465 272.27ZM509.465 270.992C509.999 270.992 510.485 270.863 510.923 270.605C511.361 270.341 511.709 269.99 511.967 269.552C512.225 269.114 512.354 268.631 512.354 268.103V262.937C512.354 262.403 512.225 261.917 511.967 261.479C511.709 261.041 511.361 260.693 510.923 260.435C510.485 260.171 509.999 260.039 509.465 260.039C508.931 260.039 508.445 260.171 508.007 260.435C507.569 260.693 507.221 261.041 506.963 261.479C506.705 261.917 506.576 262.403 506.576 262.937V268.103C506.576 268.631 506.705 269.114 506.963 269.552C507.221 269.99 507.569 270.341 508.007 270.605C508.445 270.863 508.931 270.992 509.465 270.992ZM516.473 272V270.461H518.012V272H516.473ZM525.021 272.27C524.223 272.27 523.503 272.084 522.861 271.712C522.225 271.34 521.721 270.836 521.349 270.2C520.977 269.558 520.791 268.838 520.791 268.04V263C520.791 262.202 520.977 261.485 521.349 260.849C521.721 260.207 522.225 259.7 522.861 259.328C523.503 258.956 524.223 258.77 525.021 258.77C525.819 258.77 526.536 258.956 527.172 259.328C527.814 259.7 528.321 260.207 528.693 260.849C529.065 261.485 529.251 262.202 529.251 263V268.04C529.251 268.838 529.065 269.558 528.693 270.2C528.321 270.836 527.814 271.34 527.172 271.712C526.536 272.084 525.819 272.27 525.021 272.27ZM525.021 270.992C525.555 270.992 526.041 270.863 526.479 270.605C526.917 270.341 527.265 269.99 527.523 269.552C527.781 269.114 527.91 268.631 527.91 268.103V262.937C527.91 262.403 527.781 261.917 527.523 261.479C527.265 261.041 526.917 260.693 526.479 260.435C526.041 260.171 525.555 260.039 525.021 260.039C524.487 260.039 524.001 260.171 523.563 260.435C523.125 260.693 522.777 261.041 522.519 261.479C522.261 261.917 522.132 262.403 522.132 262.937V268.103C522.132 268.631 522.261 269.114 522.519 269.552C522.777 269.99 523.125 270.341 523.563 270.605C524.001 270.863 524.487 270.992 525.021 270.992ZM536.008 272.27C535.21 272.27 534.49 272.084 533.848 271.712C533.212 271.34 532.708 270.836 532.336 270.2C531.964 269.558 531.778 268.838 531.778 268.04V263C531.778 262.202 531.964 261.485 532.336 260.849C532.708 260.207 533.212 259.7 533.848 259.328C534.49 258.956 535.21 258.77 536.008 258.77C536.806 258.77 537.523 258.956 538.159 259.328C538.801 259.7 539.308 260.207 539.68 260.849C540.052 261.485 540.238 262.202 540.238 263V268.04C540.238 268.838 540.052 269.558 539.68 270.2C539.308 270.836 538.801 271.34 538.159 271.712C537.523 272.084 536.806 272.27 536.008 272.27ZM536.008 270.992C536.542 270.992 537.028 270.863 537.466 270.605C537.904 270.341 538.252 269.99 538.51 269.552C538.768 269.114 538.897 268.631 538.897 268.103V262.937C538.897 262.403 538.768 261.917 538.51 261.479C538.252 261.041 537.904 260.693 537.466 260.435C537.028 260.171 536.542 260.039 536.008 260.039C535.474 260.039 534.988 260.171 534.55 260.435C534.112 260.693 533.764 261.041 533.506 261.479C533.248 261.917 533.119 262.403 533.119 262.937V268.103C533.119 268.631 533.248 269.114 533.506 269.552C533.764 269.99 534.112 270.341 534.55 270.605C534.988 270.863 535.474 270.992 536.008 270.992Z" fill="#3D3D3D"/>
<path d="M636.5 300.25C630.301 300.25 625.25 305.302 625.25 311.5C625.25 317.699 630.301 322.75 636.5 322.75C642.699 322.75 647.75 317.699 647.75 311.5C647.75 305.302 642.699 300.25 636.5 300.25ZM640.91 312.344H631.91C631.449 312.344 631.066 311.962 631.066 311.5C631.066 311.039 631.449 310.657 631.91 310.657H640.91C641.371 310.657 641.754 311.039 641.754 311.5C641.754 311.962 641.382 312.344 640.91 312.344Z" fill="#FF2626"/>
<path d="M670.5 300.25C664.301 300.25 659.25 305.301 659.25 311.5C659.25 317.699 664.301 322.75 670.5 322.75C676.699 322.75 681.75 317.699 681.75 311.5C681.75 305.301 676.699 300.25 670.5 300.25ZM675 312.344H671.344V316C671.344 316.461 670.961 316.844 670.5 316.844C670.039 316.844 669.656 316.461 669.656 316V312.344H666C665.539 312.344 665.156 311.961 665.156 311.5C665.156 311.039 665.539 310.656 666 310.656H669.656V307C669.656 306.539 670.039 306.156 670.5 306.156C670.961 306.156 671.344 306.539 671.344 307V310.656H675C675.461 310.656 675.844 311.039 675.844 311.5C675.844 311.961 675.461 312.344 675 312.344Z" fill="#27A376"/>
</svg>
