<svg width="360" height="216" viewBox="0 0 360 216" fill="none" xmlns="http://www.w3.org/2000/svg">
<path d="M0 10C0 4.47715 4.47715 0 10 0H350C355.523 0 360 4.47715 360 10V216H0V10Z" fill="#F6F6F6"/>
<rect x="8.82411" y="42.5678" width="341.646" height="61.2085" rx="5.30105" fill="white" stroke="#DADADA" stroke-width="0.706806"/>
<path d="M17.5756 21.7065C17.81 21.9401 18.1898 21.9401 18.4241 21.7065C18.6586 21.4728 18.6586 21.0939 18.4241 20.8602L15.2477 17.694C15.0133 17.4605 14.6335 17.4605 14.3992 17.694L11.2227 20.8602C10.9882 21.0939 10.9882 21.4728 11.2227 21.7065C11.457 21.9401 11.8369 21.9401 12.0712 21.7065L14.8234 18.9633L17.5756 21.7065Z" fill="#808080" stroke="#808080" stroke-width="0.141361" stroke-linecap="round" stroke-linejoin="round"/>
<path d="M29.6448 23.071V16.0426H26.9363V14.9286H33.5351V16.0426H30.8266V23.071H29.6448ZM35.3694 23.2407C34.9171 23.2407 34.5382 23.1577 34.2329 22.9919C33.9275 22.8222 33.6957 22.5998 33.5374 22.3247C33.3828 22.0457 33.3055 21.7404 33.3055 21.4086C33.3055 21.0995 33.3602 20.8281 33.4695 20.5944C33.5788 20.3607 33.7409 20.1628 33.9558 20.0007C34.1707 19.8348 34.4345 19.701 34.7474 19.5992C35.0188 19.5201 35.3261 19.4503 35.6691 19.39C36.0121 19.3297 36.3721 19.2731 36.7491 19.2204C37.1298 19.1676 37.5068 19.1148 37.88 19.062L37.4503 19.2995C37.4578 18.8208 37.356 18.4664 37.1449 18.2365C36.9376 18.0028 36.5795 17.8859 36.0706 17.8859C35.7501 17.8859 35.4561 17.9613 35.1885 18.1121C34.9208 18.2591 34.7342 18.5041 34.6287 18.8472L33.5261 18.5079C33.6768 17.9839 33.9633 17.5674 34.3855 17.2583C34.8115 16.9492 35.377 16.7946 36.0819 16.7946C36.6285 16.7946 37.1034 16.8888 37.5068 17.0773C37.9139 17.262 38.2117 17.5561 38.4002 17.9594C38.4982 18.1592 38.5585 18.3703 38.5811 18.5927C38.6038 18.8151 38.6151 19.0545 38.6151 19.3108V23.071H37.569V21.6744L37.7726 21.8553C37.52 22.3228 37.1977 22.6715 36.8056 22.9014C36.4174 23.1276 35.9386 23.2407 35.3694 23.2407ZM35.5786 22.2738C35.9141 22.2738 36.2025 22.2153 36.4438 22.0985C36.685 21.9779 36.8792 21.8252 37.0262 21.6405C37.1732 21.4558 37.2693 21.2635 37.3145 21.0637C37.3786 20.8828 37.4144 20.6792 37.422 20.453C37.4333 20.2269 37.4389 20.0459 37.4389 19.9102L37.8234 20.0516C37.4503 20.1081 37.111 20.159 36.8056 20.2042C36.5003 20.2495 36.2232 20.2947 35.9744 20.3399C35.7294 20.3814 35.5108 20.4323 35.3185 20.4926C35.1564 20.5492 35.0113 20.617 34.8831 20.6962C34.7587 20.7753 34.6588 20.8715 34.5834 20.9846C34.5118 21.0976 34.476 21.2352 34.476 21.3973C34.476 21.5557 34.5156 21.7027 34.5948 21.8384C34.6739 21.9703 34.7945 22.0759 34.9566 22.155C35.1187 22.2342 35.3261 22.2738 35.5786 22.2738ZM42.4187 23.235C41.676 23.235 41.071 23.071 40.6036 22.7431C40.1361 22.4151 39.8497 21.9533 39.7441 21.3577L40.9542 21.1711C41.0295 21.4878 41.203 21.7385 41.4744 21.9232C41.7495 22.1041 42.0907 22.1946 42.4978 22.1946C42.8672 22.1946 43.1556 22.1192 43.363 21.9684C43.574 21.8176 43.6796 21.6103 43.6796 21.3464C43.6796 21.1919 43.6419 21.0675 43.5665 20.9732C43.4949 20.8752 43.3422 20.7829 43.1085 20.6962C42.8748 20.6095 42.5186 20.502 42.0398 20.3739C41.5158 20.2382 41.0993 20.093 40.7902 19.9385C40.4848 19.7802 40.2662 19.5973 40.1343 19.39C40.0061 19.1789 39.942 18.9244 39.942 18.6266C39.942 18.2572 40.04 17.9349 40.236 17.6597C40.4321 17.3846 40.7072 17.1716 41.0616 17.0208C41.4197 16.87 41.8381 16.7946 42.3169 16.7946C42.7843 16.7946 43.2009 16.8681 43.5665 17.0151C43.9322 17.1621 44.2281 17.3714 44.4543 17.6428C44.6804 17.9104 44.8161 18.2252 44.8614 18.5871L43.6513 18.8076C43.6099 18.5136 43.4723 18.2817 43.2386 18.1121C43.0048 17.9425 42.7014 17.8501 42.3282 17.835C41.9701 17.8199 41.6798 17.8803 41.4574 18.016C41.235 18.1479 41.1238 18.3307 41.1238 18.5644C41.1238 18.7002 41.1653 18.8151 41.2482 18.9094C41.3349 19.0036 41.5008 19.0941 41.7458 19.1808C41.9908 19.2675 42.3527 19.3711 42.8314 19.4918C43.3441 19.6237 43.7512 19.7707 44.0528 19.9328C44.3544 20.0911 44.5692 20.2815 44.6974 20.5039C44.8293 20.7226 44.8953 20.9883 44.8953 21.3012C44.8953 21.9043 44.6748 22.3774 44.2337 22.7205C43.7965 23.0635 43.1914 23.235 42.4187 23.235ZM46.1408 23.071L46.1464 14.9286H47.3452V19.9046L49.7427 16.9642H51.2468L48.7136 20.0176L51.5069 23.071H49.901L47.3452 20.1307V23.071H46.1408ZM54.3018 23.235C53.5592 23.235 52.9542 23.071 52.4868 22.7431C52.0193 22.4151 51.7328 21.9533 51.6273 21.3577L52.8373 21.1711C52.9127 21.4878 53.0861 21.7385 53.3575 21.9232C53.6327 22.1041 53.9739 22.1946 54.381 22.1946C54.7504 22.1946 55.0388 22.1192 55.2461 21.9684C55.4572 21.8176 55.5628 21.6103 55.5628 21.3464C55.5628 21.1919 55.5251 21.0675 55.4497 20.9732C55.3781 20.8752 55.2254 20.7829 54.9917 20.6962C54.758 20.6095 54.4017 20.502 53.923 20.3739C53.399 20.2382 52.9825 20.093 52.6734 19.9385C52.368 19.7802 52.1494 19.5973 52.0174 19.39C51.8893 19.1789 51.8252 18.9244 51.8252 18.6266C51.8252 18.2572 51.9232 17.9349 52.1192 17.6597C52.3152 17.3846 52.5904 17.1716 52.9448 17.0208C53.3029 16.87 53.7213 16.7946 54.2001 16.7946C54.6675 16.7946 55.084 16.8681 55.4497 17.0151C55.8153 17.1621 56.1113 17.3714 56.3374 17.6428C56.5636 17.9104 56.6993 18.2252 56.7446 18.5871L55.5345 18.8076C55.493 18.5136 55.3555 18.2817 55.1217 18.1121C54.888 17.9425 54.5846 17.8501 54.2114 17.835C53.8533 17.8199 53.563 17.8803 53.3406 18.016C53.1182 18.1479 53.007 18.3307 53.007 18.5644C53.007 18.7002 53.0484 18.8151 53.1314 18.9094C53.2181 19.0036 53.3839 19.0941 53.629 19.1808C53.874 19.2675 54.2359 19.3711 54.7146 19.4918C55.2273 19.6237 55.6344 19.7707 55.936 19.9328C56.2375 20.0911 56.4524 20.2815 56.5806 20.5039C56.7125 20.7226 56.7785 20.9883 56.7785 21.3012C56.7785 21.9043 56.558 22.3774 56.1169 22.7205C55.6796 23.0635 55.0746 23.235 54.3018 23.235Z" fill="#262626"/>
<rect x="8.94227" y="178.359" width="90.1152" height="24.6222" rx="3.88743" fill="white"/>
<rect x="8.94227" y="178.359" width="90.1152" height="24.6222" rx="3.88743" stroke="#EEEEEE" stroke-width="0.706806"/>
<path d="M20.1236 194.67L22.7699 186.528H24.4719L27.1182 194.67H25.8912L23.4541 187.24H23.7595L21.3507 194.67H20.1236ZM21.4977 192.833V191.724H25.7498V192.833H21.4977ZM30.5584 194.84C29.9892 194.84 29.4972 194.699 29.0826 194.416C28.6717 194.133 28.3532 193.749 28.127 193.262C27.9046 192.772 27.7934 192.222 27.7934 191.611C27.7934 190.997 27.9065 190.448 28.1326 189.966C28.3588 189.48 28.6792 189.097 29.0939 188.818C29.5123 188.535 30.008 188.394 30.581 188.394C31.1578 188.394 31.6422 188.535 32.0342 188.818C32.43 189.097 32.7278 189.48 32.9276 189.966C33.1312 190.452 33.233 191.001 33.233 191.611C33.233 192.222 33.1312 192.771 32.9276 193.257C32.7241 193.743 32.4244 194.129 32.0286 194.416C31.6327 194.699 31.1427 194.84 30.5584 194.84ZM30.7224 193.771C31.1106 193.771 31.4273 193.679 31.6723 193.494C31.9173 193.31 32.0964 193.055 32.2095 192.731C32.3226 192.407 32.3791 192.034 32.3791 191.611C32.3791 191.189 32.3207 190.816 32.2038 190.492C32.0908 190.168 31.9136 189.915 31.6723 189.734C31.4348 189.553 31.1314 189.463 30.762 189.463C30.3699 189.463 30.0476 189.559 29.795 189.751C29.5425 189.943 29.354 190.202 29.2296 190.526C29.109 190.85 29.0487 191.212 29.0487 191.611C29.0487 192.015 29.109 192.38 29.2296 192.708C29.354 193.033 29.5387 193.291 29.7837 193.483C30.0325 193.675 30.3454 193.771 30.7224 193.771ZM32.3791 194.67V190.277H32.2434V186.528H33.4309V194.67H32.3791ZM37.4387 194.84C36.8695 194.84 36.3776 194.699 35.9629 194.416C35.552 194.133 35.2335 193.749 35.0073 193.262C34.7849 192.772 34.6737 192.222 34.6737 191.611C34.6737 190.997 34.7868 190.448 35.013 189.966C35.2391 189.48 35.5596 189.097 35.9742 188.818C36.3926 188.535 36.8883 188.394 37.4613 188.394C38.0381 188.394 38.5225 188.535 38.9145 188.818C39.3103 189.097 39.6081 189.48 39.8079 189.966C40.0115 190.452 40.1133 191.001 40.1133 191.611C40.1133 192.222 40.0115 192.771 39.8079 193.257C39.6044 193.743 39.3047 194.129 38.9089 194.416C38.5131 194.699 38.023 194.84 37.4387 194.84ZM37.6027 193.771C37.991 193.771 38.3076 193.679 38.5526 193.494C38.7977 193.31 38.9767 193.055 39.0898 192.731C39.2029 192.407 39.2594 192.034 39.2594 191.611C39.2594 191.189 39.201 190.816 39.0842 190.492C38.9711 190.168 38.7939 189.915 38.5526 189.734C38.3152 189.553 38.0117 189.463 37.6423 189.463C37.2502 189.463 36.9279 189.559 36.6754 189.751C36.4228 189.943 36.2343 190.202 36.1099 190.526C35.9893 190.85 35.929 191.212 35.929 191.611C35.929 192.015 35.9893 192.38 36.1099 192.708C36.2343 193.033 36.419 193.291 36.6641 193.483C36.9128 193.675 37.2257 193.771 37.6027 193.771ZM39.2594 194.67V190.277H39.1237V186.528H40.3112V194.67H39.2594ZM47.6517 194.67C47.2672 194.746 46.8902 194.778 46.5208 194.767C46.1514 194.755 45.8216 194.684 45.5313 194.552C45.241 194.42 45.0224 194.212 44.8754 193.93C44.7434 193.677 44.6718 193.421 44.6605 193.161C44.653 192.897 44.6492 192.599 44.6492 192.267V186.867H45.8366V192.211C45.8366 192.456 45.8385 192.669 45.8423 192.85C45.8498 193.031 45.8894 193.183 45.961 193.308C46.0967 193.541 46.3116 193.675 46.6056 193.709C46.9034 193.739 47.2521 193.726 47.6517 193.67V194.67ZM43.4787 189.514V188.564H47.6517V189.514H43.4787ZM50.6639 194.84C50.2115 194.84 49.8326 194.757 49.5273 194.591C49.222 194.422 48.9901 194.199 48.8318 193.924C48.6773 193.645 48.6 193.34 48.6 193.008C48.6 192.699 48.6546 192.427 48.764 192.194C48.8733 191.96 49.0354 191.762 49.2502 191.6C49.4651 191.434 49.729 191.3 50.0419 191.199C50.3133 191.119 50.6205 191.05 50.9635 190.989C51.3066 190.929 51.6666 190.873 52.0435 190.82C52.4243 190.767 52.8012 190.714 53.1744 190.661L52.7447 190.899C52.7522 190.42 52.6505 190.066 52.4394 189.836C52.232 189.602 51.8739 189.485 51.365 189.485C51.0446 189.485 50.7506 189.561 50.4829 189.711C50.2153 189.858 50.0287 190.103 49.9231 190.447L48.8205 190.107C48.9713 189.583 49.2578 189.167 49.68 188.858C50.1059 188.549 50.6714 188.394 51.3763 188.394C51.9229 188.394 52.3979 188.488 52.8012 188.677C53.2084 188.861 53.5062 189.155 53.6946 189.559C53.7926 189.759 53.853 189.97 53.8756 190.192C53.8982 190.414 53.9095 190.654 53.9095 190.91V194.67H52.8634V193.274L53.067 193.455C52.8144 193.922 52.4921 194.271 52.1001 194.501C51.7118 194.727 51.2331 194.84 50.6639 194.84ZM50.8731 193.873C51.2086 193.873 51.4969 193.815 51.7382 193.698C51.9795 193.577 52.1736 193.425 52.3206 193.24C52.4676 193.055 52.5637 192.863 52.609 192.663C52.6731 192.482 52.7089 192.279 52.7164 192.052C52.7277 191.826 52.7334 191.645 52.7334 191.51L53.1179 191.651C52.7447 191.707 52.4054 191.758 52.1001 191.804C51.7947 191.849 51.5177 191.894 51.2689 191.939C51.0239 191.981 50.8052 192.032 50.613 192.092C50.4509 192.149 50.3057 192.216 50.1776 192.296C50.0532 192.375 49.9533 192.471 49.8779 192.584C49.8063 192.697 49.7705 192.835 49.7705 192.997C49.7705 193.155 49.81 193.302 49.8892 193.438C49.9684 193.57 50.089 193.675 50.2511 193.754C50.4132 193.834 50.6205 193.873 50.8731 193.873ZM57.7131 194.834C56.9705 194.834 56.3655 194.67 55.898 194.342C55.4306 194.014 55.1441 193.553 55.0385 192.957L56.2486 192.771C56.324 193.087 56.4974 193.338 56.7688 193.523C57.044 193.703 57.3851 193.794 57.7923 193.794C58.1617 193.794 58.4501 193.719 58.6574 193.568C58.8685 193.417 58.974 193.21 58.974 192.946C58.974 192.791 58.9363 192.667 58.8609 192.573C58.7893 192.475 58.6367 192.382 58.4029 192.296C58.1692 192.209 57.813 192.101 57.3342 191.973C56.8103 191.838 56.3937 191.692 56.0846 191.538C55.7793 191.38 55.5606 191.197 55.4287 190.989C55.3005 190.778 55.2364 190.524 55.2364 190.226C55.2364 189.857 55.3345 189.534 55.5305 189.259C55.7265 188.984 56.0017 188.771 56.356 188.62C56.7141 188.469 57.1326 188.394 57.6113 188.394C58.0788 188.394 58.4953 188.467 58.8609 188.614C59.2266 188.762 59.5225 188.971 59.7487 189.242C59.9749 189.51 60.1106 189.825 60.1558 190.186L58.9458 190.407C58.9043 190.113 58.7667 189.881 58.533 189.711C58.2993 189.542 57.9958 189.449 57.6226 189.434C57.2645 189.419 56.9742 189.48 56.7518 189.615C56.5294 189.747 56.4182 189.93 56.4182 190.164C56.4182 190.3 56.4597 190.414 56.5426 190.509C56.6293 190.603 56.7952 190.693 57.0402 190.78C57.2852 190.867 57.6471 190.971 58.1259 191.091C58.6385 191.223 59.0457 191.37 59.3472 191.532C59.6488 191.691 59.8637 191.881 59.9918 192.103C60.1238 192.322 60.1897 192.588 60.1897 192.901C60.1897 193.504 59.9692 193.977 59.5282 194.32C59.0909 194.663 58.4859 194.834 57.7131 194.834ZM61.4352 194.67L61.4409 186.528H62.6396V191.504L65.0371 188.564H66.5412L64.008 191.617L66.8013 194.67H65.1954L62.6396 191.73V194.67H61.4352Z" fill="#808080"/>
<path d="M77.501 190.67H84.569" stroke="#808080" stroke-width="1.06021" stroke-linecap="round" stroke-linejoin="round"/>
<path d="M81.0352 194.204V187.136" stroke="#808080" stroke-width="1.06021" stroke-linecap="round" stroke-linejoin="round"/>
<path d="M18.373 86.7952C18.9718 88.72 20.5833 90.2029 22.5865 90.6113" stroke="#808080" stroke-width="1.06021" stroke-miterlimit="10" stroke-linecap="round" stroke-linejoin="round"/>
<path d="M18.1494 84.5624C18.4348 81.7366 20.8185 79.5376 23.717 79.5376C26.6155 79.5376 28.9992 81.7422 29.2846 84.5624" stroke="#808080" stroke-width="1.06021" stroke-miterlimit="10" stroke-linecap="round" stroke-linejoin="round"/>
<path d="M24.8408 90.6168C26.8384 90.2083 28.4444 88.7423 29.0543 86.823" stroke="#808080" stroke-width="1.06021" stroke-miterlimit="10" stroke-linecap="round" stroke-linejoin="round"/>
<rect x="33.9648" y="74.531" width="82.445" height="21.2042" rx="10.6021" fill="#FDECC8"/>
<circle cx="43.8599" cy="85.1331" r="1.41361" fill="#402C1B"/>
<path d="M51.7759 89.1331V81.4995H52.8838V89.1331H51.7759ZM58.4939 89.1331V86.3182C58.4939 86.0956 58.4745 85.8676 58.4356 85.6344C58.4003 85.3976 58.3296 85.1785 58.2235 84.977C58.1211 84.7756 57.9744 84.613 57.7836 84.4893C57.5963 84.3656 57.3506 84.3038 57.0467 84.3038C56.8488 84.3038 56.6615 84.3374 56.4848 84.4045C56.3081 84.4681 56.1526 84.5724 56.0183 84.7173C55.8876 84.8622 55.7833 85.053 55.7056 85.2898C55.6313 85.5266 55.5942 85.8146 55.5942 86.1539L54.9051 85.8941C54.9051 85.3746 55.0023 84.917 55.1967 84.5211C55.391 84.1218 55.6702 83.8108 56.0342 83.5882C56.3982 83.3655 56.8382 83.2542 57.3542 83.2542C57.75 83.2542 58.0822 83.3178 58.3508 83.445C58.6194 83.5723 58.8367 83.7401 59.0028 83.9486C59.1724 84.1536 59.3014 84.378 59.3898 84.6219C59.4781 84.8657 59.5382 85.1043 59.57 85.3375C59.6018 85.5708 59.6177 85.7757 59.6177 85.9524V89.1331H58.4939ZM54.4704 89.1331V83.4079H55.4617V85.0619H55.5942V89.1331H54.4704ZM63.121 89.1331V81.4995H66.2062C66.2804 81.4995 66.3723 81.5031 66.4818 81.5102C66.5914 81.5137 66.6956 81.5243 66.7946 81.542C67.2187 81.6091 67.5721 81.754 67.8548 81.9766C68.1411 82.1993 68.3549 82.4802 68.4962 82.8195C68.6376 83.1588 68.7083 83.5334 68.7083 83.9433C68.7083 84.3568 68.6376 84.7332 68.4962 85.0725C68.3549 85.4117 68.1411 85.6927 67.8548 85.9153C67.5721 86.138 67.2187 86.2829 66.7946 86.35C66.6956 86.3641 66.5896 86.3747 66.4765 86.3818C66.367 86.3889 66.2769 86.3924 66.2062 86.3924H64.2289V89.1331H63.121ZM64.2289 85.3428H66.1638C66.2345 85.3428 66.3122 85.3393 66.397 85.3322C66.4854 85.3251 66.5684 85.3128 66.6462 85.2951C66.8723 85.2421 67.0543 85.1449 67.1922 85.0035C67.33 84.8586 67.429 84.6925 67.489 84.5052C67.5491 84.3179 67.5792 84.1306 67.5792 83.9433C67.5792 83.756 67.5491 83.5705 67.489 83.3867C67.429 83.1994 67.33 83.0351 67.1922 82.8937C67.0543 82.7488 66.8723 82.6499 66.6462 82.5969C66.5684 82.5757 66.4854 82.5615 66.397 82.5545C66.3122 82.5474 66.2345 82.5439 66.1638 82.5439H64.2289V85.3428ZM69.768 89.1331V83.4079H70.754V84.7968L70.6162 84.6166C70.6868 84.4328 70.7787 84.2649 70.8918 84.113C71.0049 83.9575 71.1357 83.8302 71.2841 83.7313C71.429 83.6253 71.5898 83.544 71.7665 83.4874C71.9467 83.4274 72.1305 83.392 72.3178 83.3814C72.5051 83.3673 72.6853 83.3761 72.8585 83.4079V84.4469C72.6712 84.3975 72.4627 84.3833 72.233 84.4045C72.0068 84.4257 71.7983 84.4982 71.6074 84.6219C71.4272 84.7385 71.2841 84.8798 71.1781 85.0459C71.0756 85.212 71.0014 85.3976 70.9554 85.6026C70.9095 85.804 70.8865 86.0178 70.8865 86.244V89.1331H69.768ZM76.2507 89.2921C75.6782 89.2921 75.1816 89.1631 74.7611 88.9051C74.3405 88.6471 74.0154 88.292 73.7857 87.8396C73.5595 87.3837 73.4464 86.8589 73.4464 86.2652C73.4464 85.6679 73.563 85.1431 73.7963 84.6908C74.0295 84.2349 74.3564 83.8815 74.777 83.6306C75.1975 83.3761 75.6888 83.2489 76.2507 83.2489C76.8232 83.2489 77.3197 83.3779 77.7403 83.6359C78.1608 83.8939 78.4859 84.249 78.7157 84.7014C78.9454 85.1537 79.0602 85.675 79.0602 86.2652C79.0602 86.8624 78.9436 87.389 78.7104 87.8449C78.4806 88.2973 78.1555 88.6524 77.735 88.9104C77.3144 89.1649 76.8196 89.2921 76.2507 89.2921ZM76.2507 88.2478C76.7984 88.2478 77.2066 88.064 77.4752 87.6965C77.7473 87.3254 77.8834 86.8483 77.8834 86.2652C77.8834 85.6679 77.7456 85.1908 77.4699 84.8339C77.1978 84.4734 76.7914 84.2932 76.2507 84.2932C75.8796 84.2932 75.5739 84.378 75.3336 84.5477C75.0933 84.7138 74.9148 84.9452 74.7982 85.2421C74.6816 85.5354 74.6232 85.8764 74.6232 86.2652C74.6232 86.866 74.7611 87.3466 75.0367 87.7071C75.3124 88.0675 75.717 88.2478 76.2507 88.2478ZM82.5841 91.8366C82.2766 91.8366 81.978 91.7889 81.6882 91.6935C81.402 91.598 81.1404 91.4567 80.9037 91.2694C80.6669 91.0856 80.4707 90.8577 80.3152 90.5855L81.3383 90.066C81.462 90.3099 81.6387 90.4884 81.8685 90.6014C82.0982 90.7145 82.3402 90.7711 82.5947 90.7711C82.9092 90.7711 83.1778 90.7145 83.4005 90.6014C83.6231 90.4919 83.791 90.3258 83.9041 90.1031C84.0207 89.8805 84.0772 89.6048 84.0737 89.2762V87.6753H84.2062V83.4079H85.1869V89.2868C85.1869 89.4388 85.1816 89.5836 85.171 89.7215C85.1604 89.8593 85.141 89.9971 85.1127 90.135C85.0314 90.5202 84.8759 90.8382 84.6462 91.0891C84.42 91.3401 84.1302 91.5274 83.7768 91.6511C83.427 91.7747 83.0294 91.8366 82.5841 91.8366ZM82.4993 89.2921C81.9656 89.2921 81.5044 89.1596 81.1157 88.8945C80.7305 88.6295 80.4319 88.269 80.2198 87.8131C80.0113 87.3537 79.9071 86.8377 79.9071 86.2652C79.9071 85.6891 80.0131 85.1749 80.2251 84.7226C80.4372 84.2667 80.7376 83.908 81.1263 83.6465C81.5186 83.3814 81.9833 83.2489 82.5205 83.2489C83.0612 83.2489 83.5153 83.3814 83.8829 83.6465C84.2539 83.908 84.5331 84.2667 84.7204 84.7226C84.9113 85.1785 85.0067 85.6927 85.0067 86.2652C85.0067 86.8377 84.9113 87.3519 84.7204 87.8078C84.5296 88.2637 84.2486 88.6259 83.8776 88.8945C83.5065 89.1596 83.0471 89.2921 82.4993 89.2921ZM82.653 88.2902C83.017 88.2902 83.3139 88.2036 83.5436 88.0304C83.7733 87.8573 83.9412 87.6187 84.0472 87.3148C84.1532 87.0109 84.2062 86.661 84.2062 86.2652C84.2062 85.8694 84.1514 85.5195 84.0419 85.2156C83.9359 84.9117 83.7698 84.6749 83.5436 84.5052C83.3209 84.3356 83.0365 84.2508 82.6901 84.2508C82.3226 84.2508 82.0204 84.3409 81.7836 84.5211C81.5469 84.7014 81.3702 84.9435 81.2535 85.2474C81.1404 85.5513 81.0839 85.8906 81.0839 86.2652C81.0839 86.6433 81.1404 86.9861 81.2535 87.2936C81.3702 87.5975 81.5433 87.8396 81.773 88.0198C82.0063 88.2001 82.2996 88.2902 82.653 88.2902ZM86.6754 89.1331V83.4079H87.6614V84.7968L87.5236 84.6166C87.5943 84.4328 87.6862 84.2649 87.7992 84.113C87.9123 83.9575 88.0431 83.8302 88.1915 83.7313C88.3364 83.6253 88.4972 83.544 88.6739 83.4874C88.8542 83.4274 89.0379 83.392 89.2252 83.3814C89.4125 83.3673 89.5928 83.3761 89.7659 83.4079V84.4469C89.5786 84.3975 89.3701 84.3833 89.1404 84.4045C88.9142 84.4257 88.7057 84.4982 88.5149 84.6219C88.3347 84.7385 88.1915 84.8798 88.0855 85.0459C87.983 85.212 87.9088 85.3976 87.8629 85.6026C87.8169 85.804 87.7939 86.0178 87.7939 86.244V89.1331H86.6754ZM93.2111 89.2921C92.6421 89.2921 92.1421 89.1684 91.7109 88.921C91.2833 88.6701 90.9493 88.322 90.709 87.8767C90.4722 87.4279 90.3539 86.9084 90.3539 86.3182C90.3539 85.6927 90.4705 85.1502 90.7037 84.6908C90.9405 84.2314 91.2692 83.8762 91.6897 83.6253C92.1103 83.3744 92.5997 83.2489 93.1581 83.2489C93.7412 83.2489 94.2378 83.385 94.6477 83.6571C95.0577 83.9257 95.3633 84.3091 95.5648 84.8074C95.7698 85.3057 95.851 85.8977 95.8086 86.5833H94.7007V86.1804C94.6936 85.516 94.5664 85.0247 94.319 84.7067C94.0752 84.3886 93.7024 84.2296 93.2005 84.2296C92.6457 84.2296 92.2287 84.4045 91.9495 84.7544C91.6703 85.1043 91.5307 85.6096 91.5307 86.2705C91.5307 86.8995 91.6703 87.3872 91.9495 87.7336C92.2287 88.0764 92.6315 88.2478 93.1581 88.2478C93.5044 88.2478 93.8031 88.17 94.054 88.0145C94.3084 87.8555 94.5063 87.6293 94.6477 87.336L95.7344 87.6806C95.5118 88.193 95.1743 88.5906 94.7219 88.8733C94.2696 89.1525 93.766 89.2921 93.2111 89.2921ZM91.1702 86.5833V85.7192H95.2573V86.5833H91.1702ZM99.1873 89.2868C98.4911 89.2868 97.9239 89.1331 97.4857 88.8256C97.0474 88.5181 96.7789 88.0852 96.6799 87.5268L97.8143 87.3519C97.885 87.6488 98.0476 87.8838 98.302 88.0569C98.56 88.2266 98.8798 88.3114 99.2615 88.3114C99.6079 88.3114 99.8782 88.2407 100.073 88.0994C100.27 87.958 100.369 87.7636 100.369 87.5162C100.369 87.3713 100.334 87.2547 100.263 87.1664C100.196 87.0745 100.053 86.9879 99.834 86.9066C99.6149 86.8253 99.281 86.7246 98.8321 86.6045C98.3409 86.4772 97.9504 86.3412 97.6606 86.1963C97.3743 86.0478 97.1694 85.8764 97.0457 85.6821C96.9255 85.4842 96.8654 85.2456 96.8654 84.9664C96.8654 84.6201 96.9573 84.3179 97.1411 84.06C97.3249 83.802 97.5829 83.6023 97.9151 83.4609C98.2508 83.3196 98.6431 83.2489 99.0919 83.2489C99.5301 83.2489 99.9206 83.3178 100.263 83.4556C100.606 83.5935 100.884 83.7896 101.096 84.0441C101.308 84.295 101.435 84.5901 101.477 84.9293L100.343 85.1361C100.304 84.8604 100.175 84.6431 99.956 84.484C99.7368 84.325 99.4524 84.2384 99.1025 84.2243C98.7668 84.2102 98.4946 84.2667 98.2861 84.3939C98.0776 84.5176 97.9734 84.689 97.9734 84.9081C97.9734 85.0353 98.0122 85.1431 98.09 85.2315C98.1713 85.3198 98.3268 85.4047 98.5565 85.4859C98.7862 85.5672 99.1255 85.6644 99.5743 85.7775C100.055 85.9012 100.437 86.039 100.719 86.191C101.002 86.3394 101.203 86.5179 101.324 86.7264C101.447 86.9314 101.509 87.1805 101.509 87.4738C101.509 88.0393 101.302 88.4828 100.889 88.8044C100.479 89.126 99.9118 89.2868 99.1873 89.2868ZM104.871 89.2868C104.175 89.2868 103.608 89.1331 103.17 88.8256C102.732 88.5181 102.463 88.0852 102.364 87.5268L103.498 87.3519C103.569 87.6488 103.732 87.8838 103.986 88.0569C104.244 88.2266 104.564 88.3114 104.946 88.3114C105.292 88.3114 105.562 88.2407 105.757 88.0994C105.955 87.958 106.054 87.7636 106.054 87.5162C106.054 87.3713 106.018 87.2547 105.948 87.1664C105.88 87.0745 105.737 86.9879 105.518 86.9066C105.299 86.8253 104.965 86.7246 104.516 86.6045C104.025 86.4772 103.635 86.3412 103.345 86.1963C103.058 86.0478 102.854 85.8764 102.73 85.6821C102.61 85.4842 102.55 85.2456 102.55 84.9664C102.55 84.6201 102.641 84.3179 102.825 84.06C103.009 83.802 103.267 83.6023 103.599 83.4609C103.935 83.3196 104.327 83.2489 104.776 83.2489C105.214 83.2489 105.605 83.3178 105.948 83.4556C106.29 83.5935 106.568 83.7896 106.78 84.0441C106.992 84.295 107.119 84.5901 107.161 84.9293L106.027 85.1361C105.988 84.8604 105.859 84.6431 105.64 84.484C105.421 84.325 105.136 84.2384 104.787 84.2243C104.451 84.2102 104.179 84.2667 103.97 84.3939C103.762 84.5176 103.657 84.689 103.657 84.9081C103.657 85.0353 103.696 85.1431 103.774 85.2315C103.855 85.3198 104.011 85.4047 104.241 85.4859C104.47 85.5672 104.81 85.6644 105.258 85.7775C105.739 85.9012 106.121 86.039 106.403 86.191C106.686 86.3394 106.888 86.5179 107.008 86.7264C107.131 86.9314 107.193 87.1805 107.193 87.4738C107.193 88.0393 106.987 88.4828 106.573 88.8044C106.163 89.126 105.596 89.2868 104.871 89.2868Z" fill="#402C1B"/>
<path d="M139.054 79.186V80.8647" stroke="#808080" stroke-width="1.06021" stroke-miterlimit="10" stroke-linecap="round" stroke-linejoin="round"/>
<path d="M143.529 79.186V80.8647" stroke="#808080" stroke-width="1.06021" stroke-miterlimit="10" stroke-linecap="round" stroke-linejoin="round"/>
<path d="M136.535 83.1536H146.048" stroke="#808080" stroke-width="1.06021" stroke-miterlimit="10" stroke-linecap="round" stroke-linejoin="round"/>
<path d="M146.328 82.8232V87.5794C146.328 89.258 145.489 90.3772 143.53 90.3772H139.054C137.095 90.3772 136.256 89.258 136.256 87.5794V82.8232C136.256 81.1445 137.095 80.0254 139.054 80.0254H143.53C145.489 80.0254 146.328 81.1445 146.328 82.8232Z" stroke="#808080" stroke-width="1.06021" stroke-miterlimit="10" stroke-linecap="round" stroke-linejoin="round"/>
<path d="M143.359 85.7329H143.364" stroke="#808080" stroke-width="1.06021" stroke-linecap="round" stroke-linejoin="round"/>
<path d="M143.359 87.4114H143.364" stroke="#808080" stroke-width="1.06021" stroke-linecap="round" stroke-linejoin="round"/>
<path d="M141.289 85.7329H141.294" stroke="#808080" stroke-width="1.06021" stroke-linecap="round" stroke-linejoin="round"/>
<path d="M141.289 87.4114H141.294" stroke="#808080" stroke-width="1.06021" stroke-linecap="round" stroke-linejoin="round"/>
<path d="M139.218 85.7329H139.223" stroke="#808080" stroke-width="1.06021" stroke-linecap="round" stroke-linejoin="round"/>
<path d="M139.218 87.4114H139.223" stroke="#808080" stroke-width="1.06021" stroke-linecap="round" stroke-linejoin="round"/>
<path d="M152.282 88.7815V81.148H156.804V82.2559H153.39V84.4081H156.168V85.5214H153.39V88.7815H152.282ZM157.759 88.7815V83.0564H158.745V84.4452L158.607 84.265C158.678 84.0812 158.77 83.9134 158.883 83.7614C158.996 83.6059 159.127 83.4787 159.275 83.3797C159.42 83.2737 159.581 83.1924 159.758 83.1359C159.938 83.0758 160.122 83.0405 160.309 83.0299C160.496 83.0157 160.677 83.0246 160.85 83.0564V84.0954C160.662 84.0459 160.454 84.0318 160.224 84.053C159.998 84.0742 159.79 84.1466 159.599 84.2703C159.418 84.3869 159.275 84.5283 159.169 84.6944C159.067 84.8605 158.993 85.046 158.947 85.251C158.901 85.4524 158.878 85.6662 158.878 85.8924V88.7815H157.759ZM161.965 82.1181V81.042H163.073V82.1181H161.965ZM161.965 88.7815V83.0564H163.073V88.7815H161.965ZM164.559 90.0484L164.628 89.5554C164.78 89.566 164.898 89.5378 164.983 89.4706C165.068 89.4035 165.125 89.3098 165.153 89.1897C165.181 89.0695 165.186 88.9335 165.169 88.7815H164.559V87.5039H165.731V88.8875C165.731 89.3045 165.63 89.6191 165.428 89.8311C165.231 90.0431 164.941 90.1156 164.559 90.0484ZM169.863 88.7815V81.148H170.865L173.632 86.889L176.383 81.148H177.395V88.7762H176.346V83.5547L173.881 88.7815H173.377L170.907 83.5547V88.7815H169.863ZM180.497 88.9405C180.073 88.9405 179.718 88.8628 179.432 88.7073C179.146 88.5482 178.928 88.3397 178.78 88.0818C178.635 87.8202 178.563 87.534 178.563 87.223C178.563 86.9332 178.614 86.6787 178.716 86.4596C178.819 86.2405 178.971 86.055 179.172 85.903C179.374 85.7475 179.621 85.6221 179.914 85.5267C180.169 85.4524 180.457 85.3871 180.778 85.3305C181.1 85.274 181.437 85.221 181.791 85.1715C182.148 85.122 182.501 85.0725 182.851 85.0231L182.448 85.2457C182.455 84.7969 182.36 84.4647 182.162 84.2491C181.968 84.03 181.632 83.9204 181.155 83.9204C180.854 83.9204 180.579 83.9911 180.328 84.1325C180.077 84.2703 179.902 84.5 179.803 84.8216L178.769 84.5035C178.911 84.0123 179.179 83.6218 179.575 83.332C179.974 83.0422 180.504 82.8973 181.165 82.8973C181.678 82.8973 182.123 82.9857 182.501 83.1624C182.883 83.3356 183.162 83.6112 183.339 83.9893C183.431 84.1767 183.487 84.3746 183.508 84.5831C183.53 84.7916 183.54 85.016 183.54 85.2563V88.7815H182.56V87.4721L182.75 87.6418C182.514 88.08 182.211 88.4069 181.844 88.6225C181.48 88.8345 181.031 88.9405 180.497 88.9405ZM180.694 88.034C181.008 88.034 181.278 87.9793 181.505 87.8697C181.731 87.7566 181.913 87.6135 182.051 87.4403C182.188 87.2672 182.279 87.0869 182.321 86.8996C182.381 86.73 182.415 86.5392 182.422 86.3271C182.432 86.1151 182.438 85.9454 182.438 85.8182L182.798 85.9507C182.448 86.0037 182.13 86.0515 181.844 86.0939C181.558 86.1363 181.298 86.1787 181.065 86.2211C180.835 86.26 180.63 86.3077 180.45 86.3642C180.298 86.4172 180.162 86.4808 180.042 86.5551C179.925 86.6293 179.831 86.7194 179.761 86.8254C179.693 86.9314 179.66 87.0604 179.66 87.2124C179.66 87.3608 179.697 87.4986 179.771 87.6259C179.845 87.7496 179.958 87.8485 180.11 87.9227C180.262 87.9969 180.457 88.034 180.694 88.034ZM184.917 88.7815V83.0564H185.903V84.4452L185.765 84.265C185.836 84.0812 185.927 83.9134 186.041 83.7614C186.154 83.6059 186.284 83.4787 186.433 83.3797C186.578 83.2737 186.739 83.1924 186.915 83.1359C187.095 83.0758 187.279 83.0405 187.467 83.0299C187.654 83.0157 187.834 83.0246 188.007 83.0564V84.0954C187.82 84.0459 187.611 84.0318 187.382 84.053C187.156 84.0742 186.947 84.1466 186.756 84.2703C186.576 84.3869 186.433 84.5283 186.327 84.6944C186.224 84.8605 186.15 85.046 186.104 85.251C186.058 85.4524 186.035 85.6662 186.035 85.8924V88.7815H184.917ZM190.927 88.7762L190.933 87.7902L194.256 84.811C194.525 84.5742 194.707 84.3481 194.802 84.1325C194.901 83.9169 194.951 83.7013 194.951 83.4857C194.951 83.2136 194.891 82.9698 194.77 82.7542C194.65 82.5351 194.484 82.3619 194.272 82.2347C194.06 82.1075 193.816 82.0439 193.541 82.0439C193.258 82.0439 193.005 82.111 192.783 82.2453C192.563 82.3761 192.392 82.551 192.268 82.7701C192.145 82.9892 192.085 83.226 192.088 83.4804H190.954C190.954 82.9857 191.065 82.5528 191.288 82.1817C191.514 81.8071 191.823 81.5155 192.215 81.307C192.608 81.095 193.056 80.989 193.562 80.989C194.042 80.989 194.474 81.0985 194.855 81.3176C195.237 81.5332 195.537 81.8301 195.756 82.2082C195.979 82.5863 196.09 83.0175 196.09 83.5017C196.09 83.8515 196.045 84.1484 195.953 84.3922C195.861 84.6361 195.723 84.8623 195.539 85.0708C195.355 85.2793 195.126 85.5054 194.85 85.7493L192.284 88.0393L192.162 87.7213H196.09V88.7762H190.927ZM199.625 88.9405C199.233 88.9405 198.867 88.861 198.528 88.702C198.192 88.5394 197.904 88.3168 197.664 88.034C197.424 87.7478 197.252 87.4191 197.15 87.0481L198.215 86.7618C198.275 86.988 198.378 87.1841 198.523 87.3502C198.671 87.5163 198.844 87.6453 199.042 87.7372C199.24 87.8255 199.445 87.8697 199.657 87.8697C199.936 87.8697 200.189 87.8026 200.415 87.6683C200.645 87.534 200.825 87.3537 200.956 87.1276C201.09 86.9014 201.157 86.6522 201.157 86.3801C201.157 86.1009 201.088 85.8482 200.951 85.6221C200.816 85.3959 200.634 85.2174 200.405 85.0867C200.178 84.9524 199.929 84.8852 199.657 84.8852C199.346 84.8852 199.083 84.9471 198.867 85.0708C198.652 85.1945 198.484 85.3376 198.364 85.5001L197.399 85.1609L197.632 81.148H201.751V82.1923H198.199L198.65 81.7735L198.464 84.7792L198.247 84.4982C198.449 84.2968 198.689 84.1431 198.968 84.0371C199.247 83.931 199.525 83.878 199.8 83.878C200.274 83.878 200.696 83.9876 201.067 84.2067C201.442 84.4258 201.737 84.7244 201.952 85.1026C202.168 85.4772 202.276 85.903 202.276 86.3801C202.276 86.8537 202.154 87.2848 201.91 87.6736C201.666 88.0588 201.343 88.3662 200.94 88.596C200.537 88.8257 200.099 88.9405 199.625 88.9405Z" fill="#3D3D3D"/>
<path d="M224.524 79.2114V90.3515" stroke="#808080" stroke-width="1.06021" stroke-miterlimit="10" stroke-linecap="round" stroke-linejoin="round"/>
<path d="M224.524 80.3254H230.783C232.292 80.3254 232.627 81.1609 231.566 82.2193L230.895 82.8877C230.448 83.3333 230.448 84.0574 230.895 84.4473L231.566 85.1157C232.627 86.174 232.236 87.0095 230.783 87.0095H224.524" stroke="#808080" stroke-width="1.06021" stroke-miterlimit="10" stroke-linecap="round" stroke-linejoin="round"/>
<rect x="238.589" y="74.5793" width="40.9412" height="21.1075" rx="10.5537" fill="#FFE2DD"/>
<path d="M248.148 89.1331V81.4995H249.256V84.7915H253.073V81.4995H254.186V89.1331H253.073V85.8358H249.256V89.1331H248.148ZM255.781 82.4696V81.3935H256.889V82.4696H255.781ZM255.781 89.1331V83.4079H256.889V89.1331H255.781ZM260.84 91.8366C260.533 91.8366 260.234 91.7889 259.944 91.6935C259.658 91.598 259.397 91.4567 259.16 91.2694C258.923 91.0856 258.727 90.8577 258.571 90.5855L259.594 90.066C259.718 90.3099 259.895 90.4884 260.125 90.6014C260.354 90.7145 260.596 90.7711 260.851 90.7711C261.165 90.7711 261.434 90.7145 261.657 90.6014C261.879 90.4919 262.047 90.3258 262.16 90.1031C262.277 89.8805 262.333 89.6048 262.33 89.2762V87.6753H262.462V83.4079H263.443V89.2868C263.443 89.4388 263.438 89.5836 263.427 89.7215C263.417 89.8593 263.397 89.9971 263.369 90.135C263.288 90.5202 263.132 90.8382 262.902 91.0891C262.676 91.3401 262.386 91.5274 262.033 91.6511C261.683 91.7747 261.286 91.8366 260.84 91.8366ZM260.755 89.2921C260.222 89.2921 259.761 89.1596 259.372 88.8945C258.987 88.6295 258.688 88.269 258.476 87.8131C258.267 87.3537 258.163 86.8377 258.163 86.2652C258.163 85.6891 258.269 85.1749 258.481 84.7226C258.693 84.2667 258.994 83.908 259.382 83.6465C259.775 83.3814 260.239 83.2489 260.777 83.2489C261.317 83.2489 261.771 83.3814 262.139 83.6465C262.51 83.908 262.789 84.2667 262.977 84.7226C263.167 85.1785 263.263 85.6927 263.263 86.2652C263.263 86.8377 263.167 87.3519 262.977 87.8078C262.786 88.2637 262.505 88.6259 262.134 88.8945C261.763 89.1596 261.303 89.2921 260.755 89.2921ZM260.909 88.2902C261.273 88.2902 261.57 88.2036 261.8 88.0304C262.029 87.8573 262.197 87.6187 262.303 87.3148C262.409 87.0109 262.462 86.661 262.462 86.2652C262.462 85.8694 262.408 85.5195 262.298 85.2156C262.192 84.9117 262.026 84.6749 261.8 84.5052C261.577 84.3356 261.293 84.2508 260.946 84.2508C260.579 84.2508 260.277 84.3409 260.04 84.5211C259.803 84.7014 259.626 84.9435 259.51 85.2474C259.397 85.5513 259.34 85.8906 259.34 86.2652C259.34 86.6433 259.397 86.9861 259.51 87.2936C259.626 87.5975 259.799 87.8396 260.029 88.0198C260.262 88.2001 260.556 88.2902 260.909 88.2902ZM268.95 89.1331V86.3182C268.95 86.0956 268.93 85.8676 268.891 85.6344C268.856 85.3976 268.785 85.1785 268.679 84.977C268.577 84.7756 268.43 84.613 268.239 84.4893C268.052 84.3656 267.806 84.3038 267.503 84.3038C267.305 84.3038 267.117 84.3374 266.941 84.4045C266.764 84.4681 266.608 84.5724 266.474 84.7173C266.343 84.8622 266.239 85.053 266.161 85.2898C266.087 85.5266 266.05 85.8146 266.05 86.1539L265.361 85.8941C265.361 85.3746 265.458 84.917 265.653 84.5211C265.847 84.1218 266.126 83.8108 266.49 83.5882C266.854 83.3655 267.294 83.2542 267.81 83.2542C268.206 83.2542 268.538 83.3178 268.807 83.445C269.075 83.5723 269.293 83.7401 269.459 83.9486C269.628 84.1536 269.757 84.378 269.846 84.6219C269.934 84.8657 269.994 85.1043 270.026 85.3375C270.058 85.5708 270.074 85.7757 270.074 85.9524V89.1331H268.95ZM264.926 89.1331V81.4995H265.918V85.6185H266.05V89.1331H264.926Z" fill="#5D1715"/>
<g clip-path="url(#clip0_9098_16200)">
<path d="M303.34 83.9903C302.903 84.4273 302.195 84.4273 301.757 83.9903C301.32 83.5532 301.32 82.8447 301.757 82.4076C302.195 81.9706 302.903 81.9706 303.34 82.4076C303.777 82.8447 303.777 83.5532 303.34 83.9903Z" stroke="#808080" stroke-width="1.06021"/>
<path d="M299.517 80.6909C299.986 80.2226 300.632 79.9795 301.288 80.0255L303.506 80.1813C304.614 80.259 305.488 81.1336 305.566 82.2412L305.722 84.4595C305.768 85.1151 305.525 85.7619 305.057 86.2302L301.383 89.9038C300.497 90.7898 299.07 90.7994 298.196 89.9254L295.822 87.5514C294.948 86.6773 294.958 85.2505 295.844 84.3645L299.517 80.6909Z" stroke="#808080" stroke-width="1.06021" stroke-linejoin="round"/>
</g>
<path d="M317.121 88.9405C316.524 88.9405 315.995 88.8186 315.536 88.5748C315.08 88.3274 314.723 87.9828 314.465 87.541C314.207 87.0958 314.078 86.5727 314.078 85.9719V81.1533L315.202 81.148V85.9136C315.202 86.2388 315.257 86.525 315.366 86.7724C315.476 87.0198 315.622 87.2265 315.806 87.3926C315.99 87.5587 316.195 87.6842 316.421 87.769C316.651 87.8538 316.884 87.8962 317.121 87.8962C317.361 87.8962 317.594 87.8538 317.821 87.769C318.05 87.6806 318.257 87.5534 318.441 87.3873C318.625 87.2212 318.77 87.0145 318.876 86.7671C318.985 86.5197 319.04 86.2352 319.04 85.9136V81.148H320.164V85.9719C320.164 86.5692 320.035 87.0905 319.777 87.5357C319.519 87.981 319.16 88.3274 318.701 88.5748C318.245 88.8186 317.718 88.9405 317.121 88.9405ZM321.753 88.7815V81.148H322.861V88.7815H321.753ZM329.618 88.9405C329.02 88.9405 328.492 88.8186 328.033 88.5748C327.577 88.3274 327.22 87.9828 326.962 87.541C326.704 87.0958 326.575 86.5727 326.575 85.9719V81.1533L327.699 81.148V85.9136C327.699 86.2388 327.753 86.525 327.863 86.7724C327.973 87.0198 328.119 87.2265 328.303 87.3926C328.487 87.5587 328.692 87.6842 328.918 87.769C329.148 87.8538 329.381 87.8962 329.618 87.8962C329.858 87.8962 330.091 87.8538 330.317 87.769C330.547 87.6806 330.754 87.5534 330.938 87.3873C331.121 87.2212 331.266 87.0145 331.372 86.7671C331.482 86.5197 331.537 86.2352 331.537 85.9136V81.148H332.66V85.9719C332.66 86.5692 332.531 87.0905 332.274 87.5357C332.016 87.981 331.657 88.3274 331.197 88.5748C330.742 88.8186 330.215 88.9405 329.618 88.9405ZM333.507 88.7815L336.11 84.917L333.576 81.148H334.933L336.794 83.9787L338.644 81.148H340.006L337.472 84.917L340.07 88.7815H338.713L336.794 85.8606L334.87 88.7815H333.507Z" fill="#3D3D3D"/>
<path d="M37.4977 61.6572V53.5148H40.7886C40.8677 53.5148 40.9657 53.5186 41.0826 53.5261C41.1995 53.5299 41.3107 53.5412 41.4162 53.5601C41.8686 53.6317 42.2455 53.7862 42.5471 54.0237C42.8524 54.2612 43.0805 54.5609 43.2313 54.9228C43.3821 55.2847 43.4575 55.6842 43.4575 56.1215C43.4575 56.7699 43.2916 57.3297 42.9599 57.8009C42.6281 58.2683 42.1306 58.5605 41.4671 58.6773L40.9865 58.7339H38.6795V61.6572H37.4977ZM42.2587 61.6572L40.6529 58.3437L41.8459 58.0384L43.6101 61.6572H42.2587ZM38.6795 57.6143H40.7433C40.8187 57.6143 40.9017 57.6105 40.9921 57.603C41.0864 57.5954 41.175 57.5823 41.2579 57.5634C41.4991 57.5069 41.6933 57.4032 41.8403 57.2524C41.9873 57.0979 42.0929 56.9207 42.1569 56.7209C42.221 56.5211 42.2531 56.3213 42.2531 56.1215C42.2531 55.9217 42.221 55.7238 42.1569 55.5278C42.0929 55.328 41.9873 55.1527 41.8403 55.0019C41.6933 54.8474 41.4991 54.7418 41.2579 54.6853C41.175 54.6627 41.0864 54.6476 40.9921 54.6401C40.9017 54.6325 40.8187 54.6287 40.7433 54.6287H38.6795V57.6143ZM47.5614 61.8269C46.9545 61.8269 46.421 61.6949 45.9612 61.431C45.505 61.1634 45.1488 60.7921 44.8925 60.3171C44.6399 59.8384 44.5136 59.2842 44.5136 58.6547C44.5136 57.9875 44.638 57.4088 44.8868 56.9188C45.1394 56.4287 45.4899 56.0499 45.9385 55.7823C46.3871 55.5146 46.9092 55.3808 47.5048 55.3808C48.1268 55.3808 48.6564 55.5259 49.0937 55.8162C49.531 56.1027 49.8571 56.5117 50.0719 57.0432C50.2906 57.5747 50.3773 58.2061 50.332 58.9374H49.1503V58.5077C49.1427 57.799 49.007 57.275 48.7431 56.9358C48.483 56.5965 48.0853 56.4269 47.5501 56.4269C46.9582 56.4269 46.5134 56.6135 46.2156 56.9867C45.9178 57.3598 45.7689 57.8989 45.7689 58.6038C45.7689 59.2748 45.9178 59.795 46.2156 60.1645C46.5134 60.5301 46.9431 60.7129 47.5048 60.7129C47.8742 60.7129 48.1928 60.63 48.4604 60.4641C48.7318 60.2945 48.9429 60.0532 49.0937 59.7404L50.2529 60.1079C50.0154 60.6545 49.6554 61.0786 49.1729 61.3802C48.6904 61.678 48.1532 61.8269 47.5614 61.8269ZM45.3844 58.9374V58.0158H49.744V58.9374H45.3844ZM54.0264 61.8269C53.4572 61.8269 52.9653 61.6855 52.5506 61.4028C52.1397 61.1201 51.8212 60.7356 51.595 60.2493C51.3726 59.7592 51.2614 59.2088 51.2614 58.5982C51.2614 57.9837 51.3745 57.4352 51.6007 56.9527C51.8268 56.4664 52.1473 56.0838 52.5619 55.8049C52.9804 55.5221 53.4761 55.3808 54.049 55.3808C54.6258 55.3808 55.1102 55.5221 55.5022 55.8049C55.8981 56.0838 56.1959 56.4664 56.3956 56.9527C56.5992 57.439 56.701 57.9875 56.701 58.5982C56.701 59.2088 56.5992 59.7573 56.3956 60.2436C56.1921 60.7299 55.8924 61.1163 55.4966 61.4028C55.1008 61.6855 54.6107 61.8269 54.0264 61.8269ZM54.1904 60.7582C54.5787 60.7582 54.8953 60.6658 55.1404 60.4811C55.3854 60.2964 55.5644 60.0419 55.6775 59.7178C55.7906 59.3936 55.8472 59.0204 55.8472 58.5982C55.8472 58.176 55.7887 57.8028 55.6719 57.4786C55.5588 57.1544 55.3816 56.9018 55.1404 56.7209C54.9029 56.5399 54.5994 56.4495 54.23 56.4495C53.8379 56.4495 53.5156 56.5456 53.2631 56.7379C53.0105 56.9301 52.822 57.1883 52.6976 57.5125C52.577 57.8367 52.5167 58.1986 52.5167 58.5982C52.5167 59.0015 52.577 59.3672 52.6976 59.6951C52.822 60.0193 53.0067 60.2775 53.2518 60.4698C53.5006 60.662 53.8134 60.7582 54.1904 60.7582ZM55.8472 61.6572V57.2637H55.7115V53.5148H56.8989V61.6572H55.8472ZM61.1895 61.8269C60.5826 61.8269 60.0492 61.6949 59.5893 61.431C59.1331 61.1634 58.7769 60.7921 58.5206 60.3171C58.268 59.8384 58.1417 59.2842 58.1417 58.6547C58.1417 57.9875 58.2661 57.4088 58.5149 56.9188C58.7675 56.4287 59.1181 56.0499 59.5666 55.7823C60.0152 55.5146 60.5373 55.3808 61.1329 55.3808C61.7549 55.3808 62.2845 55.5259 62.7218 55.8162C63.1591 56.1027 63.4852 56.5117 63.7 57.0432C63.9187 57.5747 64.0054 58.2061 63.9602 58.9374H62.7784V58.5077C62.7708 57.799 62.6351 57.275 62.3713 56.9358C62.1111 56.5965 61.7134 56.4269 61.1782 56.4269C60.5863 56.4269 60.1415 56.6135 59.8437 56.9867C59.5459 57.3598 59.397 57.8989 59.397 58.6038C59.397 59.2748 59.5459 59.795 59.8437 60.1645C60.1415 60.5301 60.5713 60.7129 61.1329 60.7129C61.5023 60.7129 61.8209 60.63 62.0885 60.4641C62.3599 60.2945 62.571 60.0532 62.7218 59.7404L63.881 60.1079C63.6435 60.6545 63.2835 61.0786 62.801 61.3802C62.3185 61.678 61.7813 61.8269 61.1895 61.8269ZM59.0125 58.9374V58.0158H63.3721V58.9374H59.0125ZM67.5641 61.8212C66.8214 61.8212 66.2164 61.6572 65.749 61.3293C65.2816 61.0013 64.9951 60.5395 64.8895 59.9439L66.0996 59.7573C66.175 60.074 66.3484 60.3247 66.6198 60.5094C66.895 60.6903 67.2361 60.7808 67.6432 60.7808C68.0127 60.7808 68.301 60.7054 68.5084 60.5546C68.7195 60.4038 68.825 60.1965 68.825 59.9326C68.825 59.7781 68.7873 59.6537 68.7119 59.5594C68.6403 59.4614 68.4876 59.3691 68.2539 59.2824C68.0202 59.1957 67.664 59.0882 67.1852 58.9601C66.6612 58.8243 66.2447 58.6792 65.9356 58.5247C65.6302 58.3663 65.4116 58.1835 65.2797 57.9762C65.1515 57.7651 65.0874 57.5106 65.0874 57.2128C65.0874 56.8434 65.1854 56.5211 65.3814 56.2459C65.5775 55.9707 65.8527 55.7578 66.207 55.607C66.5651 55.4562 66.9835 55.3808 67.4623 55.3808C67.9297 55.3808 68.3463 55.4543 68.7119 55.6013C69.0776 55.7483 69.3735 55.9575 69.5997 56.229C69.8258 56.4966 69.9616 56.8114 70.0068 57.1732L68.7967 57.3938C68.7553 57.0997 68.6177 56.8679 68.384 56.6983C68.1502 56.5286 67.8468 56.4363 67.4736 56.4212C67.1155 56.4061 66.8252 56.4664 66.6028 56.6021C66.3804 56.7341 66.2692 56.9169 66.2692 57.1506C66.2692 57.2863 66.3107 57.4013 66.3936 57.4956C66.4803 57.5898 66.6462 57.6803 66.8912 57.767C67.1362 57.8537 67.4981 57.9573 67.9768 58.078C68.4895 58.2099 68.8966 58.3569 69.1982 58.519C69.4998 58.6773 69.7146 58.8677 69.8428 59.0901C69.9747 59.3087 70.0407 59.5745 70.0407 59.8874C70.0407 60.4905 69.8202 60.9636 69.3791 61.3067C68.9419 61.6497 68.3368 61.8212 67.5641 61.8212ZM71.4049 54.5496V53.4017H72.5867V54.5496H71.4049ZM71.4049 61.6572V55.5504H72.5867V61.6572H71.4049ZM76.801 64.541C76.473 64.541 76.1545 64.4901 75.8454 64.3883C75.54 64.2865 75.2611 64.1358 75.0085 63.936C74.7559 63.7399 74.5467 63.4968 74.3809 63.2065L75.4722 62.6524C75.6041 62.9125 75.7926 63.1029 76.0376 63.2235C76.2826 63.3441 76.5409 63.4045 76.8123 63.4045C77.1478 63.4045 77.4343 63.3441 77.6717 63.2235C77.9092 63.1067 78.0883 62.9295 78.2089 62.692C78.3333 62.4545 78.3936 62.1605 78.3899 61.8099V60.1023H78.5312V55.5504H79.5773V61.8212C79.5773 61.9833 79.5716 62.1379 79.5603 62.2849C79.549 62.4319 79.5283 62.5789 79.4981 62.7259C79.4114 63.1368 79.2456 63.4761 79.0005 63.7437C78.7593 64.0114 78.4502 64.2112 78.0732 64.3431C77.7 64.475 77.2759 64.541 76.801 64.541ZM76.7105 61.8269C76.1413 61.8269 75.6493 61.6855 75.2347 61.4028C74.8238 61.1201 74.5053 60.7356 74.2791 60.2493C74.0567 59.7592 73.9455 59.2088 73.9455 58.5982C73.9455 57.9837 74.0586 57.4352 74.2847 56.9527C74.5109 56.4664 74.8313 56.0838 75.246 55.8049C75.6644 55.5221 76.1601 55.3808 76.7331 55.3808C77.3099 55.3808 77.7943 55.5221 78.1863 55.8049C78.5821 56.0838 78.8799 56.4664 79.0797 56.9527C79.2833 57.439 79.385 57.9875 79.385 58.5982C79.385 59.2088 79.2833 59.7573 79.0797 60.2436C78.8761 60.7299 78.5765 61.1163 78.1806 61.4028C77.7848 61.6855 77.2948 61.8269 76.7105 61.8269ZM76.8745 60.7582C77.2627 60.7582 77.5794 60.6658 77.8244 60.4811C78.0694 60.2964 78.2485 60.0419 78.3616 59.7178C78.4747 59.3936 78.5312 59.0204 78.5312 58.5982C78.5312 58.176 78.4728 57.8028 78.3559 57.4786C78.2428 57.1544 78.0657 56.9018 77.8244 56.7209C77.5869 56.5399 77.2835 56.4495 76.9141 56.4495C76.522 56.4495 76.1997 56.5456 75.9471 56.7379C75.6946 56.9301 75.5061 57.1883 75.3817 57.5125C75.2611 57.8367 75.2008 58.1986 75.2008 58.5982C75.2008 59.0015 75.2611 59.3672 75.3817 59.6951C75.5061 60.0193 75.6908 60.2775 75.9358 60.4698C76.1846 60.662 76.4975 60.7582 76.8745 60.7582ZM85.4511 61.6572V58.6547C85.4511 58.4172 85.4304 58.1741 85.3889 57.9253C85.3512 57.6727 85.2758 57.439 85.1627 57.2241C85.0534 57.0093 84.897 56.8359 84.6934 56.7039C84.4936 56.572 84.2316 56.506 83.9075 56.506C83.6964 56.506 83.4966 56.5418 83.3081 56.6135C83.1196 56.6813 82.9537 56.7925 82.8105 56.9471C82.671 57.1016 82.5598 57.3052 82.4769 57.5578C82.3977 57.8103 82.3581 58.1175 82.3581 58.4794L81.6231 58.2024C81.6231 57.6482 81.7267 57.1601 81.9341 56.7379C82.1414 56.3119 82.4392 55.9802 82.8275 55.7427C83.2157 55.5052 83.6851 55.3864 84.2354 55.3864C84.6576 55.3864 85.012 55.4543 85.2985 55.59C85.5849 55.7257 85.8168 55.9048 85.994 56.1272C86.1749 56.3458 86.3125 56.5852 86.4067 56.8453C86.501 57.1054 86.5651 57.3598 86.599 57.6086C86.6329 57.8574 86.6499 58.0761 86.6499 58.2646V61.6572H85.4511ZM81.1594 61.6572V55.5504H82.2168V57.3146H82.3581V61.6572H81.1594ZM90.3867 61.6572V53.5148H91.5684V57.0262H95.6396V53.5148H96.8271V61.6572H95.6396V58.1402H91.5684V61.6572H90.3867ZM101.067 61.8269C100.457 61.8269 99.9272 61.6893 99.4786 61.4141C99.03 61.1389 98.6832 60.7601 98.4382 60.2775C98.1969 59.7913 98.0763 59.2315 98.0763 58.5982C98.0763 57.9611 98.2007 57.4013 98.4495 56.9188C98.6983 56.4325 99.047 56.0556 99.4955 55.7879C99.9441 55.5165 100.468 55.3808 101.067 55.3808C101.678 55.3808 102.208 55.5184 102.656 55.7936C103.105 56.0687 103.452 56.4476 103.697 56.9301C103.942 57.4126 104.064 57.9686 104.064 58.5982C104.064 59.2352 103.94 59.7969 103.691 60.2832C103.446 60.7657 103.099 61.1446 102.651 61.4197C102.202 61.6912 101.674 61.8269 101.067 61.8269ZM101.067 60.7129C101.652 60.7129 102.087 60.5169 102.374 60.1249C102.664 59.7291 102.809 59.2202 102.809 58.5982C102.809 57.9611 102.662 57.4522 102.368 57.0715C102.078 56.687 101.644 56.4947 101.067 56.4947C100.672 56.4947 100.346 56.5852 100.089 56.7661C99.8329 56.9433 99.6426 57.1902 99.5182 57.5069C99.3938 57.8197 99.3316 58.1835 99.3316 58.5982C99.3316 59.239 99.4786 59.7517 99.7726 60.1362C100.067 60.5207 100.498 60.7129 101.067 60.7129ZM112.624 61.6572L112.629 57.8518C112.629 57.4107 112.516 57.0677 112.29 56.8227C112.064 56.5739 111.766 56.4495 111.397 56.4495C111.171 56.4495 110.963 56.5023 110.775 56.6078C110.59 56.7096 110.439 56.8641 110.322 57.0715C110.209 57.275 110.153 57.5314 110.153 57.8405L109.582 57.5521C109.574 57.1224 109.665 56.7454 109.853 56.4212C110.045 56.097 110.305 55.8463 110.633 55.6692C110.961 55.4882 111.329 55.3978 111.736 55.3978C112.396 55.3978 112.906 55.5957 113.268 55.9915C113.63 56.3873 113.811 56.9131 113.811 57.5691L113.806 61.6572H112.624ZM105.301 61.6572V55.5504H106.353V57.3146H106.489V61.6572H105.301ZM108.965 61.6572L108.971 57.8744C108.971 57.4296 108.858 57.0809 108.632 56.8283C108.409 56.5758 108.11 56.4495 107.733 56.4495C107.359 56.4495 107.058 56.5776 106.828 56.834C106.602 57.0903 106.489 57.4258 106.489 57.8405L105.923 57.4786C105.923 57.079 106.019 56.7228 106.212 56.4099C106.404 56.097 106.664 55.8501 106.992 55.6692C107.32 55.4882 107.691 55.3978 108.106 55.3978C108.539 55.3978 108.909 55.4901 109.214 55.6748C109.519 55.8558 109.751 56.1102 109.91 56.4382C110.072 56.7661 110.153 57.1469 110.153 57.5804L110.147 61.6572H108.965ZM117.911 61.8269C117.304 61.8269 116.77 61.6949 116.31 61.431C115.854 61.1634 115.498 60.7921 115.242 60.3171C114.989 59.8384 114.863 59.2842 114.863 58.6547C114.863 57.9875 114.987 57.4088 115.236 56.9188C115.489 56.4287 115.839 56.0499 116.288 55.7823C116.736 55.5146 117.259 55.3808 117.854 55.3808C118.476 55.3808 119.006 55.5259 119.443 55.8162C119.88 56.1027 120.206 56.5117 120.421 57.0432C120.64 57.5747 120.727 58.2061 120.681 58.9374H119.5V58.5077C119.492 57.799 119.356 57.275 119.092 56.9358C118.832 56.5965 118.435 56.4269 117.899 56.4269C117.308 56.4269 116.863 56.6135 116.565 56.9867C116.267 57.3598 116.118 57.8989 116.118 58.6038C116.118 59.2748 116.267 59.795 116.565 60.1645C116.863 60.5301 117.292 60.7129 117.854 60.7129C118.224 60.7129 118.542 60.63 118.81 60.4641C119.081 60.2945 119.292 60.0532 119.443 59.7404L120.602 60.1079C120.365 60.6545 120.005 61.0786 119.522 61.3802C119.04 61.678 118.503 61.8269 117.911 61.8269ZM115.734 58.9374V58.0158H120.093V58.9374H115.734ZM127.46 61.8269C126.823 61.8269 126.259 61.6968 125.769 61.4367C125.283 61.1728 124.902 60.8053 124.627 60.3341C124.352 59.8591 124.214 59.3012 124.214 58.6604V53.5205L125.413 53.5148V58.5982C125.413 58.945 125.471 59.2503 125.588 59.5142C125.705 59.7781 125.861 59.9986 126.057 60.1758C126.253 60.3529 126.472 60.4868 126.713 60.5772C126.958 60.6677 127.207 60.7129 127.46 60.7129C127.716 60.7129 127.965 60.6677 128.206 60.5772C128.451 60.483 128.672 60.3473 128.868 60.1701C129.064 59.9929 129.218 59.7724 129.331 59.5085C129.448 59.2447 129.507 58.9412 129.507 58.5982V53.5148H130.705V58.6604C130.705 59.2974 130.568 59.8535 130.293 60.3284C130.017 60.8034 129.635 61.1728 129.145 61.4367C128.658 61.6968 128.097 61.8269 127.46 61.8269ZM132.4 61.6572V53.5148H133.582V61.6572H132.4Z" fill="#3D3D3D"/>
<path d="M20.5416 56.3904C20.3072 56.1568 19.9274 56.1568 19.6931 56.3904C19.4586 56.6241 19.4586 57.0031 19.6931 57.2368L22.8695 60.4029C23.1039 60.6365 23.4837 60.6365 23.718 60.4029L26.8945 57.2368C27.129 57.0031 27.129 56.6241 26.8945 56.3904C26.6602 56.1568 26.2803 56.1568 26.046 56.3904L23.2938 59.1336L20.5416 56.3904Z" fill="#808080" stroke="#808080" stroke-width="0.141361" stroke-linecap="round" stroke-linejoin="round"/>
<path d="M18.0195 155.042C18.6183 156.967 20.2298 158.45 22.233 158.859" stroke="#808080" stroke-width="1.06021" stroke-miterlimit="10" stroke-linecap="round" stroke-linejoin="round"/>
<path d="M17.7959 152.81C18.0813 149.984 20.465 147.785 23.3635 147.785C26.262 147.785 28.6457 149.99 28.931 152.81" stroke="#808080" stroke-width="1.06021" stroke-miterlimit="10" stroke-linecap="round" stroke-linejoin="round"/>
<path d="M24.4873 158.864C26.4849 158.456 28.0908 156.99 28.7008 155.07" stroke="#808080" stroke-width="1.06021" stroke-miterlimit="10" stroke-linecap="round" stroke-linejoin="round"/>
<rect x="33.6113" y="142.778" width="70.445" height="21.2042" rx="10.6021" fill="#D3E5EF"/>
<circle cx="43.5064" cy="153.38" r="1.41361" fill="#5B97BD"/>
<path d="M51.3164 157.38V149.747H54.4016C54.4758 149.747 54.5677 149.75 54.6772 149.757C54.7868 149.761 54.891 149.772 54.99 149.789C55.4141 149.856 55.7675 150.001 56.0502 150.224C56.3365 150.447 56.5503 150.728 56.6916 151.067C56.833 151.406 56.9037 151.781 56.9037 152.191C56.9037 152.604 56.833 152.981 56.6916 153.32C56.5503 153.659 56.3365 153.94 56.0502 154.163C55.7675 154.385 55.4141 154.53 54.99 154.597C54.891 154.611 54.785 154.622 54.6719 154.629C54.5624 154.636 54.4723 154.64 54.4016 154.64H52.4243V157.38H51.3164ZM52.4243 153.59H54.3592C54.4298 153.59 54.5076 153.587 54.5924 153.58C54.6808 153.572 54.7638 153.56 54.8416 153.542C55.0677 153.489 55.2497 153.392 55.3876 153.251C55.5254 153.106 55.6243 152.94 55.6844 152.753C55.7445 152.565 55.7745 152.378 55.7745 152.191C55.7745 152.003 55.7445 151.818 55.6844 151.634C55.6243 151.447 55.5254 151.282 55.3876 151.141C55.2497 150.996 55.0677 150.897 54.8416 150.844C54.7638 150.823 54.6808 150.809 54.5924 150.802C54.5076 150.795 54.4298 150.791 54.3592 150.791H52.4243V153.59ZM58.0694 157.38V149.588H59.1773V157.38H58.0694ZM62.386 157.539C61.9619 157.539 61.6068 157.462 61.3205 157.306C61.0343 157.147 60.8169 156.939 60.6685 156.681C60.5236 156.419 60.4511 156.133 60.4511 155.822C60.4511 155.532 60.5024 155.278 60.6049 155.059C60.7074 154.839 60.8593 154.654 61.0608 154.502C61.2622 154.346 61.5096 154.221 61.8029 154.126C62.0574 154.051 62.3454 153.986 62.667 153.929C62.9886 153.873 63.3261 153.82 63.6795 153.77C64.0364 153.721 64.3898 153.671 64.7397 153.622L64.3368 153.845C64.3439 153.396 64.2485 153.064 64.0506 152.848C63.8562 152.629 63.5205 152.519 63.0434 152.519C62.743 152.519 62.4673 152.59 62.2164 152.731C61.9655 152.869 61.7905 153.099 61.6916 153.42L60.6579 153.102C60.7992 152.611 61.0678 152.221 61.4636 151.931C61.863 151.641 62.3931 151.496 63.054 151.496C63.5664 151.496 64.0117 151.585 64.3898 151.761C64.7715 151.934 65.0507 152.21 65.2274 152.588C65.3193 152.776 65.3758 152.973 65.397 153.182C65.4182 153.39 65.4288 153.615 65.4288 153.855V157.38H64.4481V156.071L64.639 156.241C64.4022 156.679 64.1 157.006 63.7325 157.221C63.3685 157.433 62.9197 157.539 62.386 157.539ZM62.5822 156.633C62.8967 156.633 63.167 156.578 63.3932 156.469C63.6194 156.356 63.8014 156.212 63.9392 156.039C64.0771 155.866 64.1672 155.686 64.2096 155.498C64.2697 155.329 64.3032 155.138 64.3103 154.926C64.3209 154.714 64.3262 154.544 64.3262 154.417L64.6867 154.55C64.3368 154.603 64.0187 154.65 63.7325 154.693C63.4462 154.735 63.1865 154.778 62.9532 154.82C62.7235 154.859 62.5186 154.907 62.3383 154.963C62.1864 155.016 62.0503 155.08 61.9301 155.154C61.8135 155.228 61.7199 155.318 61.6492 155.424C61.582 155.53 61.5485 155.659 61.5485 155.811C61.5485 155.96 61.5856 156.098 61.6598 156.225C61.734 156.348 61.8471 156.447 61.9991 156.522C62.151 156.596 62.3454 156.633 62.5822 156.633ZM70.8236 157.38V154.566C70.8236 154.343 70.8041 154.115 70.7652 153.882C70.7299 153.645 70.6592 153.426 70.5532 153.224C70.4507 153.023 70.3041 152.86 70.1132 152.737C69.9259 152.613 69.6803 152.551 69.3764 152.551C69.1785 152.551 68.9912 152.585 68.8145 152.652C68.6378 152.715 68.4823 152.82 68.348 152.965C68.2172 153.109 68.113 153.3 68.0352 153.537C67.961 153.774 67.9239 154.062 67.9239 154.401L67.2347 154.141C67.2347 153.622 67.3319 153.164 67.5263 152.768C67.7207 152.369 67.9999 152.058 68.3639 151.835C68.7279 151.613 69.1679 151.502 69.6838 151.502C70.0796 151.502 70.4118 151.565 70.6804 151.692C70.949 151.82 71.1664 151.987 71.3325 152.196C71.5021 152.401 71.6311 152.625 71.7194 152.869C71.8078 153.113 71.8679 153.352 71.8997 153.585C71.9315 153.818 71.9474 154.023 71.9474 154.2V157.38H70.8236ZM66.8001 157.38V151.655H67.7914V153.309H67.9239V157.38H66.8001ZM77.3463 157.38V154.566C77.3463 154.343 77.3269 154.115 77.288 153.882C77.2527 153.645 77.182 153.426 77.076 153.224C76.9735 153.023 76.8268 152.86 76.636 152.737C76.4487 152.613 76.2031 152.551 75.8991 152.551C75.7012 152.551 75.5139 152.585 75.3372 152.652C75.1605 152.715 75.005 152.82 74.8707 152.965C74.74 153.109 74.6357 153.3 74.558 153.537C74.4838 153.774 74.4467 154.062 74.4467 154.401L73.7575 154.141C73.7575 153.622 73.8547 153.164 74.0491 152.768C74.2434 152.369 74.5226 152.058 74.8866 151.835C75.2506 151.613 75.6906 151.502 76.2066 151.502C76.6024 151.502 76.9346 151.565 77.2032 151.692C77.4718 151.82 77.6891 151.987 77.8552 152.196C78.0249 152.401 78.1539 152.625 78.2422 152.869C78.3306 153.113 78.3906 153.352 78.4224 153.585C78.4542 153.818 78.4701 154.023 78.4701 154.2V157.38H77.3463ZM73.3228 157.38V151.655H74.3141V153.309H74.4467V157.38H73.3228ZM79.9569 150.717V149.641H81.0648V150.717H79.9569ZM79.9569 157.38V151.655H81.0648V157.38H79.9569ZM86.6749 157.38V154.566C86.6749 154.343 86.6555 154.115 86.6166 153.882C86.5813 153.645 86.5106 153.426 86.4046 153.224C86.3021 153.023 86.1554 152.86 85.9646 152.737C85.7773 152.613 85.5317 152.551 85.2277 152.551C85.0298 152.551 84.8425 152.585 84.6658 152.652C84.4891 152.715 84.3336 152.82 84.1993 152.965C84.0686 153.109 83.9643 153.3 83.8866 153.537C83.8124 153.774 83.7753 154.062 83.7753 154.401L83.0861 154.141C83.0861 153.622 83.1833 153.164 83.3777 152.768C83.572 152.369 83.8512 152.058 84.2152 151.835C84.5792 151.613 85.0192 151.502 85.5352 151.502C85.931 151.502 86.2632 151.565 86.5318 151.692C86.8004 151.82 87.0177 151.987 87.1838 152.196C87.3535 152.401 87.4825 152.625 87.5708 152.869C87.6592 153.113 87.7192 153.352 87.751 153.585C87.7828 153.818 87.7987 154.023 87.7987 154.2V157.38H86.6749ZM82.6514 157.38V151.655H83.6427V153.309H83.7753V157.38H82.6514ZM91.5385 160.084C91.231 160.084 90.9324 160.036 90.6426 159.941C90.3563 159.845 90.0948 159.704 89.858 159.517C89.6213 159.333 89.4251 159.105 89.2696 158.833L90.2927 158.313C90.4164 158.557 90.5931 158.736 90.8228 158.849C91.0525 158.962 91.2946 159.018 91.5491 159.018C91.8636 159.018 92.1322 158.962 92.3548 158.849C92.5775 158.739 92.7453 158.573 92.8584 158.35C92.9751 158.128 93.0316 157.852 93.0281 157.523V155.923H93.1606V151.655H94.1413V157.534C94.1413 157.686 94.136 157.831 94.1254 157.969C94.1148 158.107 94.0953 158.244 94.0671 158.382C93.9858 158.767 93.8303 159.086 93.6006 159.336C93.3744 159.587 93.0846 159.775 92.7312 159.898C92.3813 160.022 91.9838 160.084 91.5385 160.084ZM91.4537 157.539C90.92 157.539 90.4588 157.407 90.0701 157.142C89.6849 156.877 89.3862 156.516 89.1742 156.06C88.9657 155.601 88.8614 155.085 88.8614 154.513C88.8614 153.936 88.9675 153.422 89.1795 152.97C89.3915 152.514 89.6919 152.155 90.0807 151.894C90.473 151.629 90.9377 151.496 91.4749 151.496C92.0156 151.496 92.4697 151.629 92.8372 151.894C93.2083 152.155 93.4875 152.514 93.6748 152.97C93.8656 153.426 93.961 153.94 93.961 154.513C93.961 155.085 93.8656 155.599 93.6748 156.055C93.484 156.511 93.203 156.873 92.8319 157.142C92.4609 157.407 92.0014 157.539 91.4537 157.539ZM91.6074 156.538C91.9714 156.538 92.2682 156.451 92.498 156.278C92.7277 156.105 92.8955 155.866 93.0016 155.562C93.1076 155.258 93.1606 154.908 93.1606 154.513C93.1606 154.117 93.1058 153.767 92.9963 153.463C92.8902 153.159 92.7241 152.922 92.498 152.753C92.2753 152.583 91.9908 152.498 91.6445 152.498C91.277 152.498 90.9748 152.588 90.738 152.768C90.5012 152.949 90.3245 153.191 90.2079 153.495C90.0948 153.799 90.0383 154.138 90.0383 154.513C90.0383 154.891 90.0948 155.233 90.2079 155.541C90.3245 155.845 90.4977 156.087 90.7274 156.267C90.9607 156.447 91.254 156.538 91.6074 156.538Z" fill="#183347"/>
<path d="M119.29 147.433V149.112" stroke="#808080" stroke-width="1.06021" stroke-miterlimit="10" stroke-linecap="round" stroke-linejoin="round"/>
<path d="M123.766 147.433V149.112" stroke="#808080" stroke-width="1.06021" stroke-miterlimit="10" stroke-linecap="round" stroke-linejoin="round"/>
<path d="M116.771 151.401H126.284" stroke="#808080" stroke-width="1.06021" stroke-miterlimit="10" stroke-linecap="round" stroke-linejoin="round"/>
<path d="M126.564 151.07V155.827C126.564 157.505 125.725 158.624 123.766 158.624H119.29C117.332 158.624 116.492 157.505 116.492 155.827V151.07C116.492 149.392 117.332 148.273 119.29 148.273H123.766C125.725 148.273 126.564 149.392 126.564 151.07Z" stroke="#808080" stroke-width="1.06021" stroke-miterlimit="10" stroke-linecap="round" stroke-linejoin="round"/>
<path d="M123.595 153.98H123.6" stroke="#808080" stroke-width="1.06021" stroke-linecap="round" stroke-linejoin="round"/>
<path d="M123.595 155.659H123.6" stroke="#808080" stroke-width="1.06021" stroke-linecap="round" stroke-linejoin="round"/>
<path d="M121.526 153.98H121.531" stroke="#808080" stroke-width="1.06021" stroke-linecap="round" stroke-linejoin="round"/>
<path d="M121.526 155.659H121.531" stroke="#808080" stroke-width="1.06021" stroke-linecap="round" stroke-linejoin="round"/>
<path d="M119.454 153.98H119.459" stroke="#808080" stroke-width="1.06021" stroke-linecap="round" stroke-linejoin="round"/>
<path d="M119.454 155.659H119.459" stroke="#808080" stroke-width="1.06021" stroke-linecap="round" stroke-linejoin="round"/>
<path d="M132.518 157.029V149.395H137.039V150.503H133.625V152.655H136.403V153.769H133.625V157.029H132.518ZM137.995 157.029V151.304H138.981V152.693L138.843 152.512C138.913 152.329 139.005 152.161 139.118 152.009C139.232 151.853 139.362 151.726 139.511 151.627C139.656 151.521 139.816 151.44 139.993 151.383C140.173 151.323 140.357 151.288 140.544 151.277C140.732 151.263 140.912 151.272 141.085 151.304V152.343C140.898 152.293 140.689 152.279 140.46 152.3C140.233 152.321 140.025 152.394 139.834 152.518C139.654 152.634 139.511 152.776 139.405 152.942C139.302 153.108 139.228 153.293 139.182 153.498C139.136 153.7 139.113 153.914 139.113 154.14V157.029H137.995ZM142.201 150.365V149.289H143.309V150.365H142.201ZM142.201 157.029V151.304H143.309V157.029H142.201ZM144.794 158.296L144.863 157.803C145.015 157.813 145.134 157.785 145.219 157.718C145.303 157.651 145.36 157.557 145.388 157.437C145.416 157.317 145.422 157.181 145.404 157.029H144.794V155.751H145.966V157.135C145.966 157.552 145.865 157.866 145.664 158.078C145.466 158.29 145.176 158.363 144.794 158.296ZM150.098 157.029V149.395H151.1L153.867 155.136L156.618 149.395H157.631V157.024H156.581V151.802L154.116 157.029H153.613L151.142 151.802V157.029H150.098ZM160.733 157.188C160.309 157.188 159.954 157.11 159.667 156.955C159.381 156.796 159.164 156.587 159.015 156.329C158.87 156.068 158.798 155.781 158.798 155.47C158.798 155.181 158.849 154.926 158.952 154.707C159.054 154.488 159.206 154.302 159.408 154.15C159.609 153.995 159.856 153.869 160.15 153.774C160.404 153.7 160.692 153.634 161.014 153.578C161.335 153.521 161.673 153.468 162.026 153.419C162.383 153.369 162.737 153.32 163.086 153.27L162.684 153.493C162.691 153.044 162.595 152.712 162.397 152.496C162.203 152.277 161.867 152.168 161.39 152.168C161.09 152.168 160.814 152.238 160.563 152.38C160.312 152.518 160.137 152.747 160.038 153.069L159.005 152.751C159.146 152.26 159.415 151.869 159.81 151.579C160.21 151.29 160.74 151.145 161.401 151.145C161.913 151.145 162.358 151.233 162.737 151.41C163.118 151.583 163.397 151.859 163.574 152.237C163.666 152.424 163.723 152.622 163.744 152.83C163.765 153.039 163.776 153.263 163.776 153.504V157.029H162.795V155.719L162.986 155.889C162.749 156.327 162.447 156.654 162.079 156.87C161.715 157.082 161.266 157.188 160.733 157.188ZM160.929 156.281C161.243 156.281 161.514 156.227 161.74 156.117C161.966 156.004 162.148 155.861 162.286 155.688C162.424 155.514 162.514 155.334 162.556 155.147C162.616 154.977 162.65 154.786 162.657 154.574C162.668 154.362 162.673 154.193 162.673 154.066L163.033 154.198C162.684 154.251 162.365 154.299 162.079 154.341C161.793 154.384 161.533 154.426 161.3 154.468C161.07 154.507 160.865 154.555 160.685 154.612C160.533 154.665 160.397 154.728 160.277 154.802C160.16 154.877 160.067 154.967 159.996 155.073C159.929 155.179 159.895 155.308 159.895 155.46C159.895 155.608 159.932 155.746 160.007 155.873C160.081 155.997 160.194 156.096 160.346 156.17C160.498 156.244 160.692 156.281 160.929 156.281ZM165.152 157.029V151.304H166.138V152.693L166 152.512C166.071 152.329 166.163 152.161 166.276 152.009C166.389 151.853 166.52 151.726 166.668 151.627C166.813 151.521 166.974 151.44 167.151 151.383C167.331 151.323 167.515 151.288 167.702 151.277C167.889 151.263 168.069 151.272 168.243 151.304V152.343C168.055 152.293 167.847 152.279 167.617 152.3C167.391 152.321 167.182 152.394 166.992 152.518C166.811 152.634 166.668 152.776 166.562 152.942C166.46 153.108 166.385 153.293 166.34 153.498C166.294 153.7 166.271 153.914 166.271 154.14V157.029H165.152ZM171.163 157.024L171.168 156.038L174.492 153.058C174.76 152.822 174.942 152.595 175.038 152.38C175.137 152.164 175.186 151.949 175.186 151.733C175.186 151.461 175.126 151.217 175.006 151.002C174.886 150.782 174.72 150.609 174.508 150.482C174.296 150.355 174.052 150.291 173.776 150.291C173.493 150.291 173.241 150.358 173.018 150.493C172.799 150.623 172.627 150.798 172.504 151.017C172.38 151.237 172.32 151.473 172.324 151.728H171.189C171.189 151.233 171.3 150.8 171.523 150.429C171.749 150.054 172.058 149.763 172.451 149.554C172.843 149.342 173.292 149.236 173.797 149.236C174.278 149.236 174.709 149.346 175.091 149.565C175.472 149.781 175.773 150.077 175.992 150.456C176.214 150.834 176.326 151.265 176.326 151.749C176.326 152.099 176.28 152.396 176.188 152.64C176.096 152.883 175.958 153.11 175.774 153.318C175.591 153.527 175.361 153.753 175.085 153.997L172.52 156.287L172.398 155.969H176.326V157.024H171.163ZM179.861 157.188C179.468 157.188 179.103 157.108 178.763 156.949C178.428 156.787 178.14 156.564 177.899 156.281C177.659 155.995 177.488 155.666 177.385 155.295L178.451 155.009C178.511 155.235 178.613 155.431 178.758 155.598C178.907 155.764 179.08 155.893 179.278 155.985C179.475 156.073 179.68 156.117 179.892 156.117C180.172 156.117 180.424 156.05 180.651 155.916C180.88 155.781 181.06 155.601 181.191 155.375C181.326 155.149 181.393 154.9 181.393 154.627C181.393 154.348 181.324 154.096 181.186 153.869C181.052 153.643 180.87 153.465 180.64 153.334C180.414 153.2 180.165 153.133 179.892 153.133C179.582 153.133 179.318 153.194 179.103 153.318C178.887 153.442 178.719 153.585 178.599 153.747L177.634 153.408L177.867 149.395H181.986V150.44H178.435L178.885 150.021L178.7 153.027L178.482 152.746C178.684 152.544 178.924 152.39 179.203 152.284C179.483 152.178 179.76 152.125 180.036 152.125C180.509 152.125 180.932 152.235 181.303 152.454C181.677 152.673 181.972 152.972 182.188 153.35C182.403 153.724 182.511 154.15 182.511 154.627C182.511 155.101 182.389 155.532 182.145 155.921C181.902 156.306 181.578 156.614 181.175 156.843C180.772 157.073 180.334 157.188 179.861 157.188Z" fill="#3D3D3D"/>
<path d="M198.406 147.459V158.599" stroke="#808080" stroke-width="1.06021" stroke-miterlimit="10" stroke-linecap="round" stroke-linejoin="round"/>
<path d="M198.406 148.573H204.665C206.174 148.573 206.509 149.408 205.447 150.467L204.777 151.135C204.33 151.581 204.33 152.305 204.777 152.695L205.447 153.363C206.509 154.421 206.118 155.257 204.665 155.257H198.406" stroke="#808080" stroke-width="1.06021" stroke-miterlimit="10" stroke-linecap="round" stroke-linejoin="round"/>
<rect x="212.47" y="142.827" width="40.2353" height="21.1075" rx="10.5537" fill="#DBEDDB"/>
<path d="M223.336 157.38V149.747H224.444V156.336H227.9V157.38H223.336ZM231.286 157.539C230.714 157.539 230.217 157.41 229.797 157.152C229.376 156.894 229.051 156.539 228.821 156.087C228.595 155.631 228.482 155.106 228.482 154.513C228.482 153.915 228.599 153.39 228.832 152.938C229.065 152.482 229.392 152.129 229.813 151.878C230.233 151.623 230.724 151.496 231.286 151.496C231.859 151.496 232.355 151.625 232.776 151.883C233.196 152.141 233.522 152.496 233.751 152.949C233.981 153.401 234.096 153.922 234.096 154.513C234.096 155.11 233.979 155.636 233.746 156.092C233.516 156.545 233.191 156.9 232.771 157.158C232.35 157.412 231.855 157.539 231.286 157.539ZM231.286 156.495C231.834 156.495 232.242 156.311 232.511 155.944C232.783 155.573 232.919 155.096 232.919 154.513C232.919 153.915 232.781 153.438 232.506 153.081C232.233 152.721 231.827 152.541 231.286 152.541C230.915 152.541 230.61 152.625 230.369 152.795C230.129 152.961 229.95 153.193 229.834 153.489C229.717 153.783 229.659 154.124 229.659 154.513C229.659 155.113 229.797 155.594 230.072 155.954C230.348 156.315 230.753 156.495 231.286 156.495ZM236.273 157.38L234.524 151.65L235.621 151.655L236.819 155.583L238.028 151.655H238.982L240.19 155.583L241.388 151.655H242.48L240.731 157.38H239.841L238.505 153.235L237.163 157.38H236.273Z" fill="#1C3829"/>
<g clip-path="url(#clip1_9098_16200)">
<path d="M270.135 152.238C269.698 152.675 268.989 152.675 268.552 152.238C268.115 151.801 268.115 151.092 268.552 150.655C268.989 150.218 269.698 150.218 270.135 150.655C270.572 151.092 270.572 151.801 270.135 152.238Z" stroke="#808080" stroke-width="1.06021"/>
<path d="M266.311 148.938C266.78 148.47 267.426 148.227 268.082 148.273L270.3 148.429C271.408 148.506 272.282 149.381 272.36 150.489L272.516 152.707C272.562 153.362 272.319 154.009 271.851 154.477L268.177 158.151C267.291 159.037 265.864 159.047 264.99 158.173L262.616 155.799C261.742 154.925 261.752 153.498 262.638 152.612L266.311 148.938Z" stroke="#808080" stroke-width="1.06021" stroke-linejoin="round"/>
</g>
<path d="M280.872 157.029V149.395H283.263C283.333 149.395 283.464 149.397 283.655 149.401C283.849 149.404 284.035 149.418 284.212 149.443C284.809 149.517 285.311 149.731 285.717 150.084C286.127 150.438 286.436 150.887 286.645 151.431C286.853 151.972 286.958 152.565 286.958 153.212C286.958 153.862 286.853 154.46 286.645 155.004C286.436 155.545 286.127 155.992 285.717 156.345C285.311 156.695 284.809 156.907 284.212 156.981C284.035 157.006 283.849 157.02 283.655 157.024C283.464 157.027 283.333 157.029 283.263 157.029H280.872ZM282.006 155.974H283.263C283.383 155.974 283.526 155.97 283.692 155.963C283.858 155.956 284.005 155.942 284.132 155.921C284.521 155.847 284.835 155.679 285.076 155.417C285.32 155.152 285.498 154.827 285.611 154.442C285.724 154.057 285.781 153.647 285.781 153.212C285.781 152.763 285.722 152.348 285.606 151.966C285.489 151.581 285.309 151.26 285.065 151.002C284.825 150.74 284.514 150.574 284.132 150.503C284.005 150.478 283.857 150.464 283.687 150.461C283.521 150.454 283.379 150.45 283.263 150.45H282.006V155.974ZM290.731 157.188C290.162 157.188 289.662 157.064 289.231 156.817C288.803 156.566 288.469 156.218 288.229 155.772C287.992 155.324 287.874 154.804 287.874 154.214C287.874 153.588 287.991 153.046 288.224 152.587C288.461 152.127 288.789 151.772 289.21 151.521C289.63 151.27 290.12 151.145 290.678 151.145C291.261 151.145 291.758 151.281 292.168 151.553C292.578 151.821 292.883 152.205 293.085 152.703C293.29 153.201 293.371 153.793 293.329 154.479H292.221V154.076C292.214 153.412 292.087 152.92 291.839 152.602C291.595 152.284 291.222 152.125 290.721 152.125C290.166 152.125 289.749 152.3 289.47 152.65C289.19 153 289.051 153.505 289.051 154.166C289.051 154.795 289.19 155.283 289.47 155.629C289.749 155.972 290.152 156.144 290.678 156.144C291.025 156.144 291.323 156.066 291.574 155.91C291.829 155.751 292.026 155.525 292.168 155.232L293.255 155.576C293.032 156.089 292.694 156.486 292.242 156.769C291.79 157.048 291.286 157.188 290.731 157.188ZM288.69 154.479V153.615H292.777V154.479H288.69ZM295.859 157.029L293.781 151.304H294.899L296.421 155.64L297.942 151.304H299.061L296.983 157.029H295.859ZM302.348 157.188C301.779 157.188 301.279 157.064 300.848 156.817C300.42 156.566 300.086 156.218 299.846 155.772C299.609 155.324 299.491 154.804 299.491 154.214C299.491 153.588 299.607 153.046 299.841 152.587C300.077 152.127 300.406 151.772 300.827 151.521C301.247 151.27 301.737 151.145 302.295 151.145C302.878 151.145 303.375 151.281 303.785 151.553C304.195 151.821 304.5 152.205 304.702 152.703C304.907 153.201 304.988 153.793 304.945 154.479H303.838V154.076C303.831 153.412 303.703 152.92 303.456 152.602C303.212 152.284 302.839 152.125 302.337 152.125C301.783 152.125 301.366 152.3 301.086 152.65C300.807 153 300.668 153.505 300.668 154.166C300.668 154.795 300.807 155.283 301.086 155.629C301.366 155.972 301.768 156.144 302.295 156.144C302.641 156.144 302.94 156.066 303.191 155.91C303.445 155.751 303.643 155.525 303.785 155.232L304.871 155.576C304.649 156.089 304.311 156.486 303.859 156.769C303.406 157.048 302.903 157.188 302.348 157.188ZM300.307 154.479V153.615H304.394V154.479H300.307ZM306.241 157.029V149.236H307.349V157.029H306.241ZM311.427 157.188C310.854 157.188 310.358 157.059 309.937 156.801C309.517 156.543 309.192 156.188 308.962 155.735C308.736 155.279 308.623 154.755 308.623 154.161C308.623 153.564 308.739 153.039 308.972 152.587C309.206 152.131 309.533 151.777 309.953 151.526C310.374 151.272 310.865 151.145 311.427 151.145C311.999 151.145 312.496 151.274 312.916 151.532C313.337 151.79 313.662 152.145 313.892 152.597C314.122 153.049 314.236 153.571 314.236 154.161C314.236 154.758 314.12 155.285 313.887 155.741C313.657 156.193 313.332 156.548 312.911 156.806C312.491 157.061 311.996 157.188 311.427 157.188ZM311.427 156.144C311.975 156.144 312.383 155.96 312.651 155.592C312.924 155.221 313.06 154.744 313.06 154.161C313.06 153.564 312.922 153.087 312.646 152.73C312.374 152.369 311.968 152.189 311.427 152.189C311.056 152.189 310.75 152.274 310.51 152.443C310.269 152.61 310.091 152.841 309.974 153.138C309.858 153.431 309.799 153.772 309.799 154.161C309.799 154.762 309.937 155.242 310.213 155.603C310.489 155.963 310.893 156.144 311.427 156.144ZM318.089 157.188C317.541 157.188 317.082 157.055 316.711 156.79C316.34 156.522 316.059 156.159 315.868 155.704C315.677 155.248 315.582 154.733 315.582 154.161C315.582 153.588 315.675 153.074 315.863 152.618C316.053 152.162 316.333 151.804 316.7 151.542C317.071 151.277 317.527 151.145 318.068 151.145C318.605 151.145 319.068 151.277 319.457 151.542C319.849 151.804 320.151 152.162 320.363 152.618C320.575 153.071 320.681 153.585 320.681 154.161C320.681 154.733 320.575 155.249 320.363 155.709C320.155 156.165 319.856 156.525 319.467 156.79C319.082 157.055 318.623 157.188 318.089 157.188ZM315.396 159.573V151.304H316.382V155.423H316.509V159.573H315.396ZM317.935 156.186C318.289 156.186 318.58 156.096 318.81 155.916C319.043 155.735 319.216 155.493 319.329 155.189C319.446 154.882 319.504 154.539 319.504 154.161C319.504 153.786 319.446 153.447 319.329 153.143C319.216 152.839 319.041 152.597 318.805 152.417C318.568 152.237 318.266 152.147 317.898 152.147C317.552 152.147 317.266 152.231 317.039 152.401C316.817 152.571 316.651 152.807 316.541 153.111C316.435 153.415 316.382 153.765 316.382 154.161C316.382 154.557 316.435 154.907 316.541 155.211C316.647 155.514 316.815 155.753 317.045 155.926C317.274 156.099 317.571 156.186 317.935 156.186ZM328.711 157.029L328.716 153.461C328.716 153.048 328.61 152.726 328.398 152.496C328.186 152.263 327.907 152.147 327.561 152.147C327.349 152.147 327.154 152.196 326.978 152.295C326.805 152.39 326.663 152.535 326.554 152.73C326.448 152.92 326.395 153.161 326.395 153.451L325.859 153.18C325.852 152.777 325.937 152.424 326.114 152.12C326.294 151.816 326.538 151.581 326.845 151.415C327.153 151.245 327.497 151.161 327.879 151.161C328.497 151.161 328.976 151.346 329.315 151.717C329.655 152.088 329.824 152.581 329.824 153.196L329.819 157.029H328.711ZM321.846 157.029V151.304H322.832V152.958H322.96V157.029H321.846ZM325.281 157.029L325.287 153.482C325.287 153.065 325.181 152.738 324.969 152.502C324.76 152.265 324.479 152.147 324.126 152.147C323.776 152.147 323.493 152.267 323.278 152.507C323.066 152.747 322.96 153.062 322.96 153.451L322.429 153.111C322.429 152.737 322.52 152.403 322.7 152.109C322.88 151.816 323.124 151.585 323.431 151.415C323.739 151.245 324.087 151.161 324.476 151.161C324.882 151.161 325.228 151.247 325.515 151.42C325.801 151.59 326.018 151.828 326.167 152.136C326.319 152.443 326.395 152.8 326.395 153.207L326.389 157.029H325.281ZM333.668 157.188C333.099 157.188 332.599 157.064 332.167 156.817C331.74 156.566 331.406 156.218 331.166 155.772C330.929 155.324 330.81 154.804 330.81 154.214C330.81 153.588 330.927 153.046 331.16 152.587C331.397 152.127 331.726 151.772 332.146 151.521C332.567 151.27 333.056 151.145 333.615 151.145C334.198 151.145 334.694 151.281 335.104 151.553C335.514 151.821 335.82 152.205 336.021 152.703C336.226 153.201 336.308 153.793 336.265 154.479H335.157V154.076C335.15 153.412 335.023 152.92 334.776 152.602C334.532 152.284 334.159 152.125 333.657 152.125C333.102 152.125 332.685 152.3 332.406 152.65C332.127 153 331.987 153.505 331.987 154.166C331.987 154.795 332.127 155.283 332.406 155.629C332.685 155.972 333.088 156.144 333.615 156.144C333.961 156.144 334.26 156.066 334.511 155.91C334.765 155.751 334.963 155.525 335.104 155.232L336.191 155.576C335.968 156.089 335.631 156.486 335.178 156.769C334.726 157.048 334.222 157.188 333.668 157.188ZM331.627 154.479V153.615H335.714V154.479H331.627ZM341.317 157.029V154.214C341.317 153.991 341.298 153.763 341.259 153.53C341.224 153.293 341.153 153.074 341.047 152.873C340.945 152.671 340.798 152.509 340.607 152.385C340.42 152.261 340.174 152.2 339.87 152.2C339.672 152.2 339.485 152.233 339.308 152.3C339.132 152.364 338.976 152.468 338.842 152.613C338.711 152.758 338.607 152.949 338.529 153.186C338.455 153.422 338.418 153.71 338.418 154.05L337.729 153.79C337.729 153.27 337.826 152.813 338.02 152.417C338.215 152.018 338.494 151.707 338.858 151.484C339.222 151.261 339.662 151.15 340.178 151.15C340.573 151.15 340.906 151.214 341.174 151.341C341.443 151.468 341.66 151.636 341.826 151.844C341.996 152.049 342.125 152.274 342.213 152.518C342.302 152.761 342.362 153 342.393 153.233C342.425 153.467 342.441 153.671 342.441 153.848V157.029H341.317ZM337.294 157.029V151.304H338.285V152.958H338.418V157.029H337.294ZM347.098 157.029C346.738 157.099 346.384 157.13 346.038 157.119C345.691 157.108 345.382 157.041 345.11 156.917C344.838 156.794 344.633 156.599 344.495 156.334C344.372 156.098 344.304 155.857 344.294 155.613C344.287 155.366 344.283 155.087 344.283 154.776V149.713H345.396V154.723C345.396 154.953 345.398 155.152 345.402 155.322C345.409 155.492 345.446 155.635 345.513 155.751C345.64 155.97 345.842 156.096 346.117 156.128C346.397 156.156 346.723 156.144 347.098 156.091V157.029ZM343.186 152.194V151.304H347.098V152.194H343.186Z" fill="#3D3D3D"/>
<path d="M40.896 130.075C40.0818 130.075 39.3881 129.897 38.8152 129.543C38.2422 129.185 37.803 128.687 37.4977 128.05C37.1961 127.413 37.0453 126.674 37.0453 125.834C37.0453 124.993 37.1961 124.254 37.4977 123.617C37.803 122.98 38.2422 122.485 38.8152 122.13C39.3881 121.772 40.0818 121.593 40.896 121.593C41.8346 121.593 42.6112 121.83 43.2256 122.305C43.8439 122.78 44.2736 123.419 44.5149 124.222L43.3161 124.545C43.1578 123.975 42.8751 123.529 42.4679 123.205C42.0646 122.88 41.5406 122.718 40.896 122.718C40.3192 122.718 39.8386 122.848 39.4541 123.108C39.0696 123.368 38.7794 123.732 38.5833 124.2C38.3911 124.667 38.295 125.212 38.295 125.834C38.2912 126.456 38.3854 127.001 38.5777 127.468C38.7737 127.935 39.064 128.299 39.4485 128.559C39.8367 128.819 40.3192 128.949 40.896 128.949C41.5406 128.949 42.0646 128.787 42.4679 128.463C42.8751 128.135 43.1578 127.688 43.3161 127.123L44.5149 127.445C44.2736 128.248 43.8439 128.887 43.2256 129.362C42.6112 129.837 41.8346 130.075 40.896 130.075ZM48.0598 130.069C47.6376 130.069 47.2833 130.001 46.9968 129.865C46.7103 129.73 46.4766 129.553 46.2956 129.334C46.1185 129.112 45.9828 128.87 45.8885 128.61C45.7943 128.35 45.7302 128.096 45.6963 127.847C45.6623 127.598 45.6454 127.379 45.6454 127.191V123.798H46.8441V126.801C46.8441 127.038 46.863 127.283 46.9007 127.536C46.9421 127.785 47.0175 128.016 47.1269 128.231C47.2399 128.446 47.3964 128.62 47.5962 128.752C47.7997 128.883 48.0636 128.949 48.3878 128.949C48.5989 128.949 48.7987 128.916 48.9872 128.848C49.1756 128.776 49.3396 128.663 49.4791 128.508C49.6223 128.354 49.7336 128.15 49.8127 127.898C49.8956 127.645 49.9371 127.338 49.9371 126.976L50.6722 127.253C50.6722 127.807 50.5685 128.297 50.3612 128.723C50.1539 129.145 49.8561 129.475 49.4678 129.713C49.0795 129.95 48.6102 130.069 48.0598 130.069ZM50.0785 129.905V128.141H49.9371V123.798H51.1302V129.905H50.0785ZM55.0514 130.069C54.3088 130.069 53.7037 129.905 53.2363 129.577C52.7689 129.249 52.4824 128.787 52.3768 128.192L53.5869 128.005C53.6623 128.322 53.8357 128.572 54.1071 128.757C54.3823 128.938 54.7234 129.029 55.1305 129.029C55.5 129.029 55.7884 128.953 55.9957 128.802C56.2068 128.652 56.3123 128.444 56.3123 128.18C56.3123 128.026 56.2746 127.901 56.1992 127.807C56.1276 127.709 55.9749 127.617 55.7412 127.53C55.5075 127.443 55.1513 127.336 54.6725 127.208C54.1486 127.072 53.732 126.927 53.4229 126.772C53.1176 126.614 52.8989 126.431 52.767 126.224C52.6388 126.013 52.5747 125.758 52.5747 125.461C52.5747 125.091 52.6727 124.769 52.8688 124.494C53.0648 124.219 53.34 124.006 53.6943 123.855C54.0524 123.704 54.4709 123.629 54.9496 123.629C55.417 123.629 55.8336 123.702 56.1992 123.849C56.5649 123.996 56.8608 124.205 57.087 124.477C57.3132 124.744 57.4489 125.059 57.4941 125.421L56.2841 125.642C56.2426 125.348 56.105 125.116 55.8713 124.946C55.6376 124.776 55.3341 124.684 54.9609 124.669C54.6028 124.654 54.3125 124.714 54.0901 124.85C53.8677 124.982 53.7565 125.165 53.7565 125.398C53.7565 125.534 53.798 125.649 53.8809 125.743C53.9676 125.838 54.1335 125.928 54.3785 126.015C54.6235 126.101 54.9854 126.205 55.4642 126.326C55.9768 126.458 56.384 126.605 56.6855 126.767C56.9871 126.925 57.202 127.116 57.3301 127.338C57.4621 127.557 57.528 127.822 57.528 128.135C57.528 128.738 57.3075 129.211 56.8665 129.554C56.4292 129.897 55.8242 130.069 55.0514 130.069ZM62.2736 129.905C61.8891 129.98 61.5122 130.012 61.1427 130.001C60.7733 129.99 60.4435 129.918 60.1532 129.786C59.8629 129.654 59.6443 129.447 59.4973 129.164C59.3653 128.912 59.2937 128.655 59.2824 128.395C59.2749 128.131 59.2711 127.834 59.2711 127.502V122.102H60.4585V127.445C60.4585 127.69 60.4604 127.903 60.4642 128.084C60.4717 128.265 60.5113 128.418 60.5829 128.542C60.7186 128.776 60.9335 128.91 61.2275 128.944C61.5253 128.974 61.874 128.961 62.2736 128.904V129.905ZM58.1006 124.748V123.798H62.2736V124.748H58.1006ZM65.937 130.075C65.3263 130.075 64.7967 129.937 64.3481 129.662C63.8995 129.387 63.5527 129.008 63.3077 128.525C63.0664 128.039 62.9458 127.479 62.9458 126.846C62.9458 126.209 63.0702 125.649 63.319 125.167C63.5678 124.68 63.9165 124.303 64.3651 124.036C64.8136 123.764 65.3376 123.629 65.937 123.629C66.5477 123.629 67.0773 123.766 67.5259 124.041C67.9745 124.317 68.3213 124.695 68.5663 125.178C68.8113 125.66 68.9339 126.216 68.9339 126.846C68.9339 127.483 68.8095 128.045 68.5607 128.531C68.3156 129.014 67.9688 129.392 67.5202 129.668C67.0717 129.939 66.5439 130.075 65.937 130.075ZM65.937 128.961C66.5213 128.961 66.9567 128.765 67.2432 128.373C67.5334 127.977 67.6786 127.468 67.6786 126.846C67.6786 126.209 67.5316 125.7 67.2375 125.319C66.9473 124.935 66.5138 124.743 65.937 124.743C65.5412 124.743 65.2151 124.833 64.9588 125.014C64.7024 125.191 64.5121 125.438 64.3877 125.755C64.2633 126.068 64.2011 126.431 64.2011 126.846C64.2011 127.487 64.3481 127.999 64.6421 128.384C64.9362 128.768 65.3678 128.961 65.937 128.961ZM77.4933 129.905L77.4989 126.1C77.4989 125.659 77.3858 125.316 77.1597 125.07C76.9335 124.822 76.6357 124.697 76.2663 124.697C76.0401 124.697 75.8328 124.75 75.6443 124.856C75.4596 124.957 75.3088 125.112 75.1919 125.319C75.0788 125.523 75.0223 125.779 75.0223 126.088L74.4512 125.8C74.4436 125.37 74.5341 124.993 74.7226 124.669C74.9149 124.345 75.175 124.094 75.5029 123.917C75.8309 123.736 76.1984 123.646 76.6055 123.646C77.2652 123.646 77.776 123.843 78.1379 124.239C78.4998 124.635 78.6807 125.161 78.6807 125.817L78.6751 129.905H77.4933ZM70.1708 129.905V123.798H71.2225V125.562H71.3582V129.905H70.1708ZM73.8349 129.905L73.8405 126.122C73.8405 125.677 73.7274 125.329 73.5012 125.076C73.2788 124.824 72.9791 124.697 72.6022 124.697C72.229 124.697 71.9274 124.825 71.6975 125.082C71.4713 125.338 71.3582 125.674 71.3582 126.088L70.7928 125.726C70.7928 125.327 70.8889 124.971 71.0811 124.658C71.2734 124.345 71.5335 124.098 71.8614 123.917C72.1894 123.736 72.5607 123.646 72.9754 123.646C73.4089 123.646 73.7783 123.738 74.0836 123.923C74.389 124.104 74.6208 124.358 74.7791 124.686C74.9412 125.014 75.0223 125.395 75.0223 125.828L75.0166 129.905H73.8349ZM81.8476 129.905L84.4938 121.763H86.1958L88.8421 129.905H87.6151L85.178 122.475H85.4834L83.0746 129.905H81.8476ZM83.2216 128.067V126.959H87.4737V128.067H83.2216ZM92.7234 130.075C92.1391 130.075 91.649 129.933 91.2532 129.651C90.8574 129.364 90.5577 128.978 90.3541 128.491C90.1506 128.005 90.0488 127.457 90.0488 126.846C90.0488 126.235 90.1487 125.687 90.3485 125.201C90.5521 124.714 90.8499 124.332 91.2419 124.053C91.6377 123.77 92.124 123.629 92.7007 123.629C93.2737 123.629 93.7676 123.77 94.1822 124.053C94.6006 124.332 94.9229 124.714 95.1491 125.201C95.3753 125.683 95.4884 126.232 95.4884 126.846C95.4884 127.457 95.3753 128.007 95.1491 128.497C94.9267 128.983 94.6082 129.368 94.1935 129.651C93.7826 129.933 93.2926 130.075 92.7234 130.075ZM89.8509 129.905V121.763H91.0383V125.512H90.9026V129.905H89.8509ZM92.5594 129.006C92.9363 129.006 93.2473 128.91 93.4924 128.718C93.7412 128.525 93.9259 128.267 94.0465 127.943C94.1709 127.615 94.2331 127.249 94.2331 126.846C94.2331 126.446 94.1709 126.085 94.0465 125.76C93.9259 125.436 93.7393 125.178 93.4867 124.986C93.2341 124.793 92.9118 124.697 92.5198 124.697C92.1504 124.697 91.845 124.788 91.6038 124.969C91.3663 125.15 91.1891 125.402 91.0723 125.726C90.9592 126.051 90.9026 126.424 90.9026 126.846C90.9026 127.268 90.9592 127.641 91.0723 127.966C91.1854 128.29 91.3644 128.544 91.6094 128.729C91.8545 128.914 92.1711 129.006 92.5594 129.006ZM99.3888 130.075C98.7781 130.075 98.2485 129.937 97.7999 129.662C97.3513 129.387 97.0045 129.008 96.7595 128.525C96.5182 128.039 96.3976 127.479 96.3976 126.846C96.3976 126.209 96.522 125.649 96.7708 125.167C97.0196 124.68 97.3683 124.303 97.8169 124.036C98.2655 123.764 98.7894 123.629 99.3888 123.629C99.9995 123.629 100.529 123.766 100.978 124.041C101.426 124.317 101.773 124.695 102.018 125.178C102.263 125.66 102.386 126.216 102.386 126.846C102.386 127.483 102.261 128.045 102.012 128.531C101.767 129.014 101.421 129.392 100.972 129.668C100.523 129.939 99.9957 130.075 99.3888 130.075ZM99.3888 128.961C99.9731 128.961 100.408 128.765 100.695 128.373C100.985 127.977 101.13 127.468 101.13 126.846C101.13 126.209 100.983 125.7 100.689 125.319C100.399 124.935 99.9656 124.743 99.3888 124.743C98.993 124.743 98.6669 124.833 98.4106 125.014C98.1543 125.191 97.9639 125.438 97.8395 125.755C97.7151 126.068 97.6529 126.431 97.6529 126.846C97.6529 127.487 97.7999 127.999 98.0939 128.384C98.388 128.768 98.8196 128.961 99.3888 128.961ZM105.93 130.069C105.507 130.069 105.153 130.001 104.867 129.865C104.58 129.73 104.346 129.553 104.165 129.334C103.988 129.112 103.853 128.87 103.758 128.61C103.664 128.35 103.6 128.096 103.566 127.847C103.532 127.598 103.515 127.379 103.515 127.191V123.798H104.714V126.801C104.714 127.038 104.733 127.283 104.77 127.536C104.812 127.785 104.887 128.016 104.997 128.231C105.11 128.446 105.266 128.62 105.466 128.752C105.669 128.883 105.933 128.949 106.258 128.949C106.469 128.949 106.668 128.916 106.857 128.848C107.045 128.776 107.209 128.663 107.349 128.508C107.492 128.354 107.603 128.15 107.682 127.898C107.765 127.645 107.807 127.338 107.807 126.976L108.542 127.253C108.542 127.807 108.438 128.297 108.231 128.723C108.024 129.145 107.726 129.475 107.338 129.713C106.949 129.95 106.48 130.069 105.93 130.069ZM107.948 129.905V128.141H107.807V123.798H109V129.905H107.948ZM114.08 129.905C113.696 129.98 113.319 130.012 112.949 130.001C112.58 129.99 112.25 129.918 111.96 129.786C111.67 129.654 111.451 129.447 111.304 129.164C111.172 128.912 111.1 128.655 111.089 128.395C111.082 128.131 111.078 127.834 111.078 127.502V122.102H112.265V127.445C112.265 127.69 112.267 127.903 112.271 128.084C112.278 128.265 112.318 128.418 112.39 128.542C112.525 128.776 112.74 128.91 113.034 128.944C113.332 128.974 113.681 128.961 114.08 128.904V129.905ZM109.907 124.748V123.798H114.08V124.748H109.907ZM117.632 129.905V121.763H120.923C121.002 121.763 121.1 121.766 121.217 121.774C121.334 121.778 121.445 121.789 121.55 121.808C122.003 121.879 122.38 122.034 122.681 122.272C122.987 122.509 123.215 122.809 123.365 123.171C123.516 123.532 123.592 123.932 123.592 124.369C123.592 124.81 123.516 125.212 123.365 125.574C123.215 125.936 122.987 126.235 122.681 126.473C122.38 126.71 122.003 126.865 121.55 126.936C121.445 126.952 121.332 126.963 121.211 126.97C121.094 126.978 120.998 126.982 120.923 126.982H118.814V129.905H117.632ZM118.814 125.862H120.877C120.953 125.862 121.036 125.858 121.126 125.851C121.221 125.843 121.309 125.83 121.392 125.811C121.633 125.755 121.827 125.651 121.974 125.5C122.121 125.346 122.227 125.168 122.291 124.969C122.355 124.769 122.387 124.569 122.387 124.369C122.387 124.17 122.355 123.972 122.291 123.776C122.227 123.576 122.121 123.401 121.974 123.25C121.827 123.095 121.633 122.99 121.392 122.933C121.309 122.91 121.221 122.895 121.126 122.888C121.036 122.88 120.953 122.877 120.877 122.877H118.814V125.862ZM126.259 130.075C125.806 130.075 125.428 129.992 125.122 129.826C124.817 129.656 124.585 129.434 124.427 129.159C124.272 128.88 124.195 128.574 124.195 128.243C124.195 127.934 124.25 127.662 124.359 127.428C124.468 127.195 124.63 126.997 124.845 126.835C125.06 126.669 125.324 126.535 125.637 126.433C125.908 126.354 126.215 126.284 126.559 126.224C126.902 126.164 127.262 126.107 127.639 126.054C128.019 126.002 128.396 125.949 128.769 125.896L128.34 126.134C128.347 125.655 128.245 125.3 128.034 125.07C127.827 124.837 127.469 124.72 126.96 124.72C126.64 124.72 126.346 124.795 126.078 124.946C125.81 125.093 125.624 125.338 125.518 125.681L124.415 125.342C124.566 124.818 124.853 124.401 125.275 124.092C125.701 123.783 126.266 123.629 126.971 123.629C127.518 123.629 127.993 123.723 128.396 123.911C128.803 124.096 129.101 124.39 129.29 124.793C129.388 124.993 129.448 125.204 129.471 125.427C129.493 125.649 129.504 125.888 129.504 126.145V129.905H128.458V128.508L128.662 128.689C128.409 129.157 128.087 129.505 127.695 129.735C127.307 129.962 126.828 130.075 126.259 130.075ZM126.468 129.108C126.804 129.108 127.092 129.049 127.333 128.932C127.574 128.812 127.769 128.659 127.916 128.474C128.063 128.29 128.159 128.097 128.204 127.898C128.268 127.717 128.304 127.513 128.311 127.287C128.323 127.061 128.328 126.88 128.328 126.744L128.713 126.886C128.34 126.942 128 126.993 127.695 127.038C127.39 127.083 127.113 127.129 126.864 127.174C126.619 127.215 126.4 127.266 126.208 127.327C126.046 127.383 125.901 127.451 125.773 127.53C125.648 127.609 125.548 127.705 125.473 127.819C125.401 127.932 125.365 128.069 125.365 128.231C125.365 128.39 125.405 128.537 125.484 128.672C125.563 128.804 125.684 128.91 125.846 128.989C126.008 129.068 126.215 129.108 126.468 129.108ZM133.489 132.789C133.161 132.789 132.843 132.738 132.533 132.636C132.228 132.534 131.949 132.384 131.697 132.184C131.444 131.988 131.235 131.745 131.069 131.454L132.16 130.9C132.292 131.16 132.481 131.351 132.726 131.471C132.971 131.592 133.229 131.652 133.5 131.652C133.836 131.652 134.122 131.592 134.36 131.471C134.597 131.354 134.776 131.177 134.897 130.94C135.021 130.702 135.082 130.408 135.078 130.058V128.35H135.219V123.798H136.265V130.069C136.265 130.231 136.26 130.386 136.248 130.533C136.237 130.68 136.216 130.827 136.186 130.974C136.1 131.385 135.934 131.724 135.689 131.992C135.447 132.259 135.138 132.459 134.761 132.591C134.388 132.723 133.964 132.789 133.489 132.789ZM133.399 130.075C132.829 130.075 132.337 129.933 131.923 129.651C131.512 129.368 131.193 128.983 130.967 128.497C130.745 128.007 130.634 127.457 130.634 126.846C130.634 126.232 130.747 125.683 130.973 125.201C131.199 124.714 131.519 124.332 131.934 124.053C132.352 123.77 132.848 123.629 133.421 123.629C133.998 123.629 134.482 123.77 134.874 124.053C135.27 124.332 135.568 124.714 135.768 125.201C135.971 125.687 136.073 126.235 136.073 126.846C136.073 127.457 135.971 128.005 135.768 128.491C135.564 128.978 135.265 129.364 134.869 129.651C134.473 129.933 133.983 130.075 133.399 130.075ZM133.563 129.006C133.951 129.006 134.267 128.914 134.512 128.729C134.758 128.544 134.937 128.29 135.05 127.966C135.163 127.641 135.219 127.268 135.219 126.846C135.219 126.424 135.161 126.051 135.044 125.726C134.931 125.402 134.754 125.15 134.512 124.969C134.275 124.788 133.972 124.697 133.602 124.697C133.21 124.697 132.888 124.793 132.635 124.986C132.383 125.178 132.194 125.436 132.07 125.76C131.949 126.085 131.889 126.446 131.889 126.846C131.889 127.249 131.949 127.615 132.07 127.943C132.194 128.267 132.379 128.525 132.624 128.718C132.873 128.91 133.186 129.006 133.563 129.006ZM140.562 130.075C139.955 130.075 139.421 129.943 138.961 129.679C138.505 129.411 138.149 129.04 137.893 128.565C137.64 128.086 137.514 127.532 137.514 126.903C137.514 126.235 137.638 125.657 137.887 125.167C138.14 124.677 138.49 124.298 138.939 124.03C139.387 123.762 139.909 123.629 140.505 123.629C141.127 123.629 141.657 123.774 142.094 124.064C142.531 124.35 142.857 124.759 143.072 125.291C143.291 125.823 143.378 126.454 143.332 127.185H142.151V126.756C142.143 126.047 142.007 125.523 141.743 125.184C141.483 124.844 141.086 124.675 140.55 124.675C139.958 124.675 139.514 124.861 139.216 125.234C138.918 125.608 138.769 126.147 138.769 126.852C138.769 127.523 138.918 128.043 139.216 128.412C139.514 128.778 139.943 128.961 140.505 128.961C140.874 128.961 141.193 128.878 141.461 128.712C141.732 128.542 141.943 128.301 142.094 127.988L143.253 128.356C143.016 128.902 142.656 129.326 142.173 129.628C141.691 129.926 141.153 130.075 140.562 130.075ZM138.385 127.185V126.264H142.744V127.185H138.385Z" fill="#3D3D3D"/>
<path d="M20.5416 124.638C20.3072 124.405 19.9274 124.405 19.6931 124.638C19.4586 124.872 19.4586 125.251 19.6931 125.485L22.8695 128.651C23.1039 128.885 23.4837 128.885 23.718 128.651L26.8945 125.485C27.129 125.251 27.129 124.872 26.8945 124.638C26.6602 124.405 26.2803 124.405 26.046 124.638L23.2938 127.382L20.5416 124.638Z" fill="#808080" stroke="#808080" stroke-width="0.141361" stroke-linecap="round" stroke-linejoin="round"/>
<path d="M67.513 23.2407C66.9588 23.2407 66.4688 23.1201 66.0428 22.8788C65.6168 22.6338 65.2813 22.2983 65.0363 21.8723C64.7951 21.4463 64.6744 20.9563 64.6744 20.4021V17.5975C64.6744 17.0434 64.7951 16.5533 65.0363 16.1274C65.2813 15.7014 65.6168 15.3678 66.0428 15.1265C66.4688 14.8815 66.9588 14.759 67.513 14.759C68.0671 14.759 68.5572 14.8815 68.9831 15.1265C69.4091 15.3678 69.7427 15.7014 69.984 16.1274C70.229 16.5533 70.3515 17.0434 70.3515 17.5975V20.4021C70.3515 20.9563 70.229 21.4463 69.984 21.8723C69.7427 22.2983 69.4091 22.6338 68.9831 22.8788C68.5572 23.1201 68.0671 23.2407 67.513 23.2407ZM67.513 22.1098C67.8145 22.1098 68.0878 22.0382 68.3329 21.8949C68.5817 21.7479 68.7796 21.5519 68.9266 21.3069C69.0736 21.0581 69.1471 20.781 69.1471 20.4757V17.5127C69.1471 17.2111 69.0736 16.9379 68.9266 16.6928C68.7796 16.444 68.5817 16.248 68.3329 16.1048C68.0878 15.9577 67.8145 15.8842 67.513 15.8842C67.2114 15.8842 66.9362 15.9577 66.6874 16.1048C66.4424 16.248 66.2464 16.444 66.0994 16.6928C65.9523 16.9379 65.8788 17.2111 65.8788 17.5127V20.4757C65.8788 20.781 65.9523 21.0581 66.0994 21.3069C66.2464 21.5519 66.4424 21.7479 66.6874 21.8949C66.9362 22.0382 67.2114 22.1098 67.513 22.1098ZM71.7041 23.0654L71.7097 22.0137L75.2551 18.8359C75.5416 18.5833 75.7357 18.342 75.8375 18.1121C75.943 17.8821 75.9958 17.6522 75.9958 17.4222C75.9958 17.132 75.9317 16.8719 75.8035 16.6419C75.6754 16.4082 75.4982 16.2235 75.272 16.0878C75.0458 15.9521 74.7857 15.8842 74.4917 15.8842C74.1901 15.8842 73.9206 15.9559 73.6831 16.0991C73.4494 16.2386 73.2666 16.4252 73.1346 16.6589C73.0027 16.8926 72.9386 17.1452 72.9424 17.4166H71.7323C71.7323 16.8888 71.8511 16.4271 72.0886 16.0313C72.3298 15.6317 72.6597 15.3207 73.0781 15.0983C73.4965 14.8721 73.9753 14.759 74.5143 14.759C75.027 14.759 75.4869 14.8759 75.894 15.1096C76.3011 15.3395 76.6216 15.6562 76.8553 16.0595C77.0928 16.4629 77.2115 16.9228 77.2115 17.4392C77.2115 17.8124 77.1625 18.1291 77.0645 18.3892C76.9665 18.6493 76.8195 18.8905 76.6234 19.1129C76.4274 19.3353 76.1824 19.5766 75.8884 19.8367L73.1516 22.2794L73.0216 21.9402H77.2115V23.0654H71.7041Z" fill="#808080"/>
<defs>
<clipPath id="clip0_9098_16200">
<rect width="13.4293" height="13.4293" fill="white" transform="translate(294.252 78.0669)"/>
</clipPath>
<clipPath id="clip1_9098_16200">
<rect width="13.4293" height="13.4293" fill="white" transform="translate(261.046 146.314)"/>
</clipPath>
</defs>
</svg>
