<svg width="478" height="579" viewBox="0 0 478 579" fill="none" xmlns="http://www.w3.org/2000/svg">
<rect x="0.5" y="0.5" width="477" height="578" rx="9.5" fill="#F6F6F6" stroke="#EEEEEE"/>
<rect x="20.5" y="80.5" width="437" height="51" rx="5.5" fill="white" stroke="#DADADA"/>
<rect x="30" y="88" width="36" height="36" rx="8" fill="#FF2626"/>
<path d="M43 106H53" stroke="white" stroke-width="1.5" stroke-linecap="round" stroke-linejoin="round"/>
<path d="M48 111V101" stroke="white" stroke-width="1.5" stroke-linecap="round" stroke-linejoin="round"/>
<path d="M81.712 112.24C80.8107 112.24 80.0133 112.056 79.32 111.688C78.632 111.315 78.0933 110.795 77.704 110.128C77.3147 109.456 77.12 108.667 77.12 107.76V100.488L78.816 100.48V107.672C78.816 108.163 78.8987 108.595 79.064 108.968C79.2293 109.341 79.4507 109.653 79.728 109.904C80.0053 110.155 80.3147 110.344 80.656 110.472C81.0027 110.6 81.3547 110.664 81.712 110.664C82.0747 110.664 82.4267 110.6 82.768 110.472C83.1147 110.339 83.4267 110.147 83.704 109.896C83.9813 109.645 84.2 109.333 84.36 108.96C84.5253 108.587 84.608 108.157 84.608 107.672V100.48H86.304V107.76C86.304 108.661 86.1093 109.448 85.72 110.12C85.3307 110.792 84.7893 111.315 84.096 111.688C83.408 112.056 82.6133 112.24 81.712 112.24ZM92.5979 112.24C91.7712 112.24 91.0779 112.04 90.5179 111.64C89.9579 111.235 89.5339 110.688 89.2459 110C88.9579 109.312 88.8139 108.536 88.8139 107.672C88.8139 106.808 88.9552 106.032 89.2379 105.344C89.5259 104.656 89.9472 104.115 90.5019 103.72C91.0619 103.32 91.7499 103.12 92.5659 103.12C93.3765 103.12 94.0752 103.32 94.6619 103.72C95.2539 104.115 95.7099 104.656 96.0299 105.344C96.3499 106.027 96.5099 106.803 96.5099 107.672C96.5099 108.536 96.3499 109.315 96.0299 110.008C95.7152 110.696 95.2645 111.24 94.6779 111.64C94.0965 112.04 93.4032 112.24 92.5979 112.24ZM88.5339 115.84V103.36H90.0219V109.576H90.2139V115.84H88.5339ZM92.3659 110.728C92.8992 110.728 93.3392 110.592 93.6859 110.32C94.0379 110.048 94.2992 109.683 94.4699 109.224C94.6459 108.76 94.7339 108.243 94.7339 107.672C94.7339 107.107 94.6459 106.595 94.4699 106.136C94.2992 105.677 94.0352 105.312 93.6779 105.04C93.3205 104.768 92.8645 104.632 92.3099 104.632C91.7872 104.632 91.3552 104.76 91.0139 105.016C90.6779 105.272 90.4272 105.629 90.2619 106.088C90.1019 106.547 90.0219 107.075 90.0219 107.672C90.0219 108.269 90.1019 108.797 90.2619 109.256C90.4219 109.715 90.6752 110.075 91.0219 110.336C91.3685 110.597 91.8165 110.728 92.3659 110.728ZM98.4363 112V100.24H100.108V112H98.4363ZM106.263 112.24C105.399 112.24 104.649 112.045 104.015 111.656C103.38 111.267 102.889 110.731 102.543 110.048C102.201 109.36 102.031 108.568 102.031 107.672C102.031 106.771 102.207 105.979 102.559 105.296C102.911 104.608 103.404 104.075 104.039 103.696C104.673 103.312 105.415 103.12 106.263 103.12C107.127 103.12 107.876 103.315 108.511 103.704C109.145 104.093 109.636 104.629 109.983 105.312C110.329 105.995 110.503 106.781 110.503 107.672C110.503 108.573 110.327 109.368 109.975 110.056C109.628 110.739 109.137 111.275 108.503 111.664C107.868 112.048 107.121 112.24 106.263 112.24ZM106.263 110.664C107.089 110.664 107.705 110.387 108.111 109.832C108.521 109.272 108.727 108.552 108.727 107.672C108.727 106.771 108.519 106.051 108.103 105.512C107.692 104.968 107.079 104.696 106.263 104.696C105.703 104.696 105.241 104.824 104.879 105.08C104.516 105.331 104.247 105.68 104.071 106.128C103.895 106.571 103.807 107.085 103.807 107.672C103.807 108.579 104.015 109.304 104.431 109.848C104.847 110.392 105.457 110.664 106.263 110.664ZM114.701 112.24C114.061 112.24 113.525 112.123 113.093 111.888C112.661 111.648 112.333 111.333 112.109 110.944C111.89 110.549 111.781 110.117 111.781 109.648C111.781 109.211 111.858 108.827 112.013 108.496C112.167 108.165 112.397 107.885 112.701 107.656C113.005 107.421 113.378 107.232 113.821 107.088C114.205 106.976 114.639 106.877 115.125 106.792C115.61 106.707 116.119 106.627 116.653 106.552C117.191 106.477 117.725 106.403 118.253 106.328L117.645 106.664C117.655 105.987 117.511 105.485 117.213 105.16C116.919 104.829 116.413 104.664 115.693 104.664C115.239 104.664 114.823 104.771 114.445 104.984C114.066 105.192 113.802 105.539 113.653 106.024L112.093 105.544C112.306 104.803 112.711 104.213 113.309 103.776C113.911 103.339 114.711 103.12 115.709 103.12C116.482 103.12 117.154 103.253 117.725 103.52C118.301 103.781 118.722 104.197 118.989 104.768C119.127 105.051 119.213 105.349 119.245 105.664C119.277 105.979 119.293 106.317 119.293 106.68V112H117.813V110.024L118.101 110.28C117.743 110.941 117.287 111.435 116.733 111.76C116.183 112.08 115.506 112.24 114.701 112.24ZM114.997 110.872C115.471 110.872 115.879 110.789 116.221 110.624C116.562 110.453 116.837 110.237 117.045 109.976C117.253 109.715 117.389 109.443 117.453 109.16C117.543 108.904 117.594 108.616 117.605 108.296C117.621 107.976 117.629 107.72 117.629 107.528L118.173 107.728C117.645 107.808 117.165 107.88 116.733 107.944C116.301 108.008 115.909 108.072 115.557 108.136C115.21 108.195 114.901 108.267 114.629 108.352C114.399 108.432 114.194 108.528 114.013 108.64C113.837 108.752 113.695 108.888 113.589 109.048C113.487 109.208 113.437 109.403 113.437 109.632C113.437 109.856 113.493 110.064 113.605 110.256C113.717 110.443 113.887 110.592 114.117 110.704C114.346 110.816 114.639 110.872 114.997 110.872ZM124.802 112.24C123.997 112.24 123.301 112.04 122.714 111.64C122.133 111.24 121.682 110.696 121.362 110.008C121.047 109.315 120.89 108.536 120.89 107.672C120.89 106.803 121.05 106.027 121.37 105.344C121.69 104.656 122.143 104.115 122.73 103.72C123.322 103.32 124.023 103.12 124.834 103.12C125.65 103.12 126.335 103.32 126.89 103.72C127.45 104.115 127.871 104.656 128.154 105.344C128.442 106.032 128.586 106.808 128.586 107.672C128.586 108.536 128.442 109.312 128.154 110C127.866 110.688 127.442 111.235 126.882 111.64C126.322 112.04 125.629 112.24 124.802 112.24ZM125.034 110.728C125.583 110.728 126.031 110.597 126.378 110.336C126.725 110.075 126.978 109.715 127.138 109.256C127.298 108.797 127.378 108.269 127.378 107.672C127.378 107.075 127.295 106.547 127.13 106.088C126.97 105.629 126.719 105.272 126.378 105.016C126.042 104.76 125.613 104.632 125.09 104.632C124.535 104.632 124.079 104.768 123.722 105.04C123.365 105.312 123.098 105.677 122.922 106.136C122.751 106.595 122.666 107.107 122.666 107.672C122.666 108.243 122.751 108.76 122.922 109.224C123.098 109.683 123.359 110.048 123.706 110.32C124.058 110.592 124.501 110.728 125.034 110.728ZM127.378 112V105.784H127.186V100.48H128.866V112H127.378ZM134.468 101.944V100.32H136.14V101.944H134.468ZM134.468 112V103.36H136.14V112H134.468ZM148.894 112L148.902 106.616C148.902 105.992 148.742 105.507 148.422 105.16C148.102 104.808 147.681 104.632 147.158 104.632C146.838 104.632 146.545 104.707 146.278 104.856C146.017 105 145.803 105.219 145.638 105.512C145.478 105.8 145.398 106.163 145.398 106.6L144.59 106.192C144.579 105.584 144.707 105.051 144.974 104.592C145.246 104.133 145.614 103.779 146.078 103.528C146.542 103.272 147.062 103.144 147.638 103.144C148.571 103.144 149.294 103.424 149.806 103.984C150.318 104.544 150.574 105.288 150.574 106.216L150.566 112H148.894ZM138.534 112V103.36H140.022V105.856H140.214V112H138.534ZM143.718 112L143.726 106.648C143.726 106.019 143.566 105.525 143.246 105.168C142.931 104.811 142.507 104.632 141.974 104.632C141.446 104.632 141.019 104.813 140.694 105.176C140.374 105.539 140.214 106.013 140.214 106.6L139.414 106.088C139.414 105.523 139.55 105.019 139.822 104.576C140.094 104.133 140.462 103.784 140.926 103.528C141.39 103.272 141.915 103.144 142.502 103.144C143.115 103.144 143.638 103.275 144.07 103.536C144.502 103.792 144.83 104.152 145.054 104.616C145.283 105.08 145.398 105.619 145.398 106.232L145.39 112H143.718ZM155.091 112.24C154.451 112.24 153.915 112.123 153.483 111.888C153.051 111.648 152.723 111.333 152.499 110.944C152.281 110.549 152.171 110.117 152.171 109.648C152.171 109.211 152.249 108.827 152.403 108.496C152.558 108.165 152.787 107.885 153.091 107.656C153.395 107.421 153.769 107.232 154.211 107.088C154.595 106.976 155.03 106.877 155.515 106.792C156.001 106.707 156.51 106.627 157.043 106.552C157.582 106.477 158.115 106.403 158.643 106.328L158.035 106.664C158.046 105.987 157.902 105.485 157.603 105.16C157.31 104.829 156.803 104.664 156.083 104.664C155.63 104.664 155.214 104.771 154.835 104.984C154.457 105.192 154.193 105.539 154.043 106.024L152.483 105.544C152.697 104.803 153.102 104.213 153.699 103.776C154.302 103.339 155.102 103.12 156.099 103.12C156.873 103.12 157.545 103.253 158.115 103.52C158.691 103.781 159.113 104.197 159.379 104.768C159.518 105.051 159.603 105.349 159.635 105.664C159.667 105.979 159.683 106.317 159.683 106.68V112H158.203V110.024L158.491 110.28C158.134 110.941 157.678 111.435 157.123 111.76C156.574 112.08 155.897 112.24 155.091 112.24ZM155.387 110.872C155.862 110.872 156.27 110.789 156.611 110.624C156.953 110.453 157.227 110.237 157.435 109.976C157.643 109.715 157.779 109.443 157.843 109.16C157.934 108.904 157.985 108.616 157.995 108.296C158.011 107.976 158.019 107.72 158.019 107.528L158.563 107.728C158.035 107.808 157.555 107.88 157.123 107.944C156.691 108.008 156.299 108.072 155.947 108.136C155.601 108.195 155.291 108.267 155.019 108.352C154.79 108.432 154.585 108.528 154.403 108.64C154.227 108.752 154.086 108.888 153.979 109.048C153.878 109.208 153.827 109.403 153.827 109.632C153.827 109.856 153.883 110.064 153.995 110.256C154.107 110.443 154.278 110.592 154.507 110.704C154.737 110.816 155.03 110.872 155.387 110.872ZM165.321 116.08C164.857 116.08 164.406 116.008 163.969 115.864C163.537 115.72 163.142 115.507 162.785 115.224C162.427 114.947 162.131 114.603 161.897 114.192L163.441 113.408C163.627 113.776 163.894 114.045 164.241 114.216C164.587 114.387 164.953 114.472 165.337 114.472C165.811 114.472 166.217 114.387 166.553 114.216C166.889 114.051 167.142 113.8 167.313 113.464C167.489 113.128 167.574 112.712 167.569 112.216V109.8H167.769V103.36H169.249V112.232C169.249 112.461 169.241 112.68 169.225 112.888C169.209 113.096 169.179 113.304 169.137 113.512C169.014 114.093 168.779 114.573 168.433 114.952C168.091 115.331 167.654 115.613 167.121 115.8C166.593 115.987 165.993 116.08 165.321 116.08ZM165.193 112.24C164.387 112.24 163.691 112.04 163.105 111.64C162.523 111.24 162.073 110.696 161.753 110.008C161.438 109.315 161.281 108.536 161.281 107.672C161.281 106.803 161.441 106.027 161.761 105.344C162.081 104.656 162.534 104.115 163.121 103.72C163.713 103.32 164.414 103.12 165.225 103.12C166.041 103.12 166.726 103.32 167.281 103.72C167.841 104.115 168.262 104.656 168.545 105.344C168.833 106.032 168.977 106.808 168.977 107.672C168.977 108.536 168.833 109.312 168.545 110C168.257 110.688 167.833 111.235 167.273 111.64C166.713 112.04 166.019 112.24 165.193 112.24ZM165.425 110.728C165.974 110.728 166.422 110.597 166.769 110.336C167.115 110.075 167.369 109.715 167.529 109.256C167.689 108.797 167.769 108.269 167.769 107.672C167.769 107.075 167.686 106.547 167.521 106.088C167.361 105.629 167.11 105.272 166.769 105.016C166.433 104.76 166.003 104.632 165.481 104.632C164.926 104.632 164.47 104.768 164.113 105.04C163.755 105.312 163.489 105.677 163.313 106.136C163.142 106.595 163.057 107.107 163.057 107.672C163.057 108.243 163.142 108.76 163.313 109.224C163.489 109.683 163.75 110.048 164.097 110.32C164.449 110.592 164.891 110.728 165.425 110.728ZM175.327 112.24C174.468 112.24 173.714 112.053 173.063 111.68C172.418 111.301 171.914 110.776 171.551 110.104C171.194 109.427 171.015 108.643 171.015 107.752C171.015 106.808 171.191 105.989 171.543 105.296C171.9 104.603 172.396 104.067 173.031 103.688C173.666 103.309 174.404 103.12 175.247 103.12C176.127 103.12 176.876 103.325 177.495 103.736C178.114 104.141 178.575 104.72 178.879 105.472C179.188 106.224 179.311 107.117 179.247 108.152H177.575V107.544C177.564 106.541 177.372 105.8 176.999 105.32C176.631 104.84 176.068 104.6 175.311 104.6C174.474 104.6 173.844 104.864 173.423 105.392C173.002 105.92 172.791 106.683 172.791 107.68C172.791 108.629 173.002 109.365 173.423 109.888C173.844 110.405 174.452 110.664 175.247 110.664C175.77 110.664 176.22 110.547 176.599 110.312C176.983 110.072 177.282 109.731 177.495 109.288L179.135 109.808C178.799 110.581 178.29 111.181 177.607 111.608C176.924 112.029 176.164 112.24 175.327 112.24ZM172.247 108.152V106.848H178.415V108.152H172.247ZM184.346 112.232C183.295 112.232 182.439 112 181.778 111.536C181.117 111.072 180.711 110.419 180.562 109.576L182.274 109.312C182.381 109.76 182.626 110.115 183.01 110.376C183.399 110.632 183.882 110.76 184.458 110.76C184.981 110.76 185.389 110.653 185.682 110.44C185.981 110.227 186.13 109.933 186.13 109.56C186.13 109.341 186.077 109.165 185.97 109.032C185.869 108.893 185.653 108.763 185.322 108.64C184.991 108.517 184.487 108.365 183.81 108.184C183.069 107.992 182.479 107.787 182.042 107.568C181.61 107.344 181.301 107.085 181.114 106.792C180.933 106.493 180.842 106.133 180.842 105.712C180.842 105.189 180.981 104.733 181.258 104.344C181.535 103.955 181.925 103.653 182.426 103.44C182.933 103.227 183.525 103.12 184.202 103.12C184.863 103.12 185.453 103.224 185.97 103.432C186.487 103.64 186.906 103.936 187.226 104.32C187.546 104.699 187.738 105.144 187.802 105.656L186.09 105.968C186.031 105.552 185.837 105.224 185.506 104.984C185.175 104.744 184.746 104.613 184.218 104.592C183.711 104.571 183.301 104.656 182.986 104.848C182.671 105.035 182.514 105.293 182.514 105.624C182.514 105.816 182.573 105.979 182.69 106.112C182.813 106.245 183.047 106.373 183.394 106.496C183.741 106.619 184.253 106.765 184.93 106.936C185.655 107.123 186.231 107.331 186.658 107.56C187.085 107.784 187.389 108.053 187.57 108.368C187.757 108.677 187.85 109.053 187.85 109.496C187.85 110.349 187.538 111.019 186.914 111.504C186.295 111.989 185.439 112.232 184.346 112.232Z" fill="#808080"/>
<rect x="20" y="167" width="115" height="180" rx="6" fill="white"/>
<path d="M74.3757 266.917H80.6257C85.834 266.917 87.9173 264.833 87.9173 259.625V253.375C87.9173 248.167 85.834 246.083 80.6257 246.083H74.3757C69.1673 246.083 67.084 248.167 67.084 253.375V259.625C67.084 264.833 69.1673 266.917 74.3757 266.917Z" stroke="#808080" stroke-width="1.5" stroke-linecap="round" stroke-linejoin="round"/>
<path d="M74.3743 254.417C75.5249 254.417 76.4577 253.484 76.4577 252.333C76.4577 251.183 75.5249 250.25 74.3743 250.25C73.2238 250.25 72.291 251.183 72.291 252.333C72.291 253.484 73.2238 254.417 74.3743 254.417Z" stroke="#808080" stroke-width="1.5" stroke-linecap="round" stroke-linejoin="round"/>
<path d="M67.7812 263.74L72.9167 260.292C73.7396 259.74 74.9271 259.802 75.6667 260.438L76.0104 260.74C76.8229 261.438 78.1354 261.438 78.9479 260.74L83.2812 257.021C84.0937 256.323 85.4063 256.323 86.2188 257.021L87.9167 258.479" stroke="#808080" stroke-width="1.5" stroke-linecap="round" stroke-linejoin="round"/>
<rect x="155" y="167" width="303" height="180" rx="6" fill="white"/>
<rect x="20" y="367" width="269" height="192" rx="6" fill="white"/>
<rect x="309" y="367" width="149" height="192" rx="6" fill="white"/>
<path d="M303.376 266.917H309.626C314.834 266.917 316.917 264.833 316.917 259.625V253.375C316.917 248.167 314.834 246.083 309.626 246.083H303.376C298.167 246.083 296.084 248.167 296.084 253.375V259.625C296.084 264.833 298.167 266.917 303.376 266.917Z" stroke="#808080" stroke-width="1.5" stroke-linecap="round" stroke-linejoin="round"/>
<path d="M303.374 254.417C304.525 254.417 305.458 253.484 305.458 252.333C305.458 251.183 304.525 250.25 303.374 250.25C302.224 250.25 301.291 251.183 301.291 252.333C301.291 253.484 302.224 254.417 303.374 254.417Z" stroke="#808080" stroke-width="1.5" stroke-linecap="round" stroke-linejoin="round"/>
<path d="M296.781 263.74L301.917 260.292C302.74 259.74 303.927 259.802 304.667 260.438L305.01 260.74C305.823 261.438 307.135 261.438 307.948 260.74L312.281 257.021C313.094 256.323 314.406 256.323 315.219 257.021L316.917 258.479" stroke="#808080" stroke-width="1.5" stroke-linecap="round" stroke-linejoin="round"/>
<path d="M151.376 472.917H157.626C162.834 472.917 164.917 470.833 164.917 465.625V459.375C164.917 454.167 162.834 452.083 157.626 452.083H151.376C146.167 452.083 144.084 454.167 144.084 459.375V465.625C144.084 470.833 146.167 472.917 151.376 472.917Z" stroke="#808080" stroke-width="1.5" stroke-linecap="round" stroke-linejoin="round"/>
<path d="M151.374 460.417C152.525 460.417 153.458 459.484 153.458 458.333C153.458 457.183 152.525 456.25 151.374 456.25C150.224 456.25 149.291 457.183 149.291 458.333C149.291 459.484 150.224 460.417 151.374 460.417Z" stroke="#808080" stroke-width="1.5" stroke-linecap="round" stroke-linejoin="round"/>
<path d="M144.781 469.74L149.917 466.292C150.74 465.74 151.927 465.802 152.667 466.437L153.01 466.74C153.823 467.437 155.135 467.437 155.948 466.74L160.281 463.021C161.094 462.323 162.406 462.323 163.219 463.021L164.917 464.479" stroke="#808080" stroke-width="1.5" stroke-linecap="round" stroke-linejoin="round"/>
<path d="M380.376 472.917H386.626C391.834 472.917 393.917 470.833 393.917 465.625V459.375C393.917 454.167 391.834 452.083 386.626 452.083H380.376C375.167 452.083 373.084 454.167 373.084 459.375V465.625C373.084 470.833 375.167 472.917 380.376 472.917Z" stroke="#808080" stroke-width="1.5" stroke-linecap="round" stroke-linejoin="round"/>
<path d="M380.374 460.417C381.525 460.417 382.458 459.484 382.458 458.333C382.458 457.183 381.525 456.25 380.374 456.25C379.224 456.25 378.291 457.183 378.291 458.333C378.291 459.484 379.224 460.417 380.374 460.417Z" stroke="#808080" stroke-width="1.5" stroke-linecap="round" stroke-linejoin="round"/>
<path d="M373.781 469.74L378.917 466.292C379.74 465.74 380.927 465.802 381.667 466.437L382.01 466.74C382.823 467.437 384.135 467.437 384.948 466.74L389.281 463.021C390.094 462.323 391.406 462.323 392.219 463.021L393.917 464.479" stroke="#808080" stroke-width="1.5" stroke-linecap="round" stroke-linejoin="round"/>
<rect x="111" y="20" width="79" height="40" rx="6" fill="#FF2626"/>
<path d="M124.28 46V34.48H125.704V46H124.28ZM138.432 46L138.44 40.472C138.44 39.8267 138.267 39.3227 137.92 38.96C137.579 38.592 137.134 38.408 136.584 38.408C136.264 38.408 135.96 38.4827 135.672 38.632C135.384 38.776 135.15 39.0053 134.968 39.32C134.787 39.6293 134.696 40.0267 134.696 40.512L133.944 40.208C133.934 39.5947 134.059 39.0587 134.32 38.6C134.587 38.136 134.95 37.776 135.408 37.52C135.867 37.264 136.384 37.136 136.96 37.136C137.862 37.136 138.571 37.4107 139.088 37.96C139.606 38.504 139.864 39.2373 139.864 40.16L139.856 46H138.432ZM128.096 46V37.36H129.368V39.672H129.528V46H128.096ZM133.272 46L133.28 40.528C133.28 39.8667 133.11 39.3493 132.768 38.976C132.427 38.5973 131.974 38.408 131.408 38.408C130.848 38.408 130.395 38.6 130.048 38.984C129.702 39.368 129.528 39.8773 129.528 40.512L128.776 40.064C128.776 39.504 128.91 39.0027 129.176 38.56C129.443 38.1173 129.806 37.7707 130.264 37.52C130.723 37.264 131.243 37.136 131.824 37.136C132.406 37.136 132.912 37.2587 133.344 37.504C133.776 37.7493 134.11 38.1013 134.344 38.56C134.579 39.0133 134.696 39.5547 134.696 40.184L134.688 46H133.272ZM144.404 46.24C143.759 46.24 143.217 46.1227 142.78 45.888C142.348 45.648 142.02 45.3333 141.796 44.944C141.577 44.5547 141.468 44.128 141.468 43.664C141.468 43.2107 141.553 42.8187 141.724 42.488C141.9 42.152 142.145 41.8747 142.46 41.656C142.775 41.432 143.151 41.256 143.588 41.128C143.999 41.016 144.457 40.92 144.964 40.84C145.476 40.7547 145.993 40.6773 146.516 40.608C147.039 40.5387 147.527 40.472 147.98 40.408L147.468 40.704C147.484 39.936 147.329 39.368 147.004 39C146.684 38.632 146.129 38.448 145.34 38.448C144.817 38.448 144.359 38.568 143.964 38.808C143.575 39.0427 143.3 39.4267 143.14 39.96L141.788 39.552C141.996 38.7947 142.399 38.2 142.996 37.768C143.593 37.336 144.38 37.12 145.356 37.12C146.14 37.12 146.812 37.2613 147.372 37.544C147.937 37.8213 148.343 38.2427 148.588 38.808C148.711 39.0747 148.788 39.3653 148.82 39.68C148.852 39.9893 148.868 40.3147 148.868 40.656V46H147.604V43.928L147.9 44.12C147.575 44.8187 147.119 45.3467 146.532 45.704C145.951 46.0613 145.241 46.24 144.404 46.24ZM144.62 45.048C145.132 45.048 145.575 44.9573 145.948 44.776C146.327 44.5893 146.631 44.3467 146.86 44.048C147.089 43.744 147.239 43.4133 147.308 43.056C147.388 42.7893 147.431 42.4933 147.436 42.168C147.447 41.8373 147.452 41.584 147.452 41.408L147.948 41.624C147.484 41.688 147.028 41.7493 146.58 41.808C146.132 41.8667 145.708 41.9307 145.308 42C144.908 42.064 144.548 42.1413 144.228 42.232C143.993 42.3067 143.772 42.4027 143.564 42.52C143.361 42.6373 143.196 42.7893 143.068 42.976C142.945 43.1573 142.884 43.384 142.884 43.656C142.884 43.8907 142.943 44.1147 143.06 44.328C143.183 44.5413 143.369 44.7147 143.62 44.848C143.876 44.9813 144.209 45.048 144.62 45.048ZM154.444 50.08C153.991 50.08 153.548 50.0107 153.116 49.872C152.684 49.7333 152.287 49.5227 151.924 49.24C151.567 48.9627 151.268 48.6107 151.028 48.184L152.332 47.496C152.545 47.9173 152.847 48.224 153.236 48.416C153.631 48.608 154.036 48.704 154.452 48.704C155.001 48.704 155.457 48.6027 155.82 48.4C156.183 48.2027 156.449 47.9067 156.62 47.512C156.796 47.1173 156.881 46.6267 156.876 46.04V43.68H157.044V37.36H158.308V46.056C158.308 46.2907 158.3 46.5173 158.284 46.736C158.273 46.9547 158.247 47.1707 158.204 47.384C158.092 47.9973 157.871 48.5013 157.54 48.896C157.209 49.296 156.783 49.592 156.26 49.784C155.737 49.9813 155.132 50.08 154.444 50.08ZM154.34 46.24C153.535 46.24 152.844 46.04 152.268 45.64C151.692 45.2347 151.247 44.688 150.932 44C150.623 43.312 150.468 42.536 150.468 41.672C150.468 40.808 150.623 40.032 150.932 39.344C151.247 38.656 151.692 38.1147 152.268 37.72C152.844 37.32 153.532 37.12 154.332 37.12C155.148 37.12 155.833 37.3173 156.388 37.712C156.943 38.1067 157.361 38.648 157.644 39.336C157.932 40.024 158.076 40.8027 158.076 41.672C158.076 42.5307 157.932 43.3067 157.644 44C157.361 44.688 156.943 45.2347 156.388 45.64C155.833 46.04 155.151 46.24 154.34 46.24ZM154.516 44.936C155.097 44.936 155.575 44.7973 155.948 44.52C156.321 44.2373 156.596 43.8507 156.772 43.36C156.953 42.864 157.044 42.3013 157.044 41.672C157.044 41.032 156.953 40.4693 156.772 39.984C156.596 39.4933 156.324 39.112 155.956 38.84C155.588 38.5627 155.121 38.424 154.556 38.424C153.969 38.424 153.484 38.568 153.1 38.856C152.721 39.144 152.439 39.5333 152.252 40.024C152.071 40.5147 151.98 41.064 151.98 41.672C151.98 42.2853 152.073 42.84 152.26 43.336C152.447 43.8267 152.727 44.216 153.1 44.504C153.479 44.792 153.951 44.936 154.516 44.936ZM164.286 46.24C163.438 46.24 162.697 46.0533 162.062 45.68C161.433 45.3013 160.942 44.776 160.59 44.104C160.238 43.4267 160.062 42.6373 160.062 41.736C160.062 40.792 160.235 39.976 160.582 39.288C160.929 38.5947 161.411 38.0613 162.03 37.688C162.654 37.3093 163.385 37.12 164.222 37.12C165.091 37.12 165.83 37.32 166.438 37.72C167.051 38.12 167.51 38.6907 167.814 39.432C168.123 40.1733 168.257 41.056 168.214 42.08H166.774V41.568C166.758 40.5067 166.542 39.7147 166.126 39.192C165.71 38.664 165.091 38.4 164.27 38.4C163.39 38.4 162.721 38.6827 162.262 39.248C161.803 39.8133 161.574 40.624 161.574 41.68C161.574 42.6987 161.803 43.488 162.262 44.048C162.721 44.608 163.374 44.888 164.222 44.888C164.793 44.888 165.289 44.7573 165.71 44.496C166.131 44.2347 166.462 43.8587 166.702 43.368L168.07 43.84C167.734 44.6027 167.227 45.1947 166.55 45.616C165.878 46.032 165.123 46.24 164.286 46.24ZM161.094 42.08V40.936H167.478V42.08H161.094ZM173.259 46.232C172.23 46.232 171.384 46.008 170.723 45.56C170.067 45.1067 169.664 44.4747 169.515 43.664L170.971 43.432C171.088 43.9013 171.358 44.2747 171.779 44.552C172.2 44.824 172.723 44.96 173.347 44.96C173.939 44.96 174.403 44.8373 174.739 44.592C175.075 44.3467 175.243 44.0133 175.243 43.592C175.243 43.3467 175.187 43.1493 175.075 43C174.963 42.8453 174.731 42.7013 174.379 42.568C174.032 42.4347 173.507 42.2747 172.803 42.088C172.04 41.8853 171.44 41.6747 171.003 41.456C170.566 41.2373 170.254 40.984 170.067 40.696C169.88 40.408 169.787 40.0587 169.787 39.648C169.787 39.1413 169.926 38.6987 170.203 38.32C170.48 37.936 170.867 37.64 171.363 37.432C171.864 37.224 172.446 37.12 173.107 37.12C173.763 37.12 174.35 37.224 174.867 37.432C175.384 37.64 175.8 37.936 176.115 38.32C176.435 38.6987 176.624 39.1413 176.683 39.648L175.227 39.912C175.158 39.448 174.934 39.0827 174.555 38.816C174.182 38.5493 173.699 38.408 173.107 38.392C172.547 38.3707 172.091 38.4693 171.739 38.688C171.392 38.9067 171.219 39.2027 171.219 39.576C171.219 39.784 171.283 39.9627 171.411 40.112C171.544 40.2613 171.787 40.4027 172.139 40.536C172.496 40.6693 173.014 40.8213 173.691 40.992C174.454 41.184 175.054 41.3947 175.491 41.624C175.934 41.848 176.248 42.1147 176.435 42.424C176.622 42.728 176.715 43.104 176.715 43.552C176.715 44.384 176.408 45.04 175.795 45.52C175.182 45.9947 174.336 46.232 173.259 46.232Z" fill="white"/>
<rect x="20" y="20" width="76" height="40" rx="6" fill="white"/>
<path d="M32.32 46L36.176 34.48H38.16L42.016 46H40.536L36.928 35.312H37.376L33.8 46H32.32ZM34.176 43.304V41.968H40.16V43.304H34.176ZM46.7121 46.232C45.6828 46.232 44.8375 46.008 44.1761 45.56C43.5201 45.1067 43.1175 44.4747 42.9681 43.664L44.4241 43.432C44.5415 43.9013 44.8108 44.2747 45.2321 44.552C45.6535 44.824 46.1761 44.96 46.8001 44.96C47.3921 44.96 47.8561 44.8373 48.1921 44.592C48.5281 44.3467 48.6961 44.0133 48.6961 43.592C48.6961 43.3467 48.6401 43.1493 48.5281 43C48.4161 42.8453 48.1841 42.7013 47.8321 42.568C47.4855 42.4347 46.9601 42.2747 46.2561 42.088C45.4935 41.8853 44.8935 41.6747 44.4561 41.456C44.0188 41.2373 43.7068 40.984 43.5201 40.696C43.3335 40.408 43.2401 40.0587 43.2401 39.648C43.2401 39.1413 43.3788 38.6987 43.6561 38.32C43.9335 37.936 44.3201 37.64 44.8161 37.432C45.3175 37.224 45.8988 37.12 46.5601 37.12C47.2161 37.12 47.8028 37.224 48.3201 37.432C48.8375 37.64 49.2535 37.936 49.5681 38.32C49.8881 38.6987 50.0775 39.1413 50.1361 39.648L48.6801 39.912C48.6108 39.448 48.3868 39.0827 48.0081 38.816C47.6348 38.5493 47.1521 38.408 46.5601 38.392C46.0001 38.3707 45.5441 38.4693 45.1921 38.688C44.8455 38.9067 44.6721 39.2027 44.6721 39.576C44.6721 39.784 44.7361 39.9627 44.8641 40.112C44.9975 40.2613 45.2401 40.4027 45.5921 40.536C45.9495 40.6693 46.4668 40.8213 47.1441 40.992C47.9068 41.184 48.5068 41.3947 48.9441 41.624C49.3868 41.848 49.7015 42.1147 49.8881 42.424C50.0748 42.728 50.1681 43.104 50.1681 43.552C50.1681 44.384 49.8615 45.04 49.2481 45.52C48.6348 45.9947 47.7895 46.232 46.7121 46.232ZM55.1965 46.232C54.1672 46.232 53.3218 46.008 52.6605 45.56C52.0045 45.1067 51.6018 44.4747 51.4525 43.664L52.9085 43.432C53.0258 43.9013 53.2952 44.2747 53.7165 44.552C54.1378 44.824 54.6605 44.96 55.2845 44.96C55.8765 44.96 56.3405 44.8373 56.6765 44.592C57.0125 44.3467 57.1805 44.0133 57.1805 43.592C57.1805 43.3467 57.1245 43.1493 57.0125 43C56.9005 42.8453 56.6685 42.7013 56.3165 42.568C55.9698 42.4347 55.4445 42.2747 54.7405 42.088C53.9778 41.8853 53.3778 41.6747 52.9405 41.456C52.5032 41.2373 52.1912 40.984 52.0045 40.696C51.8178 40.408 51.7245 40.0587 51.7245 39.648C51.7245 39.1413 51.8632 38.6987 52.1405 38.32C52.4178 37.936 52.8045 37.64 53.3005 37.432C53.8018 37.224 54.3832 37.12 55.0445 37.12C55.7005 37.12 56.2872 37.224 56.8045 37.432C57.3218 37.64 57.7378 37.936 58.0525 38.32C58.3725 38.6987 58.5618 39.1413 58.6205 39.648L57.1645 39.912C57.0952 39.448 56.8712 39.0827 56.4925 38.816C56.1192 38.5493 55.6365 38.408 55.0445 38.392C54.4845 38.3707 54.0285 38.4693 53.6765 38.688C53.3298 38.9067 53.1565 39.2027 53.1565 39.576C53.1565 39.784 53.2205 39.9627 53.3485 40.112C53.4818 40.2613 53.7245 40.4027 54.0765 40.536C54.4338 40.6693 54.9512 40.8213 55.6285 40.992C56.3912 41.184 56.9912 41.3947 57.4285 41.624C57.8712 41.848 58.1858 42.1147 58.3725 42.424C58.5592 42.728 58.6525 43.104 58.6525 43.552C58.6525 44.384 58.3458 45.04 57.7325 45.52C57.1192 45.9947 56.2738 46.232 55.1965 46.232ZM64.1609 46.24C63.3129 46.24 62.5715 46.0533 61.9369 45.68C61.3075 45.3013 60.8169 44.776 60.4649 44.104C60.1129 43.4267 59.9369 42.6373 59.9369 41.736C59.9369 40.792 60.1102 39.976 60.4569 39.288C60.8035 38.5947 61.2862 38.0613 61.9049 37.688C62.5289 37.3093 63.2595 37.12 64.0969 37.12C64.9662 37.12 65.7049 37.32 66.3129 37.72C66.9262 38.12 67.3849 38.6907 67.6889 39.432C67.9982 40.1733 68.1315 41.056 68.0889 42.08H66.6489V41.568C66.6329 40.5067 66.4169 39.7147 66.0009 39.192C65.5849 38.664 64.9662 38.4 64.1449 38.4C63.2649 38.4 62.5955 38.6827 62.1369 39.248C61.6782 39.8133 61.4489 40.624 61.4489 41.68C61.4489 42.6987 61.6782 43.488 62.1369 44.048C62.5955 44.608 63.2489 44.888 64.0969 44.888C64.6675 44.888 65.1635 44.7573 65.5849 44.496C66.0062 44.2347 66.3369 43.8587 66.5769 43.368L67.9449 43.84C67.6089 44.6027 67.1022 45.1947 66.4249 45.616C65.7529 46.032 64.9982 46.24 64.1609 46.24ZM60.9689 42.08V40.936H67.3529V42.08H60.9689ZM74.694 46C74.182 46.1013 73.6753 46.1413 73.174 46.12C72.678 46.104 72.2353 46.0053 71.846 45.824C71.4567 45.6373 71.1607 45.3493 70.958 44.96C70.7873 44.6187 70.694 44.2747 70.678 43.928C70.6673 43.576 70.662 43.1787 70.662 42.736V34.96H72.086V42.672C72.086 43.024 72.0887 43.3253 72.094 43.576C72.1047 43.8267 72.1607 44.0427 72.262 44.224C72.454 44.5653 72.758 44.7653 73.174 44.824C73.5953 44.8827 74.102 44.8667 74.694 44.776V46ZM68.91 38.536V37.36H74.694V38.536H68.91ZM79.7121 46.232C78.6828 46.232 77.8375 46.008 77.1761 45.56C76.5201 45.1067 76.1175 44.4747 75.9681 43.664L77.4241 43.432C77.5415 43.9013 77.8108 44.2747 78.2321 44.552C78.6535 44.824 79.1761 44.96 79.8001 44.96C80.3921 44.96 80.8561 44.8373 81.1921 44.592C81.5281 44.3467 81.6961 44.0133 81.6961 43.592C81.6961 43.3467 81.6401 43.1493 81.5281 43C81.4161 42.8453 81.1841 42.7013 80.8321 42.568C80.4855 42.4347 79.9601 42.2747 79.2561 42.088C78.4935 41.8853 77.8935 41.6747 77.4561 41.456C77.0188 41.2373 76.7068 40.984 76.5201 40.696C76.3335 40.408 76.2401 40.0587 76.2401 39.648C76.2401 39.1413 76.3788 38.6987 76.6561 38.32C76.9335 37.936 77.3201 37.64 77.8161 37.432C78.3175 37.224 78.8988 37.12 79.5601 37.12C80.2161 37.12 80.8028 37.224 81.3201 37.432C81.8375 37.64 82.2535 37.936 82.5681 38.32C82.8881 38.6987 83.0775 39.1413 83.1361 39.648L81.6801 39.912C81.6108 39.448 81.3868 39.0827 81.0081 38.816C80.6348 38.5493 80.1521 38.408 79.5601 38.392C79.0001 38.3707 78.5441 38.4693 78.1921 38.688C77.8455 38.9067 77.6721 39.2027 77.6721 39.576C77.6721 39.784 77.7361 39.9627 77.8641 40.112C77.9975 40.2613 78.2401 40.4027 78.5921 40.536C78.9495 40.6693 79.4668 40.8213 80.1441 40.992C80.9068 41.184 81.5068 41.3947 81.9441 41.624C82.3868 41.848 82.7015 42.1147 82.8881 42.424C83.0748 42.728 83.1681 43.104 83.1681 43.552C83.1681 44.384 82.8615 45.04 82.2481 45.52C81.6348 45.9947 80.7895 46.232 79.7121 46.232Z" fill="#808080"/>
<rect x="205" y="20" width="63" height="40" rx="6" fill="white"/>
<path d="M218.28 46V34.48H219.704V44.648H225.048V46H218.28ZM226.561 35.832V34.36H227.985V35.832H226.561ZM226.561 46V37.36H227.985V46H226.561ZM236.538 46V41.672C236.538 41.2613 236.5 40.8667 236.426 40.488C236.356 40.1093 236.231 39.7707 236.05 39.472C235.874 39.168 235.634 38.928 235.33 38.752C235.031 38.576 234.652 38.488 234.194 38.488C233.836 38.488 233.511 38.5493 233.218 38.672C232.93 38.7893 232.682 38.9707 232.474 39.216C232.266 39.4613 232.103 39.7707 231.986 40.144C231.874 40.512 231.818 40.9467 231.818 41.448L230.882 41.16C230.882 40.3227 231.031 39.6053 231.33 39.008C231.634 38.4053 232.058 37.944 232.602 37.624C233.151 37.2987 233.796 37.136 234.538 37.136C235.098 37.136 235.575 37.224 235.97 37.4C236.364 37.576 236.692 37.8107 236.954 38.104C237.215 38.392 237.42 38.7173 237.57 39.08C237.719 39.4373 237.823 39.8027 237.882 40.176C237.946 40.544 237.978 40.8933 237.978 41.224V46H236.538ZM230.378 46V37.36H231.658V39.672H231.818V46H230.378ZM240.05 46L240.058 34.48H241.498V41.52L245.122 37.36H246.97L243.154 41.68L247.418 46H245.426L241.498 41.84V46H240.05ZM251.322 46.232C250.292 46.232 249.447 46.008 248.786 45.56C248.13 45.1067 247.727 44.4747 247.578 43.664L249.034 43.432C249.151 43.9013 249.42 44.2747 249.842 44.552C250.263 44.824 250.786 44.96 251.41 44.96C252.002 44.96 252.466 44.8373 252.802 44.592C253.138 44.3467 253.306 44.0133 253.306 43.592C253.306 43.3467 253.25 43.1493 253.138 43C253.026 42.8453 252.794 42.7013 252.442 42.568C252.095 42.4347 251.57 42.2747 250.866 42.088C250.103 41.8853 249.503 41.6747 249.066 41.456C248.628 41.2373 248.316 40.984 248.13 40.696C247.943 40.408 247.85 40.0587 247.85 39.648C247.85 39.1413 247.988 38.6987 248.266 38.32C248.543 37.936 248.93 37.64 249.426 37.432C249.927 37.224 250.508 37.12 251.17 37.12C251.826 37.12 252.412 37.224 252.93 37.432C253.447 37.64 253.863 37.936 254.178 38.32C254.498 38.6987 254.687 39.1413 254.746 39.648L253.29 39.912C253.22 39.448 252.996 39.0827 252.618 38.816C252.244 38.5493 251.762 38.408 251.17 38.392C250.61 38.3707 250.154 38.4693 249.802 38.688C249.455 38.9067 249.282 39.2027 249.282 39.576C249.282 39.784 249.346 39.9627 249.474 40.112C249.607 40.2613 249.85 40.4027 250.202 40.536C250.559 40.6693 251.076 40.8213 251.754 40.992C252.516 41.184 253.116 41.3947 253.554 41.624C253.996 41.848 254.311 42.1147 254.498 42.424C254.684 42.728 254.778 43.104 254.778 43.552C254.778 44.384 254.471 45.04 253.858 45.52C253.244 45.9947 252.399 46.232 251.322 46.232Z" fill="#808080"/>
</svg>
