<svg width="36" height="36" viewBox="0 0 36 36" fill="none" xmlns="http://www.w3.org/2000/svg">
<circle cx="18" cy="18" r="17.5" fill="white" stroke="#C6C6C6"/>
<mask id="mask0_8826_21384" style="mask-type:alpha" maskUnits="userSpaceOnUse" x="0" y="0" width="36" height="36">
<circle cx="18" cy="18" r="18" fill="white"/>
</mask>
<g mask="url(#mask0_8826_21384)">
<path d="M17.9972 24.0002C21.3504 24.0002 24.0686 21.2819 24.0686 17.9287C24.0686 14.5756 21.3504 11.8573 17.9972 11.8573C14.6441 11.8573 11.9258 14.5756 11.9258 17.9287C11.9258 21.2819 14.6441 24.0002 17.9972 24.0002Z" fill="#C6C6C6"/>
<path d="M17.9988 27.0358C11.9152 27.0358 6.96094 31.1158 6.96094 36.143C6.96094 36.483 7.22808 36.7501 7.56808 36.7501H28.4295C28.7695 36.7501 29.0367 36.483 29.0367 36.143C29.0367 31.1158 24.0824 27.0358 17.9988 27.0358Z" fill="#C6C6C6"/>
</g>
</svg>
