<svg width="70" height="70" viewBox="0 0 70 70" fill="none" xmlns="http://www.w3.org/2000/svg">
<path d="M60.7531 17.3208H8.95313M57.4322 61.079H12.5996C10.581 61.079 8.95313 59.451 8.95313 57.4324V12.5999C8.95312 10.5813 10.581 8.95337 12.5996 8.95337H57.4322C59.4508 8.95337 61.0787 10.5813 61.0787 12.5999V57.4324C61.0787 59.451 59.4508 61.079 57.4322 61.079Z" stroke="#1D1D1D" stroke-width="2" stroke-miterlimit="10" stroke-linecap="round" stroke-linejoin="round"/>
<path d="M23.2784 13.1372H23.2947M14.1133 13.1372H14.1296M18.6877 13.1372H18.7203" stroke="#1D1D1D" stroke-width="2" stroke-miterlimit="10" stroke-linecap="round" stroke-linejoin="round"/>
<path d="M22.0413 38.793H17.125V43.7092H22.0413V38.793ZM22.0413 50.8395H17.125V55.7558H22.0413V50.8395Z" stroke="#1D1D1D" stroke-width="2" stroke-miterlimit="10" stroke-linecap="round" stroke-linejoin="round"/>
<path d="M27.5924 41.2673H33.225M38.9227 41.2673H51.2948M27.5924 53.2976H51.2948M17.125 24.272H52.9227M17.125 30.1324H28.032" stroke="#1D1D1D" stroke-width="2" stroke-miterlimit="10" stroke-linecap="round" stroke-linejoin="round"/>
</svg>
