<svg width="70" height="70" viewBox="0 0 70 70" fill="none" xmlns="http://www.w3.org/2000/svg">
<path d="M7.3252 12.2092C7.3252 10.411 8.78282 8.95337 10.581 8.95337H59.4182C61.2164 8.95337 62.674 10.411 62.674 12.2092V48.0231C62.674 49.8213 61.2164 51.279 59.4182 51.279H10.581C8.78282 51.279 7.3252 49.8213 7.3252 48.0231V12.2092Z" stroke="#1D1D1D" stroke-width="2" stroke-linejoin="round"/>
<path d="M30.1167 51.2791L29.3027 61.0465M39.8841 51.2791L40.6981 61.0465" stroke="#1D1D1D" stroke-width="2" stroke-linecap="round" stroke-linejoin="round"/>
<path d="M46.395 61.0466H23.6043M62.674 41.5117H7.3252" stroke="#1D1D1D" stroke-width="2" stroke-linecap="round"/>
<path d="M35 48.0231C35.899 48.0231 36.6279 47.2943 36.6279 46.3952C36.6279 45.4962 35.899 44.7673 35 44.7673C34.1009 44.7673 33.3721 45.4962 33.3721 46.3952C33.3721 47.2943 34.1009 48.0231 35 48.0231Z" fill="#1D1D1D"/>
<path d="M39.5584 31.7442H29.6327C28.4785 31.7442 27.5429 30.8086 27.5429 29.6544C27.5429 28.5494 28.4033 27.6353 29.5062 27.5684L39.6183 26.9555C40.0788 26.9277 40.5198 26.7598 40.8822 26.4742C41.2446 26.1887 41.511 25.7993 41.6458 25.358L43.6281 18.876H26.6903M26.6903 18.876L28.3956 27.6164M26.6903 18.876L26.4579 17.9468C26.2806 17.238 25.8715 16.6088 25.2956 16.1591C24.7197 15.7094 24.01 15.4652 23.2793 15.4651" stroke="#1D1D1D" stroke-width="2" stroke-linecap="round" stroke-linejoin="round"/>
<path d="M29.7905 31.7441C31.1343 31.7441 32.2324 32.8334 32.2324 34.186C32.2324 35.5298 31.1431 36.6279 29.7905 36.6279C28.4379 36.6279 27.3486 35.5386 27.3486 34.186C27.3574 32.8334 28.4467 31.7441 29.7905 31.7441ZM39.5579 31.7441C40.9018 31.7441 41.9998 32.8334 41.9998 34.186C41.9998 35.5298 40.9106 36.6279 39.5579 36.6279C38.2141 36.6279 37.1161 35.5386 37.1161 34.186C37.1249 32.8334 38.2141 31.7441 39.5579 31.7441Z" stroke="#1D1D1D" stroke-width="2" stroke-miterlimit="14.8"/>
</svg>
