<svg width="70" height="70" viewBox="0 0 70 70" fill="none" xmlns="http://www.w3.org/2000/svg">
<path d="M54.7469 27.4954C51.833 20.6419 45.0283 15.8396 37.1167 15.8396C29.726 15.8396 23.3121 20.0396 20.1051 26.1768C19.519 25.9815 18.9004 25.8838 18.2655 25.8838C14.9772 25.8838 12.3074 28.5536 12.3074 31.8419C12.3074 32.2815 12.3562 32.7047 12.4539 33.128C8.90507 35.0001 6.47949 38.7117 6.47949 42.9931C6.47949 49.1466 11.4772 54.1443 17.6307 54.1443H49.6841C57.319 54.1443 63.4888 47.9582 63.4888 40.3396C63.5214 34.4954 59.8748 29.514 54.7469 27.4954Z" stroke="#1D1D1D" stroke-width="2" stroke-miterlimit="14" stroke-linecap="round" stroke-linejoin="round"/>
<path d="M23.8653 29.8396C23.0351 27.5443 20.8374 25.8838 18.249 25.8838M54.6979 27.3489C55.7234 29.6931 56.2769 32.2815 56.2769 34.9838C56.2769 34.9838 56.2769 37.0024 55.5769 39.4931" stroke="#1D1D1D" stroke-width="2" stroke-miterlimit="14" stroke-linecap="round" stroke-linejoin="round"/>
<path d="M28.7003 36.9048L22.6934 41.3327L28.7003 45.7769M43.5143 36.9048L49.5375 41.3327L43.5143 45.7769M37.4748 36.9048L34.6096 45.7769" stroke="#1D1D1D" stroke-width="2" stroke-miterlimit="10" stroke-linecap="round" stroke-linejoin="round"/>
</svg>
