<svg width="70" height="70" viewBox="0 0 70 70" fill="none" xmlns="http://www.w3.org/2000/svg">
<path d="M61.0657 17.2966H8.93359M57.4175 8.93408H12.5817C10.5669 8.93408 8.93359 10.5674 8.93359 12.5822V57.418C8.93359 59.4329 10.5669 61.0662 12.5817 61.0662H57.4175C59.4324 61.0662 61.0657 59.4329 61.0657 57.418V12.5822C61.0657 10.5674 59.4324 8.93408 57.4175 8.93408Z" stroke="#1D1D1D" stroke-width="2" stroke-linecap="round" stroke-linejoin="round"/>
<path d="M23.2563 13.1162H23.2791M14.0928 13.1162H14.1139M18.6753 13.1162H18.6965" stroke="#1D1D1D" stroke-width="2" stroke-linecap="round" stroke-linejoin="round"/>
<path d="M25.7679 32.8286L15.4502 40.4309L25.7679 48.0333M44.2316 32.8286L54.5493 40.4309L44.2316 48.0333M37.4628 32.8286L32.5367 48.0333" stroke="#1D1D1D" stroke-width="2" stroke-linecap="round" stroke-linejoin="round"/>
</svg>
