<svg width="251" height="256" viewBox="0 0 251 256" fill="none" xmlns="http://www.w3.org/2000/svg">
<g opacity="0.4" clip-path="url(#clip0_9118_7925)">
<rect width="1" height="158" transform="matrix(1 0 0 -1 35 256)" fill="url(#paint0_linear_9118_7925)"/>
<rect width="1" height="158" transform="matrix(-1 0 0 1 36 0)" fill="url(#paint1_linear_9118_7925)"/>
<rect width="1" height="158" transform="matrix(1 0 0 -1 71 256)" fill="url(#paint2_linear_9118_7925)"/>
<rect width="1" height="158" transform="matrix(-1 0 0 1 72 0)" fill="url(#paint3_linear_9118_7925)"/>
<rect width="1" height="158" transform="matrix(1 0 0 -1 107 256)" fill="url(#paint4_linear_9118_7925)"/>
<rect width="1" height="158" transform="matrix(-1 0 0 1 108 0)" fill="url(#paint5_linear_9118_7925)"/>
<rect width="1" height="158" transform="matrix(1 0 0 -1 143 256)" fill="url(#paint6_linear_9118_7925)"/>
<rect width="1" height="158" transform="matrix(-1 0 0 1 144 0)" fill="url(#paint7_linear_9118_7925)"/>
<rect width="1" height="158" transform="matrix(1 0 0 -1 179 256)" fill="url(#paint8_linear_9118_7925)"/>
<rect width="1" height="158" transform="matrix(-1 0 0 1 180 0)" fill="url(#paint9_linear_9118_7925)"/>
<rect width="1" height="158" transform="matrix(1 0 0 -1 215 256)" fill="url(#paint10_linear_9118_7925)"/>
<rect width="1" height="158" transform="matrix(-1 0 0 1 216 0)" fill="url(#paint11_linear_9118_7925)"/>
<rect x="1" y="218" width="1" height="162" transform="rotate(-90 1 218)" fill="url(#paint12_linear_9118_7925)"/>
<rect width="1" height="162" transform="matrix(0 -1 -1 0 251 218)" fill="url(#paint13_linear_9118_7925)"/>
<rect x="1" y="182" width="1" height="162" transform="rotate(-90 1 182)" fill="url(#paint14_linear_9118_7925)"/>
<rect width="1" height="162" transform="matrix(0 -1 -1 0 251 182)" fill="url(#paint15_linear_9118_7925)"/>
<rect x="1" y="146" width="1" height="162" transform="rotate(-90 1 146)" fill="url(#paint16_linear_9118_7925)"/>
<rect width="1" height="162" transform="matrix(0 -1 -1 0 251 146)" fill="url(#paint17_linear_9118_7925)"/>
<rect x="1" y="110" width="1" height="162" transform="rotate(-90 1 110)" fill="url(#paint18_linear_9118_7925)"/>
<rect width="1" height="162" transform="matrix(0 -1 -1 0 251 110)" fill="url(#paint19_linear_9118_7925)"/>
<rect x="1" y="74" width="1" height="162" transform="rotate(-90 1 74)" fill="url(#paint20_linear_9118_7925)"/>
<rect width="1" height="162" transform="matrix(0 -1 -1 0 251 74)" fill="url(#paint21_linear_9118_7925)"/>
<rect x="1" y="38" width="1" height="162" transform="rotate(-90 1 38)" fill="url(#paint22_linear_9118_7925)"/>
<rect width="1" height="162" transform="matrix(0 -1 -1 0 251 38)" fill="url(#paint23_linear_9118_7925)"/>
</g>
<defs>
<linearGradient id="paint0_linear_9118_7925" x1="0.983578" y1="12.7583" x2="0.983578" y2="0" gradientUnits="userSpaceOnUse">
<stop stop-color="#B4B4B4"/>
<stop offset="1" stop-color="#B4B4B4" stop-opacity="0"/>
</linearGradient>
<linearGradient id="paint1_linear_9118_7925" x1="0.983578" y1="12.7583" x2="0.983578" y2="0" gradientUnits="userSpaceOnUse">
<stop stop-color="#B4B4B4"/>
<stop offset="1" stop-color="#B4B4B4" stop-opacity="0"/>
</linearGradient>
<linearGradient id="paint2_linear_9118_7925" x1="0.983578" y1="12.7583" x2="0.983578" y2="0" gradientUnits="userSpaceOnUse">
<stop stop-color="#B4B4B4"/>
<stop offset="1" stop-color="#B4B4B4" stop-opacity="0"/>
</linearGradient>
<linearGradient id="paint3_linear_9118_7925" x1="0.983578" y1="12.7583" x2="0.983578" y2="0" gradientUnits="userSpaceOnUse">
<stop stop-color="#B4B4B4"/>
<stop offset="1" stop-color="#B4B4B4" stop-opacity="0"/>
</linearGradient>
<linearGradient id="paint4_linear_9118_7925" x1="0.983578" y1="12.7583" x2="0.983578" y2="0" gradientUnits="userSpaceOnUse">
<stop stop-color="#B4B4B4"/>
<stop offset="1" stop-color="#B4B4B4" stop-opacity="0"/>
</linearGradient>
<linearGradient id="paint5_linear_9118_7925" x1="0.983578" y1="12.7583" x2="0.983578" y2="0" gradientUnits="userSpaceOnUse">
<stop stop-color="#B4B4B4"/>
<stop offset="1" stop-color="#B4B4B4" stop-opacity="0"/>
</linearGradient>
<linearGradient id="paint6_linear_9118_7925" x1="0.983578" y1="12.7583" x2="0.983578" y2="0" gradientUnits="userSpaceOnUse">
<stop stop-color="#B4B4B4"/>
<stop offset="1" stop-color="#B4B4B4" stop-opacity="0"/>
</linearGradient>
<linearGradient id="paint7_linear_9118_7925" x1="0.983578" y1="12.7583" x2="0.983578" y2="0" gradientUnits="userSpaceOnUse">
<stop stop-color="#B4B4B4"/>
<stop offset="1" stop-color="#B4B4B4" stop-opacity="0"/>
</linearGradient>
<linearGradient id="paint8_linear_9118_7925" x1="0.983578" y1="12.7583" x2="0.983578" y2="0" gradientUnits="userSpaceOnUse">
<stop stop-color="#B4B4B4"/>
<stop offset="1" stop-color="#B4B4B4" stop-opacity="0"/>
</linearGradient>
<linearGradient id="paint9_linear_9118_7925" x1="0.983578" y1="12.7583" x2="0.983578" y2="0" gradientUnits="userSpaceOnUse">
<stop stop-color="#B4B4B4"/>
<stop offset="1" stop-color="#B4B4B4" stop-opacity="0"/>
</linearGradient>
<linearGradient id="paint10_linear_9118_7925" x1="0.983578" y1="12.7583" x2="0.983578" y2="0" gradientUnits="userSpaceOnUse">
<stop stop-color="#B4B4B4"/>
<stop offset="1" stop-color="#B4B4B4" stop-opacity="0"/>
</linearGradient>
<linearGradient id="paint11_linear_9118_7925" x1="0.983578" y1="12.7583" x2="0.983578" y2="0" gradientUnits="userSpaceOnUse">
<stop stop-color="#B4B4B4"/>
<stop offset="1" stop-color="#B4B4B4" stop-opacity="0"/>
</linearGradient>
<linearGradient id="paint12_linear_9118_7925" x1="1.98358" y1="231.081" x2="1.98358" y2="218" gradientUnits="userSpaceOnUse">
<stop stop-color="#B4B4B4"/>
<stop offset="1" stop-color="#B4B4B4" stop-opacity="0"/>
</linearGradient>
<linearGradient id="paint13_linear_9118_7925" x1="0.983578" y1="13.0813" x2="0.983578" y2="0" gradientUnits="userSpaceOnUse">
<stop stop-color="#B4B4B4"/>
<stop offset="1" stop-color="#B4B4B4" stop-opacity="0"/>
</linearGradient>
<linearGradient id="paint14_linear_9118_7925" x1="1.98358" y1="195.081" x2="1.98358" y2="182" gradientUnits="userSpaceOnUse">
<stop stop-color="#B4B4B4"/>
<stop offset="1" stop-color="#B4B4B4" stop-opacity="0"/>
</linearGradient>
<linearGradient id="paint15_linear_9118_7925" x1="0.983578" y1="13.0813" x2="0.983578" y2="0" gradientUnits="userSpaceOnUse">
<stop stop-color="#B4B4B4"/>
<stop offset="1" stop-color="#B4B4B4" stop-opacity="0"/>
</linearGradient>
<linearGradient id="paint16_linear_9118_7925" x1="1.98358" y1="159.081" x2="1.98358" y2="146" gradientUnits="userSpaceOnUse">
<stop stop-color="#B4B4B4"/>
<stop offset="1" stop-color="#B4B4B4" stop-opacity="0"/>
</linearGradient>
<linearGradient id="paint17_linear_9118_7925" x1="0.983578" y1="13.0813" x2="0.983578" y2="0" gradientUnits="userSpaceOnUse">
<stop stop-color="#B4B4B4"/>
<stop offset="1" stop-color="#B4B4B4" stop-opacity="0"/>
</linearGradient>
<linearGradient id="paint18_linear_9118_7925" x1="1.98358" y1="123.081" x2="1.98358" y2="110" gradientUnits="userSpaceOnUse">
<stop stop-color="#B4B4B4"/>
<stop offset="1" stop-color="#B4B4B4" stop-opacity="0"/>
</linearGradient>
<linearGradient id="paint19_linear_9118_7925" x1="0.983578" y1="13.0813" x2="0.983578" y2="0" gradientUnits="userSpaceOnUse">
<stop stop-color="#B4B4B4"/>
<stop offset="1" stop-color="#B4B4B4" stop-opacity="0"/>
</linearGradient>
<linearGradient id="paint20_linear_9118_7925" x1="1.98358" y1="87.0813" x2="1.98358" y2="74" gradientUnits="userSpaceOnUse">
<stop stop-color="#B4B4B4"/>
<stop offset="1" stop-color="#B4B4B4" stop-opacity="0"/>
</linearGradient>
<linearGradient id="paint21_linear_9118_7925" x1="0.983578" y1="13.0813" x2="0.983578" y2="0" gradientUnits="userSpaceOnUse">
<stop stop-color="#B4B4B4"/>
<stop offset="1" stop-color="#B4B4B4" stop-opacity="0"/>
</linearGradient>
<linearGradient id="paint22_linear_9118_7925" x1="1.98358" y1="51.0813" x2="1.98358" y2="38" gradientUnits="userSpaceOnUse">
<stop stop-color="#B4B4B4"/>
<stop offset="1" stop-color="#B4B4B4" stop-opacity="0"/>
</linearGradient>
<linearGradient id="paint23_linear_9118_7925" x1="0.983578" y1="13.0813" x2="0.983578" y2="0" gradientUnits="userSpaceOnUse">
<stop stop-color="#B4B4B4"/>
<stop offset="1" stop-color="#B4B4B4" stop-opacity="0"/>
</linearGradient>
<clipPath id="clip0_9118_7925">
<rect width="251" height="256" fill="white"/>
</clipPath>
</defs>
</svg>
