<svg width="430" height="1112" viewBox="0 0 430 1112" fill="none" xmlns="http://www.w3.org/2000/svg">
<g clip-path="url(#clip0_8897_38232)">
<rect x="123" y="-6" width="1" height="1361" fill="#DEDEDE"/>
<rect x="367" y="-6" width="1" height="1361" fill="#DEDEDE"/>
<rect x="245" y="-6" width="1" height="1361" fill="#DEDEDE"/>
<rect x="1" y="-6" width="1" height="1361" fill="#DEDEDE"/>
<rect x="184" y="-6" width="1" height="1361" fill="#DEDEDE"/>
<rect x="428" y="-6" width="1" height="1361" fill="#DEDEDE"/>
<rect x="62" y="-6" width="1" height="1361" fill="#DEDEDE"/>
<rect x="306" y="-6" width="1" height="1361" fill="#DEDEDE"/>
<rect x="-120" y="75" width="1" height="670" transform="rotate(-90 -120 75)" fill="#DEDEDE"/>
<rect x="-120" y="807" width="1" height="670" transform="rotate(-90 -120 807)" fill="#DEDEDE"/>
<rect x="-120" y="258" width="1" height="670" transform="rotate(-90 -120 258)" fill="#DEDEDE"/>
<rect x="-120" y="563" width="1" height="670" transform="rotate(-90 -120 563)" fill="#DEDEDE"/>
<rect x="-120" y="136" width="1" height="670" transform="rotate(-90 -120 136)" fill="#DEDEDE"/>
<rect x="-120" y="868" width="1" height="670" transform="rotate(-90 -120 868)" fill="#DEDEDE"/>
<rect x="-120" y="990" width="1" height="670" transform="rotate(-90 -120 990)" fill="#DEDEDE"/>
<rect x="-120" y="1112" width="1" height="670" transform="rotate(-90 -120 1112)" fill="#DEDEDE"/>
<rect x="-120" y="380" width="1" height="670" transform="rotate(-90 -120 380)" fill="#DEDEDE"/>
<rect x="-120" y="685" width="1" height="670" transform="rotate(-90 -120 685)" fill="#DEDEDE"/>
<rect x="-120" y="319" width="1" height="670" transform="rotate(-90 -120 319)" fill="#DEDEDE"/>
<rect x="-120" y="624" width="1" height="670" transform="rotate(-90 -120 624)" fill="#DEDEDE"/>
<rect x="-120" y="197" width="1" height="670" transform="rotate(-90 -120 197)" fill="#DEDEDE"/>
<rect x="-120" y="929" width="1" height="670" transform="rotate(-90 -120 929)" fill="#DEDEDE"/>
<rect x="-120" y="1051" width="1" height="670" transform="rotate(-90 -120 1051)" fill="#DEDEDE"/>
<rect x="-120" y="502" width="1" height="670" transform="rotate(-90 -120 502)" fill="#DEDEDE"/>
<rect x="-120" y="441" width="1" height="670" transform="rotate(-90 -120 441)" fill="#DEDEDE"/>
<rect x="-120" y="746" width="1" height="670" transform="rotate(-90 -120 746)" fill="#DEDEDE"/>
<rect width="270" height="1280" transform="matrix(-1 0 0 1 430 0)" fill="url(#paint0_linear_8897_38232)"/>
<rect width="170" height="430" transform="matrix(-4.37114e-08 1 1 4.37114e-08 0 0)" fill="url(#paint1_linear_8897_38232)"/>
<rect width="270" height="1280" fill="url(#paint2_linear_8897_38232)"/>
</g>
<defs>
<linearGradient id="paint0_linear_8897_38232" x1="270" y1="640" x2="0" y2="640" gradientUnits="userSpaceOnUse">
<stop stop-color="white" stop-opacity="0.08"/>
<stop offset="1" stop-color="white"/>
</linearGradient>
<linearGradient id="paint1_linear_8897_38232" x1="170" y1="215" x2="0" y2="215" gradientUnits="userSpaceOnUse">
<stop stop-color="white" stop-opacity="0.08"/>
<stop offset="1" stop-color="white"/>
</linearGradient>
<linearGradient id="paint2_linear_8897_38232" x1="270" y1="640" x2="0" y2="640" gradientUnits="userSpaceOnUse">
<stop stop-color="white" stop-opacity="0.08"/>
<stop offset="1" stop-color="white"/>
</linearGradient>
<clipPath id="clip0_8897_38232">
<rect width="430" height="1112" fill="white"/>
</clipPath>
</defs>
</svg>
