<svg width="350" height="283" viewBox="0 0 350 283" fill="none" xmlns="http://www.w3.org/2000/svg">
<rect width="350" height="283" rx="10" fill="white"/>
<rect x="28.2305" y="51.1563" width="102.312" height="38.6513" fill="#D3E5EF"/>
<rect x="28.2305" y="51.1563" width="102.312" height="38.6513" stroke="#5B97BD" stroke-width="0.757869"/>
<rect x="129.027" y="88.292" width="3.03148" height="3.03148" fill="white" stroke="#5B97BD" stroke-width="0.757869"/>
<rect x="26.7149" y="88.292" width="3.03148" height="3.03148" fill="white" stroke="#5B97BD" stroke-width="0.757869"/>
<rect x="26.7149" y="49.6407" width="3.03148" height="3.03148" fill="white" stroke="#5B97BD" stroke-width="0.757869"/>
<rect x="129.027" y="49.6407" width="3.03148" height="3.03148" fill="white" stroke="#5B97BD" stroke-width="0.757869"/>
<path d="M42.1446 62.3013C41.2452 62.2911 40.4065 62.4377 39.6285 62.7408C38.8504 63.044 38.2188 63.4633 37.7338 63.9989C37.2487 64.5344 37.0062 65.1559 37.0062 65.8632C37.0062 66.7121 37.2285 67.3638 37.6732 67.8185C38.1279 68.2632 38.7443 68.5966 39.5224 68.8189C40.3004 69.0412 41.1745 69.2383 42.1446 69.4101C43.5188 69.6425 44.7921 70.0113 45.9642 70.5166C47.1364 71.0117 48.0762 71.6736 48.7835 72.5022C49.501 73.3308 49.8597 74.3514 49.8597 75.564C49.8597 76.6957 49.5515 77.6961 48.9351 78.5651C48.3187 79.4342 47.5002 80.1364 46.4796 80.672C45.459 81.1975 44.3323 81.5158 43.0995 81.6269V84.6887H41.2351V81.6269C40.1943 81.5461 39.2091 81.3187 38.2794 80.9448C37.3498 80.571 36.5414 80.0708 35.8543 79.4443C35.1671 78.8076 34.672 78.07 34.3688 77.2313L36.7486 76.337C36.9506 76.9029 37.3245 77.398 37.8702 77.8224C38.426 78.2367 39.0777 78.5601 39.8255 78.7925C40.5733 79.0249 41.3463 79.1411 42.1446 79.1411C43.054 79.1411 43.8978 78.9946 44.6759 78.7015C45.464 78.3984 46.1007 77.979 46.5857 77.4435C47.0707 76.9079 47.3132 76.2814 47.3132 75.564C47.3132 74.8263 47.0606 74.2251 46.5554 73.7602C46.0501 73.2853 45.4034 72.9114 44.6152 72.6386C43.827 72.3557 43.0035 72.1384 42.1446 71.9868C40.6794 71.7443 39.3657 71.4007 38.2037 70.9561C37.0517 70.5014 36.1372 69.8698 35.4602 69.0614C34.7932 68.2531 34.4598 67.187 34.4598 65.8632C34.4598 64.7315 34.768 63.7311 35.3844 62.8621C36.0008 61.9829 36.8193 61.2807 37.8399 60.7552C38.8706 60.2297 40.0023 59.9114 41.2351 59.8003V56.6779H43.0995V59.8003C44.0999 59.8912 45.0599 60.1236 45.9794 60.4975C46.8989 60.8613 47.7073 61.3564 48.4046 61.9829C49.1119 62.6095 49.6273 63.3572 49.9506 64.2262L47.5406 65.1054C47.3385 64.5294 46.9596 64.0342 46.4038 63.6199C45.8581 63.1955 45.2114 62.8722 44.4637 62.6499C43.726 62.4175 42.953 62.3013 42.1446 62.3013ZM52.3682 81.2935V79.035C53.1463 78.3378 54.0204 77.5597 54.9905 76.7008C55.9605 75.8317 56.9256 74.9274 57.8855 73.9876C58.8556 73.0377 59.7448 72.098 60.5532 71.1683C61.3616 70.2387 62.0134 69.3595 62.5085 68.5309C63.0037 67.6922 63.2512 66.9596 63.2512 66.3331C63.2512 65.5854 63.0694 64.9033 62.7056 64.2869C62.3418 63.6604 61.8517 63.1602 61.2353 62.7863C60.629 62.4124 59.952 62.2255 59.2042 62.2255C58.4565 62.2255 57.7693 62.4124 57.1428 62.7863C56.5264 63.1602 56.0313 63.6604 55.6574 64.2869C55.2936 64.9033 55.1117 65.5854 55.1117 66.3331H52.5653C52.5653 65.0902 52.8684 63.9686 53.4747 62.9682C54.081 61.9577 54.8844 61.1594 55.8847 60.5733C56.8851 59.9771 57.9916 59.679 59.2042 59.679C60.4168 59.679 61.5182 59.9771 62.5085 60.5733C63.5089 61.1695 64.3072 61.9728 64.9034 62.9833C65.4996 63.9837 65.7977 65.1003 65.7977 66.3331C65.7977 67.0405 65.6259 67.8034 65.2823 68.6219C64.9388 69.4303 64.4689 70.2639 63.8727 71.1229C63.2765 71.9818 62.5995 72.8508 61.8416 73.7299C61.0837 74.5989 60.2854 75.4579 59.4467 76.3067C58.608 77.1555 57.7744 77.9689 56.9458 78.747H66.0705V81.2935H52.3682ZM69.0946 82.9911L70.0344 77.8679H72.5808L70.7923 82.9911H69.0946ZM84.7323 81.2935V75.564H75.6076V72.9872L84.0957 60.0731H87.2788V73.0175H89.3857V75.564H87.2788V81.2935H84.7323ZM78.5936 72.9872L84.7323 73.0175L84.6869 63.6503L78.5936 72.9872ZM96.2879 81.2935L100.82 73.4722C99.759 73.7855 98.7131 73.8411 97.6824 73.639C96.6618 73.4268 95.7322 73.0125 94.8935 72.3961C94.0548 71.7696 93.3828 70.9814 92.8775 70.0315C92.3723 69.0817 92.1197 68.0257 92.1197 66.8636C92.1197 65.8733 92.3066 64.9437 92.6805 64.0747C93.0544 63.2056 93.5697 62.4427 94.2265 61.7859C94.8834 61.1291 95.6412 60.6137 96.5001 60.2398C97.3692 59.866 98.2988 59.679 99.2891 59.679C100.603 59.679 101.795 60.0024 102.866 60.6491C103.947 61.2958 104.811 62.1648 105.458 63.2562C106.115 64.3374 106.443 65.5399 106.443 66.8636C106.443 67.5811 106.352 68.2177 106.171 68.7735C105.999 69.3191 105.736 69.9153 105.382 70.562L99.2285 81.2935H96.2879ZM99.2588 71.4866C100.158 71.4866 100.956 71.2744 101.654 70.85C102.361 70.4155 102.912 69.8446 103.306 69.1372C103.71 68.4299 103.912 67.672 103.912 66.8636C103.912 65.9845 103.7 65.1963 103.275 64.4991C102.851 63.7917 102.285 63.236 101.578 62.8318C100.871 62.4175 100.108 62.2103 99.2891 62.2103C98.3898 62.2103 97.5864 62.4276 96.8791 62.8621C96.1818 63.2966 95.6311 63.8726 95.2269 64.59C94.8328 65.2974 94.6358 66.0552 94.6358 66.8636C94.6358 67.7124 94.8379 68.4905 95.2421 69.1979C95.6564 69.8951 96.2122 70.4509 96.9094 70.8652C97.6167 71.2795 98.3999 71.4866 99.2588 71.4866ZM116.424 81.6875C115.161 81.6875 114.029 81.4046 113.029 80.8387C112.028 80.2628 111.169 79.4695 110.452 78.459C109.734 77.4485 109.189 76.2814 108.815 74.9577C108.441 73.6238 108.254 72.199 108.254 70.6833C108.254 69.1675 108.441 67.7428 108.815 66.4089C109.189 65.0751 109.734 63.9079 110.452 62.9075C111.169 61.8971 112.028 61.1089 113.029 60.543C114.029 59.967 115.161 59.679 116.424 59.679C117.677 59.679 118.804 59.967 119.804 60.543C120.814 61.1089 121.668 61.8971 122.366 62.9075C123.073 63.9079 123.613 65.0751 123.987 66.4089C124.371 67.7428 124.563 69.1675 124.563 70.6833C124.563 72.199 124.371 73.6238 123.987 74.9577C123.613 76.2814 123.073 77.4485 122.366 78.459C121.668 79.4695 120.814 80.2628 119.804 80.8387C118.804 81.4046 117.677 81.6875 116.424 81.6875ZM116.424 79.1411C117.687 79.1411 118.743 78.7521 119.592 77.974C120.451 77.1858 121.092 76.1501 121.517 74.8667C121.941 73.5834 122.153 72.1889 122.153 70.6833C122.153 69.0968 121.931 67.667 121.486 66.3937C121.052 65.1104 120.405 64.0949 119.546 63.3471C118.697 62.5993 117.657 62.2255 116.424 62.2255C115.454 62.2255 114.605 62.4528 113.877 62.9075C113.16 63.3623 112.564 63.9837 112.089 64.7719C111.614 65.5601 111.255 66.4645 111.013 67.4851C110.78 68.4956 110.664 69.5616 110.664 70.6833C110.664 72.1889 110.881 73.5885 111.316 74.8819C111.75 76.1652 112.392 77.1959 113.241 77.974C114.1 78.7521 115.161 79.1411 116.424 79.1411Z" fill="#183347"/>
<path d="M34.5204 34.1572V21.425H35.7936V34.1572H34.5204ZM46.1745 28.5278V34.1572H44.9013V28.7824C44.9013 28.2853 44.78 27.8336 44.5375 27.4273C44.295 27.0211 43.9706 26.6968 43.5644 26.4542C43.1582 26.2117 42.7065 26.0905 42.2093 26.0905C41.7182 26.0905 41.2665 26.2117 40.8543 26.4542C40.448 26.6968 40.1237 27.0211 39.8812 27.4273C39.6386 27.8336 39.5174 28.2853 39.5174 28.7824V34.1572H38.2442V25.0628H39.5174V26.3178C39.8387 25.857 40.2571 25.4902 40.7724 25.2174C41.2878 24.9446 41.8486 24.8082 42.4549 24.8082C43.14 24.8082 43.7645 24.9749 44.3283 25.3083C44.8922 25.6418 45.3408 26.0905 45.6743 26.6543C46.0078 27.2182 46.1745 27.8427 46.1745 28.5278ZM52.2108 34.1572H50.592L47.2725 25.0355H48.6276L51.4014 32.6657L54.1752 25.0355H55.5303L52.2108 34.1572ZM60.6832 34.3937C59.8466 34.3937 59.0826 34.1784 58.3914 33.748C57.7063 33.3175 57.1576 32.7415 56.7454 32.02C56.3391 31.2925 56.136 30.4891 56.136 29.61C56.136 28.9431 56.2543 28.3216 56.4907 27.7457C56.7272 27.1636 57.0515 26.6543 57.4638 26.2178C57.8822 25.7752 58.3672 25.4296 58.9189 25.181C59.4707 24.9324 60.0588 24.8082 60.6832 24.8082C61.5199 24.8082 62.2808 25.0234 62.9659 25.4539C63.6571 25.8843 64.2058 26.4633 64.612 27.1909C65.0243 27.9184 65.2305 28.7248 65.2305 29.61C65.2305 30.2709 65.1122 30.8893 64.8758 31.4653C64.6393 32.0413 64.3119 32.5505 63.8936 32.9931C63.4813 33.4297 62.9993 33.7722 62.4476 34.0208C61.9019 34.2694 61.3138 34.3937 60.6832 34.3937ZM60.6832 33.1205C61.3017 33.1205 61.8564 32.9598 62.3475 32.6385C62.8447 32.3111 63.2357 31.8806 63.5207 31.347C63.8117 30.8135 63.9572 30.2345 63.9572 29.61C63.9572 28.9734 63.8117 28.3883 63.5207 27.8548C63.2297 27.3152 62.8356 26.8847 62.3384 26.5634C61.8473 26.242 61.2956 26.0814 60.6832 26.0814C60.0648 26.0814 59.507 26.2451 59.0099 26.5725C58.5188 26.8938 58.1277 27.3212 57.8367 27.8548C57.5517 28.3883 57.4093 28.9734 57.4093 29.61C57.4093 30.2648 57.5578 30.859 57.8549 31.3925C58.152 31.92 58.5491 32.3414 59.0462 32.6566C59.5434 32.9659 60.0891 33.1205 60.6832 33.1205ZM66.682 25.0628H67.9552V34.1572H66.682V25.0628ZM67.3277 23.4713C67.1216 23.4713 66.9458 23.4046 66.8002 23.2712C66.6608 23.1317 66.5911 22.959 66.5911 22.7528C66.5911 22.5467 66.6608 22.3769 66.8002 22.2435C66.9458 22.1041 67.1216 22.0343 67.3277 22.0343C67.5278 22.0343 67.6976 22.1041 67.837 22.2435C67.9825 22.3769 68.0553 22.5467 68.0553 22.7528C68.0553 22.959 67.9856 23.1317 67.8461 23.2712C67.7067 23.4046 67.5339 23.4713 67.3277 23.4713ZM76.5503 31.8745L77.6871 32.4929C77.2749 33.0689 76.7504 33.5297 76.1138 33.8753C75.4832 34.2209 74.7981 34.3937 74.0585 34.3937C73.2218 34.3937 72.4578 34.1784 71.7667 33.748C71.0815 33.3175 70.5328 32.7415 70.1206 32.02C69.7143 31.2925 69.5112 30.4891 69.5112 29.61C69.5112 28.9431 69.6295 28.3216 69.8659 27.7457C70.1024 27.1636 70.4267 26.6543 70.839 26.2178C71.2574 25.7752 71.7424 25.4296 72.2941 25.181C72.8459 24.9324 73.434 24.8082 74.0585 24.8082C74.7981 24.8082 75.4832 24.9809 76.1138 25.3265C76.7504 25.6721 77.2749 26.1359 77.6871 26.718L76.5503 27.3273C76.2351 26.9272 75.8561 26.621 75.4135 26.4088C74.9709 26.1905 74.5192 26.0814 74.0585 26.0814C73.4461 26.0814 72.8913 26.2451 72.3942 26.5725C71.897 26.8938 71.5029 27.3212 71.2119 27.8548C70.9269 28.3883 70.7845 28.9734 70.7845 29.61C70.7845 30.2466 70.93 30.8317 71.221 31.3652C71.5181 31.8988 71.9152 32.3262 72.4124 32.6476C72.9095 32.9628 73.4582 33.1205 74.0585 33.1205C74.5556 33.1205 75.0225 33.0053 75.459 32.7749C75.8955 32.5445 76.2593 32.2444 76.5503 31.8745ZM83.2062 34.3937C82.3695 34.3937 81.6056 34.1784 80.9144 33.748C80.2293 33.3175 79.6806 32.7415 79.2683 32.02C78.8621 31.2925 78.659 30.4891 78.659 29.61C78.659 28.9431 78.7772 28.3216 79.0136 27.7457C79.2501 27.1636 79.5745 26.6543 79.9867 26.2178C80.4051 25.7752 80.8901 25.4296 81.4419 25.181C81.9936 24.9324 82.5817 24.8082 83.2062 24.8082C83.8792 24.8082 84.4976 24.9415 85.0614 25.2083C85.6314 25.4751 86.1194 25.8479 86.5256 26.3269C86.9379 26.8059 87.2471 27.3667 87.4533 28.0094C87.6655 28.6521 87.7534 29.3463 87.717 30.092H80.0049C80.0777 30.668 80.2596 31.1833 80.5506 31.6381C80.8477 32.0928 81.2236 32.4535 81.6783 32.7203C82.1391 32.981 82.6484 33.1144 83.2062 33.1205C83.8125 33.1205 84.3581 32.9628 84.8432 32.6476C85.3343 32.3323 85.7284 31.8988 86.0254 31.347L87.3169 31.6472C86.9531 32.4535 86.4044 33.1144 85.6708 33.6297C84.9371 34.139 84.1156 34.3937 83.2062 34.3937ZM79.9686 29.0643H86.4347C86.3923 28.5005 86.2195 27.9851 85.9163 27.5183C85.6192 27.0454 85.2342 26.6695 84.7613 26.3906C84.2884 26.1056 83.77 25.9631 83.2062 25.9631C82.6423 25.9631 82.127 26.1026 81.6601 26.3815C81.1933 26.6543 80.8113 27.0272 80.5142 27.5001C80.2171 27.967 80.0352 28.4884 79.9686 29.0643Z" fill="#080808"/>
<rect x="33.1562" y="124.143" width="87.9128" height="4.54722" rx="2.27361" fill="#E8E8E8"/>
<rect x="262.035" y="121.869" width="52.293" height="18.9467" rx="9.47337" fill="#E8E8E8"/>
<rect x="33.1562" y="133.237" width="51.5351" height="4.54722" rx="2.27361" fill="#E8E8E8"/>
<rect x="33.1562" y="163.09" width="87.9128" height="4.54722" rx="2.27361" fill="#E8E8E8"/>
<rect x="262.035" y="160.816" width="52.293" height="18.9467" rx="9.47337" fill="#E8E8E8"/>
<rect x="33.1562" y="172.185" width="51.5351" height="4.54722" rx="2.27361" fill="#E8E8E8"/>
<rect x="33.1562" y="202.036" width="87.9128" height="4.54722" rx="2.27361" fill="#E8E8E8"/>
<rect x="262.035" y="199.763" width="52.293" height="18.9467" rx="9.47337" fill="#E8E8E8"/>
<rect x="33.1562" y="211.131" width="51.5351" height="4.54722" rx="2.27361" fill="#E8E8E8"/>
<rect x="33.1562" y="240.982" width="87.9128" height="4.54722" rx="2.27361" fill="#E8E8E8"/>
<rect x="262.035" y="238.709" width="52.293" height="18.9467" rx="9.47337" fill="#E8E8E8"/>
<rect x="33.1562" y="250.077" width="51.5351" height="4.54722" rx="2.27361" fill="#E8E8E8"/>
<rect x="277.57" y="14.7783" width="37.8935" height="37.8935" rx="4.92615" fill="white"/>
<rect x="277.57" y="14.7783" width="37.8935" height="37.8935" rx="4.92615" stroke="#080808" stroke-width="0.757869"/>
<path d="M293.257 23.7661H296.16C296.159 30.4054 296.161 37.045 296.159 43.6843H293.258C293.257 41.8481 293.258 40.012 293.257 38.1758C292.516 39.1398 291.69 40.035 290.836 40.8977C290.022 41.7153 289.18 42.5055 288.307 43.2595C287.559 42.5118 286.81 41.7641 286.062 41.0164C286.981 39.9966 287.946 39.0187 288.952 38.0855C289.832 37.2744 290.745 36.4934 291.733 35.8168C292.174 35.5175 292.631 35.2396 293.115 35.0167C292.417 35.1717 291.708 35.2692 290.998 35.3401C290.026 35.4354 289.05 35.4785 288.074 35.4924C287.049 35.5053 286.024 35.4891 285 35.4344V32.2621C285.797 32.2032 286.595 32.1705 287.394 32.1542C288.47 32.1337 289.547 32.1462 290.621 32.2165C291.424 32.2703 292.226 32.3549 293.016 32.5084C292.439 32.2277 291.903 31.8702 291.387 31.4892C290.594 30.8985 289.849 30.2439 289.13 29.5648C288.07 28.5583 287.059 27.4987 286.101 26.3939C286.849 25.6456 287.597 24.8981 288.346 24.1506C289.418 25.1161 290.446 26.1316 291.424 27.1948C292.069 27.9007 292.691 28.6299 293.257 29.4025C293.258 27.5238 293.257 25.6448 293.257 23.7661Z" fill="#080808"/>
<path d="M297.954 23.7661H308.028V35.27C306.545 35.2704 305.062 35.2704 303.579 35.2706C303.579 35.8358 303.575 36.4009 303.581 36.9661C303.592 37.3485 303.631 37.7451 303.813 38.0884C303.94 38.3408 304.174 38.5286 304.437 38.6234C304.741 38.7329 305.067 38.7559 305.387 38.7583C306.267 38.7589 307.148 38.7572 308.028 38.7591V43.6565C307.342 43.6571 306.657 43.6567 305.972 43.6569C305.5 43.6543 305.027 43.6653 304.556 43.6415C303.509 43.5912 302.457 43.4091 301.488 42.9967C300.458 42.5669 299.546 41.8282 298.959 40.8682C298.368 39.919 298.088 38.8057 297.992 37.698C297.955 37.3057 297.95 36.9117 297.954 36.5181C297.954 32.2675 297.954 28.0168 297.954 23.7661Z" fill="#080808"/>
<path d="M150.379 63.4734C149.569 63.4643 148.814 63.5962 148.114 63.869C147.414 64.1419 146.845 64.5193 146.409 65.0013C145.972 65.4833 145.754 66.0426 145.754 66.6792C145.754 67.4431 145.954 68.0297 146.354 68.439C146.764 68.8391 147.318 69.1393 148.019 69.3393C148.719 69.5394 149.505 69.7167 150.379 69.8714C151.615 70.0805 152.761 70.4125 153.816 70.8672C154.871 71.3128 155.717 71.9085 156.354 72.6543C156.999 73.4 157.322 74.3185 157.322 75.4099C157.322 76.4284 157.045 77.3288 156.49 78.1109C155.935 78.893 155.199 79.5251 154.28 80.0071C153.362 80.48 152.348 80.7665 151.238 80.8665V83.6221H149.56V80.8665C148.623 80.7938 147.737 80.5891 146.9 80.2526C146.063 79.9162 145.336 79.466 144.717 78.9021C144.099 78.3292 143.653 77.6653 143.38 76.9104L145.522 76.1056C145.704 76.6149 146.041 77.0605 146.532 77.4425C147.032 77.8153 147.618 78.1064 148.291 78.3155C148.964 78.5247 149.66 78.6293 150.379 78.6293C151.197 78.6293 151.956 78.4974 152.657 78.2337C153.366 77.9609 153.939 77.5834 154.376 77.1014C154.812 76.6194 155.03 76.0556 155.03 75.4099C155.03 74.746 154.803 74.2049 154.348 73.7865C153.894 73.3591 153.312 73.0226 152.602 72.777C151.893 72.5224 151.152 72.3269 150.379 72.1904C149.06 71.9722 147.878 71.663 146.832 71.2628C145.795 70.8536 144.972 70.2852 144.363 69.5576C143.762 68.83 143.462 67.8706 143.462 66.6792C143.462 65.6606 143.74 64.7603 144.294 63.9782C144.849 63.1869 145.586 62.5549 146.504 62.082C147.432 61.6091 148.451 61.3226 149.56 61.2226V58.4124H151.238V61.2226C152.138 61.3044 153.002 61.5136 153.83 61.8501C154.657 62.1775 155.385 62.6231 156.013 63.1869C156.649 63.7508 157.113 64.4238 157.404 65.2059L155.235 65.9971C155.053 65.4787 154.712 65.0331 154.212 64.6602C153.721 64.2783 153.139 63.9873 152.466 63.7872C151.802 63.578 151.106 63.4734 150.379 63.4734ZM165.255 80.9211C164.1 80.9211 163.072 80.6619 162.172 80.1435C161.281 79.616 160.58 78.9158 160.071 78.0427C159.562 77.1605 159.307 76.1829 159.307 75.1097H161.599C161.599 75.7555 161.749 76.3466 162.049 76.8832C162.349 77.4106 162.772 77.8335 163.318 78.1518C163.863 78.4701 164.509 78.6293 165.255 78.6293C165.9 78.6293 166.501 78.4701 167.055 78.1518C167.619 77.8335 168.074 77.4106 168.42 76.8832C168.765 76.3466 168.938 75.7555 168.938 75.1097C168.938 74.3003 168.729 73.6274 168.311 73.0908C167.901 72.5451 167.328 72.1404 166.592 71.8767C165.864 71.6038 165.032 71.4674 164.095 71.4674V69.6258C165.387 69.6258 166.419 69.3575 167.192 68.8209C167.974 68.2844 168.365 67.4932 168.365 66.4473C168.365 65.8925 168.215 65.3833 167.915 64.9194C167.615 64.4556 167.219 64.0873 166.728 63.8145C166.246 63.5325 165.728 63.3916 165.173 63.3916C164.609 63.3916 164.068 63.5325 163.55 63.8145C163.031 64.0873 162.608 64.4556 162.281 64.9194C161.953 65.3833 161.79 65.8925 161.79 66.4473H159.498C159.498 65.7107 159.648 65.0195 159.948 64.3738C160.257 63.7281 160.676 63.1597 161.203 62.6686C161.74 62.1775 162.345 61.7955 163.018 61.5227C163.691 61.2407 164.4 61.0998 165.146 61.0998C166.119 61.0998 167.024 61.3408 167.86 61.8228C168.697 62.3048 169.37 62.9505 169.879 63.7599C170.398 64.5693 170.657 65.4651 170.657 66.4473C170.657 67.3295 170.434 68.1434 169.988 68.8892C169.543 69.6349 168.938 70.1578 168.174 70.4579C168.838 70.6853 169.397 71.04 169.852 71.522C170.307 71.9949 170.648 72.5406 170.875 73.159C171.112 73.7774 171.23 74.4277 171.23 75.1097C171.23 76.1738 170.952 77.1469 170.398 78.0291C169.852 78.9112 169.124 79.616 168.215 80.1435C167.315 80.6619 166.328 80.9211 165.255 80.9211ZM173.142 80.5664V78.5338C173.842 77.9063 174.629 77.206 175.502 76.433C176.375 75.6509 177.243 74.8369 178.107 73.9911C178.98 73.1363 179.78 72.2905 180.508 71.4538C181.236 70.6171 181.822 69.8259 182.268 69.0801C182.713 68.3253 182.936 67.666 182.936 67.1021C182.936 66.4291 182.773 65.8152 182.445 65.2605C182.118 64.6966 181.677 64.2464 181.122 63.91C180.576 63.5735 179.967 63.4052 179.294 63.4052C178.621 63.4052 178.003 63.5735 177.439 63.91C176.884 64.2464 176.438 64.6966 176.102 65.2605C175.774 65.8152 175.611 66.4291 175.611 67.1021H173.319C173.319 65.9835 173.592 64.974 174.137 64.0737C174.683 63.1642 175.406 62.4458 176.306 61.9183C177.207 61.3817 178.203 61.1134 179.294 61.1134C180.385 61.1134 181.377 61.3817 182.268 61.9183C183.168 62.4548 183.887 63.1779 184.423 64.0873C184.96 64.9876 185.228 65.9926 185.228 67.1021C185.228 67.7387 185.073 68.4253 184.764 69.162C184.455 69.8895 184.032 70.6398 183.496 71.4129C182.959 72.1859 182.35 72.968 181.668 73.7592C180.986 74.5413 180.267 75.3144 179.512 76.0783C178.757 76.8422 178.007 77.5743 177.261 78.2746H185.474V80.5664H173.142ZM188.195 82.0943L189.041 77.4834H191.333L189.723 82.0943H188.195ZM201.137 80.9211C200 80.9211 198.982 80.6664 198.081 80.1572C197.181 79.6388 196.408 78.9249 195.762 78.0154C195.116 77.106 194.625 76.0556 194.289 74.8642C193.952 73.6637 193.784 72.3814 193.784 71.0173C193.784 69.6531 193.952 68.3708 194.289 67.1703C194.625 65.9698 195.116 64.9194 195.762 64.0191C196.408 63.1096 197.181 62.4003 198.081 61.891C198.982 61.3726 200 61.1134 201.137 61.1134C202.265 61.1134 203.279 61.3726 204.179 61.891C205.089 62.4003 205.857 63.1096 206.485 64.0191C207.121 64.9194 207.608 65.9698 207.944 67.1703C208.29 68.3708 208.463 69.6531 208.463 71.0173C208.463 72.3814 208.29 73.6637 207.944 74.8642C207.608 76.0556 207.121 77.106 206.485 78.0154C205.857 78.9249 205.089 79.6388 204.179 80.1572C203.279 80.6664 202.265 80.9211 201.137 80.9211ZM201.137 78.6293C202.274 78.6293 203.224 78.2792 203.988 77.5789C204.761 76.8695 205.339 75.9373 205.721 74.7823C206.103 73.6274 206.294 72.3723 206.294 71.0173C206.294 69.5894 206.093 68.3026 205.693 67.1567C205.302 66.0017 204.72 65.0877 203.947 64.4147C203.183 63.7417 202.247 63.4052 201.137 63.4052C200.264 63.4052 199.5 63.6098 198.845 64.0191C198.199 64.4283 197.663 64.9876 197.235 65.697C196.808 66.4064 196.485 67.2203 196.267 68.1389C196.058 69.0483 195.953 70.0078 195.953 71.0173C195.953 72.3723 196.149 73.6319 196.54 74.796C196.931 75.951 197.508 76.8786 198.272 77.5789C199.045 78.2792 200 78.6293 201.137 78.6293ZM217.07 80.9211C215.933 80.9211 214.915 80.6664 214.014 80.1572C213.114 79.6388 212.341 78.9249 211.695 78.0154C211.049 77.106 210.558 76.0556 210.222 74.8642C209.885 73.6637 209.717 72.3814 209.717 71.0173C209.717 69.6531 209.885 68.3708 210.222 67.1703C210.558 65.9698 211.049 64.9194 211.695 64.0191C212.341 63.1096 213.114 62.4003 214.014 61.891C214.915 61.3726 215.933 61.1134 217.07 61.1134C218.198 61.1134 219.212 61.3726 220.112 61.891C221.022 62.4003 221.79 63.1096 222.418 64.0191C223.054 64.9194 223.541 65.9698 223.877 67.1703C224.223 68.3708 224.396 69.6531 224.396 71.0173C224.396 72.3814 224.223 73.6637 223.877 74.8642C223.541 76.0556 223.054 77.106 222.418 78.0154C221.79 78.9249 221.022 79.6388 220.112 80.1572C219.212 80.6664 218.198 80.9211 217.07 80.9211ZM217.07 78.6293C218.207 78.6293 219.157 78.2792 219.921 77.5789C220.694 76.8695 221.272 75.9373 221.654 74.7823C222.036 73.6274 222.227 72.3723 222.227 71.0173C222.227 69.5894 222.026 68.3026 221.626 67.1567C221.235 66.0017 220.653 65.0877 219.88 64.4147C219.116 63.7417 218.18 63.4052 217.07 63.4052C216.197 63.4052 215.433 63.6098 214.778 64.0191C214.133 64.4283 213.596 64.9876 213.169 65.697C212.741 66.4064 212.418 67.2203 212.2 68.1389C211.991 69.0483 211.886 70.0078 211.886 71.0173C211.886 72.3723 212.082 73.6319 212.473 74.796C212.864 75.951 213.441 76.8786 214.205 77.5789C214.978 78.2792 215.933 78.6293 217.07 78.6293ZM233.003 80.9211C231.866 80.9211 230.848 80.6664 229.947 80.1572C229.047 79.6388 228.274 78.9249 227.628 78.0154C226.983 77.106 226.491 76.0556 226.155 74.8642C225.818 73.6637 225.65 72.3814 225.65 71.0173C225.65 69.6531 225.818 68.3708 226.155 67.1703C226.491 65.9698 226.983 64.9194 227.628 64.0191C228.274 63.1096 229.047 62.4003 229.947 61.891C230.848 61.3726 231.866 61.1134 233.003 61.1134C234.131 61.1134 235.145 61.3726 236.045 61.891C236.955 62.4003 237.723 63.1096 238.351 64.0191C238.987 64.9194 239.474 65.9698 239.81 67.1703C240.156 68.3708 240.329 69.6531 240.329 71.0173C240.329 72.3814 240.156 73.6637 239.81 74.8642C239.474 76.0556 238.987 77.106 238.351 78.0154C237.723 78.9249 236.955 79.6388 236.045 80.1572C235.145 80.6664 234.131 80.9211 233.003 80.9211ZM233.003 78.6293C234.14 78.6293 235.09 78.2792 235.854 77.5789C236.627 76.8695 237.205 75.9373 237.587 74.7823C237.969 73.6274 238.16 72.3723 238.16 71.0173C238.16 69.5894 237.959 68.3026 237.559 67.1567C237.168 66.0017 236.586 65.0877 235.813 64.4147C235.049 63.7417 234.113 63.4052 233.003 63.4052C232.13 63.4052 231.366 63.6098 230.711 64.0191C230.066 64.4283 229.529 64.9876 229.102 65.697C228.674 66.4064 228.351 67.2203 228.133 68.1389C227.924 69.0483 227.819 70.0078 227.819 71.0173C227.819 72.3723 228.015 73.6319 228.406 74.796C228.797 75.951 229.374 76.8786 230.138 77.5789C230.911 78.2792 231.866 78.6293 233.003 78.6293Z" fill="#999999"/>
<path d="M142.289 72.3814H241.147V73.0635H142.289V72.3814Z" fill="#999999"/>
</svg>
