<svg width="62" height="62" viewBox="0 0 62 62" fill="none" xmlns="http://www.w3.org/2000/svg">
<rect x="0.5" y="0.5" width="61" height="61" rx="8.5" fill="white" stroke="#080808"/>
<path d="M25.3411 15H30.031C30.0304 25.7272 30.0328 36.4546 30.0298 47.1818H25.3417C25.3405 44.2151 25.3417 41.2485 25.3411 38.2818C24.1429 39.8393 22.8096 41.2856 21.4292 42.6794C20.1136 44.0005 18.7533 45.2773 17.343 46.4955C16.1341 45.2875 14.9252 44.0794 13.716 42.8714C15.201 41.2236 16.7597 39.6437 18.3845 38.1359C19.8077 36.8253 21.2829 35.5635 22.8791 34.4703C23.591 33.9867 24.3291 33.5377 25.1107 33.1775C23.9838 33.4281 22.8383 33.5856 21.6903 33.7002C20.1206 33.854 18.5439 33.9237 16.9672 33.9461C15.311 33.967 13.6541 33.9409 12 33.8525V28.727C13.2875 28.6318 14.5778 28.579 15.8686 28.5526C17.6069 28.5194 19.3469 28.5397 21.0824 28.6533C22.3787 28.7402 23.6745 28.8769 24.951 29.125C24.0191 28.6714 23.1528 28.0938 22.3196 27.4781C21.0376 26.5237 19.8348 25.4662 18.6722 24.369C16.9596 22.7427 15.3274 21.0307 13.7788 19.2457C14.987 18.0367 16.1962 16.829 17.4057 15.6212C19.1385 17.1812 20.7999 18.8219 22.3787 20.5397C23.4215 21.6802 24.4263 22.8584 25.3408 24.1067C25.3417 21.0712 25.3411 18.0355 25.3411 15Z" fill="#080808"/>
<path d="M32.9353 15H49.2113V33.5868C46.8151 33.5875 44.419 33.5875 42.0228 33.5878C42.0241 34.501 42.0177 35.414 42.0262 36.3272C42.0451 36.9451 42.1076 37.5859 42.401 38.1405C42.6073 38.5483 42.9849 38.8517 43.4091 39.0049C43.9003 39.1818 44.4272 39.219 44.945 39.223C46.3669 39.2239 47.7891 39.2211 49.2113 39.2242V47.137C48.1039 47.1379 46.9968 47.1373 45.8897 47.1376C45.1269 47.1333 44.3635 47.1511 43.6014 47.1127C41.9101 47.0313 40.2109 46.7372 38.6448 46.0708C36.9807 45.3765 35.507 44.1829 34.5583 42.6318C33.6033 41.0983 33.151 39.2994 32.9968 37.5098C32.9374 36.876 32.9292 36.2394 32.9353 35.6034C32.9353 28.7356 32.9353 21.8678 32.9353 15Z" fill="#080808"/>
</svg>
