<svg width="92" height="92" viewBox="0 0 92 92" fill="none" xmlns="http://www.w3.org/2000/svg">
<rect x="0.590909" y="0.590909" width="90.8182" height="90.8182" rx="13.4091" fill="white"/>
<rect x="0.590909" y="0.590909" width="90.8182" height="90.8182" rx="13.4091" stroke="#080808" stroke-width="0.818182"/>
<path d="M38.1054 21.8633H45.1402C45.1393 37.954 45.143 54.0453 45.1384 70.136H38.1063C38.1045 65.686 38.1063 61.236 38.1054 56.7859C36.308 59.1222 34.3082 61.2917 32.2375 63.3824C30.2642 65.364 28.2237 67.2793 26.1082 69.1065C24.2948 67.2945 22.4815 65.4824 20.6677 63.6703C22.8952 61.1986 25.2333 58.8288 27.6706 56.5671C29.8053 54.6012 32.0181 52.7085 34.4124 51.0687C35.4802 50.3433 36.5873 49.6698 37.7598 49.1295C36.0694 49.5054 34.3512 49.7417 32.6293 49.9135C30.2747 50.1443 27.9096 50.2488 25.5446 50.2825C23.0602 50.3138 20.5749 50.2746 18.0938 50.142V42.4538C20.025 42.311 21.9604 42.2318 23.8967 42.1922C26.504 42.1424 29.1141 42.1728 31.7173 42.3433C33.6619 42.4736 35.6055 42.6786 37.5203 43.0508C36.1225 42.3704 34.8229 41.504 33.5732 40.5805C31.6501 39.1489 29.8459 37.5625 28.1021 35.9167C25.5331 33.4773 23.0849 30.9094 20.7619 28.2318C22.5743 26.4183 24.3881 24.6067 26.2023 22.7951C28.8015 25.135 31.2936 27.5961 33.6619 30.1728C35.2261 31.8836 36.7332 33.6509 38.1049 35.5234C38.1063 30.9702 38.1054 26.4165 38.1054 21.8633Z" fill="#080808"/>
<path d="M49.4947 21.8633H73.9087V49.7435C70.3145 49.7445 66.7203 49.7445 63.1261 49.7449C63.1279 51.1148 63.1183 52.4842 63.1311 53.8541C63.1594 54.7809 63.2531 55.7422 63.6933 56.574C64.0028 57.1857 64.5691 57.6408 65.2054 57.8707C65.9423 58.136 66.7326 58.1917 67.5093 58.1977C69.6421 58.1991 71.7754 58.195 73.9087 58.1996V70.0688C72.2476 70.0701 70.587 70.0692 68.9263 70.0697C67.7821 70.0632 66.6371 70.0899 65.4939 70.0324C62.9569 69.9103 60.4081 69.469 58.0591 68.4695C55.5628 67.428 53.3522 65.6376 51.9293 63.311C50.4967 61.0107 49.8183 58.3124 49.5871 55.6279C49.4979 54.6772 49.4856 53.7224 49.4947 52.7684C49.4947 42.4667 49.4947 32.165 49.4947 21.8633Z" fill="#080808"/>
</svg>
