<svg width="350" height="233" viewBox="0 0 350 233" fill="none" xmlns="http://www.w3.org/2000/svg">
<g clip-path="url(#clip0_8888_17538)">
<rect x="61.8261" y="59.077" width="226.339" height="109.959" rx="18.4603" stroke="#5D1715" stroke-opacity="0.6" stroke-width="1.60524"/>
<rect x="53.8026" y="51.0507" width="242.391" height="126.011" rx="21.6708" stroke="#5D1715" stroke-opacity="0.6" stroke-width="1.60524"/>
<rect x="45.7753" y="43.0243" width="258.444" height="142.064" rx="24.8812" stroke="#5D1715" stroke-opacity="0.6" stroke-width="1.60524"/>
<rect x="37.7479" y="34.9989" width="274.496" height="158.116" rx="28.0917" stroke="#5D1715" stroke-opacity="0.6" stroke-width="1.60524"/>
<rect x="29.7245" y="26.9725" width="290.549" height="174.169" rx="32.9075" stroke="#5D1715" stroke-opacity="0.6" stroke-width="1.60524"/>
<rect x="21.6972" y="18.9462" width="306.601" height="190.221" rx="36.1179" stroke="#5D1715" stroke-opacity="0.6" stroke-width="1.60524"/>
<rect x="69.8573" y="67.1034" width="210.287" height="93.9066" rx="15.2498" stroke="#5D1715" stroke-opacity="0.6" stroke-width="1.60524"/>
<rect x="77.8807" y="75.1298" width="194.234" height="77.8542" rx="12.0393" stroke="#5D1715" stroke-opacity="0.6" stroke-width="1.60524"/>
<g filter="url(#filter0_f_8888_17538)">
<path fill-rule="evenodd" clip-rule="evenodd" d="M401.345 -31.6191H-47.3203V237.259H401.345V-31.6191ZM302.623 30.1829H51.4023V176.26H302.623V30.1829Z" fill="#FFE2DD"/>
</g>
</g>
<rect x="77.0781" y="74.3271" width="195.839" height="79.4595" rx="12.8419" fill="#E16F64"/>
<path d="M96 135.947V91H110.383C112.78 91 114.942 91.5886 116.868 92.7658C118.794 93.9215 120.325 95.4947 121.459 97.4852C122.615 99.4543 123.193 101.67 123.193 104.131C123.193 106.614 122.604 108.85 121.427 110.841C120.271 112.831 118.72 114.404 116.772 115.56C114.846 116.716 112.716 117.294 110.383 117.294H100.495V135.947H96ZM100.495 112.799H110.03C111.614 112.799 113.058 112.414 114.364 111.643C115.691 110.851 116.74 109.792 117.51 108.465C118.302 107.117 118.698 105.597 118.698 103.906C118.698 102.215 118.302 100.706 117.51 99.3794C116.74 98.031 115.691 96.9715 114.364 96.201C113.058 95.4091 111.614 95.0131 110.03 95.0131H100.495V112.799Z" fill="white"/>
<path d="M153.366 103.842H157.861V135.947H153.366L153.206 129.975C152.157 132.009 150.691 133.657 148.807 134.919C146.924 136.161 144.677 136.781 142.065 136.781C139.711 136.781 137.507 136.343 135.452 135.465C133.397 134.566 131.589 133.336 130.026 131.773C128.464 130.211 127.244 128.402 126.366 126.347C125.489 124.293 125.05 122.088 125.05 119.734C125.05 117.422 125.478 115.25 126.334 113.217C127.212 111.183 128.41 109.396 129.93 107.855C131.471 106.314 133.247 105.115 135.259 104.259C137.292 103.382 139.465 102.943 141.776 102.943C144.452 102.943 146.785 103.585 148.775 104.869C150.766 106.132 152.35 107.791 153.527 109.846L153.366 103.842ZM141.969 132.415C144.259 132.415 146.228 131.859 147.876 130.746C149.524 129.611 150.787 128.092 151.665 126.187C152.564 124.282 153.013 122.184 153.013 119.894C153.013 117.54 152.564 115.421 151.665 113.538C150.766 111.633 149.492 110.124 147.844 109.011C146.196 107.898 144.238 107.341 141.969 107.341C139.7 107.341 137.624 107.909 135.741 109.043C133.879 110.156 132.391 111.665 131.278 113.57C130.187 115.475 129.641 117.583 129.641 119.894C129.641 122.227 130.208 124.346 131.342 126.251C132.477 128.135 133.975 129.633 135.837 130.746C137.721 131.859 139.765 132.415 141.969 132.415Z" fill="white"/>
<path d="M163.001 123.651V103.842H167.496V122.752C167.496 124.507 167.924 126.101 168.78 127.535C169.636 128.969 170.781 130.114 172.215 130.971C173.671 131.827 175.265 132.255 176.999 132.255C178.754 132.255 180.338 131.827 181.751 130.971C183.185 130.114 184.33 128.969 185.186 127.535C186.042 126.101 186.47 124.507 186.47 122.752V103.842H190.965L190.997 135.947H186.502L186.47 131.452C185.336 133.079 183.859 134.374 182.039 135.337C180.242 136.3 178.272 136.781 176.132 136.781C173.714 136.781 171.509 136.193 169.519 135.016C167.528 133.839 165.944 132.255 164.767 130.264C163.59 128.274 163.001 126.069 163.001 123.651Z" fill="white"/>
<path d="M207.314 136.557C205.559 136.514 203.847 136.193 202.177 135.594C200.508 134.994 199.052 134.181 197.811 133.154C196.57 132.126 195.681 130.96 195.146 129.654L199.031 127.985C199.373 128.819 200.005 129.59 200.925 130.296C201.867 130.981 202.937 131.538 204.136 131.966C205.334 132.372 206.522 132.576 207.699 132.576C209.005 132.576 210.225 132.362 211.359 131.934C212.494 131.506 213.414 130.896 214.12 130.104C214.848 129.29 215.212 128.338 215.212 127.246C215.212 126.069 214.827 125.149 214.056 124.485C213.285 123.8 212.312 123.265 211.134 122.88C209.957 122.473 208.748 122.088 207.507 121.724C205.238 121.104 203.237 120.419 201.503 119.67C199.769 118.921 198.41 117.968 197.426 116.812C196.463 115.635 195.981 114.126 195.981 112.286C195.981 110.338 196.527 108.658 197.618 107.245C198.731 105.811 200.176 104.709 201.952 103.938C203.75 103.146 205.666 102.75 207.699 102.75C210.31 102.75 212.686 103.318 214.827 104.452C216.988 105.586 218.551 107.095 219.514 108.979L215.886 111.13C215.501 110.252 214.891 109.492 214.056 108.85C213.221 108.208 212.269 107.705 211.199 107.341C210.15 106.978 209.08 106.785 207.988 106.763C206.618 106.742 205.345 106.945 204.168 107.373C202.991 107.78 202.038 108.39 201.31 109.203C200.604 110.017 200.251 111.012 200.251 112.189C200.251 113.366 200.604 114.265 201.31 114.886C202.017 115.485 202.969 115.978 204.168 116.363C205.388 116.727 206.757 117.155 208.277 117.647C210.225 118.268 212.055 118.974 213.767 119.766C215.479 120.558 216.86 121.542 217.909 122.72C218.957 123.897 219.471 125.384 219.45 127.182C219.45 129.108 218.872 130.789 217.716 132.223C216.56 133.657 215.062 134.759 213.221 135.529C211.381 136.279 209.411 136.621 207.314 136.557Z" fill="white"/>
<path d="M238.859 136.781C235.905 136.781 233.209 136.022 230.769 134.502C228.35 132.982 226.413 130.949 224.958 128.402C223.524 125.834 222.807 122.998 222.807 119.894C222.807 117.54 223.224 115.346 224.059 113.313C224.893 111.258 226.038 109.46 227.494 107.919C228.971 106.357 230.683 105.137 232.631 104.259C234.578 103.382 236.654 102.943 238.859 102.943C241.235 102.943 243.418 103.414 245.408 104.356C247.42 105.297 249.143 106.614 250.577 108.305C252.033 109.995 253.124 111.975 253.852 114.244C254.601 116.513 254.911 118.963 254.783 121.596H227.558C227.815 123.629 228.457 125.448 229.484 127.054C230.533 128.659 231.86 129.932 233.465 130.874C235.092 131.795 236.89 132.265 238.859 132.287C240.999 132.287 242.926 131.73 244.638 130.617C246.372 129.504 247.763 127.974 248.811 126.026L253.37 127.086C252.086 129.932 250.149 132.265 247.559 134.085C244.97 135.883 242.069 136.781 238.859 136.781ZM227.43 117.968H250.256C250.106 115.978 249.496 114.158 248.426 112.51C247.377 110.841 246.018 109.514 244.349 108.529C242.679 107.523 240.849 107.02 238.859 107.02C236.868 107.02 235.049 107.513 233.401 108.497C231.753 109.46 230.405 110.777 229.356 112.446C228.307 114.094 227.665 115.935 227.43 117.968Z" fill="white"/>
<path d="M261.693 163.914C261.501 164.507 260.979 164.93 260.365 165.001L249.369 166.42L240.975 172.987C240.677 173.212 240.309 173.334 239.945 173.324C239.711 173.317 239.479 173.267 239.264 173.144C238.717 172.867 238.368 172.288 238.385 171.676L239.116 145.101C239.133 144.474 239.528 143.901 240.104 143.669C240.68 143.422 241.362 143.543 241.817 143.979L261.272 162.239C261.712 162.674 261.884 163.321 261.693 163.914Z" fill="#555555"/>
<path d="M256.117 162.014C255.996 162.392 255.667 162.661 255.28 162.706L248.353 163.611L243.064 167.792C242.876 167.935 242.644 168.013 242.415 168.006C242.268 168.002 242.122 167.97 241.986 167.892C241.642 167.716 241.422 167.348 241.433 166.958L241.898 150.047C241.909 149.648 242.158 149.283 242.52 149.135C242.883 148.978 243.313 149.055 243.599 149.332L255.852 160.949C256.129 161.226 256.237 161.637 256.117 162.014Z" fill="white"/>
<rect x="249.504" y="185.635" width="82" height="47" rx="23.5" fill="#E16F64"/>
<path d="M282.74 200.835H285.116L279.428 210.039V217.635H277.412V210.039L271.724 200.835H274.1L278.42 207.831L282.74 200.835ZM290.474 217.947C289.37 217.947 288.362 217.663 287.45 217.095C286.546 216.527 285.822 215.767 285.278 214.815C284.742 213.855 284.474 212.795 284.474 211.635C284.474 210.755 284.63 209.935 284.942 209.175C285.254 208.407 285.682 207.735 286.226 207.159C286.778 206.575 287.418 206.119 288.146 205.791C288.874 205.463 289.65 205.299 290.474 205.299C291.578 205.299 292.582 205.583 293.486 206.151C294.398 206.719 295.122 207.483 295.658 208.443C296.202 209.403 296.474 210.467 296.474 211.635C296.474 212.507 296.318 213.323 296.006 214.083C295.694 214.843 295.262 215.515 294.71 216.099C294.166 216.675 293.53 217.127 292.802 217.455C292.082 217.783 291.306 217.947 290.474 217.947ZM290.474 215.931C291.226 215.931 291.902 215.735 292.502 215.343C293.11 214.943 293.586 214.419 293.93 213.771C294.282 213.115 294.458 212.403 294.458 211.635C294.458 210.851 294.278 210.131 293.918 209.475C293.566 208.819 293.09 208.295 292.49 207.903C291.89 207.511 291.218 207.315 290.474 207.315C289.722 207.315 289.046 207.515 288.446 207.915C287.846 208.307 287.37 208.831 287.018 209.487C286.666 210.143 286.49 210.859 286.49 211.635C286.49 212.435 286.67 213.163 287.03 213.819C287.39 214.467 287.874 214.983 288.482 215.367C289.09 215.743 289.754 215.931 290.474 215.931ZM297.815 213.075V205.635H299.831V212.631C299.831 213.239 299.979 213.791 300.275 214.287C300.571 214.783 300.967 215.179 301.463 215.475C301.967 215.763 302.519 215.907 303.119 215.907C303.727 215.907 304.275 215.763 304.763 215.475C305.259 215.179 305.655 214.783 305.951 214.287C306.247 213.791 306.395 213.239 306.395 212.631V205.635H308.411L308.423 217.635H306.407L306.395 216.111C305.971 216.671 305.435 217.119 304.787 217.455C304.139 217.783 303.439 217.947 302.687 217.947C301.791 217.947 300.971 217.731 300.227 217.299C299.491 216.859 298.903 216.271 298.463 215.535C298.031 214.799 297.815 213.979 297.815 213.075Z" fill="white"/>
<defs>
<filter id="filter0_f_8888_17538" x="-90.6618" y="-74.9607" width="535.347" height="355.561" filterUnits="userSpaceOnUse" color-interpolation-filters="sRGB">
<feFlood flood-opacity="0" result="BackgroundImageFix"/>
<feBlend mode="normal" in="SourceGraphic" in2="BackgroundImageFix" result="shape"/>
<feGaussianBlur stdDeviation="21.6708" result="effect1_foregroundBlur_8888_17538"/>
</filter>
<clipPath id="clip0_8888_17538">
<rect width="350" height="227.027" fill="white" transform="translate(0 0.486328)"/>
</clipPath>
</defs>
</svg>
