<svg width="613" height="638" viewBox="0 0 613 638" fill="none" xmlns="http://www.w3.org/2000/svg">
<path d="M501.482 407.317L595.288 486.815L529.015 561.158L438.944 486.898C386.522 444.104 360.143 413.082 333.996 376.411C328.169 422.01 317.973 464.043 295.81 522.579L252.117 637.98L158.752 602.63L202.445 487.229C224.608 428.693 247.741 387.734 270.641 352.424C227.397 360.909 186.454 368.354 120.502 366.33L1.53452 363.355L0.0836552 261.458L124.686 264.654C187.303 265.416 233.184 275.138 273.43 284.64C249.817 241.279 234.94 205.051 222.259 142.883L192.698 24.6064L289.654 0.124942L319.849 116.729C335.864 180.16 339.639 225.57 341.346 266.373C369.882 231.284 402.786 199.761 453.228 167.229L554.745 100.494L612.842 183.681L512.359 252.721C458.35 289.638 419.242 307.339 376.799 323.777C424.284 349.405 460.097 370.613 501.482 407.317Z" fill="#FF2626"/>
</svg>
