<svg width="70" height="70" viewBox="0 0 70 70" fill="none" xmlns="http://www.w3.org/2000/svg">
<path d="M9.6695 24.3374C8.90438 22.9862 8.46484 21.4397 8.46484 19.763C8.46484 14.635 12.616 10.4839 17.7439 10.4839C19.4044 10.4839 20.9672 10.9234 22.3183 11.6885M25.8511 15.2374C26.5999 16.5723 27.0231 18.1188 27.0231 19.763C27.0231 20.4792 26.9418 21.1792 26.779 21.863M13.2183 27.8699C14.5532 28.6188 16.0997 29.042 17.7438 29.042C19.8438 29.042 21.7647 28.342 23.3275 27.1862" stroke="#1D1D1D" stroke-width="2" stroke-miterlimit="10" stroke-linecap="round" stroke-linejoin="round"/>
<path d="M21.0651 8.62793L22.3186 11.7047L19.2418 12.9582M14.4885 30.9465L13.2188 27.8698L16.2953 26.6163" stroke="#1D1D1D" stroke-width="2" stroke-miterlimit="10" stroke-linecap="round" stroke-linejoin="round"/>
<path d="M49.342 26.8931L50.6932 29.2373C51.7025 30.9791 53.1513 33.5186 54.7304 36.221C57.5955 41.1861 58.0188 45.3698 58.0188 45.3698L61.4862 51.3768L50.3513 57.807L44.0513 61.4373L40.5839 55.4303C36.3676 55.2024 31.7444 53.9326 28.0653 51.1489L20.5769 45.9559C20.2188 45.614 20.0723 45.1256 20.0723 44.621C20.0723 44.0349 20.2839 43.4326 20.6095 42.9768C21.342 41.821 23.4583 40.6814 25.8351 41.6907C27.1048 42.228 32.9978 43.8396 32.9978 43.8396L29.856 38.4512" stroke="#1D1D1D" stroke-width="2" stroke-miterlimit="10" stroke-linecap="round" stroke-linejoin="round"/>
<path d="M35.9599 37.7348L31.0436 29.2209L26.7947 21.8627L26.3064 21.0162C25.7529 20.0558 24.7436 19.5186 23.7017 19.5186C23.1971 19.5186 22.6761 19.6488 22.204 19.9255C20.918 20.6581 20.4947 22.3023 21.2273 23.572L23.311 27.186L29.6761 38.2232L29.7738 38.4023L29.8064 38.4511L31.0273 40.5674M45.7763 32.0697L44.4251 29.7255L43.5623 28.2441L41.4786 24.6465C40.9251 23.686 39.9158 23.1488 38.874 23.1488C38.3693 23.1488 37.8484 23.279 37.3763 23.5558C36.1065 24.2883 35.667 25.9162 36.3996 27.2023L39.5089 32.5744L40.86 34.9186M50.6927 29.2372L49.3416 26.893L48.723 25.8186C48.202 24.9069 47.2416 24.4023 46.2648 24.4023C45.7765 24.4023 45.2881 24.5325 44.8486 24.7767C43.4974 25.5581 42.7811 26.8767 43.5788 28.2279L44.4416 29.7093L45.7927 32.0534" stroke="#1D1D1D" stroke-width="2" stroke-miterlimit="10" stroke-linecap="round" stroke-linejoin="round"/>
<path d="M40.8761 34.9024L39.525 32.5582L36.4156 27.1861L35.9598 26.3884C35.4389 25.4768 34.4784 24.9722 33.5017 24.9722C33.0133 24.9722 32.525 25.1024 32.0854 25.3466C30.7343 26.128 30.2622 27.8698 31.0436 29.221L35.9598 37.735" stroke="#1D1D1D" stroke-width="2" stroke-miterlimit="10" stroke-linecap="round" stroke-linejoin="round"/>
</svg>
