<svg width="70" height="70" viewBox="0 0 70 70" fill="none" xmlns="http://www.w3.org/2000/svg">
<path d="M34.2838 54.6978H29.5791V56.3094C29.5791 58.8326 31.6303 60.8838 34.1535 60.8838H35.814C38.3372 60.8838 40.3884 58.8326 40.3884 56.3094V54.6978H34.2838Z" stroke="#1D1D1D" stroke-width="2" stroke-miterlimit="17.48" stroke-linecap="round" stroke-linejoin="round"/>
<path d="M34.9999 50.579H39.4604C40.6976 50.579 41.6906 49.586 41.6906 48.3488V46.0209C41.6906 44.7999 42.2278 43.6441 43.1558 42.8464C46.0371 40.3883 52.1581 34.186 52.1581 25.9162C52.1581 16.3278 47.1116 9.11621 34.9999 9.11621C22.8883 9.11621 17.8418 16.3278 17.8418 25.9162C17.8418 34.186 23.9627 40.3883 26.8441 42.8464C27.772 43.6441 28.3092 44.7999 28.3092 46.0209V48.3488C28.3092 49.586 29.3023 50.579 30.5395 50.579H34.9999Z" stroke="#1D1D1D" stroke-width="2" stroke-miterlimit="17.48" stroke-linecap="round" stroke-linejoin="round"/>
<path d="M38.2883 42.0813L41.4138 26.8115L38.2883 31.1092L34.9999 27.2836L31.7115 31.1255L28.5859 26.8278L31.7115 42.0976" stroke="#1D1D1D" stroke-width="2" stroke-miterlimit="17.48" stroke-linecap="round" stroke-linejoin="round"/>
</svg>
