<svg width="70" height="70" viewBox="0 0 70 70" fill="none" xmlns="http://www.w3.org/2000/svg">
<path d="M7.56934 36.8723C7.56934 25.8025 15.3182 10.3374 35.26 10.3374C55.7228 10.3374 62.5926 26.2258 62.5926 37.0188" stroke="#1D1D1D" stroke-width="2" stroke-linecap="round" stroke-linejoin="round"/>
<path d="M10.012 34.6743H5.04688V39.6394H10.012V34.6743ZM64.9539 34.6743H59.9887V39.6394H64.9539V34.6743Z" fill="#1D1D1D" stroke="#1D1D1D" stroke-width="2" stroke-miterlimit="10" stroke-linecap="round" stroke-linejoin="round"/>
<path d="M10.3371 10.3372H60.2325M11.6395 9.00234H9.11621V11.5256H11.6395V9.00234ZM61.2906 9.00234H58.7674V11.5256H61.2906V9.00234ZM37.686 7.81396H32.7209V12.7791H37.686V7.81396Z" stroke="#1D1D1D" stroke-width="2" stroke-linecap="round" stroke-linejoin="round"/>
<path d="M37.6858 7.81396H32.7207V12.7791H37.6858V7.81396Z" fill="#1D1D1D"/>
<path d="M35.3254 22.9536V39.3141M35.3254 22.9536L25.4766 37.6862L28.651 49.0001H41.5114L44.9301 37.849L35.3254 22.9536Z" stroke="#1D1D1D" stroke-width="2" stroke-linecap="round" stroke-linejoin="round"/>
<path d="M35.2931 38.6626C34.8699 38.6626 34.5117 39.0045 34.5117 39.444C34.5117 39.8835 34.8536 40.2254 35.2931 40.2254C35.7326 40.2254 36.0745 39.8835 36.0745 39.444C36.0745 39.0045 35.7164 38.6626 35.2931 38.6626Z" stroke="#1D1D1D" stroke-width="2"/>
<path d="M42.8949 49H26.9414V53.9651H42.8949V49ZM41.7554 53.9651H28.5693V62.186H41.7554V53.9651Z" stroke="#1D1D1D" stroke-width="2" stroke-linecap="round" stroke-linejoin="round"/>
</svg>
