<svg width="375" height="812" viewBox="0 0 375 812" fill="none" xmlns="http://www.w3.org/2000/svg">
<g clip-path="url(#clip0_7380_44632)">
<rect width="375" height="812" rx="32" fill="white"/>
<path fill-rule="evenodd" clip-rule="evenodd" d="M42.1003 61.3994C42.3932 61.6923 42.3932 62.1671 42.1003 62.46L36.5607 67.9997L42.1003 73.5394C42.3932 73.8322 42.3932 74.3071 42.1003 74.6C41.8074 74.8929 41.3326 74.8929 41.0397 74.6L34.9697 68.53C34.829 68.3894 34.75 68.1986 34.75 67.9997C34.75 67.8008 34.829 67.61 34.9697 67.4694L41.0397 61.3994C41.3326 61.1065 41.8074 61.1065 42.1003 61.3994Z" fill="#131313"/>
<path fill-rule="evenodd" clip-rule="evenodd" d="M34.9199 68C34.9199 67.5858 35.2557 67.25 35.6699 67.25H52.4999C52.9141 67.25 53.2499 67.5858 53.2499 68C53.2499 68.4142 52.9141 68.75 52.4999 68.75H35.6699C35.2557 68.75 34.9199 68.4142 34.9199 68Z" fill="#131313"/>
<path d="M161.301 76V62H174.761V64.56H163.741V67.66H173.641V69.1H163.741V76H161.301ZM175.793 76V66H178.193V76H175.793ZM176.993 65.44C176.633 65.44 176.346 65.2667 176.133 64.92C175.933 64.56 175.833 64.14 175.833 63.66C175.833 63.18 175.933 62.7667 176.133 62.42C176.346 62.0733 176.633 61.9 176.993 61.9C177.366 61.9 177.653 62.0733 177.853 62.42C178.053 62.7667 178.153 63.18 178.153 63.66C178.153 64.1533 178.053 64.5733 177.853 64.92C177.653 65.2667 177.366 65.44 176.993 65.44ZM180.031 76V62H182.431V76H180.031ZM191.59 76H185.25V62.4H187.65V73.84H191.59V76ZM190.93 67.44H184.27V66H190.93V67.44ZM203.538 72.88C202.872 73.9867 202.038 74.82 201.038 75.38C200.038 75.94 198.985 76.22 197.878 76.22C196.892 76.22 195.965 76.0067 195.098 75.58C194.245 75.1533 193.552 74.5533 193.018 73.78C192.498 72.9933 192.238 72.0867 192.238 71.06C192.238 69.94 192.512 68.9867 193.058 68.2C193.618 67.4 194.338 66.8067 195.218 66.42C196.098 66.02 197.038 65.82 198.038 65.82C198.985 65.82 199.872 66 200.698 66.36C201.538 66.7067 202.212 67.22 202.718 67.9C203.225 68.58 203.478 69.3933 203.478 70.34C203.478 70.58 203.458 70.8333 203.418 71.1H193.038V70.3H201.198C201.038 69.5533 200.652 68.98 200.038 68.58C199.425 68.18 198.725 67.98 197.938 67.98C197.312 67.98 196.712 68.1067 196.138 68.36C195.578 68.6 195.118 68.9533 194.758 69.42C194.412 69.8867 194.238 70.4333 194.238 71.06C194.238 71.6467 194.398 72.1667 194.718 72.62C195.038 73.06 195.465 73.4067 195.998 73.66C196.545 73.9 197.125 74.02 197.738 74.02C198.485 74.02 199.198 73.8333 199.878 73.46C200.558 73.0867 201.125 72.52 201.578 71.76L203.538 72.88ZM205.383 76V66H207.783V68.82C208.85 66.7933 210.39 65.78 212.403 65.78C212.843 65.78 213.276 65.8267 213.703 65.92V68.86C212.223 68.46 211.13 68.26 210.423 68.26C209.57 68.26 208.956 68.5067 208.583 69C208.223 69.4933 207.996 70.2333 207.903 71.22C207.823 72.2067 207.783 73.8 207.783 76H205.383Z" fill="#131313"/>
<path opacity="0.35" d="M334.667 14.5029H351.333C352.53 14.5029 353.5 15.4733 353.5 16.6699V22.6699C353.5 23.8664 352.53 24.8359 351.333 24.8359H334.667C333.47 24.8359 332.5 23.8664 332.5 22.6699V16.6699L332.511 16.4482C332.622 15.3556 333.545 14.5029 334.667 14.5029Z" stroke="#131313"/>
<path opacity="0.4" d="M355 17.6699V21.6699C355.805 21.3311 356.328 20.5431 356.328 19.6699C356.328 18.7968 355.805 18.0087 355 17.6699Z" fill="#131313"/>
<path d="M334 17.1029C334 16.4954 334.492 16.0029 335.1 16.0029H350.9C351.508 16.0029 352 16.4954 352 17.1029V22.2363C352 22.8438 351.508 23.3363 350.9 23.3363H335.1C334.492 23.3363 334 22.8438 334 22.2363V17.1029Z" fill="#131313"/>
<path fill-rule="evenodd" clip-rule="evenodd" d="M319.331 16.2773C321.547 16.2774 323.678 17.1289 325.284 18.6557C325.405 18.7735 325.598 18.772 325.717 18.6523L326.873 17.4857C326.934 17.4249 326.967 17.3427 326.967 17.2571C326.966 17.1715 326.932 17.0897 326.871 17.0297C322.656 12.9901 316.006 12.9901 311.791 17.0297C311.73 17.0896 311.695 17.1715 311.694 17.257C311.694 17.3426 311.727 17.4249 311.788 17.4857L312.944 18.6523C313.063 18.7722 313.256 18.7737 313.377 18.6557C314.983 17.1288 317.115 16.2773 319.331 16.2773ZM319.331 20.073C320.548 20.0729 321.722 20.5255 322.625 21.3427C322.747 21.4586 322.939 21.4561 323.058 21.337L324.213 20.1703C324.274 20.1091 324.307 20.0261 324.307 19.9399C324.306 19.8536 324.27 19.7713 324.208 19.7113C321.46 17.1549 317.204 17.1549 314.456 19.7113C314.394 19.7713 314.358 19.8536 314.358 19.9399C314.357 20.0262 314.391 20.1092 314.452 20.1703L315.606 21.337C315.725 21.4561 315.917 21.4586 316.039 21.3427C316.941 20.526 318.114 20.0735 319.331 20.073ZM321.644 22.6268C321.646 22.7133 321.612 22.7967 321.55 22.8573L319.553 24.873C319.494 24.9322 319.414 24.9656 319.331 24.9656C319.248 24.9656 319.168 24.9322 319.109 24.873L317.112 22.8573C317.05 22.7967 317.016 22.7132 317.018 22.6267C317.02 22.5402 317.057 22.4583 317.121 22.4003C318.397 21.3214 320.265 21.3214 321.541 22.4003C321.605 22.4584 321.642 22.5403 321.644 22.6268Z" fill="#131313"/>
<path fill-rule="evenodd" clip-rule="evenodd" d="M305.667 14.3359H304.667C304.115 14.3359 303.667 14.7837 303.667 15.3359V24.0026C303.667 24.5549 304.115 25.0026 304.667 25.0026H305.667C306.219 25.0026 306.667 24.5549 306.667 24.0026V15.3359C306.667 14.7837 306.219 14.3359 305.667 14.3359ZM300 16.6693H301C301.553 16.6693 302 17.117 302 17.6693V24.0026C302 24.5549 301.553 25.0026 301 25.0026H300C299.448 25.0026 299 24.5549 299 24.0026V17.6693C299 17.117 299.448 16.6693 300 16.6693ZM296.334 19.0026H295.334C294.781 19.0026 294.334 19.4503 294.334 20.0026V24.0026C294.334 24.5549 294.781 25.0026 295.334 25.0026H296.334C296.886 25.0026 297.334 24.5549 297.334 24.0026V20.0026C297.334 19.4503 296.886 19.0026 296.334 19.0026ZM291.667 21.0026H290.667C290.115 21.0026 289.667 21.4503 289.667 22.0026V24.0026C289.667 24.5549 290.115 25.0026 290.667 25.0026H291.667C292.219 25.0026 292.667 24.5549 292.667 24.0026V22.0026C292.667 21.4503 292.219 21.0026 291.667 21.0026Z" fill="#131313"/>
<path d="M40.9428 14.9418C41.4648 14.9453 41.9726 15.0376 42.4662 15.2188C42.9634 15.3963 43.4108 15.6875 43.8085 16.0923C44.2063 16.4936 44.5223 17.0316 44.7567 17.7063C44.9911 18.381 45.1083 19.2156 45.1083 20.2099C45.1118 21.1474 45.0124 21.9854 44.81 22.7241C44.6111 23.4592 44.3252 24.0806 43.9524 24.5884C43.5795 25.0962 43.1303 25.4833 42.6047 25.7496C42.0791 26.016 41.4879 26.1491 40.8309 26.1491C40.142 26.1491 39.5312 26.0142 38.9985 25.7443C38.4694 25.4744 38.0415 25.1051 37.7148 24.6364C37.3881 24.1676 37.1875 23.6314 37.1129 23.0277H39.0571C39.1566 23.4609 39.359 23.8054 39.6644 24.0611C39.9733 24.3132 40.3622 24.4393 40.8309 24.4393C41.5873 24.4393 42.1697 24.1108 42.5781 23.4538C42.9865 22.7969 43.1907 21.8842 43.1907 20.7159H43.1161C42.9421 21.0284 42.7166 21.2983 42.4396 21.5256C42.1626 21.7493 41.8483 21.9215 41.4968 22.0423C41.1487 22.163 40.7794 22.2234 40.3888 22.2234C39.7496 22.2234 39.1743 22.0707 38.663 21.7653C38.1551 21.4599 37.7521 21.0408 37.4538 20.5082C37.159 19.9755 37.0099 19.3665 37.0063 18.6811C37.0063 17.9709 37.1697 17.3335 37.4964 16.7688C37.8267 16.2006 38.2865 15.7532 38.876 15.4265C39.4655 15.0962 40.1544 14.9347 40.9428 14.9418ZM40.9481 16.5398C40.5646 16.5398 40.2184 16.6339 39.9094 16.8221C39.604 17.0067 39.3625 17.2589 39.185 17.5785C39.011 17.8945 38.924 18.2479 38.924 18.6385C38.9275 19.0256 39.0145 19.3771 39.185 19.6932C39.359 20.0092 39.5951 20.2596 39.8934 20.4442C40.1953 20.6289 40.5397 20.7212 40.9268 20.7212C41.2144 20.7212 41.4826 20.6662 41.7311 20.5561C41.9797 20.446 42.1963 20.2933 42.381 20.098C42.5692 19.8991 42.7148 19.6737 42.8178 19.4215C42.9243 19.1694 42.9758 18.9031 42.9723 18.6225C42.9723 18.2496 42.8835 17.9052 42.7059 17.5891C42.5319 17.2731 42.2922 17.0192 41.9868 16.8274C41.685 16.6357 41.3387 16.5398 40.9481 16.5398ZM47.5912 24.6896C47.2681 24.6896 46.9911 24.576 46.7603 24.3487C46.5294 24.1179 46.4158 23.8409 46.4193 23.5178C46.4158 23.1982 46.5294 22.9247 46.7603 22.6974C46.9911 22.4702 47.2681 22.3565 47.5912 22.3565C47.9037 22.3565 48.1754 22.4702 48.4062 22.6974C48.6406 22.9247 48.7595 23.1982 48.7631 23.5178C48.7595 23.7344 48.7027 23.9315 48.5926 24.109C48.4861 24.2866 48.3441 24.4286 48.1665 24.5352C47.9925 24.6381 47.8007 24.6896 47.5912 24.6896ZM47.5912 19.283C47.2681 19.283 46.9911 19.1694 46.7603 18.9421C46.5294 18.7113 46.4158 18.4343 46.4193 18.1112C46.4158 17.7915 46.5294 17.5181 46.7603 17.2908C46.9911 17.06 47.2681 16.9446 47.5912 16.9446C47.9037 16.9446 48.1754 17.06 48.4062 17.2908C48.6406 17.5181 48.7595 17.7915 48.7631 18.1112C48.7595 18.3242 48.7027 18.5195 48.5926 18.6971C48.4861 18.8746 48.3441 19.0167 48.1665 19.1232C47.9925 19.2298 47.8007 19.283 47.5912 19.283ZM50.0356 23.9759V22.4045L54.6645 15.0909H55.9748V17.3281H55.1758L52.0597 22.266V22.3512H58.521V23.9759H50.0356ZM55.2397 26V23.4964L55.2611 22.7933V15.0909H57.1254V26H55.2397ZM64.0135 15.0909V26H62.0373V17.0138H61.9734L59.4219 18.6438V16.8327L62.1332 15.0909H64.0135Z" fill="#131313"/>
<path d="M34.404 149L24.828 148.982V136.4H27.024V146.678L34.404 146.696V149ZM44.5515 144.5C44.5515 143.948 44.3775 143.474 44.0295 143.078C43.6935 142.682 43.2495 142.388 42.6975 142.196C42.1455 141.992 41.5575 141.89 40.9335 141.89C40.3095 141.89 39.7215 141.992 39.1695 142.196C38.6175 142.388 38.1675 142.682 37.8195 143.078C37.4835 143.474 37.3155 143.948 37.3155 144.5C37.3155 145.04 37.4835 145.508 37.8195 145.904C38.1675 146.288 38.6175 146.582 39.1695 146.786C39.7215 146.978 40.3095 147.074 40.9335 147.074C41.5575 147.074 42.1455 146.978 42.6975 146.786C43.2495 146.582 43.6935 146.288 44.0295 145.904C44.3775 145.508 44.5515 145.04 44.5515 144.5ZM46.3515 144.5C46.3515 145.496 46.0935 146.348 45.5775 147.056C45.0735 147.752 44.4075 148.28 43.5795 148.64C42.7515 149 41.8695 149.18 40.9335 149.18C39.9975 149.18 39.1155 149 38.2875 148.64C37.4595 148.28 36.7875 147.752 36.2715 147.056C35.7675 146.348 35.5155 145.496 35.5155 144.5C35.5155 143.504 35.7675 142.658 36.2715 141.962C36.7875 141.254 37.4595 140.72 38.2875 140.36C39.1155 140 39.9975 139.82 40.9335 139.82C41.8695 139.82 42.7515 140 43.5795 140.36C44.4075 140.72 45.0735 141.254 45.5775 141.962C46.0935 142.658 46.3515 143.504 46.3515 144.5ZM56.5318 143.798C56.1838 143.174 55.6918 142.706 55.0558 142.394C54.4318 142.07 53.7598 141.908 53.0398 141.908C52.4518 141.908 51.8938 142.016 51.3658 142.232C50.8498 142.436 50.4298 142.742 50.1058 143.15C49.7938 143.546 49.6378 144.008 49.6378 144.536C49.6378 145.064 49.7998 145.52 50.1238 145.904C50.4478 146.288 50.8738 146.582 51.4018 146.786C51.9418 146.99 52.5118 147.092 53.1118 147.092C53.9398 147.092 54.6898 146.906 55.3618 146.534C56.0458 146.15 56.5078 145.592 56.7478 144.86L58.6558 146.048C58.2238 147.068 57.5218 147.848 56.5498 148.388C55.5898 148.916 54.5278 149.18 53.3638 149.18C52.4158 149.18 51.5158 149 50.6638 148.64C49.8238 148.268 49.1398 147.734 48.6118 147.038C48.0958 146.33 47.8378 145.496 47.8378 144.536C47.8378 143.576 48.0958 142.742 48.6118 142.034C49.1398 141.314 49.8238 140.762 50.6638 140.378C51.5158 139.994 52.4218 139.802 53.3818 139.802C54.3778 139.802 55.3138 140.018 56.1898 140.45C57.0778 140.87 57.7918 141.506 58.3318 142.358L56.5318 143.798ZM67.7335 143.024C67.7335 142.88 67.6435 142.718 67.4635 142.538C67.2835 142.358 66.9835 142.202 66.5635 142.07C66.1435 141.938 65.5975 141.872 64.9255 141.872C64.2895 141.872 63.6355 141.956 62.9635 142.124C62.2915 142.28 61.7095 142.454 61.2175 142.646C60.7255 142.826 60.4255 142.952 60.3175 143.024V141.152C60.3655 141.14 60.8335 140.948 61.7215 140.576C62.6215 140.192 63.6655 140 64.8535 140C66.1135 140 67.1155 140.168 67.8595 140.504C68.6155 140.828 69.1435 141.224 69.4435 141.692C69.7435 142.148 69.8935 142.592 69.8935 143.024V149H67.7335V143.024ZM67.8055 143.654C67.4815 144.89 67.0135 145.922 66.4015 146.75C65.8015 147.578 65.1355 148.196 64.4035 148.604C63.6835 149 62.9695 149.198 62.2615 149.198C61.4935 149.198 60.8575 148.97 60.3535 148.514C59.8495 148.058 59.5975 147.434 59.5975 146.642C59.5975 145.838 59.8855 145.184 60.4615 144.68C61.0495 144.164 61.7395 143.774 62.5315 143.51C63.3355 143.246 64.3675 142.97 65.6275 142.682C66.4195 142.514 67.0435 142.364 67.4995 142.232C67.9675 142.1 68.3335 141.944 68.5975 141.764L69.0115 143.186C68.5195 143.462 67.9615 143.708 67.3375 143.924C66.7255 144.128 65.9635 144.368 65.0515 144.644C63.9475 144.98 63.1435 145.256 62.6395 145.472C62.1475 145.688 61.8955 145.928 61.8835 146.192C61.8835 146.408 61.9855 146.576 62.1895 146.696C62.3935 146.816 62.6635 146.876 62.9995 146.876C63.4915 146.876 64.0375 146.756 64.6375 146.516C65.2375 146.276 65.8195 145.916 66.3835 145.436C66.9595 144.944 67.4335 144.35 67.8055 143.654ZM77.7871 149H72.0811V136.76H74.2411V147.056H77.7871V149ZM77.1931 141.296H71.1991V140H77.1931V141.296ZM79.4432 149V140H81.6032V149H79.4432ZM80.5232 139.496C80.1992 139.496 79.9412 139.34 79.7492 139.028C79.5692 138.704 79.4792 138.326 79.4792 137.894C79.4792 137.462 79.5692 137.09 79.7492 136.778C79.9412 136.466 80.1992 136.31 80.5232 136.31C80.8592 136.31 81.1172 136.466 81.2972 136.778C81.4772 137.09 81.5672 137.462 81.5672 137.894C81.5672 138.338 81.4772 138.716 81.2972 139.028C81.1172 139.34 80.8592 139.496 80.5232 139.496ZM92.2937 144.5C92.2937 143.948 92.1197 143.474 91.7717 143.078C91.4357 142.682 90.9917 142.388 90.4397 142.196C89.8877 141.992 89.2997 141.89 88.6757 141.89C88.0517 141.89 87.4637 141.992 86.9117 142.196C86.3597 142.388 85.9097 142.682 85.5617 143.078C85.2257 143.474 85.0577 143.948 85.0577 144.5C85.0577 145.04 85.2257 145.508 85.5617 145.904C85.9097 146.288 86.3597 146.582 86.9117 146.786C87.4637 146.978 88.0517 147.074 88.6757 147.074C89.2997 147.074 89.8877 146.978 90.4397 146.786C90.9917 146.582 91.4357 146.288 91.7717 145.904C92.1197 145.508 92.2937 145.04 92.2937 144.5ZM94.0937 144.5C94.0937 145.496 93.8357 146.348 93.3197 147.056C92.8157 147.752 92.1497 148.28 91.3217 148.64C90.4937 149 89.6117 149.18 88.6757 149.18C87.7397 149.18 86.8577 149 86.0297 148.64C85.2017 148.28 84.5297 147.752 84.0137 147.056C83.5097 146.348 83.2577 145.496 83.2577 144.5C83.2577 143.504 83.5097 142.658 84.0137 141.962C84.5297 141.254 85.2017 140.72 86.0297 140.36C86.8577 140 87.7397 139.82 88.6757 139.82C89.6117 139.82 90.4937 140 91.3217 140.36C92.1497 140.72 92.8157 141.254 93.3197 141.962C93.8357 142.658 94.0937 143.504 94.0937 144.5ZM95.7557 148.982V140H97.9157V142.25C98.3477 141.47 98.9297 140.87 99.6617 140.45C100.394 140.018 101.162 139.802 101.966 139.802C102.674 139.802 103.322 139.964 103.91 140.288C104.51 140.612 104.99 141.098 105.35 141.746C105.722 142.394 105.908 143.18 105.908 144.104V149H103.748V144.734C103.748 144.014 103.592 143.372 103.28 142.808C102.98 142.232 102.584 141.788 102.092 141.476C101.612 141.164 101.114 141.008 100.598 141.008C100.118 141.008 99.6737 141.152 99.2657 141.44C98.8577 141.728 98.5277 142.178 98.2757 142.79C98.0357 143.39 97.9157 144.14 97.9157 145.04V148.982H95.7557Z" fill="#131313"/>
<path d="M40 180.5H263C271.56 180.5 278.5 187.44 278.5 196V220C278.5 228.56 271.56 235.5 263 235.5H40C31.4396 235.5 24.5 228.56 24.5 220V196C24.5 187.44 31.4396 180.5 40 180.5Z" stroke="#53556B"/>
<path fill-rule="evenodd" clip-rule="evenodd" d="M50.0004 204.616C48.9096 204.616 48.0254 205.5 48.0254 206.591C48.0254 207.682 48.9096 208.566 50.0004 208.566C51.0912 208.566 51.9754 207.682 51.9754 206.591C51.9754 205.5 51.0912 204.616 50.0004 204.616ZM46.7754 206.591C46.7754 204.81 48.2193 203.366 50.0004 203.366C51.7815 203.366 53.2254 204.81 53.2254 206.591C53.2254 208.372 51.7815 209.816 50.0004 209.816C48.2193 209.816 46.7754 208.372 46.7754 206.591Z" fill="#131313"/>
<path fill-rule="evenodd" clip-rule="evenodd" d="M50.0026 200.292C47.1553 200.29 44.3705 201.942 43.6261 205.214C42.7452 209.105 45.1567 212.48 47.4251 214.667C48.8672 216.051 51.1338 216.049 52.5659 214.667L52.567 214.666C54.8436 212.48 57.2546 209.113 56.3737 205.222L56.3737 205.222C55.6332 201.95 52.8501 200.294 50.0026 200.292ZM57.5928 204.946C56.6999 201.001 53.3206 199.044 50.0035 199.042C46.6863 199.04 43.3046 200.992 42.4072 204.937L42.407 204.937C41.3714 209.512 44.2264 213.32 46.5579 215.567L46.5587 215.568C48.4832 217.416 51.5159 217.418 53.4336 215.567C55.7735 213.32 58.6284 209.52 57.5928 204.946Z" fill="#131313"/>
<path d="M71.416 204.186L76.806 210.948V204.186H78.024V214H76.806V212.866L69.778 204.2L71.416 204.186ZM68.644 214V204.2H69.862V214H68.644ZM87.1761 211.984C86.7374 212.703 86.1727 213.244 85.4821 213.608C84.8007 213.972 84.0821 214.154 83.3261 214.154C82.6261 214.154 81.9681 214.009 81.3521 213.72C80.7361 213.421 80.2414 212.997 79.8681 212.446C79.4947 211.895 79.3081 211.261 79.3081 210.542C79.3081 209.758 79.4994 209.091 79.8821 208.54C80.2647 207.98 80.7594 207.565 81.3661 207.294C81.9821 207.014 82.6401 206.874 83.3401 206.874C84.0121 206.874 84.6467 207.005 85.2441 207.266C85.8414 207.518 86.3221 207.896 86.6861 208.4C87.0501 208.895 87.2321 209.487 87.2321 210.178C87.2321 210.365 87.2181 210.556 87.1901 210.752H79.7281V210.332H86.1821C86.0981 209.632 85.7714 209.095 85.2021 208.722C84.6421 208.349 83.9887 208.162 83.2421 208.162C82.7381 208.162 82.2574 208.255 81.8001 208.442C81.3521 208.619 80.9881 208.89 80.7081 209.254C80.4281 209.609 80.2881 210.038 80.2881 210.542C80.2881 210.99 80.4281 211.391 80.7081 211.746C80.9974 212.091 81.3707 212.362 81.8281 212.558C82.2947 212.745 82.7894 212.838 83.3121 212.838C83.8721 212.838 84.4087 212.721 84.9221 212.488C85.4354 212.245 85.8647 211.881 86.2101 211.396L87.1761 211.984ZM92.3896 207H93.6356L92.0676 214H90.8636L92.3896 207ZM99.3336 207L97.4716 214H96.2256L98.0316 207H99.3336ZM95.1196 214L93.5516 207H94.7136L96.2956 214H95.1196ZM87.8256 207H89.1276L90.9336 214H89.7576L87.8256 207ZM107.69 209.604L104.82 204.2L106.206 204.186L109.076 209.604H107.69ZM108.642 213.986V209.898L111.722 204.186L113.094 204.2L109.86 210.178V213.986H108.642ZM120.003 210.5C120.003 209.996 119.858 209.567 119.569 209.212C119.279 208.857 118.897 208.591 118.421 208.414C117.954 208.237 117.45 208.148 116.909 208.148C116.377 208.148 115.873 208.237 115.397 208.414C114.93 208.591 114.547 208.862 114.249 209.226C113.959 209.581 113.815 210.005 113.815 210.5C113.815 211.004 113.959 211.433 114.249 211.788C114.547 212.143 114.93 212.413 115.397 212.6C115.873 212.777 116.377 212.866 116.909 212.866C117.45 212.866 117.954 212.777 118.421 212.6C118.897 212.413 119.279 212.143 119.569 211.788C119.858 211.433 120.003 211.004 120.003 210.5ZM121.123 210.5C121.123 211.275 120.922 211.937 120.521 212.488C120.129 213.029 119.611 213.44 118.967 213.72C118.323 214 117.637 214.14 116.909 214.14C116.181 214.14 115.495 214 114.851 213.72C114.207 213.44 113.684 213.029 113.283 212.488C112.891 211.937 112.695 211.275 112.695 210.5C112.695 209.725 112.891 209.067 113.283 208.526C113.684 207.975 114.207 207.56 114.851 207.28C115.495 207 116.181 206.86 116.909 206.86C117.637 206.86 118.323 207 118.967 207.28C119.611 207.56 120.129 207.975 120.521 208.526C120.922 209.067 121.123 209.725 121.123 210.5ZM122.415 214V207H123.605V210.08C123.857 209.175 124.259 208.409 124.809 207.784C125.369 207.159 126.116 206.846 127.049 206.846C127.171 206.846 127.381 206.865 127.679 206.902V208.358C127.166 208.227 126.69 208.162 126.251 208.162C125.467 208.162 124.884 208.395 124.501 208.862C124.128 209.319 123.885 209.945 123.773 210.738C123.671 211.531 123.615 212.619 123.605 214H122.415ZM128.964 214V204.2H130.154V214H128.964ZM136.146 207L129.972 210.584L129.44 209.576L134.158 207H136.146ZM129.944 210.402L136.958 214H134.382L129.482 211.438L129.944 210.402ZM152.612 210.822C152.089 211.914 151.347 212.74 150.386 213.3C149.434 213.851 148.398 214.126 147.278 214.126C146.326 214.126 145.425 213.93 144.576 213.538C143.726 213.146 143.04 212.586 142.518 211.858C142.004 211.121 141.748 210.267 141.748 209.296C141.748 208.213 142 207.275 142.504 206.482C143.008 205.689 143.67 205.087 144.492 204.676C145.313 204.256 146.195 204.046 147.138 204.046C148.258 204.046 149.308 204.34 150.288 204.928C151.277 205.516 152.052 206.375 152.612 207.504L151.576 208.008C151.109 207.14 150.474 206.482 149.672 206.034C148.878 205.577 148.038 205.348 147.152 205.348C146.414 205.348 145.724 205.507 145.08 205.824C144.445 206.132 143.932 206.585 143.54 207.182C143.157 207.77 142.966 208.475 142.966 209.296C142.966 209.996 143.171 210.617 143.582 211.158C143.992 211.699 144.534 212.119 145.206 212.418C145.878 212.717 146.587 212.866 147.334 212.866C148.202 212.866 149.018 212.656 149.784 212.236C150.549 211.807 151.146 211.167 151.576 210.318L152.612 210.822ZM153.902 214V207H155.092V214H153.902ZM154.49 206.468C154.322 206.468 154.186 206.389 154.084 206.23C153.99 206.062 153.944 205.866 153.944 205.642C153.944 205.418 153.99 205.227 154.084 205.068C154.186 204.909 154.322 204.83 154.49 204.83C154.658 204.83 154.788 204.909 154.882 205.068C154.984 205.227 155.036 205.418 155.036 205.642C155.036 205.866 154.984 206.062 154.882 206.23C154.788 206.389 154.658 206.468 154.49 206.468ZM160.664 214H156.926V204.48H158.116V212.852H160.664V214ZM160.202 207.56H156.24V207H160.202V207.56ZM163.63 216.8L167.62 207H168.95L164.96 216.8H163.63ZM164.036 212.95L160.97 206.986H162.342L165.338 212.95H164.036Z" fill="#53556B"/>
<path fill-rule="evenodd" clip-rule="evenodd" d="M253 204.616C251.91 204.616 251.025 205.5 251.025 206.591C251.025 207.682 251.91 208.566 253 208.566C254.091 208.566 254.975 207.682 254.975 206.591C254.975 205.5 254.091 204.616 253 204.616ZM249.775 206.591C249.775 204.81 251.219 203.366 253 203.366C254.782 203.366 256.225 204.81 256.225 206.591C256.225 208.372 254.782 209.816 253 209.816C251.219 209.816 249.775 208.372 249.775 206.591Z" fill="#131313"/>
<path fill-rule="evenodd" clip-rule="evenodd" d="M253.003 200.292C250.155 200.29 247.37 201.942 246.626 205.214C245.745 209.105 248.157 212.48 250.425 214.667C251.867 216.051 254.134 216.049 255.566 214.667L255.567 214.666C257.844 212.48 260.255 209.113 259.374 205.222L259.374 205.222C258.633 201.95 255.85 200.294 253.003 200.292ZM260.593 204.946C259.7 201.001 256.321 199.044 253.003 199.042C249.686 199.04 246.305 200.992 245.407 204.937L245.407 204.937C244.371 209.512 247.226 213.32 249.558 215.567L249.559 215.568C251.483 217.416 254.516 217.418 256.434 215.567C258.774 213.32 261.628 209.52 260.593 204.946Z" fill="#131313"/>
<path d="M295 196C295 187.163 302.163 180 311 180H335C343.837 180 351 187.163 351 196V220C351 228.837 343.837 236 335 236H311C302.163 236 295 228.837 295 220V196Z" fill="#BFBFC6"/>
<path fill-rule="evenodd" clip-rule="evenodd" d="M323 201.25C319.272 201.25 316.25 204.272 316.25 208C316.25 211.728 319.272 214.75 323 214.75C326.728 214.75 329.75 211.728 329.75 208C329.75 204.272 326.728 201.25 323 201.25ZM314.75 208C314.75 203.444 318.444 199.75 323 199.75C327.556 199.75 331.25 203.444 331.25 208C331.25 212.556 327.556 216.25 323 216.25C318.444 216.25 314.75 212.556 314.75 208Z" fill="#131313"/>
<path fill-rule="evenodd" clip-rule="evenodd" d="M323 205.75C321.757 205.75 320.75 206.757 320.75 208C320.75 209.243 321.757 210.25 323 210.25C324.243 210.25 325.25 209.243 325.25 208C325.25 206.757 324.243 205.75 323 205.75ZM319.25 208C319.25 205.929 320.929 204.25 323 204.25C325.071 204.25 326.75 205.929 326.75 208C326.75 210.071 325.071 211.75 323 211.75C320.929 211.75 319.25 210.071 319.25 208Z" fill="#131313"/>
<path fill-rule="evenodd" clip-rule="evenodd" d="M323 197.25C323.414 197.25 323.75 197.586 323.75 198V200C323.75 200.414 323.414 200.75 323 200.75C322.586 200.75 322.25 200.414 322.25 200V198C322.25 197.586 322.586 197.25 323 197.25Z" fill="#131313"/>
<path fill-rule="evenodd" clip-rule="evenodd" d="M312.25 208C312.25 207.586 312.586 207.25 313 207.25H315C315.414 207.25 315.75 207.586 315.75 208C315.75 208.414 315.414 208.75 315 208.75H313C312.586 208.75 312.25 208.414 312.25 208Z" fill="#131313"/>
<path fill-rule="evenodd" clip-rule="evenodd" d="M323 215.25C323.414 215.25 323.75 215.586 323.75 216V218C323.75 218.414 323.414 218.75 323 218.75C322.586 218.75 322.25 218.414 322.25 218V216C322.25 215.586 322.586 215.25 323 215.25Z" fill="#131313"/>
<path fill-rule="evenodd" clip-rule="evenodd" d="M330.25 208C330.25 207.586 330.586 207.25 331 207.25H333C333.414 207.25 333.75 207.586 333.75 208C333.75 208.414 333.414 208.75 333 208.75H331C330.586 208.75 330.25 208.414 330.25 208Z" fill="#131313"/>
<path d="M30.786 276.4C32.466 276.4 33.906 276.694 35.106 277.282C36.306 277.87 37.206 278.644 37.806 279.604C38.406 280.564 38.706 281.584 38.706 282.664C38.706 283.756 38.4 284.788 37.788 285.76C37.188 286.72 36.288 287.5 35.088 288.1C33.888 288.688 32.442 288.982 30.75 288.982H24.828V276.4H30.786ZM27.384 286.786H30.804C31.932 286.786 32.892 286.594 33.684 286.21C34.488 285.826 35.088 285.322 35.484 284.698C35.892 284.074 36.096 283.408 36.096 282.7C36.096 281.992 35.892 281.326 35.484 280.702C35.076 280.066 34.47 279.556 33.666 279.172C32.874 278.788 31.908 278.596 30.768 278.596H27.384V286.786ZM47.9581 283.024C47.9581 282.88 47.8681 282.718 47.6881 282.538C47.5081 282.358 47.2081 282.202 46.7881 282.07C46.3681 281.938 45.8221 281.872 45.1501 281.872C44.5141 281.872 43.8601 281.956 43.1881 282.124C42.5161 282.28 41.9341 282.454 41.4421 282.646C40.9501 282.826 40.6501 282.952 40.5421 283.024V281.152C40.5901 281.14 41.0581 280.948 41.9461 280.576C42.8461 280.192 43.8901 280 45.0781 280C46.3381 280 47.3401 280.168 48.0841 280.504C48.8401 280.828 49.3681 281.224 49.6681 281.692C49.9681 282.148 50.1181 282.592 50.1181 283.024V289H47.9581V283.024ZM48.0301 283.654C47.7061 284.89 47.2381 285.922 46.6261 286.75C46.0261 287.578 45.3601 288.196 44.6281 288.604C43.9081 289 43.1941 289.198 42.4861 289.198C41.7181 289.198 41.0821 288.97 40.5781 288.514C40.0741 288.058 39.8221 287.434 39.8221 286.642C39.8221 285.838 40.1101 285.184 40.6861 284.68C41.2741 284.164 41.9641 283.774 42.7561 283.51C43.5601 283.246 44.5921 282.97 45.8521 282.682C46.6441 282.514 47.2681 282.364 47.7241 282.232C48.1921 282.1 48.5581 281.944 48.8221 281.764L49.2361 283.186C48.7441 283.462 48.1861 283.708 47.5621 283.924C46.9501 284.128 46.1881 284.368 45.2761 284.644C44.1721 284.98 43.3681 285.256 42.8641 285.472C42.3721 285.688 42.1201 285.928 42.1081 286.192C42.1081 286.408 42.2101 286.576 42.4141 286.696C42.6181 286.816 42.8881 286.876 43.2241 286.876C43.7161 286.876 44.2621 286.756 44.8621 286.516C45.4621 286.276 46.0441 285.916 46.6081 285.436C47.1841 284.944 47.6581 284.35 48.0301 283.654ZM58.0117 289H52.3057V276.76H54.4657V287.056H58.0117V289ZM57.4177 281.296H51.4237V280H57.4177V281.296ZM68.7656 286.192C68.1656 287.188 67.4156 287.938 66.5156 288.442C65.6156 288.946 64.6676 289.198 63.6716 289.198C62.7836 289.198 61.9496 289.006 61.1696 288.622C60.4016 288.238 59.7776 287.698 59.2976 287.002C58.8296 286.294 58.5956 285.478 58.5956 284.554C58.5956 283.546 58.8416 282.688 59.3336 281.98C59.8376 281.26 60.4856 280.726 61.2776 280.378C62.0696 280.018 62.9156 279.838 63.8156 279.838C64.6676 279.838 65.4656 280 66.2096 280.324C66.9656 280.636 67.5716 281.098 68.0276 281.71C68.4836 282.322 68.7116 283.054 68.7116 283.906C68.7116 284.122 68.6936 284.35 68.6576 284.59H59.3156V283.87H66.6596C66.5156 283.198 66.1676 282.682 65.6156 282.322C65.0636 281.962 64.4336 281.782 63.7256 281.782C63.1616 281.782 62.6216 281.896 62.1056 282.124C61.6016 282.34 61.1876 282.658 60.8636 283.078C60.5516 283.498 60.3956 283.99 60.3956 284.554C60.3956 285.082 60.5396 285.55 60.8276 285.958C61.1156 286.354 61.4996 286.666 61.9796 286.894C62.4716 287.11 62.9936 287.218 63.5456 287.218C64.2176 287.218 64.8596 287.05 65.4716 286.714C66.0836 286.378 66.5936 285.868 67.0016 285.184L68.7656 286.192Z" fill="#131313"/>
<path d="M40 320.5H335C343.56 320.5 350.5 327.44 350.5 336V360C350.5 368.56 343.56 375.5 335 375.5H40C31.4396 375.5 24.5 368.56 24.5 360V336C24.5 327.44 31.4396 320.5 40 320.5Z" stroke="#53556B"/>
<path fill-rule="evenodd" clip-rule="evenodd" d="M50.0004 344.616C48.9096 344.616 48.0254 345.5 48.0254 346.591C48.0254 347.682 48.9096 348.566 50.0004 348.566C51.0912 348.566 51.9754 347.682 51.9754 346.591C51.9754 345.5 51.0912 344.616 50.0004 344.616ZM46.7754 346.591C46.7754 344.81 48.2193 343.366 50.0004 343.366C51.7815 343.366 53.2254 344.81 53.2254 346.591C53.2254 348.372 51.7815 349.816 50.0004 349.816C48.2193 349.816 46.7754 348.372 46.7754 346.591Z" fill="#131313"/>
<path fill-rule="evenodd" clip-rule="evenodd" d="M50.0026 340.292C47.1553 340.29 44.3705 341.942 43.6261 345.214C42.7452 349.105 45.1567 352.48 47.4251 354.667C48.8672 356.051 51.1338 356.049 52.5659 354.667L52.567 354.666C54.8436 352.48 57.2546 349.113 56.3737 345.222L56.3737 345.222C55.6332 341.95 52.8501 340.294 50.0026 340.292ZM57.5928 344.946C56.6999 341.001 53.3206 339.044 50.0035 339.042C46.6863 339.04 43.3046 340.992 42.4072 344.937L42.407 344.937C41.3714 349.512 44.2264 353.32 46.5579 355.567L46.5587 355.568C48.4832 357.416 51.5159 357.418 53.4336 355.567C55.7735 353.32 58.6284 349.52 57.5928 344.946Z" fill="#131313"/>
<path d="M69.036 352.754C71.5373 352.474 73.488 351.914 74.888 351.074C76.2973 350.225 77.002 349.091 77.002 347.672C77.002 346.869 76.7593 346.244 76.274 345.796C75.798 345.348 75.1867 345.124 74.44 345.124C73.8893 345.124 73.32 345.255 72.732 345.516C72.144 345.768 71.5793 346.155 71.038 346.678C70.4967 347.191 70.03 347.826 69.638 348.582L68.644 348.078C69.092 347.219 69.6427 346.491 70.296 345.894C70.9493 345.287 71.64 344.835 72.368 344.536C73.1053 344.237 73.824 344.088 74.524 344.088C75.196 344.088 75.8027 344.223 76.344 344.494C76.8947 344.765 77.3287 345.171 77.646 345.712C77.9633 346.253 78.122 346.907 78.122 347.672C78.122 348.792 77.7533 349.702 77.016 350.402C76.2787 351.093 75.2613 351.629 73.964 352.012C72.6667 352.395 71.024 352.712 69.036 352.964V352.754ZM78.472 354H69.036V352.88H78.472V354ZM79.7592 349.296C79.7592 348.195 79.9692 347.257 80.3892 346.482C80.8092 345.698 81.3599 345.11 82.0412 344.718C82.7319 344.317 83.4646 344.116 84.2392 344.116C85.0139 344.116 85.7419 344.317 86.4232 344.718C87.1139 345.11 87.6692 345.698 88.0892 346.482C88.5092 347.257 88.7192 348.195 88.7192 349.296C88.7192 350.323 88.5046 351.2 88.0752 351.928C87.6552 352.656 87.1046 353.207 86.4232 353.58C85.7419 353.944 85.0139 354.126 84.2392 354.126C83.4646 354.126 82.7366 353.944 82.0552 353.58C81.3739 353.207 80.8186 352.656 80.3892 351.928C79.9692 351.2 79.7592 350.323 79.7592 349.296ZM80.8792 349.296C80.8792 350.099 81.0379 350.785 81.3552 351.354C81.6726 351.914 82.0879 352.339 82.6012 352.628C83.1146 352.908 83.6606 353.048 84.2392 353.048C84.8179 353.048 85.3639 352.908 85.8772 352.628C86.3906 352.339 86.8059 351.914 87.1232 351.354C87.4406 350.785 87.5992 350.099 87.5992 349.296C87.5992 348.428 87.4406 347.691 87.1232 347.084C86.8059 346.468 86.3906 346.006 85.8772 345.698C85.3639 345.381 84.8179 345.222 84.2392 345.222C83.6606 345.222 83.1146 345.381 82.6012 345.698C82.0879 346.006 81.6726 346.468 81.3552 347.084C81.0379 347.691 80.8792 348.428 80.8792 349.296ZM94.2104 354.742L97.7804 343.598H98.5504L94.9804 354.742H94.2104ZM104.04 349.296C104.04 348.195 104.25 347.257 104.67 346.482C105.09 345.698 105.641 345.11 106.322 344.718C107.013 344.317 107.746 344.116 108.52 344.116C109.295 344.116 110.023 344.317 110.704 344.718C111.395 345.11 111.95 345.698 112.37 346.482C112.79 347.257 113 348.195 113 349.296C113 350.323 112.786 351.2 112.356 351.928C111.936 352.656 111.386 353.207 110.704 353.58C110.023 353.944 109.295 354.126 108.52 354.126C107.746 354.126 107.018 353.944 106.336 353.58C105.655 353.207 105.1 352.656 104.67 351.928C104.25 351.2 104.04 350.323 104.04 349.296ZM105.16 349.296C105.16 350.099 105.319 350.785 105.636 351.354C105.954 351.914 106.369 352.339 106.882 352.628C107.396 352.908 107.942 353.048 108.52 353.048C109.099 353.048 109.645 352.908 110.158 352.628C110.672 352.339 111.087 351.914 111.404 351.354C111.722 350.785 111.88 350.099 111.88 349.296C111.88 348.428 111.722 347.691 111.404 347.084C111.087 346.468 110.672 346.006 110.158 345.698C109.645 345.381 109.099 345.222 108.52 345.222C107.942 345.222 107.396 345.381 106.882 345.698C106.369 346.006 105.954 346.468 105.636 347.084C105.319 347.691 105.16 348.428 105.16 349.296ZM114.294 345.32V344.2L122.19 344.186V345.306L114.294 345.32ZM116.912 354H115.4L122.19 345.18V346.86L116.912 354ZM127.679 354.742L131.249 343.598H132.019L128.449 354.742H127.679ZM137.901 352.754C140.403 352.474 142.353 351.914 143.753 351.074C145.163 350.225 145.867 349.091 145.867 347.672C145.867 346.869 145.625 346.244 145.139 345.796C144.663 345.348 144.052 345.124 143.305 345.124C142.755 345.124 142.185 345.255 141.597 345.516C141.009 345.768 140.445 346.155 139.903 346.678C139.362 347.191 138.895 347.826 138.503 348.582L137.509 348.078C137.957 347.219 138.508 346.491 139.161 345.894C139.815 345.287 140.505 344.835 141.233 344.536C141.971 344.237 142.689 344.088 143.389 344.088C144.061 344.088 144.668 344.223 145.209 344.494C145.76 344.765 146.194 345.171 146.511 345.712C146.829 346.253 146.987 346.907 146.987 347.672C146.987 348.792 146.619 349.702 145.881 350.402C145.144 351.093 144.127 351.629 142.829 352.012C141.532 352.395 139.889 352.712 137.901 352.964V352.754ZM147.337 354H137.901V352.88H147.337V354ZM148.624 349.296C148.624 348.195 148.834 347.257 149.254 346.482C149.674 345.698 150.225 345.11 150.906 344.718C151.597 344.317 152.33 344.116 153.104 344.116C153.879 344.116 154.607 344.317 155.288 344.718C155.979 345.11 156.534 345.698 156.954 346.482C157.374 347.257 157.584 348.195 157.584 349.296C157.584 350.323 157.37 351.2 156.94 351.928C156.52 352.656 155.97 353.207 155.288 353.58C154.607 353.944 153.879 354.126 153.104 354.126C152.33 354.126 151.602 353.944 150.92 353.58C150.239 353.207 149.684 352.656 149.254 351.928C148.834 351.2 148.624 350.323 148.624 349.296ZM149.744 349.296C149.744 350.099 149.903 350.785 150.22 351.354C150.538 351.914 150.953 352.339 151.466 352.628C151.98 352.908 152.526 353.048 153.104 353.048C153.683 353.048 154.229 352.908 154.742 352.628C155.256 352.339 155.671 351.914 155.988 351.354C156.306 350.785 156.464 350.099 156.464 349.296C156.464 348.428 156.306 347.691 155.988 347.084C155.671 346.468 155.256 346.006 154.742 345.698C154.229 345.381 153.683 345.222 153.104 345.222C152.526 345.222 151.98 345.381 151.466 345.698C150.953 346.006 150.538 346.468 150.22 347.084C149.903 347.691 149.744 348.428 149.744 349.296ZM159.27 352.754C161.772 352.474 163.722 351.914 165.122 351.074C166.532 350.225 167.236 349.091 167.236 347.672C167.236 346.869 166.994 346.244 166.508 345.796C166.032 345.348 165.421 345.124 164.674 345.124C164.124 345.124 163.554 345.255 162.966 345.516C162.378 345.768 161.814 346.155 161.272 346.678C160.731 347.191 160.264 347.826 159.872 348.582L158.878 348.078C159.326 347.219 159.877 346.491 160.53 345.894C161.184 345.287 161.874 344.835 162.602 344.536C163.34 344.237 164.058 344.088 164.758 344.088C165.43 344.088 166.037 344.223 166.578 344.494C167.129 344.765 167.563 345.171 167.88 345.712C168.198 346.253 168.356 346.907 168.356 347.672C168.356 348.792 167.988 349.702 167.25 350.402C166.513 351.093 165.496 351.629 164.198 352.012C162.901 352.395 161.258 352.712 159.27 352.964V352.754ZM168.706 354H159.27V352.88H168.706V354ZM170.68 344.2H177.988V345.32H170.68V344.2ZM174.208 348.47C174.581 348.423 174.894 348.4 175.146 348.4C175.892 348.4 176.527 348.531 177.05 348.792C177.582 349.044 177.978 349.38 178.24 349.8C178.501 350.211 178.632 350.659 178.632 351.144C178.632 351.648 178.487 352.133 178.198 352.6C177.908 353.057 177.484 353.431 176.924 353.72C176.364 354 175.696 354.14 174.922 354.14C173.988 354.14 173.167 353.972 172.458 353.636C171.758 353.291 171.198 352.852 170.778 352.32C170.367 351.788 170.106 351.233 169.994 350.654L171.086 350.43C171.179 350.869 171.375 351.284 171.674 351.676C171.972 352.068 172.392 352.39 172.934 352.642C173.484 352.894 174.142 353.02 174.908 353.02C175.458 353.02 175.93 352.931 176.322 352.754C176.714 352.567 177.008 352.325 177.204 352.026C177.4 351.718 177.498 351.387 177.498 351.032C177.498 350.631 177.372 350.253 177.12 349.898C176.868 349.534 176.494 349.24 176 349.016C175.505 348.792 174.908 348.68 174.208 348.68V348.47ZM174.208 348.512V347.252L177.988 345.166V346.65L174.208 348.512Z" fill="#53556B"/>
<path fill-rule="evenodd" clip-rule="evenodd" d="M325 344.616C323.91 344.616 323.025 345.5 323.025 346.591C323.025 347.682 323.91 348.566 325 348.566C326.091 348.566 326.975 347.682 326.975 346.591C326.975 345.5 326.091 344.616 325 344.616ZM321.775 346.591C321.775 344.81 323.219 343.366 325 343.366C326.782 343.366 328.225 344.81 328.225 346.591C328.225 348.372 326.782 349.816 325 349.816C323.219 349.816 321.775 348.372 321.775 346.591Z" fill="#131313"/>
<path fill-rule="evenodd" clip-rule="evenodd" d="M325.003 340.292C322.155 340.29 319.37 341.942 318.626 345.214C317.745 349.105 320.157 352.48 322.425 354.667C323.867 356.051 326.134 356.049 327.566 354.667L327.567 354.666C329.844 352.48 332.255 349.113 331.374 345.222L331.374 345.222C330.633 341.95 327.85 340.294 325.003 340.292ZM332.593 344.946C331.7 341.001 328.321 339.044 325.003 339.042C321.686 339.04 318.305 340.992 317.407 344.937L317.407 344.937C316.371 349.512 319.226 353.32 321.558 355.567L321.559 355.568C323.483 357.416 326.516 357.418 328.434 355.567C330.774 353.32 333.628 349.52 332.593 344.946Z" fill="#131313"/>
<path d="M24.828 429V416.4H27.024V421.584H34.278V416.4H36.474V429H34.278V422.88H27.024V429H24.828ZM47.1706 424.5C47.1706 423.948 46.9966 423.474 46.6486 423.078C46.3126 422.682 45.8686 422.388 45.3166 422.196C44.7646 421.992 44.1766 421.89 43.5526 421.89C42.9286 421.89 42.3406 421.992 41.7886 422.196C41.2366 422.388 40.7866 422.682 40.4386 423.078C40.1026 423.474 39.9346 423.948 39.9346 424.5C39.9346 425.04 40.1026 425.508 40.4386 425.904C40.7866 426.288 41.2366 426.582 41.7886 426.786C42.3406 426.978 42.9286 427.074 43.5526 427.074C44.1766 427.074 44.7646 426.978 45.3166 426.786C45.8686 426.582 46.3126 426.288 46.6486 425.904C46.9966 425.508 47.1706 425.04 47.1706 424.5ZM48.9706 424.5C48.9706 425.496 48.7126 426.348 48.1966 427.056C47.6926 427.752 47.0266 428.28 46.1986 428.64C45.3706 429 44.4886 429.18 43.5526 429.18C42.6166 429.18 41.7346 429 40.9066 428.64C40.0786 428.28 39.4066 427.752 38.8906 427.056C38.3866 426.348 38.1346 425.496 38.1346 424.5C38.1346 423.504 38.3866 422.658 38.8906 421.962C39.4066 421.254 40.0786 420.72 40.9066 420.36C41.7346 420 42.6166 419.82 43.5526 419.82C44.4886 419.82 45.3706 420 46.1986 420.36C47.0266 420.72 47.6926 421.254 48.1966 421.962C48.7126 422.658 48.9706 423.504 48.9706 424.5ZM58.8587 429V426.786C58.3427 427.53 57.6947 428.118 56.9147 428.55C56.1347 428.982 55.3487 429.198 54.5567 429.198C53.8367 429.198 53.1767 429.006 52.5767 428.622C51.9887 428.226 51.5147 427.608 51.1547 426.768C50.8067 425.916 50.6327 424.848 50.6327 423.564V420H52.7927V423.564C52.7927 424.38 52.9187 425.076 53.1707 425.652C53.4347 426.228 53.7827 426.66 54.2147 426.948C54.6467 427.236 55.1087 427.38 55.6007 427.38C56.1527 427.38 56.6747 427.206 57.1667 426.858C57.6707 426.498 58.0787 425.976 58.3907 425.292C58.7027 424.596 58.8587 423.762 58.8587 422.79V420H61.0187V429H58.8587ZM62.6737 429V420H64.8337V422.538C65.7937 420.714 67.1797 419.802 68.9917 419.802C69.3877 419.802 69.7777 419.844 70.1617 419.928V422.574C68.8297 422.214 67.8457 422.034 67.2097 422.034C66.4417 422.034 65.8897 422.256 65.5537 422.7C65.2297 423.144 65.0257 423.81 64.9417 424.698C64.8697 425.586 64.8337 427.02 64.8337 429H62.6737Z" fill="#131313"/>
<path d="M40 460.5H335C343.56 460.5 350.5 467.44 350.5 476V500C350.5 508.56 343.56 515.5 335 515.5H40C31.4396 515.5 24.5 508.56 24.5 500V476C24.5 467.44 31.4396 460.5 40 460.5Z" stroke="#53556B"/>
<path fill-rule="evenodd" clip-rule="evenodd" d="M50.0004 484.616C48.9096 484.616 48.0254 485.5 48.0254 486.591C48.0254 487.682 48.9096 488.566 50.0004 488.566C51.0912 488.566 51.9754 487.682 51.9754 486.591C51.9754 485.5 51.0912 484.616 50.0004 484.616ZM46.7754 486.591C46.7754 484.81 48.2193 483.366 50.0004 483.366C51.7815 483.366 53.2254 484.81 53.2254 486.591C53.2254 488.372 51.7815 489.816 50.0004 489.816C48.2193 489.816 46.7754 488.372 46.7754 486.591Z" fill="#131313"/>
<path fill-rule="evenodd" clip-rule="evenodd" d="M50.0026 480.292C47.1553 480.29 44.3705 481.942 43.6261 485.214C42.7452 489.105 45.1567 492.48 47.4251 494.667C48.8672 496.051 51.1338 496.049 52.5659 494.667L52.567 494.666C54.8436 492.48 57.2546 489.113 56.3737 485.222L56.3737 485.222C55.6332 481.95 52.8501 480.294 50.0026 480.292ZM57.5928 484.946C56.6999 481.001 53.3206 479.044 50.0035 479.042C46.6863 479.04 43.3046 480.992 42.4072 484.937L42.407 484.937C41.3714 489.512 44.2264 493.32 46.5579 495.567L46.5587 495.568C48.4832 497.416 51.5159 497.418 53.4336 495.567C55.7735 493.32 58.6284 489.52 57.5928 484.946Z" fill="#131313"/>
<path d="M69.036 492.754C71.5373 492.474 73.488 491.914 74.888 491.074C76.2973 490.225 77.002 489.091 77.002 487.672C77.002 486.869 76.7593 486.244 76.274 485.796C75.798 485.348 75.1867 485.124 74.44 485.124C73.8893 485.124 73.32 485.255 72.732 485.516C72.144 485.768 71.5793 486.155 71.038 486.678C70.4967 487.191 70.03 487.826 69.638 488.582L68.644 488.078C69.092 487.219 69.6427 486.491 70.296 485.894C70.9493 485.287 71.64 484.835 72.368 484.536C73.1053 484.237 73.824 484.088 74.524 484.088C75.196 484.088 75.8027 484.223 76.344 484.494C76.8947 484.765 77.3287 485.171 77.646 485.712C77.9633 486.253 78.122 486.907 78.122 487.672C78.122 488.792 77.7533 489.702 77.016 490.402C76.2787 491.093 75.2613 491.629 73.964 492.012C72.6667 492.395 71.024 492.712 69.036 492.964V492.754ZM78.472 494H69.036V492.88H78.472V494ZM80.4452 484.2H87.7532V485.32H80.4452V484.2ZM83.9732 488.47C84.3466 488.423 84.6592 488.4 84.9112 488.4C85.6579 488.4 86.2926 488.531 86.8152 488.792C87.3472 489.044 87.7439 489.38 88.0052 489.8C88.2666 490.211 88.3972 490.659 88.3972 491.144C88.3972 491.648 88.2526 492.133 87.9632 492.6C87.6739 493.057 87.2492 493.431 86.6892 493.72C86.1292 494 85.4619 494.14 84.6872 494.14C83.7539 494.14 82.9326 493.972 82.2232 493.636C81.5232 493.291 80.9632 492.852 80.5432 492.32C80.1326 491.788 79.8712 491.233 79.7592 490.654L80.8512 490.43C80.9446 490.869 81.1406 491.284 81.4392 491.676C81.7379 492.068 82.1579 492.39 82.6992 492.642C83.2499 492.894 83.9079 493.02 84.6732 493.02C85.2239 493.02 85.6952 492.931 86.0872 492.754C86.4792 492.567 86.7732 492.325 86.9692 492.026C87.1652 491.718 87.2632 491.387 87.2632 491.032C87.2632 490.631 87.1372 490.253 86.8852 489.898C86.6332 489.534 86.2599 489.24 85.7652 489.016C85.2706 488.792 84.6732 488.68 83.9732 488.68V488.47ZM83.9732 488.512V487.252L87.7532 485.166V486.65L83.9732 488.512ZM94.7363 490.08C94.5029 490.08 94.3023 490.01 94.1343 489.87C93.9663 489.721 93.8823 489.543 93.8823 489.338C93.8823 489.142 93.9663 488.974 94.1343 488.834C94.3023 488.685 94.5029 488.61 94.7363 488.61C94.9603 488.61 95.1563 488.685 95.3243 488.834C95.4923 488.974 95.5763 489.142 95.5763 489.338C95.5763 489.543 95.4923 489.721 95.3243 489.87C95.1563 490.01 94.9603 490.08 94.7363 490.08ZM94.8063 494.028C94.5729 494.028 94.3723 493.958 94.2043 493.818C94.0363 493.669 93.9523 493.491 93.9523 493.286C93.9523 493.09 94.0363 492.922 94.2043 492.782C94.3723 492.633 94.5729 492.558 94.8063 492.558C95.0396 492.558 95.2356 492.633 95.3943 492.782C95.5623 492.922 95.6463 493.09 95.6463 493.286C95.6463 493.491 95.5623 493.669 95.3943 493.818C95.2356 493.958 95.0396 494.028 94.8063 494.028ZM101.128 489.296C101.128 488.195 101.338 487.257 101.758 486.482C102.178 485.698 102.729 485.11 103.41 484.718C104.101 484.317 104.834 484.116 105.608 484.116C106.383 484.116 107.111 484.317 107.792 484.718C108.483 485.11 109.038 485.698 109.458 486.482C109.878 487.257 110.088 488.195 110.088 489.296C110.088 490.323 109.874 491.2 109.444 491.928C109.024 492.656 108.474 493.207 107.792 493.58C107.111 493.944 106.383 494.126 105.608 494.126C104.834 494.126 104.106 493.944 103.424 493.58C102.743 493.207 102.188 492.656 101.758 491.928C101.338 491.2 101.128 490.323 101.128 489.296ZM102.248 489.296C102.248 490.099 102.407 490.785 102.724 491.354C103.042 491.914 103.457 492.339 103.97 492.628C104.484 492.908 105.03 493.048 105.608 493.048C106.187 493.048 106.733 492.908 107.246 492.628C107.76 492.339 108.175 491.914 108.492 491.354C108.81 490.785 108.968 490.099 108.968 489.296C108.968 488.428 108.81 487.691 108.492 487.084C108.175 486.468 107.76 486.006 107.246 485.698C106.733 485.381 106.187 485.222 105.608 485.222C105.03 485.222 104.484 485.381 103.97 485.698C103.457 486.006 103.042 486.468 102.724 487.084C102.407 487.691 102.248 488.428 102.248 489.296ZM111.382 489.296C111.382 488.195 111.592 487.257 112.012 486.482C112.432 485.698 112.983 485.11 113.664 484.718C114.355 484.317 115.088 484.116 115.862 484.116C116.637 484.116 117.365 484.317 118.046 484.718C118.737 485.11 119.292 485.698 119.712 486.482C120.132 487.257 120.342 488.195 120.342 489.296C120.342 490.323 120.128 491.2 119.698 491.928C119.278 492.656 118.728 493.207 118.046 493.58C117.365 493.944 116.637 494.126 115.862 494.126C115.088 494.126 114.36 493.944 113.678 493.58C112.997 493.207 112.442 492.656 112.012 491.928C111.592 491.2 111.382 490.323 111.382 489.296ZM112.502 489.296C112.502 490.099 112.661 490.785 112.978 491.354C113.296 491.914 113.711 492.339 114.224 492.628C114.738 492.908 115.284 493.048 115.862 493.048C116.441 493.048 116.987 492.908 117.5 492.628C118.014 492.339 118.429 491.914 118.746 491.354C119.064 490.785 119.222 490.099 119.222 489.296C119.222 488.428 119.064 487.691 118.746 487.084C118.429 486.468 118.014 486.006 117.5 485.698C116.987 485.381 116.441 485.222 115.862 485.222C115.284 485.222 114.738 485.381 114.224 485.698C113.711 486.006 113.296 486.468 112.978 487.084C112.661 487.691 112.502 488.428 112.502 489.296ZM125.833 484.2H130.089C131.041 484.2 131.853 484.363 132.525 484.69C133.207 485.007 133.715 485.427 134.051 485.95C134.397 486.463 134.569 487.014 134.569 487.602C134.569 488.19 134.397 488.745 134.051 489.268C133.715 489.781 133.207 490.201 132.525 490.528C131.853 490.845 131.041 491.004 130.089 491.004H127.051V494H125.833V484.2ZM130.089 489.856C130.761 489.856 131.331 489.749 131.797 489.534C132.273 489.319 132.628 489.044 132.861 488.708C133.104 488.363 133.225 487.994 133.225 487.602C133.225 487.21 133.104 486.841 132.861 486.496C132.628 486.151 132.273 485.875 131.797 485.67C131.331 485.455 130.761 485.348 130.089 485.348H127.051V489.856H130.089ZM141.062 493.244L143.596 484.2H144.856L142.336 493.244H141.062ZM145.976 484.2L147.25 494H146.018L144.73 484.2H145.976ZM137.688 484.2H138.878L141.342 493.244H140.068L137.688 484.2ZM136.526 494H135.294L136.568 484.2H137.814L136.526 494Z" fill="#53556B"/>
<path fill-rule="evenodd" clip-rule="evenodd" d="M325 484.616C323.91 484.616 323.025 485.5 323.025 486.591C323.025 487.682 323.91 488.566 325 488.566C326.091 488.566 326.975 487.682 326.975 486.591C326.975 485.5 326.091 484.616 325 484.616ZM321.775 486.591C321.775 484.81 323.219 483.366 325 483.366C326.782 483.366 328.225 484.81 328.225 486.591C328.225 488.372 326.782 489.816 325 489.816C323.219 489.816 321.775 488.372 321.775 486.591Z" fill="#131313"/>
<path fill-rule="evenodd" clip-rule="evenodd" d="M325.003 480.292C322.155 480.29 319.37 481.942 318.626 485.214C317.745 489.105 320.157 492.48 322.425 494.667C323.867 496.051 326.134 496.049 327.566 494.667L327.567 494.666C329.844 492.48 332.255 489.113 331.374 485.222L331.374 485.222C330.633 481.95 327.85 480.294 325.003 480.292ZM332.593 484.946C331.7 481.001 328.321 479.044 325.003 479.042C321.686 479.04 318.305 480.992 317.407 484.937L317.407 484.937C316.371 489.512 319.226 493.32 321.558 495.567L321.559 495.568C323.483 497.416 326.516 497.418 328.434 495.567C330.774 493.32 333.628 489.52 332.593 484.946Z" fill="#131313"/>
<path d="M30.786 556.4C32.466 556.4 33.906 556.694 35.106 557.282C36.306 557.87 37.206 558.644 37.806 559.604C38.406 560.564 38.706 561.584 38.706 562.664C38.706 563.756 38.4 564.788 37.788 565.76C37.188 566.72 36.288 567.5 35.088 568.1C33.888 568.688 32.442 568.982 30.75 568.982H24.828V556.4H30.786ZM27.384 566.786H30.804C31.932 566.786 32.892 566.594 33.684 566.21C34.488 565.826 35.088 565.322 35.484 564.698C35.892 564.074 36.096 563.408 36.096 562.7C36.096 561.992 35.892 561.326 35.484 560.702C35.076 560.066 34.47 559.556 33.666 559.172C32.874 558.788 31.908 558.596 30.768 558.596H27.384V566.786ZM40.3671 569V560H42.5271V569H40.3671ZM41.4471 559.496C41.1231 559.496 40.8651 559.34 40.6731 559.028C40.4931 558.704 40.4031 558.326 40.4031 557.894C40.4031 557.462 40.4931 557.09 40.6731 556.778C40.8651 556.466 41.1231 556.31 41.4471 556.31C41.7831 556.31 42.0411 556.466 42.2211 556.778C42.4011 557.09 42.4911 557.462 42.4911 557.894C42.4911 558.338 42.4011 558.716 42.2211 559.028C42.0411 559.34 41.7831 559.496 41.4471 559.496ZM45.8735 565.544C46.2935 566.084 46.9055 566.492 47.7095 566.768C48.5255 567.044 49.3655 567.182 50.2295 567.182C51.0095 567.182 51.6635 567.074 52.1915 566.858C52.7195 566.63 52.9835 566.33 52.9835 565.958C52.9835 565.538 52.8335 565.25 52.5335 565.094C52.2335 564.926 51.8015 564.842 51.2375 564.842C50.9015 564.842 50.3495 564.878 49.5815 564.95C48.8255 565.034 48.1835 565.076 47.6555 565.076C46.7315 565.076 46.0055 564.908 45.4775 564.572C44.9615 564.224 44.7035 563.594 44.7035 562.682C44.7035 561.77 45.1115 561.062 45.9275 560.558C46.7555 560.042 47.7875 559.784 49.0235 559.784C49.8035 559.784 50.5955 559.898 51.3995 560.126C52.2155 560.354 52.9595 560.684 53.6315 561.116L52.1015 562.502C51.5855 562.19 51.0395 561.962 50.4635 561.818C49.8995 561.662 49.3475 561.584 48.8075 561.584C48.1355 561.584 47.5835 561.686 47.1515 561.89C46.7195 562.094 46.5035 562.358 46.5035 562.682C46.5035 562.982 46.6055 563.192 46.8095 563.312C47.0255 563.432 47.3315 563.492 47.7275 563.492C47.9795 563.492 48.2915 563.468 48.6635 563.42C49.0475 563.372 49.3175 563.342 49.4735 563.33C50.4575 563.186 51.2135 563.114 51.7415 563.114C52.6775 563.114 53.4155 563.324 53.9555 563.744C54.5075 564.152 54.7835 564.89 54.7835 565.958C54.7835 566.63 54.5555 567.206 54.0995 567.686C53.6435 568.166 53.0375 568.532 52.2815 568.784C51.5255 569.036 50.7095 569.162 49.8335 569.162C48.7055 569.162 47.6255 568.958 46.5935 568.55C45.5735 568.13 44.7695 567.53 44.1815 566.75L45.8735 565.544ZM62.4765 569H56.7705V556.76H58.9305V567.056H62.4765V569ZM61.8825 561.296H55.8885V560H61.8825V561.296ZM71.9171 563.024C71.9171 562.88 71.8271 562.718 71.6471 562.538C71.4671 562.358 71.1671 562.202 70.7471 562.07C70.3271 561.938 69.7811 561.872 69.1091 561.872C68.4731 561.872 67.8191 561.956 67.1471 562.124C66.4751 562.28 65.8931 562.454 65.4011 562.646C64.9091 562.826 64.6091 562.952 64.5011 563.024V561.152C64.5491 561.14 65.0171 560.948 65.9051 560.576C66.8051 560.192 67.8491 560 69.0371 560C70.2971 560 71.2991 560.168 72.0431 560.504C72.7991 560.828 73.3271 561.224 73.6271 561.692C73.9271 562.148 74.0771 562.592 74.0771 563.024V569H71.9171V563.024ZM71.9891 563.654C71.6651 564.89 71.1971 565.922 70.5851 566.75C69.9851 567.578 69.3191 568.196 68.5871 568.604C67.8671 569 67.1531 569.198 66.4451 569.198C65.6771 569.198 65.0411 568.97 64.5371 568.514C64.0331 568.058 63.7811 567.434 63.7811 566.642C63.7811 565.838 64.0691 565.184 64.6451 564.68C65.2331 564.164 65.9231 563.774 66.7151 563.51C67.5191 563.246 68.5511 562.97 69.8111 562.682C70.6031 562.514 71.2271 562.364 71.6831 562.232C72.1511 562.1 72.5171 561.944 72.7811 561.764L73.1951 563.186C72.7031 563.462 72.1451 563.708 71.5211 563.924C70.9091 564.128 70.1471 564.368 69.2351 564.644C68.1311 564.98 67.3271 565.256 66.8231 565.472C66.3311 565.688 66.0791 565.928 66.0671 566.192C66.0671 566.408 66.1691 566.576 66.3731 566.696C66.5771 566.816 66.8471 566.876 67.1831 566.876C67.6751 566.876 68.2211 566.756 68.8211 566.516C69.4211 566.276 70.0031 565.916 70.5671 565.436C71.1431 564.944 71.6171 564.35 71.9891 563.654ZM75.7343 568.982V560H77.8943V562.25C78.3263 561.47 78.9083 560.87 79.6403 560.45C80.3723 560.018 81.1403 559.802 81.9443 559.802C82.6523 559.802 83.3003 559.964 83.8883 560.288C84.4883 560.612 84.9683 561.098 85.3283 561.746C85.7003 562.394 85.8863 563.18 85.8863 564.104V569H83.7263V564.734C83.7263 564.014 83.5703 563.372 83.2583 562.808C82.9583 562.232 82.5623 561.788 82.0703 561.476C81.5903 561.164 81.0923 561.008 80.5763 561.008C80.0963 561.008 79.6523 561.152 79.2443 561.44C78.8363 561.728 78.5063 562.178 78.2543 562.79C78.0143 563.39 77.8943 564.14 77.8943 565.04V568.982H75.7343ZM96.2408 563.798C95.8928 563.174 95.4008 562.706 94.7648 562.394C94.1408 562.07 93.4688 561.908 92.7488 561.908C92.1608 561.908 91.6028 562.016 91.0748 562.232C90.5588 562.436 90.1388 562.742 89.8148 563.15C89.5028 563.546 89.3468 564.008 89.3468 564.536C89.3468 565.064 89.5088 565.52 89.8328 565.904C90.1568 566.288 90.5828 566.582 91.1108 566.786C91.6508 566.99 92.2208 567.092 92.8208 567.092C93.6488 567.092 94.3988 566.906 95.0708 566.534C95.7548 566.15 96.2168 565.592 96.4568 564.86L98.3648 566.048C97.9328 567.068 97.2308 567.848 96.2588 568.388C95.2988 568.916 94.2368 569.18 93.0728 569.18C92.1248 569.18 91.2248 569 90.3728 568.64C89.5328 568.268 88.8488 567.734 88.3208 567.038C87.8048 566.33 87.5468 565.496 87.5468 564.536C87.5468 563.576 87.8048 562.742 88.3208 562.034C88.8488 561.314 89.5328 560.762 90.3728 560.378C91.2248 559.994 92.1308 559.802 93.0908 559.802C94.0868 559.802 95.0228 560.018 95.8988 560.45C96.7868 560.87 97.5008 561.506 98.0408 562.358L96.2408 563.798ZM109.846 566.192C109.246 567.188 108.496 567.938 107.596 568.442C106.696 568.946 105.748 569.198 104.752 569.198C103.864 569.198 103.03 569.006 102.25 568.622C101.482 568.238 100.858 567.698 100.378 567.002C99.9097 566.294 99.6757 565.478 99.6757 564.554C99.6757 563.546 99.9217 562.688 100.414 561.98C100.918 561.26 101.566 560.726 102.358 560.378C103.15 560.018 103.996 559.838 104.896 559.838C105.748 559.838 106.546 560 107.29 560.324C108.046 560.636 108.652 561.098 109.108 561.71C109.564 562.322 109.792 563.054 109.792 563.906C109.792 564.122 109.774 564.35 109.738 564.59H100.396V563.87H107.74C107.596 563.198 107.248 562.682 106.696 562.322C106.144 561.962 105.514 561.782 104.806 561.782C104.242 561.782 103.702 561.896 103.186 562.124C102.682 562.34 102.268 562.658 101.944 563.078C101.632 563.498 101.476 563.99 101.476 564.554C101.476 565.082 101.62 565.55 101.908 565.958C102.196 566.354 102.58 566.666 103.06 566.894C103.552 567.11 104.074 567.218 104.626 567.218C105.298 567.218 105.94 567.05 106.552 566.714C107.164 566.378 107.674 565.868 108.082 565.184L109.846 566.192Z" fill="#131313"/>
<rect x="24" y="644" width="327" height="8" rx="4" fill="#B6B6C0"/>
<circle cx="151" cy="648" r="8" fill="#131313"/>
<rect x="24" y="644" width="127" height="8" rx="4" fill="#131313"/>
<rect x="133" y="600" width="36" height="36" rx="18" fill="#131313"/>
<path d="M146.402 624V614.2H147.522V624H146.402ZM146.682 614.34C146.682 615.171 146.514 615.843 146.178 616.356C145.842 616.869 145.366 617.308 144.75 617.672L143.714 616.818C144.461 616.51 145.096 616.127 145.618 615.67C146.141 615.213 146.402 614.723 146.402 614.2L146.682 614.34ZM153.28 618.82C152.281 619.119 151.474 619.501 150.858 619.968C150.242 620.425 149.934 620.869 149.934 621.298C149.934 621.69 150.102 622.026 150.438 622.306C150.783 622.586 151.231 622.801 151.782 622.95C152.342 623.09 152.935 623.16 153.56 623.16C154.185 623.16 154.773 623.09 155.324 622.95C155.875 622.801 156.318 622.586 156.654 622.306C156.999 622.026 157.172 621.69 157.172 621.298C157.172 620.999 157.102 620.766 156.962 620.598C156.831 620.43 156.645 620.299 156.402 620.206C156.159 620.113 155.777 619.996 155.254 619.856C154.75 619.725 154.307 619.604 153.924 619.492C153.691 619.417 153.271 619.296 152.664 619.128C151.824 618.904 151.18 618.703 150.732 618.526C150.293 618.349 149.934 618.097 149.654 617.77C149.383 617.443 149.248 617 149.248 616.44C149.248 615.936 149.444 615.507 149.836 615.152C150.237 614.788 150.755 614.517 151.39 614.34C152.034 614.153 152.715 614.06 153.434 614.06C154.162 614.06 154.843 614.153 155.478 614.34C156.122 614.517 156.64 614.788 157.032 615.152C157.424 615.507 157.62 615.936 157.62 616.44C157.62 616.879 157.48 617.229 157.2 617.49C156.929 617.751 156.589 617.952 156.178 618.092C155.767 618.223 155.189 618.367 154.442 618.526L153.826 618.652L153.588 618.456C154.475 618.26 155.179 617.975 155.702 617.602C156.234 617.229 156.5 616.841 156.5 616.44C156.5 616.001 156.197 615.661 155.59 615.418C154.983 615.166 154.265 615.04 153.434 615.04C152.603 615.04 151.885 615.166 151.278 615.418C150.671 615.661 150.368 616.001 150.368 616.44C150.368 616.729 150.447 616.963 150.606 617.14C150.765 617.308 150.993 617.448 151.292 617.56C151.591 617.663 152.062 617.803 152.706 617.98C153.481 618.195 153.999 618.344 154.26 618.428C154.409 618.475 154.769 618.577 155.338 618.736C156.038 618.913 156.579 619.081 156.962 619.24C157.345 619.399 157.662 619.641 157.914 619.968C158.166 620.295 158.292 620.738 158.292 621.298C158.292 621.905 158.068 622.423 157.62 622.852C157.172 623.272 156.589 623.594 155.87 623.818C155.151 624.033 154.381 624.14 153.56 624.14C152.739 624.14 151.964 624.033 151.236 623.818C150.517 623.594 149.934 623.272 149.486 622.852C149.038 622.423 148.814 621.905 148.814 621.298C148.814 620.841 148.973 620.463 149.29 620.164C149.607 619.865 149.999 619.627 150.466 619.45C150.942 619.263 151.595 619.049 152.426 618.806C152.753 618.722 152.967 618.661 153.07 618.624L153.28 618.82Z" fill="#F4F4F6"/>
<path d="M151.866 640.5C151.481 641.167 150.519 641.167 150.134 640.5L146.67 634.5C146.285 633.833 146.766 633 147.536 633H154.464C155.234 633 155.715 633.833 155.33 634.5L151.866 640.5Z" fill="#131313"/>
<path d="M24 740C24 731.163 31.1634 724 40 724H335C343.837 724 351 731.163 351 740V764C351 772.837 343.837 780 335 780H40C31.1635 780 24 772.837 24 764V740Z" fill="#131313"/>
<path d="M157.199 760L161.899 746H164.559L159.859 760H157.199ZM166.919 746L171.999 760H169.339L164.259 746H166.919ZM160.099 755.28V753.84H168.159V755.28H160.099ZM176.24 750V764H173.84V750H176.24ZM185.9 754.94C185.9 756.033 185.66 756.98 185.18 757.78C184.7 758.567 184.073 759.167 183.3 759.58C182.527 759.993 181.707 760.2 180.84 760.2C180.013 760.2 179.233 760.007 178.5 759.62C177.78 759.233 177.2 758.647 176.76 757.86C176.32 757.073 176.1 756.12 176.1 755C176.1 753.88 176.32 752.933 176.76 752.16C177.213 751.387 177.807 750.807 178.54 750.42C179.273 750.033 180.06 749.84 180.9 749.84C181.753 749.84 182.56 750.04 183.32 750.44C184.093 750.84 184.713 751.427 185.18 752.2C185.66 752.96 185.9 753.873 185.9 754.94ZM183.9 754.94C183.9 754.353 183.713 753.847 183.34 753.42C182.98 752.98 182.5 752.647 181.9 752.42C181.3 752.193 180.667 752.08 180 752.08C179.36 752.08 178.753 752.193 178.18 752.42C177.62 752.633 177.167 752.96 176.82 753.4C176.473 753.84 176.3 754.373 176.3 755C176.3 755.92 176.653 756.627 177.36 757.12C178.067 757.613 178.92 757.86 179.92 757.86C180.587 757.86 181.227 757.747 181.84 757.52C182.453 757.28 182.947 756.94 183.32 756.5C183.707 756.06 183.9 755.54 183.9 754.94ZM190.146 750V764H187.746V750H190.146ZM199.806 754.94C199.806 756.033 199.566 756.98 199.086 757.78C198.606 758.567 197.98 759.167 197.206 759.58C196.433 759.993 195.613 760.2 194.746 760.2C193.92 760.2 193.14 760.007 192.406 759.62C191.686 759.233 191.106 758.647 190.666 757.86C190.226 757.073 190.006 756.12 190.006 755C190.006 753.88 190.226 752.933 190.666 752.16C191.12 751.387 191.713 750.807 192.446 750.42C193.18 750.033 193.966 749.84 194.806 749.84C195.66 749.84 196.466 750.04 197.226 750.44C198 750.84 198.62 751.427 199.086 752.2C199.566 752.96 199.806 753.873 199.806 754.94ZM197.806 754.94C197.806 754.353 197.62 753.847 197.246 753.42C196.886 752.98 196.406 752.647 195.806 752.42C195.206 752.193 194.573 752.08 193.906 752.08C193.266 752.08 192.66 752.193 192.086 752.42C191.526 752.633 191.073 752.96 190.726 753.4C190.38 753.84 190.206 754.373 190.206 755C190.206 755.92 190.56 756.627 191.266 757.12C191.973 757.613 192.826 757.86 193.826 757.86C194.493 757.86 195.133 757.747 195.746 757.52C196.36 757.28 196.853 756.94 197.226 756.5C197.613 756.06 197.806 755.54 197.806 754.94ZM201.652 760V746H204.052V760H201.652ZM209.995 764L214.975 750H217.795L212.815 764H209.995ZM209.295 758.5L205.695 749.98H208.655L212.135 758.5H209.295Z" fill="#F4F4F6"/>
<rect x="121" y="798" width="134" height="5" rx="2.5" fill="#131313"/>
</g>
<rect x="0.5" y="0.5" width="374" height="811" rx="31.5" stroke="#CACACA"/>
<defs>
<clipPath id="clip0_7380_44632">
<rect width="375" height="812" rx="32" fill="white"/>
</clipPath>
</defs>
</svg>
