<svg width="375" height="812" viewBox="0 0 375 812" fill="none" xmlns="http://www.w3.org/2000/svg">
<g clip-path="url(#clip0_7380_44521)">
<rect width="375" height="812" rx="32" fill="white"/>
<path opacity="0.35" d="M331.667 14.5029H348.333C349.53 14.5029 350.5 15.4733 350.5 16.6699V22.6699C350.5 23.8664 349.53 24.8359 348.333 24.8359H331.667C330.47 24.8359 329.5 23.8664 329.5 22.6699V16.6699L329.511 16.4482C329.622 15.3556 330.545 14.5029 331.667 14.5029Z" stroke="#131313"/>
<path opacity="0.4" d="M352 17.6699V21.6699C352.805 21.3311 353.328 20.5431 353.328 19.6699C353.328 18.7968 352.805 18.0087 352 17.6699Z" fill="#131313"/>
<path d="M331 17.1029C331 16.4954 331.492 16.0029 332.1 16.0029H347.9C348.508 16.0029 349 16.4954 349 17.1029V22.2363C349 22.8438 348.508 23.3363 347.9 23.3363H332.1C331.492 23.3363 331 22.8438 331 22.2363V17.1029Z" fill="#131313"/>
<path fill-rule="evenodd" clip-rule="evenodd" d="M316.331 16.2773C318.547 16.2774 320.678 17.1289 322.284 18.6557C322.405 18.7735 322.598 18.772 322.717 18.6523L323.873 17.4857C323.934 17.4249 323.967 17.3427 323.967 17.2571C323.966 17.1715 323.932 17.0897 323.871 17.0297C319.656 12.9901 313.006 12.9901 308.791 17.0297C308.73 17.0896 308.695 17.1715 308.694 17.257C308.694 17.3426 308.727 17.4249 308.788 17.4857L309.944 18.6523C310.063 18.7722 310.256 18.7737 310.377 18.6557C311.983 17.1288 314.115 16.2773 316.331 16.2773ZM316.331 20.073C317.548 20.0729 318.722 20.5255 319.625 21.3427C319.747 21.4586 319.939 21.4561 320.058 21.337L321.213 20.1703C321.274 20.1091 321.307 20.0261 321.307 19.9399C321.306 19.8536 321.27 19.7713 321.208 19.7113C318.46 17.1549 314.204 17.1549 311.456 19.7113C311.394 19.7713 311.358 19.8536 311.358 19.9399C311.357 20.0262 311.391 20.1092 311.452 20.1703L312.606 21.337C312.725 21.4561 312.917 21.4586 313.039 21.3427C313.941 20.526 315.114 20.0735 316.331 20.073ZM318.644 22.6268C318.646 22.7133 318.612 22.7967 318.55 22.8573L316.553 24.873C316.494 24.9322 316.414 24.9656 316.331 24.9656C316.248 24.9656 316.168 24.9322 316.109 24.873L314.112 22.8573C314.05 22.7967 314.016 22.7132 314.018 22.6267C314.02 22.5402 314.057 22.4583 314.121 22.4003C315.397 21.3214 317.265 21.3214 318.541 22.4003C318.605 22.4584 318.642 22.5403 318.644 22.6268Z" fill="#131313"/>
<path fill-rule="evenodd" clip-rule="evenodd" d="M302.667 14.3359H301.667C301.115 14.3359 300.667 14.7837 300.667 15.3359V24.0026C300.667 24.5549 301.115 25.0026 301.667 25.0026H302.667C303.219 25.0026 303.667 24.5549 303.667 24.0026V15.3359C303.667 14.7837 303.219 14.3359 302.667 14.3359ZM297 16.6693H298C298.553 16.6693 299 17.117 299 17.6693V24.0026C299 24.5549 298.553 25.0026 298 25.0026H297C296.448 25.0026 296 24.5549 296 24.0026V17.6693C296 17.117 296.448 16.6693 297 16.6693ZM293.334 19.0026H292.334C291.781 19.0026 291.334 19.4503 291.334 20.0026V24.0026C291.334 24.5549 291.781 25.0026 292.334 25.0026H293.334C293.886 25.0026 294.334 24.5549 294.334 24.0026V20.0026C294.334 19.4503 293.886 19.0026 293.334 19.0026ZM288.667 21.0026H287.667C287.115 21.0026 286.667 21.4503 286.667 22.0026V24.0026C286.667 24.5549 287.115 25.0026 287.667 25.0026H288.667C289.219 25.0026 289.667 24.5549 289.667 24.0026V22.0026C289.667 21.4503 289.219 21.0026 288.667 21.0026Z" fill="#131313"/>
<path d="M37.9428 14.9418C38.4648 14.9453 38.9726 15.0376 39.4662 15.2188C39.9634 15.3963 40.4108 15.6875 40.8085 16.0923C41.2063 16.4936 41.5223 17.0316 41.7567 17.7063C41.9911 18.381 42.1083 19.2156 42.1083 20.2099C42.1118 21.1474 42.0124 21.9854 41.81 22.7241C41.6111 23.4592 41.3252 24.0806 40.9524 24.5884C40.5795 25.0962 40.1303 25.4833 39.6047 25.7496C39.0791 26.016 38.4879 26.1491 37.8309 26.1491C37.142 26.1491 36.5312 26.0142 35.9985 25.7443C35.4694 25.4744 35.0415 25.1051 34.7148 24.6364C34.3881 24.1676 34.1875 23.6314 34.1129 23.0277H36.0571C36.1566 23.4609 36.359 23.8054 36.6644 24.0611C36.9733 24.3132 37.3622 24.4393 37.8309 24.4393C38.5873 24.4393 39.1697 24.1108 39.5781 23.4538C39.9865 22.7969 40.1907 21.8842 40.1907 20.7159H40.1161C39.9421 21.0284 39.7166 21.2983 39.4396 21.5256C39.1626 21.7493 38.8483 21.9215 38.4968 22.0423C38.1487 22.163 37.7794 22.2234 37.3888 22.2234C36.7496 22.2234 36.1743 22.0707 35.663 21.7653C35.1551 21.4599 34.7521 21.0408 34.4538 20.5082C34.159 19.9755 34.0099 19.3665 34.0063 18.6811C34.0063 17.9709 34.1697 17.3335 34.4964 16.7688C34.8267 16.2006 35.2865 15.7532 35.876 15.4265C36.4655 15.0962 37.1544 14.9347 37.9428 14.9418ZM37.9481 16.5398C37.5646 16.5398 37.2184 16.6339 36.9094 16.8221C36.604 17.0067 36.3625 17.2589 36.185 17.5785C36.011 17.8945 35.924 18.2479 35.924 18.6385C35.9275 19.0256 36.0145 19.3771 36.185 19.6932C36.359 20.0092 36.5951 20.2596 36.8934 20.4442C37.1953 20.6289 37.5397 20.7212 37.9268 20.7212C38.2144 20.7212 38.4826 20.6662 38.7311 20.5561C38.9797 20.446 39.1963 20.2933 39.381 20.098C39.5692 19.8991 39.7148 19.6737 39.8178 19.4215C39.9243 19.1694 39.9758 18.9031 39.9723 18.6225C39.9723 18.2496 39.8835 17.9052 39.7059 17.5891C39.5319 17.2731 39.2922 17.0192 38.9868 16.8274C38.685 16.6357 38.3387 16.5398 37.9481 16.5398ZM44.5912 24.6896C44.2681 24.6896 43.9911 24.576 43.7603 24.3487C43.5294 24.1179 43.4158 23.8409 43.4193 23.5178C43.4158 23.1982 43.5294 22.9247 43.7603 22.6974C43.9911 22.4702 44.2681 22.3565 44.5912 22.3565C44.9037 22.3565 45.1754 22.4702 45.4062 22.6974C45.6406 22.9247 45.7595 23.1982 45.7631 23.5178C45.7595 23.7344 45.7027 23.9315 45.5926 24.109C45.4861 24.2866 45.3441 24.4286 45.1665 24.5352C44.9925 24.6381 44.8007 24.6896 44.5912 24.6896ZM44.5912 19.283C44.2681 19.283 43.9911 19.1694 43.7603 18.9421C43.5294 18.7113 43.4158 18.4343 43.4193 18.1112C43.4158 17.7915 43.5294 17.5181 43.7603 17.2908C43.9911 17.06 44.2681 16.9446 44.5912 16.9446C44.9037 16.9446 45.1754 17.06 45.4062 17.2908C45.6406 17.5181 45.7595 17.7915 45.7631 18.1112C45.7595 18.3242 45.7027 18.5195 45.5926 18.6971C45.4861 18.8746 45.3441 19.0167 45.1665 19.1232C44.9925 19.2298 44.8007 19.283 44.5912 19.283ZM47.0356 23.9759V22.4045L51.6645 15.0909H52.9748V17.3281H52.1758L49.0597 22.266V22.3512H55.521V23.9759H47.0356ZM52.2397 26V23.4964L52.2611 22.7933V15.0909H54.1254V26H52.2397ZM61.0135 15.0909V26H59.0373V17.0138H58.9734L56.4219 18.6438V16.8327L59.1332 15.0909H61.0135Z" fill="#131313"/>
<rect x="121" y="798" width="134" height="5" rx="2.5" fill="#131313"/>
<path fill-rule="evenodd" clip-rule="evenodd" d="M42.1003 61.3994C42.3932 61.6923 42.3932 62.1671 42.1003 62.46L36.5607 67.9997L42.1003 73.5394C42.3932 73.8322 42.3932 74.3071 42.1003 74.6C41.8074 74.8929 41.3326 74.8929 41.0397 74.6L34.9697 68.53C34.829 68.3894 34.75 68.1986 34.75 67.9997C34.75 67.8008 34.829 67.61 34.9697 67.4694L41.0397 61.3994C41.3326 61.1065 41.8074 61.1065 42.1003 61.3994Z" fill="#131313"/>
<path fill-rule="evenodd" clip-rule="evenodd" d="M34.9199 68C34.9199 67.5858 35.2557 67.25 35.6699 67.25H52.4999C52.9141 67.25 53.2499 67.5858 53.2499 68C53.2499 68.4142 52.9141 68.75 52.4999 68.75H35.6699C35.2557 68.75 34.9199 68.4142 34.9199 68Z" fill="#131313"/>
<path d="M154.867 71.06C155.387 71.9 156.193 72.54 157.287 72.98C158.393 73.42 159.547 73.64 160.747 73.64C161.827 73.64 162.733 73.4733 163.467 73.14C164.2 72.7933 164.567 72.3267 164.567 71.74C164.567 71.3267 164.387 71.0133 164.027 70.8C163.667 70.5733 163.213 70.42 162.667 70.34C162.12 70.2467 161.347 70.16 160.347 70.08C158.867 69.9733 157.647 69.82 156.687 69.62C155.727 69.42 154.9 69.0133 154.207 68.4C153.527 67.7733 153.187 66.8667 153.187 65.68C153.187 64.9333 153.467 64.2733 154.027 63.7C154.6 63.1133 155.353 62.66 156.287 62.34C157.22 62.0067 158.22 61.84 159.287 61.84C160.713 61.84 162.053 62.14 163.307 62.74C164.56 63.34 165.54 64.2467 166.247 65.46L164.067 66.76C163.56 65.9467 162.86 65.3533 161.967 64.98C161.073 64.6067 160.127 64.42 159.127 64.42C158.513 64.42 157.94 64.48 157.407 64.6C156.873 64.72 156.44 64.88 156.107 65.08C155.787 65.28 155.627 65.48 155.627 65.68C155.627 66.04 155.793 66.32 156.127 66.52C156.473 66.7067 156.9 66.84 157.407 66.92C157.927 67 158.66 67.08 159.607 67.16C161.127 67.28 162.38 67.4467 163.367 67.66C164.353 67.8733 165.207 68.3 165.927 68.94C166.647 69.5667 167.007 70.5 167.007 71.74C167.007 72.6867 166.707 73.5 166.107 74.18C165.52 74.8467 164.733 75.3533 163.747 75.7C162.773 76.0467 161.713 76.22 160.567 76.22C158.94 76.22 157.4 75.8933 155.947 75.24C154.507 74.5867 153.433 73.6533 152.727 72.44L154.867 71.06ZM168.84 76V66H171.24V76H168.84ZM170.04 65.44C169.68 65.44 169.393 65.2667 169.18 64.92C168.98 64.56 168.88 64.14 168.88 63.66C168.88 63.18 168.98 62.7667 169.18 62.42C169.393 62.0733 169.68 61.9 170.04 61.9C170.413 61.9 170.7 62.0733 170.9 62.42C171.1 62.7667 171.2 63.18 171.2 63.66C171.2 64.1533 171.1 64.5733 170.9 64.92C170.7 65.2667 170.413 65.44 170.04 65.44ZM175.578 76.4C175.938 76.7467 176.465 77.0333 177.158 77.26C177.852 77.5 178.565 77.62 179.298 77.62C180.458 77.62 181.425 77.3067 182.198 76.68C182.972 76.0533 183.358 75.06 183.358 73.7V66H185.758V73.7C185.758 75.02 185.452 76.1533 184.838 77.1C184.225 78.06 183.412 78.78 182.398 79.26C181.385 79.7533 180.292 80 179.118 80C178.198 80 177.292 79.84 176.398 79.52C175.518 79.2133 174.725 78.76 174.018 78.16L175.578 76.4ZM173.078 70.92C173.078 69.8133 173.325 68.8667 173.818 68.08C174.312 67.2933 174.958 66.7 175.758 66.3C176.558 65.9 177.412 65.7 178.318 65.7C179.225 65.7 180.078 65.9 180.878 66.3C181.678 66.7 182.325 67.2933 182.818 68.08C183.312 68.8667 183.558 69.8133 183.558 70.92C183.558 72.04 183.312 73 182.818 73.8C182.325 74.5867 181.678 75.18 180.878 75.58C180.078 75.98 179.225 76.18 178.318 76.18C177.412 76.18 176.558 75.98 175.758 75.58C174.958 75.18 174.312 74.5867 173.818 73.8C173.325 73 173.078 72.04 173.078 70.92ZM175.078 70.92C175.078 71.5467 175.272 72.0867 175.658 72.54C176.058 72.98 176.572 73.3133 177.198 73.54C177.838 73.7667 178.512 73.88 179.218 73.88C179.938 73.88 180.612 73.7667 181.238 73.54C181.878 73.3133 182.392 72.98 182.778 72.54C183.165 72.0867 183.358 71.5467 183.358 70.92C183.358 70.32 183.165 69.8067 182.778 69.38C182.392 68.94 181.878 68.6133 181.238 68.4C180.612 68.1733 179.938 68.06 179.218 68.06C178.512 68.06 177.838 68.1733 177.198 68.4C176.572 68.6133 176.058 68.94 175.658 69.38C175.272 69.8067 175.078 70.32 175.078 70.92ZM187.59 75.98V66H189.99V68.5C190.47 67.6333 191.117 66.9667 191.93 66.5C192.743 66.02 193.597 65.78 194.49 65.78C195.277 65.78 195.997 65.96 196.65 66.32C197.317 66.68 197.85 67.22 198.25 67.94C198.663 68.66 198.87 69.5333 198.87 70.56V76H196.47V71.26C196.47 70.46 196.297 69.7467 195.95 69.12C195.617 68.48 195.177 67.9867 194.63 67.64C194.097 67.2933 193.543 67.12 192.97 67.12C192.437 67.12 191.943 67.28 191.49 67.6C191.037 67.92 190.67 68.42 190.39 69.1C190.123 69.7667 189.99 70.6 189.99 71.6V75.98H187.59ZM206.711 76V62H209.151V76H206.711ZM210.988 75.98V66H213.388V68.5C213.868 67.6333 214.515 66.9667 215.328 66.5C216.142 66.02 216.995 65.78 217.888 65.78C218.675 65.78 219.395 65.96 220.048 66.32C220.715 66.68 221.248 67.22 221.648 67.94C222.062 68.66 222.268 69.5333 222.268 70.56V76H219.868V71.26C219.868 70.46 219.695 69.7467 219.348 69.12C219.015 68.48 218.575 67.9867 218.028 67.64C217.495 67.2933 216.942 67.12 216.368 67.12C215.835 67.12 215.342 67.28 214.888 67.6C214.435 67.92 214.068 68.42 213.788 69.1C213.522 69.7667 213.388 70.6 213.388 71.6V75.98H210.988Z" fill="#131313"/>
<path d="M28.352 247.408C27.3387 246.501 26.48 245.333 25.776 243.904C25.0827 242.475 24.736 240.917 24.736 239.232C24.736 237.557 25.0827 236.005 25.776 234.576C26.48 233.136 27.3333 231.947 28.336 231.008L28.72 231.392C27.7493 232.299 26.9333 233.435 26.272 234.8C25.6107 236.165 25.28 237.643 25.28 239.232C25.28 240.843 25.6107 242.32 26.272 243.664C26.9333 245.008 27.744 246.117 28.704 246.992L28.352 247.408ZM33.8851 244V236H35.1011V244H33.8851ZM39.0051 240.528H30.1891V239.312H39.0051V240.528ZM45.5744 238.08C44.433 238.421 43.5104 238.859 42.8064 239.392C42.1024 239.915 41.7504 240.421 41.7504 240.912C41.7504 241.36 41.9424 241.744 42.3264 242.064C42.721 242.384 43.233 242.629 43.8624 242.8C44.5024 242.96 45.1797 243.04 45.8944 243.04C46.609 243.04 47.281 242.96 47.9104 242.8C48.5397 242.629 49.0464 242.384 49.4304 242.064C49.825 241.744 50.0224 241.36 50.0224 240.912C50.0224 240.571 49.9424 240.304 49.7824 240.112C49.633 239.92 49.4197 239.771 49.1424 239.664C48.865 239.557 48.4277 239.424 47.8304 239.264C47.2544 239.115 46.7477 238.976 46.3104 238.848C46.0437 238.763 45.5637 238.624 44.8704 238.432C43.9104 238.176 43.1744 237.947 42.6624 237.744C42.161 237.541 41.7504 237.253 41.4304 236.88C41.121 236.507 40.9664 236 40.9664 235.36C40.9664 234.784 41.1904 234.293 41.6384 233.888C42.097 233.472 42.689 233.163 43.4144 232.96C44.1504 232.747 44.929 232.64 45.7504 232.64C46.5824 232.64 47.361 232.747 48.0864 232.96C48.8224 233.163 49.4144 233.472 49.8624 233.888C50.3104 234.293 50.5344 234.784 50.5344 235.36C50.5344 235.861 50.3744 236.261 50.0544 236.56C49.745 236.859 49.3557 237.088 48.8864 237.248C48.417 237.397 47.7557 237.563 46.9024 237.744L46.1984 237.888L45.9264 237.664C46.9397 237.44 47.745 237.115 48.3424 236.688C48.9504 236.261 49.2544 235.819 49.2544 235.36C49.2544 234.859 48.9077 234.469 48.2144 234.192C47.521 233.904 46.6997 233.76 45.7504 233.76C44.801 233.76 43.9797 233.904 43.2864 234.192C42.593 234.469 42.2464 234.859 42.2464 235.36C42.2464 235.691 42.337 235.957 42.5184 236.16C42.6997 236.352 42.961 236.512 43.3024 236.64C43.6437 236.757 44.1824 236.917 44.9184 237.12C45.8037 237.365 46.3957 237.536 46.6944 237.632C46.865 237.685 47.2757 237.803 47.9264 237.984C48.7264 238.187 49.345 238.379 49.7824 238.56C50.2197 238.741 50.5824 239.019 50.8704 239.392C51.1584 239.765 51.3024 240.272 51.3024 240.912C51.3024 241.605 51.0464 242.197 50.5344 242.688C50.0224 243.168 49.3557 243.536 48.5344 243.792C47.713 244.037 46.833 244.16 45.8944 244.16C44.9557 244.16 44.0704 244.037 43.2384 243.792C42.417 243.536 41.7504 243.168 41.2384 242.688C40.7264 242.197 40.4704 241.605 40.4704 240.912C40.4704 240.389 40.6517 239.957 41.0144 239.616C41.377 239.275 41.825 239.003 42.3584 238.8C42.9024 238.587 43.649 238.341 44.5984 238.064C44.9717 237.968 45.217 237.899 45.3344 237.856L45.5744 238.08ZM59.9993 237.888V244H58.7193V237.888H59.9993ZM57.7433 232.8H59.5193L52.7673 240.56V238.656L57.7433 232.8ZM62.0793 241.68H52.7673V240.4H62.0793V241.68ZM63.5645 246.992C64.5245 246.117 65.3352 245.008 65.9965 243.664C66.6578 242.32 66.9885 240.843 66.9885 239.232C66.9885 237.643 66.6578 236.165 65.9965 234.8C65.3352 233.435 64.5192 232.299 63.5485 231.392L63.9325 231.008C64.9352 231.947 65.7832 233.136 66.4765 234.576C67.1805 236.005 67.5325 237.557 67.5325 239.232C67.5325 240.917 67.1805 242.475 66.4765 243.904C65.7832 245.333 64.9298 246.501 63.9165 247.408L63.5645 246.992Z" fill="#131313"/>
<path fill-rule="evenodd" clip-rule="evenodd" d="M77.1959 236.333C77.6388 235.89 78.3616 235.89 78.8045 236.333L81.5212 239.05C81.6432 239.172 81.6432 239.37 81.5212 239.492C81.3991 239.614 81.2013 239.614 81.0792 239.492L78.3626 236.775C78.1638 236.576 77.8366 236.576 77.6378 236.775L74.9212 239.492C74.7991 239.614 74.6013 239.614 74.4792 239.492C74.3572 239.37 74.3572 239.172 74.4792 239.05L77.1959 236.333Z" fill="#131313"/>
<path d="M99 226V250" stroke="#131313" stroke-linecap="round"/>
<path d="M24 260H351" stroke="#53556B" stroke-width="1.5" stroke-linecap="round"/>
<g opacity="0.3">
<path d="M24 344C24 335.163 31.1634 328 40 328H335C343.837 328 351 335.163 351 344V368C351 376.837 343.837 384 335 384H40C31.1635 384 24 376.837 24 368V344Z" fill="#131313"/>
<path d="M155.937 359.14C155.203 360.82 154.097 362.087 152.617 362.94C151.15 363.78 149.543 364.2 147.797 364.2C146.357 364.2 144.99 363.92 143.697 363.36C142.417 362.787 141.377 361.98 140.577 360.94C139.79 359.887 139.397 358.667 139.397 357.28C139.397 355.747 139.783 354.413 140.557 353.28C141.33 352.147 142.343 351.287 143.597 350.7C144.863 350.1 146.21 349.8 147.637 349.8C149.37 349.8 150.983 350.247 152.477 351.14C153.983 352.02 155.137 353.32 155.937 355.04L153.677 356.14C153.09 354.967 152.237 354.08 151.117 353.48C150.01 352.867 148.817 352.56 147.537 352.56C146.537 352.56 145.597 352.747 144.717 353.12C143.85 353.493 143.15 354.04 142.617 354.76C142.097 355.467 141.837 356.307 141.837 357.28C141.837 358.08 142.117 358.8 142.677 359.44C143.25 360.067 143.997 360.56 144.917 360.92C145.85 361.28 146.823 361.46 147.837 361.46C149.09 361.46 150.243 361.18 151.297 360.62C152.35 360.047 153.143 359.187 153.677 358.04L155.937 359.14ZM167.815 359C167.815 358.387 167.622 357.86 167.235 357.42C166.862 356.98 166.369 356.653 165.755 356.44C165.142 356.213 164.489 356.1 163.795 356.1C163.102 356.1 162.449 356.213 161.835 356.44C161.222 356.653 160.722 356.98 160.335 357.42C159.962 357.86 159.775 358.387 159.775 359C159.775 359.6 159.962 360.12 160.335 360.56C160.722 360.987 161.222 361.313 161.835 361.54C162.449 361.753 163.102 361.86 163.795 361.86C164.489 361.86 165.142 361.753 165.755 361.54C166.369 361.313 166.862 360.987 167.235 360.56C167.622 360.12 167.815 359.6 167.815 359ZM169.815 359C169.815 360.107 169.529 361.053 168.955 361.84C168.395 362.613 167.655 363.2 166.735 363.6C165.815 364 164.835 364.2 163.795 364.2C162.755 364.2 161.775 364 160.855 363.6C159.935 363.2 159.189 362.613 158.615 361.84C158.055 361.053 157.775 360.107 157.775 359C157.775 357.893 158.055 356.953 158.615 356.18C159.189 355.393 159.935 354.8 160.855 354.4C161.775 354 162.755 353.8 163.795 353.8C164.835 353.8 165.815 354 166.735 354.4C167.655 354.8 168.395 355.393 168.955 356.18C169.529 356.953 169.815 357.893 169.815 359ZM171.662 363.98V354H174.062V356.5C174.542 355.633 175.189 354.967 176.002 354.5C176.816 354.02 177.669 353.78 178.562 353.78C179.349 353.78 180.069 353.96 180.722 354.32C181.389 354.68 181.922 355.22 182.322 355.94C182.736 356.66 182.942 357.533 182.942 358.56V364H180.542V359.26C180.542 358.46 180.369 357.747 180.022 357.12C179.689 356.48 179.249 355.987 178.702 355.64C178.169 355.293 177.616 355.12 177.042 355.12C176.509 355.12 176.016 355.28 175.562 355.6C175.109 355.92 174.742 356.42 174.462 357.1C174.196 357.767 174.062 358.6 174.062 359.6V363.98H171.662ZM191.717 364H185.377V350.4H187.777V361.84H191.717V364ZM191.057 355.44H184.397V354H191.057V355.44ZM193.557 364V354H195.957V364H193.557ZM194.757 353.44C194.397 353.44 194.11 353.267 193.897 352.92C193.697 352.56 193.597 352.14 193.597 351.66C193.597 351.18 193.697 350.767 193.897 350.42C194.11 350.073 194.397 349.9 194.757 349.9C195.13 349.9 195.417 350.073 195.617 350.42C195.817 350.767 195.917 351.18 195.917 351.66C195.917 352.153 195.817 352.573 195.617 352.92C195.417 353.267 195.13 353.44 194.757 353.44ZM197.795 363.98V354H200.195V356.5C200.675 355.633 201.322 354.967 202.135 354.5C202.948 354.02 203.802 353.78 204.695 353.78C205.482 353.78 206.202 353.96 206.855 354.32C207.522 354.68 208.055 355.22 208.455 355.94C208.868 356.66 209.075 357.533 209.075 358.56V364H206.675V359.26C206.675 358.46 206.502 357.747 206.155 357.12C205.822 356.48 205.382 355.987 204.835 355.64C204.302 355.293 203.748 355.12 203.175 355.12C202.642 355.12 202.148 355.28 201.695 355.6C201.242 355.92 200.875 356.42 200.595 357.1C200.328 357.767 200.195 358.6 200.195 359.6V363.98H197.795ZM220.06 364V361.54C219.487 362.367 218.767 363.02 217.9 363.5C217.033 363.98 216.16 364.22 215.28 364.22C214.48 364.22 213.747 364.007 213.08 363.58C212.427 363.14 211.9 362.453 211.5 361.52C211.113 360.573 210.92 359.387 210.92 357.96V354H213.32V357.96C213.32 358.867 213.46 359.64 213.74 360.28C214.033 360.92 214.42 361.4 214.9 361.72C215.38 362.04 215.893 362.2 216.44 362.2C217.053 362.2 217.633 362.007 218.18 361.62C218.74 361.22 219.193 360.64 219.54 359.88C219.887 359.107 220.06 358.18 220.06 357.1V354H222.46V364H220.06ZM235.599 360.88C234.932 361.987 234.099 362.82 233.099 363.38C232.099 363.94 231.046 364.22 229.939 364.22C228.952 364.22 228.026 364.007 227.159 363.58C226.306 363.153 225.612 362.553 225.079 361.78C224.559 360.993 224.299 360.087 224.299 359.06C224.299 357.94 224.572 356.987 225.119 356.2C225.679 355.4 226.399 354.807 227.279 354.42C228.159 354.02 229.099 353.82 230.099 353.82C231.046 353.82 231.932 354 232.759 354.36C233.599 354.707 234.272 355.22 234.779 355.9C235.286 356.58 235.539 357.393 235.539 358.34C235.539 358.58 235.519 358.833 235.479 359.1H225.099V358.3H233.259C233.099 357.553 232.712 356.98 232.099 356.58C231.486 356.18 230.786 355.98 229.999 355.98C229.372 355.98 228.772 356.107 228.199 356.36C227.639 356.6 227.179 356.953 226.819 357.42C226.472 357.887 226.299 358.433 226.299 359.06C226.299 359.647 226.459 360.167 226.779 360.62C227.099 361.06 227.526 361.407 228.059 361.66C228.606 361.9 229.186 362.02 229.799 362.02C230.546 362.02 231.259 361.833 231.939 361.46C232.619 361.087 233.186 360.52 233.639 359.76L235.599 360.88Z" fill="#F4F4F6"/>
</g>
<rect x="135.5" y="712.5" width="43" height="43" rx="21.5" stroke="#6C6D80"/>
<path d="M159.423 729.868C159.024 729.868 158.649 729.93 158.299 730.054C157.948 730.171 157.632 730.291 157.351 730.415C157.069 730.539 156.821 730.601 156.608 730.601C156.388 730.601 156.141 730.542 155.866 730.426C155.598 730.309 155.309 730.195 155 730.085C154.691 729.968 154.361 729.91 154.01 729.91C153.351 729.91 152.711 730.092 152.093 730.456C151.481 730.814 150.979 731.347 150.588 732.055C150.196 732.757 150 733.627 150 734.665C150 735.635 150.162 736.598 150.485 737.554C150.814 738.503 151.21 739.308 151.67 739.968C152.069 740.525 152.457 741.003 152.835 741.402C153.213 741.801 153.653 742 154.155 742C154.485 742 154.77 741.945 155.01 741.835C155.258 741.725 155.515 741.615 155.784 741.505C156.058 741.395 156.399 741.34 156.804 741.34C157.223 741.34 157.557 741.395 157.804 741.505C158.052 741.608 158.292 741.715 158.526 741.825C158.759 741.928 159.058 741.979 159.423 741.979C159.966 741.979 160.43 741.773 160.814 741.36C161.206 740.948 161.57 740.497 161.907 740.009C162.292 739.445 162.567 738.933 162.732 738.472C162.904 738.011 162.993 737.767 163 737.74C162.986 737.733 162.869 737.671 162.649 737.554C162.436 737.437 162.189 737.255 161.907 737.007C161.632 736.753 161.388 736.419 161.175 736.006C160.969 735.594 160.866 735.092 160.866 734.5C160.866 733.985 160.948 733.541 161.113 733.17C161.278 732.791 161.471 732.482 161.691 732.241C161.911 731.994 162.11 731.808 162.289 731.684C162.467 731.553 162.567 731.478 162.588 731.457C162.23 730.941 161.832 730.573 161.392 730.353C160.959 730.126 160.56 729.989 160.196 729.941C159.832 729.893 159.574 729.868 159.423 729.868ZM158.856 728.558C159.103 728.256 159.306 727.912 159.464 727.527C159.622 727.135 159.701 726.732 159.701 726.32C159.701 726.196 159.691 726.089 159.67 726C159.271 726.014 158.852 726.134 158.412 726.361C157.973 726.588 157.608 726.873 157.32 727.217C157.093 727.472 156.89 727.795 156.711 728.187C156.533 728.572 156.443 728.971 156.443 729.384C156.443 729.446 156.447 729.504 156.454 729.559C156.46 729.614 156.467 729.652 156.474 729.672C156.543 729.686 156.615 729.693 156.691 729.693C157.055 729.693 157.44 729.587 157.845 729.373C158.251 729.153 158.588 728.882 158.856 728.558Z" fill="#131313"/>
<rect x="195.5" y="712.5" width="43" height="43" rx="21.5" stroke="#6C6D80"/>
<path d="M224 734.156C224 733.58 223.952 733.16 223.849 732.725H217.143V735.322H221.079C221 735.968 220.571 736.94 219.619 737.593L219.605 737.68L221.726 739.29L221.873 739.305C223.222 738.083 224 736.287 224 734.156Z" fill="#131313"/>
<path d="M217.143 741C219.071 741 220.69 740.378 221.873 739.305L219.619 737.594C219.016 738.006 218.206 738.294 217.143 738.294C215.254 738.294 213.651 737.073 213.079 735.385L212.995 735.392L210.791 737.064L210.762 737.143C211.936 739.429 214.349 741 217.143 741Z" fill="#131313"/>
<path d="M213.079 735.384C212.929 734.948 212.841 734.482 212.841 734C212.841 733.517 212.929 733.051 213.071 732.615L213.067 732.522L210.835 730.823L210.762 730.857C210.278 731.806 210 732.872 210 734C210 735.127 210.278 736.193 210.762 737.142L213.079 735.384Z" fill="#131313"/>
<path d="M217.143 729.707C218.484 729.707 219.389 730.274 219.905 730.749L221.92 728.82C220.682 727.692 219.071 727 217.143 727C214.349 727 211.936 728.571 210.762 730.858L213.071 732.616C213.651 730.928 215.254 729.707 217.143 729.707Z" fill="#131313"/>
<path d="M28 688H128" stroke="#6C6D80" stroke-width="0.5" stroke-linecap="round"/>
<path d="M137.925 688.824C137.925 687.904 138.137 687.116 138.561 686.46C138.993 685.804 139.557 685.312 140.253 684.984C140.957 684.648 141.701 684.48 142.485 684.48C143.269 684.48 144.009 684.648 144.705 684.984C145.409 685.312 145.973 685.804 146.397 686.46C146.829 687.116 147.045 687.904 147.045 688.824C147.045 689.736 146.829 690.52 146.397 691.176C145.973 691.824 145.409 692.312 144.705 692.64C144.009 692.968 143.269 693.132 142.485 693.132C141.701 693.132 140.957 692.968 140.253 692.64C139.557 692.312 138.993 691.824 138.561 691.176C138.137 690.52 137.925 689.736 137.925 688.824ZM138.969 688.824C138.969 689.504 139.133 690.084 139.461 690.564C139.797 691.044 140.233 691.408 140.769 691.656C141.305 691.896 141.877 692.016 142.485 692.016C143.093 692.016 143.665 691.896 144.201 691.656C144.737 691.408 145.169 691.044 145.497 690.564C145.833 690.084 146.001 689.504 146.001 688.824C146.001 688.136 145.833 687.548 145.497 687.06C145.169 686.572 144.737 686.204 144.201 685.956C143.665 685.708 143.093 685.584 142.485 685.584C141.877 685.584 141.305 685.708 140.769 685.956C140.233 686.204 139.797 686.572 139.461 687.06C139.133 687.548 138.969 688.136 138.969 688.824ZM148.144 693V687H149.164V689.64C149.38 688.864 149.724 688.208 150.196 687.672C150.676 687.136 151.316 686.868 152.116 686.868C152.22 686.868 152.4 686.884 152.656 686.916V688.164C152.216 688.052 151.808 687.996 151.432 687.996C150.76 687.996 150.26 688.196 149.932 688.596C149.612 688.988 149.404 689.524 149.308 690.204C149.22 690.884 149.172 691.816 149.164 693H148.144ZM162.469 689.1C162.117 688.732 161.725 688.456 161.293 688.272C160.869 688.088 160.437 687.996 159.997 687.996C159.581 687.996 159.197 688.08 158.845 688.248C158.501 688.408 158.225 688.64 158.017 688.944C157.817 689.248 157.717 689.608 157.717 690.024C157.717 690.44 157.821 690.8 158.029 691.104C158.245 691.4 158.529 691.628 158.881 691.788C159.233 691.94 159.617 692.016 160.033 692.016C160.537 692.016 161.021 691.904 161.485 691.68C161.957 691.448 162.345 691.112 162.649 690.672L163.345 691.104C162.961 691.752 162.457 692.248 161.833 692.592C161.217 692.936 160.573 693.108 159.901 693.108C159.341 693.108 158.821 692.992 158.341 692.76C157.861 692.52 157.477 692.168 157.189 691.704C156.901 691.232 156.757 690.672 156.757 690.024C156.757 689.376 156.901 688.816 157.189 688.344C157.485 687.864 157.877 687.5 158.365 687.252C158.861 687.004 159.393 686.88 159.961 686.88C160.537 686.88 161.105 687.012 161.665 687.276C162.233 687.54 162.725 687.928 163.141 688.44L162.469 689.1ZM170.345 690C170.345 689.568 170.221 689.2 169.973 688.896C169.725 688.592 169.397 688.364 168.989 688.212C168.589 688.06 168.157 687.984 167.693 687.984C167.237 687.984 166.805 688.06 166.397 688.212C165.997 688.364 165.669 688.596 165.413 688.908C165.165 689.212 165.041 689.576 165.041 690C165.041 690.432 165.165 690.8 165.413 691.104C165.669 691.408 165.997 691.64 166.397 691.8C166.805 691.952 167.237 692.028 167.693 692.028C168.157 692.028 168.589 691.952 168.989 691.8C169.397 691.64 169.725 691.408 169.973 691.104C170.221 690.8 170.345 690.432 170.345 690ZM171.305 690C171.305 690.664 171.133 691.232 170.789 691.704C170.453 692.168 170.009 692.52 169.457 692.76C168.905 693 168.317 693.12 167.693 693.12C167.069 693.12 166.481 693 165.929 692.76C165.377 692.52 164.929 692.168 164.585 691.704C164.249 691.232 164.081 690.664 164.081 690C164.081 689.336 164.249 688.772 164.585 688.308C164.929 687.836 165.377 687.48 165.929 687.24C166.481 687 167.069 686.88 167.693 686.88C168.317 686.88 168.905 687 169.457 687.24C170.009 687.48 170.453 687.836 170.789 688.308C171.133 688.772 171.305 689.336 171.305 690ZM172.413 692.988V687H173.433V689.724C173.601 689.132 173.853 688.624 174.189 688.2C174.525 687.776 174.901 687.456 175.317 687.24C175.733 687.016 176.149 686.904 176.565 686.904C176.957 686.904 177.313 687.004 177.633 687.204C177.961 687.404 178.221 687.708 178.413 688.116C178.605 688.516 178.701 689.008 178.701 689.592V693H177.681V689.592C177.681 689.104 177.521 688.716 177.201 688.428C176.881 688.14 176.485 687.996 176.013 687.996C175.613 687.996 175.225 688.108 174.849 688.332C174.473 688.556 174.153 688.904 173.889 689.376C173.633 689.84 173.481 690.412 173.433 691.092V692.988H172.413ZM183.365 693H180.161V684.84H181.181V692.016H183.365V693ZM182.969 687.48H179.573V687H182.969V687.48ZM184.472 693V687H185.492V693H184.472ZM184.976 686.544C184.832 686.544 184.716 686.476 184.628 686.34C184.548 686.196 184.508 686.028 184.508 685.836C184.508 685.644 184.548 685.48 184.628 685.344C184.716 685.208 184.832 685.14 184.976 685.14C185.12 685.14 185.232 685.208 185.312 685.344C185.4 685.48 185.444 685.644 185.444 685.836C185.444 686.028 185.4 686.196 185.312 686.34C185.232 686.476 185.12 686.544 184.976 686.544ZM186.593 692.988V687H187.613V689.724C187.781 689.132 188.033 688.624 188.369 688.2C188.705 687.776 189.081 687.456 189.497 687.24C189.913 687.016 190.329 686.904 190.745 686.904C191.137 686.904 191.493 687.004 191.813 687.204C192.141 687.404 192.401 687.708 192.593 688.116C192.785 688.516 192.881 689.008 192.881 689.592V693H191.861V689.592C191.861 689.104 191.701 688.716 191.381 688.428C191.061 688.14 190.665 687.996 190.193 687.996C189.793 687.996 189.405 688.108 189.029 688.332C188.653 688.556 188.333 688.904 188.069 689.376C187.813 689.84 187.661 690.412 187.613 691.092V692.988H186.593ZM199.412 693V690.252C199.26 690.82 199.016 691.324 198.68 691.764C198.352 692.196 197.98 692.532 197.564 692.772C197.148 693.004 196.732 693.12 196.316 693.12C195.892 693.12 195.504 692.988 195.152 692.724C194.8 692.46 194.516 692.048 194.3 691.488C194.092 690.928 193.988 690.224 193.988 689.376V687H195.008V689.376C195.008 690.024 195.1 690.576 195.284 691.032C195.468 691.48 195.708 691.816 196.004 692.04C196.308 692.264 196.64 692.376 197 692.376C197.4 692.376 197.784 692.236 198.152 691.956C198.528 691.668 198.832 691.248 199.064 690.696C199.296 690.144 199.412 689.492 199.412 688.74V687H200.432V693H199.412ZM208.278 691.272C207.902 691.888 207.418 692.352 206.826 692.664C206.242 692.976 205.626 693.132 204.978 693.132C204.378 693.132 203.814 693.008 203.286 692.76C202.758 692.504 202.334 692.14 202.014 691.668C201.694 691.196 201.534 690.652 201.534 690.036C201.534 689.364 201.698 688.792 202.026 688.32C202.354 687.84 202.778 687.484 203.298 687.252C203.826 687.012 204.39 686.892 204.99 686.892C205.566 686.892 206.11 687.004 206.622 687.228C207.134 687.444 207.546 687.768 207.858 688.2C208.17 688.624 208.326 689.132 208.326 689.724C208.326 689.884 208.314 690.048 208.29 690.216H201.894V689.856H207.426C207.354 689.256 207.074 688.796 206.586 688.476C206.106 688.156 205.546 687.996 204.906 687.996C204.474 687.996 204.062 688.076 203.67 688.236C203.286 688.388 202.974 688.62 202.734 688.932C202.494 689.236 202.374 689.604 202.374 690.036C202.374 690.42 202.494 690.764 202.734 691.068C202.982 691.364 203.302 691.596 203.694 691.764C204.094 691.924 204.518 692.004 204.966 692.004C205.446 692.004 205.906 691.904 206.346 691.704C206.786 691.496 207.154 691.184 207.45 690.768L208.278 691.272ZM216.943 687H218.011L216.667 693H215.635L216.943 687ZM222.895 687L221.299 693H220.231L221.779 687H222.895ZM219.283 693L217.939 687H218.935L220.291 693H219.283ZM213.031 687H214.147L215.695 693H214.687L213.031 687ZM223.882 693V687H224.902V693H223.882ZM224.386 686.544C224.242 686.544 224.126 686.476 224.038 686.34C223.958 686.196 223.918 686.028 223.918 685.836C223.918 685.644 223.958 685.48 224.038 685.344C224.126 685.208 224.242 685.14 224.386 685.14C224.53 685.14 224.642 685.208 224.722 685.344C224.81 685.48 224.854 685.644 224.854 685.836C224.854 686.028 224.81 686.196 224.722 686.34C224.642 686.476 224.53 686.544 224.386 686.544ZM229.678 693H226.474V684.84H227.494V692.016H229.678V693ZM229.282 687.48H225.886V687H229.282V687.48ZM236.052 689.592C236.052 689.104 235.892 688.716 235.572 688.428C235.252 688.14 234.856 687.996 234.384 687.996C233.984 687.996 233.596 688.108 233.22 688.332C232.844 688.556 232.524 688.904 232.26 689.376C232.004 689.84 231.852 690.412 231.804 691.092V692.988H230.784V684.6H231.804V689.724C231.972 689.132 232.224 688.624 232.56 688.2C232.896 687.776 233.272 687.456 233.688 687.24C234.104 687.016 234.52 686.904 234.936 686.904C235.328 686.904 235.684 687.004 236.004 687.204C236.332 687.404 236.592 687.708 236.784 688.116C236.976 688.516 237.072 689.008 237.072 689.592V693H236.052V689.592Z" fill="#6C6D80"/>
<path d="M247 688H347" stroke="#6C6D80" stroke-width="0.5" stroke-linecap="round"/>
<path d="M38.38 144.02H24.92V130H38.38V132.56H27.36V135.66H37.24V137.1H27.36V141.42H38.38V144.02ZM40.213 143.98V134H42.613V136.5C43.093 135.633 43.7396 134.967 44.553 134.5C45.3663 134.02 46.2196 133.78 47.113 133.78C47.8996 133.78 48.6196 133.96 49.273 134.32C49.9396 134.68 50.473 135.22 50.873 135.94C51.2863 136.66 51.493 137.533 51.493 138.56V144H49.093V139.26C49.093 138.46 48.9196 137.747 48.573 137.12C48.2396 136.48 47.7996 135.987 47.253 135.64C46.7196 135.293 46.1663 135.12 45.593 135.12C45.0596 135.12 44.5663 135.28 44.113 135.6C43.6596 135.92 43.293 136.42 43.013 137.1C42.7463 137.767 42.613 138.6 42.613 139.6V143.98H40.213ZM60.2673 144H53.9273V130.4H56.3273V141.84H60.2673V144ZM59.6073 135.44H52.9473V134H59.6073V135.44ZM72.2161 140.88C71.5494 141.987 70.7161 142.82 69.7161 143.38C68.7161 143.94 67.6628 144.22 66.5561 144.22C65.5694 144.22 64.6428 144.007 63.7761 143.58C62.9228 143.153 62.2294 142.553 61.6961 141.78C61.1761 140.993 60.9161 140.087 60.9161 139.06C60.9161 137.94 61.1894 136.987 61.7361 136.2C62.2961 135.4 63.0161 134.807 63.8961 134.42C64.7761 134.02 65.7161 133.82 66.7161 133.82C67.6628 133.82 68.5494 134 69.3761 134.36C70.2161 134.707 70.8894 135.22 71.3961 135.9C71.9028 136.58 72.1561 137.393 72.1561 138.34C72.1561 138.58 72.1361 138.833 72.0961 139.1H61.7161V138.3H69.8761C69.7161 137.553 69.3294 136.98 68.7161 136.58C68.1028 136.18 67.4028 135.98 66.6161 135.98C65.9894 135.98 65.3894 136.107 64.8161 136.36C64.2561 136.6 63.7961 136.953 63.4361 137.42C63.0894 137.887 62.9161 138.433 62.9161 139.06C62.9161 139.647 63.0761 140.167 63.3961 140.62C63.7161 141.06 64.1428 141.407 64.6761 141.66C65.2228 141.9 65.8028 142.02 66.4161 142.02C67.1628 142.02 67.8761 141.833 68.5561 141.46C69.2361 141.087 69.8028 140.52 70.2561 139.76L72.2161 140.88ZM74.0606 144V134H76.4606V136.82C77.5273 134.793 79.0673 133.78 81.0806 133.78C81.5206 133.78 81.954 133.827 82.3806 133.92V136.86C80.9006 136.46 79.8073 136.26 79.1006 136.26C78.2473 136.26 77.634 136.507 77.2606 137C76.9006 137.493 76.674 138.233 76.5806 139.22C76.5006 140.207 76.4606 141.8 76.4606 144H74.0606ZM93.5169 148L98.4969 134H101.317L96.3369 148H93.5169ZM92.8169 142.5L89.2169 133.98H92.1769L95.6569 142.5H92.8169ZM111.796 139C111.796 138.387 111.603 137.86 111.216 137.42C110.843 136.98 110.349 136.653 109.736 136.44C109.123 136.213 108.469 136.1 107.776 136.1C107.083 136.1 106.429 136.213 105.816 136.44C105.203 136.653 104.703 136.98 104.316 137.42C103.943 137.86 103.756 138.387 103.756 139C103.756 139.6 103.943 140.12 104.316 140.56C104.703 140.987 105.203 141.313 105.816 141.54C106.429 141.753 107.083 141.86 107.776 141.86C108.469 141.86 109.123 141.753 109.736 141.54C110.349 141.313 110.843 140.987 111.216 140.56C111.603 140.12 111.796 139.6 111.796 139ZM113.796 139C113.796 140.107 113.509 141.053 112.936 141.84C112.376 142.613 111.636 143.2 110.716 143.6C109.796 144 108.816 144.2 107.776 144.2C106.736 144.2 105.756 144 104.836 143.6C103.916 143.2 103.169 142.613 102.596 141.84C102.036 141.053 101.756 140.107 101.756 139C101.756 137.893 102.036 136.953 102.596 136.18C103.169 135.393 103.916 134.8 104.836 134.4C105.756 134 106.736 133.8 107.776 133.8C108.816 133.8 109.796 134 110.716 134.4C111.636 134.8 112.376 135.393 112.936 136.18C113.509 136.953 113.796 137.893 113.796 139ZM124.783 144V141.54C124.209 142.367 123.489 143.02 122.623 143.5C121.756 143.98 120.883 144.22 120.003 144.22C119.203 144.22 118.469 144.007 117.803 143.58C117.149 143.14 116.623 142.453 116.223 141.52C115.836 140.573 115.643 139.387 115.643 137.96V134H118.043V137.96C118.043 138.867 118.183 139.64 118.463 140.28C118.756 140.92 119.143 141.4 119.623 141.72C120.103 142.04 120.616 142.2 121.163 142.2C121.776 142.2 122.356 142.007 122.903 141.62C123.463 141.22 123.916 140.64 124.263 139.88C124.609 139.107 124.783 138.18 124.783 137.1V134H127.183V144H124.783ZM129.022 144V134H131.422V136.82C132.488 134.793 134.028 133.78 136.042 133.78C136.482 133.78 136.915 133.827 137.342 133.92V136.86C135.862 136.46 134.768 136.26 134.062 136.26C133.208 136.26 132.595 136.507 132.222 137C131.862 137.493 131.635 138.233 131.542 139.22C131.462 140.207 131.422 141.8 131.422 144H129.022ZM146.578 134V148H144.178V134H146.578ZM156.238 138.94C156.238 140.033 155.998 140.98 155.518 141.78C155.038 142.567 154.411 143.167 153.638 143.58C152.864 143.993 152.044 144.2 151.178 144.2C150.351 144.2 149.571 144.007 148.838 143.62C148.118 143.233 147.538 142.647 147.098 141.86C146.658 141.073 146.438 140.12 146.438 139C146.438 137.88 146.658 136.933 147.098 136.16C147.551 135.387 148.144 134.807 148.878 134.42C149.611 134.033 150.398 133.84 151.238 133.84C152.091 133.84 152.898 134.04 153.658 134.44C154.431 134.84 155.051 135.427 155.518 136.2C155.998 136.96 156.238 137.873 156.238 138.94ZM154.238 138.94C154.238 138.353 154.051 137.847 153.678 137.42C153.318 136.98 152.838 136.647 152.238 136.42C151.638 136.193 151.004 136.08 150.338 136.08C149.698 136.08 149.091 136.193 148.518 136.42C147.958 136.633 147.504 136.96 147.158 137.4C146.811 137.84 146.638 138.373 146.638 139C146.638 139.92 146.991 140.627 147.698 141.12C148.404 141.613 149.258 141.86 150.258 141.86C150.924 141.86 151.564 141.747 152.178 141.52C152.791 141.28 153.284 140.94 153.658 140.5C154.044 140.06 154.238 139.54 154.238 138.94ZM166.564 138.32C166.564 137.733 166.411 137.193 166.104 136.7C165.797 136.207 165.397 135.82 164.904 135.54C164.424 135.247 163.924 135.1 163.404 135.1C162.644 135.1 161.984 135.427 161.424 136.08C160.877 136.72 160.564 137.7 160.484 139.02V143.98H158.084V130H160.484V136.4C161.084 135.573 161.784 134.94 162.584 134.5C163.397 134.06 164.211 133.84 165.024 133.84C165.744 133.84 166.404 134.027 167.004 134.4C167.604 134.76 168.077 135.307 168.424 136.04C168.784 136.773 168.964 137.667 168.964 138.72V144H166.564V138.32ZM180.839 139C180.839 138.387 180.646 137.86 180.259 137.42C179.886 136.98 179.392 136.653 178.779 136.44C178.166 136.213 177.512 136.1 176.819 136.1C176.126 136.1 175.472 136.213 174.859 136.44C174.246 136.653 173.746 136.98 173.359 137.42C172.986 137.86 172.799 138.387 172.799 139C172.799 139.6 172.986 140.12 173.359 140.56C173.746 140.987 174.246 141.313 174.859 141.54C175.472 141.753 176.126 141.86 176.819 141.86C177.512 141.86 178.166 141.753 178.779 141.54C179.392 141.313 179.886 140.987 180.259 140.56C180.646 140.12 180.839 139.6 180.839 139ZM182.839 139C182.839 140.107 182.552 141.053 181.979 141.84C181.419 142.613 180.679 143.2 179.759 143.6C178.839 144 177.859 144.2 176.819 144.2C175.779 144.2 174.799 144 173.879 143.6C172.959 143.2 172.212 142.613 171.639 141.84C171.079 141.053 170.799 140.107 170.799 139C170.799 137.893 171.079 136.953 171.639 136.18C172.212 135.393 172.959 134.8 173.879 134.4C174.799 134 175.779 133.8 176.819 133.8C177.859 133.8 178.839 134 179.759 134.4C180.679 134.8 181.419 135.393 181.979 136.18C182.552 136.953 182.839 137.893 182.839 139ZM184.686 143.98V134H187.086V136.5C187.566 135.633 188.212 134.967 189.026 134.5C189.839 134.02 190.692 133.78 191.586 133.78C192.372 133.78 193.092 133.96 193.746 134.32C194.412 134.68 194.946 135.22 195.346 135.94C195.759 136.66 195.966 137.533 195.966 138.56V144H193.566V139.26C193.566 138.46 193.392 137.747 193.046 137.12C192.712 136.48 192.272 135.987 191.726 135.64C191.192 135.293 190.639 135.12 190.066 135.12C189.532 135.12 189.039 135.28 188.586 135.6C188.132 135.92 187.766 136.42 187.486 137.1C187.219 137.767 187.086 138.6 187.086 139.6V143.98H184.686ZM209.111 140.88C208.444 141.987 207.611 142.82 206.611 143.38C205.611 143.94 204.557 144.22 203.451 144.22C202.464 144.22 201.537 144.007 200.671 143.58C199.817 143.153 199.124 142.553 198.591 141.78C198.071 140.993 197.811 140.087 197.811 139.06C197.811 137.94 198.084 136.987 198.631 136.2C199.191 135.4 199.911 134.807 200.791 134.42C201.671 134.02 202.611 133.82 203.611 133.82C204.557 133.82 205.444 134 206.271 134.36C207.111 134.707 207.784 135.22 208.291 135.9C208.797 136.58 209.051 137.393 209.051 138.34C209.051 138.58 209.031 138.833 208.991 139.1H198.611V138.3H206.771C206.611 137.553 206.224 136.98 205.611 136.58C204.997 136.18 204.297 135.98 203.511 135.98C202.884 135.98 202.284 136.107 201.711 136.36C201.151 136.6 200.691 136.953 200.331 137.42C199.984 137.887 199.811 138.433 199.811 139.06C199.811 139.647 199.971 140.167 200.291 140.62C200.611 141.06 201.037 141.407 201.571 141.66C202.117 141.9 202.697 142.02 203.311 142.02C204.057 142.02 204.771 141.833 205.451 141.46C206.131 141.087 206.697 140.52 207.151 139.76L209.111 140.88ZM216.951 143.98V134H219.351V136.5C219.831 135.633 220.478 134.967 221.291 134.5C222.105 134.02 222.958 133.78 223.851 133.78C224.638 133.78 225.358 133.96 226.011 134.32C226.678 134.68 227.211 135.22 227.611 135.94C228.025 136.66 228.231 137.533 228.231 138.56V144H225.831V139.26C225.831 138.46 225.658 137.747 225.311 137.12C224.978 136.48 224.538 135.987 223.991 135.64C223.458 135.293 222.905 135.12 222.331 135.12C221.798 135.12 221.305 135.28 220.851 135.6C220.398 135.92 220.031 136.42 219.751 137.1C219.485 137.767 219.351 138.6 219.351 139.6V143.98H216.951ZM239.216 144V141.54C238.643 142.367 237.923 143.02 237.056 143.5C236.19 143.98 235.316 144.22 234.436 144.22C233.636 144.22 232.903 144.007 232.236 143.58C231.583 143.14 231.056 142.453 230.656 141.52C230.27 140.573 230.076 139.387 230.076 137.96V134H232.476V137.96C232.476 138.867 232.616 139.64 232.896 140.28C233.19 140.92 233.576 141.4 234.056 141.72C234.536 142.04 235.05 142.2 235.596 142.2C236.21 142.2 236.79 142.007 237.336 141.62C237.896 141.22 238.35 140.64 238.696 139.88C239.043 139.107 239.216 138.18 239.216 137.1V134H241.616V144H239.216ZM243.455 143.98V134H245.855V136.36C246.402 135.507 247.068 134.853 247.855 134.4C248.655 133.933 249.455 133.7 250.255 133.7C251.095 133.7 251.828 133.953 252.455 134.46C253.095 134.953 253.528 135.687 253.755 136.66C254.288 135.713 254.968 134.98 255.795 134.46C256.622 133.94 257.455 133.68 258.295 133.68C258.975 133.68 259.595 133.853 260.155 134.2C260.715 134.547 261.162 135.067 261.495 135.76C261.828 136.453 261.995 137.307 261.995 138.32V144H259.595V138.52C259.595 137.92 259.442 137.367 259.135 136.86C258.828 136.353 258.435 135.953 257.955 135.66C257.475 135.353 256.982 135.2 256.475 135.2C255.755 135.2 255.148 135.533 254.655 136.2C254.175 136.867 253.935 137.893 253.935 139.28V144H251.535V138.52C251.535 137.92 251.382 137.367 251.075 136.86C250.782 136.353 250.388 135.953 249.895 135.66C249.415 135.353 248.928 135.2 248.435 135.2C247.702 135.2 247.088 135.54 246.595 136.22C246.102 136.9 245.855 137.94 245.855 139.34V143.98H243.455ZM263.826 144V130.2H266.226V144H263.826ZM273.926 139.02C273.926 138.42 273.74 137.9 273.366 137.46C272.993 137.007 272.506 136.667 271.906 136.44C271.306 136.213 270.666 136.1 269.986 136.1C269.333 136.1 268.72 136.213 268.146 136.44C267.573 136.653 267.106 136.98 266.746 137.42C266.4 137.847 266.226 138.373 266.226 139C266.226 139.613 266.406 140.14 266.766 140.58C267.14 141.007 267.62 141.333 268.206 141.56C268.793 141.773 269.42 141.88 270.086 141.88C270.753 141.88 271.38 141.773 271.966 141.56C272.553 141.333 273.026 141.007 273.386 140.58C273.746 140.14 273.926 139.62 273.926 139.02ZM275.926 139C275.926 140.093 275.686 141.033 275.206 141.82C274.74 142.593 274.12 143.18 273.346 143.58C272.586 143.967 271.773 144.16 270.906 144.16C270.053 144.16 269.253 143.967 268.506 143.58C267.773 143.193 267.173 142.613 266.706 141.84C266.253 141.053 266.026 140.107 266.026 139C266.026 137.893 266.253 136.953 266.706 136.18C267.173 135.393 267.773 134.807 268.506 134.42C269.253 134.033 270.053 133.84 270.906 133.84C271.773 133.84 272.586 134.04 273.346 134.44C274.12 134.827 274.74 135.413 275.206 136.2C275.686 136.973 275.926 137.907 275.926 139ZM288.876 140.88C288.21 141.987 287.376 142.82 286.376 143.38C285.376 143.94 284.323 144.22 283.216 144.22C282.23 144.22 281.303 144.007 280.436 143.58C279.583 143.153 278.89 142.553 278.356 141.78C277.836 140.993 277.576 140.087 277.576 139.06C277.576 137.94 277.85 136.987 278.396 136.2C278.956 135.4 279.676 134.807 280.556 134.42C281.436 134.02 282.376 133.82 283.376 133.82C284.323 133.82 285.21 134 286.036 134.36C286.876 134.707 287.55 135.22 288.056 135.9C288.563 136.58 288.816 137.393 288.816 138.34C288.816 138.58 288.796 138.833 288.756 139.1H278.376V138.3H286.536C286.376 137.553 285.99 136.98 285.376 136.58C284.763 136.18 284.063 135.98 283.276 135.98C282.65 135.98 282.05 136.107 281.476 136.36C280.916 136.6 280.456 136.953 280.096 137.42C279.75 137.887 279.576 138.433 279.576 139.06C279.576 139.647 279.736 140.167 280.056 140.62C280.376 141.06 280.803 141.407 281.336 141.66C281.883 141.9 282.463 142.02 283.076 142.02C283.823 142.02 284.536 141.833 285.216 141.46C285.896 141.087 286.463 140.52 286.916 139.76L288.876 140.88ZM290.721 144V134H293.121V136.82C294.187 134.793 295.727 133.78 297.741 133.78C298.181 133.78 298.614 133.827 299.041 133.92V136.86C297.561 136.46 296.467 136.26 295.761 136.26C294.907 136.26 294.294 136.507 293.921 137C293.561 137.493 293.334 138.233 293.241 139.22C293.161 140.207 293.121 141.8 293.121 144H290.721Z" fill="#131313"/>
<path d="M33.506 172.014H24.644V162.2H33.506V163.348H25.862V166.092H32.708V166.68H25.862V170.866H33.506V172.014ZM34.7885 171.986V165H35.9785V168.178C36.1745 167.487 36.4685 166.895 36.8605 166.4C37.2525 165.905 37.6912 165.532 38.1765 165.28C38.6619 165.019 39.1472 164.888 39.6325 164.888C40.0899 164.888 40.5052 165.005 40.8785 165.238C41.2612 165.471 41.5645 165.826 41.7885 166.302C42.0125 166.769 42.1245 167.343 42.1245 168.024V172H40.9345V168.024C40.9345 167.455 40.7479 167.002 40.3745 166.666C40.0012 166.33 39.5392 166.162 38.9885 166.162C38.5219 166.162 38.0692 166.293 37.6305 166.554C37.1919 166.815 36.8185 167.221 36.5105 167.772C36.2119 168.313 36.0345 168.981 35.9785 169.774V171.986H34.7885ZM47.566 172H43.828V162.48H45.018V170.852H47.566V172ZM47.104 165.56H43.142V165H47.104V165.56ZM55.8909 169.984C55.4522 170.703 54.8876 171.244 54.1969 171.608C53.5156 171.972 52.7969 172.154 52.0409 172.154C51.3409 172.154 50.6829 172.009 50.0669 171.72C49.4509 171.421 48.9562 170.997 48.5829 170.446C48.2096 169.895 48.0229 169.261 48.0229 168.542C48.0229 167.758 48.2142 167.091 48.5969 166.54C48.9796 165.98 49.4742 165.565 50.0809 165.294C50.6969 165.014 51.3549 164.874 52.0549 164.874C52.7269 164.874 53.3616 165.005 53.9589 165.266C54.5562 165.518 55.0369 165.896 55.4009 166.4C55.7649 166.895 55.9469 167.487 55.9469 168.178C55.9469 168.365 55.9329 168.556 55.9049 168.752H48.4429V168.332H54.8969C54.8129 167.632 54.4862 167.095 53.9169 166.722C53.3569 166.349 52.7036 166.162 51.9569 166.162C51.4529 166.162 50.9722 166.255 50.5149 166.442C50.0669 166.619 49.7029 166.89 49.4229 167.254C49.1429 167.609 49.0029 168.038 49.0029 168.542C49.0029 168.99 49.1429 169.391 49.4229 169.746C49.7122 170.091 50.0856 170.362 50.5429 170.558C51.0096 170.745 51.5042 170.838 52.0269 170.838C52.5869 170.838 53.1236 170.721 53.6369 170.488C54.1502 170.245 54.5796 169.881 54.9249 169.396L55.8909 169.984ZM57.2378 172V165H58.4278V168.08C58.6798 167.175 59.0811 166.409 59.6318 165.784C60.1918 165.159 60.9384 164.846 61.8718 164.846C61.9931 164.846 62.2031 164.865 62.5018 164.902V166.358C61.9884 166.227 61.5124 166.162 61.0738 166.162C60.2898 166.162 59.7064 166.395 59.3238 166.862C58.9504 167.319 58.7078 167.945 58.5958 168.738C58.4931 169.531 58.4371 170.619 58.4278 172H57.2378ZM69.9466 174.8L73.9366 165H75.2666L71.2766 174.8H69.9466ZM70.3526 170.95L67.2866 164.986H68.6586L71.6546 170.95H70.3526ZM82.8797 168.5C82.8797 167.996 82.7351 167.567 82.4457 167.212C82.1564 166.857 81.7737 166.591 81.2977 166.414C80.8311 166.237 80.3271 166.148 79.7857 166.148C79.2537 166.148 78.7497 166.237 78.2737 166.414C77.8071 166.591 77.4244 166.862 77.1257 167.226C76.8364 167.581 76.6917 168.005 76.6917 168.5C76.6917 169.004 76.8364 169.433 77.1257 169.788C77.4244 170.143 77.8071 170.413 78.2737 170.6C78.7497 170.777 79.2537 170.866 79.7857 170.866C80.3271 170.866 80.8311 170.777 81.2977 170.6C81.7737 170.413 82.1564 170.143 82.4457 169.788C82.7351 169.433 82.8797 169.004 82.8797 168.5ZM83.9997 168.5C83.9997 169.275 83.7991 169.937 83.3977 170.488C83.0057 171.029 82.4877 171.44 81.8437 171.72C81.1997 172 80.5137 172.14 79.7857 172.14C79.0577 172.14 78.3717 172 77.7277 171.72C77.0837 171.44 76.5611 171.029 76.1597 170.488C75.7677 169.937 75.5717 169.275 75.5717 168.5C75.5717 167.725 75.7677 167.067 76.1597 166.526C76.5611 165.975 77.0837 165.56 77.7277 165.28C78.3717 165 79.0577 164.86 79.7857 164.86C80.5137 164.86 81.1997 165 81.8437 165.28C82.4877 165.56 83.0057 165.975 83.3977 166.526C83.7991 167.067 83.9997 167.725 83.9997 168.5ZM91.6204 172V168.794C91.4431 169.457 91.1584 170.045 90.7664 170.558C90.3838 171.062 89.9498 171.454 89.4644 171.734C88.9791 172.005 88.4938 172.14 88.0084 172.14C87.5138 172.14 87.0611 171.986 86.6504 171.678C86.2398 171.37 85.9084 170.889 85.6564 170.236C85.4138 169.583 85.2924 168.761 85.2924 167.772V165H86.4824V167.772C86.4824 168.528 86.5898 169.172 86.8044 169.704C87.0191 170.227 87.2991 170.619 87.6444 170.88C87.9991 171.141 88.3864 171.272 88.8064 171.272C89.2731 171.272 89.7211 171.109 90.1504 170.782C90.5891 170.446 90.9438 169.956 91.2144 169.312C91.4851 168.668 91.6204 167.907 91.6204 167.03V165H92.8104V172H91.6204ZM94.0971 172V165H95.2871V168.08C95.5391 167.175 95.9405 166.409 96.4911 165.784C97.0511 165.159 97.7978 164.846 98.7311 164.846C98.8525 164.846 99.0625 164.865 99.3611 164.902V166.358C98.8478 166.227 98.3718 166.162 97.9331 166.162C97.1491 166.162 96.5658 166.395 96.1831 166.862C95.8098 167.319 95.5671 167.945 95.4551 168.738C95.3525 169.531 95.2965 170.619 95.2871 172H94.0971ZM105.266 165V174.8H104.146V165H105.266ZM112.028 168.458C112.028 169.223 111.855 169.886 111.51 170.446C111.174 170.997 110.726 171.417 110.166 171.706C109.615 171.995 109.032 172.14 108.416 172.14C107.819 172.14 107.263 172.005 106.75 171.734C106.237 171.463 105.821 171.057 105.504 170.516C105.187 169.965 105.028 169.293 105.028 168.5C105.028 167.716 105.187 167.053 105.504 166.512C105.831 165.961 106.255 165.551 106.778 165.28C107.301 165.009 107.861 164.874 108.458 164.874C109.074 164.874 109.653 165.014 110.194 165.294C110.745 165.574 111.188 165.985 111.524 166.526C111.86 167.067 112.028 167.711 112.028 168.458ZM110.908 168.458C110.908 167.963 110.777 167.539 110.516 167.184C110.255 166.829 109.909 166.563 109.48 166.386C109.06 166.209 108.607 166.12 108.122 166.12C107.637 166.12 107.179 166.213 106.75 166.4C106.321 166.577 105.971 166.848 105.7 167.212C105.439 167.567 105.308 167.996 105.308 168.5C105.308 169.013 105.429 169.447 105.672 169.802C105.924 170.157 106.251 170.423 106.652 170.6C107.063 170.768 107.506 170.852 107.982 170.852C108.477 170.852 108.948 170.759 109.396 170.572C109.844 170.385 110.208 170.11 110.488 169.746C110.768 169.382 110.908 168.953 110.908 168.458ZM119.466 168.024C119.466 167.455 119.279 167.002 118.906 166.666C118.532 166.33 118.07 166.162 117.52 166.162C117.053 166.162 116.6 166.293 116.162 166.554C115.723 166.815 115.35 167.221 115.042 167.772C114.743 168.313 114.566 168.981 114.51 169.774V171.986H113.32V162.2H114.51V168.178C114.706 167.487 115 166.895 115.392 166.4C115.784 165.905 116.222 165.532 116.708 165.28C117.193 165.019 117.678 164.888 118.164 164.888C118.621 164.888 119.036 165.005 119.41 165.238C119.792 165.471 120.096 165.826 120.32 166.302C120.544 166.769 120.656 167.343 120.656 168.024V172H119.466V168.024ZM129.255 168.5C129.255 167.996 129.11 167.567 128.821 167.212C128.531 166.857 128.149 166.591 127.673 166.414C127.206 166.237 126.702 166.148 126.161 166.148C125.629 166.148 125.125 166.237 124.649 166.414C124.182 166.591 123.799 166.862 123.501 167.226C123.211 167.581 123.067 168.005 123.067 168.5C123.067 169.004 123.211 169.433 123.501 169.788C123.799 170.143 124.182 170.413 124.649 170.6C125.125 170.777 125.629 170.866 126.161 170.866C126.702 170.866 127.206 170.777 127.673 170.6C128.149 170.413 128.531 170.143 128.821 169.788C129.11 169.433 129.255 169.004 129.255 168.5ZM130.375 168.5C130.375 169.275 130.174 169.937 129.773 170.488C129.381 171.029 128.863 171.44 128.219 171.72C127.575 172 126.889 172.14 126.161 172.14C125.433 172.14 124.747 172 124.103 171.72C123.459 171.44 122.936 171.029 122.535 170.488C122.143 169.937 121.947 169.275 121.947 168.5C121.947 167.725 122.143 167.067 122.535 166.526C122.936 165.975 123.459 165.56 124.103 165.28C124.747 165 125.433 164.86 126.161 164.86C126.889 164.86 127.575 165 128.219 165.28C128.863 165.56 129.381 165.975 129.773 166.526C130.174 167.067 130.375 167.725 130.375 168.5ZM131.667 171.986V165H132.857V168.178C133.053 167.487 133.347 166.895 133.739 166.4C134.131 165.905 134.57 165.532 135.055 165.28C135.541 165.019 136.026 164.888 136.511 164.888C136.969 164.888 137.384 165.005 137.757 165.238C138.14 165.471 138.443 165.826 138.667 166.302C138.891 166.769 139.003 167.343 139.003 168.024V172H137.813V168.024C137.813 167.455 137.627 167.002 137.253 166.666C136.88 166.33 136.418 166.162 135.867 166.162C135.401 166.162 134.948 166.293 134.509 166.554C134.071 166.815 133.697 167.221 133.389 167.772C133.091 168.313 132.913 168.981 132.857 169.774V171.986H131.667ZM148.162 169.984C147.724 170.703 147.159 171.244 146.468 171.608C145.787 171.972 145.068 172.154 144.312 172.154C143.612 172.154 142.954 172.009 142.338 171.72C141.722 171.421 141.228 170.997 140.854 170.446C140.481 169.895 140.294 169.261 140.294 168.542C140.294 167.758 140.486 167.091 140.868 166.54C141.251 165.98 141.746 165.565 142.352 165.294C142.968 165.014 143.626 164.874 144.326 164.874C144.998 164.874 145.633 165.005 146.23 165.266C146.828 165.518 147.308 165.896 147.672 166.4C148.036 166.895 148.218 167.487 148.218 168.178C148.218 168.365 148.204 168.556 148.176 168.752H140.714V168.332H147.168C147.084 167.632 146.758 167.095 146.188 166.722C145.628 166.349 144.975 166.162 144.228 166.162C143.724 166.162 143.244 166.255 142.786 166.442C142.338 166.619 141.974 166.89 141.694 167.254C141.414 167.609 141.274 168.038 141.274 168.542C141.274 168.99 141.414 169.391 141.694 169.746C141.984 170.091 142.357 170.362 142.814 170.558C143.281 170.745 143.776 170.838 144.298 170.838C144.858 170.838 145.395 170.721 145.908 170.488C146.422 170.245 146.851 169.881 147.196 169.396L148.162 169.984ZM153.707 171.986V165H154.897V168.178C155.093 167.487 155.387 166.895 155.779 166.4C156.171 165.905 156.609 165.532 157.095 165.28C157.58 165.019 158.065 164.888 158.551 164.888C159.008 164.888 159.423 165.005 159.797 165.238C160.179 165.471 160.483 165.826 160.707 166.302C160.931 166.769 161.043 167.343 161.043 168.024V172H159.853V168.024C159.853 167.455 159.666 167.002 159.293 166.666C158.919 166.33 158.457 166.162 157.907 166.162C157.44 166.162 156.987 166.293 156.549 166.554C156.11 166.815 155.737 167.221 155.429 167.772C155.13 168.313 154.953 168.981 154.897 169.774V171.986H153.707ZM168.661 172V168.794C168.484 169.457 168.199 170.045 167.807 170.558C167.425 171.062 166.991 171.454 166.505 171.734C166.02 172.005 165.535 172.14 165.049 172.14C164.555 172.14 164.102 171.986 163.691 171.678C163.281 171.37 162.949 170.889 162.697 170.236C162.455 169.583 162.333 168.761 162.333 167.772V165H163.523V167.772C163.523 168.528 163.631 169.172 163.845 169.704C164.06 170.227 164.34 170.619 164.685 170.88C165.04 171.141 165.427 171.272 165.847 171.272C166.314 171.272 166.762 171.109 167.191 170.782C167.63 170.446 167.985 169.956 168.255 169.312C168.526 168.668 168.661 167.907 168.661 167.03V165H169.851V172H168.661ZM171.138 171.986V165H172.258V168.136C172.445 167.464 172.715 166.885 173.07 166.4C173.434 165.905 173.84 165.532 174.288 165.28C174.736 165.019 175.179 164.888 175.618 164.888C176.038 164.888 176.421 165.009 176.766 165.252C177.121 165.485 177.401 165.845 177.606 166.33C177.811 166.806 177.914 167.394 177.914 168.094C178.101 167.422 178.376 166.843 178.74 166.358C179.104 165.873 179.505 165.504 179.944 165.252C180.392 165 180.835 164.874 181.274 164.874C181.694 164.874 182.077 164.991 182.422 165.224C182.767 165.457 183.043 165.812 183.248 166.288C183.453 166.755 183.556 167.333 183.556 168.024V172H182.366V168.024C182.366 167.436 182.198 166.974 181.862 166.638C181.535 166.302 181.129 166.134 180.644 166.134C180.205 166.134 179.776 166.283 179.356 166.582C178.936 166.881 178.591 167.333 178.32 167.94C178.049 168.547 177.914 169.289 177.914 170.166V172H176.724V168.024C176.724 167.445 176.556 166.988 176.22 166.652C175.893 166.316 175.487 166.148 175.002 166.148C174.554 166.148 174.12 166.297 173.7 166.596C173.28 166.895 172.935 167.352 172.664 167.968C172.393 168.575 172.258 169.321 172.258 170.208V171.986H171.138ZM184.837 172V162.2H186.027V172H184.837ZM191.697 168.5C191.697 167.996 191.562 167.567 191.291 167.212C191.03 166.857 190.68 166.591 190.241 166.414C189.812 166.227 189.355 166.134 188.869 166.134C188.375 166.134 187.908 166.227 187.469 166.414C187.04 166.591 186.69 166.857 186.419 167.212C186.158 167.567 186.027 167.996 186.027 168.5C186.027 169.004 186.158 169.438 186.419 169.802C186.69 170.157 187.04 170.427 187.469 170.614C187.908 170.791 188.375 170.88 188.869 170.88C189.355 170.88 189.812 170.791 190.241 170.614C190.68 170.427 191.03 170.157 191.291 169.802C191.562 169.438 191.697 169.004 191.697 168.5ZM192.817 168.5C192.817 169.265 192.649 169.923 192.313 170.474C191.987 171.015 191.553 171.426 191.011 171.706C190.479 171.986 189.91 172.126 189.303 172.126C188.715 172.126 188.16 171.991 187.637 171.72C187.115 171.44 186.69 171.029 186.363 170.488C186.046 169.937 185.887 169.275 185.887 168.5C185.887 167.725 186.046 167.067 186.363 166.526C186.69 165.975 187.115 165.565 187.637 165.294C188.16 165.014 188.715 164.874 189.303 164.874C189.91 164.874 190.479 165.014 191.011 165.294C191.553 165.574 191.987 165.989 192.313 166.54C192.649 167.081 192.817 167.735 192.817 168.5ZM201.838 169.984C201.4 170.703 200.835 171.244 200.144 171.608C199.463 171.972 198.744 172.154 197.988 172.154C197.288 172.154 196.63 172.009 196.014 171.72C195.398 171.421 194.904 170.997 194.53 170.446C194.157 169.895 193.97 169.261 193.97 168.542C193.97 167.758 194.162 167.091 194.544 166.54C194.927 165.98 195.422 165.565 196.028 165.294C196.644 165.014 197.302 164.874 198.002 164.874C198.674 164.874 199.309 165.005 199.906 165.266C200.504 165.518 200.984 165.896 201.348 166.4C201.712 166.895 201.894 167.487 201.894 168.178C201.894 168.365 201.88 168.556 201.852 168.752H194.39V168.332H200.844C200.76 167.632 200.434 167.095 199.864 166.722C199.304 166.349 198.651 166.162 197.904 166.162C197.4 166.162 196.92 166.255 196.462 166.442C196.014 166.619 195.65 166.89 195.37 167.254C195.09 167.609 194.95 168.038 194.95 168.542C194.95 168.99 195.09 169.391 195.37 169.746C195.66 170.091 196.033 170.362 196.49 170.558C196.957 170.745 197.452 170.838 197.974 170.838C198.534 170.838 199.071 170.721 199.584 170.488C200.098 170.245 200.527 169.881 200.872 169.396L201.838 169.984ZM203.185 172V165H204.375V168.08C204.627 167.175 205.028 166.409 205.579 165.784C206.139 165.159 206.886 164.846 207.819 164.846C207.94 164.846 208.15 164.865 208.449 164.902V166.358C207.936 166.227 207.46 166.162 207.021 166.162C206.237 166.162 205.654 166.395 205.271 166.862C204.898 167.319 204.655 167.945 204.543 168.738C204.44 169.531 204.384 170.619 204.375 172H203.185ZM217.658 172H213.92V162.48H215.11V170.852H217.658V172ZM217.196 165.56H213.234V165H217.196V165.56ZM225.696 168.5C225.696 167.996 225.551 167.567 225.262 167.212C224.973 166.857 224.59 166.591 224.114 166.414C223.647 166.237 223.143 166.148 222.602 166.148C222.07 166.148 221.566 166.237 221.09 166.414C220.623 166.591 220.241 166.862 219.942 167.226C219.653 167.581 219.508 168.005 219.508 168.5C219.508 169.004 219.653 169.433 219.942 169.788C220.241 170.143 220.623 170.413 221.09 170.6C221.566 170.777 222.07 170.866 222.602 170.866C223.143 170.866 223.647 170.777 224.114 170.6C224.59 170.413 224.973 170.143 225.262 169.788C225.551 169.433 225.696 169.004 225.696 168.5ZM226.816 168.5C226.816 169.275 226.615 169.937 226.214 170.488C225.822 171.029 225.304 171.44 224.66 171.72C224.016 172 223.33 172.14 222.602 172.14C221.874 172.14 221.188 172 220.544 171.72C219.9 171.44 219.377 171.029 218.976 170.488C218.584 169.937 218.388 169.275 218.388 168.5C218.388 167.725 218.584 167.067 218.976 166.526C219.377 165.975 219.9 165.56 220.544 165.28C221.188 165 221.874 164.86 222.602 164.86C223.33 164.86 224.016 165 224.66 165.28C225.304 165.56 225.822 165.975 226.214 166.526C226.615 167.067 226.816 167.725 226.816 168.5ZM232.306 172V162.2H233.496V172H232.306ZM242.089 168.5C242.089 167.996 241.944 167.567 241.655 167.212C241.365 166.857 240.983 166.591 240.507 166.414C240.04 166.237 239.536 166.148 238.995 166.148C238.463 166.148 237.959 166.237 237.483 166.414C237.016 166.591 236.633 166.862 236.335 167.226C236.045 167.581 235.901 168.005 235.901 168.5C235.901 169.004 236.045 169.433 236.335 169.788C236.633 170.143 237.016 170.413 237.483 170.6C237.959 170.777 238.463 170.866 238.995 170.866C239.536 170.866 240.04 170.777 240.507 170.6C240.983 170.413 241.365 170.143 241.655 169.788C241.944 169.433 242.089 169.004 242.089 168.5ZM243.209 168.5C243.209 169.275 243.008 169.937 242.607 170.488C242.215 171.029 241.697 171.44 241.053 171.72C240.409 172 239.723 172.14 238.995 172.14C238.267 172.14 237.581 172 236.937 171.72C236.293 171.44 235.77 171.029 235.369 170.488C234.977 169.937 234.781 169.275 234.781 168.5C234.781 167.725 234.977 167.067 235.369 166.526C235.77 165.975 236.293 165.56 236.937 165.28C237.581 165 238.267 164.86 238.995 164.86C239.723 164.86 240.409 165 241.053 165.28C241.697 165.56 242.215 165.975 242.607 166.526C243.008 167.067 243.209 167.725 243.209 168.5ZM246.013 172.924C246.312 173.148 246.699 173.33 247.175 173.47C247.661 173.61 248.151 173.68 248.645 173.68C249.513 173.68 250.237 173.447 250.815 172.98C251.403 172.523 251.697 171.799 251.697 170.81V165H252.887V170.81C252.887 171.65 252.677 172.369 252.257 172.966C251.847 173.573 251.305 174.03 250.633 174.338C249.961 174.646 249.238 174.8 248.463 174.8C247.903 174.8 247.353 174.716 246.811 174.548C246.27 174.389 245.785 174.151 245.355 173.834L246.013 172.924ZM244.501 168.444C244.501 167.688 244.679 167.044 245.033 166.512C245.388 165.971 245.85 165.565 246.419 165.294C246.989 165.023 247.595 164.888 248.239 164.888C248.883 164.888 249.49 165.023 250.059 165.294C250.638 165.565 251.1 165.971 251.445 166.512C251.8 167.044 251.977 167.688 251.977 168.444C251.977 169.228 251.8 169.9 251.445 170.46C251.1 171.02 250.638 171.44 250.059 171.72C249.49 172 248.883 172.14 248.239 172.14C247.595 172.14 246.989 172 246.419 171.72C245.85 171.44 245.388 171.02 245.033 170.46C244.679 169.9 244.501 169.228 244.501 168.444ZM245.621 168.444C245.621 168.957 245.766 169.401 246.055 169.774C246.345 170.138 246.718 170.413 247.175 170.6C247.642 170.787 248.137 170.88 248.659 170.88C249.182 170.88 249.677 170.787 250.143 170.6C250.61 170.413 250.983 170.138 251.263 169.774C251.553 169.401 251.697 168.957 251.697 168.444C251.697 167.949 251.553 167.525 251.263 167.17C250.983 166.815 250.61 166.549 250.143 166.372C249.677 166.195 249.182 166.106 248.659 166.106C248.137 166.106 247.642 166.195 247.175 166.372C246.718 166.549 246.345 166.815 246.055 167.17C245.766 167.525 245.621 167.949 245.621 168.444ZM254.181 172V165H255.371V172H254.181ZM254.769 164.468C254.601 164.468 254.466 164.389 254.363 164.23C254.27 164.062 254.223 163.866 254.223 163.642C254.223 163.418 254.27 163.227 254.363 163.068C254.466 162.909 254.601 162.83 254.769 162.83C254.937 162.83 255.068 162.909 255.161 163.068C255.264 163.227 255.315 163.418 255.315 163.642C255.315 163.866 255.264 164.062 255.161 164.23C255.068 164.389 254.937 164.468 254.769 164.468ZM256.656 171.986V165H257.846V168.178C258.042 167.487 258.336 166.895 258.728 166.4C259.12 165.905 259.558 165.532 260.044 165.28C260.529 165.019 261.014 164.888 261.5 164.888C261.957 164.888 262.372 165.005 262.746 165.238C263.128 165.471 263.432 165.826 263.656 166.302C263.88 166.769 263.992 167.343 263.992 168.024V172H262.802V168.024C262.802 167.455 262.615 167.002 262.242 166.666C261.868 166.33 261.406 166.162 260.856 166.162C260.389 166.162 259.936 166.293 259.498 166.554C259.059 166.815 258.686 167.221 258.378 167.772C258.079 168.313 257.902 168.981 257.846 169.774V171.986H256.656ZM275.808 167.352C275.808 166.456 275.043 166.008 273.512 166.008C273.017 166.008 272.518 166.092 272.014 166.26C271.51 166.428 271.081 166.61 270.726 166.806C270.381 166.993 270.152 167.128 270.04 167.212V166.106C270.059 166.097 270.381 165.91 271.006 165.546C271.631 165.182 272.467 165 273.512 165C274.875 165 275.794 165.252 276.27 165.756C276.755 166.26 276.998 166.792 276.998 167.352V172H275.808V167.352ZM275.906 167.618C275.701 168.635 275.351 169.485 274.856 170.166C274.361 170.838 273.806 171.337 273.19 171.664C272.574 171.981 271.972 172.14 271.384 172.14C270.824 172.14 270.362 172 269.998 171.72C269.634 171.44 269.461 171.067 269.48 170.6C269.499 170.049 269.732 169.569 270.18 169.158C270.637 168.747 271.169 168.411 271.776 168.15C272.383 167.879 273.153 167.581 274.086 167.254C274.431 167.133 274.772 167.011 275.108 166.89C275.453 166.759 275.729 166.643 275.934 166.54L276.158 167.394C275.738 167.609 275.005 167.912 273.96 168.304C272.849 168.724 272.014 169.083 271.454 169.382C270.894 169.681 270.614 170.007 270.614 170.362C270.614 170.511 270.712 170.633 270.908 170.726C271.104 170.81 271.361 170.852 271.678 170.852C272.182 170.852 272.714 170.74 273.274 170.516C273.843 170.283 274.361 169.914 274.828 169.41C275.295 168.906 275.621 168.271 275.808 167.506L275.906 167.618ZM278.285 171.986V165H279.475V168.178C279.671 167.487 279.965 166.895 280.357 166.4C280.749 165.905 281.187 165.532 281.673 165.28C282.158 165.019 282.643 164.888 283.129 164.888C283.586 164.888 284.001 165.005 284.375 165.238C284.757 165.471 285.061 165.826 285.285 166.302C285.509 166.769 285.621 167.343 285.621 168.024V172H284.431V168.024C284.431 167.455 284.244 167.002 283.871 166.666C283.497 166.33 283.035 166.162 282.485 166.162C282.018 166.162 281.565 166.293 281.127 166.554C280.688 166.815 280.315 167.221 280.007 167.772C279.708 168.313 279.531 168.981 279.475 169.774V171.986H278.285ZM297.437 167.352C297.437 166.456 296.672 166.008 295.141 166.008C294.646 166.008 294.147 166.092 293.643 166.26C293.139 166.428 292.71 166.61 292.355 166.806C292.01 166.993 291.781 167.128 291.669 167.212V166.106C291.688 166.097 292.01 165.91 292.635 165.546C293.26 165.182 294.096 165 295.141 165C296.504 165 297.423 165.252 297.899 165.756C298.384 166.26 298.627 166.792 298.627 167.352V172H297.437V167.352ZM297.535 167.618C297.33 168.635 296.98 169.485 296.485 170.166C295.99 170.838 295.435 171.337 294.819 171.664C294.203 171.981 293.601 172.14 293.013 172.14C292.453 172.14 291.991 172 291.627 171.72C291.263 171.44 291.09 171.067 291.109 170.6C291.128 170.049 291.361 169.569 291.809 169.158C292.266 168.747 292.798 168.411 293.405 168.15C294.012 167.879 294.782 167.581 295.715 167.254C296.06 167.133 296.401 167.011 296.737 166.89C297.082 166.759 297.358 166.643 297.563 166.54L297.787 167.394C297.367 167.609 296.634 167.912 295.589 168.304C294.478 168.724 293.643 169.083 293.083 169.382C292.523 169.681 292.243 170.007 292.243 170.362C292.243 170.511 292.341 170.633 292.537 170.726C292.733 170.81 292.99 170.852 293.307 170.852C293.811 170.852 294.343 170.74 294.903 170.516C295.472 170.283 295.99 169.914 296.457 169.41C296.924 168.906 297.25 168.271 297.437 167.506L297.535 167.618ZM306.578 167.45C306.167 167.021 305.71 166.699 305.206 166.484C304.711 166.269 304.207 166.162 303.694 166.162C303.208 166.162 302.76 166.26 302.35 166.456C301.948 166.643 301.626 166.913 301.384 167.268C301.15 167.623 301.034 168.043 301.034 168.528C301.034 169.013 301.155 169.433 301.398 169.788C301.65 170.133 301.981 170.399 302.392 170.586C302.802 170.763 303.25 170.852 303.736 170.852C304.324 170.852 304.888 170.721 305.43 170.46C305.98 170.189 306.433 169.797 306.788 169.284L307.6 169.788C307.152 170.544 306.564 171.123 305.836 171.524C305.117 171.925 304.366 172.126 303.582 172.126C302.928 172.126 302.322 171.991 301.762 171.72C301.202 171.44 300.754 171.029 300.418 170.488C300.082 169.937 299.914 169.284 299.914 168.528C299.914 167.772 300.082 167.119 300.418 166.568C300.763 166.008 301.22 165.583 301.79 165.294C302.368 165.005 302.989 164.86 303.652 164.86C304.324 164.86 304.986 165.014 305.64 165.322C306.302 165.63 306.876 166.083 307.362 166.68L306.578 167.45ZM315.122 167.45C314.712 167.021 314.254 166.699 313.75 166.484C313.256 166.269 312.752 166.162 312.238 166.162C311.753 166.162 311.305 166.26 310.894 166.456C310.493 166.643 310.171 166.913 309.928 167.268C309.695 167.623 309.578 168.043 309.578 168.528C309.578 169.013 309.7 169.433 309.942 169.788C310.194 170.133 310.526 170.399 310.936 170.586C311.347 170.763 311.795 170.852 312.28 170.852C312.868 170.852 313.433 170.721 313.974 170.46C314.525 170.189 314.978 169.797 315.332 169.284L316.144 169.788C315.696 170.544 315.108 171.123 314.38 171.524C313.662 171.925 312.91 172.126 312.126 172.126C311.473 172.126 310.866 171.991 310.306 171.72C309.746 171.44 309.298 171.029 308.962 170.488C308.626 169.937 308.458 169.284 308.458 168.528C308.458 167.772 308.626 167.119 308.962 166.568C309.308 166.008 309.765 165.583 310.334 165.294C310.913 165.005 311.534 164.86 312.196 164.86C312.868 164.86 313.531 165.014 314.184 165.322C314.847 165.63 315.421 166.083 315.906 166.68L315.122 167.45ZM324.311 168.5C324.311 167.996 324.167 167.567 323.877 167.212C323.588 166.857 323.205 166.591 322.729 166.414C322.263 166.237 321.759 166.148 321.217 166.148C320.685 166.148 320.181 166.237 319.705 166.414C319.239 166.591 318.856 166.862 318.557 167.226C318.268 167.581 318.123 168.005 318.123 168.5C318.123 169.004 318.268 169.433 318.557 169.788C318.856 170.143 319.239 170.413 319.705 170.6C320.181 170.777 320.685 170.866 321.217 170.866C321.759 170.866 322.263 170.777 322.729 170.6C323.205 170.413 323.588 170.143 323.877 169.788C324.167 169.433 324.311 169.004 324.311 168.5ZM325.431 168.5C325.431 169.275 325.231 169.937 324.829 170.488C324.437 171.029 323.919 171.44 323.275 171.72C322.631 172 321.945 172.14 321.217 172.14C320.489 172.14 319.803 172 319.159 171.72C318.515 171.44 317.993 171.029 317.591 170.488C317.199 169.937 317.003 169.275 317.003 168.5C317.003 167.725 317.199 167.067 317.591 166.526C317.993 165.975 318.515 165.56 319.159 165.28C319.803 165 320.489 164.86 321.217 164.86C321.945 164.86 322.631 165 323.275 165.28C323.919 165.56 324.437 165.975 324.829 166.526C325.231 167.067 325.431 167.725 325.431 168.5ZM333.052 172V168.794C332.875 169.457 332.59 170.045 332.198 170.558C331.815 171.062 331.381 171.454 330.896 171.734C330.411 172.005 329.925 172.14 329.44 172.14C328.945 172.14 328.493 171.986 328.082 171.678C327.671 171.37 327.34 170.889 327.088 170.236C326.845 169.583 326.724 168.761 326.724 167.772V165H327.914V167.772C327.914 168.528 328.021 169.172 328.236 169.704C328.451 170.227 328.731 170.619 329.076 170.88C329.431 171.141 329.818 171.272 330.238 171.272C330.705 171.272 331.153 171.109 331.582 170.782C332.021 170.446 332.375 169.956 332.646 169.312C332.917 168.668 333.052 167.907 333.052 167.03V165H334.242V172H333.052ZM335.529 171.986V165H336.719V168.178C336.915 167.487 337.209 166.895 337.601 166.4C337.993 165.905 338.431 165.532 338.917 165.28C339.402 165.019 339.887 164.888 340.373 164.888C340.83 164.888 341.245 165.005 341.619 165.238C342.001 165.471 342.305 165.826 342.529 166.302C342.753 166.769 342.865 167.343 342.865 168.024V172H341.675V168.024C341.675 167.455 341.488 167.002 341.115 166.666C340.741 166.33 340.279 166.162 339.729 166.162C339.262 166.162 338.809 166.293 338.371 166.554C337.932 166.815 337.559 167.221 337.251 167.772C336.952 168.313 336.775 168.981 336.719 169.774V171.986H335.529ZM348.306 172H344.568V162.48H345.758V170.852H348.306V172ZM347.844 165.56H343.882V165H347.844V165.56Z" fill="#6C6D80"/>
</g>
<rect x="0.5" y="0.5" width="374" height="811" rx="31.5" stroke="#CACACA"/>
<defs>
<clipPath id="clip0_7380_44521">
<rect width="375" height="812" rx="32" fill="white"/>
</clipPath>
</defs>
</svg>
