<svg width="148" height="72" viewBox="0 0 148 72" fill="none" xmlns="http://www.w3.org/2000/svg">
<path d="M7.00163 21.0084C10.4433 20.9977 13.885 21.0068 17.3267 21.003C19.2773 20.9977 21.2439 21.1958 23.1129 21.7756C24.5377 22.21 25.9016 22.8591 27.1108 23.7316C28.5981 24.7998 29.8355 26.2102 30.7049 27.8217C31.6269 29.4995 32.1526 31.3746 32.385 33.2696C32.7119 36.2815 32.5084 39.4299 31.3099 42.243C30.2279 44.9189 28.1699 47.188 25.5938 48.4962C23.3148 49.6932 20.7257 50.2129 18.1649 50.2632C14.4443 50.2822 10.723 50.2677 7.00239 50.2708C6.99858 40.5164 7.00011 30.762 7.00163 21.0084ZM12.848 25.7355C12.848 32.3377 12.848 38.9399 12.848 45.5414C13.9605 45.5414 15.0737 45.5414 16.1861 45.5414C17.7344 45.5544 19.3192 45.5681 20.8057 45.0728C22.1917 44.6446 23.4665 43.8331 24.3968 42.7161C25.1488 41.8346 25.6784 40.7815 26.0266 39.6805C26.5569 37.9631 26.6735 36.1398 26.5363 34.3546C26.3855 32.5891 25.9252 30.81 24.9393 29.3196C24.0097 27.8735 22.562 26.7778 20.9284 26.2498C19.531 25.756 18.0315 25.7134 16.5655 25.7339C15.3259 25.7355 14.0869 25.7317 12.848 25.7355Z" fill="#080808"/>
<path d="M29.8701 21.0076C32.0493 20.9962 34.2292 21.0114 36.4083 21C37.9284 23.9213 39.4295 26.8525 40.9419 29.7776C41.2833 30.4496 41.6414 31.1133 41.9736 31.7906C42.3827 32.7979 42.7736 33.8121 43.1828 34.8194C43.6102 33.7747 44.0049 32.7156 44.4446 31.6756C46.277 28.1173 48.1141 24.5613 49.9481 21.0038C52.0183 21.0046 54.0877 21.0008 56.1579 21.0053C52.8244 27.1603 49.4764 33.3077 46.1376 39.4603C46.0568 39.6295 45.9143 39.7849 45.9128 39.9815C45.909 43.4118 45.9189 46.8413 45.9083 50.2708C43.9752 50.2716 42.0422 50.2723 40.1091 50.27C40.1061 47.7823 40.1091 45.2938 40.1076 42.806C40.0954 41.8239 40.1327 40.8372 40.0901 39.8581C37.2427 34.5809 34.3671 29.3174 31.5091 24.0455C30.965 23.0313 30.3989 22.0294 29.8701 21.0076Z" fill="#080808"/>
<path d="M56.5772 21.0122C58.5255 20.9924 60.4738 21.0091 62.4221 21.0038C62.4221 26.6711 62.4221 32.3377 62.4221 38.005C62.4228 38.8713 62.403 39.7422 62.5257 40.6032C62.7208 42.038 63.2678 43.4735 64.3087 44.5097C65.2253 45.4408 66.4909 45.9719 67.7778 46.1205C69.0586 46.2698 70.3951 46.1487 71.5867 45.6328C72.5795 45.2061 73.4352 44.4724 74.0082 43.5558C74.7145 42.4464 75.0292 41.1305 75.1122 39.8291C75.1572 38.9681 75.1328 38.1056 75.1389 37.2446C75.1389 31.831 75.1389 26.4174 75.1389 21.0038C77.0735 21.0038 79.0088 21.0038 80.9434 21.0038C80.9434 27.0269 80.9449 33.0509 80.9426 39.074C80.9304 41.0193 80.6257 42.9942 79.7906 44.765C79.0782 46.3254 77.9551 47.7023 76.5531 48.6928C75.0277 49.7976 73.2036 50.4293 71.3536 50.7218C69.0739 51.0411 66.7187 50.9771 64.4923 50.3622C63.0766 49.9637 61.7203 49.3191 60.5675 48.401C59.4414 47.5125 58.5194 46.3704 57.8779 45.088C57.2455 43.8491 56.8767 42.4891 56.6976 41.1137C56.501 39.474 56.597 37.8191 56.5742 36.1725C56.5765 31.1186 56.5696 26.0654 56.5772 21.0122Z" fill="#080808"/>
<path d="M81.7936 21.0045C90.0127 21.0022 98.2317 21.0052 106.451 21.0022C106.452 22.6084 106.451 24.2138 106.451 25.8192C103.314 25.82 100.177 25.8192 97.04 25.8192C97.037 33.9697 97.0454 42.1202 97.0355 50.2707C95.088 50.2715 93.1412 50.2722 91.1937 50.2699C91.1883 42.1202 91.1952 33.9705 91.1906 25.8207C88.0537 25.8184 84.9175 25.8207 81.7814 25.8192C81.789 24.2145 81.7654 22.6084 81.7936 21.0045Z" fill="#080808"/>
<path d="M107.35 21.0069C109.299 20.9992 111.247 21.0053 113.196 21.0038C113.193 30.7597 113.203 40.5156 113.191 50.2716C111.244 50.27 109.296 50.2738 107.35 50.2693C107.347 40.5156 107.347 30.7612 107.35 21.0069Z" fill="#080808"/>
<path d="M116.416 21.0091C118.365 20.9961 120.314 21.0068 122.263 21.0038C122.263 24.9575 122.263 28.9104 122.263 32.8642C126.56 32.8642 130.855 32.8649 135.152 32.8634C135.16 28.9104 135.137 24.9559 135.163 21.0022C137.094 21.0037 139.026 21.0053 140.957 21.0015C140.954 30.7574 140.961 40.5133 140.953 50.2692C139.019 50.2738 137.085 50.2707 135.151 50.2707C135.152 46.0595 135.152 41.849 135.152 37.6377C130.855 37.6377 126.559 37.6377 122.263 37.6377C122.26 41.849 122.269 46.0602 122.258 50.2715C120.311 50.2707 118.363 50.2738 116.417 50.27C116.414 40.5163 116.416 30.7627 116.416 21.0091Z" fill="#080808"/>
</svg>
