<svg width="132" height="72" viewBox="0 0 132 72" fill="none" xmlns="http://www.w3.org/2000/svg">
<path d="M59.9815 36.699C59.9815 38.644 59.7699 40.5273 59.3469 42.3488C58.954 44.1394 58.3345 45.8683 57.4884 47.5355C56.6725 49.1717 55.494 50.4993 53.9528 51.5181C52.4419 52.506 50.674 53 48.6494 53C45.3857 53 42.6358 51.6261 40.3996 48.8784C38.1332 46.069 37 42.0092 37 36.699C37 34.7849 37.2266 32.9325 37.6799 31.1418C38.1332 29.3512 38.798 27.684 39.6744 26.1404C40.5507 24.5967 41.7595 23.3618 43.3006 22.4356C44.8418 21.4785 46.6096 21 48.6041 21C50.2057 21 51.6562 21.3242 52.9556 21.9725C54.255 22.59 55.3278 23.4235 56.1739 24.4732C57.02 25.492 57.7302 26.6961 58.3043 28.0854C58.9087 29.4747 59.3318 30.8948 59.5735 32.3459C59.8455 33.766 59.9815 35.2171 59.9815 36.699ZM51.5051 37.0232C51.5051 31.5277 50.523 28.78 48.5587 28.78C47.8939 28.78 47.3349 29.1042 46.8816 29.7525C46.4585 30.37 46.1412 31.1881 45.9297 32.2069C45.7484 33.1949 45.6275 34.0593 45.5671 34.8003C45.5066 35.5412 45.4764 36.2668 45.4764 36.9768C45.4764 37.7178 45.5066 38.4433 45.5671 39.1534C45.6275 39.8635 45.7333 40.7279 45.8844 41.7467C46.0657 42.7656 46.3679 43.5991 46.7909 44.2475C47.2442 44.8649 47.8033 45.1737 48.4681 45.1737C49.1329 45.1737 49.6768 44.8649 50.0999 44.2475C50.5532 43.5991 50.8705 42.781 51.0518 41.7931C51.2331 40.8051 51.354 39.9407 51.4144 39.1997C51.4748 38.4588 51.5051 37.7332 51.5051 37.0232Z" fill="#080808"/>
<path d="M84.0682 52.4443L75.2291 52.4443C72.4188 44.6643 70.8776 40.3883 70.6056 39.6165C70.6963 40.9749 70.7416 42.3333 70.7416 43.6917L70.7416 52.4443L62.5825 52.4443L62.5825 21.5557L70.9229 21.5557C73.4613 21.5557 75.5615 21.9108 77.2236 22.6208C78.9763 23.3927 80.321 24.6276 81.2578 26.3256C82.1946 27.9928 82.663 29.8451 82.663 31.8828C82.663 35.5876 81.1067 38.1655 77.9942 39.6165L84.0682 52.4443ZM70.7416 35.8654L71.2856 35.8654C72.2828 35.8654 73.0685 35.4795 73.6426 34.7077C74.247 33.9358 74.5492 33.0251 74.5492 31.9754C74.5492 29.6599 73.28 28.5022 70.7416 28.5022L70.7416 35.8654Z" fill="#080808"/>
<path d="M107.296 34.615L107.296 35.8654C107.296 41.1138 106.631 45.0502 105.302 47.6744C104.425 49.4033 103.186 50.7308 101.585 51.657C99.9831 52.5523 98.2153 53 96.2813 53C94.5891 53 93.063 52.6913 91.7031 52.0738C90.3735 51.4563 89.2705 50.6382 88.3942 49.6194C87.5178 48.6006 86.7926 47.3965 86.2184 46.0072C85.6443 44.6179 85.2363 43.1978 84.9946 41.7467C84.7528 40.2957 84.6319 38.7675 84.6319 37.1621C84.6319 35.1245 84.8284 33.2103 85.2212 31.4197C85.6443 29.5982 86.2789 27.8847 87.125 26.2793C88.0013 24.6739 89.2101 23.3927 90.7513 22.4356C92.3226 21.4785 94.166 21 96.2813 21C101.026 21 104.486 23.547 106.661 28.6411L98.729 31.6049C98.6384 30.8022 98.3966 30.0767 98.0038 29.4284C97.6109 28.78 97.0519 28.4559 96.3266 28.4559C94.0904 28.4559 92.9723 31.6049 92.9723 37.903C92.9723 42.9971 93.9998 45.5441 96.0547 45.5441C97.0821 45.5441 97.8074 45.0965 98.2304 44.2012C98.6837 43.275 98.9104 42.2407 98.9104 41.0984L95.9187 41.0984L95.9187 34.615L107.296 34.615Z" fill="#080808"/>
<path d="M125 52.4443L109.86 52.4443L109.86 21.5557L125 21.5557L125 28.8263L118.019 28.8263L118.019 33.3184L124.275 33.3184L124.275 40.3111L118.019 40.3111L118.019 45.0347L125 45.0347L125 52.4443Z" fill="#080808"/>
<path fill-rule="evenodd" clip-rule="evenodd" d="M31 12H7V59H31V12ZM20.3208 24.1214H29V14H9V57H20.3208V40.1094H28.3711V30.3748H20.3208V24.1214Z" fill="#080808"/>
</svg>
