<svg width="182" height="72" viewBox="0 0 182 72" fill="none" xmlns="http://www.w3.org/2000/svg">
<g clip-path="url(#clip0_9079_5745)">
<path d="M23.7977 18.0244H46.5392L29.8196 44.7094H7.07812L23.7977 18.0244Z" fill="#080808"/>
<path d="M24.7942 47.1827L18.3184 57.5185H42.1386L58.8582 30.8335H41.2773L31.0336 47.1827H24.7942Z" fill="#080808"/>
</g>
<path d="M66 47.5306V25H80.149V28.2701H69.4668V34.6224H78.1585V37.9082H69.4668V47.5306H66Z" fill="#080808"/>
<path d="M89.3915 47.9844C88.153 47.9844 87.1135 47.7966 86.2731 47.4211C85.4327 47.0456 84.7471 46.5553 84.2163 45.9503C83.6965 45.3349 83.2984 44.6673 83.022 43.9476C82.7455 43.2279 82.5575 42.5238 82.458 41.8354C82.3585 41.1469 82.3087 40.542 82.3087 40.0204V30.6327H85.8252V38.9408C85.8252 39.598 85.8805 40.276 85.9911 40.9748C86.1128 41.6633 86.3339 42.3048 86.6546 42.8993C86.9864 43.4939 87.4453 43.9737 88.0314 44.3388C88.6285 44.7039 89.4026 44.8864 90.3536 44.8864C90.9728 44.8864 91.5589 44.7925 92.1118 44.6048C92.6648 44.4066 93.1458 44.0937 93.5549 43.666C93.9752 43.2383 94.3014 42.6751 94.5336 41.9762C94.7769 41.2773 94.8985 40.4272 94.8985 39.4259L97.0549 40.1925C97.0549 41.7259 96.7508 43.0819 96.1426 44.2605C95.5344 45.4288 94.6608 46.3415 93.5218 46.9986C92.3828 47.6558 91.006 47.9844 89.3915 47.9844ZM95.3132 47.5306V42.649H94.8985V30.6327H98.3985V47.5306H95.3132Z" fill="#080808"/>
<path d="M115.126 47.5306V39.2224C115.126 38.5653 115.065 37.8925 114.944 37.2041C114.833 36.5052 114.612 35.8585 114.28 35.2639C113.96 34.6694 113.501 34.1896 112.904 33.8245C112.317 33.4594 111.549 33.2769 110.598 33.2769C109.979 33.2769 109.393 33.376 108.84 33.5741C108.287 33.7619 107.8 34.0696 107.38 34.4973C106.971 34.9249 106.645 35.4882 106.401 36.1871C106.169 36.8859 106.053 37.7361 106.053 38.7374L103.897 37.9707C103.897 36.4374 104.201 35.0866 104.809 33.9184C105.417 32.7397 106.291 31.8218 107.43 31.1646C108.569 30.5075 109.945 30.1789 111.56 30.1789C112.799 30.1789 113.838 30.3667 114.678 30.7422C115.519 31.1177 116.199 31.6132 116.719 32.2286C117.249 32.8336 117.653 33.4959 117.93 34.2156C118.206 34.9354 118.394 35.6395 118.494 36.3279C118.593 37.0163 118.643 37.6213 118.643 38.1429V47.5306H115.126ZM102.536 47.5306V30.6327H105.638V35.5143H106.053V47.5306H102.536Z" fill="#080808"/>
<path d="M129.355 48C127.685 48 126.242 47.6088 125.026 46.8265C123.82 46.0442 122.886 44.9803 122.222 43.6347C121.57 42.2787 121.244 40.7558 121.244 39.066C121.244 37.3658 121.575 35.8481 122.239 34.5129C122.902 33.1673 123.842 32.1086 125.059 31.3367C126.286 30.5544 127.74 30.1633 129.421 30.1633C131.113 30.1633 132.534 30.5544 133.684 31.3367C134.845 32.1086 135.719 33.1673 136.305 34.5129C136.902 35.8585 137.201 37.3762 137.201 39.066C137.201 40.7558 136.902 42.2735 136.305 43.619C135.708 44.9646 134.829 46.0338 133.668 46.8265C132.506 47.6088 131.069 48 129.355 48ZM129.836 45.0429C130.975 45.0429 131.904 44.7873 132.623 44.2762C133.341 43.7651 133.867 43.061 134.198 42.1639C134.53 41.2669 134.696 40.2342 134.696 39.066C134.696 37.8977 134.525 36.8651 134.182 35.968C133.85 35.071 133.33 34.3721 132.623 33.8714C131.926 33.3707 131.036 33.1204 129.952 33.1204C128.802 33.1204 127.856 33.3864 127.116 33.9184C126.375 34.4503 125.822 35.1649 125.457 36.0619C125.103 36.959 124.926 37.9603 124.926 39.066C124.926 40.1821 125.103 41.1939 125.457 42.1014C125.822 42.9984 126.364 43.7129 127.082 44.2449C127.812 44.7769 128.73 45.0429 129.836 45.0429ZM134.696 47.5306V35.3735H134.298V25H137.781V47.5306H134.696Z" fill="#080808"/>
<path d="M149.87 48C148.09 48 146.525 47.6349 145.176 46.9048C143.838 46.1642 142.793 45.1367 142.041 43.8224C141.3 42.4977 140.929 40.9644 140.929 39.2224C140.929 37.3762 141.294 35.7751 142.024 34.419C142.765 33.063 143.794 32.0147 145.109 31.2742C146.425 30.5336 147.957 30.1633 149.704 30.1633C151.529 30.1633 153.082 30.5649 154.365 31.368C155.648 32.1608 156.604 33.2925 157.235 34.7633C157.876 36.234 158.131 37.9812 157.998 40.0048H154.531V38.8156C154.509 36.8546 154.111 35.4048 153.337 34.466C152.574 33.5272 151.407 33.0578 149.837 33.0578C148.101 33.0578 146.796 33.5741 145.922 34.6068C145.049 35.6395 144.612 37.1311 144.612 39.0816C144.612 40.9383 145.049 42.3778 145.922 43.4C146.796 44.4118 148.056 44.9177 149.704 44.9177C150.788 44.9177 151.722 44.6882 152.507 44.2293C153.304 43.7599 153.923 43.0923 154.365 42.2265L157.766 43.2435C157.069 44.756 156.013 45.9295 154.597 46.7639C153.182 47.588 151.606 48 149.87 48ZM143.484 40.0048V37.4544H156.273V40.0048H143.484Z" fill="#080808"/>
<path d="M158.583 47.5306L165.285 38.9878L158.733 30.6327H162.846L167.308 36.4374L171.72 30.6327H175.834L169.282 38.9878L176 47.5306H171.87L167.308 41.5381L162.714 47.5306H158.583Z" fill="#080808"/>
<defs>
<clipPath id="clip0_9079_5745">
<rect width="54" height="37" fill="white" transform="translate(6 18)"/>
</clipPath>
</defs>
</svg>
