<svg width="203" height="72" viewBox="0 0 203 72" fill="none" xmlns="http://www.w3.org/2000/svg">
<path d="M14.5881 16.9264C17.7958 14.0911 21.752 12.0776 25.9553 11.2408C31.6595 10.4451 37.7193 11.6144 42.5215 14.8494C38.3369 12.7201 33.531 11.9207 28.8748 12.5035C22.8599 13.5569 17.1707 17.0983 14.1464 22.4813C11.7846 26.7735 10.4335 31.8913 11.5526 36.755C12.4808 41.899 15.1346 46.8449 19.3903 49.9866C23.6497 53.2478 29.2341 54.6561 34.5378 53.9202C37.5434 53.584 40.3768 52.4782 43.1128 51.2492C38.3818 54.884 32.0787 56.0159 26.2398 55.3659C21.4264 54.3983 16.8039 52.0785 13.4465 48.4587C9.42661 44.1291 7.47281 38.1596 7.40918 32.3209C7.77224 26.5494 10.2388 20.8189 14.5881 16.9264Z" fill="#080808"/>
<path d="M15.9178 26.097C17.3402 22.0887 21.2515 19.1264 25.5035 18.8462C22.8011 19.4514 20.065 20.7551 18.6015 23.2169C17.3963 25.3648 16.6065 27.976 17.3738 30.4116C18.1935 33.5757 20.9446 35.9852 24.0699 36.7734C25.9713 37.2441 28.0037 37.8194 29.3212 39.3696C30.9232 41.1814 30.8708 44.0952 29.4709 46.0041C28.0037 47.7561 25.2153 48.025 23.3026 46.867C18.9122 44.5958 16.1986 40.021 15.1992 35.3029C14.3945 32.2584 14.8848 29.022 15.9178 26.097Z" fill="#080808"/>
<path d="M33.3545 19.7139C37.1049 19.7438 40.8553 19.7177 44.6057 19.6952C47.8621 19.5869 51.0024 21.6452 52.391 24.5515C53.6075 27.0918 54.0005 30.1475 52.9375 32.8147C52.0579 35.1906 50.164 37.1443 47.8209 38.1155C44.7105 39.5724 41.2034 38.8216 37.8984 38.971C37.9059 43.1736 37.9059 47.3724 37.8909 51.5712C34.934 51.5749 31.9809 51.5189 29.0277 51.6011C31.2098 50.7083 33.3021 49.3112 34.3988 47.1557C36.3264 43.5284 36.0382 38.5974 33.0888 35.5828C31.0377 33.3788 28.0471 32.4187 25.1463 31.9593C23.1588 31.7164 21.6654 29.8038 21.8263 27.8239C21.7028 24.9512 25.0228 22.6837 27.6653 23.8492C29.3234 24.503 29.9859 26.2849 30.3377 27.8874C31.3633 27.8874 32.3926 27.8986 33.4256 27.8986C33.3882 25.1679 33.362 22.4409 33.3545 19.7139ZM37.9134 24.0584C37.9022 27.5699 37.9059 31.0814 37.8909 34.5929C39.8859 34.5891 41.8809 34.6526 43.8796 34.5817C46.1254 34.4733 48.4198 33.0986 49.1684 30.9095C50.1378 27.9136 47.7797 24.4581 44.6581 24.1518C42.4161 23.98 40.1592 24.1182 37.9134 24.0584Z" fill="#080808"/>
<path d="M70.5127 30.3821V28.9934C70.5127 28.0919 70.3057 27.3854 69.8916 26.8738C69.5019 26.3378 68.8443 26.0698 67.9187 26.0698C67.0419 26.0698 66.3964 26.3134 65.9823 26.8007C65.5683 27.2879 65.3612 27.8848 65.3612 28.5914V29.5415C65.3612 30.0775 65.4587 30.5282 65.6535 30.8937C65.8484 31.2591 66.2259 31.6733 66.7861 32.1362C67.2002 32.4529 67.6508 32.7818 68.1379 33.1229C68.6494 33.4396 69.1487 33.7564 69.6359 34.0731C70.123 34.3898 70.598 34.7065 71.0607 35.0233C71.5235 35.34 71.9254 35.6445 72.2664 35.9369C72.8266 36.4241 73.2528 36.9967 73.5451 37.6545C73.8618 38.3123 74.0201 39.2015 74.0201 40.3223V41.8206C74.0201 43.7209 73.5451 45.1827 72.5952 46.206C71.6697 47.2049 70.1352 47.7043 67.9918 47.7043C65.8484 47.7043 64.3139 47.1927 63.3883 46.1694C62.4628 45.1218 62 43.5991 62 41.6013V40.2126H65.1055V41.6379C65.1055 42.6368 65.3247 43.392 65.7631 43.9037C66.2015 44.4153 66.9201 44.6711 67.9187 44.6711C68.7712 44.6711 69.4288 44.4518 69.8916 44.0133C70.3544 43.5747 70.5858 42.8682 70.5858 41.8937V40.7973C70.5858 40.4319 70.5614 40.1152 70.5127 39.8472C70.464 39.5548 70.3787 39.299 70.257 39.0797C70.1352 38.8361 69.9647 38.6168 69.7455 38.4219C69.5506 38.2027 69.307 37.9712 69.0148 37.7276C68.1623 37.021 67.2976 36.3998 66.4208 35.8638C65.5439 35.3278 64.728 34.6944 63.9729 33.9635C63.364 33.33 62.9012 32.6722 62.5846 31.99C62.2679 31.3079 62.1096 30.4795 62.1096 29.505V28.4452C62.1096 26.8372 62.5602 25.5338 63.4614 24.5349C64.387 23.5116 65.8606 23 67.8822 23C68.9782 23 69.8916 23.1584 70.6223 23.4751C71.353 23.7918 71.9376 24.2303 72.376 24.7907C72.8144 25.3511 73.1189 26.021 73.2894 26.8007C73.4842 27.5803 73.5817 28.4208 73.5817 29.3223V30.3821H70.5127Z" fill="#080808"/>
<path d="M76.2853 47.485V29.9435H79.4273V47.485H76.2853ZM76.2853 27.7874V23.8405H79.4273V27.7874H76.2853Z" fill="#080808"/>
<path d="M89.5678 37.4718H92.2714V42.2226C92.2714 44.0742 91.9182 45.4507 91.2119 46.3522C90.5055 47.2536 89.2268 47.7043 87.3757 47.7043C85.4759 47.7043 84.0875 47.2536 83.2107 46.3522C82.3338 45.4507 81.8954 44.0742 81.8954 42.2226V25.0831H85.0009V29.9435H92.2714V32.7575H85.0009V42.2226C85.0009 43.9767 85.8047 44.8538 87.4122 44.8538C88.1917 44.8538 88.7397 44.6467 89.0563 44.2326C89.3973 43.794 89.5678 43.124 89.5678 42.2226V37.4718Z" fill="#080808"/>
<path d="M101.814 37.4718H104.518V42.2226C104.518 44.0742 104.165 45.4507 103.458 46.3522C102.752 47.2536 101.473 47.7043 99.6221 47.7043C97.7223 47.7043 96.334 47.2536 95.4571 46.3522C94.5803 45.4507 94.1418 44.0742 94.1418 42.2226V25.0831H97.2473V29.9435H104.518V32.7575H97.2473V42.2226C97.2473 43.9767 98.0511 44.8538 99.6587 44.8538C100.438 44.8538 100.986 44.6467 101.303 44.2326C101.644 43.794 101.814 43.124 101.814 42.2226V37.4718Z" fill="#080808"/>
<path d="M118.028 42.2226C118.028 45.8771 116.176 47.7043 112.474 47.7043C110.623 47.7043 109.247 47.2658 108.346 46.3887C107.469 45.4873 107.03 44.0986 107.03 42.2226V35.206C107.03 33.3544 107.469 31.9778 108.346 31.0764C109.247 30.175 110.635 29.7243 112.511 29.7243C116.189 29.7243 118.028 31.5515 118.028 35.206V39.5548H110.099V42.2957C110.099 44.0498 110.891 44.9269 112.474 44.9269C114.106 44.9269 114.922 44.0498 114.922 42.2957V41.4186H118.028V42.2226ZM114.922 35.1329C114.922 33.3787 114.118 32.5017 112.511 32.5017C110.903 32.5017 110.099 33.3787 110.099 35.1329V37.2159H114.922V35.1329Z" fill="#080808"/>
<path d="M120.526 47.485V29.9435H123.449L123.558 32.9402H123.704C124.045 31.9169 124.532 31.1251 125.166 30.5648C125.799 30.0044 126.578 29.7243 127.504 29.7243C128.015 29.7243 128.503 29.8461 128.965 30.0897V32.9767C128.6 32.7331 128.052 32.6113 127.321 32.6113C126.347 32.6113 125.568 32.9037 124.983 33.4884C124.398 34.0731 123.96 35.1451 123.668 36.7043V47.485H120.526Z" fill="#080808"/>
<path d="M138.952 35.1329C138.952 34.2071 138.757 33.5371 138.367 33.1229C137.978 32.7087 137.405 32.5017 136.65 32.5017C135.92 32.5017 135.372 32.6966 135.006 33.0864C134.641 33.4762 134.324 34.134 134.056 35.0598V42.3688C134.324 43.2946 134.641 43.9524 135.006 44.3422C135.372 44.732 135.92 44.9269 136.65 44.9269C137.405 44.9269 137.978 44.7198 138.367 44.3056C138.757 43.8915 138.952 43.2215 138.952 42.2957V35.1329ZM131.024 56V29.9435H133.837L133.947 32.4651H134.093C134.483 31.5149 134.982 30.8206 135.591 30.3821C136.2 29.9435 136.979 29.7243 137.929 29.7243C139.244 29.7243 140.267 30.1262 140.998 30.9302C141.753 31.7099 142.131 32.8671 142.131 34.402V43.0266C142.131 44.5615 141.765 45.7309 141.034 46.5349C140.304 47.3145 139.281 47.7043 137.966 47.7043C137.089 47.7043 136.334 47.5216 135.7 47.1561C135.091 46.7663 134.616 46.1451 134.275 45.2924H134.129V56H131.024Z" fill="#080808"/>
<path d="M152.408 37.8372C152.043 38.1052 151.702 38.2879 151.385 38.3854C151.068 38.4828 150.569 38.629 149.887 38.8239C148.864 39.1406 148.207 39.4939 147.914 39.8837C147.622 40.2735 147.476 40.8095 147.476 41.4917V43.0631C147.476 44.3056 148.17 44.9269 149.558 44.9269C150.289 44.9269 150.874 44.7564 151.312 44.4153C151.775 44.0742 152.14 43.5504 152.408 42.8439V37.8372ZM152.627 47.485L152.518 45.2558H152.372C151.982 45.938 151.47 46.5227 150.837 47.01C150.228 47.4729 149.351 47.7043 148.207 47.7043C146.818 47.7043 145.832 47.3511 145.247 46.6445C144.663 45.938 144.37 44.9878 144.37 43.794V42.0399C144.37 41.2846 144.456 40.639 144.626 40.103C144.797 39.5426 145.065 39.0797 145.43 38.7143C145.795 38.3245 146.27 37.9956 146.855 37.7276C147.464 37.4352 148.194 37.1672 149.047 36.9236C149.437 36.8018 149.826 36.6921 150.216 36.5947C150.63 36.4729 150.995 36.3511 151.312 36.2292C151.629 36.0831 151.884 35.9125 152.079 35.7176C152.274 35.5227 152.372 35.2791 152.372 34.9867V34.2558C152.372 33.062 151.616 32.4651 150.106 32.4651C148.45 32.4651 147.622 33.1229 147.622 34.4385V35.5714H144.663V34.0731C144.663 32.6113 145.15 31.5271 146.124 30.8206C147.123 30.0897 148.511 29.7243 150.289 29.7243C153.772 29.7243 155.514 31.0886 155.514 33.8173V47.485H152.627Z" fill="#080808"/>
<path d="M161.157 41.2724C161.157 42.4175 161.315 43.258 161.632 43.794C161.973 44.33 162.533 44.598 163.313 44.598C163.995 44.598 164.531 44.4031 164.92 44.0133C165.334 43.5991 165.712 42.9413 166.053 42.0399V35.2791C165.858 34.3045 165.59 33.598 165.249 33.1595C164.932 32.7209 164.348 32.5017 163.495 32.5017C162.716 32.5017 162.131 32.6966 161.742 33.0864C161.352 33.4762 161.157 34.1584 161.157 35.1329V41.2724ZM169.085 50.5183C169.085 54.1728 167.222 56 163.495 56C161.62 56 160.244 55.5371 159.367 54.6113C158.514 53.7099 158.088 52.3455 158.088 50.5183V48.5814H161.084V50.5183C161.084 52.2724 161.888 53.1495 163.495 53.1495C165.127 53.1495 165.943 52.2724 165.943 50.5183V45.0731H165.797C165.164 46.6811 163.922 47.485 162.071 47.485C160.609 47.485 159.562 47.01 158.928 46.0598C158.295 45.1096 157.979 43.7087 157.979 41.8571V34.402C157.979 33.0133 158.32 31.8926 159.002 31.0399C159.684 30.1628 160.719 29.7243 162.107 29.7243C163.008 29.7243 163.775 29.9435 164.409 30.3821C165.042 30.7962 165.578 31.4906 166.016 32.4651H166.162L166.272 29.9435H169.085V50.5183Z" fill="#080808"/>
<path d="M182.578 42.2226C182.578 45.8771 180.727 47.7043 177.025 47.7043C175.173 47.7043 173.797 47.2658 172.896 46.3887C172.019 45.4873 171.581 44.0986 171.581 42.2226V35.206C171.581 33.3544 172.019 31.9778 172.896 31.0764C173.797 30.175 175.186 29.7243 177.061 29.7243C180.739 29.7243 182.578 31.5515 182.578 35.206V39.5548H174.65V42.2957C174.65 44.0498 175.441 44.9269 177.025 44.9269C178.656 44.9269 179.472 44.0498 179.472 42.2957V41.4186H182.578V42.2226ZM179.472 35.1329C179.472 33.3787 178.669 32.5017 177.061 32.5017C175.454 32.5017 174.65 33.3787 174.65 35.1329V37.2159H179.472V35.1329Z" fill="#080808"/>
<path d="M192.858 35.3522V34.3289C192.858 33.6955 192.675 33.2082 192.31 32.8671C191.945 32.526 191.348 32.3555 190.52 32.3555C188.912 32.3555 188.108 32.928 188.108 34.0731V34.6213C188.108 34.9867 188.181 35.2912 188.328 35.5349C188.498 35.7542 188.851 36.0343 189.387 36.3754C190.215 36.887 191.031 37.3012 191.835 37.6179C192.639 37.9347 193.394 38.3367 194.1 38.8239C194.709 39.2381 195.172 39.701 195.489 40.2126C195.83 40.7243 196 41.4308 196 42.3322V43.1362C196 44.6711 195.562 45.8162 194.685 46.5714C193.832 47.3267 192.468 47.7043 190.593 47.7043C188.596 47.7043 187.146 47.3023 186.245 46.4983C185.368 45.67 184.93 44.4762 184.93 42.9169V41.8571H187.926V43.0266C187.926 43.7331 188.108 44.2569 188.474 44.598C188.863 44.9391 189.521 45.1096 190.447 45.1096C191.299 45.1096 191.92 44.9513 192.31 44.6346C192.7 44.3178 192.895 43.8306 192.895 43.1728V42.4784C192.895 42.113 192.797 41.7719 192.602 41.4551C192.432 41.1384 192.018 40.7973 191.36 40.4319C191.311 40.4075 191.08 40.2979 190.666 40.103C190.276 39.8837 189.826 39.6401 189.314 39.3721C188.827 39.0797 188.328 38.7874 187.816 38.495C187.329 38.2027 186.951 37.959 186.684 37.7641C186.099 37.3256 185.685 36.8505 185.441 36.3389C185.222 35.8272 185.113 35.2669 185.113 34.6578V33.7807C185.113 32.5626 185.563 31.588 186.464 30.8571C187.39 30.1019 188.705 29.7243 190.41 29.7243C192.237 29.7243 193.589 30.1506 194.466 31.0033C195.367 31.856 195.817 33.0133 195.817 34.4751V35.3522H192.858Z" fill="#080808"/>
</svg>
