<svg width="151" height="72" viewBox="0 0 151 72" fill="none" xmlns="http://www.w3.org/2000/svg">
<path fill-rule="evenodd" clip-rule="evenodd" d="M33.8335 27.2696C32.1068 26.1158 30.0767 25.5 28 25.5V15C32.1534 15 36.2135 16.2316 39.667 18.5391C43.1204 20.8466 45.812 24.1264 47.4015 27.9636C48.9909 31.8008 49.4068 36.0233 48.5965 40.0969C47.7862 44.1705 45.7862 47.9124 42.8492 50.8492C39.9124 53.7862 36.1705 55.7862 32.0969 56.5965C28.0233 57.4068 23.8008 56.9909 19.9636 55.4015C16.1264 53.812 12.8466 51.1204 10.5391 47.667C8.23163 44.2135 7 40.1534 7 36H17.5C17.5 38.0767 18.1158 40.1068 19.2696 41.8335C20.4233 43.5602 22.0632 44.906 23.9819 45.7007C25.9004 46.4955 28.0117 46.7034 30.0484 46.2982C32.0852 45.8931 33.9561 44.8931 35.4247 43.4247C36.8931 41.9561 37.8931 40.0852 38.2982 38.0484C38.7034 36.0117 38.4955 33.9004 37.7007 31.9819C36.906 30.0632 35.5602 28.4233 33.8335 27.2696Z" fill="#080808"/>
<path fill-rule="evenodd" clip-rule="evenodd" d="M17.5 15C17.5 16.3789 17.2284 17.7443 16.7007 19.0182C16.1731 20.2921 15.3996 21.4496 14.4246 22.4246C13.4496 23.3996 12.2921 24.1731 11.0182 24.7007C9.74425 25.2284 8.37888 25.5 7 25.5L7 36C9.75776 36 12.4885 35.4568 15.0364 34.4015C17.5842 33.3461 19.8992 31.7993 21.8492 29.8492C23.7993 27.8993 25.3461 25.5842 26.4015 23.0364C27.4568 20.4885 28 17.7578 28 15L17.5 15Z" fill="#080808"/>
<path d="M70.5735 50C68.6647 50 66.8855 49.6606 65.236 48.9818C63.61 48.303 62.1725 47.355 60.9236 46.1378C59.6982 44.9207 58.732 43.4928 58.0251 41.8544C57.3417 40.2159 57 38.4252 57 36.4824C57 34.5397 57.3417 32.749 58.0251 31.1105C58.732 29.4486 59.6982 28.0208 60.9236 26.827C62.149 25.6099 63.5864 24.6736 65.236 24.0182C66.8855 23.3394 68.6647 23 70.5735 23C72.5058 23 74.285 23.3394 75.9109 24.0182C77.5605 24.6736 78.998 25.6099 80.2233 26.827C81.4723 28.0442 82.4385 29.472 83.1218 31.1105C83.8052 32.749 84.1469 34.5397 84.1469 36.4824C84.1469 38.4252 83.7934 40.2159 83.0865 41.8544C82.4031 43.4928 81.4487 44.9207 80.2233 46.1378C78.998 47.355 77.5605 48.303 75.9109 48.9818C74.2614 49.6606 72.4822 50 70.5735 50ZM70.5735 46.2081C71.9402 46.2081 73.1892 45.9623 74.3203 45.4707C75.475 44.9792 76.4765 44.3004 77.3248 43.4343C78.1732 42.5449 78.833 41.515 79.3043 40.3446C79.7756 39.1508 80.0113 37.8635 80.0113 36.4824C80.0113 35.1014 79.7756 33.8257 79.3043 32.6554C78.833 31.485 78.1732 30.4551 77.3248 29.5657C76.4765 28.6762 75.475 27.9857 74.3203 27.4941C73.1892 27.0026 71.9402 26.7568 70.5735 26.7568C69.2067 26.7568 67.946 27.0026 66.7913 27.4941C65.6602 27.9857 64.6704 28.6762 63.8221 29.5657C62.9737 30.4551 62.3139 31.485 61.8426 32.6554C61.3949 33.8257 61.171 35.1014 61.171 36.4824C61.171 37.8635 61.3949 39.1508 61.8426 40.3446C62.3139 41.515 62.9737 42.5449 63.8221 43.4343C64.6704 44.3004 65.6719 44.9792 66.8266 45.4707C67.9813 45.9623 69.2303 46.2081 70.5735 46.2081Z" fill="#080808"/>
<path d="M88.4215 49.5787V30.5839H92.239V34.4109L91.8856 33.8492C92.3097 32.6086 92.9931 31.7191 93.9357 31.1808C94.8783 30.619 96.0094 30.3381 97.3291 30.3381H98.4955V33.9545H96.8342C95.5146 33.9545 94.4424 34.3641 93.6176 35.1834C92.8164 35.9792 92.4158 37.1261 92.4158 38.6242V49.5787H88.4215Z" fill="#080808"/>
<path d="M111.444 50C109.959 50 108.604 49.6957 107.379 49.0871C106.177 48.4785 105.246 47.6008 104.586 46.4538L105.046 45.7165V49.5787H101.228V23H105.222V34.5163L104.586 33.6034C105.293 32.5267 106.236 31.684 107.414 31.0754C108.592 30.4668 109.935 30.1625 111.444 30.1625C113.258 30.1625 114.884 30.5956 116.321 31.4616C117.783 32.3277 118.925 33.5098 119.75 35.0078C120.599 36.5059 121.023 38.1912 121.023 40.0637C121.023 41.9363 120.599 43.6216 119.75 45.1196C118.925 46.6177 117.794 47.8114 116.357 48.7009C114.919 49.567 113.282 50 111.444 50ZM111.055 46.3134C112.186 46.3134 113.187 46.0442 114.059 45.5059C114.931 44.9675 115.615 44.2302 116.109 43.2939C116.628 42.3342 116.887 41.2575 116.887 40.0637C116.887 38.87 116.628 37.8049 116.109 36.8687C115.615 35.9324 114.931 35.1951 114.059 34.6567C113.187 34.1183 112.186 33.8492 111.055 33.8492C109.947 33.8492 108.946 34.1183 108.05 34.6567C107.178 35.1951 106.483 35.9324 105.965 36.8687C105.47 37.8049 105.222 38.87 105.222 40.0637C105.222 41.2575 105.47 42.3342 105.965 43.2939C106.483 44.2302 107.178 44.9675 108.05 45.5059C108.946 46.0442 109.947 46.3134 111.055 46.3134Z" fill="#080808"/>
<path d="M124.908 49.5787V30.5839H128.902V49.5787H124.908ZM124.908 27.9857V23.4213H128.902V27.9857H124.908Z" fill="#080808"/>
<path d="M141.844 49.7893C139.841 49.7893 138.285 49.2276 137.178 48.104C136.07 46.9805 135.517 45.4005 135.517 43.3641V34.1651H132.159V30.5839H132.689C133.584 30.5839 134.279 30.3264 134.774 29.8114C135.269 29.2965 135.517 28.5943 135.517 27.7048V26.2302H139.511V30.5839H143.859V34.1651H139.511V43.1886C139.511 43.844 139.617 44.4057 139.829 44.8739C140.041 45.3186 140.383 45.6697 140.854 45.9272C141.325 46.1612 141.938 46.2783 142.692 46.2783C142.881 46.2783 143.093 46.2666 143.328 46.2432C143.564 46.2198 143.788 46.1964 144 46.173V49.5787C143.67 49.6255 143.305 49.6723 142.904 49.7191C142.504 49.7659 142.15 49.7893 141.844 49.7893Z" fill="#080808"/>
</svg>
