<svg width="177" height="72" viewBox="0 0 177 72" fill="none" xmlns="http://www.w3.org/2000/svg">
<path d="M39.7886 54.4559H7V49.1779L30.6057 23.7132V23.2779H7.70223V18H39.1944V23.2779L15.1566 48.7426V49.1779H39.7886V54.4559Z" fill="#080808"/>
<path d="M57.7685 55C54.8515 55 52.2947 54.4559 50.098 53.3676C47.9013 52.2794 46.1907 50.6833 44.9663 48.5794C43.7779 46.4755 43.1837 43.9363 43.1837 40.9618C43.1837 38.1324 43.7779 35.6657 44.9663 33.5618C46.1907 31.4578 47.8833 29.8255 50.044 28.6647C52.2047 27.4676 54.7435 26.8691 57.6604 26.8691C60.4333 26.8691 62.8641 27.377 64.9528 28.3926C67.0775 29.3721 68.716 30.823 69.8684 32.7456C71.0568 34.6319 71.651 36.9534 71.651 39.7103C71.651 40.1819 71.633 40.6353 71.597 41.0706C71.5609 41.4696 71.5069 41.8686 71.4349 42.2676H46.9109V39.0029H67.5997L66.0872 41.0162C66.1232 40.6534 66.1412 40.3088 66.1412 39.9824C66.1412 39.6196 66.1412 39.2569 66.1412 38.8941C66.1412 36.3912 65.4209 34.5412 63.9805 33.3441C62.576 32.1108 60.4333 31.4941 57.5524 31.4941C54.3473 31.4941 52.0606 32.2377 50.6922 33.725C49.3237 35.2123 48.6395 37.3525 48.6395 40.1456V41.5603C48.6395 44.3897 49.3237 46.548 50.6922 48.0353C52.0606 49.5225 54.3654 50.2662 57.6064 50.2662C60.4153 50.2662 62.432 49.8309 63.6564 48.9603C64.9168 48.0534 65.547 46.802 65.547 45.2059V44.7706H71.3809V45.2603C71.3809 47.1828 70.7867 48.8877 69.5983 50.375C68.4459 51.826 66.8434 52.9686 64.7907 53.8029C62.7741 54.601 60.4333 55 57.7685 55Z" fill="#080808"/>
<path d="M104.056 54.4559H98.2217V39.7647C98.2217 37.2255 97.6095 35.3211 96.3851 34.0515C95.1967 32.7819 93.1981 32.1471 90.3891 32.1471C87.4722 32.1471 85.3115 32.9088 83.907 34.4324C82.5386 35.9196 81.8544 38.1324 81.8544 41.0706L80.828 41.125L80.5579 35.7926H81.7463C82.0344 34.2691 82.6106 32.8363 83.4749 31.4941C84.3752 30.1157 85.5996 29.0093 87.1481 28.175C88.7326 27.3044 90.6592 26.8691 92.928 26.8691C95.4128 26.8691 97.4834 27.377 99.14 28.3926C100.797 29.4083 102.021 30.7686 102.813 32.4735C103.641 34.1784 104.056 36.0828 104.056 38.1868V54.4559ZM81.8544 54.4559H76.0205V27.4132H81.3682V35.9015L81.8544 36.1735V54.4559Z" fill="#080808"/>
<path d="M115.088 54.4559H109.254V27.4132H115.088V54.4559ZM115.088 24.2574H109.254V18H115.088V24.2574Z" fill="#080808"/>
<path d="M138.1 54.4559H131.942C129.061 54.4559 126.774 53.7485 125.081 52.3338C123.425 50.9191 122.597 48.5794 122.597 45.3147V21.4824H128.377V44.9882C128.377 46.6569 128.773 47.7814 129.565 48.3618C130.357 48.9059 131.582 49.1779 133.238 49.1779H138.1V54.4559ZM138.1 32.3103H118.059V27.4132H138.1V32.3103Z" fill="#080808"/>
<path d="M170 54.4559H164.22V39.7647C164.22 37.0441 163.59 35.1034 162.33 33.9426C161.069 32.7456 159.034 32.1471 156.226 32.1471C154.101 32.1471 152.408 32.5279 151.148 33.2897C149.887 34.0152 148.969 35.0672 148.393 36.4456C147.853 37.7877 147.583 39.4201 147.583 41.3426L146.448 41.3971L146.718 35.6838H147.907C148.231 34.1603 148.807 32.7275 149.635 31.3853C150.5 30.0431 151.706 28.9549 153.255 28.1206C154.803 27.2863 156.712 26.8691 158.98 26.8691C161.429 26.8691 163.464 27.377 165.084 28.3926C166.741 29.3721 167.965 30.7324 168.758 32.4735C169.586 34.1784 170 36.1373 170 38.35V54.4559ZM147.583 54.4559H141.749V18H147.583V54.4559Z" fill="#080808"/>
</svg>
