<svg width="312" height="72" viewBox="0 0 312 72" fill="none" xmlns="http://www.w3.org/2000/svg">
<path d="M23.6135 25.3209C30.8321 20.6989 39.7206 19.0936 48.1459 20.4834C40.6256 20.8713 32.9869 22.8968 27.212 27.9498C20.015 33.7031 15.533 42.5486 14.8435 51.7064C12.2254 51.7064 9.61808 51.6957 7 51.6849C8.42217 41.0833 14.3263 30.8803 23.6135 25.3209Z" fill="#080808"/>
<path d="M36.4887 27.2927C40.001 25.5904 43.9335 25.321 47.7367 24.8254C48.0276 33.7894 47.7691 42.7641 47.8768 51.7281C45.3988 51.7712 42.91 51.7389 40.4427 51.4803C40.5936 48.7221 40.6259 45.964 40.5936 43.2059C36.758 43.2705 32.9333 43.3028 29.1085 43.1304C27.6109 45.7809 26.9322 48.776 26.3935 51.7496C24.0878 51.7281 21.7822 51.7281 19.4766 51.7065C20.3924 41.342 26.9106 31.5376 36.4887 27.2927ZM32.7393 37.3771C35.4113 37.4418 38.094 37.4633 40.7767 37.4633C40.766 35.6533 40.7552 33.8325 40.7336 32.0225C37.5876 32.9921 35.045 35.1038 32.7393 37.3771Z" fill="#080808"/>
<path d="M53.6084 51.7467V25.5286H64.4387C66.4017 25.5286 68.0958 25.8828 69.521 26.5912C70.9548 27.291 72.0601 28.2981 72.8367 29.6124C73.6133 30.9182 74.0017 32.4672 74.0017 34.2594C74.0017 36.0773 73.6048 37.622 72.8111 38.8937C72.0174 40.1568 70.8908 41.1212 69.4314 41.7869C67.972 42.4441 66.2438 42.7726 64.2467 42.7726H57.3977V37.7799H63.0689C64.0248 37.7799 64.8228 37.6562 65.4629 37.4087C66.1115 37.1526 66.6022 36.7686 66.9351 36.2565C67.2679 35.7359 67.4343 35.0702 67.4343 34.2594C67.4343 33.4487 67.2679 32.7787 66.9351 32.2496C66.6022 31.7119 66.1115 31.3108 65.4629 31.0462C64.8142 30.7731 64.0163 30.6365 63.0689 30.6365H59.9453V51.7467H53.6084ZM68.3689 39.7642L74.8978 51.7467H67.9848L61.5839 39.7642H68.3689Z" fill="#080808"/>
<path d="M77.4773 25.5286H85.3248L91.9818 41.7613H92.289L98.9459 25.5286H106.793V51.7467H100.623V35.642H100.405L94.1069 51.5803H90.1639L83.8654 35.5524H83.6478V51.7467H77.4773V25.5286Z" fill="#080808"/>
<path d="M135.492 38.6377C135.492 41.5223 134.937 43.9675 133.828 45.9731C132.718 47.9787 131.216 49.5021 129.321 50.5433C127.435 51.5845 125.319 52.1052 122.972 52.1052C120.616 52.1052 118.495 51.5803 116.609 50.5305C114.723 49.4808 113.225 47.9574 112.116 45.9603C111.015 43.9547 110.464 41.5138 110.464 38.6377C110.464 35.753 111.015 33.3078 112.116 31.3022C113.225 29.2966 114.723 27.7732 116.609 26.732C118.495 25.6908 120.616 25.1702 122.972 25.1702C125.319 25.1702 127.435 25.6908 129.321 26.732C131.216 27.7732 132.718 29.2966 133.828 31.3022C134.937 33.3078 135.492 35.753 135.492 38.6377ZM129.014 38.6377C129.014 36.9308 128.771 35.4884 128.284 34.3107C127.807 33.1329 127.115 32.241 126.211 31.6351C125.314 31.0291 124.235 30.7261 122.972 30.7261C121.717 30.7261 120.638 31.0291 119.733 31.6351C118.828 32.241 118.133 33.1329 117.646 34.3107C117.168 35.4884 116.929 36.9308 116.929 38.6377C116.929 40.3446 117.168 41.7869 117.646 42.9647C118.133 44.1424 118.828 45.0343 119.733 45.6402C120.638 46.2462 121.717 46.5492 122.972 46.5492C124.235 46.5492 125.314 46.2462 126.211 45.6402C127.115 45.0343 127.807 44.1424 128.284 42.9647C128.771 41.7869 129.014 40.3446 129.014 38.6377Z" fill="#080808"/>
<path d="M139.192 51.7467V25.5286H150.022C151.985 25.5286 153.679 25.8828 155.104 26.5912C156.538 27.291 157.643 28.2981 158.42 29.6124C159.197 30.9182 159.585 32.4672 159.585 34.2594C159.585 36.0773 159.188 37.622 158.394 38.8937C157.601 40.1568 156.474 41.1212 155.015 41.7869C153.555 42.4441 151.827 42.7726 149.83 42.7726H142.981V37.7799H148.652C149.608 37.7799 150.406 37.6562 151.046 37.4087C151.695 37.1526 152.185 36.7686 152.518 36.2565C152.851 35.7359 153.018 35.0702 153.018 34.2594C153.018 33.4487 152.851 32.7787 152.518 32.2496C152.185 31.7119 151.695 31.3108 151.046 31.0462C150.397 30.7731 149.599 30.6365 148.652 30.6365H145.528V51.7467H139.192ZM153.952 39.7642L160.481 51.7467H153.568L147.167 39.7642H153.952Z" fill="#080808"/>
<path d="M179.985 52.4656H172.304V26.2476H180.446C182.946 26.2476 185.084 26.7682 186.859 27.8094C188.643 28.8506 190.009 30.3441 190.956 32.29C191.903 34.2359 192.377 36.5701 192.377 39.2926C192.377 42.0407 191.89 44.4005 190.918 46.372C189.953 48.3349 188.545 49.8413 186.693 50.891C184.849 51.9408 182.613 52.4656 179.985 52.4656ZM174.698 50.3149H179.844C182.097 50.3149 183.983 49.8711 185.502 48.9836C187.022 48.096 188.161 46.8286 188.92 45.1814C189.68 43.5343 190.06 41.5713 190.06 39.2926C190.051 37.0309 189.676 35.0851 188.933 33.455C188.199 31.8249 187.107 30.5746 185.656 29.704C184.214 28.8335 182.43 28.3983 180.305 28.3983H174.698V50.3149Z" fill="#080808"/>
<path d="M198.179 52.4656V26.2476H213.388V28.3983H200.573V38.2684H212.581V40.4192H200.573V50.3149H213.644V52.4656H198.179Z" fill="#080808"/>
<path d="M240.003 26.2476V52.4656H237.673L222.183 30.5106H221.978V52.4656H219.584V26.2476H221.901L237.442 48.2283H237.647V26.2476H240.003Z" fill="#080808"/>
<path d="M245.386 28.3983V26.2476H264.397V28.3983H256.088V52.4656H253.694V28.3983H245.386Z" fill="#080808"/>
<path d="M266.762 52.4656H264.253L273.79 26.2476H276.35L285.888 52.4656H283.379L275.16 29.3584H274.981L266.762 52.4656ZM268.567 42.4162H281.573V44.5669H268.567V42.4162Z" fill="#080808"/>
<path d="M290.381 52.4656V26.2476H292.775V50.3149H305.27V52.4656H290.381Z" fill="#080808"/>
</svg>
