<svg width="200" height="72" viewBox="0 0 200 72" fill="none" xmlns="http://www.w3.org/2000/svg">
<path d="M87.1475 16.3239C90.1129 16.4127 93.1046 16.1356 96.0544 16.4859C100.5 17.4636 100.689 24.7098 96.4533 26.1684C97.5922 28.3642 98.6787 30.5809 99.8281 32.7715C98.6577 32.7715 97.4925 32.7715 96.3273 32.7767C95.2881 30.6646 94.2698 28.542 93.2359 26.4246C92.2544 26.4194 91.2676 26.4141 90.2861 26.4141C90.2809 28.5315 90.2861 30.6489 90.2861 32.7715C89.2364 32.7715 88.1919 32.7715 87.1527 32.7715C87.1475 27.2925 87.1527 21.8082 87.1475 16.3239ZM90.2914 19.0477C90.2809 20.6371 90.2809 22.2212 90.2861 23.8105C92.0339 23.706 93.8762 24.0928 95.561 23.5125C96.5897 22.4617 96.5792 20.3495 95.5558 19.3039C93.8552 18.8072 92.0392 19.1366 90.2914 19.0477Z" fill="#080808"/>
<path d="M102.895 16.324C106.532 16.324 110.169 16.324 113.801 16.324C113.801 17.2494 113.801 18.18 113.806 19.1053C111.208 19.1053 108.61 19.1053 106.012 19.1053C106.012 20.428 106.012 21.7455 106.017 23.0682C108.316 23.063 110.621 23.0682 112.919 23.0682C112.925 23.9727 112.925 24.8824 112.93 25.7869C110.62 25.8026 108.316 25.7973 106.012 25.7973C106.012 27.1985 106.012 28.6048 106.012 30.006C108.605 30.006 111.198 30.006 113.785 30.006C113.796 30.9261 113.801 31.8515 113.806 32.7716C110.169 32.7769 106.532 32.7716 102.895 32.7769C102.895 27.2926 102.895 21.8083 102.895 16.324Z" fill="#080808"/>
<path d="M118.641 17.0664C121.675 15.2627 125.958 15.7803 128.383 18.3944C127.674 19.0636 126.966 19.7328 126.268 20.402C124.835 18.9851 122.557 18.1643 120.657 19.1472C119.329 19.7484 119.497 21.9861 120.888 22.42C122.793 23.0735 124.971 22.9637 126.693 24.1244C129.537 25.9542 128.965 30.8687 125.958 32.2541C122.714 33.8382 118.536 33.0697 116.096 30.4033C116.783 29.7028 117.487 29.0179 118.185 28.3278C119.702 29.938 122.126 30.9052 124.263 29.9642C125.632 29.3577 125.926 27.0417 124.499 26.3411C122.646 25.536 120.436 25.8601 118.694 24.7204C115.923 23.1938 115.991 18.6819 118.641 17.0664Z" fill="#080808"/>
<path d="M133.149 16.3237C134.183 16.3237 135.222 16.3237 136.261 16.329C136.251 21.8133 136.266 27.2923 136.256 32.7766C135.217 32.7766 134.183 32.7714 133.149 32.7714C133.149 27.2923 133.144 21.808 133.149 16.3237Z" fill="#080808"/>
<path d="M143.304 16.9826C146.328 15.2992 150.547 15.7802 152.899 18.4151C152.19 19.0791 151.492 19.7431 150.794 20.407C149.729 19.4451 148.406 18.6086 146.905 18.7393C145.771 18.687 144.197 19.2987 144.323 20.6632C144.207 21.4736 144.742 22.2212 145.509 22.446C147.498 23.11 149.797 22.9793 151.513 24.3229C154.001 26.273 153.434 30.6698 150.7 32.1389C147.451 33.8747 143.079 33.1427 140.633 30.3562C141.331 29.6817 142.029 29.0125 142.732 28.3433C144.265 29.9588 146.742 30.9208 148.873 29.9274C150.191 29.2844 150.437 26.9422 148.983 26.3253C147.047 25.5045 144.721 25.86 142.963 24.5477C140.37 22.8329 140.638 18.4988 143.304 16.9826Z" fill="#080808"/>
<path d="M154.887 16.3237C159.075 16.329 163.264 16.3237 167.452 16.329C167.452 17.2543 167.452 18.1797 167.452 19.1051C165.872 19.1051 164.298 19.1051 162.723 19.1051C162.723 23.6588 162.723 28.2177 162.723 32.7714C161.684 32.7714 160.65 32.7714 159.611 32.7766C159.606 28.2177 159.611 23.664 159.611 19.1051C158.036 19.1051 156.456 19.1051 154.882 19.1051C154.882 18.1797 154.882 17.2543 154.887 16.3237Z" fill="#080808"/>
<path d="M170.687 22.6133C170.692 20.4698 170.687 18.3315 170.692 16.1932C174.487 16.1984 178.276 16.1932 182.071 16.1879C185.377 16.1566 188.71 17.7721 190.589 20.5064C193.145 24.1713 193.418 29.0909 192.075 33.2525C191.067 36.358 188.453 38.6741 185.409 39.7406C188.17 45.1465 190.957 50.5419 193.618 56.0001C190.815 55.9844 188.012 55.9948 185.215 55.9948C182.732 50.8347 180.197 45.7059 177.709 40.551C175.374 40.5353 173.038 40.5405 170.702 40.5405C170.681 38.4284 170.681 36.311 170.702 34.1936C174.166 34.1518 177.636 34.2772 181.1 34.1413C183.058 34.0315 184.874 32.4944 184.952 30.4764C184.984 28.772 185.194 26.9997 184.742 25.3319C184.217 23.5125 182.27 22.5819 180.48 22.6238C177.216 22.5872 173.951 22.6238 170.687 22.6133Z" fill="#080808"/>
<path d="M6.38379 38.8988C9.3965 39.0243 12.4512 38.6426 15.4377 39.1079C19.2954 39.8451 19.4476 46.6416 15.1647 46.7828C16.2512 46.8821 17.4164 47.154 18.0987 48.0794C20.1562 50.5784 18.4451 55.0694 15.1437 55.3726C12.2255 55.4981 9.30202 55.383 6.38904 55.4196C6.38379 49.9144 6.38379 44.4092 6.38379 38.8988ZM9.43324 41.5233C9.42274 42.9454 9.42274 44.3674 9.42799 45.7947C10.8504 45.7842 12.2675 45.8522 13.6846 45.7529C15.7211 45.5124 15.6738 41.7481 13.6164 41.586C12.2255 41.4501 10.8241 41.5338 9.43324 41.5233ZM9.42274 48.3774C9.42274 49.836 9.42274 51.2999 9.42274 52.7585C10.9553 52.7481 12.4932 52.816 14.0258 52.7324C16.1147 52.701 16.3299 49.193 14.6346 48.4662C12.9078 48.2676 11.16 48.4087 9.42274 48.3774Z" fill="#080808"/>
<path d="M25.3837 39.2702C28.8006 37.7383 33.5821 38.9513 34.9467 42.6841C36.2694 46.302 36.2116 51.0282 33.3616 53.935C31.1362 56.0106 27.5094 56.1465 24.8799 54.7925C22.1086 53.2136 21.2058 49.7682 21.3108 46.7882C21.3318 43.8657 22.4918 40.5092 25.3837 39.2702ZM27.2523 41.581C25.494 42.1038 24.6437 43.9964 24.6227 45.706C24.586 47.6613 24.3393 49.878 25.5674 51.5563C27.226 53.7364 31.2202 53.2083 32.0862 50.542C32.6321 48.6337 32.4536 46.5895 32.3119 44.6342C32.0862 42.2868 29.4462 40.7654 27.2523 41.581Z" fill="#080808"/>
<path d="M43.0705 38.9668C45.6371 38.2662 48.7652 38.6426 50.6023 40.7339C52.5495 42.9349 52.8277 46.0613 52.5547 48.8636C52.2923 51.5875 50.723 54.4368 47.9674 55.2942C45.3799 56.0209 42.1782 55.7438 40.2992 53.6212C38.1578 51.2006 37.9111 47.6873 38.4202 44.6341C38.8453 42.1193 40.5039 39.6621 43.0705 38.9668ZM43.7161 41.7586C42.2202 42.4226 41.5012 44.1374 41.5431 45.6902C41.5956 47.5304 41.2072 49.559 42.2202 51.2163C43.4536 53.3389 46.8967 53.4957 48.3821 51.5718C49.3583 50.3745 49.3321 48.7486 49.3426 47.2847C49.3321 45.7843 49.4161 44.1217 48.4713 42.8461C47.4268 41.3874 45.2959 41.011 43.7161 41.7586Z" fill="#080808"/>
<path d="M55.8516 38.8989C56.9065 38.8989 57.9668 38.8989 59.0217 38.8989C59.0322 41.6385 59.006 44.3728 59.0375 47.1071C61.1317 44.3048 63.3623 41.6071 65.5773 38.8989C66.7844 38.8989 67.9916 38.8989 69.204 38.9042C67.2673 41.1941 65.3411 43.484 63.4096 45.7791C65.4775 49.0049 67.5927 52.2045 69.6817 55.4198C68.4325 55.4198 67.1886 55.4198 65.9394 55.425C64.3543 52.926 62.7745 50.4269 61.1894 47.9331C60.4756 48.7801 59.7565 49.627 59.0322 50.4687C59.0217 52.1156 59.0217 53.7677 59.0217 55.4198C57.9668 55.4198 56.9065 55.4198 55.8516 55.425C55.8516 49.9146 55.8516 44.4094 55.8516 38.8989Z" fill="#080808"/>
<path d="M74.1423 39.2963C77.1288 38.0363 80.9655 38.5277 83.1805 41.0268C82.4666 41.696 81.7581 42.3652 81.0548 43.0344C79.6849 41.5653 77.4962 40.9065 75.5962 41.6751C74.1528 42.2554 74.2473 44.5924 75.7327 45.0472C77.8321 45.7425 80.32 45.5805 82.052 47.1489C84.3666 49.3552 83.4954 53.7991 80.5194 54.9963C77.2967 56.3713 73.2606 55.6498 70.9092 52.9887C71.602 52.3038 72.3001 51.6242 73.0086 50.955C74.4992 52.5182 76.8034 53.4488 78.9238 52.6646C80.2045 52.1679 80.6454 50.3537 79.8108 49.3134C78.7244 48.3461 77.155 48.5239 75.8324 48.1789C74.0584 47.8756 72.1688 46.8509 71.6597 45.0106C70.9144 42.8357 71.9747 40.1851 74.1423 39.2963Z" fill="#080808"/>
<path d="M86.4707 38.9041C90.108 38.8988 93.7453 38.8988 97.3826 38.9041C97.3826 39.8294 97.3826 40.7548 97.3826 41.6802C94.7845 41.675 92.1812 41.6802 89.5831 41.675C89.5831 43.0134 89.5831 44.3518 89.5831 45.6902C91.8768 45.6954 94.1652 45.6902 96.4588 45.6954C96.4693 46.6103 96.4746 47.5252 96.4798 48.4402C94.1809 48.4402 91.882 48.4402 89.5831 48.4402C89.5831 49.8361 89.5831 51.2372 89.5831 52.6331C92.1864 52.6331 94.7845 52.6331 97.3826 52.6331C97.3826 53.5637 97.3826 54.4891 97.3826 55.4197C93.7453 55.4145 90.108 55.4301 86.4707 55.4197C86.476 49.9145 86.4707 44.4093 86.4707 38.9041Z" fill="#080808"/>
<path d="M100.75 38.9042C101.773 38.8989 102.802 38.8989 103.831 38.8989C103.831 43.4788 103.831 48.0586 103.831 52.6332C106.009 52.6332 108.187 52.6332 110.365 52.6332C110.365 53.5638 110.365 54.4892 110.365 55.4145C107.164 55.4198 103.957 55.4145 100.755 55.4198C100.745 49.9146 100.755 44.4094 100.75 38.9042Z" fill="#080808"/>
<path d="M113.062 38.9041C114.112 38.8989 115.162 38.8989 116.217 38.8884C116.264 43.4683 116.227 48.0533 116.238 52.6331C118.421 52.6331 120.61 52.6279 122.799 52.6384C122.793 53.5638 122.783 54.4944 122.772 55.425C119.534 55.4093 116.301 55.4197 113.062 55.4197C113.062 49.9145 113.062 44.4093 113.062 38.9041Z" fill="#080808"/>
<path d="M125.449 38.9042C129.086 38.8989 132.723 38.9042 136.36 38.8989C136.36 39.8243 136.355 40.7497 136.36 41.6803C133.762 41.6751 131.164 41.6855 128.566 41.6698C128.524 43.0135 128.524 44.3571 128.566 45.7007C130.87 45.6902 133.169 45.6955 135.473 45.6955C135.473 46.6104 135.473 47.5253 135.479 48.4402C133.175 48.4402 130.865 48.4402 128.561 48.435C128.561 49.8361 128.561 51.2321 128.524 52.6332C131.138 52.6332 133.747 52.6332 136.36 52.6332C136.355 53.5586 136.355 54.4892 136.355 55.4198C132.723 55.4145 129.086 55.4145 125.454 55.4198C125.443 49.9146 125.449 44.4094 125.449 38.9042Z" fill="#080808"/>
<path d="M139.704 38.904C142.717 39.0243 145.772 38.6322 148.753 39.1341C153.083 40.2268 153.246 47.3475 149.02 48.7381C150.144 50.9705 151.283 53.1925 152.406 55.4249C151.241 55.4197 150.075 55.4197 148.91 55.4197C147.871 53.2971 146.826 51.1744 145.803 49.0466C144.811 49.0466 143.819 49.0414 142.827 49.0414C142.827 51.1692 142.827 53.2918 142.827 55.4197C141.788 55.4197 140.743 55.4197 139.709 55.4249C139.699 49.9145 139.709 44.4093 139.704 38.904ZM142.822 41.6279C142.827 43.2225 142.827 44.817 142.827 46.4116C144.696 46.1711 146.926 47.0129 148.527 45.7633C148.905 44.587 149.178 42.8565 148.123 41.952C146.449 41.3038 144.575 41.7481 142.822 41.6279Z" fill="#080808"/>
<path d="M157.107 39.5679C160.141 37.9367 164.319 38.4072 166.67 41.0265C165.951 41.6957 165.238 42.3649 164.529 43.0393C163.474 42.0042 162.104 41.1886 160.572 41.3872C159.511 41.3088 158.115 41.8787 158.073 43.0916C157.869 44.0849 158.651 45.0103 159.616 45.1672C161.689 45.737 164.13 45.6847 165.726 47.3368C167.799 49.6163 166.891 53.8249 164.004 55.0013C160.781 56.371 156.74 55.6443 154.389 52.9832C155.081 52.3035 155.785 51.6239 156.499 50.9547C157.984 52.5179 160.267 53.4433 162.393 52.6695C163.952 52.1258 164.267 49.4699 162.619 48.8582C160.666 48.1524 158.357 48.4191 156.635 47.0911C154.116 45.3345 154.441 41.037 157.107 39.5679Z" fill="#080808"/>
</svg>
