<svg width="167" height="72" viewBox="0 0 167 72" fill="none" xmlns="http://www.w3.org/2000/svg">
<path d="M88.4217 19H94.3957C94.3899 25.0775 94.4189 31.1611 94.3726 37.2386C94.4015 38.3011 94.3552 39.4 94.6449 40.4321C95.3344 41.5918 96.7772 41.0089 97.8434 41.1121C97.6985 42.3568 97.5595 43.6014 97.432 44.8521C95.0621 45.6232 92.2634 46.1514 90.0673 44.5971C88.4797 43.2918 88.4507 40.9604 88.4102 39.0357C88.4275 32.3571 88.4217 25.6786 88.4217 19Z" fill="#080808"/>
<path d="M153.792 19H159.69V45.2164C157.935 45.2286 156.185 45.2104 154.429 45.2225C154.394 44.1418 154.354 43.0611 154.308 41.9804C153.438 43.0671 152.627 44.2996 151.37 44.925C148.276 46.54 143.988 45.2589 142.475 41.9196C140.76 38.3071 140.766 33.7718 142.516 30.1775C144.005 27.0386 147.922 25.6239 150.993 26.905C152.233 27.4393 153.01 28.6536 153.861 29.6796C153.722 26.1218 153.803 22.5579 153.792 19ZM149.353 31.3371C146.844 32.5393 147.204 36.0304 147.534 38.3921C147.847 40.7357 151.074 41.95 152.598 40.0921C154.018 38.4043 153.948 35.8907 153.577 33.8082C153.27 31.8471 151.144 30.3657 149.353 31.3371Z" fill="#080808"/>
<path d="M15.9099 20.9006C18.3377 20.8946 20.7598 20.9006 23.1876 20.9006C25.9167 28.9999 28.5706 37.1296 31.3345 45.2167C29.2369 45.2228 27.1394 45.2228 25.0418 45.2167C24.5319 43.371 23.9814 41.5435 23.431 39.7099C20.8061 39.7221 18.1871 39.7221 15.568 39.716C15.0234 41.5556 14.4555 43.3831 13.8935 45.2167C11.8886 45.2106 9.88375 45.2289 7.87891 45.2228V45.0346C10.4632 36.9596 13.2908 28.9696 15.9099 20.9006ZM16.6979 35.4296C18.5695 35.4296 20.4411 35.4356 22.3184 35.4296C21.3971 32.151 20.3426 28.9089 19.5082 25.606C18.5463 28.8724 17.6076 32.1449 16.6979 35.4296Z" fill="#080808"/>
<path d="M72.0856 30.2505C73.3314 28.083 75.429 26.2676 77.9727 26.4437C81.3103 26.298 84.1263 29.1394 84.7579 32.4483C85.43 36.2855 85.32 40.8755 82.4807 43.7837C79.6473 46.6251 74.4787 46.1273 72.5318 42.3994C72.6477 45.933 72.584 49.4666 72.5782 53.0001H66.5694C66.5231 44.2755 66.5578 35.5448 66.552 26.8201C68.3599 26.8141 70.1677 26.8201 71.9756 26.8201C72.0161 27.9616 72.0509 29.103 72.0856 30.2505ZM74.6468 31.3251C72.3 32.6001 72.3464 36.0123 72.8621 38.3558C73.146 40.5841 75.8694 41.7983 77.5729 40.408C79.3518 38.8173 79.2069 36.0123 78.8477 33.8205C78.5811 31.8351 76.4256 30.4023 74.6468 31.3251Z" fill="#080808"/>
<path d="M104.018 27.3968C107.959 25.5936 113.504 26.1582 115.937 30.2625C117.351 32.4057 117.282 35.1014 117.166 37.5846C113.087 37.6211 109.013 37.5543 104.94 37.6271C105.426 38.9871 105.954 40.675 107.524 41.0028C109.338 41.6707 111.14 40.7053 112.206 39.1632C113.805 39.6611 115.393 40.2136 116.969 40.7903C114.889 45.6839 108.706 46.5521 104.378 44.7793C97.6214 42.1564 97.4881 30.39 104.018 27.3968ZM104.998 34.1968C107.194 34.2271 109.396 34.2271 111.592 34.2028C111.174 32.7457 110.508 30.7968 108.741 30.8575C106.701 30.4871 105.461 32.4057 104.998 34.1968Z" fill="#080808"/>
<path d="M125.915 30.3052C127.932 25.0291 136.722 25.0837 137.852 30.967C138.35 35.6845 137.939 40.4687 138.066 45.2166C136.055 45.2166 134.039 45.2166 132.023 45.2227C131.895 41.1366 132.295 37.0202 131.808 32.9645C131.124 30.2566 126.976 31.052 126.634 33.5837C126.205 37.4391 126.553 41.3491 126.448 45.2227C124.432 45.2227 122.415 45.2227 120.399 45.2105C120.393 39.0784 120.399 32.9462 120.399 26.808C122.195 26.8141 123.986 26.8202 125.782 26.8202C125.84 27.9798 125.881 29.1395 125.915 30.3052Z" fill="#080808"/>
<path d="M46.5693 28.0889C49.3622 26.2432 52.1493 24.3975 54.9074 22.5032C57.6945 24.4582 60.4758 26.4314 63.3034 28.3196C63.3208 33.9478 63.3092 39.5821 63.3092 45.2164C61.681 45.2164 60.0528 45.2164 58.4246 45.2103C58.4188 40.086 58.4188 34.9678 58.4246 29.8435C57.2773 29.0239 56.1242 28.2285 54.9654 27.4332C53.4241 28.52 51.8828 29.5946 50.3009 30.6146C49.0435 29.795 47.7862 28.9753 46.5693 28.0889Z" fill="#080808"/>
<path d="M33.6816 26.82C35.3156 26.82 36.9497 26.82 38.5837 26.82C38.5895 27.3846 38.5953 28.5139 38.6011 29.0786C39.8816 28.2225 41.1622 27.3725 42.4543 26.5286C45.2588 28.4775 48.0864 30.3839 50.8387 32.4118C50.8156 36.68 50.8329 40.9482 50.8272 45.2164C49.1989 45.2164 47.5707 45.2103 45.9425 45.2103C45.9367 41.3914 45.9425 37.5664 45.9367 33.7475C44.7662 33.0068 43.6421 32.1811 42.4659 31.4464C41.168 32.2903 39.8816 33.1586 38.5953 34.0146C38.5837 37.7486 38.5953 41.4825 38.5837 45.2164C36.9497 45.2164 35.3157 45.2103 33.6874 45.2103C33.6816 39.0782 33.6816 32.9521 33.6816 26.82Z" fill="#080808"/>
<path d="M52.9832 33.1523C54.1305 33.1523 55.2894 33.1523 56.4424 33.1523C56.4424 34.3727 56.4424 35.587 56.4424 36.8073C55.2836 36.7952 54.1247 36.8013 52.9658 36.7952C52.9716 35.5809 52.9658 34.3666 52.9832 33.1523Z" fill="#080808"/>
<path d="M40.7285 36.0547C41.8642 36.0608 42.9999 36.0547 44.1356 36.0608C44.1298 37.2568 44.1356 38.459 44.1298 39.6611C42.9941 39.6611 41.8642 39.6611 40.7285 39.6611C40.7285 38.459 40.7285 37.2568 40.7285 36.0547Z" fill="#080808"/>
</svg>
