<svg width="176" height="72" viewBox="0 0 176 72" fill="none" xmlns="http://www.w3.org/2000/svg">
<path d="M38.6279 53H33.1892L22.8039 24.2238L12.4387 53H7L19.7064 19H25.9215L38.6279 53Z" fill="#080808"/>
<path d="M67.4083 35.7121L79.9938 53H73.7485L63.7824 38.8752L53.8164 53H47.5752L60.0988 35.7121L48.3136 19H54.4722L63.7824 32.4091L73.1586 19H79.276L67.4083 35.7121Z" fill="#080808"/>
<path d="M94.4763 19H88.9414V53H94.4763V19Z" fill="#080808"/>
<path d="M126.576 34.9516C128.799 33.6443 129.53 31.7079 129.53 27.8104C129.53 21.142 127.168 19 119.81 19H103.423V53H119.81C123.294 53 125.779 52.4285 127.39 51.2445C129.489 49.7357 130.307 47.4498 130.307 43.0467C130.307 38.2118 129.427 36.0904 126.576 34.9516ZM108.702 23.584H119.954C123.499 23.584 124.251 24.3611 124.251 28.0324C124.251 31.9669 123.232 33.1098 119.708 33.1098H108.702V23.584ZM118.993 48.4283H108.702V37.6815H118.993C124.169 37.6815 125.007 38.4133 125.007 43.0261C125.007 47.6389 124.185 48.4283 118.993 48.4283Z" fill="#080808"/>
<path d="M165.759 21.5816C163.677 19.718 160.359 19 153.892 19C147.889 19 144.613 19.6172 142.551 21.1379C140.244 22.8199 139.254 25.6435 139.254 30.6251V41.391C139.254 50.5193 142.388 53 153.831 53C159.915 53 163.09 52.399 165.172 50.8581C167.479 49.1761 168.51 46.2678 168.51 41.391V30.6251C168.51 26.0993 167.662 23.2757 165.759 21.5816ZM163.273 41.1934C163.273 47.6957 162.747 48.5186 153.9 48.5186C145.053 48.5186 144.527 47.7118 144.527 41.1934V30.8066C144.527 24.3003 145.053 23.4814 153.9 23.4814C162.747 23.4814 163.273 24.2882 163.273 30.8066V41.1934Z" fill="#080808"/>
</svg>
