<svg width="187" height="72" viewBox="0 0 187 72" fill="none" xmlns="http://www.w3.org/2000/svg">
<path d="M7 35.5745H27.5178V56H7V35.5745Z" fill="#080808"/>
<path d="M67.9836 56C65.2479 24 39.8666 16 27.5178 16V35.5745C42.1083 36.0284 47.0858 49.3806 47.7507 56H67.9836Z" fill="#080808"/>
<path d="M99.8083 26.8211H104.5V55.6275H99.8083L85.6918 34.1469V55.6275H81V26.8211H85.6918L99.8083 48.2603V26.8211Z" fill="#080808"/>
<path d="M129.387 44.2043C129.387 51.3645 124.119 56 117.617 56C111.155 56 106.258 51.3645 106.258 44.2043C106.258 37.0441 111.361 32.4499 117.822 32.4499C124.284 32.4499 129.387 37.0441 129.387 44.2043ZM111.032 44.2043C111.032 49.3778 114.077 51.9025 117.617 51.9025C121.115 51.9025 124.572 49.3778 124.572 44.2043C124.572 39.0307 121.238 36.5474 117.74 36.5474C114.201 36.5474 111.032 39.0307 111.032 44.2043Z" fill="#080808"/>
<path d="M131.144 55.6275V25H135.836V55.6275H131.144Z" fill="#080808"/>
<path d="M159.652 32.8224V55.6275H154.96V52.8959C153.479 54.8411 150.927 55.9586 148.252 55.9586C142.943 55.9586 138.909 52.6061 138.909 46.2323V32.8224H143.56V45.5287C143.56 49.7089 145.824 51.8611 149.239 51.8611C152.697 51.8611 154.96 49.7089 154.96 45.5287V32.8224H159.652Z" fill="#080808"/>
<path d="M174.691 55.6275L169.793 47.8879L165.184 55.6275H160.286L167.612 44.4112L160.286 32.8224H165.595L170.493 40.5621L175.102 32.8224H180L172.674 44.0801L180 55.6275H174.691Z" fill="#080808"/>
</svg>
