<svg width="131" height="72" viewBox="0 0 131 72" fill="none" xmlns="http://www.w3.org/2000/svg">
<path d="M84.1123 46.1543C84.4402 46.2044 84.8309 46.1707 85.0832 46.4275C85.1151 46.4697 85.1359 46.5193 85.1438 46.5716C85.1516 46.6239 85.1462 46.6774 85.1281 46.7271C85.11 46.7768 85.0797 46.8212 85.0401 46.8562C85.0004 46.8912 84.9526 46.9157 84.901 46.9275C84.6415 46.9786 84.3764 46.9275 84.1169 46.9075C84.1123 46.6543 84.1123 46.402 84.1123 46.1543Z" fill="#080808"/>
<path d="M84.1154 44.8425C84.3768 44.8935 84.6691 44.8872 84.8968 45.0447C84.9315 45.1004 84.9538 45.1629 84.9622 45.228C84.9705 45.2931 84.9647 45.3592 84.9451 45.4218C84.6992 45.5921 84.3904 45.5129 84.1145 45.5074C84.1126 45.2852 84.1129 45.0635 84.1154 44.8425Z" fill="#080808"/>
<path d="M88.002 45.2769C88.2752 45.3351 88.5812 45.3351 88.8217 45.5018C89.0248 45.6412 89.0475 45.9909 88.8308 46.1303C88.5867 46.2978 88.2743 46.1776 88.0038 46.1667C88.002 45.8698 88.002 45.5729 88.002 45.2769Z" fill="#080808"/>
<path d="M45.6303 44.7223C45.8972 44.705 46.1768 44.6313 46.44 44.7223C46.6686 44.8325 46.6586 45.1777 46.4956 45.338C46.277 45.5767 45.9227 45.5539 45.6303 45.6113C45.6297 45.3137 45.6297 45.0174 45.6303 44.7223Z" fill="#080808"/>
<path d="M60.9674 6.53653C64.085 6.49192 67.2045 6.48008 70.3221 6.54746C71.2593 6.6203 72.2001 6.59025 73.1373 6.65762C88.5122 7.3514 103.804 10.1374 118.409 15.0066C120.042 15.5772 121.458 16.6391 122.463 18.0466C123.442 19.4314 124.012 21.1176 124 22.8192C124 31.4383 124 40.0573 124 48.6763C123.994 50.5646 123.339 52.3935 122.145 53.8559C121.122 55.1191 119.752 56.0558 118.204 56.5509C102.827 61.6316 86.7932 64.4501 70.6053 64.9181C69.4213 64.9991 68.2373 64.9709 67.0533 64.9781C66.0211 65.0073 64.9888 65.0073 63.9566 64.9781C62.82 64.97 61.6797 64.9982 60.5476 64.9272C44.8948 64.4825 29.3818 61.845 14.4621 57.0917C13.4529 56.7512 12.4074 56.4899 11.4565 55.9901C8.91725 54.6817 7.15853 51.984 7.01281 49.1306C6.98913 48.5243 7.00643 47.917 7.00188 47.3097C7.00188 39.1156 7.00188 30.9214 7.00188 22.7273C7.00188 19.6963 8.86443 16.7838 11.5722 15.4436C12.2207 15.1058 12.9274 14.9055 13.6178 14.6715C25.261 10.8869 37.2861 8.39694 49.4752 7.24669C53.3005 6.8734 57.1312 6.66582 60.9674 6.53653ZM56.695 15.9188C55.2077 16.6964 54.0118 17.9501 53.1311 19.3631C52.1939 20.9109 51.8059 22.7072 51.5463 24.4735C51.1028 27.7057 51.2348 31.0935 52.4307 34.1599C52.9945 35.5721 53.7368 36.976 54.9353 37.9529C57.4281 40.0552 61.299 40.2291 64.0113 38.4482C64.831 37.8783 65.4858 37.1016 66.0241 36.2686C66.7955 35.1086 67.2254 33.7575 67.4595 32.3945C67.5269 31.9657 67.6353 31.5387 67.6271 31.1026C67.6353 30.9205 67.5305 30.692 67.321 30.6829C66.7463 30.6428 66.1707 30.7056 65.596 30.6984C65.3656 30.7339 65.0496 30.6528 64.8956 30.8677C64.7481 31.2619 64.7627 31.6944 64.6798 32.1041C64.4667 33.2713 63.9794 34.4404 63.0914 35.257C62.3464 35.9472 61.2607 36.2968 60.2598 36.0564C59.1768 35.796 58.2615 35.0404 57.6668 34.1144C57.0456 33.1593 56.7833 32.0313 56.5638 30.9278C56.1052 28.4916 56.0981 25.9918 56.5429 23.5531C56.7624 22.3403 57.1959 21.1485 57.909 20.1388C58.45 19.395 59.1841 18.7267 60.1031 18.5164C61.0949 18.2715 62.1706 18.6238 62.8937 19.3276C63.7699 20.1871 64.2444 21.3525 64.6242 22.496C64.7071 22.7081 64.7526 22.9512 64.9193 23.1179C65.3155 23.2162 65.729 23.1406 66.1325 23.1434C66.4312 23.116 66.77 23.1525 67.0314 22.9868C67.1462 22.8047 67.1289 22.5734 67.1389 22.3658C67.1334 20.6359 67.1389 18.9061 67.1389 17.1762C67.1389 16.4678 67.2664 15.7377 67.0478 15.0493C66.5296 15.1468 66.2991 15.6575 65.9485 15.9871C65.6215 16.3194 65.1725 16.6163 64.6843 16.527C64.0331 16.3968 63.5395 15.9116 62.9484 15.643C60.9884 14.6806 58.5939 14.9128 56.695 15.9188ZM68.8994 15.3416C69.1144 15.7449 69.4377 16.0745 69.6791 16.4615C70.1089 17.1471 70.4386 17.9182 70.4614 18.7431C70.5197 21.195 70.5343 23.6468 70.5352 26.0987C70.4687 27.8614 70.5917 29.6231 70.5352 31.3848C70.5115 32.9044 70.5224 34.4276 70.3831 35.9417C70.34 36.5631 70.1469 37.1648 69.8202 37.6953C69.547 38.1778 69.0707 38.5147 68.8348 39.0236C69.0785 39.1155 69.3338 39.1731 69.5934 39.1948C71.5352 39.3696 73.4843 39.4406 75.4224 39.6227C75.8842 39.6364 76.3733 39.7839 76.8096 39.5672C76.0144 38.6057 75.2676 37.4877 75.2375 36.1985C75.2166 34.9557 75.1747 33.712 75.1865 32.4656C75.161 32.0049 75.4771 31.6461 75.7175 31.282C76.0727 30.7839 76.387 30.2541 76.7986 29.7979C77.172 30.5836 77.4362 31.4167 77.7923 32.2088C78.3319 33.4378 78.7973 34.698 79.1858 35.9827C79.3452 36.5362 79.6412 37.0689 79.6357 37.657C79.5519 38.3198 79.0401 38.816 78.5783 39.254C78.4517 39.3905 78.2522 39.5125 78.2695 39.7238C78.6612 39.9059 79.1047 39.8694 79.5237 39.9059C81.1986 40.0169 82.8708 40.1526 84.5457 40.2591C85.3144 40.2974 86.0858 40.4476 86.8555 40.342C86.615 39.8494 86.1542 39.528 85.8153 39.1101C85.2926 38.5201 84.9701 37.7918 84.6769 37.0689C84.3007 36.1338 83.9482 35.1878 83.5539 34.2601C82.3034 31.4103 81.2888 28.4668 80.143 25.5752C80.0732 25.4218 80.0333 25.2565 80.0255 25.0881C80.1166 24.7986 80.3079 24.5564 80.459 24.2969C81.2159 23.0122 82.1312 21.8323 82.9637 20.5986C83.6823 19.4733 84.3754 18.2687 85.5011 17.4967C85.8308 17.2381 86.2607 17.1106 86.5385 16.7883L86.5203 16.5562C86.0257 16.4114 85.4993 16.4505 84.992 16.3877C83.3526 16.3103 81.7077 16.1902 80.0738 16.0363C79.878 16.0363 79.6029 15.9571 79.4845 16.1665C79.725 16.6217 80.1512 16.9695 80.3215 17.4712C80.5283 17.9847 80.3844 18.5637 80.1193 19.0253C79.5729 19.9831 79.0264 20.9491 78.3888 21.8478C77.3934 23.2417 76.5008 24.7039 75.5736 26.1415C75.4717 26.2888 75.3588 26.4282 75.2357 26.5585C75.1729 25.6116 75.2357 24.6611 75.1947 23.7133C75.1337 22.3343 75.1592 20.9529 75.2712 19.5771C75.3186 19.0308 75.3523 18.4663 75.5518 17.9455C75.754 17.3738 76.1228 16.8803 76.5409 16.4469C76.6538 16.2967 76.866 16.1273 76.7768 15.9179C76.5946 15.8059 76.3733 15.7968 76.1675 15.7704C74.2548 15.5984 72.3422 15.5364 70.4295 15.3498C69.9186 15.3198 69.404 15.2387 68.8976 15.3416H68.8994ZM40.8674 16.5088C40.0185 16.6167 39.1921 16.8588 38.4192 17.2263C36.5294 18.1203 35.0548 19.7437 34.1386 21.6038C33.4345 23.0605 32.8753 24.6001 32.6003 26.1979C32.1507 29.1698 32.2872 32.201 33.0019 35.1205C33.3981 36.691 34.155 38.2006 35.3372 39.3277C36.2552 40.25 37.432 40.9411 38.728 41.1486C40.4239 41.4363 42.1817 40.9893 43.6526 40.1335C45.1836 39.2503 46.405 37.8883 47.2247 36.3314C47.9721 34.892 48.5045 33.3509 48.8049 31.7572C49.1173 30.0137 49.1692 28.231 49.0644 26.4656C48.9297 24.4453 48.62 22.3922 47.7265 20.5549C47.089 19.2211 46.1609 17.9747 44.8639 17.2253C43.6717 16.5115 42.2281 16.3477 40.8674 16.5088ZM97.2165 18.9143C96.8522 20.157 96.0206 21.2077 95.0543 22.0481C94.6326 22.4569 94.1025 22.7692 93.802 23.2881C94.4687 23.8271 95.3822 23.7051 96.1536 23.9682C96.3686 24.0684 96.3285 24.3497 96.3513 24.5446C96.3513 25.5178 96.3631 26.4911 96.3312 27.4635C96.3312 29.8003 96.3312 32.1372 96.3312 34.474C96.2893 35.9945 96.3458 37.5223 96.1491 39.0355C96.0416 39.7784 95.689 40.4641 95.1472 40.9838C94.9482 41.1623 94.796 41.3868 94.7037 41.6376C95.159 41.8351 95.6627 41.9034 96.1509 42.0017C97.4688 42.2539 98.7976 42.4479 100.115 42.7055C100.896 42.8275 101.663 43.0697 102.464 43.0561C102.32 42.7301 102.1 42.4451 101.903 42.1538C101.503 41.5577 101.208 40.8966 101.034 40.1999C100.9 39.6355 100.932 39.0528 100.911 38.4783C100.865 36.5982 100.893 34.7171 100.886 32.8334C100.867 30.7985 100.97 28.7645 100.902 26.7333C100.835 24.215 100.953 21.6948 100.897 19.1765C100.901 19.142 100.897 19.1072 100.887 19.0742C100.876 19.0412 100.859 19.0108 100.836 18.985C100.813 18.9593 100.784 18.9386 100.753 18.9246C100.721 18.9105 100.687 18.9032 100.652 18.9033C99.6811 18.7212 98.7093 18.5492 97.7375 18.3935C97.4223 18.3261 97.2848 18.6684 97.2165 18.9143V18.9143ZM104.006 19.6809C103.898 20.2062 104.006 20.7452 103.982 21.276C103.951 22.3385 103.948 23.401 103.982 24.4626C103.977 24.5319 103.988 24.6013 104.014 24.6659C104.039 24.7306 104.078 24.7889 104.128 24.8368C104.435 24.8086 104.675 24.5964 104.933 24.4499C105.562 24.0685 106.307 23.922 107.034 24.0365C109.076 24.3097 111.058 24.8905 113.058 25.3667C113.281 25.4068 113.585 25.5315 113.523 25.8174C113.311 27.2741 112.666 28.6325 111.923 29.8917C111.059 31.3666 109.882 32.6294 109.05 34.1244C108.29 35.3763 107.799 36.7648 107.328 38.1423C106.761 39.833 106.508 41.6148 106.457 43.3929C106.43 43.6661 106.54 43.9838 106.834 44.0548C108.23 44.49 109.689 44.6794 111.091 45.0909C111.302 45.141 111.62 45.2667 111.747 45.0081C111.844 44.6648 111.784 44.3016 111.779 43.951C111.708 42.278 111.953 40.6066 112.502 39.0245C113 37.5878 113.479 36.1365 114.172 34.779C114.693 33.7575 115.124 32.6941 115.586 31.6452C116.087 30.509 116.521 29.3363 116.736 28.109C117.068 26.431 117.026 24.713 117.002 23.0104C116.996 22.7245 116.729 22.5479 116.471 22.5024C114.459 22.0116 112.434 21.5774 110.426 21.0684C108.443 20.5804 106.468 20.0505 104.475 19.6044C104.335 19.6117 104.058 19.5042 104.006 19.6809V19.6809ZM20.8694 20.727C19.516 21.011 18.1917 21.4117 16.8392 21.7003C15.8738 21.9297 14.8956 22.1255 13.9575 22.4532C14.0231 22.8739 14.402 23.1024 14.6552 23.4056C15.0786 23.9074 15.3377 24.5272 15.3975 25.181C15.565 26.7287 15.5213 28.2765 15.5669 29.8307C15.5914 31.7427 15.504 33.6546 15.5669 35.5666C15.5669 37.5095 15.5404 39.4524 15.5177 41.3935C15.4913 42.08 15.5414 42.7811 15.3546 43.4512C15.1382 44.2178 14.7923 44.9417 14.3318 45.5917C14.2001 45.7827 14.0867 45.9858 13.993 46.1981C14.687 46.1981 15.3419 45.9386 16.0122 45.7929C18.0014 45.2575 20.0197 44.856 22.0179 44.3416C23.3458 43.9865 24.7065 43.6051 25.8432 42.7938C27.1921 41.846 28.1848 40.4621 28.8369 38.9617C29.4308 37.6242 29.7477 36.1839 29.9781 34.7444C30.3607 32.3053 30.3989 29.8198 30.1976 27.3606C30.0583 25.6835 29.7477 23.981 28.9544 22.4796C28.3724 21.3643 27.3305 20.4538 26.0782 20.1807C24.3277 19.7737 22.5662 20.3337 20.8694 20.727ZM58.45 43.1016C58.4309 44.0785 58.45 45.0563 58.4382 46.0333C58.4382 46.2281 58.4227 46.4302 58.4874 46.6187C58.7187 46.6323 58.9519 46.6187 59.185 46.6105C59.2051 46.1862 59.2014 45.761 59.2023 45.3358H59.5439C59.7916 45.7337 59.9829 46.1689 60.2616 46.5468C60.5503 46.5741 60.8409 46.5741 61.1296 46.5468C60.8751 46.0891 60.6165 45.6339 60.3536 45.1811C60.6386 44.9371 60.921 44.6348 60.9292 44.2333C60.962 43.9956 60.9076 43.7541 60.7762 43.5533C60.6448 43.3525 60.4452 43.2059 60.2142 43.1407C59.6386 42.9941 59.0384 43.0897 58.45 43.1016ZM62.4119 43.0105C62.4046 44.1841 62.4119 45.3586 62.4119 46.5322C63.1406 46.5595 63.8692 46.5258 64.5978 46.5094C64.5978 46.2691 64.5978 46.0287 64.5978 45.7883C64.1215 45.7792 63.646 45.7883 63.1715 45.7811C63.1715 45.5322 63.1715 45.2843 63.1715 45.0372C63.5431 45.0372 63.9147 45.0372 64.2863 45.0254C64.2863 44.7996 64.2863 44.5702 64.2727 44.3489C63.9083 44.3489 63.5377 44.3489 63.1706 44.3489C63.1706 44.1468 63.1706 43.9456 63.1706 43.7444C63.6333 43.7444 64.0969 43.7444 64.5605 43.7325C64.5605 43.5031 64.5696 43.2773 64.5468 43.046C63.8382 42.9523 63.1196 43.0278 62.4083 43.0124L62.4119 43.0105ZM65.8556 43.0023C66.0851 44.1805 66.311 45.3604 66.5542 46.5367C66.8338 46.5367 67.1143 46.5477 67.3957 46.554C67.5633 45.9322 67.7109 45.3049 67.8794 44.684C68.0542 45.3122 68.2009 45.9477 68.3657 46.5786C68.6471 46.5786 68.9286 46.5786 69.2109 46.5786C69.4459 45.4114 69.6854 44.2451 69.9077 43.0752C69.6508 43.0715 69.3943 43.067 69.1381 43.0615C68.9896 43.7626 68.8748 44.4709 68.7428 45.1756C68.5606 44.47 68.3985 43.758 68.2245 43.0506C67.9968 43.0397 67.7691 43.0306 67.5424 43.0251C67.3602 43.7343 67.2008 44.4472 67.0241 45.1574C66.8924 44.4418 66.7621 43.7258 66.6334 43.0096C66.3738 43.0078 66.1143 43.006 65.8556 43.0042V43.0023ZM71.7529 43.2609C71.1827 43.5086 71.0707 44.348 71.4961 44.7759C71.8285 45.121 72.3249 45.2129 72.7038 45.4915C72.8859 45.6072 72.8704 45.9286 72.6418 45.9704C72.2566 46.0997 71.8895 45.863 71.5689 45.6773C71.4132 45.8594 71.2593 46.0415 71.1135 46.2235C71.4259 46.4512 71.7556 46.6888 72.15 46.7443C72.5444 46.7999 72.9697 46.7789 73.2794 46.5194C73.7302 46.1452 73.7348 45.3732 73.303 44.9826C72.905 44.6139 72.3121 44.541 71.9615 44.1095C72.0853 44.0312 72.1955 43.9001 72.3522 43.8882C72.6254 43.8518 72.8549 44.0421 73.0808 44.1668C73.2475 44.002 73.4133 43.8354 73.5763 43.667C73.1136 43.1935 72.3704 42.9422 71.7529 43.2627V43.2609ZM54.5391 43.2782C54.5155 44.45 54.5392 45.6208 54.5291 46.7926C55.0638 46.7662 55.6066 46.7871 56.1348 46.6806C56.6476 46.5841 57.1157 46.1289 57.0902 45.5826C57.1203 45.2712 56.9081 45.0236 56.7259 44.806C56.9855 44.3762 57.021 43.7252 56.5565 43.4211C55.9418 43.0579 55.204 43.2764 54.5391 43.28V43.2782ZM77.3797 43.8909C77.1493 44.2105 77.2303 44.6193 77.3606 44.9598C77.1383 45.2412 76.9443 45.5799 77.0081 45.9541C77.0655 46.6888 77.8096 47.2569 78.5346 47.1231C79.0564 47.0785 79.3943 46.6069 79.4918 46.127L79.8251 46.1489C79.8251 45.9049 79.8251 45.6609 79.8251 45.4205C79.4608 45.3832 79.0965 45.3522 78.7322 45.3295C78.6885 45.6381 78.7896 46.0114 78.5719 46.2682C78.2577 46.5877 77.6429 46.199 77.7932 45.7738C77.8706 45.4542 78.255 45.4833 78.51 45.4415C78.51 45.222 78.51 45.0035 78.51 44.7859C78.2896 44.7322 78.0719 44.6521 77.9571 44.4418L78.1994 44.1978C78.3644 44.3056 78.488 44.466 78.5501 44.653C78.7805 44.6758 79.0109 44.694 79.2441 44.7076C79.1967 44.3972 79.1657 44.0512 78.9271 43.8208C78.5291 43.3629 77.7094 43.3674 77.3797 43.8928V43.8909ZM49.345 43.7161C48.814 43.9574 48.5553 44.6821 48.8732 45.1829C49.1911 45.6381 49.814 45.6144 50.2394 45.9113C50.3969 46.0214 50.3304 46.2864 50.161 46.3492C49.7967 46.5577 49.3951 46.3583 49.0517 46.2126C48.906 46.4157 48.7575 46.6178 48.6191 46.8272C49.1847 47.2332 49.9852 47.3562 50.5955 46.971C51.111 46.666 51.2886 45.8985 50.9215 45.4169C50.5381 44.9671 49.8486 45.0281 49.457 44.5865C49.5963 44.4718 49.7302 44.3134 49.9279 44.3052C50.1628 44.2788 50.3705 44.4154 50.5809 44.5C50.7448 44.3125 50.9124 44.1277 51.0736 43.9374C50.5982 43.5313 49.9015 43.4093 49.345 43.7161ZM44.8876 44.1486C44.8539 45.314 44.8676 46.483 44.8876 47.6502C45.1261 47.6307 45.3623 47.5898 45.5935 47.5282C45.6845 47.1313 45.6135 46.7088 45.6317 46.3009L45.9632 46.2581C46.2028 46.6469 46.4387 47.0384 46.6645 47.4363C46.9578 47.4126 47.2502 47.3823 47.5416 47.3452C47.2903 46.9073 47.0325 46.473 46.7729 46.0405C47.2484 45.6836 47.5189 45.0181 47.2429 44.4573C47.0161 44.0129 46.4605 43.9438 46.0142 43.9884C45.6417 44.0348 45.2455 44.0166 44.8876 44.1486V44.1486ZM83.3644 44.0348C83.3517 45.2047 83.349 46.3756 83.3644 47.5455C83.9064 47.612 84.4501 47.7276 84.9975 47.6903C85.4374 47.6657 85.8746 47.3261 85.8864 46.8645C85.9483 46.5003 85.747 46.1844 85.5357 45.9131C85.809 45.4697 85.7853 44.836 85.3536 44.4982C84.7962 44.0557 84.0348 44.1258 83.3644 44.0348ZM41.2591 44.5656C41.2454 45.741 41.2481 46.9173 41.2591 48.0936C41.9877 47.998 42.7254 47.9243 43.4513 47.7877C43.455 47.5552 43.4459 47.3227 43.424 47.0912C42.9486 47.1003 42.4804 47.2005 42.0086 47.2515C42.0086 47.0038 42.0086 46.7568 42.0086 46.5103C42.3729 46.4666 42.7373 46.4193 43.1016 46.3656C43.1016 46.138 43.1016 45.9103 43.097 45.6827C42.7327 45.7219 42.3729 45.7738 42.0105 45.8138C42.0105 45.6129 42.0105 45.412 42.0105 45.2111C42.4704 45.1501 42.9313 45.0964 43.3885 45.019C43.3803 44.7777 43.3748 44.5374 43.3675 44.2961C42.6598 44.3698 41.9613 44.48 41.2591 44.5656ZM87.2535 44.4864C87.2462 45.6645 87.2453 46.8427 87.2535 48.0208C87.4948 48.0499 87.7371 48.0818 87.9821 48.1055C87.9976 47.6876 88.0076 47.2706 88.004 46.8536L88.3364 46.9119C88.5896 47.348 88.7635 47.8332 89.065 48.2402C89.331 48.3313 89.6197 48.3313 89.8975 48.3704C89.6607 47.866 89.3938 47.378 89.1406 46.8827C89.3401 46.7225 89.5705 46.5641 89.6479 46.3055C89.7416 46.0382 89.7369 45.7464 89.6348 45.4822C89.5326 45.2181 89.3397 44.999 89.0905 44.8642C88.5204 44.5729 87.8628 44.5938 87.2489 44.49L87.2535 44.4864ZM37.4119 45.4442C36.911 45.9905 36.7953 46.7917 36.9301 47.4964C37.0075 47.9516 37.3054 48.3923 37.7571 48.5407C38.0339 48.6137 38.3253 48.6099 38.6 48.5297C38.8748 48.4495 39.1224 48.2959 39.3164 48.0854C39.7608 47.6056 39.8355 46.9228 39.8209 46.2982C39.2963 46.3628 38.7745 46.4512 38.2535 46.5386C38.248 46.7644 38.248 46.9938 38.2535 47.216C38.5267 47.1832 38.7927 47.1468 39.0632 47.1122C38.9393 47.3625 38.83 47.6703 38.5413 47.7722C38.4201 47.8322 38.2815 47.8468 38.1505 47.8134C38.0195 47.78 37.9049 47.7008 37.8272 47.5902C37.6096 47.2678 37.6041 46.8518 37.6697 46.483C37.7353 46.1143 37.9985 45.7483 38.391 45.6882C38.6342 45.6199 38.8464 45.7965 39.055 45.8912C39.2531 45.7119 39.4413 45.5219 39.6187 45.3222C39.4011 45.1601 39.1825 44.9726 38.9065 44.928C38.6341 44.881 38.3542 44.9038 38.0928 44.994C37.8315 45.0843 37.5973 45.2391 37.4119 45.4442V45.4442ZM91.1052 45.0281C91.0924 45.6654 91.0988 46.3028 91.0961 46.9465C91.0961 47.3589 91.138 47.7914 91.3538 48.1537C91.6917 48.7346 92.4722 48.9822 93.0979 48.771C93.5315 48.6035 93.6918 48.1018 93.7145 47.6785C93.7264 46.9319 93.7209 46.1835 93.7145 45.4369C93.465 45.3978 93.2145 45.3723 92.9659 45.3404C92.9395 46.1489 93.046 46.9683 92.9185 47.7704C92.8666 48.1346 92.4139 48.1228 92.1635 47.9789C91.9212 47.8533 91.8802 47.5519 91.8611 47.3088C91.842 46.5896 91.8702 45.8694 91.8484 45.1492C91.5988 45.1037 91.352 45.0636 91.1052 45.0281ZM33.1458 45.8785C33.1231 47.0548 33.1385 48.2329 33.1522 49.4102C33.3951 49.3665 33.6361 49.32 33.8754 49.2709C33.8827 48.8539 33.8808 48.436 33.8817 48.019C33.9974 47.998 34.1131 47.978 34.2297 47.9589C34.461 48.3231 34.6595 48.7127 34.92 49.0587C35.2106 49.0669 35.4938 48.9886 35.7771 48.9331C35.533 48.5088 35.2743 48.0936 35.0184 47.6766C35.4437 47.3125 35.7397 46.7061 35.5257 46.1507C35.3982 45.7865 34.9902 45.6299 34.6313 45.6463C34.1295 45.6682 33.6404 45.7984 33.1458 45.8785V45.8785ZM95.2665 45.7028C95.2274 46.8809 95.2328 48.0609 95.2601 49.2399C95.5042 49.2736 95.7465 49.3164 95.9888 49.3455C95.9988 48.6772 95.9888 48.009 95.9979 47.3425C96.3321 48.0071 96.65 48.6809 96.9906 49.3455C97.1172 49.6851 97.5371 49.6187 97.8276 49.6933C97.8431 48.5188 97.8331 47.3443 97.8331 46.1698C97.5908 46.1207 97.3486 46.0788 97.1045 46.0324C97.0917 46.7161 97.1045 47.398 97.0799 48.0864C96.7848 47.3889 96.4305 46.7207 96.0935 46.0424C95.9669 45.7055 95.5479 45.782 95.2665 45.7028ZM30.9062 46.3355C30.7869 47.1404 30.9527 47.9662 30.8224 48.7719C30.7796 49.1416 30.3616 49.3428 30.0255 49.2618C29.7932 49.1707 29.7814 48.8848 29.765 48.6754C29.7468 47.9689 29.7769 47.2615 29.7504 46.555C29.5045 46.5895 29.2621 46.6461 29.0264 46.7243C28.969 47.3452 29.0164 47.9725 29.0027 48.5962C29.0127 49.066 29.0501 49.635 29.4745 49.9264C29.9217 50.1886 30.4955 50.052 30.9117 49.7916C31.4081 49.4839 31.603 48.8739 31.6185 48.3176C31.633 47.6056 31.6239 46.8927 31.6185 46.1808C31.3767 46.2098 31.1382 46.2616 30.9062 46.3355V46.3355ZM99.335 47.4354C99.2212 47.7979 99.1895 48.1813 99.2421 48.5576C99.2947 48.9339 99.4303 49.2939 99.6392 49.6114C99.8053 49.8484 100.027 50.041 100.285 50.1721C100.543 50.3032 100.83 50.3689 101.119 50.3634C101.441 50.3507 101.7 50.1431 101.939 49.9528C101.775 49.7552 101.604 49.5649 101.429 49.3783C101.196 49.4921 100.941 49.6587 100.675 49.5431C100.155 49.3992 99.957 48.8029 99.9689 48.3167C99.9689 47.9807 100.06 47.5328 100.433 47.4326C100.807 47.3325 101.123 47.6147 101.388 47.8378C101.546 47.6958 101.706 47.5537 101.863 47.4099C101.52 46.9902 101.044 46.6351 100.477 46.6442C99.9607 46.5777 99.477 46.9483 99.335 47.4354V47.4354ZM103.197 47.2424C103.142 48.4141 103.155 49.5913 103.197 50.7631C103.417 50.8415 103.645 50.8926 103.878 50.9152C103.969 50.4344 103.899 49.9391 103.922 49.453C104.295 49.5349 104.668 49.6214 105.044 49.7015C105.044 50.1959 105.044 50.6912 105.048 51.1856C105.292 51.2402 105.538 51.2921 105.785 51.3385C105.793 50.1686 105.791 48.9977 105.785 47.8278C105.538 47.7677 105.293 47.7122 105.047 47.6603C105.047 48.107 105.042 48.554 105.031 49.0014C104.661 48.9167 104.291 48.8357 103.921 48.7546C103.921 48.3058 103.921 47.8569 103.913 47.4081C103.675 47.3489 103.435 47.2952 103.197 47.2424V47.2424ZM25.2403 47.5783C25.1975 48.7437 25.2275 49.9137 25.2275 51.0818C25.7548 50.957 26.2977 50.8824 26.8032 50.6803C27.3423 50.4627 27.7713 49.9064 27.7021 49.3064C27.6966 49.0569 27.4999 48.8803 27.3542 48.7009C27.5063 48.3558 27.6338 47.9389 27.4316 47.5865C27.2294 47.2533 26.7859 47.2223 26.4388 47.2842C26.0313 47.3464 25.6302 47.4448 25.2403 47.5783V47.5783ZM41.5314 54.1254C40.9166 54.5379 40.8938 55.5248 41.3565 56.0602C41.7582 56.4936 42.4722 56.3743 42.8356 55.9518C42.7272 55.8471 42.617 55.7442 42.5068 55.6432C42.2791 55.7543 42.0123 55.9427 41.7691 55.7552C41.6255 55.6 41.5428 55.3982 41.5363 55.1868C41.5298 54.9755 41.5998 54.769 41.7336 54.6053C41.9449 54.3849 42.2436 54.5488 42.4677 54.6553C42.5733 54.5397 42.6799 54.4232 42.7837 54.3066C42.444 54.0153 41.9367 53.8723 41.5314 54.1254V54.1254ZM43.6262 54.0499C43.6216 54.7946 43.618 55.5394 43.6262 56.2851C44.0661 56.2896 44.506 56.2905 44.945 56.3042C44.945 56.143 44.945 55.9837 44.9514 55.8244C44.6681 55.8244 44.3849 55.818 44.1025 55.8098C44.1025 55.2235 44.1025 54.6371 44.1025 54.0517L43.6262 54.0499ZM46.4041 54.0499C46.1609 54.7992 45.9086 55.5448 45.6927 56.3024C45.864 56.2923 46.037 56.2841 46.2101 56.276C46.2602 56.1075 46.3103 55.9409 46.3613 55.7743L46.976 55.7807C47.0289 55.95 47.0835 56.1212 47.1391 56.2914C47.3085 56.2914 47.4779 56.2969 47.6482 56.2969C47.426 55.5403 47.1718 54.7937 46.935 54.0417L46.4041 54.0499ZM48.4287 54.0499C48.4287 54.7983 48.4242 55.5467 48.4287 56.2951C48.5881 56.2951 48.7484 56.2896 48.9096 56.2832C48.9096 55.9946 48.9096 55.706 48.9233 55.4183C49.2876 55.5776 49.3559 56.001 49.5973 56.2769C49.7789 56.2935 49.9613 56.3001 50.1437 56.2969C49.9898 55.9992 49.825 55.7078 49.6619 55.4156C49.9843 55.1497 50.1656 54.6462 49.8678 54.2948C49.4971 53.9088 48.9023 54.0845 48.4251 54.0499H48.4287ZM50.958 54.0499C50.9388 54.7983 50.958 55.5476 50.9507 56.296C51.1067 56.2976 51.2627 56.2906 51.4179 56.275C51.4543 56.0092 51.4516 55.7397 51.478 55.4729C51.7312 55.7169 51.9197 56.0192 52.1702 56.2623C52.366 56.3288 52.5828 56.2805 52.7868 56.2878C52.4872 55.8863 52.1757 55.4939 51.8642 55.1042C52.1374 54.754 52.4088 54.4025 52.6784 54.0499C52.475 54.0499 52.2725 54.052 52.0709 54.0562C51.8621 54.3288 51.6523 54.6001 51.4416 54.8702C51.4416 54.5971 51.4416 54.3239 51.4416 54.0508L50.958 54.0499ZM53.4799 54.9703C53.6994 55.3345 54.2504 55.299 54.449 55.6778C54.2331 55.9755 53.8643 55.7533 53.601 55.665C53.5039 55.7864 53.408 55.9078 53.3132 56.0292C53.6949 56.2805 54.2158 56.4635 54.6366 56.1958C55.0128 55.9773 55.0401 55.3628 54.6803 55.1178C54.4317 54.9467 54.1339 54.8602 53.8934 54.679C54.0191 54.354 54.3734 54.5433 54.5965 54.6344L54.9235 54.2984C54.6211 54.0763 54.235 53.8896 53.8597 54.0444C53.4745 54.15 53.2877 54.6326 53.4763 54.9713L53.4799 54.9703ZM55.6685 54.0544C55.8999 54.8083 56.1385 55.5594 56.3771 56.3124C56.5429 56.3081 56.7083 56.2947 56.8726 56.2723C57.1567 55.5485 57.3425 54.7883 57.593 54.0517H57.072C56.9227 54.5424 56.7769 55.035 56.6285 55.5266C56.4846 55.0332 56.3361 54.5424 56.1877 54.0508C56.0119 54.0499 55.8388 54.0499 55.6685 54.0544ZM58.4218 54.0362C58.4218 54.7855 58.4218 55.5348 58.4218 56.2841C58.583 56.2905 58.7451 56.2969 58.9082 56.2987C58.9155 55.5512 58.9082 54.8037 58.9082 54.0562L58.4218 54.0362ZM59.9392 54.049C59.9392 54.7937 59.9392 55.5385 59.9392 56.2841C60.3845 56.2905 60.8308 56.2923 61.2771 56.2951C61.2771 56.1376 61.2771 55.981 61.2771 55.8253C60.9966 55.8253 60.7161 55.8189 60.4365 55.8125C60.4365 55.2253 60.4365 54.638 60.4365 54.0508L59.9392 54.049ZM62.1351 54.0499C62.1314 54.7934 62.1314 55.537 62.1351 56.2805C62.5813 56.2878 63.0276 56.2914 63.4739 56.2978C63.4739 56.1394 63.4739 55.981 63.4821 55.8234C63.2016 55.8234 62.9211 55.8171 62.6405 55.8143C62.6405 55.2262 62.6405 54.638 62.6405 54.0499H62.1351ZM64.341 54.0499C64.3373 54.794 64.3373 55.5379 64.341 56.2814C64.8122 56.3124 65.285 56.3124 65.7563 56.2814C65.7563 56.1285 65.7563 55.9773 65.7563 55.8262C65.4521 55.8143 65.1488 55.8107 64.8455 55.8052C64.8455 55.655 64.8455 55.5048 64.8455 55.3555C65.0805 55.3555 65.3164 55.3555 65.5532 55.3555C65.5532 55.2053 65.5532 55.0559 65.5532 54.9066C65.3173 54.8993 65.0823 54.8957 64.8474 54.893C64.8474 54.8019 64.8474 54.628 64.8474 54.5406C65.1443 54.5297 65.4421 54.527 65.739 54.5097C65.739 54.3585 65.739 54.2083 65.739 54.0544C65.2715 54.0514 64.8061 54.0499 64.3428 54.0499H64.341ZM68.2573 54.0499L68.2519 54.5133C68.434 54.5175 68.618 54.5239 68.8038 54.5324C68.8038 55.1224 68.7974 55.716 68.8093 56.3033C68.9741 56.3033 69.1399 56.2951 69.3056 56.2887C69.3129 55.6933 69.3056 55.0978 69.312 54.5024C69.4942 54.5024 69.6763 54.516 69.853 54.5215C69.853 54.3585 69.853 54.1965 69.853 54.0344C69.322 54.0326 68.7901 54.0499 68.2582 54.0499H68.2573ZM70.7164 54.0499C70.7128 54.794 70.7128 55.5379 70.7164 56.2814C71.1878 56.3101 71.6606 56.3083 72.1318 56.276C72.1318 56.1239 72.1318 55.9719 72.1318 55.8207C71.8203 55.8089 71.5088 55.8052 71.1982 55.8007C71.1982 55.6514 71.1982 55.503 71.1982 55.3546C71.4314 55.3427 71.6764 55.381 71.9032 55.3072C71.9232 55.1716 71.9314 55.0341 71.9433 54.9002C71.6946 54.8893 71.446 54.8857 71.1973 54.8829V54.5306C71.4951 54.5197 71.793 54.5188 72.0908 54.5042C72.0908 54.3512 72.0844 54.1992 72.0826 54.049C71.6284 54.0496 71.1736 54.0499 70.7183 54.0499H70.7164ZM73.038 54.0499C73.038 54.8028 73.0289 55.5567 73.038 56.3096C73.1938 56.3033 73.3522 56.3014 73.5089 56.2841C73.5726 55.869 73.5335 55.4474 73.5389 55.0304C73.7493 55.401 73.9315 55.7879 74.1583 56.1503C74.2621 56.3661 74.5317 56.265 74.723 56.2905C74.723 55.5439 74.723 54.7974 74.723 54.0508C74.5627 54.0417 74.4042 54.0344 74.2457 54.0298C74.2457 54.4623 74.2457 54.8948 74.2457 55.3282C74.0144 54.9008 73.7773 54.4748 73.5344 54.0499H73.038ZM75.7476 54.0499C75.7476 54.7983 75.7421 55.5458 75.7476 56.2942C75.9061 56.2987 76.0654 56.3033 76.2257 56.306C76.2321 55.8754 76.2257 55.4447 76.233 55.0141C76.4689 55.4401 76.7021 55.8672 76.9416 56.2887L77.4325 56.2814C77.4325 55.5385 77.4325 54.7955 77.4325 54.0535C77.2649 54.0426 77.0974 54.0335 76.9316 54.0289C76.9252 54.4477 76.9316 54.8656 76.9316 55.2845C76.7039 54.8729 76.4762 54.465 76.2485 54.0499H75.7476ZM78.4581 54.0499C78.4544 54.794 78.4544 55.5379 78.4581 56.2814C78.9275 56.3115 79.3985 56.3115 79.868 56.2814C79.868 56.1294 79.868 55.9773 79.868 55.8262C79.5583 55.8143 79.2486 55.8098 78.9399 55.8034C78.9399 55.6532 78.9399 55.5039 78.9399 55.3546H79.6448C79.6448 55.2007 79.6448 55.0477 79.6448 54.8993C79.4107 54.8993 79.1758 54.8993 78.9435 54.8993C78.9435 54.8083 78.9435 54.6317 78.939 54.5424C79.235 54.5324 79.531 54.5315 79.8279 54.5179C79.8279 54.364 79.8279 54.2119 79.8279 54.0626C79.3716 54.0499 78.9162 54.0499 78.4599 54.0499H78.4581ZM80.7806 54.984C81.0082 55.3027 81.4454 55.3373 81.7269 55.594C81.6549 56.0074 81.1376 55.7652 80.8889 55.6587C80.7979 55.7816 80.7004 55.9054 80.6075 56.0301C80.9718 56.2896 81.4655 56.4471 81.8826 56.2268C82.2779 56.0301 82.3471 55.401 81.9892 55.1342C81.7041 54.943 81.358 54.8438 81.123 54.5807C81.2453 54.5283 81.3786 54.5065 81.5113 54.5171C81.6439 54.5277 81.772 54.5705 81.8844 54.6417L82.2114 54.303C81.9163 54.0872 81.5474 53.896 81.1767 54.0298C81.08 54.0556 80.9905 54.1033 80.9152 54.1693C80.84 54.2352 80.7809 54.3177 80.7428 54.4102C80.7046 54.5027 80.6883 54.6028 80.6952 54.7027C80.7021 54.8025 80.7319 54.8994 80.7824 54.9858L80.7806 54.984ZM83.4719 54.0735C83.0338 54.2265 82.9373 54.9075 83.3398 55.1543C83.6131 55.3673 84.0912 55.3819 84.1359 55.8016C83.8416 55.8399 83.5426 55.7908 83.2761 55.6605C83.185 55.7825 83.0939 55.9063 82.9974 56.0301C83.3617 56.2841 83.8408 56.4426 84.2616 56.235C84.6741 56.0429 84.7452 55.3864 84.3681 55.127C84.0949 54.9449 83.7925 54.8356 83.5247 54.6562C83.7461 54.4314 84.0339 54.5078 84.2834 54.6389C84.3882 54.527 84.4938 54.4141 84.6004 54.3021C84.2871 54.059 83.8599 53.8814 83.4737 54.0763L83.4719 54.0735ZM85.492 54.049C85.4884 54.7931 85.4884 55.537 85.492 56.2805C85.9627 56.3115 86.4349 56.3115 86.9056 56.2805C86.9056 56.1275 86.9056 55.9755 86.9056 55.8253C86.6013 55.8134 86.2971 55.8107 85.9948 55.808C85.9948 55.6559 85.9948 55.5057 85.9948 55.3527H86.7006C86.7006 55.2007 86.7006 55.0486 86.7006 54.8975C86.4656 54.8975 86.2316 54.8911 85.9984 54.8902C85.9984 54.771 85.9984 54.6526 85.9984 54.5352C86.2953 54.5251 86.5932 54.5224 86.8901 54.506C86.8901 54.3549 86.8901 54.2037 86.8901 54.0508C86.4237 54.0502 85.9583 54.0499 85.4938 54.0499L85.492 54.049ZM87.8191 54.0499C87.8191 54.794 87.8191 55.5382 87.8191 56.2823C88.2899 56.3105 88.762 56.3087 89.2326 56.2769C89.2326 56.1239 89.2326 55.9728 89.2326 55.8216C88.9284 55.8098 88.6251 55.8071 88.3218 55.7998C88.3218 55.6496 88.3218 55.4993 88.3218 55.3509H89.0313C89.0258 55.198 89.0222 55.0459 89.0195 54.8957C88.7872 54.8957 88.555 54.8957 88.3245 54.8957C88.3245 54.7764 88.3191 54.6581 88.3191 54.5406C88.6151 54.5288 88.912 54.5279 89.2089 54.5133C89.2089 54.3603 89.2089 54.2092 89.2089 54.0581C88.7462 54.0526 88.283 54.0499 87.8191 54.0499ZM66.9003 54.8092C66.8439 54.8272 66.7925 54.8583 66.7505 54.9C66.7084 54.9417 66.6768 54.9927 66.6582 55.0489C66.6396 55.1051 66.6347 55.1649 66.6436 55.2234C66.6526 55.2819 66.6753 55.3375 66.7099 55.3855C66.8729 55.6414 67.3383 55.5403 67.372 55.2353C67.3834 55.1729 67.3786 55.1087 67.3581 55.0487C67.3377 54.9887 67.3023 54.9349 67.2552 54.8924C67.2081 54.8499 67.151 54.8201 67.0892 54.8059C67.0274 54.7916 66.963 54.7934 66.9021 54.811L66.9003 54.8092Z" fill="#080808"/>
<path d="M40.6756 19.7819C40.9606 19.7354 41.2525 19.7586 41.5265 19.8496C41.8004 19.9407 42.0482 20.0967 42.2486 20.3045C42.8561 20.9099 43.1593 21.7376 43.3925 22.546C44.2204 25.5952 44.2313 28.8082 43.8288 31.9238C43.6712 33.1675 43.4071 34.4066 42.918 35.5656C42.6092 36.2876 42.1775 36.9887 41.5327 37.4549C41.0564 37.8081 40.3824 37.9174 39.845 37.6369C39.2621 37.352 38.9042 36.7775 38.6018 36.2285C37.7557 34.6479 37.4815 32.837 37.3759 31.0689C37.293 29.3745 37.3103 27.6674 37.5799 25.9885C37.8131 24.5518 38.0544 23.0905 38.6674 21.7576C38.9361 21.1822 39.2257 20.5794 39.7476 20.1907C40.0194 19.9815 40.3378 19.8413 40.6756 19.7819V19.7819Z" fill="#080808"/>
<path d="M21.8287 23.7862C22.388 23.6806 23.0027 23.6396 23.5264 23.9045C24.1212 24.2013 24.5383 24.7567 24.8216 25.3431C25.2141 26.1761 25.3744 27.0939 25.4983 27.9998C25.8626 30.631 25.8006 33.3078 25.45 35.9363C25.2633 37.3347 24.7869 38.735 23.8634 39.8221C23.031 40.7854 21.7194 41.1077 20.5081 41.2588C20.0983 41.2916 20.0618 40.7845 20.0527 40.4895C20.0709 39.0573 19.9844 37.6252 20.0682 36.1939C20.1019 35.6222 20.0391 35.0504 20.0518 34.4786C20.0691 31.201 20.0227 27.9233 20.0318 24.6456C20.0154 24.4508 20.0782 24.2241 20.2922 24.1704C20.7977 24.011 21.316 23.9036 21.8287 23.7862Z" fill="#080808"/>
<path d="M59.2018 43.7544C59.516 43.789 59.9304 43.6724 60.1545 43.9575C60.2109 44.1132 60.2255 44.3218 60.0871 44.4393C59.8621 44.6807 59.4987 44.6215 59.2027 44.6606C59.1991 44.3582 59.2 44.0559 59.2018 43.7544Z" fill="#080808"/>
<path d="M55.3041 43.9684C55.6119 43.9821 56.1903 43.83 56.1639 44.3173C56.0109 44.6415 55.591 44.5832 55.2959 44.6333C55.2986 44.4111 55.3041 44.1898 55.3041 43.9684Z" fill="#080808"/>
<path d="M55.3037 45.2713C55.6361 45.2713 56.0323 45.1711 56.3056 45.4106C56.362 45.5545 56.3456 45.7476 56.209 45.8423C55.954 46.04 55.6088 45.9963 55.3064 46.0245C55.3046 45.7731 55.3037 45.522 55.3037 45.2713Z" fill="#080808"/>
<path d="M33.8799 46.4437C34.1531 46.4009 34.4336 46.3262 34.7114 46.379C34.9118 46.5056 34.9027 46.8162 34.7561 46.9802C34.5475 47.2434 34.1841 47.2534 33.8844 47.3244C33.8808 47.0303 33.8799 46.737 33.8799 46.4437Z" fill="#080808"/>
<path d="M25.9586 48.1202C26.2199 48.0728 26.4823 48.0291 26.7464 47.999C26.7528 48.1411 26.8375 48.3105 26.7382 48.438C26.5424 48.6612 26.2291 48.6985 25.9604 48.7823C25.9576 48.561 25.9576 48.3406 25.9586 48.1202Z" fill="#080808"/>
<path d="M25.9595 49.4248C26.2327 49.3711 26.5059 49.2782 26.7855 49.3037C26.9841 49.3337 27.0251 49.5769 26.9231 49.7226C26.7236 50.056 26.2937 50.0824 25.9576 50.178C25.9564 49.9285 25.957 49.6774 25.9595 49.4248Z" fill="#080808"/>
<path d="M48.9112 54.457C49.1603 54.4733 49.4025 54.5455 49.6198 54.6683C49.5123 54.9835 49.209 55.0618 48.913 55.0791C48.91 54.8714 48.9094 54.6641 48.9112 54.457Z" fill="#080808"/>
<path d="M46.4824 55.3439C46.5416 55.1444 46.6017 54.945 46.6646 54.7473C46.7274 54.945 46.7884 55.1444 46.8467 55.3439H46.4824Z" fill="#080808"/>
</svg>
