<svg width="153" height="72" viewBox="0 0 153 72" fill="none" xmlns="http://www.w3.org/2000/svg">
<path d="M13.9013 16.2996L14.8496 12H27.4679L26.5224 16.2996H22.7098L18.0097 37.9865H13L17.7001 16.2996H13.9013ZM37.5122 22.1314L36.5722 26.4282H31.0897L29.5553 33.7248H36.1907L34.7005 38H23.5973L29.2401 12.0135H40.0475L39.0992 16.2887H33.3209L32.0353 22.1449L37.5122 22.1314ZM44.6121 26.766L42.1708 37.9865H37.1694L42.8122 12H48.9168C53.3597 12 55.3338 14.2646 54.3772 18.7561L54.0565 20.2451C53.3929 23.3826 52.0437 24.4906 50.5038 24.9338C51.6567 25.7013 52.4391 26.9012 51.4991 30.9332C50.9102 33.4275 50.2466 36.6082 50.1665 37.9784H45.2369C45.1927 36.8028 45.7705 34.0626 46.658 29.9765C47.211 27.4065 46.9594 26.7579 45.3282 26.7579L44.6121 26.766ZM46.1382 22.8962C47.9519 22.8962 48.5574 22.3557 49.0191 20.0478L49.326 18.448C49.6716 16.7022 49.4587 15.8699 47.7722 15.8699H46.9732L45.4526 22.8962H46.1382ZM68.0627 29.7063C68.9501 25.6851 70.1473 20.2478 70.9186 17.0454H70.7804C69.1216 22.2449 65.743 32.5195 63.8686 37.9865H59.6523C60.2882 32.3114 61.4522 21.8395 61.9996 16.9806H61.8365C61.2227 20.0316 60.0477 25.4121 59.116 29.8927L57.4571 37.9865H52.8261L58.469 12H65.7541C65.2012 17.6481 64.604 23.5799 64.1257 27.1498H64.2197C65.4527 23.388 67.6037 17.2211 69.5224 12H76.8131L71.1702 37.9865H66.2766L68.0627 29.7063ZM84.9995 12L79.3566 37.9865H74.3552L79.9981 12H84.9995ZM85.8566 16.2996L86.8021 12H99.4232L98.5025 16.2996H94.6623L89.9622 37.9865H84.9553L89.6553 16.2996H85.8566ZM108.527 26.4228H103.042L101.508 33.7194H108.143L106.653 37.9946H95.5498L101.193 12.0081H112L111.054 16.2833H105.273L103.988 22.1395H109.479L108.527 26.4228Z" fill="#080808"/>
<path fill-rule="evenodd" clip-rule="evenodd" d="M123.972 59.7014C128.045 59.7014 130.395 57.4729 130.395 54.6163C130.395 52.4485 128.855 51.4355 126.444 50.5441L126.062 50.4026C124.439 49.802 124.175 49.7044 124.175 49.3082C124.175 48.903 124.6 48.741 125.208 48.741C126.707 48.741 128.227 49.45 129.301 50.3212L132.015 47.0797C130.476 45.7628 128.227 44.9524 125.694 44.9524C121.825 44.9524 119.313 47.181 119.313 49.916C119.313 52.0028 120.548 52.9347 123.182 53.9072C125.249 54.677 125.512 54.8189 125.512 55.2646C125.512 55.6698 125.087 55.8926 124.479 55.8926C122.98 55.8926 121.318 55.2443 119.698 53.8869L116.983 57.1285C118.705 58.6885 121.156 59.7014 123.972 59.7014ZM47.1427 59.4178H59.3391L60.3723 55.5279H52.8357L53.2612 53.9882H60.19L61.1017 50.5643H54.1729L54.5578 49.1259H61.9931L63.0466 45.236H54.8337C54.838 45.2307 54.8423 45.2253 54.8467 45.22L54.2685 45.236H50.9516L50.9266 45.3289L8 46.5224L50.296 47.677L49.7902 49.5604L13.7012 50.5534L49.2604 51.533L48.6529 53.795L19.9822 54.5843L48.2321 55.3616L47.5196 58.0145C47.3429 58.0143 47.172 58.0154 47.01 58.0196L39.8524 58.2171L25.5373 58.6122L47.199 59.2083L47.1427 59.4178ZM59.4981 59.4178H64.9885L68.5745 55.4064L70.094 59.4178H75.2197L72.1199 52.1648L78.603 45.236H73.1126L70.0534 48.6802L68.7366 45.236H63.6109L66.4675 51.9622L59.4981 59.4178ZM80.1956 59.4178H75.4549L79.2637 45.236H84.0247C86.6382 45.236 88.2387 45.7425 89.2922 46.796C90.0418 47.5456 90.4065 48.5384 90.4065 49.6526C90.4065 53.1981 87.7322 55.5685 83.2346 55.5685H81.2289L80.1956 59.4178ZM82.9712 49.0246L82.1406 52.1851H82.9915C84.7946 52.1851 85.6252 51.3747 85.6252 50.3009C85.6252 49.9971 85.5037 49.6932 85.2808 49.4703C84.9566 49.1461 84.3894 49.0246 83.8626 49.0246H82.9712ZM88.9283 59.4178H93.6691L94.7631 55.3659H95.9382L97.5184 59.4178H102.624L100.659 54.6973C103.455 53.8261 104.609 51.9217 104.609 49.7134C104.609 48.5991 104.285 47.5456 103.495 46.7555C102.543 45.8033 100.882 45.236 98.2681 45.236H92.7372L88.9283 59.4178ZM95.6546 51.9825L96.4042 49.2069H98.0857C98.7543 49.2069 99.2203 49.3487 99.4836 49.6121C99.6862 49.8147 99.7875 50.0781 99.7875 50.3617C99.7875 51.2532 98.9569 51.9825 97.3766 51.9825H95.6546ZM115.568 59.4178H103.371L107.18 45.236H119.275L118.222 49.1259H110.786L110.401 50.5643H117.33L116.419 53.9882H109.49L109.064 55.5279H116.601L115.568 59.4178ZM143.631 54.6163C143.631 57.4729 141.281 59.7014 137.208 59.7014C134.392 59.7014 131.941 58.6885 130.219 57.1285L132.934 53.8869C134.554 55.2443 136.216 55.8926 137.715 55.8926C138.323 55.8926 138.748 55.6698 138.748 55.2646C138.748 54.8189 138.485 54.677 136.418 53.9072C133.785 52.9347 132.549 52.0028 132.549 49.916C132.549 47.181 135.061 44.9524 138.93 44.9524C141.463 44.9524 143.712 45.7628 145.252 47.0797L142.537 50.3212C141.463 49.45 139.943 48.741 138.444 48.741C137.836 48.741 137.411 48.903 137.411 49.3082C137.411 49.7044 137.675 49.802 139.298 50.4026L139.68 50.5441C142.091 51.4355 143.631 52.4485 143.631 54.6163Z" fill="#080808"/>
</svg>
