<svg width="183" height="72" viewBox="0 0 183 72" fill="none" xmlns="http://www.w3.org/2000/svg">
<path d="M60 51.2894L60 27.1024H64.1798V32.97L63.5956 32.2085C63.8952 31.4321 64.2847 30.723 64.7641 30.081C65.2435 29.424 65.7978 28.8865 66.427 28.4685C67.0413 28.0206 67.7229 27.6772 68.472 27.4383C69.236 27.1845 70.0151 27.0352 70.8091 26.9904C71.6031 26.9307 72.3672 26.968 73.1013 27.1024V31.4919C72.3072 31.2828 71.4233 31.2231 70.4495 31.3127C69.4907 31.4023 68.6068 31.7084 67.7978 32.2309C67.0338 32.7236 66.427 33.3208 65.9776 34.0225C65.5431 34.7243 65.2285 35.5081 65.0338 36.3741C64.839 37.2251 64.7416 38.1284 64.7416 39.0839V51.2894H60Z" fill="#080808"/>
<path d="M83.5325 51.9612C81.7348 51.9612 80.2291 51.6328 79.0156 50.9758C77.8021 50.304 76.8808 49.4231 76.2516 48.3332C75.6373 47.2283 75.3302 46.019 75.3302 44.7051C75.3302 43.4809 75.5474 42.4059 75.9819 41.4802C76.4164 40.5545 77.0606 39.7707 77.9145 39.1287C78.7684 38.4718 79.8171 37.9417 81.0606 37.5386C82.1393 37.2251 83.3602 36.9489 84.7236 36.71C86.0869 36.4711 87.5176 36.2471 89.0157 36.0381C90.5289 35.8291 92.027 35.6201 93.5102 35.4111L91.8023 36.3517C91.8322 34.4555 91.4277 33.0521 90.5888 32.1413C89.7648 31.2157 88.3416 30.7528 86.3191 30.7528C85.0457 30.7528 83.8771 31.0514 82.8134 31.6486C81.7498 32.2309 81.0082 33.2014 80.5887 34.56L76.2066 33.2163C76.8059 31.141 77.9445 29.4912 79.6224 28.2669C81.3153 27.0427 83.5625 26.4305 86.364 26.4305C88.5363 26.4305 90.424 26.8038 92.027 27.5503C93.645 28.2819 94.8285 29.4464 95.5776 31.044C95.9671 31.8353 96.2068 32.6714 96.2967 33.5522C96.3866 34.4331 96.4315 35.3812 96.4315 36.3965V51.2894H92.2742V45.7577L93.0832 46.4744C92.0794 48.3257 90.7985 49.7068 89.2405 50.6175C87.6974 51.5133 85.7947 51.9612 83.5325 51.9612ZM84.364 48.1316C85.6973 48.1316 86.8434 47.9002 87.8022 47.4374C88.761 46.9596 89.5326 46.3549 90.1169 45.6233C90.7011 44.8918 91.0832 44.1303 91.2629 43.339C91.5176 42.6224 91.66 41.8161 91.6899 40.9203C91.7349 40.0245 91.7573 39.3079 91.7573 38.7704L93.2854 39.3302C91.8023 39.5542 90.454 39.7558 89.2405 39.9349C88.027 40.1141 86.9258 40.2932 85.9371 40.4724C84.9633 40.6366 84.0943 40.8382 83.3303 41.0771C82.6861 41.301 82.1093 41.5698 81.5999 41.8833C81.1056 42.1969 80.7085 42.5776 80.4089 43.0255C80.1243 43.4734 79.9819 44.0183 79.9819 44.6603C79.9819 45.2874 80.1392 45.8697 80.4539 46.4072C80.7685 46.9297 81.2479 47.3478 81.8921 47.6613C82.5363 47.9749 83.3602 48.1316 84.364 48.1316Z" fill="#080808"/>
<path d="M111.907 51.9612C109.645 51.9612 107.69 51.4014 106.042 50.2816C104.409 49.1618 103.143 47.6389 102.244 45.7129C101.361 43.772 100.919 41.5922 100.919 39.1735C100.919 36.7398 101.368 34.5675 102.267 32.6564C103.166 30.7304 104.439 29.215 106.087 28.1102C107.75 26.9904 109.72 26.4305 111.997 26.4305C114.29 26.4305 116.215 26.9904 117.773 28.1102C119.346 29.215 120.529 30.7304 121.323 32.6564C122.132 34.5824 122.537 36.7548 122.537 39.1735C122.537 41.5922 122.132 43.7645 121.323 45.6905C120.514 47.6165 119.323 49.1469 117.75 50.2816C116.177 51.4014 114.23 51.9612 111.907 51.9612ZM112.559 47.7285C114.102 47.7285 115.361 47.3627 116.334 46.6311C117.308 45.8996 118.02 44.8918 118.469 43.6078C118.919 42.3238 119.143 40.8457 119.143 39.1735C119.143 37.5013 118.911 36.0232 118.447 34.7392C117.997 33.4552 117.293 32.4549 116.334 31.7382C115.391 31.0216 114.185 30.6632 112.716 30.6632C111.158 30.6632 109.877 31.044 108.874 31.8054C107.87 32.5668 107.121 33.5896 106.627 34.8736C106.147 36.1576 105.907 37.5909 105.907 39.1735C105.907 40.771 106.147 42.2193 106.627 43.5182C107.121 44.8022 107.855 45.8249 108.829 46.5864C109.818 47.3478 111.061 47.7285 112.559 47.7285ZM119.143 51.2894V33.8882H118.604V19.04H123.323V51.2894H119.143Z" fill="#080808"/>
<path d="M140.375 51.9612C137.963 51.9612 135.843 51.4387 134.015 50.3936C132.203 49.3335 130.787 47.8629 129.768 45.9817C128.764 44.0855 128.263 41.8908 128.263 39.3974C128.263 36.7548 128.757 34.463 129.746 32.5221C130.75 30.5811 132.143 29.0806 133.926 28.0206C135.708 26.9605 137.783 26.4305 140.15 26.4305C142.622 26.4305 144.727 27.0053 146.465 28.155C148.203 29.2897 149.499 30.9096 150.353 33.0148C151.222 35.1199 151.566 37.6207 151.386 40.5172H146.69V38.8152C146.66 36.0083 146.12 33.933 145.072 32.5892C144.038 31.2455 142.458 30.5737 140.33 30.5737C137.978 30.5737 136.21 31.3127 135.027 32.7908C133.843 34.2689 133.251 36.4039 133.251 39.1959C133.251 41.8535 133.843 43.9138 135.027 45.377C136.21 46.8252 137.918 47.5493 140.15 47.5493C141.619 47.5493 142.884 47.2209 143.948 46.564C145.027 45.8921 145.866 44.9366 146.465 43.6973L151.072 45.153C150.128 47.3179 148.697 48.9976 146.78 50.192C144.862 51.3715 142.727 51.9612 140.375 51.9612ZM131.723 40.5172V36.8668H149.049V40.5172H131.723Z" fill="#080808"/>
<path d="M152.854 51.2894L161.933 39.0615L153.056 27.1024H158.629L164.674 35.4111L170.652 27.1024L176.225 27.1024L167.348 39.0615L176.45 51.2894H170.854L164.674 42.712L158.449 51.2894H152.854Z" fill="#080808"/>
<path fill-rule="evenodd" clip-rule="evenodd" d="M39.2516 36.5L44.6258 36.5L50 31.1266V25.7533H39.2484V36.5033L39.2516 36.5ZM23.1258 25.75L39.2516 25.75V15L17.7516 15L7 25.75L7 47.2467H17.7516L17.7516 31.1234L23.1258 25.75ZM17.7516 57.9967H23.1258L28.5 52.6234L28.5 47.25H17.7516V58V57.9967ZM28.5033 47.2467L33.8775 47.2467L39.2516 41.8734L39.2516 36.5H28.5V47.25L28.5033 47.2467Z" fill="#080808"/>
</svg>
