<svg width="188" height="72" viewBox="0 0 188 72" fill="none" xmlns="http://www.w3.org/2000/svg">
<path d="M125.066 47.7191V47.5441V23.7921V23.6171H125.241H130.824C132.416 23.6171 133.597 23.7086 134.355 23.8977C135.123 24.0761 135.801 24.3889 136.385 24.8377L136.386 24.8387C137.115 25.4109 137.679 26.177 138.078 27.1308L125.066 47.7191ZM125.066 47.7191H125.241H128H128.175V47.5441V36.3947M125.066 47.7191L128.175 36.3947M128.175 36.3947H128.319L136.934 47.6504L136.987 47.7191H137.073H140.66H141.025L140.797 47.4347L131.951 36.3947H132.09C134.215 36.3947 135.855 35.8856 136.981 34.839L136.862 34.7109L128.175 36.3947ZM55.9703 48.5383L56.1313 48.9103L56.2917 48.5381L63.4172 31.9977L66.3308 47.5762L66.3575 47.7191H66.5028H69.2619H69.4744L69.4337 47.5105L64.6131 22.8175L64.5033 22.2553L64.2801 22.7829L56.1309 42.0492L47.9818 22.7829L47.7586 22.2553L47.6488 22.8175L42.8282 47.5105L42.7875 47.7191H43H45.7594H45.905L45.9315 47.5759L48.8133 31.998L55.9703 48.5383ZM76.3955 47.5441V47.7191H76.5705H79.3949H79.5699V47.5441V35.7944H91.8477V47.5441V47.7191H92.0227H94.8956H95.0706V47.5441V23.7921V23.6171H94.8956H92.0227H91.8477V23.7921V32.7512H79.5699V23.7921V23.6171H79.3949H76.5705H76.3955V23.7921V47.5441ZM104.074 47.5441V47.7191H104.249H116.78H116.955V47.5441V44.9158V44.7408H116.78H107.248V35.9891H116.78H116.955V35.8141V33.1858V33.0108H116.78H107.248V26.5467H116.78H116.955V26.3717V23.7921V23.6171H116.78H104.249H104.074V23.7921V47.5441ZM134.448 27.2383L134.449 27.2392C135.156 27.7966 135.535 28.7962 135.535 30.2979C135.535 31.6882 135.169 32.6176 134.484 33.1437C134.141 33.4017 133.615 33.6057 132.889 33.744C132.165 33.8818 131.256 33.9518 130.159 33.9518H128.175V26.352H130.159C131.233 26.352 132.128 26.4286 132.845 26.5794C133.564 26.7306 134.093 26.9538 134.448 27.2383ZM147.587 46.856L147.588 46.8566C148.889 47.8351 150.497 48.3193 152.4 48.3193C154.73 48.3193 156.616 47.6426 158.04 46.2751L157.918 46.1489L158.04 46.2751C159.474 44.8964 160.187 43.0855 160.187 40.8598C160.187 39.3345 159.783 38.0051 158.969 36.8797C158.167 35.7558 156.976 34.8623 155.407 34.1933C155.407 34.1932 155.407 34.1931 155.406 34.193L152.016 32.7011L152.015 32.7009C150.936 32.231 150.156 31.6984 149.661 31.11L149.527 31.2227L149.661 31.1099C149.169 30.5265 148.923 29.8369 148.923 29.0324C148.923 28.07 149.242 27.2894 149.876 26.6762C150.52 26.0627 151.346 25.7517 152.367 25.7517C153.167 25.7517 153.879 25.9689 154.508 26.4023L154.51 26.4034C155.142 26.8278 155.72 27.4862 156.241 28.3898L156.333 28.5484L156.487 28.4499L158.824 26.9572L158.957 26.8727L158.887 26.732C158.289 25.5252 157.449 24.606 156.367 23.9816C155.297 23.3576 154.032 23.0492 152.578 23.0492C150.596 23.0492 148.951 23.6118 147.658 24.7476L147.774 24.8788L147.658 24.7476C146.365 25.8845 145.716 27.3278 145.716 29.0649C145.716 30.5469 146.11 31.8284 146.903 32.9005L146.904 32.9015C147.706 33.9713 148.915 34.8368 150.514 35.5048C150.514 35.5049 150.514 35.505 150.515 35.5051L153.401 36.7369C153.401 36.737 153.401 36.7372 153.402 36.7373C154.617 37.2702 155.509 37.9196 156.092 38.6787L156.093 38.6808C156.684 39.4265 156.981 40.3069 156.981 41.3303C156.981 42.5954 156.559 43.6129 155.721 44.3987C154.883 45.174 153.782 45.5681 152.4 45.5681C151.238 45.5681 150.281 45.214 149.517 44.512C148.759 43.796 148.204 42.7384 147.863 41.3217L147.812 41.1089L147.615 41.2058L145.051 42.4713L144.924 42.5338L144.959 42.6709C145.411 44.4666 146.285 45.866 147.587 46.856ZM171.431 47.5441V47.7191H171.606H174.463H174.638V47.5441V26.6602H181.15H181.325V26.4852V23.7921V23.6171H181.15H164.886H164.711V23.7921V26.4852V26.6602H164.886H171.431V47.5441Z" fill="#080808" stroke="#080808" stroke-width="0.35"/>
<path d="M7 44.3757L21.069 14L34 43.7846L21.5842 39.468L21.1032 39.3007L20.624 39.4732L7 44.3757Z" stroke="#080808" stroke-width="3"/>
<path d="M14.0846 47.9283L14.0832 47.9449V47.9616C14.0832 47.9482 14.0781 48.1187 14.0819 48.3657C14.0859 48.6212 14.099 48.9835 14.1356 49.4242C14.2086 50.3045 14.3756 51.503 14.7526 52.7889C15.5033 55.3493 17.1055 58.3119 20.512 59.7389C20.6851 59.8354 20.858 59.8665 21.0161 59.8665H21.0164H21.0166H21.0169H21.0171H21.0174H21.0176H21.0179H21.0181H21.0184H21.0187H21.0189H21.0192H21.0194H21.0197H21.0199H21.0202H21.0204H21.0207H21.021H21.0212H21.0215H21.0217H21.022H21.0222H21.0225H21.0227H21.023H21.0232H21.0235H21.0238H21.024H21.0243H21.0245H21.0248H21.025H21.0253H21.0255H21.0258H21.0261H21.0263H21.0266H21.0268H21.0271H21.0273H21.0276H21.0278H21.0281H21.0283H21.0286H21.0289H21.0291H21.0294H21.0296H21.0299H21.0301H21.0304H21.0306H21.0309H21.0312H21.0314H21.0317H21.0319H21.0322H21.0324H21.0327H21.0329H21.0332H21.0335H21.0337H21.034H21.0342H21.0345H21.0347H21.035H21.0352H21.0355H21.0357H21.036H21.0363H21.0365H21.0368H21.037H21.0373H21.0375H21.0378H21.038H21.0383H21.0386H21.0388H21.0391H21.0393H21.0396H21.0398H21.0401H21.0403H21.0406H21.0408H21.0411H21.0414H21.0416H21.0419H21.0421H21.0424H21.0426H21.0429H21.0431H21.0434H21.0437H21.0439H21.0442H21.0444H21.0447H21.0449H21.0452H21.0454H21.0457H21.0459H21.0462H21.0465H21.0467H21.047H21.0472H21.0475H21.0477H21.048H21.0482H21.0485H21.0488H21.049H21.0493H21.0495H21.0498H21.05H21.0503H21.0505H21.0508H21.0511H21.0513H21.0516H21.0518H21.0521H21.0523H21.0526H21.0528H21.0531H21.0533H21.0536H21.0539H21.0541H21.0544H21.0546H21.0549H21.0551H21.0554H21.0556H21.0559H21.0562H21.0564H21.0567H21.0569H21.0572H21.0574H21.0577H21.0579H21.0582H21.0584H21.0587H21.059H21.0592H21.0595H21.0597H21.06H21.0602H21.0605H21.0607H21.061H21.0613H21.0615H21.0618H21.062H21.0623H21.0625H21.0628H21.063H21.0633H21.0636H21.0638H21.0641H21.0643H21.0646H21.0648H21.0651H21.0653H21.0656H21.0658H21.0661H21.0664H21.0666H21.0669H21.0671H21.0674H21.0676H21.0679H21.0681H21.0684H21.0687H21.0689H21.0692H21.0694H21.0697H21.0699H21.0702H21.0704H21.0707H21.071H21.0712H21.0715H21.0717H21.072H21.0722H21.0725H21.0727H21.073H21.0732H21.0735H21.0738H21.074H21.0743H21.0745H21.0748H21.075H21.0753H21.0755H21.0758H21.0761H21.0763H21.0766H21.0768H21.0771H21.0773H21.0776H21.0778H21.0781H21.0784H21.0786H21.0789H21.0791H21.0794H21.0796H21.0799H21.0801H21.0804H21.0806H21.0809H21.0812H21.0814H21.0817H21.0819H21.0822H21.0824H21.0827H21.0829H21.0832H21.0835H21.0837H21.084H21.0842H21.0845H21.0847H21.085H21.0852H21.0855H21.0858H21.086H21.0863H21.0865H21.0868H21.087H21.0873H21.0875H21.0878H21.088H21.0883H21.0886H21.0888H21.0891H21.0893H21.0896H21.0898H21.0901H21.0903H21.0906H21.0909H21.0911H21.0914H21.0916H21.0919H21.0921H21.0924H21.0926H21.0929H21.0932H21.0934H21.0937H21.0939H21.0942H21.0944H21.0947H21.0949H21.0952H21.0954H21.0957H21.096H21.0962H21.0965H21.0967H21.097H21.0972H21.0975H21.0977H21.098H21.0983H21.0985H21.0988H21.099H21.0993H21.0995H21.0998H21.1H21.1003H21.1006H21.1008H21.1011H21.1013H21.1016H21.1018H21.1021H21.1023H21.1026H21.1028H21.1031H21.1034H21.1036H21.1039H21.1041H21.1044H21.1046H21.1049H21.1051H21.1054H21.1057H21.1059H21.1062H21.1064H21.1067H21.1069H21.1072H21.1074H21.1077H21.108H21.1082H21.1085H21.1087H21.109H21.1092H21.1095H21.1097H21.11H21.1103H21.1105H21.1108H21.111H21.1113H21.1115H21.1118H21.112H21.1123H21.1125H21.1128H21.1131H21.1133H21.1136H21.1138H21.1141H21.1143H21.1146H21.1148H21.1151H21.1154H21.1156H21.1159H21.1161H21.1164H21.1166H21.1169H21.1171H21.1174H21.1177H21.1179H21.1182H21.1184H21.1187H21.1189H21.1192H21.1194H21.1197H21.12H21.1202H21.1205H21.1207H21.121H21.1212H21.1215H21.1217H21.122H21.1222H21.1225H21.1228H21.123H21.1233H21.1235H21.1238H21.124H21.1243H21.1245H21.1248H21.1251H21.1253H21.1256H21.1258H21.1261H21.1263H21.1266H21.1268H21.1271H21.1274H21.1276H21.1279H21.1281H21.1284H21.1286H21.1289H21.1291H21.1294H21.1297H21.1299H21.1302H21.1304H21.1307H21.1309H21.1312H21.1314H21.1317H21.132H21.1322H21.1325H21.1327H21.133H21.1332H21.1335H21.1337H21.134H21.1342H21.1345H21.1348H21.135H21.1353H21.1355H21.1358H21.136H21.1363H21.1365H21.1368H21.1371H21.1373H21.1376H21.1378H21.1381H21.1383H21.1386H21.1388H21.1391H21.1394H21.1396H21.1399H21.1401H21.1404H21.1406H21.1409H21.1411H21.1414H21.1417H21.1419H21.1422H21.1424H21.1427H21.1429H21.1432H21.1434H21.1437H21.144H21.1442H21.1445H21.1447H21.145H21.1452H21.1455H21.1457H21.146H21.1463H21.1465H21.1468H21.2115L21.273 59.8461C21.3169 59.8314 21.3533 59.8169 21.3799 59.8063L21.3821 59.8054C21.4098 59.7943 21.427 59.7876 21.4472 59.7809L21.4603 59.7765L21.473 59.7713C24.9078 58.3593 26.5216 55.3883 27.2768 52.8163C27.6552 51.5275 27.8229 50.3249 27.8963 49.4398C27.933 48.9967 27.9462 48.6318 27.9502 48.3737C27.9541 48.1238 27.949 47.9515 27.949 47.9616C27.949 47.5219 27.6584 47.1355 27.2418 46.996L21.3639 44.9756L21.3538 44.9721L21.3435 44.9692C21.1258 44.9071 20.8901 44.9018 20.6721 44.9743L20.6721 44.9743L20.6683 44.9756L14.7887 46.9966L14.7887 46.9965L14.7823 46.9988C14.3859 47.1426 14.1184 47.5227 14.0846 47.9283ZM21.0161 57.6795C18.891 56.6762 17.6905 54.7961 17.0151 52.9339C16.401 51.2409 16.2353 49.5989 16.1983 48.7435L21.0161 47.0809L25.8341 48.7436C25.7973 49.6057 25.6319 51.2492 25.0172 52.9419C24.3419 54.801 23.1416 56.6763 21.0161 57.6795Z" fill="#080808" stroke="#080808" stroke-width="0.8" stroke-miterlimit="16"/>
</svg>
