<svg width="149" height="72" viewBox="0 0 149 72" fill="none" xmlns="http://www.w3.org/2000/svg">
<path fill-rule="evenodd" clip-rule="evenodd" d="M116.534 32.0306C115.443 31.5079 114.494 30.7769 113.68 29.8373C112.867 28.8978 112.235 27.7995 111.782 26.5359C111.329 25.2722 111.1 23.8927 111.1 22.3941C111.1 20.8955 111.322 19.5127 111.769 18.2391C112.215 16.9655 112.843 15.8672 113.657 14.9376C114.471 14.008 115.42 13.2869 116.511 12.7708C117.603 12.258 118.793 12 120.083 12C121.373 12 122.53 12.2448 123.559 12.7311C124.588 13.2174 125.457 13.8691 126.175 14.6796C126.893 15.4901 127.402 16.3932 127.703 17.3856L124.432 19.172C124.128 18.1961 123.599 17.3889 122.845 16.7505C122.087 16.1087 121.168 15.7878 120.086 15.7878C119.005 15.7878 118.112 16.069 117.315 16.628C116.518 17.1871 115.903 17.9579 115.463 18.9437C115.026 19.9262 114.805 21.0775 114.805 22.3941C114.805 23.7107 115.023 24.8653 115.463 25.8577C115.899 26.8501 116.518 27.6275 117.315 28.1866C118.112 28.7457 119.035 29.0269 120.086 29.0269C121.138 29.0269 122.087 28.706 122.845 28.0642C123.602 27.4224 124.131 26.6152 124.432 25.6427L127.703 27.429C127.399 28.4215 126.889 29.3246 126.175 30.1351C125.457 30.9489 124.588 31.5973 123.559 32.0836C122.534 32.5698 121.373 32.8146 120.083 32.8146C118.793 32.8146 117.626 32.5533 116.538 32.0306H116.534ZM7 12.3242H10.7008V21.0411H17.6263V12.3242H21.3271V32.4905H17.6263V24.6933H10.7008V32.4905H7V12.3242ZM29.1919 12.3242H34.1066L40.1258 32.4905H36.0909L34.897 28.3752H28.3783L27.1844 32.4905H23.1727L29.1919 12.3242ZM33.8651 24.723L31.6459 16.9523L29.4003 24.723H33.8651ZM45.6621 12.3242H41.9612V12.3275V32.4938H53.1862V28.8383H45.6621V12.3242ZM55.0251 12.3242H67.2058V15.9797H58.7293V21.0973H66.0119V24.7528H58.7293V32.4938H55.0284V12.3275L55.0251 12.3242ZM80.1737 12.3242H73.3441V12.3275V32.4938H77.045V25.1862H80.1737C81.3841 25.1862 82.4623 24.9381 83.4115 24.4418C84.3607 23.9456 85.1081 23.2178 85.6571 22.2618C86.2061 21.3058 86.4806 20.1777 86.4806 18.7684C86.4806 17.3592 86.2095 16.1782 85.6671 15.2221C85.1247 14.2661 84.3805 13.5416 83.4346 13.0553C82.4855 12.569 81.4007 12.3242 80.1737 12.3242ZM82.072 20.7698C81.6024 21.276 80.9773 21.5274 80.1968 21.5274H77.045V15.9764H80.1968C80.9773 15.9764 81.6024 16.2278 82.072 16.7339C82.5417 17.2401 82.7765 17.9348 82.7765 18.7651C82.7765 19.5955 82.5417 20.2637 82.072 20.7698ZM88.8423 12.3242H95.6487C96.8757 12.3242 97.9605 12.569 98.9097 13.0553C99.8556 13.5416 100.6 14.2661 101.142 15.2221C101.685 16.1782 101.956 17.3592 101.956 18.7684C101.956 20.1777 101.678 21.3091 101.119 22.275C100.56 23.241 99.8126 23.9655 98.8733 24.4551L102.935 32.4938H98.7807L95.1758 25.1862H92.5498V32.4938H88.849V12.3275L88.8423 12.3242ZM95.6719 21.5274C96.4524 21.5274 97.0775 21.276 97.5471 20.7698C98.0167 20.2637 98.2516 19.5955 98.2516 18.7651C98.2516 17.9348 98.0167 17.2401 97.5471 16.7339C97.0775 16.2278 96.4524 15.9764 95.6719 15.9764H92.5432V21.5274H95.6719ZM108.471 12.3242H104.77V32.4905H108.471V12.3242ZM142.027 12.3242H130.061V12.3275V32.4938H142.027V28.8383H133.765V24.2103H141.551V20.5548H133.765V15.9797H142.027V12.3242Z" fill="#080808"/>
<path fill-rule="evenodd" clip-rule="evenodd" d="M128.454 58.0554C129.198 58.8659 130.13 59.5209 131.248 60.0204H131.238C132.359 60.52 133.662 60.7681 135.028 60.7681C136.394 60.7681 137.605 60.5332 138.653 60.0634C139.705 59.5937 140.525 58.942 141.12 58.1116C141.716 57.2813 142.013 56.3319 142.013 55.2601C142.013 53.9302 141.583 52.8087 140.72 51.8957C139.857 50.9827 138.633 50.3045 137.049 49.8612L133.424 48.8655C132.078 48.4784 131.119 47.9491 130.544 47.2743C129.968 46.5994 129.68 45.8022 129.68 44.8792C129.68 43.718 130.11 42.7885 130.974 42.0971C131.837 41.4057 132.908 41.0583 134.258 41.0583C135.607 41.0583 136.791 41.3891 137.81 42.0541C138.828 42.719 139.586 43.6817 140.082 44.9354L141.775 44.3532C141.478 43.4666 140.978 42.6528 140.274 41.9151C139.569 41.1774 138.703 40.5853 137.674 40.142C136.646 39.6987 135.455 39.4771 134.228 39.4771C133.001 39.4771 131.9 39.7086 130.931 40.1684C129.962 40.6316 129.194 41.2734 128.629 42.0938C128.063 42.9142 127.782 43.8702 127.782 44.9586C127.782 46.1958 128.176 47.314 128.969 48.3097C129.76 49.3055 130.97 50.0266 132.594 50.4699L136.636 51.5781C137.648 51.8527 138.481 52.2828 139.133 52.865C139.784 53.4472 140.112 54.2709 140.112 55.3428C140.112 56.5238 139.639 57.4566 138.686 58.1381C137.737 58.8229 136.527 59.1636 135.002 59.1636C133.477 59.1636 132.164 58.7931 131.066 58.0554C129.968 57.3177 129.141 56.2459 128.586 54.8432L126.863 55.4255C127.18 56.365 127.709 57.2416 128.454 58.0554ZM104.641 39.8046H90.6744V60.4307H104.641V58.77H92.6059V50.9066H104.046V49.2459H92.6059V41.4653H104.641V39.8046ZM7 39.8046H16.1215C17.3286 39.8046 18.3837 40.0262 19.2866 40.4695C20.1861 40.9128 20.8906 41.5215 21.3966 42.2989C21.9026 43.0763 22.154 43.9695 22.154 44.9851C22.154 46.0007 21.9125 46.8376 21.4264 47.6018C20.9402 48.3693 20.2622 48.9647 19.3924 49.3882C20.5202 49.8315 21.4131 50.5129 22.068 51.4359C22.7228 52.3588 23.0469 53.3943 23.0469 54.5389C23.0469 56.3286 22.4384 57.761 21.218 58.8295C20.0009 59.9013 18.301 60.4373 16.1215 60.4373H7V39.8079V39.8046ZM15.9429 48.7199C17.2294 48.7199 18.2646 48.3792 19.0484 47.6944C19.8323 47.0129 20.2225 46.1164 20.2225 45.0082C20.2225 43.9 19.8422 43.0333 19.0782 42.4047C18.3142 41.7762 17.2691 41.4619 15.9429 41.4619H8.93146V48.7166H15.9429V48.7199ZM16.0024 58.7733C17.5668 58.7733 18.8103 58.3962 19.733 57.6386C20.6558 56.881 21.1155 55.8588 21.1155 54.5654C21.1155 53.2719 20.6657 52.2728 19.7628 51.5054C18.8599 50.7379 17.6594 50.3574 16.1513 50.3574H8.93146V58.7766H16.0024V58.7733ZM33.4752 39.8046H35.4661L43.6087 60.434H41.5284L39.5076 55.1741H29.4337L27.3832 60.434H25.3326L33.4752 39.8046ZM38.8528 53.5134L34.4541 42.1037L30.0554 53.5134H38.8495H38.8528ZM48.5097 39.8046H46.8759V60.434H48.8074V43.3211L61.5834 60.434H63.2172V39.8046H61.2857V56.891L48.5097 39.8046ZM68.7738 39.8046H70.4076L83.1836 56.891V39.8046H85.115V60.434H83.4812L70.7052 43.3211V60.434H68.7738V39.8046ZM108.887 39.8046H116.316C117.721 39.8046 118.961 40.0659 120.03 40.5952C121.098 41.1245 121.935 41.8523 122.54 42.7819C123.145 43.7148 123.446 44.7998 123.446 46.037C123.446 47.5125 123.019 48.7795 122.17 49.8315C121.316 50.8834 120.159 51.5947 118.694 51.9652L123.922 60.4406H121.634L116.673 52.2728H110.819V60.4406H108.887V39.8112V39.8046ZM116.375 50.6056C117.9 50.6056 119.14 50.1854 120.089 49.3452C121.042 48.5049 121.515 47.3934 121.515 46.0073C121.515 44.6212 121.038 43.5427 120.089 42.7124C119.137 41.8821 117.9 41.4652 116.375 41.4652H110.819V50.6022H116.375V50.6056Z" fill="#080808"/>
</svg>
