<svg width="171" height="72" viewBox="0 0 171 72" fill="none" xmlns="http://www.w3.org/2000/svg">
<path d="M78.3815 51C75.5138 51 73.2333 50.1877 71.54 48.563C69.8467 46.9104 69 44.5854 69 41.5882V39.0672H73.4245V41.5882C73.4245 43.1569 73.8342 44.4174 74.6535 45.3697C75.5002 46.2941 76.7155 46.7563 78.2996 46.7563C79.8291 46.7563 80.9625 46.2941 81.6999 45.3697C82.4373 44.4454 82.806 43.1849 82.806 41.5882V25.1176H77.808V21H90.426V25.1176H87.2305V41.5882C87.2305 44.6415 86.4521 46.9804 84.8954 48.605C83.3659 50.2017 81.1946 51 78.3815 51Z" fill="#080808"/>
<path d="M99.5911 50.7899C98.0616 50.7899 96.6961 50.4398 95.4943 49.7395C94.2926 49.0392 93.3504 48.0448 92.6676 46.7563C91.9848 45.4678 91.6434 43.9272 91.6434 42.1345V29.6975H95.863V41.8403C95.863 43.6331 96.3 44.9636 97.174 45.8319C98.048 46.6723 99.2633 47.0924 100.82 47.0924C102.541 47.0924 103.92 46.5042 104.958 45.3277C106.023 44.1232 106.556 42.4006 106.556 40.1597V29.6975H110.775V50.4118H106.637V47.3025H105.982C105.6 48.1429 104.917 48.9412 103.934 49.6975C102.95 50.4258 101.503 50.7899 99.5911 50.7899Z" fill="#080808"/>
<path d="M114.818 50.4118V29.6975H119.038V50.4118H114.818ZM116.948 26.8824C116.129 26.8824 115.433 26.6162 114.859 26.084C114.313 25.5238 114.04 24.8095 114.04 23.9412C114.04 23.0728 114.313 22.3726 114.859 21.8403C115.433 21.2801 116.129 21 116.948 21C117.795 21 118.492 21.2801 119.038 21.8403C119.584 22.3726 119.857 23.0728 119.857 23.9412C119.857 24.8095 119.584 25.5238 119.038 26.084C118.492 26.6162 117.795 26.8824 116.948 26.8824Z" fill="#080808"/>
<path d="M132.487 51C130.548 51 128.786 50.5798 127.202 49.7395C125.645 48.8992 124.403 47.6807 123.474 46.084C122.573 44.4874 122.122 42.5686 122.122 40.3277V39.7815C122.122 37.5406 122.573 35.6359 123.474 34.0672C124.403 32.4706 125.645 31.2521 127.202 30.4118C128.786 29.5434 130.548 29.1092 132.487 29.1092C134.426 29.1092 136.078 29.4734 137.444 30.2017C138.809 30.93 139.902 31.8964 140.721 33.1008C141.568 34.3053 142.114 35.6359 142.36 37.0924L138.263 37.9748C138.127 37.0504 137.84 36.2101 137.403 35.4538C136.966 34.6975 136.351 34.0952 135.559 33.6471C134.767 33.1989 133.771 32.9748 132.569 32.9748C131.394 32.9748 130.329 33.2549 129.373 33.8151C128.445 34.3473 127.707 35.1317 127.161 36.1681C126.615 37.1765 126.342 38.409 126.342 39.8655V40.2437C126.342 41.7003 126.615 42.9468 127.161 43.9832C127.707 45.0196 128.445 45.8039 129.373 46.3361C130.329 46.8683 131.394 47.1345 132.569 47.1345C134.344 47.1345 135.696 46.6723 136.625 45.7479C137.553 44.7955 138.14 43.591 138.386 42.1345L142.483 43.1008C142.155 44.5294 141.568 45.8459 140.721 47.0504C139.902 48.2549 138.809 49.2213 137.444 49.9496C136.078 50.6499 134.426 51 132.487 51Z" fill="#080808"/>
<path d="M154.414 51C152.365 51 150.576 50.5658 149.047 49.6975C147.517 48.8011 146.316 47.5546 145.442 45.958C144.595 44.3333 144.172 42.4566 144.172 40.3277V39.8235C144.172 37.6667 144.595 35.7899 145.442 34.1933C146.288 32.5686 147.463 31.3221 148.965 30.4538C150.494 29.5574 152.256 29.1092 154.25 29.1092C156.189 29.1092 157.882 29.5574 159.33 30.4538C160.805 31.3221 161.952 32.5406 162.771 34.1092C163.59 35.6779 164 37.5126 164 39.6134V41.2521H148.473C148.528 43.0728 149.115 44.5294 150.235 45.6218C151.382 46.6863 152.802 47.2185 154.496 47.2185C156.08 47.2185 157.268 46.8543 158.06 46.126C158.879 45.3978 159.507 44.5574 159.944 43.605L163.426 45.4538C163.044 46.2381 162.484 47.0644 161.747 47.9328C161.037 48.8011 160.094 49.5294 158.92 50.1176C157.746 50.7059 156.244 51 154.414 51ZM148.514 37.9328H159.698C159.589 36.3641 159.043 35.1457 158.06 34.2773C157.077 33.381 155.793 32.9328 154.209 32.9328C152.625 32.9328 151.327 33.381 150.317 34.2773C149.334 35.1457 148.733 36.3641 148.514 37.9328Z" fill="#080808"/>
<path d="M14.292 20.5363C20.0965 13.3733 30.1585 10.0453 39.083 12.4308C47.4875 14.4978 54.4425 21.3748 56.646 29.7403C57.946 34.7843 57.7705 40.3353 55.671 45.1323C54.9755 47.0238 51.966 45.6068 52.967 43.8323C54.28 40.0623 54.7805 35.9738 53.981 32.0283C52.5965 24.5338 46.8375 18.0728 39.577 15.7978C31.712 13.1718 22.469 15.7393 17.087 22.0378C11.822 27.8813 10.3075 36.7538 13.3235 44.0208C16.3265 51.6583 24.081 57.1898 32.3165 57.3458C37.042 57.5798 41.722 56.0198 45.596 53.3613C45.1605 51.0148 46.0965 48.2848 48.5925 47.5828C52.0375 46.3088 55.5995 50.4233 53.8575 53.6473C52.837 56.1303 49.873 56.4813 47.6045 55.7403C43.0025 58.9708 37.38 60.8038 31.738 60.4333C23.0735 60.0628 14.9355 54.5898 11.172 46.8093C6.93403 38.4308 8.22103 27.6863 14.292 20.5363Z" fill="#080808"/>
<path d="M30.5687 23.0714C33.8967 21.6414 37.6862 20.5689 41.3457 20.8679C39.6362 23.7019 37.7902 26.4579 36.1002 29.3049C38.1607 29.1164 40.2017 28.7459 42.2492 28.4989C42.3467 28.6484 42.5287 28.9539 42.6197 29.1099C37.2442 35.9024 33.1362 43.5984 29.7172 51.5414C29.3857 52.4254 28.6642 53.9724 27.5332 52.8999C27.9362 47.5309 29.3662 42.3049 30.4907 37.0529C29.1387 37.5989 27.8062 38.1969 26.3892 38.5479C25.2842 37.9759 26.2007 36.7279 26.2917 35.8309C27.6112 31.5539 28.6967 27.1534 30.5687 23.0714Z" fill="#080808"/>
</svg>
