<svg width="197" height="72" viewBox="0 0 197 72" fill="none" xmlns="http://www.w3.org/2000/svg">
<path d="M149.473 24.0276C149.5 23.8791 149.419 23.7322 149.278 23.6748L148.424 23.3283C145.935 22.2825 143.232 21.8514 140.543 22.0734C137.445 22.3352 134.688 23.3459 132.566 25.7504C130.978 27.5641 130.102 30.0772 131.019 32.4146C131.942 34.768 134.329 36.0868 136.652 36.7303C137.373 36.9299 138.912 37.1422 138.937 38.1289C138.995 40.3945 133.507 38.0682 132.674 37.6643L130.699 36.7462C130.509 36.6584 130.287 36.7734 130.251 36.9793L129.029 43.7969C129.002 43.947 129.087 44.0971 129.229 44.1513L130.122 44.493C132.394 45.3536 134.737 45.8022 136.244 45.8246C141.169 45.839 144.473 44.4691 146.535 41.9416C149.994 37.6994 148.601 33.1044 143.392 31.6004C142.585 31.3641 139.892 31.2411 140.254 29.7515C140.696 27.9345 146.346 30.2241 147.85 30.8691C148.038 30.9505 148.252 30.834 148.288 30.6312L149.471 24.0292L149.473 24.0276Z" fill="#080808"/>
<path d="M169.167 24.0276C169.194 23.8791 169.112 23.7322 168.972 23.6748L168.125 23.3283C165.637 22.2825 162.934 21.8514 160.244 22.0734C157.146 22.3352 154.39 23.3459 152.267 25.7504C150.679 27.5641 149.804 30.0772 150.721 32.4146C151.644 34.768 154.031 36.0868 156.354 36.7303C157.075 36.9299 158.613 37.1422 158.639 38.1289C158.696 40.3945 153.208 38.0682 152.376 37.6643L150.4 36.7462C150.211 36.6584 149.989 36.7734 149.952 36.9793L148.733 43.7969C148.705 43.947 148.79 44.0971 148.932 44.1513L149.823 44.493C152.095 45.3536 154.439 45.8022 155.946 45.8246C160.871 45.839 164.174 44.4691 166.236 41.9416C169.696 37.6994 168.302 33.1044 163.093 31.6004C162.287 31.3641 159.594 31.2411 159.956 29.7515C160.397 27.9345 166.038 30.2241 167.542 30.8691C167.73 30.9505 167.944 30.834 167.98 30.6312L169.163 24.0292L169.167 24.0276Z" fill="#080808"/>
<path d="M108.722 45.3988H125.461C125.616 45.3988 125.747 45.2887 125.775 45.137L126.899 38.8607C126.936 38.6643 126.785 38.4839 126.585 38.4839L117.803 38.4903C117.602 38.4903 117.451 38.3067 117.491 38.1087L117.735 36.7484C117.765 36.5999 117.896 36.4913 118.047 36.4913H127.056C127.209 36.4913 127.341 36.3827 127.37 36.2311L128.177 31.7286C128.213 31.5322 128.063 31.3502 127.862 31.3502H119.08C118.881 31.3502 118.73 31.1682 118.766 30.9718L119.007 29.637C119.036 29.4854 119.167 29.3768 119.321 29.3768H128.331C128.486 29.3768 128.618 29.2666 128.645 29.1134L129.776 22.8051C129.811 22.6088 129.661 22.4299 129.462 22.4299H112.722C112.567 22.4299 112.435 22.5417 112.408 22.6934L108.407 45.022C108.372 45.2184 108.522 45.3972 108.722 45.3972V45.3988Z" fill="#080808"/>
<path d="M168.741 45.3991H185.481C185.635 45.3991 185.766 45.2889 185.795 45.1372L186.919 38.8609C186.956 38.6645 186.804 38.4841 186.605 38.4841L177.823 38.4905C177.622 38.4905 177.47 38.3069 177.51 38.1089L177.754 36.7486C177.785 36.6001 177.915 36.4916 178.067 36.4916H187.075C187.228 36.4916 187.361 36.383 187.389 36.2313L188.196 31.7289C188.233 31.5325 188.083 31.3505 187.882 31.3505H179.1C178.901 31.3505 178.749 31.1684 178.786 30.9721L179.027 29.6373C179.055 29.4856 179.186 29.377 179.341 29.377H188.351C188.505 29.377 188.638 29.2669 188.665 29.1136L189.795 22.8054C189.83 22.609 189.681 22.4302 189.481 22.4302H172.741C172.587 22.4302 172.454 22.5419 172.427 22.6936L168.427 45.0223C168.392 45.2186 168.542 45.3975 168.741 45.3975V45.3991Z" fill="#080808"/>
<path d="M51.012 45.4023H58.3255C58.4802 45.4023 58.6125 45.2921 58.6396 45.1404L59.609 39.7247C59.6361 39.573 59.7685 39.4629 59.9231 39.4629H68.4867C68.6398 39.4629 68.7721 39.3543 68.8008 39.2026L69.9281 32.9088C69.9647 32.7124 69.8133 32.5304 69.614 32.5304H61.28C61.0807 32.5304 60.9292 32.3483 60.9659 32.152L61.4155 29.6405C61.4442 29.4888 61.5749 29.3802 61.7296 29.3802L70.2916 29.385C70.4462 29.385 70.5786 29.2749 70.6057 29.1216L71.7377 22.8054C71.7728 22.609 71.6229 22.4302 71.4236 22.4302L55.0139 22.4334C54.8593 22.4334 54.7269 22.5435 54.6998 22.6968L50.6994 45.0255C50.6644 45.2218 50.8142 45.4007 51.0135 45.4007L51.012 45.4023Z" fill="#080808"/>
<path d="M78.9202 45.1397L82.9206 22.8078C82.9557 22.6114 82.8058 22.4326 82.6065 22.4326L75.3152 22.4358C75.1606 22.4358 75.0282 22.546 75.0011 22.6993L70.9944 45.0279C70.9593 45.2243 71.1092 45.4031 71.3085 45.4031H78.6045C78.7592 45.4031 78.8915 45.2929 78.9186 45.1397H78.9202Z" fill="#080808"/>
<path d="M109.146 22.8062L105.144 45.1349C105.117 45.2881 104.984 45.3999 104.83 45.3999H97.6693C97.5402 45.3999 97.4254 45.3233 97.3759 45.2051L92.9546 34.1949C92.8542 34.0272 92.6118 33.8053 92.3121 33.9809C92.1654 34.0671 92.0729 34.2252 92.0458 34.3944L90.1214 45.1317C90.0959 45.2866 89.9635 45.3999 89.8073 45.3999H82.5096C82.3103 45.3999 82.1605 45.2195 82.1955 45.0247L86.1959 22.6961C86.223 22.5444 86.3554 22.4326 86.51 22.4326H94.455C94.5841 22.4326 94.7021 22.5109 94.7499 22.6322L98.9417 33.6456C99.0038 33.8053 99.2366 34.0272 99.5236 33.8516C99.6639 33.7654 99.7516 33.6073 99.7787 33.4381L101.702 22.704C101.726 22.5476 101.859 22.4326 102.017 22.4326H108.833C109.031 22.4326 109.181 22.6114 109.147 22.8062H109.146Z" fill="#080808"/>
<path d="M7.60052 16.0032L42.3699 16C42.6601 16 42.853 16.2986 42.735 16.5636L37.821 27.5898C37.7572 27.7335 37.6137 27.8277 37.4559 27.8277H12.5129C12.3551 27.8277 12.2116 27.7351 12.1478 27.5898L7.2354 16.5668C7.11741 16.3018 7.31034 16.0032 7.60052 16.0032Z" fill="#080808"/>
<path d="M23.6046 51.4856L25.0172 40.3588C25.0332 40.239 25.1017 40.1336 25.2038 40.0698L34.775 34.2437C35.1162 34.0362 34.9695 33.5093 34.5694 33.5093H15.3965C15.1096 33.5093 14.9182 33.8047 15.0346 34.0665L22.8488 51.5973C23.0115 51.9629 23.552 51.8831 23.603 51.4856H23.6046Z" fill="#080808"/>
</svg>
