<svg width="155" height="72" viewBox="0 0 155 72" fill="none" xmlns="http://www.w3.org/2000/svg">
<path d="M21.5101 22C23.3008 22.0063 25.0914 22.0063 26.8821 22C26.8757 30.9975 26.8757 39.995 26.8821 48.9926C25.1737 48.9926 23.4653 48.9926 21.7569 48.9926C21.7759 48.3661 21.8138 47.1197 21.8265 46.4932C18.7451 50.954 11.2155 50.2011 8.68455 45.5568C6.1979 41.1656 6.3371 34.9395 9.95635 31.1937C13.0631 28.0173 18.8526 28.2198 21.5671 31.8264C21.4595 28.5552 21.5354 25.2776 21.5101 22ZM14.8727 33.5095C11.9305 35.5216 11.9115 39.9824 13.196 42.9816C14.3475 45.7087 18.473 46.373 20.3332 44.0446C21.9657 41.6022 21.9973 38.3183 21.0799 35.6102C20.194 33.1805 17.0557 32.2883 14.8727 33.5095Z" fill="#080808"/>
<path d="M32.8095 31.8575C36.4414 28.0231 43.4648 27.865 46.9322 32.0094C48.9822 34.3379 49.4758 37.5269 49.5011 40.5197C44.7492 40.526 39.9974 40.5134 35.2455 40.5324C35.5999 41.8991 35.6568 43.5758 36.9223 44.468C39.333 46.265 42.9839 45.512 44.5531 42.9621C46.0906 42.9368 47.6282 42.9431 49.1657 42.9621C48.2736 45.1134 47.0967 47.3533 44.8821 48.3846C40.6554 50.4157 34.7457 49.6944 31.911 45.6892C29.108 41.6143 29.3294 35.4831 32.8095 31.8575ZM36.7957 33.9899C35.8783 34.7808 35.6441 36.0336 35.2265 37.1093C38.2004 37.1282 41.1743 37.1282 44.1545 37.1093C43.623 35.8311 43.3382 34.2366 42.0095 33.5216C40.3897 32.6991 38.2067 32.775 36.7957 33.9899Z" fill="#080808"/>
<path d="M74.0534 31.9777C77.6094 28.0864 84.6075 27.8143 88.1508 31.8638C90.3021 34.1923 90.8273 37.4635 90.8589 40.5196C86.1008 40.5323 81.3426 40.507 76.5907 40.5386C76.9514 41.9749 77.0526 43.7529 78.4636 44.6134C80.8933 46.2079 84.3797 45.4613 85.8983 42.9683C87.4422 42.9367 88.986 42.9367 90.5299 42.9683C89.6251 44.9994 88.5811 47.176 86.4994 48.239C82.2284 50.4852 76.0592 49.7513 73.1992 45.5942C70.4911 41.5636 70.7063 35.5906 74.0534 31.9777ZM78.3561 33.8126C77.2867 34.5846 77.0273 35.9513 76.5781 37.1092C79.5519 37.1282 82.5258 37.1345 85.506 37.1092C84.9618 35.8121 84.6644 34.1796 83.2914 33.4836C81.7539 32.737 79.7607 32.7939 78.3561 33.8126Z" fill="#080808"/>
<path d="M99.0277 33.1219C100.451 30.3315 103.406 28.6041 106.551 28.9585C106.551 30.6352 106.551 32.3057 106.564 33.9761C104.045 33.6787 100.799 34.1026 99.8819 36.893C98.8632 40.8286 99.5213 44.9667 99.3378 48.9909C97.5471 48.9909 95.7565 48.9909 93.9658 48.9909C93.9658 42.4737 93.9658 35.9629 93.9658 29.452C95.6742 29.452 97.3763 29.452 99.0783 29.452C99.072 30.6732 99.0657 31.9007 99.0277 33.1219Z" fill="#080808"/>
<path d="M133.962 29.8513C136.973 28.6807 140.447 28.6934 143.529 29.6298C145.977 30.3828 147.414 32.7176 147.812 35.141C146.135 35.16 144.459 35.1663 142.782 35.1536C142.2 32.5467 139.112 32.0279 136.942 32.8568C135.778 33.3313 135.626 35.1473 136.796 35.7168C139.935 37.2923 143.851 36.9569 146.686 39.2158C148.768 40.9305 148.571 44.2334 147.198 46.3214C145.61 48.6942 142.573 49.3839 139.897 49.4661C136.948 49.5294 133.582 49.0359 131.576 46.6378C130.589 45.5432 130.399 44.0246 130.045 42.6579C131.709 42.6389 133.367 42.6389 135.031 42.6516C135.613 45.8089 139.77 46.8972 142.13 45.0117C143.143 44.3093 143.136 42.5566 141.985 41.9998C138.758 40.2851 134.626 40.6837 131.772 38.2034C129.425 35.6598 130.785 31.0472 133.962 29.8513Z" fill="#080808"/>
<path d="M50.7686 29.4524C52.6478 29.4524 54.5207 29.4524 56.3999 29.4524C57.7919 33.9322 59.1586 38.4183 60.557 42.8981C61.9553 38.4183 63.3221 33.9322 64.7141 29.4524C66.4921 29.4524 68.2637 29.4524 70.0354 29.4524C67.8398 35.9696 65.6316 42.4805 63.4296 48.9913C61.4365 48.9976 59.4434 48.985 57.4503 48.985C55.2293 42.4741 52.9958 35.9633 50.7686 29.4524Z" fill="#080808"/>
<path d="M108.67 29.4524C110.461 29.4524 112.245 29.4524 114.036 29.4524C114.067 33.2678 113.979 37.0895 114.061 40.9049C114.131 42.3096 114.27 44.0496 115.649 44.8152C117.168 45.5619 119.275 45.4417 120.483 44.1699C121.534 42.9234 121.559 41.2023 121.629 39.6648C121.673 36.2606 121.616 32.8565 121.635 29.4524C123.426 29.4524 125.216 29.4524 127.001 29.4524C127.007 35.9633 127.001 42.4804 127.007 48.9913C125.298 48.985 123.596 48.9913 121.888 48.9913C121.901 48.0675 121.913 47.1374 121.932 46.2136C119.68 49.5987 114.827 50.3897 111.391 48.4345C109.271 47.1374 108.759 44.4609 108.702 42.1641C108.613 37.9311 108.702 33.6917 108.67 29.4524Z" fill="#080808"/>
</svg>
