<svg width="1680" height="800" viewBox="0 0 1680 800" fill="none" xmlns="http://www.w3.org/2000/svg">
<g clip-path="url(#clip0_7167_70833)">
<rect width="1680" height="800" rx="16" fill="#FFECA9"/>
<path d="M1656.04 487.04C1677.23 470.668 1697.51 480.218 1705 487.04V813.619H1289.64C1270.42 815.435 1232.19 811.67 1233.01 782.09C1233.84 752.511 1257.84 743.969 1269.73 743.396C1262.23 736.899 1248.06 721.326 1251.37 711.007C1254.68 700.689 1278.26 713.969 1289.64 721.899C1286.28 714.924 1282.45 695.759 1294.03 674.892C1305.62 654.026 1333.68 670.975 1346.26 682.058C1348.59 673.077 1358.37 653.711 1378.84 648.096C1399.32 642.482 1415.13 657.888 1420.47 666.293C1456.47 613.554 1464.77 650.051 1464.43 674.892C1479.12 649.44 1497.44 658.555 1504.77 666.293C1507.04 637.631 1524.68 642.219 1533.22 648.096C1519.09 552.708 1559.44 573.352 1581.38 595.597C1598.72 564.988 1620.18 582.843 1628.74 595.597C1629.01 566.233 1634.84 503.413 1656.04 487.04Z" fill="#2FAA4A"/>
<path d="M1637.89 -1.37024C1625.09 8.88131 1606.84 22.2242 1584.48 34.1848M1305 -15.6277C1328.58 6.69338 1352.07 23.9413 1375.09 36.9961M1362.56 43.6544L1375.09 36.9961M1375.09 36.9961C1456.08 82.9326 1531.73 62.4064 1584.48 34.1848M1584.48 34.1848L1574 28.6556" stroke="#97D2A6" stroke-width="5" stroke-linecap="round"/>
<path d="M1692.87 79.4733C1669.48 83.8099 1635.46 86.4679 1598.94 83.2291M1431.17 -5.11572C1440.79 10.8193 1452.71 24.1175 1466.19 35.1613M1598.33 72.4316L1598.94 83.2291M1598.94 83.2291C1584.33 81.9338 1569.33 79.6955 1554.45 76.2443M1471.14 23.6761L1466.19 35.1613M1466.19 35.1613C1491.7 56.0744 1522.8 68.9033 1554.45 76.2443M1552.71 89.417L1554.45 76.2443" stroke="#6DC483" stroke-width="5" stroke-linecap="round"/>
<path d="M806.622 539.144C806.158 539.144 805.782 539.008 805.494 538.736C805.222 538.448 805.086 538.064 805.086 537.584V523.544C805.086 523.08 805.214 522.72 805.47 522.464C805.742 522.208 806.11 522.08 806.574 522.08H812.478C814.286 522.08 815.694 522.536 816.702 523.448C817.71 524.344 818.214 525.608 818.214 527.24C818.214 528.872 817.71 530.144 816.702 531.056C815.694 531.968 814.286 532.424 812.478 532.424H808.182V537.584C808.182 538.064 808.038 538.448 807.75 538.736C807.478 539.008 807.102 539.144 806.622 539.144ZM812.094 530.048C814.222 530.048 815.286 529.12 815.286 527.264C815.286 525.408 814.222 524.48 812.094 524.48H808.182V530.048H812.094ZM822.153 539.144C821.721 539.144 821.361 539.024 821.073 538.784C820.801 538.528 820.665 538.168 820.665 537.704V523.376C820.665 522.912 820.801 522.56 821.073 522.32C821.361 522.08 821.721 521.96 822.153 521.96C822.585 521.96 822.945 522.08 823.233 522.32C823.521 522.56 823.665 522.912 823.665 523.376V537.704C823.665 538.168 823.521 538.528 823.233 538.784C822.945 539.024 822.585 539.144 822.153 539.144ZM831.847 526.976C833.479 526.976 834.687 527.384 835.471 528.2C836.271 529 836.671 530.224 836.671 531.872V537.728C836.671 538.16 836.543 538.504 836.287 538.76C836.031 539 835.679 539.12 835.231 539.12C834.815 539.12 834.471 538.992 834.199 538.736C833.943 538.48 833.815 538.144 833.815 537.728V537.2C833.543 537.824 833.111 538.312 832.519 538.664C831.943 539.016 831.271 539.192 830.503 539.192C829.719 539.192 829.007 539.032 828.367 538.712C827.727 538.392 827.223 537.952 826.855 537.392C826.487 536.832 826.303 536.208 826.303 535.52C826.303 534.656 826.519 533.976 826.951 533.48C827.399 532.984 828.119 532.624 829.111 532.4C830.103 532.176 831.471 532.064 833.215 532.064H833.815V531.512C833.815 530.728 833.647 530.16 833.311 529.808C832.975 529.44 832.431 529.256 831.679 529.256C831.215 529.256 830.743 529.328 830.263 529.472C829.783 529.6 829.215 529.792 828.559 530.048C828.143 530.256 827.839 530.36 827.647 530.36C827.359 530.36 827.119 530.256 826.927 530.048C826.751 529.84 826.663 529.568 826.663 529.232C826.663 528.96 826.727 528.728 826.855 528.536C826.999 528.328 827.231 528.136 827.551 527.96C828.111 527.656 828.775 527.416 829.543 527.24C830.327 527.064 831.095 526.976 831.847 526.976ZM831.103 537.032C831.903 537.032 832.551 536.768 833.047 536.24C833.559 535.696 833.815 535 833.815 534.152V533.648H833.383C832.311 533.648 831.479 533.696 830.887 533.792C830.295 533.888 829.871 534.056 829.615 534.296C829.359 534.536 829.231 534.864 829.231 535.28C829.231 535.792 829.407 536.216 829.759 536.552C830.127 536.872 830.575 537.032 831.103 537.032ZM847.904 527.888C848.032 527.6 848.2 527.392 848.408 527.264C848.632 527.12 848.872 527.048 849.128 527.048C849.496 527.048 849.824 527.176 850.112 527.432C850.416 527.672 850.568 527.976 850.568 528.344C850.568 528.52 850.52 528.704 850.424 528.896L843.872 542.624C843.6 543.168 843.176 543.44 842.6 543.44C842.232 543.44 841.904 543.32 841.616 543.08C841.344 542.856 841.208 542.568 841.208 542.216C841.208 542.04 841.256 541.84 841.352 541.616L842.984 538.184L838.52 528.896C838.44 528.736 838.4 528.552 838.4 528.344C838.4 527.976 838.552 527.664 838.856 527.408C839.176 527.152 839.536 527.024 839.936 527.024C840.208 527.024 840.456 527.096 840.68 527.24C840.904 527.368 841.08 527.576 841.208 527.864L844.568 535.28L847.904 527.888ZM860.901 536.744C861.797 536.744 862.245 537.12 862.245 537.872C862.245 538.224 862.133 538.504 861.909 538.712C861.685 538.904 861.349 539 860.901 539H852.885C852.485 539 852.157 538.872 851.901 538.616C851.645 538.36 851.517 538.056 851.517 537.704C851.517 537.336 851.661 536.984 851.949 536.648L858.117 529.52H852.765C852.317 529.52 851.981 529.424 851.757 529.232C851.533 529.04 851.421 528.76 851.421 528.392C851.421 528.024 851.533 527.744 851.757 527.552C851.981 527.36 852.317 527.264 852.765 527.264H860.517C860.933 527.264 861.261 527.392 861.501 527.648C861.757 527.888 861.885 528.192 861.885 528.56C861.885 528.944 861.749 529.296 861.477 529.616L855.285 536.744H860.901ZM873.664 527.024C874.128 527.024 874.496 527.152 874.768 527.408C875.04 527.664 875.176 528.008 875.176 528.44V537.752C875.176 538.168 875.032 538.504 874.744 538.76C874.472 539.016 874.112 539.144 873.664 539.144C873.232 539.144 872.888 539.024 872.632 538.784C872.376 538.544 872.248 538.216 872.248 537.8V537.2C871.88 537.84 871.384 538.336 870.76 538.688C870.136 539.024 869.432 539.192 868.648 539.192C865.768 539.192 864.328 537.576 864.328 534.344V528.44C864.328 528.008 864.464 527.664 864.736 527.408C865.008 527.152 865.368 527.024 865.816 527.024C866.28 527.024 866.648 527.152 866.92 527.408C867.192 527.664 867.328 528.008 867.328 528.44V534.368C867.328 535.2 867.496 535.816 867.832 536.216C868.168 536.616 868.696 536.816 869.416 536.816C870.248 536.816 870.912 536.544 871.408 536C871.92 535.44 872.176 534.704 872.176 533.792V528.44C872.176 528.008 872.312 527.664 872.584 527.408C872.856 527.152 873.216 527.024 873.664 527.024Z" fill="#273430"/>
<path d="M70.92 139.468C69.412 139.468 68.19 139.026 67.254 138.142C66.37 137.206 65.928 135.958 65.928 134.398V88.768C65.928 87.26 66.344 86.09 67.176 85.258C68.06 84.426 69.256 84.01 70.764 84.01H89.952C95.828 84.01 100.404 85.492 103.68 88.456C106.956 91.368 108.594 95.476 108.594 100.78C108.594 106.084 106.956 110.218 103.68 113.182C100.404 116.146 95.828 117.628 89.952 117.628H75.99V134.398C75.99 135.958 75.522 137.206 74.586 138.142C73.702 139.026 72.48 139.468 70.92 139.468ZM88.704 109.906C95.62 109.906 99.078 106.89 99.078 100.858C99.078 94.826 95.62 91.81 88.704 91.81H75.99V109.906H88.704ZM121.398 139.468C119.994 139.468 118.824 139.078 117.888 138.298C117.004 137.466 116.562 136.296 116.562 134.788V88.222C116.562 86.714 117.004 85.57 117.888 84.79C118.824 84.01 119.994 83.62 121.398 83.62C122.802 83.62 123.972 84.01 124.908 84.79C125.844 85.57 126.312 86.714 126.312 88.222V134.788C126.312 136.296 125.844 137.466 124.908 138.298C123.972 139.078 122.802 139.468 121.398 139.468ZM152.903 99.922C158.207 99.922 162.133 101.248 164.681 103.9C167.281 106.5 168.581 110.478 168.581 115.834V134.866C168.581 136.27 168.165 137.388 167.333 138.22C166.501 139 165.357 139.39 163.901 139.39C162.549 139.39 161.431 138.974 160.547 138.142C159.715 137.31 159.299 136.218 159.299 134.866V133.15C158.415 135.178 157.011 136.764 155.087 137.908C153.215 139.052 151.031 139.624 148.535 139.624C145.987 139.624 143.673 139.104 141.593 138.064C139.513 137.024 137.875 135.594 136.679 133.774C135.483 131.954 134.885 129.926 134.885 127.69C134.885 124.882 135.587 122.672 136.991 121.06C138.447 119.448 140.787 118.278 144.011 117.55C147.235 116.822 151.681 116.458 157.349 116.458H159.299V114.664C159.299 112.116 158.753 110.27 157.661 109.126C156.569 107.93 154.801 107.332 152.357 107.332C150.849 107.332 149.315 107.566 147.755 108.034C146.195 108.45 144.349 109.074 142.217 109.906C140.865 110.582 139.877 110.92 139.253 110.92C138.317 110.92 137.537 110.582 136.913 109.906C136.341 109.23 136.055 108.346 136.055 107.254C136.055 106.37 136.263 105.616 136.679 104.992C137.147 104.316 137.901 103.692 138.941 103.12C140.761 102.132 142.919 101.352 145.415 100.78C147.963 100.208 150.459 99.922 152.903 99.922ZM150.485 132.604C153.085 132.604 155.191 131.746 156.803 130.03C158.467 128.262 159.299 126 159.299 123.244V121.606H157.895C154.411 121.606 151.707 121.762 149.783 122.074C147.859 122.386 146.481 122.932 145.649 123.712C144.817 124.492 144.401 125.558 144.401 126.91C144.401 128.574 144.973 129.952 146.117 131.044C147.313 132.084 148.769 132.604 150.485 132.604ZM205.088 102.886C205.504 101.95 206.05 101.274 206.726 100.858C207.454 100.39 208.234 100.156 209.066 100.156C210.262 100.156 211.328 100.572 212.264 101.404C213.252 102.184 213.746 103.172 213.746 104.368C213.746 104.94 213.59 105.538 213.278 106.162L191.984 150.778C191.1 152.546 189.722 153.43 187.85 153.43C186.654 153.43 185.588 153.04 184.652 152.26C183.768 151.532 183.326 150.596 183.326 149.452C183.326 148.88 183.482 148.23 183.794 147.502L189.098 136.348L174.59 106.162C174.33 105.642 174.2 105.044 174.2 104.368C174.2 103.172 174.694 102.158 175.682 101.326C176.722 100.494 177.892 100.078 179.192 100.078C180.076 100.078 180.882 100.312 181.61 100.78C182.338 101.196 182.91 101.872 183.326 102.808L194.246 126.91L205.088 102.886ZM247.329 131.668C250.241 131.668 251.697 132.89 251.697 135.334C251.697 136.478 251.333 137.388 250.605 138.064C249.877 138.688 248.785 139 247.329 139H221.277C219.977 139 218.911 138.584 218.079 137.752C217.247 136.92 216.831 135.932 216.831 134.788C216.831 133.592 217.299 132.448 218.235 131.356L238.281 108.19H220.887C219.431 108.19 218.339 107.878 217.611 107.254C216.883 106.63 216.519 105.72 216.519 104.524C216.519 103.328 216.883 102.418 217.611 101.794C218.339 101.17 219.431 100.858 220.887 100.858H246.081C247.433 100.858 248.499 101.274 249.279 102.106C250.111 102.886 250.527 103.874 250.527 105.07C250.527 106.318 250.085 107.462 249.201 108.502L229.077 131.668H247.329ZM288.807 100.078C290.315 100.078 291.511 100.494 292.395 101.326C293.279 102.158 293.721 103.276 293.721 104.68V134.944C293.721 136.296 293.253 137.388 292.317 138.22C291.433 139.052 290.263 139.468 288.807 139.468C287.403 139.468 286.285 139.078 285.453 138.298C284.621 137.518 284.205 136.452 284.205 135.1V133.15C283.009 135.23 281.397 136.842 279.369 137.986C277.341 139.078 275.053 139.624 272.505 139.624C263.145 139.624 258.465 134.372 258.465 123.868V104.68C258.465 103.276 258.907 102.158 259.791 101.326C260.675 100.494 261.845 100.078 263.301 100.078C264.809 100.078 266.005 100.494 266.889 101.326C267.773 102.158 268.215 103.276 268.215 104.68V123.946C268.215 126.65 268.761 128.652 269.853 129.952C270.945 131.252 272.661 131.902 275.001 131.902C277.705 131.902 279.863 131.018 281.475 129.25C283.139 127.43 283.971 125.038 283.971 122.074V104.68C283.971 103.276 284.413 102.158 285.297 101.326C286.181 100.494 287.351 100.078 288.807 100.078Z" fill="#FFB210"/>
</g>
<path d="M581.978 272.044L466 502L1131 499L1021.85 317.074L963.046 407.135L883.068 229L771.335 407.135L717.232 332.967L666.658 407.135L581.978 272.044Z" fill="#FFB210"/>
<ellipse cx="798.5" cy="526.5" rx="370.5" ry="84.5" fill="#FFD53F"/>
<g style="mix-blend-mode:multiply">
<ellipse cx="955.054" cy="513.164" rx="77.0468" ry="14.1584" fill="#FFD53F"/>
</g>
<path d="M974.266 268.128C975.661 270.955 991.412 304.684 971.354 348.641C959.171 375.34 936.731 379.449 934.527 379.791C933.035 378.133 918.235 360.771 925.658 332.379C937.88 285.633 971.399 269.438 974.266 268.128Z" fill="#2FAA4A"/>
<path d="M933.29 383.241L934.518 379.791C934.479 379.748 934.43 379.692 934.374 379.629C933.642 382.023 933.29 383.241 933.29 383.241Z" fill="white" stroke="black" stroke-width="2.69251" stroke-miterlimit="10" stroke-linecap="round" stroke-linejoin="round"/>
<path d="M828.771 283.877C828.013 286.937 819.845 323.256 848.844 361.902C866.458 385.376 889.257 384.587 891.484 384.45C892.586 382.511 903.328 362.385 890.001 336.238C868.06 293.191 831.852 284.543 828.771 283.877Z" fill="#2FAA4A"/>
<path d="M899.174 254.338C895.906 258.277 858.321 305.624 873.447 382.612C882.635 429.374 916.534 444.315 919.887 445.687C922.868 443.629 952.785 421.78 951.753 374.135C950.055 295.694 903.21 257.487 899.174 254.338Z" fill="#59D574"/>
<path d="M1002.43 363.515C1007.41 335.357 1001.98 310.276 1001.98 310.276C1001.98 310.276 987.421 318.746 951.67 347.747C923.88 370.29 918.3 405.145 916.517 414.569L951.634 410.767C977.16 408.004 997.948 388.798 1002.43 363.515Z" fill="#42BB5D"/>
<path d="M821.67 383.081C810.772 356.642 810.714 330.979 810.714 330.979C810.714 330.979 826.748 336.137 867.877 356.817C899.847 372.891 912.756 405.744 916.514 414.568L881.397 418.37C855.871 421.133 831.454 406.819 821.67 383.081Z" fill="#42BB5D"/>
<path d="M949.405 481.108L898.617 486.606C885.146 488.064 872.731 481.37 869.082 470.681L852.95 423.427L980.495 409.621L974.849 459.232C973.572 470.454 962.876 479.65 949.405 481.108Z" fill="#FECE8C"/>
<path d="M984.143 422.54L852.151 436.827C846.802 437.406 841.997 433.539 841.418 428.191C840.839 422.843 844.706 418.037 850.054 417.458L982.047 403.171C987.395 402.592 992.2 406.458 992.779 411.807C993.358 417.155 989.492 421.961 984.143 422.54Z" fill="#C07E3E"/>
<g style="mix-blend-mode:multiply">
<path d="M982.045 403.169L966.529 404.849L968.625 424.218L984.142 422.538C989.49 421.959 993.357 417.154 992.778 411.805C992.199 406.457 987.394 402.59 982.045 403.169Z" fill="#E48E3B"/>
</g>
<path d="M899.394 440.693C899.964 438.083 902.343 436.272 905.011 436.416L910.017 436.686C917.539 437.092 925.077 436.233 932.316 434.145L937.823 432.556C940.211 431.867 942.769 432.819 944.126 434.902C945.493 436.999 945.812 439.611 944.991 441.976L944.727 442.738C943.966 444.929 942.377 446.734 940.299 447.766L938.843 448.489C928.958 453.399 917.662 454.674 906.933 452.093L906.166 451.908C903.586 451.287 901.431 449.521 900.317 447.112L900.028 446.489C899.191 444.678 898.968 442.642 899.394 440.693Z" fill="#242424"/>
<mask id="mask0_7167_70833" style="mask-type:alpha" maskUnits="userSpaceOnUse" x="899" y="432" width="47" height="22">
<path d="M899.394 440.693C899.964 438.083 902.343 436.272 905.011 436.416L910.017 436.686C917.539 437.092 925.077 436.233 932.316 434.145L937.823 432.556C940.211 431.867 942.769 432.819 944.126 434.902C945.493 436.999 945.812 439.611 944.991 441.976L944.727 442.738C943.966 444.929 942.377 446.734 940.299 447.766L938.843 448.489C928.958 453.399 917.662 454.674 906.933 452.093L906.166 451.908C903.586 451.287 901.431 449.521 900.317 447.112L900.028 446.489C899.191 444.678 898.968 442.642 899.394 440.693Z" fill="#E8E8E8"/>
</mask>
<g mask="url(#mask0_7167_70833)">
<circle cx="924.813" cy="462.075" r="18.4853" transform="rotate(-6.56211 924.813 462.075)" fill="#E96338"/>
<rect x="908.928" y="431.526" width="8.7618" height="11.1125" rx="4.3809" transform="rotate(-6.56211 908.928 431.526)" fill="white"/>
<rect x="923.209" y="428.592" width="9.40291" height="12.181" rx="4.70146" transform="rotate(-6.56211 923.209 428.592)" fill="white"/>
</g>
<ellipse cx="880.701" cy="408.266" rx="33.0979" ry="33.0979" transform="rotate(-8.60499 880.701 408.266)" fill="white"/>
<ellipse cx="867.41" cy="441.924" rx="18.1781" ry="10.461" transform="rotate(-8.60499 867.41 441.924)" fill="#DC5126"/>
<circle cx="880.76" cy="408.623" r="17.4922" transform="rotate(-8.60499 880.76 408.623)" fill="#442005"/>
<ellipse cx="886.33" cy="401.882" rx="3.77282" ry="3.77282" transform="rotate(-8.60499 886.33 401.882)" fill="#F3F7FE"/>
<ellipse cx="951.569" cy="397.54" rx="33.0979" ry="33.0979" transform="rotate(-8.60499 951.569 397.54)" fill="white"/>
<circle cx="952.165" cy="395.734" r="17.4922" transform="rotate(-8.60499 952.165 395.734)" fill="#442005"/>
<ellipse cx="957.745" cy="388.992" rx="3.77282" ry="3.77282" transform="rotate(-8.60499 957.745 388.992)" fill="#F3F7FE"/>
<ellipse cx="973.784" cy="422.816" rx="18.1781" ry="10.461" transform="rotate(-8.60499 973.784 422.816)" fill="#DC5126"/>
<path d="M935.45 355.655C935.45 355.655 947.365 339.538 963.987 353.878" stroke="#230606" stroke-width="2.99215" stroke-linecap="round"/>
<path d="M887.01 362.23C887.01 362.23 871.462 349.581 858.927 367.603" stroke="#230606" stroke-width="2.99215" stroke-linecap="round"/>
<path d="M1058.14 290.345C1061.7 290.345 1064.59 287.457 1064.59 283.894C1064.59 280.332 1061.7 277.444 1058.14 277.444C1054.57 277.444 1051.69 280.332 1051.69 283.894C1051.69 287.457 1054.57 290.345 1058.14 290.345Z" fill="#FFFCFC"/>
<path d="M1020.88 360.775C1024.44 360.775 1027.33 357.887 1027.33 354.325C1027.33 350.762 1024.44 347.874 1020.88 347.874C1017.31 347.874 1014.43 350.762 1014.43 354.325C1014.43 357.887 1017.31 360.775 1020.88 360.775Z" fill="#FFFCFC"/>
<path d="M874.39 277.443C877.953 277.443 880.841 274.555 880.841 270.993C880.841 267.43 877.953 264.542 874.39 264.542C870.827 264.542 867.94 267.43 867.94 270.993C867.94 274.555 870.827 277.443 874.39 277.443Z" fill="#FFFCFC"/>
<path d="M1027.33 221.298C1027.15 213.246 1037.07 214.37 1042.69 217.179C1043.06 214.307 1045.8 208.677 1053.74 209.126C1061.67 209.576 1066.03 214.682 1067.22 217.179C1073.21 211.562 1088 217.179 1084.45 225.98C1081.6 233.02 1070.28 231.285 1064.97 229.538C1060.33 235.08 1052.17 231.847 1048.68 229.538C1042.13 234.406 1027.52 229.35 1027.33 221.298Z" fill="white"/>
<path d="M738.492 304.478C738.306 296.426 748.227 297.549 753.844 300.358C754.219 297.487 756.954 291.857 764.894 292.306C772.834 292.755 777.191 297.862 778.377 300.358C784.369 294.741 799.162 300.358 795.604 309.159C792.758 316.2 781.435 314.465 776.13 312.717C771.486 318.26 763.334 315.027 759.838 312.717C753.284 317.586 738.677 312.53 738.492 304.478Z" fill="white"/>
<path d="M656.824 585.31C656.824 585.31 632.677 585.382 627.161 572.529C621.644 559.676 639.2 539.638 660.352 550.745C660.352 550.745 654.679 537.669 668.978 526.26C684.614 513.91 700.662 524.679 700.662 524.679C700.662 524.679 693.195 492.392 720.285 483.243C747.374 474.094 765.626 499.45 753.939 518.355C753.939 518.355 766.885 514.302 774.007 529.626C779.71 542.081 767.025 552.752 767.025 552.752C767.025 552.752 802.513 542.088 805.485 564.203C808.457 586.319 773.843 592.165 752.282 588.148C730.601 584.149 656.824 585.31 656.824 585.31Z" fill="#FFE27D"/>
<path d="M492.745 582.12C492.745 582.12 451.704 570.891 452.756 540.537C453.809 510.008 494.147 513.693 494.147 513.693C494.147 513.693 483.098 481.409 509.582 469.302C536.065 457.021 566.933 497.2 566.933 497.2C566.933 497.2 589.558 463.688 622.706 477.373C655.678 491.059 634.106 531.063 634.106 531.063C634.106 531.063 658.485 518.079 674.971 538.081C691.282 557.907 657.608 618.439 492.745 582.12Z" fill="#FDC229"/>
<path d="M1061.74 583.448C1061.74 583.448 1081.48 583.507 1085.99 573C1090.5 562.494 1076.15 546.113 1058.86 555.193C1058.86 555.193 1063.5 544.504 1051.81 535.178C1039.02 525.082 1025.91 533.885 1025.91 533.885C1025.91 533.885 1032.01 507.492 1009.87 500.013C987.721 492.535 972.801 513.261 982.355 528.715C982.355 528.715 971.772 525.403 965.95 537.929C961.288 548.11 971.658 556.833 971.658 556.833C971.658 556.833 942.648 548.116 940.218 566.194C937.789 584.272 966.084 589.052 983.709 585.768C1001.43 582.499 1061.74 583.448 1061.74 583.448Z" fill="#FFE27D"/>
<path d="M1147.26 580.394C1147.26 580.394 1180.84 571.314 1179.98 546.772C1179.12 522.088 1146.12 525.067 1146.12 525.067C1146.12 525.067 1155.16 498.965 1133.49 489.176C1111.82 479.246 1086.56 511.732 1086.56 511.732C1086.56 511.732 1068.05 484.636 1040.93 495.702C1013.95 506.767 1031.6 539.112 1031.6 539.112C1031.6 539.112 1011.65 528.614 998.163 544.786C984.817 560.817 1012.37 609.759 1147.26 580.394Z" fill="#FDC229"/>
<defs>
<clipPath id="clip0_7167_70833">
<rect width="1680" height="800" fill="white"/>
</clipPath>
</defs>
</svg>
