<svg width="375" height="812" viewBox="0 0 375 812" fill="none" xmlns="http://www.w3.org/2000/svg">
<g clip-path="url(#clip0_7380_44485)">
<rect width="375" height="812" rx="32" fill="white"/>
<path fill-rule="evenodd" clip-rule="evenodd" d="M42.1003 61.3994C42.3932 61.6923 42.3932 62.1671 42.1003 62.46L36.5607 67.9997L42.1003 73.5394C42.3932 73.8322 42.3932 74.3071 42.1003 74.6C41.8074 74.8929 41.3326 74.8929 41.0397 74.6L34.9697 68.53C34.829 68.3894 34.75 68.1986 34.75 67.9997C34.75 67.8008 34.829 67.61 34.9697 67.4694L41.0397 61.3994C41.3326 61.1065 41.8074 61.1065 42.1003 61.3994Z" fill="#131313"/>
<path fill-rule="evenodd" clip-rule="evenodd" d="M34.9199 68C34.9199 67.5858 35.2557 67.25 35.6699 67.25H52.4999C52.9141 67.25 53.2499 67.5858 53.2499 68C53.2499 68.4142 52.9141 68.75 52.4999 68.75H35.6699C35.2557 68.75 34.9199 68.4142 34.9199 68Z" fill="#131313"/>
<path d="M313.448 70.048C313.864 70.72 314.509 71.232 315.384 71.584C316.269 71.936 317.192 72.112 318.152 72.112C319.016 72.112 319.741 71.9787 320.328 71.712C320.915 71.4347 321.208 71.0613 321.208 70.592C321.208 70.2613 321.064 70.0107 320.776 69.84C320.488 69.6587 320.125 69.536 319.688 69.472C319.251 69.3973 318.632 69.328 317.832 69.264C316.648 69.1787 315.672 69.056 314.904 68.896C314.136 68.736 313.475 68.4107 312.92 67.92C312.376 67.4187 312.104 66.6933 312.104 65.744C312.104 65.1467 312.328 64.6187 312.776 64.16C313.235 63.6907 313.837 63.328 314.584 63.072C315.331 62.8053 316.131 62.672 316.984 62.672C318.125 62.672 319.197 62.912 320.2 63.392C321.203 63.872 321.987 64.5973 322.552 65.568L320.808 66.608C320.403 65.9573 319.843 65.4827 319.128 65.184C318.413 64.8853 317.656 64.736 316.856 64.736C316.365 64.736 315.907 64.784 315.48 64.88C315.053 64.976 314.707 65.104 314.44 65.264C314.184 65.424 314.056 65.584 314.056 65.744C314.056 66.032 314.189 66.256 314.456 66.416C314.733 66.5653 315.075 66.672 315.48 66.736C315.896 66.8 316.483 66.864 317.24 66.928C318.456 67.024 319.459 67.1573 320.248 67.328C321.037 67.4987 321.72 67.84 322.296 68.352C322.872 68.8533 323.16 69.6 323.16 70.592C323.16 71.3493 322.92 72 322.44 72.544C321.971 73.0773 321.341 73.4827 320.552 73.76C319.773 74.0373 318.925 74.176 318.008 74.176C316.707 74.176 315.475 73.9147 314.312 73.392C313.16 72.8693 312.301 72.1227 311.736 71.152L313.448 70.048ZM324.627 74V62.8H326.547V74H324.627ZM334.099 65.984L325.107 70.672L324.963 68.672L330.035 65.984H334.099ZM325.043 69.312L335.219 74H330.291L325.043 71.344V69.312ZM336.377 74V66H338.297V74H336.377ZM337.337 65.552C337.049 65.552 336.819 65.4133 336.649 65.136C336.489 64.848 336.409 64.512 336.409 64.128C336.409 63.744 336.489 63.4133 336.649 63.136C336.819 62.8587 337.049 62.72 337.337 62.72C337.635 62.72 337.865 62.8587 338.025 63.136C338.185 63.4133 338.265 63.744 338.265 64.128C338.265 64.5227 338.185 64.8587 338.025 65.136C337.865 65.4133 337.635 65.552 337.337 65.552ZM341.687 66V77.2H339.767V66H341.687ZM349.415 69.952C349.415 70.8267 349.223 71.584 348.839 72.224C348.455 72.8533 347.954 73.3333 347.335 73.664C346.717 73.9947 346.061 74.16 345.367 74.16C344.706 74.16 344.082 74.0053 343.495 73.696C342.919 73.3867 342.455 72.9173 342.103 72.288C341.751 71.6587 341.575 70.896 341.575 70C341.575 69.104 341.751 68.3467 342.103 67.728C342.466 67.1093 342.941 66.6453 343.527 66.336C344.114 66.0267 344.743 65.872 345.415 65.872C346.098 65.872 346.743 66.032 347.351 66.352C347.97 66.672 348.466 67.1413 348.839 67.76C349.223 68.368 349.415 69.0987 349.415 69.952ZM347.815 69.952C347.815 69.4827 347.666 69.0773 347.367 68.736C347.079 68.384 346.695 68.1173 346.215 67.936C345.735 67.7547 345.229 67.664 344.695 67.664C344.183 67.664 343.698 67.7547 343.239 67.936C342.791 68.1067 342.429 68.368 342.151 68.72C341.874 69.072 341.735 69.4987 341.735 70C341.735 70.736 342.018 71.3013 342.583 71.696C343.149 72.0907 343.831 72.288 344.631 72.288C345.165 72.288 345.677 72.1973 346.167 72.016C346.658 71.824 347.053 71.552 347.351 71.2C347.661 70.848 347.815 70.432 347.815 69.952Z" fill="#131313"/>
<path opacity="0.35" d="M331.667 14.5029H348.333C349.53 14.5029 350.5 15.4733 350.5 16.6699V22.6699C350.5 23.8664 349.53 24.8359 348.333 24.8359H331.667C330.47 24.8359 329.5 23.8664 329.5 22.6699V16.6699L329.511 16.4482C329.622 15.3556 330.545 14.5029 331.667 14.5029Z" stroke="#131313"/>
<path opacity="0.4" d="M352 17.6699V21.6699C352.805 21.3311 353.328 20.5431 353.328 19.6699C353.328 18.7968 352.805 18.0087 352 17.6699Z" fill="#131313"/>
<path d="M331 17.1029C331 16.4954 331.492 16.0029 332.1 16.0029H347.9C348.508 16.0029 349 16.4954 349 17.1029V22.2363C349 22.8438 348.508 23.3363 347.9 23.3363H332.1C331.492 23.3363 331 22.8438 331 22.2363V17.1029Z" fill="#131313"/>
<path fill-rule="evenodd" clip-rule="evenodd" d="M316.331 16.2773C318.547 16.2774 320.678 17.1289 322.284 18.6557C322.405 18.7735 322.598 18.772 322.717 18.6523L323.873 17.4857C323.934 17.4249 323.967 17.3427 323.967 17.2571C323.966 17.1715 323.932 17.0897 323.871 17.0297C319.656 12.9901 313.006 12.9901 308.791 17.0297C308.73 17.0896 308.695 17.1715 308.694 17.257C308.694 17.3426 308.727 17.4249 308.788 17.4857L309.944 18.6523C310.063 18.7722 310.256 18.7737 310.377 18.6557C311.983 17.1288 314.115 16.2773 316.331 16.2773ZM316.331 20.073C317.548 20.0729 318.722 20.5255 319.625 21.3427C319.747 21.4586 319.939 21.4561 320.058 21.337L321.213 20.1703C321.274 20.1091 321.307 20.0261 321.307 19.9399C321.306 19.8536 321.27 19.7713 321.208 19.7113C318.46 17.1549 314.204 17.1549 311.456 19.7113C311.394 19.7713 311.358 19.8536 311.358 19.9399C311.357 20.0262 311.391 20.1092 311.452 20.1703L312.606 21.337C312.725 21.4561 312.917 21.4586 313.039 21.3427C313.941 20.526 315.114 20.0735 316.331 20.073ZM318.644 22.6268C318.646 22.7133 318.612 22.7967 318.55 22.8573L316.553 24.873C316.494 24.9322 316.414 24.9656 316.331 24.9656C316.248 24.9656 316.168 24.9322 316.109 24.873L314.112 22.8573C314.05 22.7967 314.016 22.7132 314.018 22.6267C314.02 22.5402 314.057 22.4583 314.121 22.4003C315.397 21.3214 317.265 21.3214 318.541 22.4003C318.605 22.4584 318.642 22.5403 318.644 22.6268Z" fill="#131313"/>
<path fill-rule="evenodd" clip-rule="evenodd" d="M302.667 14.3359H301.667C301.115 14.3359 300.667 14.7837 300.667 15.3359V24.0026C300.667 24.5549 301.115 25.0026 301.667 25.0026H302.667C303.219 25.0026 303.667 24.5549 303.667 24.0026V15.3359C303.667 14.7837 303.219 14.3359 302.667 14.3359ZM297 16.6693H298C298.553 16.6693 299 17.117 299 17.6693V24.0026C299 24.5549 298.553 25.0026 298 25.0026H297C296.448 25.0026 296 24.5549 296 24.0026V17.6693C296 17.117 296.448 16.6693 297 16.6693ZM293.334 19.0026H292.334C291.781 19.0026 291.334 19.4503 291.334 20.0026V24.0026C291.334 24.5549 291.781 25.0026 292.334 25.0026H293.334C293.886 25.0026 294.334 24.5549 294.334 24.0026V20.0026C294.334 19.4503 293.886 19.0026 293.334 19.0026ZM288.667 21.0026H287.667C287.115 21.0026 286.667 21.4503 286.667 22.0026V24.0026C286.667 24.5549 287.115 25.0026 287.667 25.0026H288.667C289.219 25.0026 289.667 24.5549 289.667 24.0026V22.0026C289.667 21.4503 289.219 21.0026 288.667 21.0026Z" fill="#131313"/>
<path d="M37.9428 14.9418C38.4648 14.9453 38.9726 15.0376 39.4662 15.2188C39.9634 15.3963 40.4108 15.6875 40.8085 16.0923C41.2063 16.4936 41.5223 17.0316 41.7567 17.7063C41.9911 18.381 42.1083 19.2156 42.1083 20.2099C42.1118 21.1474 42.0124 21.9854 41.81 22.7241C41.6111 23.4592 41.3252 24.0806 40.9524 24.5884C40.5795 25.0962 40.1303 25.4833 39.6047 25.7496C39.0791 26.016 38.4879 26.1491 37.8309 26.1491C37.142 26.1491 36.5312 26.0142 35.9985 25.7443C35.4694 25.4744 35.0415 25.1051 34.7148 24.6364C34.3881 24.1676 34.1875 23.6314 34.1129 23.0277H36.0571C36.1566 23.4609 36.359 23.8054 36.6644 24.0611C36.9733 24.3132 37.3622 24.4393 37.8309 24.4393C38.5873 24.4393 39.1697 24.1108 39.5781 23.4538C39.9865 22.7969 40.1907 21.8842 40.1907 20.7159H40.1161C39.9421 21.0284 39.7166 21.2983 39.4396 21.5256C39.1626 21.7493 38.8483 21.9215 38.4968 22.0423C38.1487 22.163 37.7794 22.2234 37.3888 22.2234C36.7496 22.2234 36.1743 22.0707 35.663 21.7653C35.1551 21.4599 34.7521 21.0408 34.4538 20.5082C34.159 19.9755 34.0099 19.3665 34.0063 18.6811C34.0063 17.9709 34.1697 17.3335 34.4964 16.7688C34.8267 16.2006 35.2865 15.7532 35.876 15.4265C36.4655 15.0962 37.1544 14.9347 37.9428 14.9418ZM37.9481 16.5398C37.5646 16.5398 37.2184 16.6339 36.9094 16.8221C36.604 17.0067 36.3625 17.2589 36.185 17.5785C36.011 17.8945 35.924 18.2479 35.924 18.6385C35.9275 19.0256 36.0145 19.3771 36.185 19.6932C36.359 20.0092 36.5951 20.2596 36.8934 20.4442C37.1953 20.6289 37.5397 20.7212 37.9268 20.7212C38.2144 20.7212 38.4826 20.6662 38.7311 20.5561C38.9797 20.446 39.1963 20.2933 39.381 20.098C39.5692 19.8991 39.7148 19.6737 39.8178 19.4215C39.9243 19.1694 39.9758 18.9031 39.9723 18.6225C39.9723 18.2496 39.8835 17.9052 39.7059 17.5891C39.5319 17.2731 39.2922 17.0192 38.9868 16.8274C38.685 16.6357 38.3387 16.5398 37.9481 16.5398ZM44.5912 24.6896C44.2681 24.6896 43.9911 24.576 43.7603 24.3487C43.5294 24.1179 43.4158 23.8409 43.4193 23.5178C43.4158 23.1982 43.5294 22.9247 43.7603 22.6974C43.9911 22.4702 44.2681 22.3565 44.5912 22.3565C44.9037 22.3565 45.1754 22.4702 45.4062 22.6974C45.6406 22.9247 45.7595 23.1982 45.7631 23.5178C45.7595 23.7344 45.7027 23.9315 45.5926 24.109C45.4861 24.2866 45.3441 24.4286 45.1665 24.5352C44.9925 24.6381 44.8007 24.6896 44.5912 24.6896ZM44.5912 19.283C44.2681 19.283 43.9911 19.1694 43.7603 18.9421C43.5294 18.7113 43.4158 18.4343 43.4193 18.1112C43.4158 17.7915 43.5294 17.5181 43.7603 17.2908C43.9911 17.06 44.2681 16.9446 44.5912 16.9446C44.9037 16.9446 45.1754 17.06 45.4062 17.2908C45.6406 17.5181 45.7595 17.7915 45.7631 18.1112C45.7595 18.3242 45.7027 18.5195 45.5926 18.6971C45.4861 18.8746 45.3441 19.0167 45.1665 19.1232C44.9925 19.2298 44.8007 19.283 44.5912 19.283ZM47.0356 23.9759V22.4045L51.6645 15.0909H52.9748V17.3281H52.1758L49.0597 22.266V22.3512H55.521V23.9759H47.0356ZM52.2397 26V23.4964L52.2611 22.7933V15.0909H54.1254V26H52.2397ZM61.0135 15.0909V26H59.0373V17.0138H58.9734L56.4219 18.6438V16.8327L59.1332 15.0909H61.0135Z" fill="#131313"/>
<path d="M46.8337 578V559.8H64.3317V563.128H50.0057V567.158H62.8757V569.03H50.0057V578H46.8337ZM65.6735 578V565H68.7935V578H65.6735ZM67.2335 564.272C66.7655 564.272 66.3929 564.047 66.1155 563.596C65.8555 563.128 65.7255 562.582 65.7255 561.958C65.7255 561.334 65.8555 560.797 66.1155 560.346C66.3929 559.895 66.7655 559.67 67.2335 559.67C67.7189 559.67 68.0915 559.895 68.3515 560.346C68.6115 560.797 68.7415 561.334 68.7415 561.958C68.7415 562.599 68.6115 563.145 68.3515 563.596C68.0915 564.047 67.7189 564.272 67.2335 564.272ZM71.1833 577.974V565H74.3033V568.25C74.9273 567.123 75.768 566.257 76.8253 565.65C77.8826 565.026 78.992 564.714 80.1533 564.714C81.176 564.714 82.112 564.948 82.9613 565.416C83.828 565.884 84.5213 566.586 85.0413 567.522C85.5786 568.458 85.8473 569.593 85.8473 570.928V578H82.7273V571.838C82.7273 570.798 82.502 569.871 82.0513 569.056C81.618 568.224 81.046 567.583 80.3353 567.132C79.642 566.681 78.9226 566.456 78.1773 566.456C77.484 566.456 76.8426 566.664 76.2533 567.08C75.664 567.496 75.1873 568.146 74.8233 569.03C74.4766 569.897 74.3033 570.98 74.3033 572.28V577.974H71.1833ZM100.752 578V560.06H103.872V578H100.752ZM88.2458 571.5C88.2458 570.061 88.5491 568.831 89.1558 567.808C89.7625 566.785 90.5511 566.023 91.5218 565.52C92.4925 565 93.5325 564.74 94.6418 564.74C95.7338 564.74 96.7651 565 97.7358 565.52C98.7238 566.023 99.5125 566.785 100.102 567.808C100.708 568.831 101.012 570.061 101.012 571.5C101.012 572.904 100.7 574.117 100.076 575.14C99.4518 576.163 98.6371 576.934 97.6318 577.454C96.6438 577.974 95.5865 578.234 94.4598 578.234C93.3678 578.234 92.3451 577.983 91.3918 577.48C90.4558 576.977 89.6931 576.223 89.1038 575.218C88.5318 574.195 88.2458 572.956 88.2458 571.5ZM90.8458 571.5C90.8458 572.28 91.0798 572.956 91.5478 573.528C92.0158 574.083 92.6225 574.507 93.3678 574.802C94.1305 575.079 94.9451 575.218 95.8118 575.218C96.6611 575.218 97.4585 575.079 98.2038 574.802C98.9665 574.507 99.5818 574.083 100.05 573.528C100.518 572.956 100.752 572.28 100.752 571.5C100.752 570.703 100.518 570.018 100.05 569.446C99.5818 568.874 98.9665 568.441 98.2038 568.146C97.4585 567.851 96.6611 567.704 95.8118 567.704C94.9451 567.704 94.1305 567.851 93.3678 568.146C92.6225 568.441 92.0158 568.874 91.5478 569.446C91.0798 570.018 90.8458 570.703 90.8458 571.5ZM114.068 578V559.8H117.24V578H114.068ZM119.629 577.974V565H122.749V568.25C123.373 567.123 124.213 566.257 125.271 565.65C126.328 565.026 127.437 564.714 128.599 564.714C129.621 564.714 130.557 564.948 131.407 565.416C132.273 565.884 132.967 566.586 133.487 567.522C134.024 568.458 134.293 569.593 134.293 570.928V578H131.173V571.838C131.173 570.798 130.947 569.871 130.497 569.056C130.063 568.224 129.491 567.583 128.781 567.132C128.087 566.681 127.368 566.456 126.623 566.456C125.929 566.456 125.288 566.664 124.699 567.08C124.109 567.496 123.633 568.146 123.269 569.03C122.922 569.897 122.749 570.98 122.749 572.28V577.974H119.629ZM145.699 578H137.457V560.32H140.577V575.192H145.699V578ZM144.841 566.872H136.183V565H144.841V566.872ZM161.233 573.944C160.366 575.383 159.283 576.466 157.983 577.194C156.683 577.922 155.313 578.286 153.875 578.286C152.592 578.286 151.387 578.009 150.261 577.454C149.151 576.899 148.25 576.119 147.557 575.114C146.881 574.091 146.543 572.913 146.543 571.578C146.543 570.122 146.898 568.883 147.609 567.86C148.337 566.82 149.273 566.049 150.417 565.546C151.561 565.026 152.783 564.766 154.083 564.766C155.313 564.766 156.466 565 157.541 565.468C158.633 565.919 159.508 566.586 160.167 567.47C160.825 568.354 161.155 569.411 161.155 570.642C161.155 570.954 161.129 571.283 161.077 571.63H147.583V570.59H158.191C157.983 569.619 157.48 568.874 156.683 568.354C155.885 567.834 154.975 567.574 153.953 567.574C153.138 567.574 152.358 567.739 151.613 568.068C150.885 568.38 150.287 568.839 149.819 569.446C149.368 570.053 149.143 570.763 149.143 571.578C149.143 572.341 149.351 573.017 149.767 573.606C150.183 574.178 150.737 574.629 151.431 574.958C152.141 575.27 152.895 575.426 153.693 575.426C154.663 575.426 155.591 575.183 156.475 574.698C157.359 574.213 158.095 573.476 158.685 572.488L161.233 573.944ZM163.631 578V565H166.751V568.666C168.137 566.031 170.139 564.714 172.757 564.714C173.329 564.714 173.892 564.775 174.447 564.896V568.718C172.523 568.198 171.101 567.938 170.183 567.938C169.073 567.938 168.276 568.259 167.791 568.9C167.323 569.541 167.028 570.503 166.907 571.786C166.803 573.069 166.751 575.14 166.751 578H163.631ZM189.696 573.944C188.829 575.383 187.746 576.466 186.446 577.194C185.146 577.922 183.776 578.286 182.338 578.286C181.055 578.286 179.85 578.009 178.724 577.454C177.614 576.899 176.713 576.119 176.02 575.114C175.344 574.091 175.006 572.913 175.006 571.578C175.006 570.122 175.361 568.883 176.072 567.86C176.8 566.82 177.736 566.049 178.88 565.546C180.024 565.026 181.246 564.766 182.546 564.766C183.776 564.766 184.929 565 186.004 565.468C187.096 565.919 187.971 566.586 188.63 567.47C189.288 568.354 189.618 569.411 189.618 570.642C189.618 570.954 189.592 571.283 189.54 571.63H176.046V570.59H186.654C186.446 569.619 185.943 568.874 185.146 568.354C184.348 567.834 183.438 567.574 182.416 567.574C181.601 567.574 180.821 567.739 180.076 568.068C179.348 568.38 178.75 568.839 178.282 569.446C177.831 570.053 177.606 570.763 177.606 571.578C177.606 572.341 177.814 573.017 178.23 573.606C178.646 574.178 179.2 574.629 179.894 574.958C180.604 575.27 181.358 575.426 182.156 575.426C183.126 575.426 184.054 575.183 184.938 574.698C185.822 574.213 186.558 573.476 187.148 572.488L189.696 573.944ZM194.537 573.008C195.144 573.788 196.028 574.377 197.189 574.776C198.368 575.175 199.581 575.374 200.829 575.374C201.956 575.374 202.901 575.218 203.663 574.906C204.426 574.577 204.807 574.143 204.807 573.606C204.807 572.999 204.591 572.583 204.157 572.358C203.724 572.115 203.1 571.994 202.285 571.994C201.8 571.994 201.003 572.046 199.893 572.15C198.801 572.271 197.874 572.332 197.111 572.332C195.777 572.332 194.728 572.089 193.965 571.604C193.22 571.101 192.847 570.191 192.847 568.874C192.847 567.557 193.437 566.534 194.615 565.806C195.811 565.061 197.302 564.688 199.087 564.688C200.214 564.688 201.358 564.853 202.519 565.182C203.698 565.511 204.773 565.988 205.743 566.612L203.533 568.614C202.788 568.163 201.999 567.834 201.167 567.626C200.353 567.401 199.555 567.288 198.775 567.288C197.805 567.288 197.007 567.435 196.383 567.73C195.759 568.025 195.447 568.406 195.447 568.874C195.447 569.307 195.595 569.611 195.889 569.784C196.201 569.957 196.643 570.044 197.215 570.044C197.579 570.044 198.03 570.009 198.567 569.94C199.122 569.871 199.512 569.827 199.737 569.81C201.159 569.602 202.251 569.498 203.013 569.498C204.365 569.498 205.431 569.801 206.211 570.408C207.009 570.997 207.407 572.063 207.407 573.606C207.407 574.577 207.078 575.409 206.419 576.102C205.761 576.795 204.885 577.324 203.793 577.688C202.701 578.052 201.523 578.234 200.257 578.234C198.628 578.234 197.068 577.939 195.577 577.35C194.104 576.743 192.943 575.877 192.093 574.75L194.537 573.008ZM218.52 578H210.278V560.32H213.398V575.192H218.52V578ZM217.662 566.872H209.004V565H217.662V566.872ZM234.053 573.944C233.186 575.383 232.103 576.466 230.803 577.194C229.503 577.922 228.134 578.286 226.695 578.286C225.412 578.286 224.208 578.009 223.081 577.454C221.972 576.899 221.07 576.119 220.377 575.114C219.701 574.091 219.363 572.913 219.363 571.578C219.363 570.122 219.718 568.883 220.429 567.86C221.157 566.82 222.093 566.049 223.237 565.546C224.381 565.026 225.603 564.766 226.903 564.766C228.134 564.766 229.286 565 230.361 565.468C231.453 565.919 232.328 566.586 232.987 567.47C233.646 568.354 233.975 569.411 233.975 570.642C233.975 570.954 233.949 571.283 233.897 571.63H220.403V570.59H231.011C230.803 569.619 230.3 568.874 229.503 568.354C228.706 567.834 227.796 567.574 226.773 567.574C225.958 567.574 225.178 567.739 224.433 568.068C223.705 568.38 223.107 568.839 222.639 569.446C222.188 570.053 221.963 570.763 221.963 571.578C221.963 572.341 222.171 573.017 222.587 573.606C223.003 574.178 223.558 574.629 224.251 574.958C224.962 575.27 225.716 575.426 226.513 575.426C227.484 575.426 228.411 575.183 229.295 574.698C230.179 574.213 230.916 573.476 231.505 572.488L234.053 573.944ZM248.957 578V560.06H252.077V578H248.957ZM236.451 571.5C236.451 570.061 236.754 568.831 237.361 567.808C237.968 566.785 238.756 566.023 239.727 565.52C240.698 565 241.738 564.74 242.847 564.74C243.939 564.74 244.97 565 245.941 565.52C246.929 566.023 247.718 566.785 248.307 567.808C248.914 568.831 249.217 570.061 249.217 571.5C249.217 572.904 248.905 574.117 248.281 575.14C247.657 576.163 246.842 576.934 245.837 577.454C244.849 577.974 243.792 578.234 242.665 578.234C241.573 578.234 240.55 577.983 239.597 577.48C238.661 576.977 237.898 576.223 237.309 575.218C236.737 574.195 236.451 572.956 236.451 571.5ZM239.051 571.5C239.051 572.28 239.285 572.956 239.753 573.528C240.221 574.083 240.828 574.507 241.573 574.802C242.336 575.079 243.15 575.218 244.017 575.218C244.866 575.218 245.664 575.079 246.409 574.802C247.172 574.507 247.787 574.083 248.255 573.528C248.723 572.956 248.957 572.28 248.957 571.5C248.957 570.703 248.723 570.018 248.255 569.446C247.787 568.874 247.172 568.441 246.409 568.146C245.664 567.851 244.866 567.704 244.017 567.704C243.15 567.704 242.336 567.851 241.573 568.146C240.828 568.441 240.221 568.874 239.753 569.446C239.285 570.018 239.051 570.703 239.051 571.5ZM279.771 578.026H262.273V559.8H279.771V563.128H265.445V567.158H278.289V569.03H265.445V574.646H279.771V578.026ZM297.728 565L293.23 578H289.694L294.244 565H297.728ZM282.154 565H285.638L290.084 578H286.652L282.154 565ZM312.992 573.944C312.126 575.383 311.042 576.466 309.742 577.194C308.442 577.922 307.073 578.286 305.634 578.286C304.352 578.286 303.147 578.009 302.02 577.454C300.911 576.899 300.01 576.119 299.316 575.114C298.64 574.091 298.302 572.913 298.302 571.578C298.302 570.122 298.658 568.883 299.368 567.86C300.096 566.82 301.032 566.049 302.176 565.546C303.32 565.026 304.542 564.766 305.842 564.766C307.073 564.766 308.226 565 309.3 565.468C310.392 565.919 311.268 566.586 311.926 567.47C312.585 568.354 312.914 569.411 312.914 570.642C312.914 570.954 312.888 571.283 312.836 571.63H299.342V570.59H309.95C309.742 569.619 309.24 568.874 308.442 568.354C307.645 567.834 306.735 567.574 305.712 567.574C304.898 567.574 304.118 567.739 303.372 568.068C302.644 568.38 302.046 568.839 301.578 569.446C301.128 570.053 300.902 570.763 300.902 571.578C300.902 572.341 301.11 573.017 301.526 573.606C301.942 574.178 302.497 574.629 303.19 574.958C303.901 575.27 304.655 575.426 305.452 575.426C306.423 575.426 307.35 575.183 308.234 574.698C309.118 574.213 309.855 573.476 310.444 572.488L312.992 573.944ZM315.39 577.974V565H318.51V568.25C319.134 567.123 319.975 566.257 321.032 565.65C322.09 565.026 323.199 564.714 324.36 564.714C325.383 564.714 326.319 564.948 327.168 565.416C328.035 565.884 328.728 566.586 329.248 567.522C329.786 568.458 330.054 569.593 330.054 570.928V578H326.934V571.838C326.934 570.798 326.709 569.871 326.258 569.056C325.825 568.224 325.253 567.583 324.542 567.132C323.849 566.681 323.13 566.456 322.384 566.456C321.691 566.456 321.05 566.664 320.46 567.08C319.871 567.496 319.394 568.146 319.03 569.03C318.684 569.897 318.51 570.98 318.51 572.28V577.974H315.39ZM341.461 578H333.219V560.32H336.339V575.192H341.461V578ZM340.603 566.872H331.945V565H340.603V566.872ZM159.715 618H151.473V600.32H154.593V615.192H159.715V618ZM158.857 606.872H150.199V605H158.857V606.872ZM174.118 611.5C174.118 610.703 173.867 610.018 173.364 609.446C172.879 608.874 172.237 608.449 171.44 608.172C170.643 607.877 169.793 607.73 168.892 607.73C167.991 607.73 167.141 607.877 166.344 608.172C165.547 608.449 164.897 608.874 164.394 609.446C163.909 610.018 163.666 610.703 163.666 611.5C163.666 612.28 163.909 612.956 164.394 613.528C164.897 614.083 165.547 614.507 166.344 614.802C167.141 615.079 167.991 615.218 168.892 615.218C169.793 615.218 170.643 615.079 171.44 614.802C172.237 614.507 172.879 614.083 173.364 613.528C173.867 612.956 174.118 612.28 174.118 611.5ZM176.718 611.5C176.718 612.939 176.345 614.169 175.6 615.192C174.872 616.197 173.91 616.96 172.714 617.48C171.518 618 170.244 618.26 168.892 618.26C167.54 618.26 166.266 618 165.07 617.48C163.874 616.96 162.903 616.197 162.158 615.192C161.43 614.169 161.066 612.939 161.066 611.5C161.066 610.061 161.43 608.839 162.158 607.834C162.903 606.811 163.874 606.04 165.07 605.52C166.266 605 167.54 604.74 168.892 604.74C170.244 604.74 171.518 605 172.714 605.52C173.91 606.04 174.872 606.811 175.6 607.834C176.345 608.839 176.718 610.061 176.718 611.5ZM196.18 605V623.2H193.06V605H196.18ZM184.324 617.246L186.95 615.322L193.294 623.2H189.186L184.324 617.246ZM194.646 604.272C194.178 604.272 193.805 604.047 193.528 603.596C193.268 603.128 193.138 602.582 193.138 601.958C193.138 601.334 193.268 600.797 193.528 600.346C193.805 599.895 194.178 599.67 194.646 599.67C195.131 599.67 195.504 599.895 195.764 600.346C196.024 600.797 196.154 601.334 196.154 601.958C196.154 602.599 196.024 603.145 195.764 603.596C195.504 604.047 195.131 604.272 194.646 604.272ZM211.62 611.5C211.62 610.703 211.369 610.018 210.866 609.446C210.381 608.874 209.739 608.449 208.942 608.172C208.145 607.877 207.295 607.73 206.394 607.73C205.493 607.73 204.643 607.877 203.846 608.172C203.049 608.449 202.399 608.874 201.896 609.446C201.411 610.018 201.168 610.703 201.168 611.5C201.168 612.28 201.411 612.956 201.896 613.528C202.399 614.083 203.049 614.507 203.846 614.802C204.643 615.079 205.493 615.218 206.394 615.218C207.295 615.218 208.145 615.079 208.942 614.802C209.739 614.507 210.381 614.083 210.866 613.528C211.369 612.956 211.62 612.28 211.62 611.5ZM214.22 611.5C214.22 612.939 213.847 614.169 213.102 615.192C212.374 616.197 211.412 616.96 210.216 617.48C209.02 618 207.746 618.26 206.394 618.26C205.042 618.26 203.768 618 202.572 617.48C201.376 616.96 200.405 616.197 199.66 615.192C198.932 614.169 198.568 612.939 198.568 611.5C198.568 610.061 198.932 608.839 199.66 607.834C200.405 606.811 201.376 606.04 202.572 605.52C203.768 605 205.042 604.74 206.394 604.74C207.746 604.74 209.02 605 210.216 605.52C211.412 606.04 212.374 606.811 213.102 607.834C213.847 608.839 214.22 610.061 214.22 611.5ZM216.621 618V605H219.741V618H216.621ZM218.181 604.272C217.713 604.272 217.34 604.047 217.063 603.596C216.803 603.128 216.673 602.582 216.673 601.958C216.673 601.334 216.803 600.797 217.063 600.346C217.34 599.895 217.713 599.67 218.181 599.67C218.666 599.67 219.039 599.895 219.299 600.346C219.559 600.797 219.689 601.334 219.689 601.958C219.689 602.599 219.559 603.145 219.299 603.596C219.039 604.047 218.666 604.272 218.181 604.272ZM222.131 617.974V605H225.251V608.25C225.875 607.123 226.715 606.257 227.773 605.65C228.83 605.026 229.939 604.714 231.101 604.714C232.123 604.714 233.059 604.948 233.909 605.416C234.775 605.884 235.469 606.586 235.989 607.522C236.526 608.458 236.795 609.593 236.795 610.928V618H233.675V611.838C233.675 610.798 233.449 609.871 232.999 609.056C232.565 608.224 231.993 607.583 231.283 607.132C230.589 606.681 229.87 606.456 229.125 606.456C228.431 606.456 227.79 606.664 227.201 607.08C226.611 607.496 226.135 608.146 225.771 609.03C225.424 609.897 225.251 610.98 225.251 612.28V617.974H222.131Z" fill="#131313"/>
<path d="M76.6511 662L73.2751 650.8H74.7791L78.1551 662H76.6511ZM90.9551 650.8L87.5791 662H86.0751L89.4511 650.8H90.9551ZM82.8751 650.8L86.2511 662H84.8271L82.1231 653.04L79.4031 662H77.9791L81.3551 650.8H82.8751ZM100.142 659.696C99.6407 660.517 98.9954 661.136 98.2061 661.552C97.4274 661.968 96.6061 662.176 95.7421 662.176C94.9421 662.176 94.1901 662.011 93.4861 661.68C92.7821 661.339 92.2167 660.853 91.7901 660.224C91.3634 659.595 91.1501 658.869 91.1501 658.048C91.1501 657.152 91.3687 656.389 91.8061 655.76C92.2434 655.12 92.8087 654.645 93.5021 654.336C94.2061 654.016 94.9581 653.856 95.7581 653.856C96.5261 653.856 97.2514 654.005 97.9341 654.304C98.6167 654.592 99.1661 655.024 99.5821 655.6C99.9981 656.165 100.206 656.843 100.206 657.632C100.206 657.845 100.19 658.064 100.158 658.288H91.6301V657.808H99.0061C98.9101 657.008 98.5367 656.395 97.8861 655.968C97.2461 655.541 96.4994 655.328 95.6461 655.328C95.0701 655.328 94.5207 655.435 93.9981 655.648C93.4861 655.851 93.0701 656.16 92.7501 656.576C92.4301 656.981 92.2701 657.472 92.2701 658.048C92.2701 658.56 92.4301 659.019 92.7501 659.424C93.0807 659.819 93.5074 660.128 94.0301 660.352C94.5634 660.565 95.1287 660.672 95.7261 660.672C96.3661 660.672 96.9794 660.539 97.5661 660.272C98.1527 659.995 98.6434 659.579 99.0381 659.024L100.142 659.696ZM107.566 658.976C107.993 659.552 108.537 659.979 109.198 660.256C109.86 660.533 110.542 660.672 111.246 660.672C111.972 660.672 112.59 660.544 113.102 660.288C113.614 660.032 113.87 659.701 113.87 659.296C113.87 658.891 113.716 658.613 113.406 658.464C113.097 658.315 112.654 658.24 112.078 658.24C111.822 658.24 111.588 658.245 111.374 658.256C111.161 658.267 110.98 658.277 110.83 658.288C110.212 658.331 109.753 658.352 109.454 658.352C108.601 658.352 107.934 658.213 107.454 657.936C106.974 657.659 106.734 657.141 106.734 656.384C106.734 655.872 106.884 655.424 107.182 655.04C107.481 654.656 107.881 654.363 108.382 654.16C108.894 653.947 109.454 653.84 110.062 653.84C110.809 653.84 111.556 654.005 112.302 654.336C113.06 654.656 113.742 655.141 114.35 655.792L113.406 656.656C112.905 656.197 112.361 655.861 111.774 655.648C111.188 655.435 110.617 655.328 110.062 655.328C109.465 655.328 108.958 655.435 108.542 655.648C108.126 655.851 107.918 656.096 107.918 656.384C107.918 656.672 108.036 656.875 108.27 656.992C108.516 657.099 108.862 657.152 109.31 657.152C109.545 657.152 109.972 657.131 110.59 657.088C111.145 657.035 111.652 657.008 112.11 657.008C113.017 657.008 113.732 657.173 114.254 657.504C114.788 657.824 115.054 658.421 115.054 659.296C115.054 659.883 114.878 660.395 114.526 660.832C114.185 661.259 113.721 661.589 113.134 661.824C112.548 662.048 111.913 662.16 111.23 662.16C110.302 662.16 109.406 661.947 108.542 661.52C107.689 661.093 107.001 660.469 106.478 659.648L107.566 658.976ZM123.549 657.456C123.549 656.805 123.336 656.288 122.909 655.904C122.482 655.52 121.954 655.328 121.325 655.328C120.792 655.328 120.274 655.477 119.773 655.776C119.272 656.075 118.845 656.539 118.493 657.168C118.152 657.787 117.949 658.549 117.885 659.456V661.984H116.525V650.8H117.885V657.632C118.109 656.843 118.445 656.165 118.893 655.6C119.341 655.035 119.842 654.608 120.397 654.32C120.952 654.021 121.506 653.872 122.061 653.872C122.584 653.872 123.058 654.005 123.485 654.272C123.922 654.539 124.269 654.944 124.525 655.488C124.781 656.021 124.909 656.677 124.909 657.456V662H123.549V657.456ZM133.616 656.688C133.616 655.664 132.742 655.152 130.992 655.152C130.427 655.152 129.856 655.248 129.28 655.44C128.704 655.632 128.214 655.84 127.808 656.064C127.414 656.277 127.152 656.432 127.024 656.528V655.264C127.046 655.253 127.414 655.04 128.128 654.624C128.843 654.208 129.798 654 130.992 654C132.55 654 133.6 654.288 134.144 654.864C134.699 655.44 134.976 656.048 134.976 656.688V662H133.616V656.688ZM133.728 656.992C133.494 658.155 133.094 659.125 132.528 659.904C131.963 660.672 131.328 661.243 130.624 661.616C129.92 661.979 129.232 662.16 128.56 662.16C127.92 662.16 127.392 662 126.976 661.68C126.56 661.36 126.363 660.933 126.384 660.4C126.406 659.771 126.672 659.221 127.184 658.752C127.707 658.283 128.315 657.899 129.008 657.6C129.702 657.291 130.582 656.949 131.648 656.576C132.043 656.437 132.432 656.299 132.816 656.16C133.211 656.011 133.526 655.877 133.76 655.76L134.016 656.736C133.536 656.981 132.699 657.328 131.504 657.776C130.235 658.256 129.28 658.667 128.64 659.008C128 659.349 127.68 659.723 127.68 660.128C127.68 660.299 127.792 660.437 128.016 660.544C128.24 660.64 128.534 660.688 128.896 660.688C129.472 660.688 130.08 660.56 130.72 660.304C131.371 660.037 131.963 659.616 132.496 659.04C133.03 658.464 133.403 657.739 133.616 656.864L133.728 656.992ZM136.447 662V654H137.807V657.52C138.095 656.485 138.554 655.611 139.183 654.896C139.823 654.181 140.676 653.824 141.743 653.824C141.882 653.824 142.122 653.845 142.463 653.888V655.552C141.876 655.403 141.332 655.328 140.831 655.328C139.935 655.328 139.268 655.595 138.831 656.128C138.404 656.651 138.127 657.365 137.999 658.272C137.882 659.179 137.818 660.421 137.807 662H136.447ZM151.798 659.696C151.297 660.517 150.652 661.136 149.862 661.552C149.084 661.968 148.262 662.176 147.398 662.176C146.598 662.176 145.846 662.011 145.142 661.68C144.438 661.339 143.873 660.853 143.446 660.224C143.02 659.595 142.806 658.869 142.806 658.048C142.806 657.152 143.025 656.389 143.462 655.76C143.9 655.12 144.465 654.645 145.158 654.336C145.862 654.016 146.614 653.856 147.414 653.856C148.182 653.856 148.908 654.005 149.59 654.304C150.273 654.592 150.822 655.024 151.238 655.6C151.654 656.165 151.862 656.843 151.862 657.632C151.862 657.845 151.846 658.064 151.814 658.288H143.286V657.808H150.662C150.566 657.008 150.193 656.395 149.542 655.968C148.902 655.541 148.156 655.328 147.302 655.328C146.726 655.328 146.177 655.435 145.654 655.648C145.142 655.851 144.726 656.16 144.406 656.576C144.086 656.981 143.926 657.472 143.926 658.048C143.926 658.56 144.086 659.019 144.406 659.424C144.737 659.819 145.164 660.128 145.686 660.352C146.22 660.565 146.785 660.672 147.382 660.672C148.022 660.672 148.636 660.539 149.222 660.272C149.809 659.995 150.3 659.579 150.694 659.024L151.798 659.696ZM165.366 656.688C165.366 655.664 164.492 655.152 162.742 655.152C162.177 655.152 161.606 655.248 161.03 655.44C160.454 655.632 159.964 655.84 159.558 656.064C159.164 656.277 158.902 656.432 158.774 656.528V655.264C158.796 655.253 159.164 655.04 159.878 654.624C160.593 654.208 161.548 654 162.742 654C164.3 654 165.35 654.288 165.894 654.864C166.449 655.44 166.726 656.048 166.726 656.688V662H165.366V656.688ZM165.478 656.992C165.244 658.155 164.844 659.125 164.278 659.904C163.713 660.672 163.078 661.243 162.374 661.616C161.67 661.979 160.982 662.16 160.31 662.16C159.67 662.16 159.142 662 158.726 661.68C158.31 661.36 158.113 660.933 158.134 660.4C158.156 659.771 158.422 659.221 158.934 658.752C159.457 658.283 160.065 657.899 160.758 657.6C161.452 657.291 162.332 656.949 163.398 656.576C163.793 656.437 164.182 656.299 164.566 656.16C164.961 656.011 165.276 655.877 165.51 655.76L165.766 656.736C165.286 656.981 164.449 657.328 163.254 657.776C161.985 658.256 161.03 658.667 160.39 659.008C159.75 659.349 159.43 659.723 159.43 660.128C159.43 660.299 159.542 660.437 159.766 660.544C159.99 660.64 160.284 660.688 160.646 660.688C161.222 660.688 161.83 660.56 162.47 660.304C163.121 660.037 163.713 659.616 164.246 659.04C164.78 658.464 165.153 657.739 165.366 656.864L165.478 656.992ZM168.197 662V650.8H169.557V662H168.197ZM171.025 662V650.8H172.385V662H171.025ZM187.642 659.696C187.141 660.517 186.495 661.136 185.706 661.552C184.927 661.968 184.106 662.176 183.242 662.176C182.442 662.176 181.69 662.011 180.986 661.68C180.282 661.339 179.717 660.853 179.29 660.224C178.863 659.595 178.65 658.869 178.65 658.048C178.65 657.152 178.869 656.389 179.306 655.76C179.743 655.12 180.309 654.645 181.002 654.336C181.706 654.016 182.458 653.856 183.258 653.856C184.026 653.856 184.751 654.005 185.434 654.304C186.117 654.592 186.666 655.024 187.082 655.6C187.498 656.165 187.706 656.843 187.706 657.632C187.706 657.845 187.69 658.064 187.658 658.288H179.13V657.808H186.506C186.41 657.008 186.037 656.395 185.386 655.968C184.746 655.541 183.999 655.328 183.146 655.328C182.57 655.328 182.021 655.435 181.498 655.648C180.986 655.851 180.57 656.16 180.25 656.576C179.93 656.981 179.77 657.472 179.77 658.048C179.77 658.56 179.93 659.019 180.25 659.424C180.581 659.819 181.007 660.128 181.53 660.352C182.063 660.565 182.629 660.672 183.226 660.672C183.866 660.672 184.479 660.539 185.066 660.272C185.653 659.995 186.143 659.579 186.538 659.024L187.642 659.696ZM196.836 654L193.844 662H192.324L195.332 654H196.836ZM188.228 654H189.732L192.532 662H191.06L188.228 654ZM206.173 659.696C205.672 660.517 205.027 661.136 204.237 661.552C203.459 661.968 202.637 662.176 201.773 662.176C200.973 662.176 200.221 662.011 199.517 661.68C198.813 661.339 198.248 660.853 197.821 660.224C197.395 659.595 197.181 658.869 197.181 658.048C197.181 657.152 197.4 656.389 197.837 655.76C198.275 655.12 198.84 654.645 199.533 654.336C200.237 654.016 200.989 653.856 201.789 653.856C202.557 653.856 203.283 654.005 203.965 654.304C204.648 654.592 205.197 655.024 205.613 655.6C206.029 656.165 206.237 656.843 206.237 657.632C206.237 657.845 206.221 658.064 206.189 658.288H197.661V657.808H205.037C204.941 657.008 204.568 656.395 203.917 655.968C203.277 655.541 202.531 655.328 201.677 655.328C201.101 655.328 200.552 655.435 200.029 655.648C199.517 655.851 199.101 656.16 198.781 656.576C198.461 656.981 198.301 657.472 198.301 658.048C198.301 658.56 198.461 659.019 198.781 659.424C199.112 659.819 199.539 660.128 200.061 660.352C200.595 660.565 201.16 660.672 201.757 660.672C202.397 660.672 203.011 660.539 203.597 660.272C204.184 659.995 204.675 659.579 205.069 659.024L206.173 659.696ZM207.713 661.984V654H209.073V657.632C209.297 656.843 209.633 656.165 210.081 655.6C210.529 655.035 211.03 654.608 211.585 654.32C212.139 654.021 212.694 653.872 213.249 653.872C213.771 653.872 214.246 654.005 214.673 654.272C215.11 654.539 215.457 654.944 215.713 655.488C215.969 656.021 216.097 656.677 216.097 657.456V662H214.737V657.456C214.737 656.805 214.523 656.288 214.097 655.904C213.67 655.52 213.142 655.328 212.513 655.328C211.979 655.328 211.462 655.477 210.961 655.776C210.459 656.075 210.033 656.539 209.681 657.168C209.339 657.787 209.137 658.549 209.073 659.456V661.984H207.713ZM222.315 662H218.043V651.12H219.403V660.688H222.315V662ZM221.787 654.64H217.259V654H221.787V654.64ZM227.791 662V650.8H229.151V662H227.791ZM230.619 662V654H231.979V662H230.619ZM231.291 653.392C231.099 653.392 230.944 653.301 230.827 653.12C230.72 652.928 230.667 652.704 230.667 652.448C230.667 652.192 230.72 651.973 230.827 651.792C230.944 651.611 231.099 651.52 231.291 651.52C231.483 651.52 231.632 651.611 231.739 651.792C231.856 651.973 231.915 652.192 231.915 652.448C231.915 652.704 231.856 652.928 231.739 653.12C231.632 653.301 231.483 653.392 231.291 653.392ZM233.447 662V650.8H234.807V662H233.447ZM241.655 654L234.599 658.096L233.991 656.944L239.383 654H241.655ZM234.567 657.888L242.583 662H239.639L234.039 659.072L234.567 657.888ZM250.97 659.696C250.469 660.517 249.824 661.136 249.034 661.552C248.256 661.968 247.434 662.176 246.57 662.176C245.77 662.176 245.018 662.011 244.314 661.68C243.61 661.339 243.045 660.853 242.618 660.224C242.192 659.595 241.978 658.869 241.978 658.048C241.978 657.152 242.197 656.389 242.634 655.76C243.072 655.12 243.637 654.645 244.33 654.336C245.034 654.016 245.786 653.856 246.586 653.856C247.354 653.856 248.08 654.005 248.762 654.304C249.445 654.592 249.994 655.024 250.41 655.6C250.826 656.165 251.034 656.843 251.034 657.632C251.034 657.845 251.018 658.064 250.986 658.288H242.458V657.808H249.834C249.738 657.008 249.365 656.395 248.714 655.968C248.074 655.541 247.328 655.328 246.474 655.328C245.898 655.328 245.349 655.435 244.826 655.648C244.314 655.851 243.898 656.16 243.578 656.576C243.258 656.981 243.098 657.472 243.098 658.048C243.098 658.56 243.258 659.019 243.578 659.424C243.909 659.819 244.336 660.128 244.858 660.352C245.392 660.565 245.957 660.672 246.554 660.672C247.194 660.672 247.808 660.539 248.394 660.272C248.981 659.995 249.472 659.579 249.866 659.024L250.97 659.696ZM264.922 656.8C264.453 656.309 263.93 655.941 263.354 655.696C262.789 655.451 262.213 655.328 261.626 655.328C261.072 655.328 260.56 655.44 260.09 655.664C259.632 655.877 259.264 656.187 258.986 656.592C258.72 656.997 258.586 657.477 258.586 658.032C258.586 658.587 258.725 659.067 259.002 659.472C259.29 659.867 259.669 660.171 260.138 660.384C260.608 660.587 261.12 660.688 261.674 660.688C262.346 660.688 262.992 660.539 263.61 660.24C264.24 659.931 264.757 659.483 265.162 658.896L266.09 659.472C265.578 660.336 264.906 660.997 264.074 661.456C263.253 661.915 262.394 662.144 261.498 662.144C260.752 662.144 260.058 661.989 259.418 661.68C258.778 661.36 258.266 660.891 257.882 660.272C257.498 659.643 257.306 658.896 257.306 658.032C257.306 657.168 257.498 656.421 257.882 655.792C258.277 655.152 258.8 654.667 259.45 654.336C260.112 654.005 260.821 653.84 261.578 653.84C262.346 653.84 263.104 654.016 263.85 654.368C264.608 654.72 265.264 655.237 265.818 655.92L264.922 656.8ZM274.58 657.456C274.58 656.805 274.367 656.288 273.94 655.904C273.514 655.52 272.986 655.328 272.356 655.328C271.823 655.328 271.306 655.477 270.804 655.776C270.303 656.075 269.876 656.539 269.524 657.168C269.183 657.787 268.98 658.549 268.916 659.456V661.984H267.556V650.8H268.916V657.632C269.14 656.843 269.476 656.165 269.924 655.6C270.372 655.035 270.874 654.608 271.428 654.32C271.983 654.021 272.538 653.872 273.092 653.872C273.615 653.872 274.09 654.005 274.516 654.272C274.954 654.539 275.3 654.944 275.556 655.488C275.812 656.021 275.94 656.677 275.94 657.456V662H274.58V657.456ZM284.648 656.688C284.648 655.664 283.773 655.152 282.024 655.152C281.458 655.152 280.888 655.248 280.312 655.44C279.736 655.632 279.245 655.84 278.84 656.064C278.445 656.277 278.184 656.432 278.056 656.528V655.264C278.077 655.253 278.445 655.04 279.16 654.624C279.874 654.208 280.829 654 282.024 654C283.581 654 284.632 654.288 285.176 654.864C285.73 655.44 286.008 656.048 286.008 656.688V662H284.648V656.688ZM284.76 656.992C284.525 658.155 284.125 659.125 283.56 659.904C282.994 660.672 282.36 661.243 281.656 661.616C280.952 661.979 280.264 662.16 279.592 662.16C278.952 662.16 278.424 662 278.008 661.68C277.592 661.36 277.394 660.933 277.416 660.4C277.437 659.771 277.704 659.221 278.216 658.752C278.738 658.283 279.346 657.899 280.04 657.6C280.733 657.291 281.613 656.949 282.68 656.576C283.074 656.437 283.464 656.299 283.848 656.16C284.242 656.011 284.557 655.877 284.792 655.76L285.048 656.736C284.568 656.981 283.73 657.328 282.536 657.776C281.266 658.256 280.312 658.667 279.672 659.008C279.032 659.349 278.712 659.723 278.712 660.128C278.712 660.299 278.824 660.437 279.048 660.544C279.272 660.64 279.565 660.688 279.928 660.688C280.504 660.688 281.112 660.56 281.752 660.304C282.402 660.037 282.994 659.616 283.528 659.04C284.061 658.464 284.434 657.739 284.648 656.864L284.76 656.992ZM287.478 662V654H288.838V657.52C289.126 656.485 289.585 655.611 290.214 654.896C290.854 654.181 291.708 653.824 292.774 653.824C292.913 653.824 293.153 653.845 293.494 653.888V655.552C292.908 655.403 292.364 655.328 291.862 655.328C290.966 655.328 290.3 655.595 289.862 656.128C289.436 656.651 289.158 657.365 289.03 658.272C288.913 659.179 288.849 660.421 288.838 662H287.478ZM294.963 662V654H296.323V662H294.963ZM295.635 653.392C295.443 653.392 295.288 653.301 295.171 653.12C295.064 652.928 295.011 652.704 295.011 652.448C295.011 652.192 295.064 651.973 295.171 651.792C295.288 651.611 295.443 651.52 295.635 651.52C295.827 651.52 295.976 651.611 296.083 651.792C296.2 651.973 296.259 652.192 296.259 652.448C296.259 652.704 296.2 652.928 296.083 653.12C295.976 653.301 295.827 653.392 295.635 653.392ZM302.69 662H298.418V651.12H299.778V660.688H302.69V662ZM302.162 654.64H297.634V654H302.162V654.64ZM306.081 665.2L310.641 654H312.161L307.601 665.2H306.081ZM306.545 660.8L303.041 653.984H304.609L308.033 660.8H306.545ZM311.873 663.136C312.054 663.029 312.182 662.939 312.257 662.864C312.331 662.789 312.379 662.693 312.401 662.576C312.422 662.469 312.443 662.277 312.465 662C312.219 661.947 312.033 661.845 311.905 661.696C311.777 661.547 311.713 661.381 311.713 661.2C311.713 660.965 311.798 660.768 311.969 660.608C312.15 660.437 312.39 660.352 312.689 660.352C313.019 660.352 313.275 660.464 313.457 660.688C313.638 660.912 313.729 661.2 313.729 661.552C313.729 661.925 313.617 662.299 313.393 662.672C313.179 663.056 312.865 663.371 312.449 663.616L311.873 663.136ZM69.4676 678H70.8916L69.0996 686H67.7236L69.4676 678ZM77.4036 678L75.2756 686H73.8516L75.9156 678H77.4036ZM72.5876 686L70.7956 678H72.1236L73.9316 686H72.5876ZM64.2516 678H65.7396L67.8036 686H66.4596L64.2516 678ZM86.7443 682C86.7443 681.424 86.5789 680.933 86.2483 680.528C85.9176 680.123 85.4803 679.819 84.9363 679.616C84.4029 679.413 83.8269 679.312 83.2083 679.312C82.6003 679.312 82.0243 679.413 81.4803 679.616C80.9469 679.819 80.5096 680.128 80.1683 680.544C79.8376 680.949 79.6723 681.435 79.6723 682C79.6723 682.576 79.8376 683.067 80.1683 683.472C80.5096 683.877 80.9469 684.187 81.4803 684.4C82.0243 684.603 82.6003 684.704 83.2083 684.704C83.8269 684.704 84.4029 684.603 84.9363 684.4C85.4803 684.187 85.9176 683.877 86.2483 683.472C86.5789 683.067 86.7443 682.576 86.7443 682ZM88.0243 682C88.0243 682.885 87.7949 683.643 87.3363 684.272C86.8883 684.891 86.2963 685.36 85.5603 685.68C84.8243 686 84.0403 686.16 83.2083 686.16C82.3763 686.16 81.5923 686 80.8563 685.68C80.1203 685.36 79.5229 684.891 79.0643 684.272C78.6163 683.643 78.3923 682.885 78.3923 682C78.3923 681.115 78.6163 680.363 79.0643 679.744C79.5229 679.115 80.1203 678.64 80.8563 678.32C81.5923 678 82.3763 677.84 83.2083 677.84C84.0403 677.84 84.8243 678 85.5603 678.32C86.2963 678.64 86.8883 679.115 87.3363 679.744C87.7949 680.363 88.0243 681.115 88.0243 682ZM89.5016 686V678H90.8616V681.52C91.1496 680.485 91.6083 679.611 92.2376 678.896C92.8776 678.181 93.731 677.824 94.7976 677.824C94.9363 677.824 95.1763 677.845 95.5176 677.888V679.552C94.931 679.403 94.387 679.328 93.8856 679.328C92.9896 679.328 92.323 679.595 91.8856 680.128C91.459 680.651 91.1816 681.365 91.0536 682.272C90.9363 683.179 90.8723 684.421 90.8616 686H89.5016ZM96.986 686V674.8H98.346V686H96.986ZM105.194 678L98.138 682.096L97.53 680.944L102.922 678H105.194ZM98.106 681.888L106.122 686H103.178L97.578 683.072L98.106 681.888ZM106.762 682.976C107.188 683.552 107.732 683.979 108.394 684.256C109.055 684.533 109.738 684.672 110.442 684.672C111.167 684.672 111.786 684.544 112.298 684.288C112.81 684.032 113.066 683.701 113.066 683.296C113.066 682.891 112.911 682.613 112.602 682.464C112.292 682.315 111.85 682.24 111.274 682.24C111.018 682.24 110.783 682.245 110.57 682.256C110.356 682.267 110.175 682.277 110.026 682.288C109.407 682.331 108.948 682.352 108.65 682.352C107.796 682.352 107.13 682.213 106.65 681.936C106.17 681.659 105.93 681.141 105.93 680.384C105.93 679.872 106.079 679.424 106.378 679.04C106.676 678.656 107.076 678.363 107.578 678.16C108.09 677.947 108.65 677.84 109.258 677.84C110.004 677.84 110.751 678.005 111.498 678.336C112.255 678.656 112.938 679.141 113.546 679.792L112.602 680.656C112.1 680.197 111.556 679.861 110.97 679.648C110.383 679.435 109.812 679.328 109.258 679.328C108.66 679.328 108.154 679.435 107.738 679.648C107.322 679.851 107.114 680.096 107.114 680.384C107.114 680.672 107.231 680.875 107.466 680.992C107.711 681.099 108.058 681.152 108.506 681.152C108.74 681.152 109.167 681.131 109.786 681.088C110.34 681.035 110.847 681.008 111.306 681.008C112.212 681.008 112.927 681.173 113.45 681.504C113.983 681.824 114.25 682.421 114.25 683.296C114.25 683.883 114.074 684.395 113.722 684.832C113.38 685.259 112.916 685.589 112.33 685.824C111.743 686.048 111.108 686.16 110.426 686.16C109.498 686.16 108.602 685.947 107.738 685.52C106.884 685.093 106.196 684.469 105.674 683.648L106.762 682.976ZM122.744 681.456C122.744 680.805 122.531 680.288 122.104 679.904C121.678 679.52 121.15 679.328 120.52 679.328C119.987 679.328 119.47 679.477 118.968 679.776C118.467 680.075 118.04 680.539 117.688 681.168C117.347 681.787 117.144 682.549 117.08 683.456V685.984H115.72V674.8H117.08V681.632C117.304 680.843 117.64 680.165 118.088 679.6C118.536 679.035 119.038 678.608 119.592 678.32C120.147 678.021 120.702 677.872 121.256 677.872C121.779 677.872 122.254 678.005 122.68 678.272C123.118 678.539 123.464 678.944 123.72 679.488C123.976 680.021 124.104 680.677 124.104 681.456V686H122.744V681.456ZM133.932 682C133.932 681.424 133.766 680.933 133.436 680.528C133.105 680.123 132.668 679.819 132.124 679.616C131.59 679.413 131.014 679.312 130.396 679.312C129.788 679.312 129.212 679.413 128.668 679.616C128.134 679.819 127.697 680.128 127.356 680.544C127.025 680.949 126.86 681.435 126.86 682C126.86 682.576 127.025 683.067 127.356 683.472C127.697 683.877 128.134 684.187 128.668 684.4C129.212 684.603 129.788 684.704 130.396 684.704C131.014 684.704 131.59 684.603 132.124 684.4C132.668 684.187 133.105 683.877 133.436 683.472C133.766 683.067 133.932 682.576 133.932 682ZM135.212 682C135.212 682.885 134.982 683.643 134.524 684.272C134.076 684.891 133.484 685.36 132.748 685.68C132.012 686 131.228 686.16 130.396 686.16C129.564 686.16 128.78 686 128.044 685.68C127.308 685.36 126.71 684.891 126.252 684.272C125.804 683.643 125.58 682.885 125.58 682C125.58 681.115 125.804 680.363 126.252 679.744C126.71 679.115 127.308 678.64 128.044 678.32C128.78 678 129.564 677.84 130.396 677.84C131.228 677.84 132.012 678 132.748 678.32C133.484 678.64 134.076 679.115 134.524 679.744C134.982 680.363 135.212 681.115 135.212 682ZM137.969 678V689.2H136.689V678H137.969ZM145.697 681.952C145.697 682.827 145.5 683.584 145.105 684.224C144.721 684.853 144.209 685.333 143.569 685.664C142.94 685.995 142.273 686.16 141.569 686.16C140.886 686.16 140.252 686.005 139.665 685.696C139.078 685.387 138.604 684.923 138.241 684.304C137.878 683.675 137.697 682.907 137.697 682C137.697 681.104 137.878 680.347 138.241 679.728C138.614 679.099 139.1 678.629 139.697 678.32C140.294 678.011 140.934 677.856 141.617 677.856C142.321 677.856 142.982 678.016 143.601 678.336C144.23 678.656 144.737 679.125 145.121 679.744C145.505 680.363 145.697 681.099 145.697 681.952ZM144.417 681.952C144.417 681.387 144.268 680.901 143.969 680.496C143.67 680.091 143.276 679.787 142.785 679.584C142.305 679.381 141.788 679.28 141.233 679.28C140.678 679.28 140.156 679.387 139.665 679.6C139.174 679.803 138.774 680.112 138.465 680.528C138.166 680.933 138.017 681.424 138.017 682C138.017 682.587 138.156 683.083 138.433 683.488C138.721 683.893 139.094 684.197 139.553 684.4C140.022 684.592 140.529 684.688 141.073 684.688C141.638 684.688 142.177 684.581 142.689 684.368C143.201 684.155 143.617 683.84 143.937 683.424C144.257 683.008 144.417 682.517 144.417 681.952ZM147.334 687.136C147.515 687.029 147.643 686.939 147.718 686.864C147.792 686.789 147.84 686.693 147.862 686.576C147.883 686.469 147.904 686.277 147.926 686C147.68 685.947 147.494 685.845 147.366 685.696C147.238 685.547 147.174 685.381 147.174 685.2C147.174 684.965 147.259 684.768 147.43 684.608C147.611 684.437 147.851 684.352 148.15 684.352C148.48 684.352 148.736 684.464 148.918 684.688C149.099 684.912 149.19 685.2 149.19 685.552C149.19 685.925 149.078 686.299 148.854 686.672C148.64 687.056 148.326 687.371 147.91 687.616L147.334 687.136ZM155.455 686V674.8H156.815V686H155.455ZM163.295 682C163.295 681.424 163.14 680.933 162.831 680.528C162.532 680.123 162.132 679.819 161.631 679.616C161.14 679.403 160.617 679.296 160.063 679.296C159.497 679.296 158.964 679.403 158.463 679.616C157.972 679.819 157.572 680.123 157.263 680.528C156.964 680.933 156.815 681.424 156.815 682C156.815 682.576 156.964 683.072 157.263 683.488C157.572 683.893 157.972 684.203 158.463 684.416C158.964 684.619 159.497 684.72 160.063 684.72C160.617 684.72 161.14 684.619 161.631 684.416C162.132 684.203 162.532 683.893 162.831 683.488C163.14 683.072 163.295 682.576 163.295 682ZM164.575 682C164.575 682.875 164.383 683.627 163.999 684.256C163.625 684.875 163.129 685.344 162.511 685.664C161.903 685.984 161.252 686.144 160.559 686.144C159.887 686.144 159.252 685.989 158.655 685.68C158.057 685.36 157.572 684.891 157.199 684.272C156.836 683.643 156.655 682.885 156.655 682C156.655 681.115 156.836 680.363 157.199 679.744C157.572 679.115 158.057 678.645 158.655 678.336C159.252 678.016 159.887 677.856 160.559 677.856C161.252 677.856 161.903 678.016 162.511 678.336C163.129 678.656 163.625 679.131 163.999 679.76C164.383 680.379 164.575 681.125 164.575 682ZM166.049 686V674.8H167.409V686H166.049ZM177.229 682C177.229 681.424 177.063 680.933 176.733 680.528C176.402 680.123 175.965 679.819 175.421 679.616C174.887 679.413 174.311 679.312 173.693 679.312C173.085 679.312 172.509 679.413 171.965 679.616C171.431 679.819 170.994 680.128 170.653 680.544C170.322 680.949 170.157 681.435 170.157 682C170.157 682.576 170.322 683.067 170.653 683.472C170.994 683.877 171.431 684.187 171.965 684.4C172.509 684.603 173.085 684.704 173.693 684.704C174.311 684.704 174.887 684.603 175.421 684.4C175.965 684.187 176.402 683.877 176.733 683.472C177.063 683.067 177.229 682.576 177.229 682ZM178.509 682C178.509 682.885 178.279 683.643 177.821 684.272C177.373 684.891 176.781 685.36 176.045 685.68C175.309 686 174.525 686.16 173.693 686.16C172.861 686.16 172.077 686 171.341 685.68C170.605 685.36 170.007 684.891 169.549 684.272C169.101 683.643 168.877 682.885 168.877 682C168.877 681.115 169.101 680.363 169.549 679.744C170.007 679.115 170.605 678.64 171.341 678.32C172.077 678 172.861 677.84 173.693 677.84C174.525 677.84 175.309 678 176.045 678.32C176.781 678.64 177.373 679.115 177.821 679.744C178.279 680.363 178.509 681.115 178.509 682ZM188.026 682C188.026 681.424 187.86 680.933 187.53 680.528C187.199 680.123 186.762 679.819 186.218 679.616C185.684 679.413 185.108 679.312 184.49 679.312C183.882 679.312 183.306 679.413 182.762 679.616C182.228 679.819 181.791 680.128 181.45 680.544C181.119 680.949 180.954 681.435 180.954 682C180.954 682.576 181.119 683.067 181.45 683.472C181.791 683.877 182.228 684.187 182.762 684.4C183.306 684.603 183.882 684.704 184.49 684.704C185.108 684.704 185.684 684.603 186.218 684.4C186.762 684.187 187.199 683.877 187.53 683.472C187.86 683.067 188.026 682.576 188.026 682ZM189.306 682C189.306 682.885 189.076 683.643 188.618 684.272C188.17 684.891 187.578 685.36 186.842 685.68C186.106 686 185.322 686.16 184.49 686.16C183.658 686.16 182.874 686 182.138 685.68C181.402 685.36 180.804 684.891 180.346 684.272C179.898 683.643 179.674 682.885 179.674 682C179.674 681.115 179.898 680.363 180.346 679.744C180.804 679.115 181.402 678.64 182.138 678.32C182.874 678 183.658 677.84 184.49 677.84C185.322 677.84 186.106 678 186.842 678.32C187.578 678.64 188.17 679.115 188.618 679.744C189.076 680.363 189.306 681.115 189.306 682ZM198.003 686V674.8H199.363V686H198.003ZM190.627 682C190.627 681.115 190.808 680.357 191.171 679.728C191.533 679.099 192.008 678.624 192.595 678.304C193.181 677.984 193.811 677.824 194.483 677.824C195.144 677.824 195.768 677.984 196.355 678.304C196.941 678.624 197.416 679.099 197.779 679.728C198.141 680.357 198.323 681.115 198.323 682C198.323 682.864 198.136 683.611 197.763 684.24C197.389 684.869 196.899 685.349 196.291 685.68C195.683 686 195.043 686.16 194.371 686.16C193.72 686.16 193.107 686.005 192.531 685.696C191.965 685.387 191.507 684.917 191.155 684.288C190.803 683.659 190.627 682.896 190.627 682ZM191.907 682C191.907 682.565 192.051 683.051 192.339 683.456C192.627 683.861 193 684.165 193.459 684.368C193.928 684.571 194.429 684.672 194.963 684.672C195.485 684.672 195.976 684.571 196.435 684.368C196.904 684.165 197.283 683.861 197.571 683.456C197.859 683.051 198.003 682.565 198.003 682C198.003 681.424 197.859 680.933 197.571 680.528C197.283 680.123 196.904 679.819 196.435 679.616C195.976 679.403 195.485 679.296 194.963 679.296C194.429 679.296 193.928 679.403 193.459 679.616C193 679.819 192.627 680.123 192.339 680.528C192.051 680.933 191.907 681.424 191.907 682ZM213.003 686V674.8H214.363V686H213.003ZM205.627 682C205.627 681.115 205.808 680.357 206.171 679.728C206.533 679.099 207.008 678.624 207.595 678.304C208.181 677.984 208.811 677.824 209.483 677.824C210.144 677.824 210.768 677.984 211.355 678.304C211.941 678.624 212.416 679.099 212.779 679.728C213.141 680.357 213.323 681.115 213.323 682C213.323 682.864 213.136 683.611 212.763 684.24C212.389 684.869 211.899 685.349 211.291 685.68C210.683 686 210.043 686.16 209.371 686.16C208.72 686.16 208.107 686.005 207.531 685.696C206.965 685.387 206.507 684.917 206.155 684.288C205.803 683.659 205.627 682.896 205.627 682ZM206.907 682C206.907 682.565 207.051 683.051 207.339 683.456C207.627 683.861 208 684.165 208.459 684.368C208.928 684.571 209.429 684.672 209.963 684.672C210.485 684.672 210.976 684.571 211.435 684.368C211.904 684.165 212.283 683.861 212.571 683.456C212.859 683.051 213.003 682.565 213.003 682C213.003 681.424 212.859 680.933 212.571 680.528C212.283 680.123 211.904 679.819 211.435 679.616C210.976 679.403 210.485 679.296 209.963 679.296C209.429 679.296 208.928 679.403 208.459 679.616C208 679.819 207.627 680.123 207.339 680.528C207.051 680.933 206.907 681.424 206.907 682ZM215.83 686V678H217.19V681.52C217.478 680.485 217.936 679.611 218.566 678.896C219.206 678.181 220.059 677.824 221.126 677.824C221.264 677.824 221.504 677.845 221.846 677.888V679.552C221.259 679.403 220.715 679.328 220.214 679.328C219.318 679.328 218.651 679.595 218.214 680.128C217.787 680.651 217.51 681.365 217.382 682.272C217.264 683.179 217.2 684.421 217.19 686H215.83ZM223.314 686V678H224.674V686H223.314ZM223.986 677.392C223.794 677.392 223.639 677.301 223.522 677.12C223.415 676.928 223.362 676.704 223.362 676.448C223.362 676.192 223.415 675.973 223.522 675.792C223.639 675.611 223.794 675.52 223.986 675.52C224.178 675.52 224.327 675.611 224.434 675.792C224.551 675.973 224.61 676.192 224.61 676.448C224.61 676.704 224.551 676.928 224.434 677.12C224.327 677.301 224.178 677.392 223.986 677.392ZM234.438 678L231.446 686H229.926L232.934 678H234.438ZM225.83 678H227.334L230.134 686H228.662L225.83 678ZM243.775 683.696C243.274 684.517 242.628 685.136 241.839 685.552C241.06 685.968 240.239 686.176 239.375 686.176C238.575 686.176 237.823 686.011 237.119 685.68C236.415 685.339 235.85 684.853 235.423 684.224C234.996 683.595 234.783 682.869 234.783 682.048C234.783 681.152 235.002 680.389 235.439 679.76C235.876 679.12 236.442 678.645 237.135 678.336C237.839 678.016 238.591 677.856 239.391 677.856C240.159 677.856 240.884 678.005 241.567 678.304C242.25 678.592 242.799 679.024 243.215 679.6C243.631 680.165 243.839 680.843 243.839 681.632C243.839 681.845 243.823 682.064 243.791 682.288H235.263V681.808H242.639C242.543 681.008 242.17 680.395 241.519 679.968C240.879 679.541 240.132 679.328 239.279 679.328C238.703 679.328 238.154 679.435 237.631 679.648C237.119 679.851 236.703 680.16 236.383 680.576C236.063 680.981 235.903 681.472 235.903 682.048C235.903 682.56 236.063 683.019 236.383 683.424C236.714 683.819 237.14 684.128 237.663 684.352C238.196 684.565 238.762 684.672 239.359 684.672C239.999 684.672 240.612 684.539 241.199 684.272C241.786 683.995 242.276 683.579 242.671 683.024L243.775 683.696ZM245.314 686V678H246.674V681.52C246.962 680.485 247.421 679.611 248.05 678.896C248.69 678.181 249.543 677.824 250.61 677.824C250.749 677.824 250.989 677.845 251.33 677.888V679.552C250.743 679.403 250.199 679.328 249.698 679.328C248.802 679.328 248.135 679.595 247.698 680.128C247.271 680.651 246.994 681.365 246.866 682.272C246.749 683.179 246.685 684.421 246.674 686H245.314ZM250.88 687.136C251.062 687.029 251.19 686.939 251.264 686.864C251.339 686.789 251.387 686.693 251.408 686.576C251.43 686.469 251.451 686.277 251.472 686C251.227 685.947 251.04 685.845 250.912 685.696C250.784 685.547 250.72 685.381 250.72 685.2C250.72 684.965 250.806 684.768 250.976 684.608C251.158 684.437 251.398 684.352 251.696 684.352C252.027 684.352 252.283 684.464 252.464 684.688C252.646 684.912 252.736 685.2 252.736 685.552C252.736 685.925 252.624 686.299 252.4 686.672C252.187 687.056 251.872 687.371 251.456 687.616L250.88 687.136ZM266.618 680.8C266.148 680.309 265.626 679.941 265.05 679.696C264.484 679.451 263.908 679.328 263.322 679.328C262.767 679.328 262.255 679.44 261.786 679.664C261.327 679.877 260.959 680.187 260.682 680.592C260.415 680.997 260.282 681.477 260.282 682.032C260.282 682.587 260.42 683.067 260.698 683.472C260.986 683.867 261.364 684.171 261.834 684.384C262.303 684.587 262.815 684.688 263.37 684.688C264.042 684.688 264.687 684.539 265.306 684.24C265.935 683.931 266.452 683.483 266.858 682.896L267.786 683.472C267.274 684.336 266.602 684.997 265.77 685.456C264.948 685.915 264.09 686.144 263.194 686.144C262.447 686.144 261.754 685.989 261.114 685.68C260.474 685.36 259.962 684.891 259.578 684.272C259.194 683.643 259.002 682.896 259.002 682.032C259.002 681.168 259.194 680.421 259.578 679.792C259.972 679.152 260.495 678.667 261.146 678.336C261.807 678.005 262.516 677.84 263.274 677.84C264.042 677.84 264.799 678.016 265.546 678.368C266.303 678.72 266.959 679.237 267.514 679.92L266.618 680.8ZM277.119 682C277.119 681.424 276.954 680.933 276.623 680.528C276.293 680.123 275.855 679.819 275.311 679.616C274.778 679.413 274.202 679.312 273.583 679.312C272.975 679.312 272.399 679.413 271.855 679.616C271.322 679.819 270.885 680.128 270.543 680.544C270.213 680.949 270.047 681.435 270.047 682C270.047 682.576 270.213 683.067 270.543 683.472C270.885 683.877 271.322 684.187 271.855 684.4C272.399 684.603 272.975 684.704 273.583 684.704C274.202 684.704 274.778 684.603 275.311 684.4C275.855 684.187 276.293 683.877 276.623 683.472C276.954 683.067 277.119 682.576 277.119 682ZM278.399 682C278.399 682.885 278.17 683.643 277.711 684.272C277.263 684.891 276.671 685.36 275.935 685.68C275.199 686 274.415 686.16 273.583 686.16C272.751 686.16 271.967 686 271.231 685.68C270.495 685.36 269.898 684.891 269.439 684.272C268.991 683.643 268.767 682.885 268.767 682C268.767 681.115 268.991 680.363 269.439 679.744C269.898 679.115 270.495 678.64 271.231 678.32C271.967 678 272.751 677.84 273.583 677.84C274.415 677.84 275.199 678 275.935 678.32C276.671 678.64 277.263 679.115 277.711 679.744C278.17 680.363 278.399 681.115 278.399 682ZM279.877 685.984V678H281.237V681.632C281.461 680.843 281.797 680.165 282.245 679.6C282.693 679.035 283.194 678.608 283.749 678.32C284.303 678.021 284.858 677.872 285.413 677.872C285.935 677.872 286.41 678.005 286.837 678.272C287.274 678.539 287.621 678.944 287.877 679.488C288.133 680.021 288.261 680.677 288.261 681.456V686H286.901V681.456C286.901 680.805 286.687 680.288 286.261 679.904C285.834 679.52 285.306 679.328 284.677 679.328C284.143 679.328 283.626 679.477 283.125 679.776C282.623 680.075 282.197 680.539 281.845 681.168C281.503 681.787 281.301 682.549 281.237 683.456V685.984H279.877ZM297.352 680.8C296.883 680.309 296.36 679.941 295.784 679.696C295.219 679.451 294.643 679.328 294.056 679.328C293.501 679.328 292.989 679.44 292.52 679.664C292.061 679.877 291.693 680.187 291.416 680.592C291.149 680.997 291.016 681.477 291.016 682.032C291.016 682.587 291.155 683.067 291.432 683.472C291.72 683.867 292.099 684.171 292.568 684.384C293.037 684.587 293.549 684.688 294.104 684.688C294.776 684.688 295.421 684.539 296.04 684.24C296.669 683.931 297.187 683.483 297.592 682.896L298.52 683.472C298.008 684.336 297.336 684.997 296.504 685.456C295.683 685.915 294.824 686.144 293.928 686.144C293.181 686.144 292.488 685.989 291.848 685.68C291.208 685.36 290.696 684.891 290.312 684.272C289.928 683.643 289.736 682.896 289.736 682.032C289.736 681.168 289.928 680.421 290.312 679.792C290.707 679.152 291.229 678.667 291.88 678.336C292.541 678.005 293.251 677.84 294.008 677.84C294.776 677.84 295.533 678.016 296.28 678.368C297.037 678.72 297.693 679.237 298.248 679.92L297.352 680.8ZM308.666 683.696C308.164 684.517 307.519 685.136 306.73 685.552C305.951 685.968 305.13 686.176 304.266 686.176C303.466 686.176 302.714 686.011 302.01 685.68C301.306 685.339 300.74 684.853 300.314 684.224C299.887 683.595 299.674 682.869 299.674 682.048C299.674 681.152 299.892 680.389 300.33 679.76C300.767 679.12 301.332 678.645 302.026 678.336C302.73 678.016 303.482 677.856 304.282 677.856C305.05 677.856 305.775 678.005 306.458 678.304C307.14 678.592 307.69 679.024 308.106 679.6C308.522 680.165 308.73 680.843 308.73 681.632C308.73 681.845 308.714 682.064 308.682 682.288H300.154V681.808H307.53C307.433 681.008 307.06 680.395 306.41 679.968C305.77 679.541 305.023 679.328 304.17 679.328C303.594 679.328 303.044 679.435 302.522 679.648C302.01 679.851 301.594 680.16 301.274 680.576C300.954 680.981 300.794 681.472 300.794 682.048C300.794 682.56 300.954 683.019 301.274 683.424C301.604 683.819 302.031 684.128 302.554 684.352C303.087 684.565 303.652 684.672 304.25 684.672C304.89 684.672 305.503 684.539 306.09 684.272C306.676 683.995 307.167 683.579 307.562 683.024L308.666 683.696ZM310.205 686V678H311.565V681.52C311.853 680.485 312.311 679.611 312.941 678.896C313.581 678.181 314.434 677.824 315.501 677.824C315.639 677.824 315.879 677.845 316.221 677.888V679.552C315.634 679.403 315.09 679.328 314.589 679.328C313.693 679.328 313.026 679.595 312.589 680.128C312.162 680.651 311.885 681.365 311.757 682.272C311.639 683.179 311.575 684.421 311.565 686H310.205ZM322.745 686H318.473V675.12H319.833V684.688H322.745V686ZM322.217 678.64H317.689V678H322.217V678.64Z" fill="#6C6D80"/>
<path d="M159 528C159 525.791 160.791 524 163 524C165.209 524 167 525.791 167 528C167 530.209 165.209 532 163 532C160.791 532 159 530.209 159 528Z" fill="#53556B"/>
<path d="M175 528C175 525.791 176.791 524 179 524C181.209 524 183 525.791 183 528C183 530.209 181.209 532 179 532C176.791 532 175 530.209 175 528Z" fill="#53556B"/>
<path d="M191 528C191 525.791 192.791 524 195 524H211C213.209 524 215 525.791 215 528C215 530.209 213.209 532 211 532H195C192.791 532 191 530.209 191 528Z" fill="#131313"/>
<path d="M30 740C30 731.163 37.1634 724 46 724H341C349.837 724 357 731.163 357 740V764C357 772.837 349.837 780 341 780H46C37.1635 780 30 772.837 30 764V740Z" fill="#131313"/>
<path d="M135.578 752H147.418V759.78H144.978V753.32H144.178C144.271 753.573 144.338 753.873 144.378 754.22C144.418 754.567 144.438 755.073 144.438 755.74C144.438 756.647 144.138 757.44 143.538 758.12C142.951 758.787 142.171 759.3 141.197 759.66C140.238 760.007 139.198 760.18 138.078 760.18C136.758 760.18 135.511 759.933 134.338 759.44C133.164 758.947 132.204 758.193 131.458 757.18C130.724 756.153 130.358 754.9 130.358 753.42C130.358 751.78 130.678 750.393 131.318 749.26C131.971 748.113 132.884 747.253 134.058 746.68C135.244 746.093 136.638 745.8 138.238 745.8C139.651 745.8 141.184 746.033 142.838 746.5C144.504 746.953 146.238 747.633 148.038 748.54L146.598 750.86C143.224 749.26 140.391 748.46 138.098 748.46C136.471 748.46 135.211 748.88 134.318 749.72C133.438 750.56 132.998 751.793 132.998 753.42C132.998 754.393 133.251 755.207 133.758 755.86C134.278 756.5 134.938 756.973 135.738 757.28C136.551 757.573 137.398 757.72 138.278 757.72C138.931 757.72 139.544 757.64 140.118 757.48C140.691 757.307 141.144 757.073 141.478 756.78C141.824 756.473 141.998 756.127 141.998 755.74C141.998 754.78 141.684 754.14 141.058 753.82C140.444 753.487 139.538 753.32 138.338 753.32H135.578V752ZM160.368 756.88C159.702 757.987 158.868 758.82 157.868 759.38C156.868 759.94 155.815 760.22 154.708 760.22C153.722 760.22 152.795 760.007 151.928 759.58C151.075 759.153 150.382 758.553 149.848 757.78C149.328 756.993 149.068 756.087 149.068 755.06C149.068 753.94 149.342 752.987 149.888 752.2C150.448 751.4 151.168 750.807 152.048 750.42C152.928 750.02 153.868 749.82 154.868 749.82C155.815 749.82 156.702 750 157.528 750.36C158.368 750.707 159.042 751.22 159.548 751.9C160.055 752.58 160.308 753.393 160.308 754.34C160.308 754.58 160.288 754.833 160.248 755.1H149.868V754.3H158.028C157.868 753.553 157.482 752.98 156.868 752.58C156.255 752.18 155.555 751.98 154.768 751.98C154.142 751.98 153.542 752.107 152.968 752.36C152.408 752.6 151.948 752.953 151.588 753.42C151.242 753.887 151.068 754.433 151.068 755.06C151.068 755.647 151.228 756.167 151.548 756.62C151.868 757.06 152.295 757.407 152.828 757.66C153.375 757.9 153.955 758.02 154.568 758.02C155.315 758.02 156.028 757.833 156.708 757.46C157.388 757.087 157.955 756.52 158.408 755.76L160.368 756.88ZM169.142 760H162.802V746.4H165.202V757.84H169.142V760ZM168.482 751.44H161.822V750H168.482V751.44ZM178.123 755.06C178.643 755.9 179.449 756.54 180.543 756.98C181.649 757.42 182.803 757.64 184.003 757.64C185.083 757.64 185.989 757.473 186.723 757.14C187.456 756.793 187.823 756.327 187.823 755.74C187.823 755.327 187.643 755.013 187.283 754.8C186.923 754.573 186.469 754.42 185.923 754.34C185.376 754.247 184.603 754.16 183.603 754.08C182.123 753.973 180.903 753.82 179.943 753.62C178.983 753.42 178.156 753.013 177.463 752.4C176.783 751.773 176.443 750.867 176.443 749.68C176.443 748.933 176.723 748.273 177.283 747.7C177.856 747.113 178.609 746.66 179.543 746.34C180.476 746.007 181.476 745.84 182.543 745.84C183.969 745.84 185.309 746.14 186.563 746.74C187.816 747.34 188.796 748.247 189.503 749.46L187.323 750.76C186.816 749.947 186.116 749.353 185.223 748.98C184.329 748.607 183.383 748.42 182.383 748.42C181.769 748.42 181.196 748.48 180.663 748.6C180.129 748.72 179.696 748.88 179.363 749.08C179.043 749.28 178.883 749.48 178.883 749.68C178.883 750.04 179.049 750.32 179.383 750.52C179.729 750.707 180.156 750.84 180.663 750.92C181.183 751 181.916 751.08 182.863 751.16C184.383 751.28 185.636 751.447 186.623 751.66C187.609 751.873 188.463 752.3 189.183 752.94C189.903 753.567 190.263 754.5 190.263 755.74C190.263 756.687 189.963 757.5 189.363 758.18C188.776 758.847 187.989 759.353 187.003 759.7C186.029 760.047 184.969 760.22 183.823 760.22C182.196 760.22 180.656 759.893 179.203 759.24C177.763 758.587 176.689 757.653 175.983 756.44L178.123 755.06ZM198.615 760H192.275V746.4H194.675V757.84H198.615V760ZM197.955 751.44H191.295V750H197.955V751.44ZM209.105 753.36C209.105 753.2 209.005 753.02 208.805 752.82C208.605 752.62 208.271 752.447 207.805 752.3C207.338 752.153 206.731 752.08 205.985 752.08C205.278 752.08 204.551 752.173 203.805 752.36C203.058 752.533 202.411 752.727 201.865 752.94C201.318 753.14 200.985 753.28 200.865 753.36V751.28C200.918 751.267 201.438 751.053 202.425 750.64C203.425 750.213 204.585 750 205.905 750C207.305 750 208.418 750.187 209.245 750.56C210.085 750.92 210.671 751.36 211.005 751.88C211.338 752.387 211.505 752.88 211.505 753.36V760H209.105V753.36ZM209.185 754.06C208.825 755.433 208.305 756.58 207.625 757.5C206.958 758.42 206.218 759.107 205.405 759.56C204.605 760 203.811 760.22 203.025 760.22C202.171 760.22 201.465 759.967 200.905 759.46C200.345 758.953 200.065 758.26 200.065 757.38C200.065 756.487 200.385 755.76 201.025 755.2C201.678 754.627 202.445 754.193 203.325 753.9C204.218 753.607 205.365 753.3 206.765 752.98C207.645 752.793 208.338 752.627 208.845 752.48C209.365 752.333 209.771 752.16 210.065 751.96L210.525 753.54C209.978 753.847 209.358 754.12 208.665 754.36C207.985 754.587 207.138 754.853 206.125 755.16C204.898 755.533 204.005 755.84 203.445 756.08C202.898 756.32 202.618 756.587 202.605 756.88C202.605 757.12 202.718 757.307 202.945 757.44C203.171 757.573 203.471 757.64 203.845 757.64C204.391 757.64 204.998 757.507 205.665 757.24C206.331 756.973 206.978 756.573 207.605 756.04C208.245 755.493 208.771 754.833 209.185 754.06ZM213.346 760V750H215.746V752.82C216.812 750.793 218.352 749.78 220.366 749.78C220.806 749.78 221.239 749.827 221.666 749.92V752.86C220.186 752.46 219.092 752.26 218.386 752.26C217.532 752.26 216.919 752.507 216.546 753C216.186 753.493 215.959 754.233 215.866 755.22C215.786 756.207 215.746 757.8 215.746 760H213.346ZM230.822 760H224.482V746.4H226.882V757.84H230.822V760ZM230.162 751.44H223.502V750H230.162V751.44ZM242.771 756.88C242.104 757.987 241.271 758.82 240.271 759.38C239.271 759.94 238.217 760.22 237.111 760.22C236.124 760.22 235.197 760.007 234.331 759.58C233.477 759.153 232.784 758.553 232.251 757.78C231.731 756.993 231.471 756.087 231.471 755.06C231.471 753.94 231.744 752.987 232.291 752.2C232.851 751.4 233.571 750.807 234.451 750.42C235.331 750.02 236.271 749.82 237.271 749.82C238.217 749.82 239.104 750 239.931 750.36C240.771 750.707 241.444 751.22 241.951 751.9C242.457 752.58 242.711 753.393 242.711 754.34C242.711 754.58 242.691 754.833 242.651 755.1H232.271V754.3H240.431C240.271 753.553 239.884 752.98 239.271 752.58C238.657 752.18 237.957 751.98 237.171 751.98C236.544 751.98 235.944 752.107 235.371 752.36C234.811 752.6 234.351 752.953 233.991 753.42C233.644 753.887 233.471 754.433 233.471 755.06C233.471 755.647 233.631 756.167 233.951 756.62C234.271 757.06 234.697 757.407 235.231 757.66C235.777 757.9 236.357 758.02 236.971 758.02C237.717 758.02 238.431 757.833 239.111 757.46C239.791 757.087 240.357 756.52 240.811 755.76L242.771 756.88ZM254.235 760V746.2H256.635V760H254.235ZM244.615 755C244.615 753.893 244.849 752.947 245.315 752.16C245.782 751.373 246.389 750.787 247.135 750.4C247.882 750 248.682 749.8 249.535 749.8C250.375 749.8 251.169 750 251.915 750.4C252.675 750.787 253.282 751.373 253.735 752.16C254.202 752.947 254.435 753.893 254.435 755C254.435 756.08 254.195 757.013 253.715 757.8C253.235 758.587 252.609 759.18 251.835 759.58C251.075 759.98 250.262 760.18 249.395 760.18C248.555 760.18 247.769 759.987 247.035 759.6C246.315 759.213 245.729 758.633 245.275 757.86C244.835 757.073 244.615 756.12 244.615 755ZM246.615 755C246.615 755.6 246.795 756.12 247.155 756.56C247.515 756.987 247.982 757.313 248.555 757.54C249.142 757.753 249.769 757.86 250.435 757.86C251.089 757.86 251.702 757.753 252.275 757.54C252.862 757.313 253.335 756.987 253.695 756.56C254.055 756.12 254.235 755.6 254.235 755C254.235 754.387 254.055 753.86 253.695 753.42C253.335 752.98 252.862 752.647 252.275 752.42C251.702 752.193 251.089 752.08 250.435 752.08C249.769 752.08 249.142 752.193 248.555 752.42C247.982 752.647 247.515 752.98 247.155 753.42C246.795 753.86 246.615 754.387 246.615 755Z" fill="#F4F4F6"/>
</g>
<rect x="0.5" y="0.5" width="374" height="811" rx="31.5" stroke="#CACACA"/>
<defs>
<clipPath id="clip0_7380_44485">
<rect width="375" height="812" rx="32" fill="white"/>
</clipPath>
</defs>
</svg>
